<svg width="137" height="42" viewBox="0 0 137 42" fill="none" xmlns="http://www.w3.org/2000/svg">
<rect x="0.893555" y="0.351074" width="136" height="41.0591" rx="20.5296" fill="#FFF0E0"/>
<path d="M26.9075 15.7049L23.2951 26.7153H20.3851L25.3202 13.4335H27.172L26.9075 15.7049ZM29.9087 26.7153L26.2872 15.7049L25.9953 13.4335H27.8653L32.8277 26.7153H29.9087ZM29.7445 21.7711V23.9148H22.7295V21.7711H29.7445ZM40.5933 20.8863H37.1816L37.1634 19.0071H40.0277C40.5325 19.0071 40.946 18.9433 41.2683 18.8156C41.5907 18.6818 41.8309 18.4902 41.989 18.2409C42.1532 17.9854 42.2353 17.6753 42.2353 17.3104C42.2353 16.8969 42.1562 16.5624 41.9981 16.307C41.8461 16.0515 41.6059 15.8661 41.2775 15.7505C40.9551 15.635 40.5386 15.5772 40.0277 15.5772H38.1303V26.7153H35.3937V13.4335H40.0277C40.8001 13.4335 41.4903 13.5065 42.0985 13.6524C42.7127 13.7984 43.2326 14.0203 43.6583 14.3183C44.084 14.6163 44.4094 14.9934 44.6344 15.4495C44.8594 15.8995 44.9719 16.4347 44.9719 17.055C44.9719 17.6023 44.8473 18.1071 44.5979 18.5693C44.3547 19.0314 43.9685 19.4085 43.4394 19.7004C42.9164 19.9923 42.2322 20.1535 41.3869 20.1839L40.5933 20.8863ZM40.4747 26.7153H36.4336L37.5009 24.5808H40.4747C40.9551 24.5808 41.3474 24.5047 41.6515 24.3527C41.9555 24.1946 42.1806 23.9817 42.3265 23.7141C42.4725 23.4466 42.5454 23.1395 42.5454 22.7928C42.5454 22.4036 42.4785 22.0661 42.3448 21.7803C42.217 21.4944 42.0103 21.2755 41.7244 21.1235C41.4386 20.9653 41.0616 20.8863 40.5933 20.8863H37.957L37.9752 19.0071H41.2592L41.8886 19.746C42.6975 19.7339 43.3482 19.8768 43.8408 20.1748C44.3395 20.4667 44.7013 20.8468 44.9263 21.315C45.1574 21.7833 45.273 22.285 45.273 22.8202C45.273 23.6716 45.0875 24.3892 44.7165 24.973C44.3455 25.5507 43.8013 25.9856 43.0836 26.2775C42.3721 26.5694 41.5025 26.7153 40.4747 26.7153ZM59.57 19.7643V20.3937C59.57 21.4032 59.4331 22.3093 59.1595 23.1121C58.8858 23.9148 58.4996 24.599 58.001 25.1646C57.5023 25.7241 56.9063 26.1528 56.213 26.4508C55.5258 26.7488 54.7626 26.8978 53.9234 26.8978C53.0902 26.8978 52.327 26.7488 51.6337 26.4508C50.9465 26.1528 50.3505 25.7241 49.8458 25.1646C49.341 24.599 48.9487 23.9148 48.669 23.1121C48.3953 22.3093 48.2585 21.4032 48.2585 20.3937V19.7643C48.2585 18.7487 48.3953 17.8425 48.669 17.0459C48.9427 16.2431 49.3288 15.5589 49.8275 14.9934C50.3323 14.4278 50.9283 13.996 51.6155 13.698C52.3087 13.4 53.072 13.251 53.9051 13.251C54.7444 13.251 55.5076 13.4 56.1948 13.698C56.8881 13.996 57.484 14.4278 57.9827 14.9934C58.4875 15.5589 58.8767 16.2431 59.1503 17.0459C59.4301 17.8425 59.57 18.7487 59.57 19.7643ZM56.806 20.3937V19.746C56.806 19.0406 56.7421 18.4203 56.6144 17.8851C56.4867 17.3499 56.2982 16.8999 56.0488 16.535C55.7995 16.1701 55.4954 15.8965 55.1366 15.714C54.7778 15.5255 54.3673 15.4312 53.9051 15.4312C53.4429 15.4312 53.0324 15.5255 52.6736 15.714C52.3209 15.8965 52.0199 16.1701 51.7705 16.535C51.5273 16.8999 51.3418 17.3499 51.2141 17.8851C51.0864 18.4203 51.0225 19.0406 51.0225 19.746V20.3937C51.0225 21.0931 51.0864 21.7134 51.2141 22.2546C51.3418 22.7898 51.5303 23.2428 51.7797 23.6138C52.029 23.9787 52.3331 24.2554 52.6919 24.4439C53.0507 24.6324 53.4612 24.7267 53.9234 24.7267C54.3855 24.7267 54.796 24.6324 55.1548 24.4439C55.5137 24.2554 55.8147 23.9787 56.0579 23.6138C56.3012 23.2428 56.4867 22.7898 56.6144 22.2546C56.7421 21.7134 56.806 21.0931 56.806 20.3937ZM70.209 13.4335H72.9365V22.209C72.9365 23.2307 72.7176 24.0912 72.2797 24.7906C71.8479 25.4899 71.2489 26.016 70.4827 26.3687C69.7225 26.7214 68.8468 26.8978 67.8555 26.8978C66.8642 26.8978 65.9824 26.7214 65.2101 26.3687C64.4438 26.016 63.8417 25.4899 63.4039 24.7906C62.9721 24.0912 62.7562 23.2307 62.7562 22.209V13.4335H65.4928V22.209C65.4928 22.805 65.5871 23.2915 65.7756 23.6685C65.9642 24.0456 66.2348 24.3223 66.5875 24.4987C66.9463 24.675 67.369 24.7632 67.8555 24.7632C68.3542 24.7632 68.7768 24.675 69.1235 24.4987C69.4762 24.3223 69.7438 24.0456 69.9262 23.6685C70.1147 23.2915 70.209 22.805 70.209 22.209V13.4335ZM82.4626 13.4335V26.7153H79.7351V13.4335H82.4626ZM86.5494 13.4335V15.5772H75.7123V13.4335H86.5494ZM102.272 13.4335H105V22.209C105 23.2307 104.781 24.0912 104.343 24.7906C103.911 25.4899 103.312 26.016 102.546 26.3687C101.786 26.7214 100.91 26.8978 99.9185 26.8978C98.9272 26.8978 98.0454 26.7214 97.2731 26.3687C96.5068 26.016 95.9048 25.4899 95.4669 24.7906C95.0351 24.0912 94.8192 23.2307 94.8192 22.209V13.4335H97.5559V22.209C97.5559 22.805 97.6501 23.2915 97.8387 23.6685C98.0272 24.0456 98.2978 24.3223 98.6505 24.4987C99.0093 24.675 99.432 24.7632 99.9185 24.7632C100.417 24.7632 100.84 24.675 101.186 24.4987C101.539 24.3223 101.807 24.0456 101.989 23.6685C102.178 23.2915 102.272 22.805 102.272 22.209V13.4335ZM115.502 23.2398C115.502 23.0026 115.465 22.7898 115.392 22.6012C115.325 22.4066 115.198 22.2303 115.009 22.0722C114.821 21.908 114.556 21.7468 114.216 21.5887C113.875 21.4306 113.434 21.2664 112.893 21.0961C112.291 20.9015 111.719 20.6826 111.178 20.4393C110.643 20.196 110.168 19.9133 109.755 19.5909C109.347 19.2625 109.025 18.8825 108.788 18.4507C108.557 18.0189 108.441 17.5172 108.441 16.9455C108.441 16.3921 108.563 15.8904 108.806 15.4404C109.049 14.9843 109.39 14.595 109.828 14.2727C110.266 13.9443 110.783 13.692 111.379 13.5156C111.981 13.3392 112.64 13.251 113.358 13.251C114.337 13.251 115.192 13.4274 115.921 13.7801C116.651 14.1329 117.217 14.6163 117.618 15.2306C118.026 15.8448 118.229 16.5472 118.229 17.3378H115.511C115.511 16.9486 115.429 16.608 115.265 16.3161C115.106 16.0181 114.863 15.784 114.535 15.6137C114.212 15.4434 113.805 15.3583 113.312 15.3583C112.838 15.3583 112.443 15.4312 112.127 15.5772C111.81 15.7171 111.573 15.9086 111.415 16.1519C111.257 16.3891 111.178 16.6566 111.178 16.9546C111.178 17.1797 111.233 17.3834 111.342 17.5658C111.458 17.7483 111.628 17.9185 111.853 18.0767C112.078 18.2348 112.355 18.3838 112.683 18.5236C113.011 18.6635 113.391 18.8004 113.823 18.9341C114.547 19.1531 115.182 19.3994 115.73 19.673C116.283 19.9467 116.745 20.2538 117.116 20.5944C117.487 20.9349 117.767 21.3211 117.956 21.7529C118.144 22.1847 118.238 22.6742 118.238 23.2216C118.238 23.7993 118.126 24.3162 117.901 24.7723C117.676 25.2284 117.35 25.6146 116.925 25.9308C116.499 26.2471 115.991 26.4873 115.401 26.6515C114.811 26.8157 114.152 26.8978 113.422 26.8978C112.765 26.8978 112.117 26.8126 111.479 26.6424C110.84 26.466 110.26 26.2015 109.737 25.8487C109.22 25.496 108.806 25.046 108.496 24.4987C108.186 23.9513 108.031 23.3037 108.031 22.5556H110.776C110.776 22.9692 110.84 23.3189 110.968 23.6047C111.096 23.8905 111.275 24.1216 111.506 24.298C111.743 24.4743 112.023 24.602 112.345 24.6811C112.674 24.7602 113.033 24.7997 113.422 24.7997C113.896 24.7997 114.285 24.7328 114.59 24.599C114.9 24.4652 115.128 24.2797 115.274 24.0425C115.426 23.8054 115.502 23.5378 115.502 23.2398Z" fill="#F38313"/>
</svg>
