<svg width="52" height="49" viewBox="0 0 52 49" fill="none" xmlns="http://www.w3.org/2000/svg">
<rect x="0.864502" y="0.221558" width="50.7359" height="47.9382" rx="12" fill="#F38313"/>
<path d="M24.8226 32.5138V36.5087C24.8226 37.2411 24.1884 37.8404 23.4133 37.8404C22.6381 37.8404 22.0039 37.2411 22.0039 36.5087V32.5138H24.8226Z" fill="white"/>
<path d="M30.4606 32.5138V36.5087C30.4606 37.2411 29.8264 37.8404 29.0512 37.8404C28.2761 37.8404 27.6418 37.2411 27.6418 36.5087V32.5138H30.4606Z" fill="white"/>
<path d="M33.2797 23.1923V29.8506C33.2797 31.3154 32.0112 32.5139 30.4609 32.5139H22.0048C20.4545 32.5139 19.186 31.3154 19.186 29.8506V23.1923C19.186 21.7275 20.4545 20.5291 22.0048 20.5291H30.4609C32.0112 20.5291 33.2797 21.7275 33.2797 23.1923Z" fill="white"/>
<path d="M16.3676 23.1924V28.5189C16.3676 29.2513 15.7333 29.8506 14.9582 29.8506C14.183 29.8506 13.5488 29.2513 13.5488 28.5189V23.1924C13.5488 22.46 14.183 21.8607 14.9582 21.8607C15.7333 21.8607 16.3676 22.46 16.3676 23.1924Z" fill="white"/>
<path d="M38.9166 23.1925V28.5191C38.9166 29.2515 38.2824 29.8507 37.5073 29.8507C36.7321 29.8507 36.0979 29.2515 36.0979 28.5191V23.1925C36.0979 22.4601 36.7321 21.8608 37.5073 21.8608C38.2824 21.8608 38.9166 22.4601 38.9166 23.1925Z" fill="white"/>
<path d="M22.8502 18.6646H29.6151C30.8554 18.6646 31.8701 17.7058 31.8701 16.534C31.8701 13.591 29.3474 11.2074 26.2327 11.2074C23.118 11.2074 20.5952 13.591 20.5952 16.534C20.5952 17.7058 21.6099 18.6646 22.8502 18.6646Z" fill="white"/>
</svg>
