<svg width="51" height="49" viewBox="0 0 51 49" fill="none" xmlns="http://www.w3.org/2000/svg">
<rect y="0.221558" width="50.7359" height="47.9382" rx="12" fill="#2563AC"/>
<path fill-rule="evenodd" clip-rule="evenodd" d="M35.2448 33.7319C36.0644 32.5505 36.37 31.9467 36.9952 30.621C32.383 28.9671 31.6467 22.7585 36.2033 20.3827C34.8141 18.7288 32.8553 17.7706 31.0077 17.7706C29.674 17.7706 28.7572 18.0988 27.9375 18.4007C27.2429 18.6501 26.6178 18.8732 25.8398 18.8732C25.0063 18.8732 24.27 18.6238 23.4921 18.3613C22.6446 18.0725 21.7555 17.7706 20.6441 17.7706C18.5742 17.7706 16.3654 18.9651 14.9623 21.0128C12.9896 23.9005 13.3369 29.3084 16.5182 33.9288C17.6574 35.5826 19.1855 37.4334 21.172 37.4597C22.0056 37.4728 22.5474 37.2365 23.1448 36.9871C23.8255 36.6984 24.5618 36.3833 25.8537 36.3833C27.1457 36.3702 27.8681 36.6984 28.5488 36.9871C29.1323 37.2365 29.6601 37.4728 30.4798 37.4597C32.4941 37.4334 34.1056 35.3858 35.2448 33.7319Z" fill="white"/>
<path fill-rule="evenodd" clip-rule="evenodd" d="M30.7164 11.2074C30.9387 12.6513 30.3135 14.082 29.4939 15.0796C28.6187 16.1559 27.0906 16.996 25.618 16.9435C25.354 15.5521 26.0348 14.1214 26.8683 13.1632C27.799 12.1131 29.3689 11.2993 30.7164 11.2074Z" fill="white"/>
</svg>
