<svg width="24" height="21" viewBox="0 0 24 21" fill="none" xmlns="http://www.w3.org/2000/svg">
<path d="M0.17733 20.1593V15.3454C0.17733 13.7276 0.442557 12.0434 0.973012 10.2929C1.52999 8.51585 2.32567 6.81839 3.36006 5.20051C4.39444 3.5561 5.64101 2.13713 7.09976 0.943608L11.2771 3.84785C10.057 5.59835 9.11549 7.40189 8.45242 9.25848C7.78935 11.0886 7.45782 13.0778 7.45782 15.2261V20.1593H0.17733ZM12.7093 20.1593V15.3454C12.7093 13.7276 12.9745 12.0434 13.505 10.2929C14.062 8.51585 14.8577 6.81839 15.892 5.20051C16.9264 3.5561 18.173 2.13713 19.6318 0.943608L23.8091 3.84785C22.589 5.59835 21.6475 7.40189 20.9844 9.25848C20.3213 11.0886 19.9898 13.0778 19.9898 15.2261V20.1593H12.7093Z" fill="#F38313"/>
</svg>
