<svg width="24" height="20" viewBox="0 0 24 20" fill="none" xmlns="http://www.w3.org/2000/svg">
<path d="M23.8227 0.187843V5.00172C23.8227 6.6196 23.5574 8.3038 23.027 10.0543C22.47 11.8313 21.6743 13.5288 20.6399 15.1467C19.6056 16.7911 18.359 18.21 16.9002 19.4036L12.7229 16.4993C13.943 14.7488 14.8845 12.9453 15.5476 11.0887C16.2106 9.25862 16.5422 7.26941 16.5422 5.12107V0.187843L23.8227 0.187843ZM11.2907 0.187843V5.00172C11.2907 6.6196 11.0255 8.3038 10.495 10.0543C9.93802 11.8313 9.14234 13.5288 8.10795 15.1467C7.07357 16.7911 5.827 18.21 4.36825 19.4036L0.190919 16.4993C1.41096 14.7488 2.35252 12.9453 3.01559 11.0887C3.67866 9.25862 4.01019 7.26941 4.01019 5.12107V0.187843L11.2907 0.187843Z" fill="#F38313"/>
</svg>
