<svg width="188" height="44" viewBox="0 0 188 44" fill="none" xmlns="http://www.w3.org/2000/svg">
<rect width="188" height="43.7975" rx="21.3365" fill="#FFF0E0"/>
<path d="M21.3467 15.2031H23.5791L26.8662 24.5986L30.1533 15.2031H32.3857L27.7627 28H25.9697L21.3467 15.2031ZM20.1426 15.2031H22.3662L22.7705 24.3613V28H20.1426V15.2031ZM31.3662 15.2031H33.5986V28H30.9619V24.3613L31.3662 15.2031ZM41.2715 17.3916L37.791 28H34.9873L39.7422 15.2031H41.5264L41.2715 17.3916ZM44.1631 28L40.6738 17.3916L40.3926 15.2031H42.1943L46.9756 28H44.1631ZM44.0049 23.2363V25.3018H37.2461V23.2363H44.0049ZM58.5771 15.2031V28H55.9404L50.7988 19.4219V28H48.1621V15.2031H50.7988L55.9492 23.79V15.2031H58.5771ZM67.9375 15.2031H70.5654V23.6582C70.5654 24.6426 70.3545 25.4717 69.9326 26.1455C69.5166 26.8193 68.9395 27.3262 68.2012 27.666C67.4688 28.0059 66.625 28.1758 65.6699 28.1758C64.7148 28.1758 63.8652 28.0059 63.1211 27.666C62.3828 27.3262 61.8027 26.8193 61.3809 26.1455C60.9648 25.4717 60.7568 24.6426 60.7568 23.6582V15.2031H63.3936V23.6582C63.3936 24.2324 63.4844 24.7012 63.666 25.0645C63.8477 25.4277 64.1084 25.6943 64.4482 25.8643C64.7939 26.0342 65.2012 26.1191 65.6699 26.1191C66.1504 26.1191 66.5576 26.0342 66.8916 25.8643C67.2314 25.6943 67.4893 25.4277 67.665 25.0645C67.8467 24.7012 67.9375 24.2324 67.9375 23.6582V15.2031ZM75.373 15.2031V28H72.7363V15.2031H75.373ZM80.4707 20.6699V22.7266H74.6523V20.6699H80.4707ZM81.0859 15.2031V17.2686H74.6523V15.2031H81.0859ZM86.2012 17.3916L82.7207 28H79.917L84.6719 15.2031H86.4561L86.2012 17.3916ZM89.0928 28L85.6035 17.3916L85.3223 15.2031H87.124L91.9053 28H89.0928ZM88.9346 23.2363V25.3018H82.1758V23.2363H88.9346ZM100.352 23.7549H102.979C102.927 24.6162 102.689 25.3809 102.268 26.0488C101.852 26.7168 101.269 27.2383 100.519 27.6133C99.7744 27.9883 98.8779 28.1758 97.8291 28.1758C97.0088 28.1758 96.2734 28.0352 95.623 27.7539C94.9727 27.4668 94.416 27.0566 93.9531 26.5234C93.4961 25.9902 93.1475 25.3457 92.9072 24.5898C92.667 23.834 92.5469 22.9873 92.5469 22.0498V21.1621C92.5469 20.2246 92.6699 19.3779 92.916 18.6221C93.168 17.8604 93.5254 17.2129 93.9883 16.6797C94.457 16.1465 95.0166 15.7363 95.667 15.4492C96.3174 15.1621 97.0439 15.0186 97.8467 15.0186C98.9131 15.0186 99.8125 15.2119 100.545 15.5986C101.283 15.9854 101.854 16.5186 102.259 17.1982C102.669 17.8779 102.915 18.6514 102.997 19.5186H100.36C100.331 19.0029 100.229 18.5664 100.053 18.209C99.877 17.8457 99.6104 17.5732 99.2529 17.3916C98.9014 17.2041 98.4326 17.1104 97.8467 17.1104C97.4072 17.1104 97.0234 17.1924 96.6953 17.3564C96.3672 17.5205 96.0918 17.7695 95.8691 18.1035C95.6465 18.4375 95.4795 18.8594 95.3682 19.3691C95.2627 19.873 95.21 20.4648 95.21 21.1445V22.0498C95.21 22.7119 95.2598 23.2949 95.3594 23.7988C95.459 24.2969 95.6113 24.7188 95.8164 25.0645C96.0273 25.4043 96.2969 25.6621 96.625 25.8379C96.959 26.0078 97.3604 26.0928 97.8291 26.0928C98.3799 26.0928 98.834 26.0049 99.1914 25.8291C99.5488 25.6533 99.8213 25.3926 100.009 25.0469C100.202 24.7012 100.316 24.2705 100.352 23.7549ZM110.169 15.2031V28H107.541V15.2031H110.169ZM114.106 15.2031V17.2686H103.665V15.2031H114.106ZM122.676 15.2031H125.304V23.6582C125.304 24.6426 125.093 25.4717 124.671 26.1455C124.255 26.8193 123.678 27.3262 122.939 27.666C122.207 28.0059 121.363 28.1758 120.408 28.1758C119.453 28.1758 118.604 28.0059 117.859 27.666C117.121 27.3262 116.541 26.8193 116.119 26.1455C115.703 25.4717 115.495 24.6426 115.495 23.6582V15.2031H118.132V23.6582C118.132 24.2324 118.223 24.7012 118.404 25.0645C118.586 25.4277 118.847 25.6943 119.187 25.8643C119.532 26.0342 119.939 26.1191 120.408 26.1191C120.889 26.1191 121.296 26.0342 121.63 25.8643C121.97 25.6943 122.228 25.4277 122.403 25.0645C122.585 24.7012 122.676 24.2324 122.676 23.6582V15.2031ZM127.475 15.2031H132.247C133.226 15.2031 134.066 15.3496 134.77 15.6426C135.479 15.9355 136.023 16.3691 136.404 16.9434C136.785 17.5176 136.976 18.2236 136.976 19.0615C136.976 19.7471 136.858 20.3359 136.624 20.8281C136.396 21.3145 136.07 21.7217 135.648 22.0498C135.232 22.3721 134.743 22.6299 134.181 22.8232L133.346 23.2627H129.197L129.18 21.2061H132.265C132.728 21.2061 133.111 21.124 133.416 20.96C133.721 20.7959 133.949 20.5674 134.102 20.2744C134.26 19.9814 134.339 19.6416 134.339 19.2549C134.339 18.8447 134.263 18.4902 134.11 18.1914C133.958 17.8926 133.727 17.6641 133.416 17.5059C133.105 17.3477 132.716 17.2686 132.247 17.2686H130.111V28H127.475V15.2031ZM134.629 28L131.711 22.2959L134.497 22.2783L137.45 27.877V28H134.629ZM141.81 15.2031V28H139.182V15.2031H141.81ZM154.694 15.2031V28H152.058L146.916 19.4219V28H144.279V15.2031H146.916L152.066 23.79V15.2031H154.694ZM167.131 21.3115V26.3828C166.932 26.623 166.624 26.8838 166.208 27.165C165.792 27.4404 165.256 27.6777 164.6 27.877C163.943 28.0762 163.149 28.1758 162.218 28.1758C161.392 28.1758 160.639 28.041 159.959 27.7715C159.279 27.4961 158.693 27.0947 158.201 26.5674C157.715 26.04 157.34 25.3955 157.076 24.6338C156.812 23.8662 156.681 22.9902 156.681 22.0059V21.2061C156.681 20.2217 156.807 19.3457 157.059 18.5781C157.316 17.8105 157.683 17.1631 158.157 16.6357C158.632 16.1084 159.197 15.707 159.854 15.4316C160.51 15.1562 161.239 15.0186 162.042 15.0186C163.155 15.0186 164.069 15.2002 164.784 15.5635C165.499 15.9209 166.044 16.4189 166.419 17.0576C166.8 17.6904 167.034 18.417 167.122 19.2373H164.564C164.5 18.8037 164.377 18.4258 164.195 18.1035C164.014 17.7812 163.753 17.5293 163.413 17.3477C163.079 17.166 162.646 17.0752 162.112 17.0752C161.673 17.0752 161.28 17.166 160.935 17.3477C160.595 17.5234 160.308 17.7842 160.073 18.1299C159.839 18.4756 159.66 18.9033 159.537 19.4131C159.414 19.9229 159.353 20.5146 159.353 21.1885V22.0059C159.353 22.6738 159.417 23.2656 159.546 23.7812C159.675 24.291 159.865 24.7217 160.117 25.0732C160.375 25.4189 160.691 25.6797 161.066 25.8555C161.441 26.0312 161.878 26.1191 162.376 26.1191C162.792 26.1191 163.138 26.084 163.413 26.0137C163.694 25.9434 163.92 25.8584 164.09 25.7588C164.266 25.6533 164.4 25.5537 164.494 25.46V23.1924H162.086V21.3115H167.131Z" fill="#F38313"/>
</svg>
