<svg width="161" height="45" viewBox="0 0 161 45" fill="none" xmlns="http://www.w3.org/2000/svg">
<rect width="160.768" height="44.3328" rx="21.3365" fill="#FFF0E0"/>
<path d="M27.8789 23.597H30.6046C30.5499 24.4904 30.3038 25.2835 29.8662 25.9763C29.4347 26.6691 28.83 27.21 28.0521 27.5989C27.2803 27.9878 26.3505 28.1823 25.2626 28.1823C24.4118 28.1823 23.6491 28.0365 22.9745 27.7448C22.3 27.447 21.7226 27.0216 21.2425 26.4685C20.7685 25.9155 20.4069 25.247 20.1577 24.463C19.9086 23.679 19.784 22.8009 19.784 21.8285V20.9078C19.784 19.9354 19.9116 19.0573 20.1668 18.2733C20.4282 17.4833 20.7989 16.8117 21.279 16.2587C21.7652 15.7056 22.3455 15.2802 23.0201 14.9824C23.6947 14.6847 24.4483 14.5358 25.2809 14.5358C26.3869 14.5358 27.3198 14.7363 28.0795 15.1374C28.8452 15.5385 29.4377 16.0916 29.8571 16.7965C30.2825 17.5015 30.5377 18.3037 30.6228 19.2031H27.888C27.8576 18.6683 27.7513 18.2156 27.569 17.8449C27.3867 17.4681 27.1101 17.1855 26.7394 16.9971C26.3748 16.8026 25.8886 16.7054 25.2809 16.7054C24.8251 16.7054 24.427 16.7904 24.0867 16.9606C23.7464 17.1308 23.4607 17.3891 23.2298 17.7355C22.9989 18.0819 22.8257 18.5194 22.7102 19.0482C22.6008 19.5708 22.5461 20.1846 22.5461 20.8896V21.8285C22.5461 22.5152 22.5978 23.1199 22.7011 23.6426C22.8044 24.1592 22.9624 24.5967 23.1751 24.9553C23.3939 25.3078 23.6734 25.5752 24.0138 25.7575C24.3602 25.9337 24.7765 26.0218 25.2626 26.0218C25.8339 26.0218 26.3049 25.9307 26.6756 25.7484C27.0463 25.566 27.3289 25.2956 27.5234 24.937C27.7239 24.5785 27.8425 24.1318 27.8789 23.597ZM39.1306 16.9971L35.5207 28H32.6127L37.5444 14.7272H39.3949L39.1306 16.9971ZM42.1297 28L38.5107 16.9971L38.219 14.7272H40.0878L45.0468 28H42.1297ZM41.9656 23.0592V25.2014H34.9555V23.0592H41.9656ZM52.4151 14.7272V28H49.6894V14.7272H52.4151ZM56.499 14.7272V16.8694H45.6693V14.7272H56.499ZM68.2977 25.8669V28H61.2328V25.8669H68.2977ZM62.1262 14.7272V28H59.3914V14.7272H62.1262ZM67.3769 20.133V22.2114H61.2328V20.133H67.3769ZM68.2885 14.7272V16.8694H61.2328V14.7272H68.2885ZM81.7463 21.0628V26.3227C81.5396 26.5718 81.2206 26.8423 80.7891 27.134C80.3576 27.4196 79.8015 27.6657 79.1209 27.8724C78.4402 28.079 77.6167 28.1823 76.6505 28.1823C75.7936 28.1823 75.0126 28.0425 74.3077 27.763C73.6027 27.4774 72.995 27.0611 72.4845 26.5141C71.9801 25.9671 71.5911 25.2986 71.3176 24.5086C71.0442 23.7125 70.9074 22.8039 70.9074 21.7829V20.9534C70.9074 19.9324 71.0381 19.0238 71.2994 18.2277C71.5668 17.4316 71.9466 16.7601 72.4389 16.2131C72.9312 15.6661 73.5176 15.2499 74.1983 14.9642C74.8789 14.6786 75.6355 14.5358 76.4681 14.5358C77.6228 14.5358 78.5709 14.7242 79.3123 15.101C80.0537 15.4717 80.6189 15.9882 81.0079 16.6507C81.4029 17.307 81.646 18.0606 81.7371 18.9114H79.0844C79.0176 18.4617 78.8899 18.0697 78.7015 17.7355C78.5131 17.4012 78.2427 17.1399 77.8902 16.9515C77.5438 16.7631 77.0941 16.6689 76.5411 16.6689C76.0853 16.6689 75.6781 16.7631 75.3195 16.9515C74.967 17.1338 74.6693 17.4042 74.4262 17.7628C74.1831 18.1214 73.9977 18.565 73.8701 19.0937C73.7425 19.6225 73.6787 20.2363 73.6787 20.9352V21.7829C73.6787 22.4757 73.7455 23.0896 73.8792 23.6244C74.0129 24.1531 74.2104 24.5998 74.4717 24.9644C74.7391 25.323 75.0673 25.5934 75.4563 25.7757C75.8452 25.958 76.298 26.0492 76.8145 26.0492C77.246 26.0492 77.6046 26.0127 77.8902 25.9398C78.1819 25.8669 78.4159 25.7788 78.5921 25.6754C78.7745 25.566 78.9142 25.4627 79.0115 25.3655V23.0136H76.5137V21.0628H81.7463ZM96.1885 21.0537V21.6827C96.1885 22.6915 96.0518 23.597 95.7783 24.3992C95.5048 25.2014 95.1189 25.8851 94.6206 26.4503C94.1222 27.0094 93.5266 27.4379 92.8338 27.7356C92.1471 28.0334 91.3844 28.1823 90.5457 28.1823C89.7132 28.1823 88.9505 28.0334 88.2576 27.7356C87.5709 27.4379 86.9753 27.0094 86.4709 26.4503C85.9665 25.8851 85.5745 25.2014 85.295 24.3992C85.0215 23.597 84.8847 22.6915 84.8847 21.6827V21.0537C84.8847 20.0388 85.0215 19.1332 85.295 18.3371C85.5684 17.5349 85.9543 16.8512 86.4527 16.286C86.9571 15.7208 87.5527 15.2894 88.2394 14.9916C88.9322 14.6938 89.6949 14.5449 90.5275 14.5449C91.3662 14.5449 92.1289 14.6938 92.8156 14.9916C93.5084 15.2894 94.104 15.7208 94.6023 16.286C95.1067 16.8512 95.4957 17.5349 95.7692 18.3371C96.0487 19.1332 96.1885 20.0388 96.1885 21.0537ZM93.4264 21.6827V21.0354C93.4264 20.3305 93.3626 19.7106 93.2349 19.1758C93.1073 18.641 92.9189 18.1913 92.6698 17.8266C92.4206 17.462 92.1167 17.1885 91.7582 17.0062C91.3996 16.8178 90.9894 16.7236 90.5275 16.7236C90.0656 16.7236 89.6554 16.8178 89.2969 17.0062C88.9444 17.1885 88.6435 17.462 88.3944 17.8266C88.1513 18.1913 87.9659 18.641 87.8383 19.1758C87.7107 19.7106 87.6469 20.3305 87.6469 21.0354V21.6827C87.6469 22.3815 87.7107 23.0014 87.8383 23.5423C87.9659 24.0771 88.1543 24.5299 88.4035 24.9006C88.6527 25.2652 88.9565 25.5417 89.3151 25.7301C89.6736 25.9185 90.0839 26.0127 90.5457 26.0127C91.0076 26.0127 91.4178 25.9185 91.7764 25.7301C92.135 25.5417 92.4358 25.2652 92.6789 24.9006C92.922 24.5299 93.1073 24.0771 93.2349 23.5423C93.3626 23.0014 93.4264 22.3815 93.4264 21.6827ZM99.4911 14.7272H104.441C105.456 14.7272 106.328 14.8791 107.057 15.183C107.793 15.4869 108.358 15.9366 108.753 16.5322C109.148 17.1277 109.345 17.86 109.345 18.7291C109.345 19.4401 109.224 20.0509 108.981 20.5614C108.744 21.0658 108.406 21.4882 107.969 21.8285C107.537 22.1628 107.03 22.4302 106.447 22.6307L105.581 23.0865H101.278L101.26 20.9534H104.459C104.939 20.9534 105.337 20.8683 105.653 20.6981C105.969 20.528 106.206 20.291 106.364 19.9871C106.529 19.6832 106.611 19.3307 106.611 18.9296C106.611 18.5042 106.532 18.1366 106.374 17.8266C106.216 17.5167 105.976 17.2797 105.653 17.1156C105.331 16.9515 104.927 16.8694 104.441 16.8694H102.226V28H99.4911V14.7272ZM106.911 28L103.885 22.0838L106.775 22.0655L109.838 27.8724V28H106.911ZM115.693 14.7272V28H112.967V14.7272H115.693ZM128.494 25.8669V28H121.429V25.8669H128.494ZM122.323 14.7272V28H119.588V14.7272H122.323ZM127.573 20.133V22.2114H121.429V20.133H127.573ZM128.485 14.7272V16.8694H121.429V14.7272H128.485ZM138.333 24.5268C138.333 24.2898 138.296 24.0771 138.223 23.8887C138.157 23.6942 138.029 23.518 137.84 23.36C137.652 23.1959 137.388 23.0349 137.047 22.8768C136.707 22.7188 136.266 22.5548 135.726 22.3846C135.124 22.1901 134.553 21.9713 134.012 21.7282C133.477 21.4851 133.003 21.2026 132.59 20.8805C132.183 20.5523 131.86 20.1725 131.623 19.741C131.392 19.3095 131.277 18.8081 131.277 18.2368C131.277 17.6838 131.399 17.1824 131.642 16.7327C131.885 16.2769 132.225 15.888 132.663 15.5659C133.1 15.2377 133.617 14.9855 134.212 14.8092C134.814 14.633 135.473 14.5449 136.191 14.5449C137.169 14.5449 138.023 14.7211 138.752 15.0736C139.481 15.4261 140.047 15.9092 140.448 16.523C140.855 17.1368 141.058 17.8388 141.058 18.6288H138.342C138.342 18.2399 138.26 17.8995 138.096 17.6078C137.938 17.3101 137.695 17.0761 137.366 16.9059C137.044 16.7357 136.637 16.6507 136.145 16.6507C135.671 16.6507 135.276 16.7236 134.96 16.8694C134.644 17.0092 134.407 17.2007 134.249 17.4438C134.091 17.6808 134.012 17.9482 134.012 18.246C134.012 18.4708 134.066 18.6744 134.176 18.8567C134.291 19.039 134.462 19.2092 134.686 19.3672C134.911 19.5252 135.188 19.6741 135.516 19.8139C135.844 19.9537 136.224 20.0904 136.655 20.2241C137.379 20.4429 138.014 20.689 138.561 20.9625C139.114 21.236 139.576 21.5429 139.946 21.8832C140.317 22.2235 140.597 22.6094 140.785 23.0409C140.973 23.4724 141.068 23.9616 141.068 24.5086C141.068 25.0859 140.955 25.6025 140.73 26.0583C140.505 26.5141 140.18 26.9 139.755 27.216C139.329 27.532 138.822 27.7721 138.232 27.9362C137.643 28.1003 136.984 28.1823 136.254 28.1823C135.598 28.1823 134.951 28.0972 134.313 27.9271C133.675 27.7508 133.094 27.4865 132.571 27.134C132.055 26.7815 131.642 26.3318 131.332 25.7848C131.022 25.2379 130.867 24.5906 130.867 23.8431H133.611C133.611 24.2564 133.675 24.6058 133.802 24.8915C133.93 25.1771 134.109 25.408 134.34 25.5843C134.577 25.7605 134.857 25.8881 135.179 25.9671C135.507 26.0462 135.865 26.0857 136.254 26.0857C136.728 26.0857 137.117 26.0188 137.421 25.8851C137.731 25.7514 137.959 25.566 138.105 25.329C138.257 25.092 138.333 24.8246 138.333 24.5268Z" fill="#F38313"/>
</svg>
