<svg width="26" height="26" viewBox="0 0 26 26" fill="none" xmlns="http://www.w3.org/2000/svg">
<rect width="26" height="26" rx="13" fill="#EBEEFF"/>
<g clip-path="url(#clip0_945_10449)">
<path d="M12.5773 13.2579C12.4432 13.1236 12.2839 13.0172 12.1086 12.9445C11.9333 12.8719 11.7454 12.8345 11.5556 12.8345C11.3659 12.8345 11.178 12.8719 11.0027 12.9445C10.8274 13.0172 10.6681 13.1236 10.5339 13.2579L7.2406 16.5512C7.28512 17.155 7.55593 17.7198 7.99887 18.1326C8.44182 18.5453 9.02425 18.7757 9.62971 18.7776H16.3705C16.8422 18.7775 17.3033 18.6379 17.696 18.3765L12.5773 13.2579Z" fill="url(#paint0_linear_945_10449)"/>
<path d="M15.8889 11.0744C16.4207 11.0744 16.8518 10.6432 16.8518 10.1114C16.8518 9.57957 16.4207 9.14844 15.8889 9.14844C15.357 9.14844 14.9259 9.57957 14.9259 10.1114C14.9259 10.6432 15.357 11.0744 15.8889 11.0744Z" fill="url(#paint1_linear_945_10449)"/>
<path d="M16.3703 7.22217H9.62958C8.99133 7.22293 8.37944 7.47681 7.92813 7.92813C7.47681 8.37944 7.22293 8.99133 7.22217 9.62958L7.22217 15.208L9.85298 12.5772C10.0765 12.3536 10.342 12.1762 10.6341 12.0552C10.9262 11.9342 11.2393 11.8719 11.5555 11.8719C11.8717 11.8719 12.1848 11.9342 12.4769 12.0552C12.769 12.1762 13.0345 12.3536 13.258 12.5772L18.3766 17.6958C18.6381 17.3032 18.7776 16.842 18.7777 16.3703V9.62958C18.777 8.99133 18.5231 8.37944 18.0718 7.92813C17.6205 7.47681 17.0086 7.22293 16.3703 7.22217V7.22217ZM15.8888 12.037C15.5079 12.037 15.1356 11.924 14.8188 11.7124C14.5021 11.5008 14.2553 11.2 14.1095 10.8481C13.9637 10.4962 13.9256 10.1089 13.9999 9.73533C14.0742 9.36173 14.2577 9.01857 14.527 8.74922C14.7963 8.47988 15.1395 8.29645 15.5131 8.22214C15.8867 8.14783 16.2739 8.18596 16.6259 8.33173C16.9778 8.4775 17.2786 8.72435 17.4902 9.04107C17.7018 9.35779 17.8148 9.73015 17.8148 10.1111C17.8148 10.6218 17.6119 11.1117 17.2507 11.4729C16.8895 11.8341 16.3996 12.037 15.8888 12.037Z" fill="url(#paint2_linear_945_10449)"/>
</g>
<defs>
<linearGradient id="paint0_linear_945_10449" x1="7.2406" y1="15.806" x2="17.696" y2="15.806" gradientUnits="userSpaceOnUse">
<stop stop-color="#3250FF"/>
<stop offset="1" stop-color="#2BB2FE"/>
</linearGradient>
<linearGradient id="paint1_linear_945_10449" x1="14.9259" y1="10.1114" x2="16.8518" y2="10.1114" gradientUnits="userSpaceOnUse">
<stop stop-color="#3250FF"/>
<stop offset="1" stop-color="#2BB2FE"/>
</linearGradient>
<linearGradient id="paint2_linear_945_10449" x1="7.22217" y1="12.459" x2="18.7777" y2="12.459" gradientUnits="userSpaceOnUse">
<stop stop-color="#3250FF"/>
<stop offset="1" stop-color="#2BB2FE"/>
</linearGradient>
<clipPath id="clip0_945_10449">
<rect width="11.5556" height="11.5556" fill="white" transform="translate(7.22217 7.22217)"/>
</clipPath>
</defs>
</svg>
