<svg width="85" height="80" viewBox="0 0 85 80" fill="none" xmlns="http://www.w3.org/2000/svg">
<rect x="0.975098" width="83.3985" height="80" rx="13.2027" fill="#F38313"/>
<path fill-rule="evenodd" clip-rule="evenodd" d="M34.1935 43.4942C34.0932 43.4921 33.9959 43.461 33.9136 43.4049C33.8313 43.3487 33.7677 43.2699 33.7309 43.1784C33.694 43.087 33.6854 42.9868 33.7063 42.8906C33.7272 42.7944 33.7765 42.7063 33.8481 42.6375C33.9197 42.5686 34.0105 42.5221 34.1089 42.5037C34.2074 42.4852 34.3092 42.4958 34.4016 42.5339C34.494 42.572 34.5729 42.6361 34.6284 42.718C34.6838 42.8 34.7134 42.8962 34.7134 42.9945C34.7134 43.0611 34.6999 43.1269 34.6736 43.1883C34.6474 43.2496 34.6089 43.3051 34.5605 43.3517C34.512 43.3982 34.4546 43.4348 34.3916 43.4593C34.3286 43.4838 34.2612 43.4956 34.1935 43.4942ZM37.9719 43.4942C37.8717 43.4921 37.7744 43.461 37.6921 43.4049C37.6098 43.3487 37.5462 43.2699 37.5094 43.1784C37.4725 43.087 37.4639 42.9868 37.4848 42.8906C37.5056 42.7944 37.555 42.7063 37.6266 42.6375C37.6982 42.5686 37.789 42.5221 37.8874 42.5037C37.9859 42.4852 38.0877 42.4958 38.1801 42.5339C38.2725 42.572 38.3514 42.6361 38.4068 42.718C38.4623 42.8 38.4919 42.8962 38.4919 42.9945C38.4919 43.0611 38.4784 43.1269 38.4521 43.1883C38.4259 43.2496 38.3874 43.3051 38.339 43.3517C38.2905 43.3982 38.2331 43.4348 38.1701 43.4593C38.1071 43.4838 38.0397 43.4956 37.9719 43.4942ZM36.0827 43.4942C35.9825 43.4921 35.8852 43.461 35.8029 43.4049C35.7206 43.3487 35.657 43.2699 35.6201 43.1784C35.5833 43.087 35.5747 42.9868 35.5956 42.8906C35.6164 42.7944 35.6658 42.7063 35.7374 42.6375C35.809 42.5686 35.8998 42.5221 35.9982 42.5037C36.0967 42.4852 36.1985 42.4958 36.2909 42.5339C36.3833 42.572 36.4622 42.6361 36.5176 42.718C36.5731 42.8 36.6027 42.8962 36.6027 42.9945C36.6027 43.0611 36.5892 43.1269 36.5629 43.1883C36.5367 43.2496 36.4982 43.3051 36.4498 43.3517C36.4013 43.3982 36.3439 43.4348 36.2809 43.4593C36.2179 43.4838 36.1505 43.4956 36.0827 43.4942ZM40.6757 43.4942C40.5407 43.4942 40.4112 43.4416 40.3158 43.3479C40.2203 43.2542 40.1667 43.1271 40.1667 42.9945C40.1667 42.862 40.2203 42.7349 40.3158 42.6412C40.4112 42.5475 40.5407 42.4949 40.6757 42.4949H48.264C48.399 42.4949 48.5284 42.5475 48.6239 42.6412C48.7194 42.7349 48.773 42.862 48.773 42.9945C48.773 43.1271 48.7194 43.2542 48.6239 43.3479C48.5284 43.4416 48.399 43.4942 48.264 43.4942H40.6757ZM31.3813 26.3231H29.3685C29.2335 26.3231 29.104 26.2705 29.0085 26.1768C28.9131 26.0831 28.8594 25.956 28.8594 25.8235V23.8025H24.6893V32.6642H31.4257L31.3813 26.3231ZM32.2209 25.4482C32.2808 25.4994 32.3275 25.5638 32.3573 25.6361C32.3871 25.7084 32.399 25.7866 32.3922 25.8643L32.4432 33.1623C32.4434 33.2278 32.4305 33.2927 32.4051 33.3533C32.3797 33.4139 32.3424 33.4689 32.2953 33.5153C32.2483 33.5618 32.1923 33.5986 32.1307 33.6237C32.069 33.6489 32.003 33.6618 31.9362 33.6619V33.6639H24.1802C24.1133 33.6639 24.0471 33.651 23.9853 33.6258C23.9235 33.6007 23.8674 33.5639 23.8201 33.5174C23.7728 33.471 23.7353 33.4159 23.7098 33.3552C23.6842 33.2945 23.6711 33.2295 23.6711 33.1639V23.303C23.6711 23.1705 23.7248 23.0434 23.8202 22.9497C23.9157 22.856 24.0452 22.8034 24.1802 22.8034H29.368C29.4421 22.8033 29.5154 22.8191 29.5826 22.8498C29.6498 22.8805 29.7094 22.9252 29.7571 22.9809L32.2207 25.4482H32.2209ZM29.8775 24.5252L30.6752 25.324H29.8775V24.5249V24.5252ZM41.2287 26.4446C42.4388 26.4446 43.6217 26.7969 44.6278 27.4568C45.6339 28.1167 46.4181 29.0546 46.8812 30.1519C47.3442 31.2493 47.4654 32.4568 47.2293 33.6217C46.9932 34.7867 46.4105 35.8568 45.5549 36.6966C44.6992 37.5365 43.609 38.1085 42.4222 38.3402C41.2354 38.5719 40.0052 38.453 38.8872 37.9984C37.7693 37.5439 36.8138 36.7741 36.1415 35.7865C35.4692 34.7989 35.1104 33.6379 35.1104 32.4501C35.1104 30.8573 35.755 29.3298 36.9024 28.2036C38.0498 27.0774 39.606 26.4446 41.2287 26.4446ZM39.2883 35.3022C39.6348 36.0589 40.1229 36.7102 40.7196 37.1717V35.1367C40.2391 35.1585 39.7608 35.2138 39.2883 35.3022ZM38.7065 32.9498C38.7377 33.4238 38.8169 33.8936 38.943 34.3522C39.5282 34.2336 40.1223 34.1614 40.7193 34.1364V32.9498H38.7065ZM38.9434 30.5484C38.8172 31.0069 38.7378 31.4767 38.7066 31.9506H40.7193V30.7641C40.1224 30.7391 39.5286 30.6669 38.9434 30.5484ZM40.7193 27.7277C40.124 28.1887 39.6355 28.8418 39.2888 29.5983C39.7611 29.6867 40.2391 29.742 40.7193 29.7638V27.7275V27.7277ZM38.2888 29.3529C38.5122 28.8242 38.8054 28.3266 39.1608 27.8728C38.5231 28.1511 37.9503 28.5546 37.4776 29.0585C37.7425 29.1707 38.0133 29.2689 38.2888 29.3529ZM37.687 31.9506C37.7196 31.3918 37.8108 30.8377 37.959 30.2971C37.5815 30.1809 37.2121 30.0404 36.8534 29.8765C36.4665 30.5084 36.2275 31.2169 36.1537 31.9506H37.687ZM37.9595 34.6034C37.8111 34.0629 37.7198 33.5089 37.687 32.95H36.1537C36.2275 33.6837 36.4665 34.3922 36.8534 35.0242C37.2123 34.8602 37.5818 34.7197 37.9595 34.6034ZM39.1617 37.0283C38.8064 36.5741 38.5132 36.0762 38.2894 35.5473C38.0137 35.6313 37.7427 35.7296 37.4775 35.8419C37.9504 36.3461 38.5236 36.7498 39.1616 37.028L39.1617 37.0283ZM44.2258 35.5655C44.0114 36.0694 43.7338 36.545 43.3995 36.9813C43.9964 36.7053 44.5332 36.3184 44.9802 35.8419C44.74 35.7399 44.4886 35.6477 44.2261 35.5653L44.2258 35.5655ZM44.8365 32.95C44.8028 33.5153 44.7093 34.0757 44.5576 34.6221C44.9145 34.7346 45.264 34.8689 45.6038 35.0242C45.9908 34.3922 46.2298 33.6837 46.3036 32.95H44.8365ZM44.5587 30.2782C44.7103 30.8247 44.8034 31.3852 44.8367 31.9506H46.3038C46.23 31.2169 45.991 30.5084 45.6041 29.8765C45.2645 30.0316 44.9153 30.1658 44.5587 30.2782ZM43.3975 27.9181C43.7328 28.3547 44.0112 28.8307 44.2263 29.335C44.4883 29.2529 44.7395 29.1607 44.9799 29.0585C44.5326 28.5816 43.9951 28.1943 43.3975 27.9181ZM43.2302 29.5864C42.8716 28.8079 42.3611 28.1393 41.7382 27.6778V29.7635C42.2393 29.7408 42.738 29.6815 43.2302 29.5862V29.5864ZM43.817 31.9506C43.7856 31.4721 43.7052 30.998 43.5771 30.5352C42.9717 30.6616 42.3566 30.7381 41.7382 30.764V31.9506H43.817ZM43.5761 34.3652C43.7044 33.9025 43.785 33.4284 43.8169 32.95H41.7378V34.1366C42.3558 34.1625 42.9706 34.2389 43.5757 34.3652H43.5761ZM41.7382 37.2233C42.3669 36.7593 42.8735 36.0899 43.2299 35.3141C42.7378 35.2189 42.2392 35.1596 41.7382 35.1369V37.2233ZM32.473 40.3569C32.1835 40.3574 31.906 40.4705 31.7013 40.6714C31.4965 40.8724 31.3813 41.1448 31.3808 41.429V56.5583C31.3813 56.8425 31.4965 57.1149 31.7013 57.3159C31.906 57.5168 32.1835 57.6299 32.473 57.6304H49.9847C50.2742 57.6299 50.5518 57.5168 50.7565 57.3159C50.9612 57.1149 51.0764 56.8425 51.0769 56.5583V41.4287C51.0764 41.1445 50.9612 40.8721 50.7565 40.6712C50.5517 40.4702 50.2742 40.3571 49.9847 40.3566L32.473 40.3569ZM50.0593 45.7133V56.5583C50.0589 56.5775 50.051 56.5958 50.0372 56.6093C50.0233 56.6229 50.0047 56.6307 49.9852 56.6311H32.4726C32.4531 56.6307 32.4345 56.6229 32.4207 56.6093C32.4068 56.5958 32.3989 56.5775 32.3985 56.5583V45.7131L50.0593 45.7133ZM32.3985 44.7138H50.0589V41.4286C50.0585 41.4094 50.0506 41.3911 50.0368 41.3776C50.0229 41.364 50.0043 41.3562 49.9848 41.3558H32.4726C32.4531 41.3562 32.4345 41.364 32.4207 41.3776C32.4068 41.3911 32.3989 41.4094 32.3985 41.4286V44.7138ZM49.1379 29.6251C49.3019 29.8117 49.5043 29.9622 49.7318 30.0665C49.9592 30.1709 50.2067 30.2268 50.4577 30.2305H59.0093C60.6784 30.2305 61.5603 27.9283 60.3292 26.5833C60.1652 26.3966 59.9628 26.2461 59.7353 26.1418C59.5079 26.0374 59.2604 25.9815 59.0093 25.9778H58.4238V25.9764C58.3009 25.9764 58.1822 25.9326 58.0897 25.8532C57.9971 25.7737 57.9371 25.664 57.9208 25.5445C57.7711 24.4606 56.6548 24.0591 56.0002 24.6229C55.945 24.674 55.8788 24.7123 55.8065 24.735C55.7342 24.7577 55.6577 24.7642 55.5825 24.754C55.5073 24.7438 55.4354 24.7172 55.3721 24.6761C55.3087 24.635 55.2556 24.5805 55.2166 24.5166C54.5058 23.359 53.0398 23.1036 52.0547 24.0422C51.6476 24.4394 51.3893 24.96 51.3216 25.5194C51.311 25.6444 51.253 25.7608 51.159 25.8458C51.065 25.9307 50.942 25.9778 50.8143 25.9778H50.4571C48.7882 25.9778 47.9061 28.2801 49.1373 29.6251H49.1379ZM50.4577 31.2298C48.7904 31.2298 47.5449 29.7537 47.5449 28.1042C47.5449 26.4796 48.7537 25.0183 50.3925 24.9793C50.9151 22.9134 53.124 21.8151 54.9528 22.8822C55.2683 23.0674 55.5494 23.3039 55.784 23.5817C57.0191 22.9864 58.4064 23.6861 58.8274 24.9784H59.0093C60.6768 24.9781 61.9222 26.4542 61.9222 28.1038C61.9222 29.7535 60.6767 31.2295 59.0093 31.2295L50.4577 31.2298ZM28.5888 36.4181C28.4751 36.3065 28.3303 36.2305 28.1726 36.1996C28.0149 36.1688 27.8515 36.1846 27.7029 36.245C27.5544 36.3054 27.4274 36.4077 27.3381 36.5389C27.2488 36.6701 27.2011 36.8243 27.2011 36.9822C27.2011 37.14 27.2488 37.2942 27.3381 37.4254C27.4274 37.5566 27.5544 37.6589 27.7029 37.7193C27.8515 37.7797 28.0149 37.7955 28.1726 37.7647C28.3303 37.7339 28.4751 37.6578 28.5888 37.5462C28.741 37.3965 28.8265 37.1937 28.8265 36.9822C28.8265 36.7706 28.741 36.5678 28.5888 36.4181ZM28.0142 35.1852C29.6394 35.1852 30.4594 37.1231 29.3087 38.2527C29.0903 38.4674 28.8201 38.6242 28.5233 38.7087V50.151H30.0286C30.1636 50.151 30.2931 50.2036 30.3886 50.2973C30.4841 50.391 30.5377 50.5181 30.5377 50.6506C30.5377 50.7832 30.4841 50.9102 30.3886 51.004C30.2931 51.0977 30.1636 51.1503 30.0286 51.1503H28.0142C27.8792 51.1503 27.7497 51.0977 27.6543 51.004C27.5588 50.9102 27.5052 50.7832 27.5052 50.6506V38.7087C27.0815 38.5883 26.7164 38.3219 26.4768 37.9583C26.2373 37.5948 26.1395 37.1586 26.2015 36.73C26.2634 36.3014 26.4809 35.9091 26.8139 35.6253C27.1469 35.3414 27.5732 35.1852 28.0142 35.1852ZM55.0179 36.4181C54.9042 36.3065 54.7594 36.2305 54.6017 36.1996C54.444 36.1688 54.2806 36.1846 54.1321 36.245C53.9835 36.3054 53.8566 36.4077 53.7672 36.5389C53.6779 36.6701 53.6302 36.8243 53.6302 36.9822C53.6302 37.14 53.6779 37.2942 53.7672 37.4254C53.8566 37.5566 53.9835 37.6589 54.1321 37.7193C54.2806 37.7797 54.444 37.7955 54.6017 37.7647C54.7594 37.7339 54.9042 37.6578 55.0179 37.5462C55.1701 37.3965 55.2556 37.1937 55.2556 36.9822C55.2556 36.7706 55.1701 36.5678 55.0179 36.4181ZM54.4433 35.1852C56.0684 35.1852 56.8885 37.1231 55.7377 38.2527C55.5194 38.4674 55.2491 38.6242 54.9523 38.7087V50.6506C54.9523 50.7832 54.8987 50.9102 54.8032 51.004C54.7077 51.0977 54.5783 51.1503 54.4433 51.1503H52.4288C52.2938 51.1503 52.1643 51.0977 52.0688 51.004C51.9734 50.9102 51.9197 50.7832 51.9197 50.6506C51.9197 50.5181 51.9734 50.391 52.0688 50.2973C52.1643 50.2036 52.2938 50.151 52.4288 50.151H53.9342V38.7087C53.5105 38.5883 53.1454 38.3219 52.9059 37.9583C52.6663 37.5948 52.5685 37.1586 52.6305 36.73C52.6924 36.3014 52.9099 35.9091 53.2429 35.6253C53.576 35.3414 54.0022 35.1852 54.4433 35.1852Z" fill="white"/>
</svg>
