<svg width="60" height="60" viewBox="0 0 60 60" fill="none" xmlns="http://www.w3.org/2000/svg">
<rect width="60" height="60" rx="13.2027" fill="#F38313"/>
<g clip-path="url(#clip0_3172_1167)">
<g clip-path="url(#clip1_3172_1167)">
<path d="M32.9833 27.9512H18.6525C18.088 27.9512 17.6289 28.407 17.6289 28.9674V38.1136C17.6289 38.674 18.088 39.1298 18.6525 39.1298H32.9833C33.5479 39.1298 34.007 38.674 34.007 38.1136V28.9674C34.007 28.407 33.5479 27.9512 32.9833 27.9512ZM18.6525 38.1136V28.9674H32.9833L32.9838 38.1136H18.6525Z" fill="white"/>
<path d="M29.0678 32.0403C28.4874 30.7928 27.235 29.9834 25.8178 29.9834C24.4006 29.9834 23.1482 30.7928 22.5678 32.0403C21.0211 31.8126 19.676 33.0463 19.676 34.5565C19.676 35.9574 20.824 37.0971 22.2351 37.0971H29.4005C30.8116 37.0971 31.9596 35.9574 31.9596 34.5565C31.9596 33.0463 30.6161 31.8147 29.0678 32.0403ZM29.4005 36.0808H22.2351C21.3886 36.0808 20.6997 35.3969 20.6997 34.5565C20.6997 33.716 21.3886 33.0321 22.2351 33.0321C22.3856 33.0321 22.5442 33.0606 22.7208 33.1195L23.2178 33.2862L23.3729 32.7887C23.7061 31.7186 24.6887 30.9996 25.8178 30.9996C26.9469 30.9996 27.9295 31.7186 28.2627 32.7882L28.4178 33.2862L28.9148 33.12C29.0914 33.0606 29.25 33.0321 29.4005 33.0321C30.247 33.0321 30.9359 33.716 30.9359 34.5565C30.9359 35.3969 30.247 36.0808 29.4005 36.0808Z" fill="white"/>
<path d="M45.7786 13.7236H38.6132V17.7886H33.4951V13.7236H26.3297V17.7886H21.2115V13.7236H14.0461V22.8698H21.2115V18.8048H26.3297V22.8698H31.2329C31.2006 23.1635 31.2482 23.4663 31.3895 23.7443C31.4627 23.8875 31.4693 24.0491 31.4089 24.1884C31.3803 24.2539 31.3526 24.3205 31.3265 24.3865C31.2713 24.5288 31.15 24.6391 30.9949 24.6894C30.4303 24.8738 30.0281 25.3509 29.9339 25.9185H18.1407C16.7296 25.9185 15.5816 27.0582 15.5816 28.4591V40.1458C14.735 40.1458 14.0461 40.8298 14.0461 41.6702C14.0461 43.6315 15.6532 45.227 17.6288 45.227H34.0069C35.9825 45.227 37.5896 43.6315 37.5896 41.6702C37.5896 40.8298 36.9007 40.1458 36.0542 40.1458V33.0057C36.1391 33.02 36.2241 33.0322 36.3111 33.0322H36.8209C37.5021 33.0322 38.1029 32.6003 38.3159 31.957C38.3665 31.8035 38.4776 31.6836 38.6199 31.6287C38.6874 31.6028 38.7545 31.5759 38.821 31.5469C38.9607 31.487 39.1235 31.4936 39.2678 31.5662C39.8759 31.8716 40.6083 31.7553 41.0904 31.2766L41.4512 30.9189C41.9334 30.4408 42.0506 29.7131 41.743 29.1095C41.6698 28.9662 41.6631 28.8046 41.7235 28.6654C41.7522 28.5998 41.7798 28.5333 41.8059 28.4672C41.8612 28.325 41.9825 28.2147 42.1376 28.1644C42.7845 27.9525 43.2196 27.356 43.2196 26.6797V26.1736C43.2196 25.4973 42.7845 24.9007 42.1366 24.6894C41.982 24.6391 41.8612 24.5288 41.8059 24.3875C41.7798 24.3205 41.7527 24.2539 41.7235 24.1878C41.6631 24.0491 41.6703 23.8875 41.743 23.7443C41.8842 23.4668 41.9318 23.1635 41.8996 22.8698H45.7786V13.7236ZM20.1879 21.8535H15.0698V14.7399H20.1879V21.8535ZM38.6132 18.8048V21.2194C38.4745 21.163 38.3655 21.0461 38.3159 20.8952C38.1029 20.253 37.5021 19.8211 36.8209 19.8211H36.3111C35.6299 19.8211 35.029 20.253 34.8161 20.8962C34.7654 21.0497 34.6543 21.1696 34.511 21.2245C34.444 21.2504 34.3775 21.2773 34.3109 21.3063C34.1712 21.3663 34.0084 21.3597 33.8641 21.287C33.7454 21.2275 33.621 21.1884 33.4951 21.1605V18.8048H38.6132ZM27.3533 14.7399H32.4715V21.2753C32.3154 21.35 32.169 21.4496 32.0415 21.5766L31.7626 21.8535H27.3533V14.7399ZM36.566 41.6702C36.566 43.0711 35.418 44.2108 34.0069 44.2108H17.6288C16.2178 44.2108 15.0698 43.0711 15.0698 41.6702C15.0698 41.3902 15.2996 41.1621 15.5816 41.1621H22.2352V41.6702C22.2352 42.5106 22.9241 43.1946 23.7706 43.1946H27.8651C28.7117 43.1946 29.4006 42.5106 29.4006 41.6702V41.1621H36.0542C36.3362 41.1621 36.566 41.3902 36.566 41.6702ZM23.2588 41.1621H28.3769V41.6702C28.3769 41.9502 28.1471 42.1783 27.8651 42.1783H23.7706C23.4886 42.1783 23.2588 41.9502 23.2588 41.6702V41.1621ZM16.6052 40.1458V28.4591C16.6052 27.6187 17.2941 26.9347 18.1407 26.9347H33.4951C34.3416 26.9347 35.0305 27.6187 35.0305 28.4591V40.1458H16.6052ZM35.9646 27.829C36.1494 27.9073 36.3525 27.951 36.566 27.951C37.4125 27.951 38.1014 27.267 38.1014 26.4266C38.1014 25.5862 37.4125 24.9023 36.566 24.9023C35.7194 24.9023 35.0305 25.5862 35.0305 26.4266C35.0305 26.4317 35.0321 26.4358 35.0321 26.4408C34.7449 26.2249 34.4153 26.0638 34.0519 25.983C34.2649 24.794 35.3079 23.886 36.566 23.886C37.977 23.886 39.125 25.0257 39.125 26.4266C39.125 27.8275 37.977 28.9672 36.566 28.9672C36.392 28.9672 36.222 28.9449 36.0542 28.9108V28.4591C36.0542 28.2401 36.0173 28.0318 35.9646 27.829ZM36.0542 26.4266C36.0542 26.1466 36.284 25.9185 36.566 25.9185C36.848 25.9185 37.0778 26.1466 37.0778 26.4266C37.0778 26.7066 36.848 26.9347 36.566 26.9347C36.284 26.9347 36.0542 26.7066 36.0542 26.4266ZM41.8177 25.6548C42.0439 25.7285 42.1959 25.9373 42.1959 26.1736V26.6797C42.1959 26.9159 42.0439 27.1243 41.8172 27.1985C41.3709 27.3438 41.0188 27.672 40.8519 28.0988C40.8304 28.1532 40.8079 28.2076 40.7849 28.2604C40.6027 28.6771 40.6185 29.1532 40.8294 29.5673C40.9369 29.7782 40.8959 30.0322 40.7275 30.1994L40.3667 30.5576C40.1983 30.7248 39.9419 30.766 39.73 30.6587C39.3134 30.4499 38.8328 30.4336 38.4141 30.6145C38.3604 30.6374 38.3056 30.6598 38.2498 30.6816C37.8204 30.8473 37.4903 31.1968 37.3434 31.6404C37.2692 31.865 37.0588 32.0159 36.8209 32.0159H36.3111C36.2195 32.0159 36.134 31.9865 36.0542 31.9438V29.9408C36.2231 29.9647 36.3935 29.9835 36.566 29.9835C38.5416 29.9835 40.1487 28.388 40.1487 26.4266C40.1487 24.4653 38.5416 22.8698 36.566 22.8698C34.7649 22.8698 33.274 24.1975 33.0242 25.9185H31.0072C31.0722 25.7981 31.1771 25.7 31.3148 25.6548C31.7616 25.5095 32.1137 25.1812 32.2805 24.7544C32.302 24.7 32.3246 24.6457 32.3476 24.5928C32.5298 24.1762 32.5139 23.7 32.3031 23.2859C32.1956 23.0751 32.2365 22.8205 32.4049 22.6533L32.7652 22.2956C32.9336 22.1279 33.1895 22.0873 33.4024 22.1945C33.8196 22.4038 34.2997 22.4196 34.7183 22.2387C34.7726 22.2153 34.8273 22.193 34.8821 22.1721C35.3115 22.006 35.6421 21.6564 35.789 21.2133C35.8627 20.9882 36.0731 20.8373 36.3111 20.8373H36.8209C37.0588 20.8373 37.2687 20.9882 37.3434 21.2133C37.4903 21.6564 37.8204 22.006 38.2498 22.1716C38.3046 22.193 38.3594 22.2153 38.4131 22.2382C38.8323 22.4191 39.3124 22.4028 39.7295 22.194C39.9414 22.0868 40.1978 22.1279 40.3667 22.2951L40.727 22.6528C40.8954 22.82 40.9364 23.0746 40.8289 23.2854C40.618 23.6995 40.6021 24.1756 40.7843 24.5918C40.8074 24.6452 40.8299 24.6995 40.8519 24.7549C41.0188 25.1812 41.3709 25.5095 41.8177 25.6548ZM44.755 21.8535H41.3693L41.0909 21.5771C40.703 21.192 40.1538 21.0461 39.6374 21.161V14.7399H44.7555L44.755 21.8535Z" fill="white"/>
<path d="M16.0935 15.7568H19.1644V16.7731H16.0935V15.7568Z" fill="white"/>
<path d="M16.0935 17.7881H19.1644V18.8043H16.0935V17.7881Z" fill="white"/>
<path d="M16.0935 19.8213H19.1644V20.8375H16.0935V19.8213Z" fill="white"/>
<path d="M28.377 15.7568H31.4478V16.7731H28.377V15.7568Z" fill="white"/>
<path d="M28.377 17.7881H31.4478V18.8043H28.377V17.7881Z" fill="white"/>
<path d="M28.377 19.8213H31.4478V20.8375H28.377V19.8213Z" fill="white"/>
<path d="M40.6606 15.7568H43.7315V16.7731H40.6606V15.7568Z" fill="white"/>
<path d="M40.6606 17.7881H43.7315V18.8043H40.6606V17.7881Z" fill="white"/>
<path d="M40.6604 19.8213H43.7313V20.8375H40.6604V19.8213Z" fill="white"/>
</g>
</g>
<defs>
<clipPath id="clip0_3172_1167">
<rect width="33.75" height="33.75" fill="white" transform="translate(12.75 12.75)"/>
</clipPath>
<clipPath id="clip1_3172_1167">
<rect width="32.7561" height="32.5196" fill="white" transform="translate(13.5344 13.2158)"/>
</clipPath>
</defs>
</svg>
