<svg width="85" height="80" viewBox="0 0 85 80" fill="none" xmlns="http://www.w3.org/2000/svg">
<rect x="0.85791" width="83.3985" height="80" rx="13.2027" fill="#2563AC"/>
<g clip-path="url(#clip0_3068_2467)">
<path d="M50.2488 29.1405C52.0036 29.1405 53.4312 27.7499 53.4312 26.0405C53.4312 24.3311 52.0036 22.9404 50.2488 22.9404C48.494 22.9404 47.0664 24.3311 47.0664 26.0405C47.0664 27.7499 48.494 29.1405 50.2488 29.1405ZM50.2488 24.1805C51.3016 24.1805 52.1583 25.015 52.1583 26.0405C52.1583 27.066 51.3016 27.9005 50.2488 27.9005C49.1961 27.9005 48.3394 27.066 48.3394 26.0405C48.3394 25.015 49.1961 24.1805 50.2488 24.1805Z" fill="white"/>
<path d="M52.1583 55.1805H50.2489C49.8976 55.1805 49.6124 54.9022 49.6124 54.5605V45.2604H52.1583V47.7404H59.7961V41.5403H52.1583V44.0204H47.703C47.3516 44.0204 47.0665 43.742 47.0665 43.4003V39.0603H58.5232C60.6293 39.0603 62.3421 37.3918 62.3421 35.3402C62.3421 33.5 60.9634 31.968 59.1597 31.6716C59.1597 31.6542 59.1597 31.6369 59.1597 31.6201C59.1597 29.3893 57.9446 27.383 55.9772 26.2738V24.3654L55.1364 24.0678L55.5158 23.2785L53.0844 20.9101L52.2742 21.279L51.968 20.46H48.5298L48.2249 21.279L47.4146 20.9101L46.0863 22.2034C45.1729 21.8761 44.222 21.7 43.2476 21.7C38.8864 21.7 35.303 25.0034 34.9949 29.1761C32.4757 29.4731 30.5179 31.5681 30.5179 34.1002C30.5179 34.3222 30.5364 34.5429 30.5669 34.7624C27.9153 35.9305 26.0625 38.5264 26.0625 41.5403V44.6466C26.0625 45.5853 25.5693 46.5091 24.7081 47.1818C23.9513 47.7739 23.5166 48.6556 23.5166 49.6004C23.5166 50.2558 23.7368 50.8901 24.1327 51.4158C23.3556 52.2014 22.8801 53.2579 22.8801 54.4198V58.9006H44.5205V54.4198C44.5205 53.2579 44.0451 52.2014 43.2679 51.4158C43.6638 50.8901 43.8841 50.2558 43.8841 49.6004C43.8841 48.6556 43.4493 47.7739 42.6926 47.1818C41.8314 46.5091 41.3381 45.5846 41.3381 44.6466V41.5403C41.3381 40.6698 41.1758 39.8371 40.8926 39.0603H45.7935V43.4003C45.7935 44.4258 46.6502 45.2604 47.703 45.2604H48.3394V54.5605C48.3394 55.586 49.1961 56.4206 50.2489 56.4206H52.1583V58.9006H62.3421V52.7005H52.1583V55.1805ZM53.4313 42.7803H58.5232V46.5004H53.4313V42.7803ZM47.6839 22.4012L48.4483 22.7497L49.1338 22.4725L49.4221 21.7H51.0757L51.2666 22.2103L51.4016 22.4874L52.0501 22.7497L52.8146 22.4012L53.9844 23.5402L53.628 24.2829L53.9112 24.9532L54.7043 25.2347V26.8461L54.1804 27.0315L53.8985 27.1579L53.628 27.7972L53.9844 28.5399L52.8146 29.6789L52.0501 29.3304L51.3646 29.6076L51.0757 30.3801H49.4221L49.2312 29.8699L49.0962 29.5927L48.4476 29.3304L47.6832 29.6789L46.5134 28.5399L46.8698 27.7972L46.5866 27.1269L45.7935 26.8454V25.2347L46.3173 25.0493L46.5993 24.9228L46.8698 24.2836L46.5134 23.5408L47.6839 22.4012ZM24.1531 54.4198C24.1531 52.9677 25.1676 51.7258 26.6195 51.3991L30.4231 50.5441L32.2492 57.6606H27.972V53.9405H26.699V57.6606H24.1531V54.4198ZM33.7003 48.2997C31.3714 47.2165 29.8814 44.9287 29.8814 42.3984V41.6866C29.8814 41.2086 30.0921 40.7684 30.4498 40.4652C31.7489 41.562 33.391 42.1603 35.1273 42.1603H37.2774C37.411 42.1603 37.5192 42.2657 37.5192 42.3984C37.5192 44.9293 36.0292 47.2165 33.7003 48.2997ZM33.4496 49.5502L33.7003 49.655L33.9511 49.5502C34.3254 49.394 34.6824 49.2117 35.021 49.0071C35.121 49.4634 35.3915 49.8584 35.7753 50.1244L35.1133 52.7005H32.288L31.6267 50.1237C32.0098 49.8578 32.2797 49.4634 32.3803 49.0071C32.7189 49.2117 33.0759 49.394 33.4496 49.5502ZM34.7951 53.9405L33.8404 57.6606H33.5603L32.6056 53.9405H34.7951ZM43.2476 57.6606H40.7016V53.9405H39.4287V57.6606H35.1515L36.9782 50.5447L40.7812 51.3997C42.233 51.7258 43.2476 52.9677 43.2476 54.4198V57.6606ZM41.8957 48.149C42.3501 48.5043 42.6111 49.0331 42.6111 49.6004C42.6111 49.9849 42.4857 50.3463 42.2598 50.6545C41.8919 50.4523 41.4973 50.2874 41.067 50.1907L36.7389 49.2179C36.4487 49.1528 36.2463 48.9042 36.2463 48.614V48.0907C37.8407 46.6455 38.7922 44.6001 38.7922 42.3959C38.7922 41.5819 38.1131 40.9203 37.2774 40.9203H35.1273C33.5559 40.9203 32.0792 40.3245 30.9679 39.2419L30.6433 38.9257L30.2328 39.1254C29.2316 39.6139 28.6085 40.5954 28.6085 41.6866V42.3984C28.6085 44.6007 29.56 46.6455 31.1544 48.0907V48.614C31.1544 48.9042 30.952 49.1528 30.6618 49.2179L26.3337 50.1907C25.9034 50.288 25.5088 50.453 25.1409 50.6545C24.915 50.3463 24.7896 49.9849 24.7896 49.6004C24.7896 49.0331 25.0505 48.5043 25.505 48.149C26.6685 47.2394 27.3355 45.9628 27.3355 44.6466V41.5403C27.3355 38.1216 30.1908 35.3402 33.7003 35.3402C37.2099 35.3402 40.0652 38.1216 40.0652 41.5403V44.6466C40.0652 45.9628 40.7322 47.2394 41.8957 48.149ZM33.7003 34.1002C33.0454 34.1002 32.4127 34.1895 31.8055 34.3414C31.8004 34.2608 31.7909 34.1808 31.7909 34.1002C31.7909 32.0486 33.5037 30.3801 35.6098 30.3801H36.2463V29.7601C36.2463 25.9998 39.3873 22.94 43.2476 22.94C43.8694 22.94 44.4804 23.028 45.0762 23.1874L44.9826 23.2785L45.362 24.0678L44.5205 24.3654V27.7141L45.3613 28.0117L44.982 28.801L47.4134 31.1694L48.2236 30.8005L48.5298 31.6201H51.968L52.2729 30.8011L53.0831 31.17L55.5145 28.8016L55.1352 28.0123L55.9295 27.7314C57.1515 28.6596 57.8867 30.072 57.8867 31.6201C57.8867 31.808 57.8733 31.9928 57.8523 32.1751L57.7734 32.8639H58.485L58.562 32.8602C59.9476 32.8806 61.0691 33.9855 61.0691 35.3402C61.0691 36.708 59.9272 37.8203 58.5232 37.8203H40.3045C38.9819 35.6 36.52 34.1002 33.7003 34.1002ZM53.4313 53.9405H61.0691V57.6606H53.4313V53.9405Z" fill="white"/>
<path d="M43.8841 32.8604C42.8313 32.8604 41.9746 33.6949 41.9746 34.7204C41.9746 35.7459 42.8313 36.5804 43.8841 36.5804C44.9368 36.5804 45.7935 35.7459 45.7935 34.7204C45.7935 33.6949 44.9368 32.8604 43.8841 32.8604ZM43.8841 35.3404C43.5327 35.3404 43.2476 35.062 43.2476 34.7204C43.2476 34.3788 43.5327 34.1004 43.8841 34.1004C44.2354 34.1004 44.5205 34.3788 44.5205 34.7204C44.5205 35.062 44.2354 35.3404 43.8841 35.3404Z" fill="white"/>
<path d="M48.9759 32.8604C47.9231 32.8604 47.0664 33.6949 47.0664 34.7204C47.0664 35.7459 47.9231 36.5804 48.9759 36.5804C50.0286 36.5804 50.8853 35.7459 50.8853 34.7204C50.8853 33.6949 50.0286 32.8604 48.9759 32.8604ZM48.9759 35.3404C48.6245 35.3404 48.3394 35.062 48.3394 34.7204C48.3394 34.3788 48.6245 34.1004 48.9759 34.1004C49.3272 34.1004 49.6123 34.3788 49.6123 34.7204C49.6123 35.062 49.3272 35.3404 48.9759 35.3404Z" fill="white"/>
<path d="M54.0679 32.8604C53.0152 32.8604 52.1584 33.6949 52.1584 34.7204C52.1584 35.7459 53.0152 36.5804 54.0679 36.5804C55.1206 36.5804 55.9773 35.7459 55.9773 34.7204C55.9773 33.6949 55.1206 32.8604 54.0679 32.8604ZM54.0679 35.3404C53.7166 35.3404 53.4314 35.062 53.4314 34.7204C53.4314 34.3788 53.7166 34.1004 54.0679 34.1004C54.4192 34.1004 54.7044 34.3788 54.7044 34.7204C54.7044 35.062 54.4192 35.3404 54.0679 35.3404Z" fill="white"/>
</g>
<defs>
<clipPath id="clip0_3068_2467">
<rect width="40.7349" height="39.6807" fill="white" transform="translate(22.2437 19.8398)"/>
</clipPath>
</defs>
</svg>
