<svg width="60" height="60" viewBox="0 0 60 60" fill="none" xmlns="http://www.w3.org/2000/svg">
<rect width="60" height="60" rx="13.2027" fill="#2563AC"/>
<path d="M35.9531 20.5975C37.407 20.5975 38.5898 19.4242 38.5898 17.9819C38.5898 16.5396 37.407 15.3662 35.9531 15.3662C34.4992 15.3662 33.3164 16.5396 33.3164 17.9819C33.3164 19.4242 34.4992 20.5975 35.9531 20.5975ZM35.9531 16.4125C36.8254 16.4125 37.5352 17.1166 37.5352 17.9819C37.5352 18.8471 36.8254 19.5513 35.9531 19.5513C35.0809 19.5513 34.3711 18.8471 34.3711 17.9819C34.3711 17.1166 35.0809 16.4125 35.9531 16.4125Z" fill="white"/>
<path d="M37.5352 42.5689H35.9531C35.662 42.5689 35.4258 42.334 35.4258 42.0458V34.1988H37.5352V36.2913H43.8633V31.06H37.5352V33.1525H33.8438C33.5527 33.1525 33.3164 32.9176 33.3164 32.6294V28.9675H42.8086C44.5536 28.9675 45.9727 27.5597 45.9727 25.8286C45.9727 24.276 44.8304 22.9833 43.3359 22.7333C43.3359 22.7186 43.3359 22.704 43.3359 22.6898C43.3359 20.8076 42.3292 19.1147 40.6992 18.1789V16.5687L40.0026 16.3176L40.3169 15.6516L38.3024 13.6532L37.6311 13.9645L37.3775 13.2734H34.5288L34.2762 13.9645L33.6049 13.6532L32.5043 14.7445C31.7476 14.4683 30.9597 14.3197 30.1523 14.3197C26.539 14.3197 23.57 17.107 23.3148 20.6277C21.2276 20.8782 19.6055 22.6459 19.6055 24.7824C19.6055 24.9697 19.6208 25.1559 19.6461 25.3411C17.4492 26.3267 15.9141 28.517 15.9141 31.06V33.6809C15.9141 34.4729 15.5054 35.2524 14.7919 35.82C14.1649 36.3196 13.8047 37.0635 13.8047 37.8607C13.8047 38.4137 13.9871 38.9488 14.3152 39.3925C13.6713 40.0553 13.2773 40.9467 13.2773 41.927V45.7077H31.207V41.927C31.207 40.9467 30.8131 40.0553 30.1692 39.3925C30.4972 38.9488 30.6797 38.4137 30.6797 37.8607C30.6797 37.0635 30.3195 36.3196 29.6925 35.82C28.979 35.2524 28.5703 34.4724 28.5703 33.6809V31.06C28.5703 30.3255 28.4358 29.6229 28.2012 28.9675H32.2617V32.6294C32.2617 33.4946 32.9715 34.1988 33.8438 34.1988H34.3711V42.0458C34.3711 42.9111 35.0809 43.6152 35.9531 43.6152H37.5352V45.7077H45.9727V40.4764H37.5352V42.5689ZM38.5898 32.1063H42.8086V35.2451H38.5898V32.1063ZM33.8279 14.9114L34.4613 15.2054L35.0292 14.9715L35.2681 14.3197H36.6381L36.7963 14.7502L36.9081 14.9841L37.4455 15.2054L38.0788 14.9114L39.0481 15.8724L38.7528 16.4991L38.9875 17.0646L39.6445 17.3021V18.6617L39.2105 18.8181L38.9769 18.9249L38.7528 19.4642L39.0481 20.0909L38.0788 21.0519L37.4455 20.7579L36.8776 20.9918L36.6381 21.6436H35.2681L35.1099 21.213L34.9981 20.9792L34.4607 20.7579L33.8274 21.0519L32.8581 20.0909L33.1535 19.4642L32.9188 18.8987L32.2617 18.6612V17.3021L32.6957 17.1457L32.9293 17.039L33.1535 16.4996L32.8581 15.8729L33.8279 14.9114ZM14.332 41.927C14.332 40.7019 15.1726 39.654 16.3755 39.3783L19.5269 38.6569L21.0398 44.6615H17.4961V41.5227H16.4414V44.6615H14.332V41.927ZM22.2422 36.7632C20.3126 35.8493 19.0781 33.9189 19.0781 31.784V31.1834C19.0781 30.7801 19.2527 30.4087 19.549 30.1529C20.6254 31.0783 21.9859 31.5831 23.4245 31.5831H25.2059C25.3166 31.5831 25.4062 31.6721 25.4062 31.784C25.4062 33.9194 24.1717 35.8493 22.2422 36.7632ZM22.0344 37.8183L22.2422 37.9068L22.45 37.8183C22.76 37.6865 23.0559 37.5327 23.3364 37.3601C23.4192 37.7451 23.6433 38.0783 23.9613 38.3028L23.4129 40.4764H21.072L20.5241 38.3022C20.8416 38.0778 21.0652 37.7451 21.1485 37.3601C21.429 37.5327 21.7249 37.6865 22.0344 37.8183ZM23.1492 41.5227L22.3582 44.6615H22.1262L21.3352 41.5227H23.1492ZM30.1523 44.6615H28.043V41.5227H26.9883V44.6615H23.4445L24.958 38.6575L28.1089 39.3789C29.3118 39.654 30.1523 40.7019 30.1523 41.927V44.6615ZM29.0323 36.6361C29.4088 36.9358 29.625 37.3821 29.625 37.8607C29.625 38.1851 29.5211 38.4901 29.3339 38.7501C29.0291 38.5795 28.7021 38.4404 28.3457 38.3587L24.7597 37.538C24.5193 37.483 24.3516 37.2732 24.3516 37.0284V36.5869C25.6726 35.3675 26.4609 33.6417 26.4609 31.7819C26.4609 31.095 25.8983 30.5369 25.2059 30.5369H23.4245C22.1225 30.5369 20.899 30.0341 19.9783 29.1207L19.7094 28.8539L19.3692 29.0224C18.5397 29.4346 18.0234 30.2627 18.0234 31.1834V31.784C18.0234 33.6422 18.8118 35.3675 20.1328 36.5869V37.0284C20.1328 37.2732 19.9651 37.483 19.7246 37.538L16.1387 38.3587C15.7822 38.4409 15.4553 38.58 15.1505 38.7501C14.9633 38.4901 14.8594 38.1851 14.8594 37.8607C14.8594 37.3821 15.0756 36.9358 15.4521 36.6361C16.4161 35.8686 16.9688 34.7915 16.9688 33.6809V31.06C16.9688 28.1754 19.3344 25.8286 22.2422 25.8286C25.15 25.8286 27.5156 28.1754 27.5156 31.06V33.6809C27.5156 34.7915 28.0683 35.8686 29.0323 36.6361ZM22.2422 24.7824C21.6996 24.7824 21.1754 24.8577 20.6723 24.9859C20.6681 24.9179 20.6602 24.8504 20.6602 24.7824C20.6602 23.0513 22.0792 21.6436 23.8242 21.6436H24.3516V21.1204C24.3516 17.9476 26.954 15.366 30.1523 15.366C30.6676 15.366 31.1738 15.4403 31.6674 15.5747L31.5899 15.6516L31.9042 16.3176L31.207 16.5687V19.3941L31.9037 19.6452L31.5894 20.3112L33.6038 22.3095L34.2751 21.9983L34.5288 22.6898H37.3775L37.6301 21.9988L38.3014 22.3101L40.3158 20.3117L40.0015 19.6457L40.6597 19.4088C41.6722 20.1919 42.2812 21.3836 42.2812 22.6898C42.2812 22.8484 42.2702 23.0042 42.2528 23.1581L42.1874 23.7393H42.777L42.8408 23.7361C43.9888 23.7534 44.918 24.6856 44.918 25.8286C44.918 26.9827 43.9719 27.9212 42.8086 27.9212H27.7139C26.6181 26.0478 24.5783 24.7824 22.2422 24.7824ZM38.5898 41.5227H44.918V44.6615H38.5898V41.5227Z" fill="white"/>
<path d="M30.6797 23.7363C29.8075 23.7363 29.0977 24.4405 29.0977 25.3057C29.0977 26.171 29.8075 26.8751 30.6797 26.8751C31.5519 26.8751 32.2617 26.171 32.2617 25.3057C32.2617 24.4405 31.5519 23.7363 30.6797 23.7363ZM30.6797 25.8289C30.3886 25.8289 30.1523 25.594 30.1523 25.3057C30.1523 25.0175 30.3886 24.7826 30.6797 24.7826C30.9708 24.7826 31.207 25.0175 31.207 25.3057C31.207 25.594 30.9708 25.8289 30.6797 25.8289Z" fill="white"/>
<path d="M34.8984 23.7363C34.0262 23.7363 33.3164 24.4405 33.3164 25.3057C33.3164 26.171 34.0262 26.8751 34.8984 26.8751C35.7707 26.8751 36.4805 26.171 36.4805 25.3057C36.4805 24.4405 35.7707 23.7363 34.8984 23.7363ZM34.8984 25.8289C34.6073 25.8289 34.3711 25.594 34.3711 25.3057C34.3711 25.0175 34.6073 24.7826 34.8984 24.7826C35.1895 24.7826 35.4258 25.0175 35.4258 25.3057C35.4258 25.594 35.1895 25.8289 34.8984 25.8289Z" fill="white"/>
<path d="M39.1172 23.7363C38.245 23.7363 37.5352 24.4405 37.5352 25.3057C37.5352 26.171 38.245 26.8751 39.1172 26.8751C39.9894 26.8751 40.6992 26.171 40.6992 25.3057C40.6992 24.4405 39.9894 23.7363 39.1172 23.7363ZM39.1172 25.8289C38.8261 25.8289 38.5898 25.594 38.5898 25.3057C38.5898 25.0175 38.8261 24.7826 39.1172 24.7826C39.4083 24.7826 39.6445 25.0175 39.6445 25.3057C39.6445 25.594 39.4083 25.8289 39.1172 25.8289Z" fill="white"/>
</svg>
