<svg width="60" height="60" viewBox="0 0 60 60" fill="none" xmlns="http://www.w3.org/2000/svg">
<rect x="0.256836" width="59.1283" height="59.1283" rx="9.71972" fill="#2563AC"/>
<path d="M44.8704 27.3791C44.8704 23.9879 42.1296 21.2471 38.7384 21.2471C38.599 21.2471 38.4597 21.2471 38.3203 21.2471C37.8093 17.9488 34.9756 15.4867 31.5844 15.4867C28.7507 15.4867 26.1957 17.252 25.2201 19.8534C22.4329 18.6921 19.1346 20.7361 19.1346 23.9879V24.3595C16.9048 24.6847 15.2324 26.5893 15.2324 28.9121C15.2324 31.467 17.3229 33.511 19.8314 33.511H21.5038V38.3888H18.9952C18.8094 37.599 18.0661 36.9951 17.1835 36.9951C16.1615 36.9951 15.3253 37.8313 15.3253 38.8533C15.3253 39.8753 16.1615 40.7115 17.1835 40.7115C18.0661 40.7115 18.763 40.1076 18.9952 39.3179H21.9683C22.2471 39.3179 22.4329 39.132 22.4329 38.8533V37.9242H26.3815V40.4328C25.5918 40.6186 24.9879 41.3619 24.9879 42.2445C24.9879 43.2665 25.8241 44.1027 26.8461 44.1027C27.8681 44.1027 28.7042 43.2665 28.7042 42.2445C28.7042 41.3619 28.1003 40.665 27.3106 40.4328V37.4597C27.3106 37.181 27.1248 36.9951 26.8461 36.9951H22.4329V33.511H26.6602C26.8925 37.599 30.2837 40.8509 34.4646 40.8509C38.7849 40.8509 42.269 37.3668 42.269 33.0465C42.269 32.8142 42.269 32.6284 42.2225 32.3961C43.8949 31.2812 44.8704 29.3766 44.8704 27.3791ZM17.2764 39.8289C16.7654 39.8289 16.3473 39.4108 16.3473 38.8998C16.3473 38.3888 16.7654 37.9707 17.2764 37.9707C17.7874 37.9707 18.2055 38.3888 18.2055 38.8998C18.2055 39.4108 17.7874 39.8289 17.2764 39.8289ZM27.8216 42.2445C27.8216 42.7555 27.4035 43.1736 26.8925 43.1736C26.3815 43.1736 25.9634 42.7555 25.9634 42.2445C25.9634 41.7335 26.3815 41.3154 26.8925 41.3154C27.4035 41.3154 27.8216 41.7335 27.8216 42.2445ZM34.4646 39.9218C30.6553 39.9218 27.5893 36.8558 27.5893 33.0465C27.5893 29.2372 30.6553 26.1712 34.4646 26.1712C38.2739 26.1712 41.3399 29.2837 41.3399 33.0465C41.3399 36.8558 38.2739 39.9218 34.4646 39.9218ZM42.0831 31.3741C41.2934 27.8901 38.181 25.2421 34.4646 25.2421C30.3301 25.2421 26.939 28.494 26.6602 32.582H19.8314C17.7874 32.582 16.1615 30.9096 16.1615 28.9121C16.1615 26.9145 17.6945 25.3351 19.6921 25.2421C19.9708 25.2421 20.1566 25.0099 20.1101 24.7311C20.0637 24.4989 20.0637 24.2666 20.0637 24.0343C20.0637 21.34 22.9903 19.6676 25.2666 20.9683C25.5453 21.1077 25.8705 20.9683 25.9634 20.6896C26.6602 18.1811 28.983 16.4622 31.6309 16.4622C34.6969 16.4622 37.2519 18.785 37.5306 21.851C37.5306 22.1297 37.8093 22.3155 38.088 22.2691C38.3203 22.2226 38.5526 22.2226 38.8313 22.2226C41.7115 22.2226 44.0342 24.5453 44.0342 27.4255C43.9413 28.9121 43.2445 30.3986 42.0831 31.3741Z" fill="white"/>
<path d="M23.0363 28.8191C22.7576 28.8191 22.5718 29.0514 22.5718 29.2836C22.5718 29.5159 22.7576 29.7482 23.0363 29.7482C23.315 29.7482 23.5009 29.5159 23.5009 29.2836C23.5009 29.0049 23.315 28.8191 23.0363 28.8191Z" fill="white"/>
<path d="M20.7141 28.8191C20.4353 28.8191 20.2495 29.0514 20.2495 29.2836C20.2495 29.5159 20.4353 29.7482 20.7141 29.7482C20.9928 29.7482 21.1786 29.5159 21.1786 29.2836C21.1786 29.0049 20.9928 28.8191 20.7141 28.8191Z" fill="white"/>
<path d="M18.3913 28.8191C18.1126 28.8191 17.9268 29.0514 17.9268 29.2836C17.9268 29.5159 18.1126 29.7482 18.3913 29.7482C18.67 29.7482 18.8558 29.5159 18.8558 29.2836C18.8558 29.0049 18.67 28.8191 18.3913 28.8191Z" fill="white"/>
<path d="M37.4843 30.863H37.1591C37.1591 30.0268 37.1591 30.1662 37.1591 30.1662C37.1591 28.6796 35.9513 27.4718 34.4647 27.4718C32.9782 27.4718 31.7704 28.6796 31.7704 30.1662V30.863H31.4452C30.9342 30.863 30.5161 31.2811 30.5161 31.7921V36.8556C30.5161 37.3666 30.9342 37.7847 31.4452 37.7847H37.4843C37.9953 37.7847 38.4134 37.3666 38.4134 36.8556V31.7921C38.4134 31.2811 37.9953 30.863 37.4843 30.863ZM32.6995 30.1662C32.6995 29.1906 33.4892 28.4009 34.4647 28.4009C35.4403 28.4009 36.23 29.1906 36.23 30.1662V30.863H32.653L32.6995 30.1662ZM31.4452 36.8556V31.7921H37.4843V36.8556H31.4452Z" fill="white"/>
<path d="M34.4646 32.3961C33.6284 32.3961 32.978 33.0465 32.978 33.8827C32.978 34.533 33.3961 35.0905 34 35.2763V35.7873C34 36.066 34.1858 36.2518 34.4646 36.2518C34.7433 36.2518 34.9291 36.066 34.9291 35.7873V35.2763C35.533 35.0905 35.9511 34.533 35.9511 33.8827C35.9511 33.0465 35.2543 32.3961 34.4646 32.3961ZM34.4646 34.3937C34.1858 34.3937 33.9071 34.1614 33.9071 33.8362C33.9071 33.511 34.1394 33.2788 34.4646 33.2788C34.7898 33.2788 35.022 33.511 35.022 33.8362C35.022 34.1614 34.7433 34.3937 34.4646 34.3937Z" fill="white"/>
<path d="M31.5379 17.7629C29.7262 17.7629 28.1002 18.8314 27.4499 20.5502C27.357 20.7825 27.4499 21.0612 27.7286 21.1541C27.9609 21.247 28.2396 21.1541 28.3325 20.8754C28.89 19.5282 30.1442 18.692 31.5843 18.692C31.8631 18.692 32.0489 18.5062 32.0489 18.2275C32.0489 17.9488 31.8166 17.7629 31.5379 17.7629Z" fill="white"/>
</svg>
