<svg width="85" height="80" viewBox="0 0 85 80" fill="none" xmlns="http://www.w3.org/2000/svg">
<rect x="0.85791" width="83.3985" height="80" rx="13.2027" fill="#F38313"/>
<g clip-path="url(#clip0_3064_2401)">
<path d="M46.5726 38.5205H28.707C28.0032 38.5205 27.4309 39.0725 27.4309 39.7512V50.8271C27.4309 51.5058 28.0032 52.0578 28.707 52.0578H46.5726C47.2763 52.0578 47.8487 51.5058 47.8487 50.8271V39.7512C47.8487 39.0725 47.2763 38.5205 46.5726 38.5205ZM28.707 50.8271V39.7512H46.5726L46.5732 50.8271H28.707Z" fill="white"/>
<path d="M41.6915 43.4723C40.9679 41.9617 39.4066 40.9814 37.6398 40.9814C35.873 40.9814 34.3117 41.9617 33.5882 43.4723C31.66 43.1966 29.9832 44.6907 29.9832 46.5194C29.9832 48.2159 31.4143 49.5961 33.1734 49.5961H42.1062C43.8653 49.5961 45.2965 48.2159 45.2965 46.5194C45.2965 44.6907 43.6216 43.1991 41.6915 43.4723ZM42.1062 48.3654H33.1734C32.1181 48.3654 31.2593 47.5372 31.2593 46.5194C31.2593 45.5017 32.1181 44.6734 33.1734 44.6734C33.361 44.6734 33.5588 44.7079 33.7789 44.7793L34.3985 44.9811L34.5918 44.3787C35.0072 43.0828 36.2323 42.2121 37.6398 42.2121C39.0474 42.2121 40.2724 43.0828 40.6878 44.3781L40.8811 44.9811L41.5007 44.7799C41.7208 44.7079 41.9186 44.6734 42.1062 44.6734C43.1615 44.6734 44.0204 45.5017 44.0204 46.5194C44.0204 47.5372 43.1615 48.3654 42.1062 48.3654Z" fill="white"/>
<path d="M62.524 21.291H53.5912V26.2137H47.2107V21.291H38.2779V26.2137H31.8974V21.291H22.9646V32.367H31.8974V27.4443H38.2779V32.367H44.3905C44.3503 32.7226 44.4096 33.0893 44.5857 33.4259C44.677 33.5995 44.6853 33.7951 44.61 33.9637C44.5742 34.0431 44.5398 34.1237 44.5072 34.2037C44.4383 34.376 44.2871 34.5095 44.0938 34.5704C43.39 34.7938 42.8885 35.3716 42.7711 36.0589H28.069C26.3099 36.0589 24.8788 37.4391 24.8788 39.1356V53.2882C23.8234 53.2882 22.9646 54.1164 22.9646 55.1342C22.9646 57.5093 24.9681 59.4415 27.431 59.4415H47.8487C50.3116 59.4415 52.3151 57.5093 52.3151 55.1342C52.3151 54.1164 51.4563 53.2882 50.401 53.2882V44.6416C50.5069 44.6588 50.6128 44.6735 50.7213 44.6735H51.3568C52.206 44.6735 52.9551 44.1505 53.2205 43.3715C53.2837 43.1857 53.4222 43.0405 53.5995 42.974C53.6838 42.9426 53.7673 42.91 53.8503 42.8749C54.0245 42.8023 54.2274 42.8103 54.4073 42.8983C55.1653 43.2681 56.0784 43.1272 56.6794 42.5476L57.1292 42.1144C57.7303 41.5354 57.8764 40.6542 57.4929 39.9232C57.4017 39.7497 57.3934 39.554 57.4687 39.3854C57.5044 39.306 57.5389 39.2254 57.5714 39.1454C57.6403 38.9731 57.7916 38.8396 57.9849 38.7787C58.7914 38.5221 59.3337 37.7997 59.3337 36.9807V36.3678C59.3337 35.5488 58.7914 34.8264 57.9836 34.5704C57.7909 34.5095 57.6403 34.376 57.5714 34.2049C57.5389 34.1237 57.5051 34.0431 57.4687 33.9631C57.3934 33.7951 57.4023 33.5995 57.4929 33.4259C57.669 33.09 57.7284 32.7226 57.6882 32.367H62.524V21.291ZM30.6213 31.1363H24.2407V22.5217H30.6213V31.1363ZM53.5912 27.4443V30.3684C53.4183 30.3001 53.2824 30.1585 53.2205 29.9758C52.9551 29.198 52.206 28.675 51.3568 28.675H50.7213C49.872 28.675 49.1229 29.198 48.8575 29.977C48.7943 30.1628 48.6559 30.3081 48.4772 30.3745C48.3936 30.4059 48.3107 30.4385 48.2277 30.4736C48.0536 30.5462 47.8507 30.5382 47.6707 30.4502C47.5227 30.3782 47.3676 30.3308 47.2107 30.297V27.4443H53.5912ZM39.554 22.5217H45.9346V30.436C45.74 30.5265 45.5575 30.6471 45.3986 30.8009L45.0509 31.1363H39.554V22.5217ZM51.039 55.1342C51.039 56.8306 49.6079 58.2108 47.8487 58.2108H27.431C25.6719 58.2108 24.2407 56.8306 24.2407 55.1342C24.2407 54.7951 24.5272 54.5188 24.8788 54.5188H33.1735V55.1342C33.1735 56.1519 34.0323 56.9801 35.0876 56.9801H40.1921C41.2474 56.9801 42.1062 56.1519 42.1062 55.1342V54.5188H50.401C50.7525 54.5188 51.039 54.7951 51.039 55.1342ZM34.4496 54.5188H40.8301V55.1342C40.8301 55.4732 40.5436 55.7495 40.1921 55.7495H35.0876C34.7361 55.7495 34.4496 55.4732 34.4496 55.1342V54.5188ZM26.1549 53.2882V39.1356C26.1549 38.1178 27.0137 37.2896 28.069 37.2896H47.2107C48.266 37.2896 49.1249 38.1178 49.1249 39.1356V53.2882H26.1549ZM50.2893 38.3726C50.5196 38.4673 50.7729 38.5203 51.039 38.5203C52.0944 38.5203 52.9532 37.692 52.9532 36.6743C52.9532 35.6565 52.0944 34.8283 51.039 34.8283C49.9837 34.8283 49.1249 35.6565 49.1249 36.6743C49.1249 36.6804 49.1268 36.6853 49.1268 36.6915C48.7688 36.43 48.3579 36.2349 47.9049 36.1371C48.1703 34.6972 49.4707 33.5976 51.039 33.5976C52.7981 33.5976 54.2293 34.9778 54.2293 36.6743C54.2293 38.3707 52.7981 39.7509 51.039 39.7509C50.8221 39.7509 50.6102 39.7238 50.401 39.6826V39.1356C50.401 38.8704 50.355 38.6181 50.2893 38.3726ZM50.401 36.6743C50.401 36.3352 50.6874 36.0589 51.039 36.0589C51.3906 36.0589 51.6771 36.3352 51.6771 36.6743C51.6771 37.0133 51.3906 37.2896 51.039 37.2896C50.6874 37.2896 50.401 37.0133 50.401 36.6743ZM57.5861 35.7396C57.8681 35.8288 58.0576 36.0817 58.0576 36.3678V36.9807C58.0576 37.2668 57.8681 37.5191 57.5855 37.6089C57.0291 37.7849 56.5901 38.1824 56.3821 38.6993C56.3553 38.7652 56.3272 38.831 56.2985 38.895C56.0714 39.3996 56.0911 39.9761 56.354 40.4776C56.488 40.733 56.437 41.0406 56.227 41.2431L55.7772 41.6769C55.5673 41.8793 55.2476 41.9292 54.9835 41.7993C54.4641 41.5464 53.865 41.5268 53.343 41.7458C53.276 41.7735 53.2078 41.8006 53.1382 41.827C52.6029 42.0276 52.1913 42.451 52.0082 42.9882C51.9157 43.2601 51.6535 43.4429 51.3568 43.4429H50.7213C50.6071 43.4429 50.5005 43.4072 50.401 43.3555V40.9299C50.6115 40.9588 50.824 40.9816 51.039 40.9816C53.5019 40.9816 55.5054 39.0494 55.5054 36.6743C55.5054 34.2991 53.5019 32.367 51.039 32.367C48.7937 32.367 46.935 33.9748 46.6237 36.0589H44.1091C44.1901 35.9131 44.3209 35.7943 44.4926 35.7396C45.0496 35.5636 45.4886 35.1661 45.6966 34.6492C45.7234 34.5834 45.7515 34.5175 45.7802 34.4535C46.0073 33.949 45.9875 33.3724 45.7247 32.8709C45.5907 32.6155 45.6417 32.3073 45.8516 32.1048L46.3008 31.6716C46.5107 31.4686 46.8298 31.4193 47.0952 31.5492C47.6152 31.8027 48.2137 31.8218 48.7356 31.6027C48.8033 31.5744 48.8715 31.5473 48.9398 31.5221C49.4751 31.3209 49.8873 30.8975 50.0704 30.361C50.1623 30.0884 50.4246 29.9056 50.7213 29.9056H51.3568C51.6535 29.9056 51.9151 30.0884 52.0082 30.361C52.1913 30.8975 52.6029 31.3209 53.1382 31.5215C53.2065 31.5473 53.2748 31.5744 53.3418 31.6021C53.8643 31.8212 54.4628 31.8015 54.9828 31.5486C55.247 31.4187 55.5667 31.4686 55.7772 31.671L56.2264 32.1042C56.4363 32.3067 56.4874 32.6149 56.3534 32.8703C56.0905 33.3718 56.0707 33.9483 56.2979 34.4523C56.3266 34.5169 56.3547 34.5828 56.3821 34.6498C56.5901 35.1661 57.0291 35.5636 57.5861 35.7396ZM61.2479 31.1363H57.0272L56.6801 30.8016C56.1964 30.3351 55.5118 30.1585 54.868 30.2976V22.5217H61.2485L61.2479 31.1363Z" fill="white"/>
<path d="M25.5168 23.752H29.3452V24.9826H25.5168V23.752Z" fill="white"/>
<path d="M25.5168 26.2139H29.3452V27.4445H25.5168V26.2139Z" fill="white"/>
<path d="M25.5168 28.6748H29.3452V29.9055H25.5168V28.6748Z" fill="white"/>
<path d="M40.8301 23.752H44.6584V24.9826H40.8301V23.752Z" fill="white"/>
<path d="M40.8301 26.2139H44.6584V27.4445H40.8301V26.2139Z" fill="white"/>
<path d="M40.8301 28.6748H44.6584V29.9055H40.8301V28.6748Z" fill="white"/>
<path d="M56.1436 23.752H59.9719V24.9826H56.1436V23.752Z" fill="white"/>
<path d="M56.1436 26.2139H59.9719V27.4445H56.1436V26.2139Z" fill="white"/>
<path d="M56.1436 28.6748H59.9719V29.9055H56.1436V28.6748Z" fill="white"/>
</g>
<defs>
<clipPath id="clip0_3064_2401">
<rect width="40.8355" height="39.3811" fill="white" transform="translate(22.3267 20.6758)"/>
</clipPath>
</defs>
</svg>
