<svg width="60" height="60" viewBox="0 0 60 60" fill="none" xmlns="http://www.w3.org/2000/svg">
<rect width="59.1283" height="59.1283" rx="9.71972" fill="#2563AC"/>
<path d="M38.3117 34.7682C36.3576 34.7682 34.7681 36.3578 34.7681 38.3118C34.7681 40.2659 36.3576 41.8555 38.3117 41.8555C40.2658 41.8555 41.8554 40.2659 41.8554 38.3118C41.8554 36.3578 40.2658 34.7682 38.3117 34.7682ZM38.3117 40.843C36.916 40.843 35.7805 39.7075 35.7805 38.3118C35.7805 36.9161 36.916 35.7807 38.3117 35.7807C39.7074 35.7807 40.8429 36.9161 40.8429 38.3118C40.8429 39.7075 39.7074 40.843 38.3117 40.843Z" fill="white"/>
<path d="M38.3117 36.7931C37.4744 36.7931 36.793 37.4745 36.793 38.3118C36.793 39.1491 37.4744 39.8305 38.3117 39.8305C39.149 39.8305 39.8304 39.1491 39.8304 38.3118C39.8304 37.4745 39.149 36.7931 38.3117 36.7931ZM38.3117 38.818C38.0327 38.818 37.8054 38.5907 37.8054 38.3118C37.8054 38.0329 38.0327 37.8056 38.3117 37.8056C38.5906 37.8056 38.8179 38.0329 38.8179 38.3118C38.8179 38.5907 38.5906 38.818 38.3117 38.818Z" fill="white"/>
<path d="M14.8317 26.1622H15.0251V33.7558H16.0375V25.1498H14.8317C14.659 25.1498 14.5188 25.0095 14.5188 24.8369C14.5188 24.7888 14.53 24.7402 14.5517 24.6972L16.2638 21.273C16.3706 21.0599 16.7169 21.0599 16.8232 21.273L18.5353 24.6972C18.5576 24.7402 18.5687 24.7888 18.5687 24.8369C18.5687 25.0095 18.4285 25.1498 18.2558 25.1498H17.05V33.7558H18.0625V26.1622H18.2558C18.9868 26.1622 19.5812 25.5679 19.5812 24.8369C19.5812 24.6324 19.5326 24.4274 19.4414 24.2441L17.7294 20.8204C17.5036 20.3684 17.0495 20.0874 16.5438 20.0874C16.038 20.0874 15.5839 20.3684 15.3582 20.8199L13.6461 24.2441C13.5549 24.4274 13.5063 24.6324 13.5063 24.8369C13.5063 25.5679 14.1007 26.1622 14.8317 26.1622Z" fill="white"/>
<path d="M22.4456 27.4541C22.6713 27.9062 23.1254 28.1871 23.6312 28.1871C24.1369 28.1871 24.591 27.9062 24.8168 27.4546L26.5289 24.0305C26.62 23.8472 26.6686 23.6422 26.6686 23.4377C26.6686 22.7066 26.0743 22.1123 25.3432 22.1123H25.1499V14.5188H24.1374V23.1248H25.3432C25.5159 23.1248 25.6561 23.265 25.6561 23.4377C25.6561 23.4857 25.645 23.5343 25.6232 23.5774L23.9111 27.0015C23.8043 27.2147 23.458 27.2147 23.3517 27.0015L21.6396 23.5774C21.6174 23.5343 21.6062 23.4857 21.6062 23.4377C21.6062 23.265 21.7464 23.1248 21.9191 23.1248H23.1249V14.5188H22.1125V22.1123H21.9191C21.1881 22.1123 20.5938 22.7066 20.5938 23.4377C20.5938 23.6422 20.6423 23.8472 20.7335 24.0305L22.4456 27.4541Z" fill="white"/>
<path d="M42.3618 13.5063H30.2121C28.8164 13.5063 27.6809 14.6418 27.6809 16.0375V29.7276C25.6312 29.8871 23.7571 31.0064 22.6434 32.7448C22.6353 32.7448 22.6272 32.7433 22.6186 32.7433C20.5602 32.7433 18.7034 34.0144 17.9344 35.8926C17.6468 35.8182 17.3512 35.7807 17.05 35.7807C15.0959 35.7807 13.5063 37.3703 13.5063 39.3243C13.5063 41.2784 15.0959 42.868 17.05 42.868H33.5614L33.8368 43.1434C34.3136 43.6197 35.038 43.7362 35.6395 43.4319C35.7817 43.359 35.9427 43.3525 36.0819 43.4127C36.1472 43.441 36.2135 43.4684 36.2793 43.4942C36.4211 43.5489 36.5309 43.6689 36.5811 43.8222C36.7916 44.4626 37.386 44.8929 38.0598 44.8929H38.564C39.2378 44.8929 39.8321 44.4626 40.0427 43.8217C40.0928 43.6689 40.2027 43.5494 40.3434 43.4947C40.4102 43.4689 40.4765 43.4421 40.5423 43.4132C40.68 43.353 40.8415 43.3606 40.9843 43.4324C41.5862 43.7367 42.3101 43.6203 42.787 43.1439L43.1439 42.7875C43.6208 42.3111 43.7367 41.5862 43.4324 40.9848C43.36 40.842 43.3535 40.6811 43.4132 40.5423C43.4416 40.477 43.4689 40.4107 43.4947 40.3449C43.5494 40.2032 43.6694 40.0933 43.8227 40.0432C44.4626 39.8321 44.8929 39.2378 44.8929 38.564V38.3119V38.0598V16.0375C44.8929 14.6418 43.7574 13.5063 42.3618 13.5063ZM30.2121 14.5188H42.3618C43.1991 14.5188 43.8805 15.2002 43.8805 16.0375V36.6054C43.8602 36.5978 43.842 36.5876 43.8217 36.5805C43.6689 36.5304 43.5494 36.4206 43.4947 36.2798C43.4689 36.213 43.4421 36.1467 43.4132 36.0809C43.3535 35.9427 43.3606 35.7817 43.4324 35.639C43.7367 35.0375 43.6208 34.3126 43.1439 33.8362L42.868 33.5609V16.5438C42.868 15.9854 42.4139 15.5313 41.8555 15.5313H30.7183C30.16 15.5313 29.7059 15.9854 29.7059 16.5438V29.8861C29.3753 29.8071 29.0371 29.7524 28.6934 29.7256V16.0375C28.6934 15.2002 29.3748 14.5188 30.2121 14.5188ZM34.0494 33.3042C33.3341 31.9034 32.1409 30.8171 30.7183 30.2197V28.6934H41.8555V33.0364C41.5629 33.0045 41.2612 33.0516 40.9843 33.1913C40.842 33.2637 40.6811 33.2708 40.5418 33.2105C40.477 33.1822 40.4107 33.1554 40.3444 33.129C40.2032 33.0744 40.0928 32.9544 40.0427 32.801C39.8321 32.1611 39.2378 31.7308 38.564 31.7308H38.0598C37.386 31.7308 36.7916 32.1611 36.5811 32.802C36.5309 32.9549 36.4211 33.0744 36.2793 33.129C36.213 33.1549 36.1472 33.1817 36.0814 33.2105C35.9432 33.2703 35.7822 33.2637 35.6395 33.1913C35.1211 32.9296 34.5131 32.9807 34.0494 33.3042ZM41.8555 19.5812H30.7183V16.5438H41.8555V19.5812ZM30.7183 20.5936H41.8555V23.6311H30.7183V20.5936ZM30.7183 24.6435H41.8555V27.6809H30.7183V24.6435ZM14.5188 39.3243C14.5188 37.9287 15.6543 36.7932 17.05 36.7932C17.3947 36.7932 17.7304 36.862 18.0468 36.9977L18.5727 37.223L18.7327 36.6737C19.2319 34.9555 20.8301 33.7558 22.6186 33.7558C23.9728 33.7558 25.2323 34.429 25.9866 35.5559L26.8279 34.993C26.106 33.9147 25.0136 33.1731 23.7819 32.8825C24.8288 31.5324 26.4558 30.7183 28.1872 30.7183C30.4009 30.7183 32.4152 32.0543 33.2925 34.0686C32.9807 34.5298 32.9331 35.1282 33.1918 35.639C33.2642 35.7817 33.2708 35.9427 33.211 36.0814C33.1827 36.1467 33.1554 36.213 33.1295 36.2788C33.0749 36.4206 32.9549 36.5304 32.8015 36.5805C32.1611 36.7916 31.7308 37.386 31.7308 38.0598V38.564C31.7308 39.2378 32.1611 39.8321 32.802 40.0427C32.9549 40.0928 33.0744 40.2027 33.129 40.3434C33.1549 40.4102 33.1817 40.4765 33.2105 40.5423C33.2703 40.6805 33.2632 40.8415 33.1913 40.9843C33.0516 41.2607 33.0045 41.5629 33.0364 41.8555H17.05C15.6543 41.8555 14.5188 40.72 14.5188 39.3243ZM43.8805 38.564C43.8805 38.7994 43.7301 39.0069 43.5058 39.0808C43.0644 39.2256 42.7161 39.5527 42.5511 39.9779C42.5298 40.0321 42.5075 40.0862 42.4848 40.1389C42.3045 40.554 42.3202 41.0283 42.5288 41.4409C42.6351 41.651 42.5946 41.9041 42.4281 42.0707L42.0712 42.4276C41.9046 42.5941 41.6515 42.6346 41.4414 42.5283C41.0293 42.3197 40.554 42.304 40.1399 42.4843C40.0867 42.507 40.0326 42.5293 39.9774 42.5511C39.5527 42.7161 39.2261 43.0644 39.0808 43.5064C39.0074 43.7301 38.7994 43.8805 38.564 43.8805H38.0598C37.8244 43.8805 37.6168 43.7301 37.5429 43.5058C37.3981 43.0644 37.0711 42.7161 36.6459 42.5511C36.5917 42.5298 36.5375 42.5075 36.4849 42.4848C36.2935 42.4012 36.0895 42.3597 35.8845 42.3597C35.645 42.3597 35.4051 42.4164 35.1828 42.5283C34.9722 42.6341 34.7191 42.5941 34.5531 42.4276L34.1962 42.0707C34.0296 41.9041 33.9891 41.651 34.0954 41.4409C34.304 41.0283 34.3197 40.554 34.1395 40.1394C34.1167 40.0862 34.0944 40.0321 34.0727 39.9769C33.9076 39.5521 33.5593 39.2256 33.1174 39.0803C32.8936 39.0074 32.7433 38.7994 32.7433 38.564V38.0598C32.7433 37.8244 32.8936 37.6168 33.1174 37.5429C33.5593 37.3981 33.9076 37.0711 34.0727 36.6459C34.0939 36.5917 34.1162 36.5375 34.139 36.4849C34.3192 36.0698 34.3035 35.5954 34.0949 35.1828C33.9886 34.9727 34.0291 34.7191 34.1957 34.5526L34.5521 34.1962C34.7186 34.0291 34.9717 33.9881 35.1823 34.0954C35.5949 34.304 36.0698 34.3197 36.4839 34.1395C36.5375 34.1162 36.5917 34.0939 36.6459 34.0732C37.0706 33.9076 37.3976 33.5593 37.5429 33.1179C37.6163 32.8936 37.8244 32.7433 38.0598 32.7433H38.564C38.7994 32.7433 39.0069 32.8936 39.0808 33.1179C39.2261 33.5593 39.5527 33.9076 39.9774 34.0727C40.0316 34.0939 40.0857 34.1162 40.1389 34.139C40.5535 34.3192 41.0283 34.303 41.4409 34.0949C41.651 33.9881 41.9041 34.0291 42.0712 34.1957L42.4276 34.5521C42.5941 34.7186 42.6346 34.9722 42.5283 35.1823C42.3197 35.5949 42.304 36.0692 42.4843 36.4839C42.507 36.537 42.5293 36.5912 42.5511 36.6464C42.7161 37.0711 43.0644 37.3976 43.5064 37.5429C43.7301 37.6163 43.8805 37.8244 43.8805 38.0598V38.3119V38.564Z" fill="white"/>
<path d="M31.731 17.5562H32.7434V18.5686H31.731V17.5562Z" fill="white"/>
<path d="M33.7559 17.5562H34.7683V18.5686H33.7559V17.5562Z" fill="white"/>
<path d="M31.731 25.6559H32.7434V26.6684H31.731V25.6559Z" fill="white"/>
<path d="M33.7559 25.6559H34.7683V26.6684H33.7559V25.6559Z" fill="white"/>
<path d="M39.8306 21.6061H40.843V22.6185H39.8306V21.6061Z" fill="white"/>
<path d="M37.8057 21.6061H38.8181V22.6185H37.8057V21.6061Z" fill="white"/>
<path d="M39.8306 29.7058H40.843V30.7183H39.8306V29.7058Z" fill="white"/>
<path d="M37.8057 29.7058H38.8181V30.7183H37.8057V29.7058Z" fill="white"/>
<path d="M28.1874 31.7307C27.8016 31.7307 27.4184 31.7788 27.0483 31.8745L27.301 32.8551C27.5885 32.7806 27.8867 32.7432 28.1874 32.7432C29.8053 32.7432 31.2167 33.8361 31.6196 35.4009L32.6002 35.1483C32.0818 33.136 30.2675 31.7307 28.1874 31.7307Z" fill="white"/>
<path d="M22.6188 34.7682C21.18 34.7682 19.9281 35.7903 19.6421 37.1986L20.6343 37.4001C20.8252 36.4615 21.6594 35.7807 22.6188 35.7807C23.2617 35.7807 23.8524 36.0758 24.2392 36.5911L25.0487 35.9832C24.4685 35.2111 23.5831 34.7682 22.6188 34.7682Z" fill="white"/>
</svg>
