<svg width="60" height="60" viewBox="0 0 60 60" fill="none" xmlns="http://www.w3.org/2000/svg">
<rect width="60" height="60" rx="13.2027" fill="#F38313"/>
<path fill-rule="evenodd" clip-rule="evenodd" d="M23.0384 32.5494C22.9538 32.5477 22.8717 32.5215 22.8022 32.4741C22.7328 32.4268 22.6792 32.3604 22.648 32.2833C22.6169 32.2062 22.6097 32.1218 22.6273 32.0407C22.6449 31.9596 22.6865 31.8854 22.747 31.8274C22.8074 31.7694 22.884 31.7302 22.967 31.7147C23.0501 31.6992 23.136 31.708 23.214 31.7401C23.2919 31.7723 23.3585 31.8263 23.4053 31.8953C23.4521 31.9644 23.4771 32.0454 23.4771 32.1284C23.4771 32.1844 23.4657 32.2399 23.4435 32.2916C23.4214 32.3433 23.3889 32.3901 23.348 32.4293C23.3072 32.4685 23.2587 32.4994 23.2055 32.52C23.1524 32.5406 23.0955 32.5506 23.0384 32.5494ZM26.2265 32.5494C26.1419 32.5477 26.0598 32.5215 25.9903 32.4741C25.9209 32.4268 25.8673 32.3604 25.8361 32.2833C25.805 32.2062 25.7978 32.1218 25.8154 32.0407C25.833 31.9596 25.8746 31.8854 25.9351 31.8274C25.9955 31.7694 26.0721 31.7302 26.1551 31.7147C26.2382 31.6992 26.3241 31.708 26.4021 31.7401C26.48 31.7723 26.5466 31.8263 26.5934 31.8953C26.6402 31.9644 26.6652 32.0454 26.6652 32.1284C26.6652 32.1844 26.6538 32.2399 26.6316 32.2916C26.6095 32.3433 26.577 32.3901 26.5361 32.4293C26.4953 32.4685 26.4468 32.4994 26.3936 32.52C26.3405 32.5406 26.2836 32.5506 26.2265 32.5494ZM24.6324 32.5494C24.5479 32.5477 24.4657 32.5215 24.3963 32.4741C24.3269 32.4268 24.2732 32.3604 24.2421 32.2833C24.211 32.2062 24.2038 32.1218 24.2214 32.0407C24.239 31.9596 24.2806 31.8854 24.3411 31.8274C24.4015 31.7694 24.478 31.7302 24.5611 31.7147C24.6442 31.6992 24.7301 31.708 24.8081 31.7401C24.886 31.7723 24.9526 31.8263 24.9994 31.8953C25.0462 31.9644 25.0712 32.0454 25.0712 32.1284C25.0712 32.1844 25.0598 32.2399 25.0376 32.2916C25.0154 32.3433 24.983 32.3901 24.9421 32.4293C24.9012 32.4685 24.8528 32.4994 24.7996 32.52C24.7465 32.5406 24.6896 32.5506 24.6324 32.5494ZM28.5078 32.5494C28.3939 32.5494 28.2846 32.5051 28.2041 32.4261C28.1235 32.3471 28.0783 32.24 28.0783 32.1284C28.0783 32.0167 28.1235 31.9096 28.2041 31.8306C28.2846 31.7516 28.3939 31.7073 28.5078 31.7073H34.9103C35.0243 31.7073 35.1335 31.7516 35.2141 31.8306C35.2946 31.9096 35.3399 32.0167 35.3399 32.1284C35.3399 32.24 35.2946 32.3471 35.2141 32.4261C35.1335 32.5051 35.0243 32.5494 34.9103 32.5494H28.5078ZM20.6656 18.0791H18.9673C18.8534 18.0791 18.7441 18.0347 18.6636 17.9557C18.583 17.8768 18.5378 17.7697 18.5378 17.658V15.9549H15.0192V23.4228H20.703L20.6656 18.0791ZM21.374 17.3417C21.4245 17.3849 21.464 17.4392 21.4891 17.5001C21.5142 17.561 21.5243 17.6269 21.5186 17.6924L21.5616 23.8425C21.5618 23.8977 21.5509 23.9524 21.5295 24.0035C21.508 24.0545 21.4766 24.101 21.4368 24.1401C21.3971 24.1792 21.3499 24.2102 21.2979 24.2314C21.2459 24.2526 21.1901 24.2635 21.1338 24.2636V24.2653H14.5897C14.5332 24.2653 14.4774 24.2544 14.4252 24.2332C14.3731 24.212 14.3257 24.181 14.2858 24.1418C14.246 24.1027 14.2143 24.0562 14.1928 24.0051C14.1712 23.954 14.1601 23.8992 14.1602 23.8439V15.534C14.1602 15.4223 14.2054 15.3152 14.286 15.2362C14.3665 15.1573 14.4758 15.1129 14.5897 15.1129H18.9669C19.0294 15.1128 19.0912 15.1262 19.148 15.152C19.2047 15.1779 19.2549 15.2156 19.2952 15.2625L21.3739 17.3417H21.374ZM19.3968 16.5639L20.0698 17.2371H19.3968V16.5637V16.5639ZM28.9743 18.1814C29.9953 18.1814 30.9934 18.4783 31.8423 19.0344C32.6913 19.5905 33.3529 20.3809 33.7436 21.3057C34.1343 22.2304 34.2366 23.248 34.0374 24.2297C33.8382 25.2114 33.3465 26.1132 32.6245 26.821C31.9026 27.5288 30.9827 28.0108 29.9814 28.206C28.98 28.4013 27.942 28.3011 26.9987 27.918C26.0555 27.535 25.2492 26.8863 24.682 26.054C24.1148 25.2218 23.812 24.2433 23.812 23.2424C23.812 21.9001 24.3559 20.6129 25.3241 19.6638C26.2922 18.7147 27.6052 18.1815 28.9743 18.1814ZM27.3371 25.6459C27.6294 26.2835 28.0413 26.8324 28.5448 27.2214V25.5064C28.1394 25.5248 27.7358 25.5714 27.3371 25.6459ZM26.8463 23.6634C26.8726 24.0629 26.9394 24.4588 27.0458 24.8453C27.5396 24.7454 28.0408 24.6845 28.5446 24.6634V23.6634H26.8463ZM27.0462 21.6398C26.9396 22.0262 26.8727 22.422 26.8463 22.8215H28.5446V21.8216C28.0409 21.8004 27.5399 21.7396 27.0462 21.6398ZM28.5446 19.2628C28.0423 19.6512 27.6301 20.2016 27.3376 20.8391C27.736 20.9136 28.1394 20.9602 28.5446 20.9786V19.2626V19.2628ZM26.4938 20.6323C26.6823 20.1867 26.9297 19.7674 27.2296 19.385C26.6915 19.6195 26.2082 19.9595 25.8094 20.3842C26.0329 20.4787 26.2613 20.5615 26.4938 20.6323ZM25.986 22.8215C26.0136 22.3505 26.0905 21.8836 26.2156 21.428C25.897 21.3301 25.5854 21.2116 25.2827 21.0735C24.9562 21.6061 24.7546 22.2031 24.6923 22.8215H25.986ZM26.216 25.057C26.0907 24.6015 26.0137 24.1346 25.986 23.6636H24.6923C24.7546 24.282 24.9562 24.879 25.2827 25.4116C25.5855 25.2734 25.8973 25.155 26.216 25.057ZM27.2303 27.1005C26.9305 26.7177 26.6831 26.2981 26.4943 25.8524C26.2617 25.9232 26.033 26.0061 25.8093 26.1007C26.2083 26.5256 26.6919 26.8658 27.2303 27.1002L27.2303 27.1005ZM31.5032 25.8678C31.3222 26.2924 31.088 26.6932 30.8059 27.0609C31.3096 26.8283 31.7625 26.5022 32.1397 26.1007C31.937 26.0147 31.7249 25.937 31.5034 25.8676L31.5032 25.8678ZM32.0184 23.6636C31.99 24.1401 31.9111 24.6123 31.7831 25.0728C32.0843 25.1676 32.3791 25.2807 32.6659 25.4116C32.9924 24.879 33.194 24.282 33.2563 23.6636H32.0184ZM31.784 21.4121C31.9119 21.8726 31.9905 22.345 32.0186 22.8215H33.2565C33.1942 22.2031 32.9925 21.6061 32.6661 21.0735C32.3795 21.2043 32.0849 21.3173 31.784 21.4121ZM30.8043 19.4232C31.0872 19.7911 31.3221 20.1922 31.5036 20.6172C31.7246 20.548 31.9366 20.4703 32.1395 20.3842C31.762 19.9823 31.3085 19.6559 30.8043 19.4232ZM30.6631 20.8291C30.3605 20.173 29.9298 19.6096 29.4042 19.2207V20.9783C29.827 20.9592 30.2478 20.9092 30.6631 20.8289V20.8291ZM31.1582 22.8215C31.1317 22.4182 31.0639 22.0186 30.9558 21.6287C30.445 21.7352 29.926 21.7997 29.4042 21.8215V22.8215H31.1582ZM30.955 24.8562C31.0632 24.4663 31.1312 24.0668 31.1581 23.6636H29.4039V24.6636C29.9254 24.6854 30.4441 24.7498 30.9546 24.8562H30.955ZM29.4042 27.2649C29.9347 26.8738 30.3621 26.3097 30.6628 25.6559C30.2476 25.5757 29.8269 25.5257 29.4042 25.5066V27.2649ZM21.5868 29.9055C21.3425 29.906 21.1083 30.0013 20.9356 30.1706C20.7628 30.34 20.6656 30.5695 20.6652 30.809V43.5588C20.6656 43.7983 20.7628 44.0278 20.9356 44.1972C21.1083 44.3665 21.3425 44.4619 21.5868 44.4623H36.3622C36.6065 44.4619 36.8407 44.3666 37.0134 44.1972C37.1861 44.0279 37.2834 43.7983 37.2838 43.5588V30.8088C37.2834 30.5693 37.1861 30.3398 37.0134 30.1704C36.8407 30.0011 36.6065 29.9058 36.3622 29.9053L21.5868 29.9055ZM36.4251 34.4195V43.5588C36.4248 43.575 36.4181 43.5904 36.4065 43.6018C36.3948 43.6132 36.3791 43.6198 36.3626 43.6201H21.5864C21.5699 43.6198 21.5542 43.6132 21.5426 43.6018C21.5309 43.5904 21.5242 43.575 21.5239 43.5588V34.4193L36.4251 34.4195ZM21.5239 33.5772H36.4248V30.8087C36.4245 30.7925 36.4178 30.7771 36.4061 30.7657C36.3945 30.7543 36.3788 30.7477 36.3623 30.7474H21.5864C21.5699 30.7477 21.5542 30.7543 21.5426 30.7657C21.5309 30.7771 21.5242 30.7925 21.5239 30.8087V33.5772ZM35.6477 20.8617C35.7861 21.019 35.9569 21.1458 36.1488 21.2337C36.3407 21.3216 36.5495 21.3687 36.7613 21.3719H43.9767C45.385 21.3719 46.1292 19.4318 45.0904 18.2983C44.9521 18.141 44.7813 18.0142 44.5893 17.9262C44.3974 17.8383 44.1886 17.7912 43.9767 17.788H43.4827V17.7868C43.379 17.7868 43.2788 17.7499 43.2008 17.683C43.1227 17.6161 43.0721 17.5236 43.0583 17.4228C42.932 16.5095 41.9901 16.1711 41.4378 16.6462C41.3912 16.6893 41.3354 16.7216 41.2744 16.7407C41.2134 16.7598 41.1488 16.7653 41.0853 16.7567C41.0219 16.7481 40.9612 16.7257 40.9078 16.6911C40.8544 16.6565 40.8095 16.6105 40.7766 16.5567C40.1769 15.5811 38.9399 15.3659 38.1088 16.1569C37.7653 16.4916 37.5473 16.9303 37.4902 17.4018C37.4813 17.507 37.4323 17.6052 37.3531 17.6768C37.2738 17.7483 37.1699 17.788 37.0622 17.788H36.7608C35.3526 17.788 34.6084 19.7283 35.6472 20.8617H35.6477ZM36.7613 22.214C35.3545 22.214 34.3036 20.97 34.3036 19.58C34.3036 18.2109 35.3236 16.9794 36.7063 16.9466C37.1472 15.2056 39.011 14.2801 40.554 15.1793C40.8202 15.3354 41.0574 15.5347 41.2553 15.7688C42.2975 15.2671 43.468 15.8568 43.8232 16.9459H43.9767C45.3837 16.9455 46.4345 18.1895 46.4345 19.5797C46.4345 20.9699 45.3836 22.2137 43.9767 22.2137L36.7613 22.214ZM18.3094 26.5862C18.2135 26.4922 18.0913 26.4281 17.9583 26.4022C17.8252 26.3762 17.6873 26.3895 17.562 26.4404C17.4367 26.4913 17.3295 26.5775 17.2542 26.688C17.1788 26.7986 17.1386 26.9286 17.1386 27.0616C17.1386 27.1946 17.1788 27.3246 17.2542 27.4352C17.3295 27.5457 17.4367 27.6319 17.562 27.6828C17.6873 27.7337 17.8252 27.747 17.9583 27.721C18.0913 27.6951 18.2135 27.631 18.3094 27.537C18.4379 27.4108 18.51 27.2398 18.51 27.0616C18.51 26.8834 18.4379 26.7124 18.3094 26.5862ZM17.8246 25.5472C19.1959 25.5472 19.8878 27.1804 18.9169 28.1323C18.7326 28.3132 18.5046 28.4454 18.2542 28.5166V38.1592H19.5243C19.6382 38.1592 19.7475 38.2036 19.828 38.2825C19.9086 38.3615 19.9538 38.4686 19.9538 38.5803C19.9538 38.692 19.9086 38.7991 19.828 38.878C19.7475 38.957 19.6382 39.0014 19.5243 39.0014H17.8246C17.7107 39.0014 17.6015 38.957 17.5209 38.878C17.4404 38.7991 17.3951 38.692 17.3951 38.5803V28.5166C17.0377 28.4151 16.7296 28.1906 16.5275 27.8843C16.3254 27.5779 16.2429 27.2103 16.2951 26.8491C16.3474 26.4879 16.5309 26.1573 16.8119 25.9181C17.0929 25.6789 17.4525 25.5472 17.8246 25.5472ZM40.609 26.5862C40.5131 26.4922 40.3909 26.4281 40.2578 26.4022C40.1248 26.3762 39.9869 26.3895 39.8615 26.4404C39.7362 26.4913 39.6291 26.5775 39.5537 26.688C39.4784 26.7986 39.4381 26.9286 39.4381 27.0616C39.4381 27.1946 39.4784 27.3246 39.5537 27.4352C39.6291 27.5457 39.7362 27.6319 39.8615 27.6828C39.9869 27.7337 40.1248 27.747 40.2578 27.721C40.3909 27.6951 40.5131 27.631 40.609 27.537C40.7374 27.4108 40.8095 27.2398 40.8095 27.0616C40.8095 26.8834 40.7374 26.7124 40.609 26.5862ZM40.1241 25.5472C41.4954 25.5472 42.1873 27.1804 41.2163 28.1323C41.0321 28.3132 40.8041 28.4454 40.5536 28.5166V38.5803C40.5536 38.692 40.5084 38.7991 40.4278 38.878C40.3473 38.957 40.238 39.0014 40.1241 39.0014H38.4244C38.3105 39.0014 38.2012 38.957 38.1207 38.878C38.0401 38.7991 37.9949 38.692 37.9949 38.5803C37.9949 38.4686 38.0401 38.3615 38.1207 38.2825C38.2012 38.2036 38.3105 38.1592 38.4244 38.1592H39.6946V28.5166C39.3371 28.4151 39.029 28.1906 38.8269 27.8843C38.6248 27.5779 38.5423 27.2103 38.5946 26.8491C38.6468 26.4879 38.8303 26.1573 39.1113 25.9181C39.3924 25.6789 39.752 25.5472 40.1241 25.5472Z" fill="white"/>
</svg>
