<svg width="60" height="60" viewBox="0 0 60 60" fill="none" xmlns="http://www.w3.org/2000/svg">
<rect x="0.256836" y="0.128418" width="59.1283" height="59.1283" rx="9.71972" fill="#F38313"/>
<g clip-path="url(#clip0_2939_397)">
<path d="M40.1486 21.8663C40.1999 21.5049 40.226 21.1395 40.226 20.7761C40.226 16.584 36.8156 13.1736 32.6241 13.1736C29.6575 13.1736 26.9407 14.9358 25.7127 17.6069C24.8784 17.0655 23.9193 16.7821 22.9115 16.7821C19.3881 16.7821 16.9191 20.2305 17.9555 23.522C14.9592 24.5811 12.9004 27.4687 12.9004 30.6841C12.9004 34.7984 16.1813 38.1524 20.2599 38.2796C21.1373 42.7218 25.0598 46.0831 29.7555 46.0831C34.4696 46.0831 38.402 42.6948 39.2587 38.2267C43.405 37.7462 46.6136 34.1802 46.6136 29.9689C46.6136 26.0633 43.9169 22.7147 40.1486 21.8663ZM29.7555 45.311C24.8427 45.311 20.8457 41.314 20.8457 36.4012C20.8457 31.4884 24.8427 27.4919 29.7555 27.4919C34.6683 27.4919 38.6648 31.4884 38.6648 36.4012C38.6648 41.314 34.6683 45.311 29.7555 45.311ZM39.3802 37.4332C39.4163 37.0939 39.4369 36.75 39.4369 36.4012C39.4369 31.0626 35.0941 26.7198 29.7555 26.7198C24.4169 26.7198 20.0736 31.0626 20.0736 36.4012C20.0736 36.7737 20.0996 37.1398 20.1408 37.5015C16.5436 37.314 13.6724 34.3329 13.6724 30.6841C13.6724 27.6718 15.6835 24.9791 18.5627 24.1367C18.6677 24.1061 18.7547 24.0322 18.8019 23.9331C18.8497 23.8346 18.8527 23.7205 18.811 23.6195C17.6532 20.8097 19.7349 17.5541 22.9115 17.5541C23.9123 17.5541 24.8562 17.8828 25.6414 18.5051C25.7379 18.582 25.865 18.6071 25.9832 18.575C26.1018 18.5423 26.1978 18.4548 26.242 18.3402C27.2448 15.7114 29.8093 13.9456 32.6241 13.9456C36.3899 13.9456 39.454 17.0098 39.454 20.7761C39.454 21.2179 39.4113 21.6622 39.3273 22.0975C39.2867 22.3082 39.4257 22.5131 39.639 22.5509C43.2329 23.1902 45.8416 26.3096 45.8416 29.9689C45.8416 33.7184 43.0389 36.9033 39.3802 37.4332Z" fill="white"/>
<path d="M31.0734 34.8575C31.0734 35.0706 31.2464 35.2435 31.4595 35.2435C31.6726 35.2435 31.8455 35.0706 31.8455 34.8575C31.8455 33.9155 31.1098 33.1315 30.1415 32.9634V32.284C30.1415 32.0709 29.9686 31.8979 29.7555 31.8979C29.5424 31.8979 29.3695 32.0709 29.3695 32.284V32.9634C28.4012 33.1315 27.6655 33.9155 27.6655 34.8575C27.6655 35.7996 28.4012 36.5835 29.3695 36.7516V39.0472C28.8318 38.9011 28.4376 38.4654 28.4376 37.9457C28.4376 37.7326 28.2647 37.5597 28.0516 37.5597C27.8384 37.5597 27.6655 37.7326 27.6655 37.9457C27.6655 38.8878 28.4012 39.6717 29.3695 39.8398V40.5193C29.3695 40.7324 29.5424 40.9053 29.7555 40.9053C29.9686 40.9053 30.1415 40.7324 30.1415 40.5193V39.8398C31.1098 39.6717 31.8455 38.8878 31.8455 37.9457C31.8455 37.0037 31.1098 36.2198 30.1415 36.0517V33.756C30.6792 33.9021 31.0734 34.3379 31.0734 34.8575ZM28.4376 34.8575C28.4376 34.3379 28.8318 33.9021 29.3695 33.756V35.959C28.8318 35.8129 28.4376 35.3771 28.4376 34.8575ZM31.0734 37.9457C31.0734 38.4654 30.6792 38.9011 30.1415 39.0472V36.8442C30.6792 36.9903 31.0734 37.4261 31.0734 37.9457Z" fill="white"/>
<path d="M29.7554 29.3245C25.8529 29.3245 22.6782 32.4992 22.6782 36.4012C22.6782 40.3037 25.8529 43.4789 29.7554 43.4789C33.6579 43.4789 36.8326 40.3037 36.8326 36.4012C36.8326 32.4992 33.6579 29.3245 29.7554 29.3245ZM29.7554 42.7068C26.2787 42.7068 23.4503 39.8779 23.4503 36.4012C23.4503 32.9249 26.2787 30.0965 29.7554 30.0965C33.2322 30.0965 36.0606 32.9249 36.0606 36.4012C36.0606 39.8779 33.2322 42.7068 29.7554 42.7068Z" fill="white"/>
<path d="M35.3353 15.9436C35.1493 15.8386 34.9136 15.9054 34.8096 16.0904C34.705 16.2759 34.7704 16.5116 34.9563 16.6161C36.4597 17.4636 37.3936 19.0575 37.3936 20.777C37.3936 20.9901 37.5666 21.163 37.7797 21.163C37.9928 21.163 38.1657 20.9901 38.1657 20.777C38.1657 18.7795 37.081 16.9273 35.3353 15.9436Z" fill="white"/>
<path d="M33.1491 15.258C32.9757 15.2419 32.7998 15.2334 32.6219 15.2334C32.4087 15.2334 32.2358 15.4063 32.2358 15.6194C32.2358 15.8325 32.4087 16.0055 32.6219 16.0055C32.7757 16.0055 32.9275 16.013 33.0778 16.0271C33.0898 16.0281 33.1019 16.0286 33.114 16.0286C33.311 16.0286 33.4794 15.8783 33.498 15.6782C33.5176 15.4661 33.3618 15.2781 33.1491 15.258Z" fill="white"/>
<path d="M18.9221 25.3726C18.7763 25.4154 18.6326 25.4641 18.4923 25.5184C18.2938 25.5948 18.1948 25.8185 18.2717 26.0175C18.3492 26.2189 18.5768 26.3149 18.7708 26.2382C18.8909 26.1919 19.0136 26.1502 19.1392 26.1135C19.3438 26.0537 19.4609 25.8391 19.4011 25.6345C19.3413 25.4304 19.1277 25.3118 18.9221 25.3726Z" fill="white"/>
<path d="M16.9379 26.4399C15.6793 27.5015 14.9575 29.0491 14.9575 30.6852C14.9575 30.8983 15.1304 31.0712 15.3435 31.0712C15.5567 31.0712 15.7296 30.8983 15.7296 30.6852C15.7296 29.2768 16.3513 27.9448 17.4355 27.03C17.5984 26.8928 17.6195 26.649 17.4818 26.4861C17.3446 26.3233 17.1013 26.3022 16.9379 26.4399Z" fill="white"/>
</g>
<defs>
<clipPath id="clip0_2939_397">
<rect width="35" height="35" fill="white" transform="translate(12.2568 12.1284)"/>
</clipPath>
</defs>
</svg>
