<svg width="191" height="42" viewBox="0 0 191 42" fill="none" xmlns="http://www.w3.org/2000/svg">
<rect width="191" height="41.6508" rx="20" fill="#FFE6CF"/>
<path d="M24.5605 22.7544H27.1885C27.1357 23.6157 26.8984 24.3804 26.4766 25.0483C26.0605 25.7163 25.4775 26.2378 24.7275 26.6128C23.9834 26.9878 23.0869 27.1753 22.0381 27.1753C21.2178 27.1753 20.4824 27.0347 19.832 26.7534C19.1816 26.4663 18.625 26.0562 18.1621 25.5229C17.7051 24.9897 17.3564 24.3452 17.1162 23.5894C16.876 22.8335 16.7559 21.9868 16.7559 21.0493V20.1616C16.7559 19.2241 16.8789 18.3774 17.125 17.6216C17.377 16.8599 17.7344 16.2124 18.1973 15.6792C18.666 15.146 19.2256 14.7358 19.876 14.4487C20.5264 14.1616 21.2529 14.0181 22.0557 14.0181C23.1221 14.0181 24.0215 14.2114 24.7539 14.5981C25.4922 14.9849 26.0635 15.5181 26.4678 16.1978C26.8779 16.8774 27.124 17.6509 27.2061 18.5181H24.5693C24.54 18.0024 24.4375 17.5659 24.2617 17.2085C24.0859 16.8452 23.8193 16.5728 23.4619 16.3911C23.1104 16.2036 22.6416 16.1099 22.0557 16.1099C21.6162 16.1099 21.2324 16.1919 20.9043 16.356C20.5762 16.52 20.3008 16.769 20.0781 17.103C19.8555 17.437 19.6885 17.8589 19.5771 18.3687C19.4717 18.8726 19.4189 19.4644 19.4189 20.144V21.0493C19.4189 21.7114 19.4688 22.2944 19.5684 22.7983C19.668 23.2964 19.8203 23.7183 20.0254 24.064C20.2363 24.4038 20.5059 24.6616 20.834 24.8374C21.168 25.0073 21.5693 25.0923 22.0381 25.0923C22.5889 25.0923 23.043 25.0044 23.4004 24.8286C23.7578 24.6528 24.0303 24.3921 24.2178 24.0464C24.4111 23.7007 24.5254 23.27 24.5605 22.7544ZM38.5048 24.9429V26.9995H32.0624V24.9429H38.5048ZM32.915 14.2026V26.9995H30.2783V14.2026H32.915ZM51.3065 20.3022V20.9087C51.3065 21.8813 51.1747 22.7544 50.911 23.5278C50.6473 24.3013 50.2753 24.9604 49.7948 25.5054C49.3143 26.0444 48.7401 26.4575 48.0722 26.7446C47.41 27.0317 46.6747 27.1753 45.8661 27.1753C45.0634 27.1753 44.328 27.0317 43.66 26.7446C42.9979 26.4575 42.4237 26.0444 41.9374 25.5054C41.4511 24.9604 41.0731 24.3013 40.8036 23.5278C40.5399 22.7544 40.4081 21.8813 40.4081 20.9087V20.3022C40.4081 19.3237 40.5399 18.4507 40.8036 17.6831C41.0673 16.9097 41.4393 16.2505 41.9198 15.7056C42.4061 15.1606 42.9804 14.7446 43.6425 14.4575C44.3104 14.1704 45.0458 14.0269 45.8485 14.0269C46.6571 14.0269 47.3925 14.1704 48.0546 14.4575C48.7225 14.7446 49.2968 15.1606 49.7772 15.7056C50.2636 16.2505 50.6386 16.9097 50.9022 17.6831C51.1718 18.4507 51.3065 19.3237 51.3065 20.3022ZM48.6434 20.9087V20.2847C48.6434 19.605 48.5819 19.0073 48.4589 18.4917C48.3358 17.9761 48.1542 17.5425 47.9139 17.1909C47.6737 16.8394 47.3807 16.5757 47.035 16.3999C46.6893 16.2183 46.2938 16.1274 45.8485 16.1274C45.4032 16.1274 45.0077 16.2183 44.662 16.3999C44.3222 16.5757 44.0321 16.8394 43.7919 17.1909C43.5575 17.5425 43.3788 17.9761 43.2557 18.4917C43.1327 19.0073 43.0712 19.605 43.0712 20.2847V20.9087C43.0712 21.5825 43.1327 22.1802 43.2557 22.7017C43.3788 23.2173 43.5604 23.6538 43.8007 24.0112C44.0409 24.3628 44.3339 24.6294 44.6796 24.811C45.0253 24.9927 45.4208 25.0835 45.8661 25.0835C46.3114 25.0835 46.7069 24.9927 47.0526 24.811C47.3983 24.6294 47.6884 24.3628 47.9227 24.0112C48.1571 23.6538 48.3358 23.2173 48.4589 22.7017C48.5819 22.1802 48.6434 21.5825 48.6434 20.9087ZM61.6297 14.2026H64.2576V22.6577C64.2576 23.6421 64.0467 24.4712 63.6248 25.145C63.2088 25.8188 62.6317 26.3257 61.8934 26.6655C61.161 27.0054 60.3172 27.1753 59.3621 27.1753C58.4071 27.1753 57.5574 27.0054 56.8133 26.6655C56.075 26.3257 55.4949 25.8188 55.0731 25.145C54.6571 24.4712 54.449 23.6421 54.449 22.6577V14.2026H57.0858V22.6577C57.0858 23.2319 57.1766 23.7007 57.3582 24.064C57.5399 24.4272 57.8006 24.6938 58.1405 24.8638C58.4862 25.0337 58.8934 25.1187 59.3621 25.1187C59.8426 25.1187 60.2498 25.0337 60.5838 24.8638C60.9237 24.6938 61.1815 24.4272 61.3573 24.064C61.5389 23.7007 61.6297 23.2319 61.6297 22.6577V14.2026ZM71.7156 26.9995H68.9295L68.947 24.9429H71.7156C72.407 24.9429 72.99 24.7876 73.4646 24.4771C73.9392 24.1606 74.2966 23.7007 74.5369 23.0972C74.783 22.4937 74.906 21.7642 74.906 20.9087V20.2847C74.906 19.6284 74.8357 19.0513 74.6951 18.5532C74.5603 18.0552 74.3582 17.6362 74.0886 17.2964C73.8191 16.9565 73.4881 16.7017 73.0955 16.5317C72.7029 16.356 72.2517 16.2681 71.742 16.2681H68.8767V14.2026H71.742C72.5974 14.2026 73.3797 14.3491 74.0886 14.6421C74.8035 14.9292 75.4216 15.3423 75.9431 15.8813C76.4646 16.4204 76.866 17.0649 77.1472 17.8149C77.4343 18.5591 77.5779 19.3882 77.5779 20.3022V20.9087C77.5779 21.8169 77.4343 22.646 77.1472 23.396C76.866 24.146 76.4646 24.7905 75.9431 25.3296C75.4275 25.8628 74.8093 26.2759 74.0886 26.5688C73.3738 26.856 72.5828 26.9995 71.7156 26.9995ZM70.4236 14.2026V26.9995H67.7869V14.2026H70.4236ZM92.0016 14.2026L87.3083 28.0981H85.4274L90.1208 14.2026H92.0016ZM104.501 26.9995H101.714L101.732 24.9429H104.501C105.192 24.9429 105.775 24.7876 106.25 24.4771C106.724 24.1606 107.082 23.7007 107.322 23.0972C107.568 22.4937 107.691 21.7642 107.691 20.9087V20.2847C107.691 19.6284 107.621 19.0513 107.48 18.5532C107.345 18.0552 107.143 17.6362 106.874 17.2964C106.604 16.9565 106.273 16.7017 105.88 16.5317C105.488 16.356 105.037 16.2681 104.527 16.2681H101.662V14.2026H104.527C105.382 14.2026 106.165 14.3491 106.874 14.6421C107.588 14.9292 108.207 15.3423 108.728 15.8813C109.25 16.4204 109.651 17.0649 109.932 17.8149C110.219 18.5591 110.363 19.3882 110.363 20.3022V20.9087C110.363 21.8169 110.219 22.646 109.932 23.396C109.651 24.146 109.25 24.7905 108.728 25.3296C108.212 25.8628 107.594 26.2759 106.874 26.5688C106.159 26.856 105.368 26.9995 104.501 26.9995ZM103.209 14.2026V26.9995H100.572V14.2026H103.209ZM122.224 24.9429V26.9995H115.413V24.9429H122.224ZM116.274 14.2026V26.9995H113.637V14.2026H116.274ZM121.336 19.4146V21.4185H115.413V19.4146H121.336ZM122.215 14.2026V16.2681H115.413V14.2026H122.215ZM129.735 24.3276L132.749 14.2026H135.685L131.229 26.9995H129.295L129.735 24.3276ZM126.957 14.2026L129.963 24.3276L130.42 26.9995H128.469L124.039 14.2026H126.957ZM148.627 20.3022V20.9087C148.627 21.8813 148.495 22.7544 148.232 23.5278C147.968 24.3013 147.596 24.9604 147.116 25.5054C146.635 26.0444 146.061 26.4575 145.393 26.7446C144.731 27.0317 143.995 27.1753 143.187 27.1753C142.384 27.1753 141.649 27.0317 140.981 26.7446C140.319 26.4575 139.744 26.0444 139.258 25.5054C138.772 24.9604 138.394 24.3013 138.124 23.5278C137.861 22.7544 137.729 21.8813 137.729 20.9087V20.3022C137.729 19.3237 137.861 18.4507 138.124 17.6831C138.388 16.9097 138.76 16.2505 139.241 15.7056C139.727 15.1606 140.301 14.7446 140.963 14.4575C141.631 14.1704 142.367 14.0269 143.169 14.0269C143.978 14.0269 144.713 14.1704 145.375 14.4575C146.043 14.7446 146.618 15.1606 147.098 15.7056C147.584 16.2505 147.959 16.9097 148.223 17.6831C148.493 18.4507 148.627 19.3237 148.627 20.3022ZM145.964 20.9087V20.2847C145.964 19.605 145.903 19.0073 145.78 18.4917C145.657 17.9761 145.475 17.5425 145.235 17.1909C144.994 16.8394 144.702 16.5757 144.356 16.3999C144.01 16.2183 143.615 16.1274 143.169 16.1274C142.724 16.1274 142.328 16.2183 141.983 16.3999C141.643 16.5757 141.353 16.8394 141.113 17.1909C140.878 17.5425 140.7 17.9761 140.577 18.4917C140.453 19.0073 140.392 19.605 140.392 20.2847V20.9087C140.392 21.5825 140.453 22.1802 140.577 22.7017C140.7 23.2173 140.881 23.6538 141.121 24.0112C141.362 24.3628 141.655 24.6294 142 24.811C142.346 24.9927 142.742 25.0835 143.187 25.0835C143.632 25.0835 144.028 24.9927 144.373 24.811C144.719 24.6294 145.009 24.3628 145.244 24.0112C145.478 23.6538 145.657 23.2173 145.78 22.7017C145.903 22.1802 145.964 21.5825 145.964 20.9087ZM156.867 22.438H153.607V20.3813H156.867C157.371 20.3813 157.782 20.2993 158.098 20.1353C158.414 19.9653 158.646 19.731 158.792 19.4321C158.939 19.1333 159.012 18.7964 159.012 18.4214C159.012 18.0405 158.939 17.686 158.792 17.3579C158.646 17.0298 158.414 16.7661 158.098 16.5669C157.782 16.3677 157.371 16.2681 156.867 16.2681H154.521V26.9995H151.884V14.2026H156.867C157.869 14.2026 158.728 14.3843 159.443 14.7476C160.163 15.105 160.714 15.6001 161.095 16.2329C161.476 16.8657 161.666 17.5894 161.666 18.4038C161.666 19.23 161.476 19.9448 161.095 20.5483C160.714 21.1519 160.163 21.6177 159.443 21.9458C158.728 22.2739 157.869 22.438 156.867 22.438ZM171.506 23.6509C171.506 23.4224 171.471 23.2173 171.401 23.0356C171.336 22.8481 171.213 22.6782 171.031 22.5259C170.85 22.3677 170.595 22.2124 170.267 22.0601C169.939 21.9077 169.514 21.7495 168.992 21.5854C168.412 21.3979 167.862 21.187 167.34 20.9526C166.824 20.7183 166.367 20.4458 165.969 20.1353C165.576 19.8188 165.266 19.4526 165.037 19.0366C164.815 18.6206 164.703 18.1372 164.703 17.5864C164.703 17.0532 164.821 16.5698 165.055 16.1362C165.289 15.6968 165.617 15.3218 166.039 15.0112C166.461 14.6948 166.959 14.4517 167.533 14.2817C168.114 14.1118 168.749 14.0269 169.441 14.0269C170.384 14.0269 171.207 14.1968 171.91 14.5366C172.614 14.8765 173.158 15.3423 173.545 15.9341C173.938 16.5259 174.134 17.2026 174.134 17.9644H171.515C171.515 17.5894 171.436 17.2612 171.278 16.98C171.125 16.6929 170.891 16.4673 170.574 16.3032C170.264 16.1392 169.871 16.0571 169.397 16.0571C168.94 16.0571 168.559 16.1274 168.254 16.2681C167.949 16.4028 167.721 16.5874 167.569 16.8218C167.416 17.0503 167.34 17.3081 167.34 17.5952C167.34 17.812 167.393 18.0083 167.498 18.1841C167.61 18.3599 167.774 18.5239 167.99 18.6763C168.207 18.8286 168.474 18.9722 168.79 19.1069C169.107 19.2417 169.473 19.3735 169.889 19.5024C170.586 19.7134 171.198 19.9507 171.726 20.2144C172.259 20.478 172.704 20.7739 173.062 21.1021C173.419 21.4302 173.689 21.8022 173.87 22.2183C174.052 22.6343 174.143 23.106 174.143 23.6333C174.143 24.1899 174.034 24.688 173.818 25.1274C173.601 25.5669 173.287 25.939 172.877 26.2437C172.467 26.5483 171.978 26.7798 171.409 26.938C170.841 27.0962 170.205 27.1753 169.502 27.1753C168.869 27.1753 168.245 27.0933 167.63 26.9292C167.015 26.7593 166.455 26.5044 165.951 26.1646C165.453 25.8247 165.055 25.3911 164.756 24.8638C164.457 24.3364 164.308 23.7124 164.308 22.9917H166.953C166.953 23.3901 167.015 23.7271 167.138 24.0024C167.261 24.2778 167.434 24.5005 167.656 24.6704C167.885 24.8403 168.155 24.9634 168.465 25.0396C168.781 25.1157 169.127 25.1538 169.502 25.1538C169.959 25.1538 170.334 25.0894 170.627 24.9604C170.926 24.8315 171.146 24.6528 171.286 24.4243C171.433 24.1958 171.506 23.938 171.506 23.6509Z" fill="#F38313"/>
</svg>
