<svg width="197" height="50" viewBox="0 0 197 50" fill="none" xmlns="http://www.w3.org/2000/svg">
<rect x="20" y="13" width="166" height="32" rx="16" fill="#FFE6CF"/>
<path d="M46.6582 30.6982H48.7021C48.6611 31.3682 48.4766 31.9629 48.1484 32.4824C47.8249 33.002 47.3714 33.4076 46.7881 33.6992C46.2093 33.9909 45.512 34.1367 44.6963 34.1367C44.0583 34.1367 43.4863 34.0273 42.9805 33.8086C42.4746 33.5853 42.0417 33.2663 41.6816 32.8516C41.3262 32.4368 41.055 31.9355 40.8682 31.3477C40.6813 30.7598 40.5879 30.1012 40.5879 29.3721V28.6816C40.5879 27.9525 40.6836 27.2939 40.875 26.7061C41.071 26.1136 41.349 25.61 41.709 25.1953C42.0736 24.7806 42.5088 24.4616 43.0146 24.2383C43.5205 24.015 44.0856 23.9033 44.71 23.9033C45.5394 23.9033 46.2389 24.0537 46.8086 24.3545C47.3828 24.6553 47.8271 25.07 48.1416 25.5986C48.4606 26.1273 48.652 26.7288 48.7158 27.4033H46.665C46.6423 27.0023 46.5625 26.6628 46.4258 26.3848C46.2891 26.1022 46.0817 25.8903 45.8037 25.749C45.5303 25.6032 45.1657 25.5303 44.71 25.5303C44.3682 25.5303 44.0697 25.5941 43.8145 25.7217C43.5592 25.8493 43.3451 26.043 43.1719 26.3027C42.9987 26.5625 42.8688 26.8906 42.7822 27.2871C42.7002 27.679 42.6592 28.1393 42.6592 28.668V29.3721C42.6592 29.887 42.6979 30.3405 42.7754 30.7324C42.8529 31.1198 42.9714 31.4479 43.1309 31.7168C43.2949 31.9811 43.5046 32.1816 43.7598 32.3184C44.0195 32.4505 44.3317 32.5166 44.6963 32.5166C45.1247 32.5166 45.4779 32.4482 45.7559 32.3115C46.0339 32.1748 46.2458 31.972 46.3916 31.7031C46.542 31.4342 46.6309 31.0993 46.6582 30.6982ZM52.416 24.0469L54.4941 28.5859L56.5723 24.0469H58.8076L55.5332 30.377V34H53.4551V30.377L50.1738 24.0469H52.416ZM64.6133 29.6318H62.0566L62.043 28.2236H64.1895C64.5677 28.2236 64.8776 28.1758 65.1191 28.0801C65.3607 27.9798 65.5407 27.8363 65.6592 27.6494C65.7822 27.458 65.8438 27.2256 65.8438 26.9521C65.8438 26.6423 65.7845 26.3916 65.666 26.2002C65.5521 26.0088 65.3721 25.8698 65.126 25.7832C64.8844 25.6966 64.5723 25.6533 64.1895 25.6533H62.7676V34H60.7168V24.0469H64.1895C64.7682 24.0469 65.2855 24.1016 65.7412 24.2109C66.2015 24.3203 66.5911 24.4867 66.9102 24.71C67.2292 24.9333 67.473 25.2158 67.6416 25.5576C67.8102 25.8949 67.8945 26.2959 67.8945 26.7607C67.8945 27.1709 67.8011 27.5492 67.6143 27.8955C67.432 28.2419 67.1426 28.5244 66.7461 28.7432C66.3542 28.9619 65.8415 29.0827 65.208 29.1055L64.6133 29.6318ZM64.5244 34H61.4961L62.2959 32.4004H64.5244C64.8844 32.4004 65.1784 32.3434 65.4062 32.2295C65.6341 32.111 65.8027 31.9515 65.9121 31.751C66.0215 31.5505 66.0762 31.3203 66.0762 31.0605C66.0762 30.7689 66.026 30.516 65.9258 30.3018C65.8301 30.0876 65.6751 29.9235 65.4609 29.8096C65.2467 29.6911 64.9642 29.6318 64.6133 29.6318H62.6377L62.6514 28.2236H65.1123L65.584 28.7773C66.1901 28.7682 66.6777 28.8753 67.0469 29.0986C67.4206 29.3174 67.6917 29.6022 67.8604 29.9531C68.0335 30.304 68.1201 30.68 68.1201 31.0811C68.1201 31.7191 67.9811 32.2568 67.7031 32.6943C67.4251 33.1273 67.0173 33.4531 66.4795 33.6719C65.9463 33.8906 65.2946 34 64.5244 34ZM77.3369 32.4004V34H72.0391V32.4004H77.3369ZM72.709 24.0469V34H70.6582V24.0469H72.709ZM76.6465 28.1006V29.6592H72.0391V28.1006H76.6465ZM77.3301 24.0469V25.6533H72.0391V24.0469H77.3301ZM79.5332 24.0469H83.2451C84.0062 24.0469 84.6602 24.1608 85.207 24.3887C85.7585 24.6165 86.1823 24.9538 86.4785 25.4004C86.7747 25.847 86.9229 26.3962 86.9229 27.0479C86.9229 27.5811 86.8317 28.0391 86.6494 28.4219C86.4717 28.8001 86.2188 29.1169 85.8906 29.3721C85.5671 29.6227 85.1865 29.8232 84.749 29.9736L84.0996 30.3154H80.873L80.8594 28.7158H83.2588C83.6188 28.7158 83.9173 28.652 84.1543 28.5244C84.3913 28.3968 84.569 28.2191 84.6875 27.9912C84.8105 27.7633 84.8721 27.499 84.8721 27.1982C84.8721 26.8792 84.8128 26.6035 84.6943 26.3711C84.5758 26.1387 84.3958 25.9609 84.1543 25.8379C83.9128 25.7148 83.6097 25.6533 83.2451 25.6533H81.584V34H79.5332V24.0469ZM85.0977 34L82.8281 29.5635L84.9951 29.5498L87.292 33.9043V34H85.0977ZM99.1699 31.3955C99.1699 31.2178 99.1426 31.0583 99.0879 30.917C99.0378 30.7712 98.9421 30.639 98.8008 30.5205C98.6595 30.3975 98.4613 30.2767 98.2061 30.1582C97.9508 30.0397 97.6204 29.9167 97.2148 29.7891C96.7637 29.6432 96.3353 29.4792 95.9297 29.2969C95.5286 29.1146 95.1732 28.9027 94.8633 28.6611C94.5579 28.415 94.3164 28.1302 94.1387 27.8066C93.9655 27.4831 93.8789 27.1071 93.8789 26.6787C93.8789 26.264 93.9701 25.888 94.1523 25.5508C94.3346 25.209 94.5898 24.9173 94.918 24.6758C95.2461 24.4297 95.6335 24.2406 96.0801 24.1084C96.5312 23.9762 97.0257 23.9102 97.5635 23.9102C98.2972 23.9102 98.9375 24.0423 99.4844 24.3066C100.031 24.571 100.455 24.9333 100.756 25.3936C101.061 25.8538 101.214 26.3802 101.214 26.9727H99.1768C99.1768 26.681 99.1152 26.4258 98.9922 26.207C98.8737 25.9837 98.6914 25.8083 98.4453 25.6807C98.2038 25.5531 97.8984 25.4893 97.5293 25.4893C97.1738 25.4893 96.8776 25.5439 96.6406 25.6533C96.4036 25.7581 96.2259 25.9017 96.1074 26.084C95.9889 26.2617 95.9297 26.4622 95.9297 26.6855C95.9297 26.8542 95.9707 27.0068 96.0527 27.1436C96.1393 27.2803 96.2669 27.4079 96.4355 27.5264C96.6042 27.6449 96.8115 27.7565 97.0576 27.8613C97.3037 27.9661 97.5885 28.0687 97.9121 28.1689C98.4544 28.333 98.9307 28.5176 99.3408 28.7227C99.7555 28.9277 100.102 29.1579 100.38 29.4131C100.658 29.6683 100.868 29.9577 101.009 30.2812C101.15 30.6048 101.221 30.9717 101.221 31.3818C101.221 31.8148 101.136 32.2021 100.968 32.5439C100.799 32.8857 100.555 33.1751 100.236 33.4121C99.9173 33.6491 99.5368 33.8291 99.0947 33.9521C98.6527 34.0752 98.1582 34.1367 97.6113 34.1367C97.1191 34.1367 96.6338 34.0729 96.1553 33.9453C95.6768 33.8132 95.2415 33.6149 94.8496 33.3506C94.4622 33.0863 94.1523 32.749 93.9199 32.3389C93.6875 31.9287 93.5713 31.4434 93.5713 30.8828H95.6289C95.6289 31.1927 95.6768 31.4548 95.7725 31.6689C95.8682 31.8831 96.0026 32.0563 96.1758 32.1885C96.3535 32.3206 96.5632 32.4163 96.8047 32.4756C97.0508 32.5348 97.3197 32.5645 97.6113 32.5645C97.9668 32.5645 98.2585 32.5143 98.4863 32.4141C98.7188 32.3138 98.8896 32.1748 98.999 31.9971C99.113 31.8193 99.1699 31.6188 99.1699 31.3955ZM110.294 32.4004V34H104.996V32.4004H110.294ZM105.666 24.0469V34H103.615V24.0469H105.666ZM109.604 28.1006V29.6592H104.996V28.1006H109.604ZM110.287 24.0469V25.6533H104.996V24.0469H110.287ZM118.26 30.6982H120.304C120.263 31.3682 120.078 31.9629 119.75 32.4824C119.426 33.002 118.973 33.4076 118.39 33.6992C117.811 33.9909 117.114 34.1367 116.298 34.1367C115.66 34.1367 115.088 34.0273 114.582 33.8086C114.076 33.5853 113.643 33.2663 113.283 32.8516C112.928 32.4368 112.657 31.9355 112.47 31.3477C112.283 30.7598 112.189 30.1012 112.189 29.3721V28.6816C112.189 27.9525 112.285 27.2939 112.477 26.7061C112.673 26.1136 112.951 25.61 113.311 25.1953C113.675 24.7806 114.11 24.4616 114.616 24.2383C115.122 24.015 115.687 23.9033 116.312 23.9033C117.141 23.9033 117.84 24.0537 118.41 24.3545C118.984 24.6553 119.429 25.07 119.743 25.5986C120.062 26.1273 120.254 26.7288 120.317 27.4033H118.267C118.244 27.0023 118.164 26.6628 118.027 26.3848C117.891 26.1022 117.683 25.8903 117.405 25.749C117.132 25.6032 116.767 25.5303 116.312 25.5303C115.97 25.5303 115.671 25.5941 115.416 25.7217C115.161 25.8493 114.947 26.043 114.773 26.3027C114.6 26.5625 114.47 26.8906 114.384 27.2871C114.302 27.679 114.261 28.1393 114.261 28.668V29.3721C114.261 29.887 114.299 30.3405 114.377 30.7324C114.454 31.1198 114.573 31.4479 114.732 31.7168C114.896 31.9811 115.106 32.1816 115.361 32.3184C115.621 32.4505 115.933 32.5166 116.298 32.5166C116.726 32.5166 117.079 32.4482 117.357 32.3115C117.635 32.1748 117.847 31.972 117.993 31.7031C118.144 31.4342 118.232 31.0993 118.26 30.6982ZM128.146 24.0469H130.19V30.623C130.19 31.3887 130.026 32.0335 129.698 32.5576C129.375 33.0817 128.926 33.4759 128.352 33.7402C127.782 34.0046 127.126 34.1367 126.383 34.1367C125.64 34.1367 124.979 34.0046 124.4 33.7402C123.826 33.4759 123.375 33.0817 123.047 32.5576C122.723 32.0335 122.562 31.3887 122.562 30.623V24.0469H124.612V30.623C124.612 31.0697 124.683 31.4342 124.824 31.7168C124.965 31.9993 125.168 32.2067 125.433 32.3389C125.701 32.471 126.018 32.5371 126.383 32.5371C126.757 32.5371 127.073 32.471 127.333 32.3389C127.597 32.2067 127.798 31.9993 127.935 31.7168C128.076 31.4342 128.146 31.0697 128.146 30.623V24.0469ZM132.879 24.0469H136.591C137.352 24.0469 138.006 24.1608 138.553 24.3887C139.104 24.6165 139.528 24.9538 139.824 25.4004C140.12 25.847 140.269 26.3962 140.269 27.0479C140.269 27.5811 140.177 28.0391 139.995 28.4219C139.817 28.8001 139.564 29.1169 139.236 29.3721C138.913 29.6227 138.532 29.8232 138.095 29.9736L137.445 30.3154H134.219L134.205 28.7158H136.604C136.965 28.7158 137.263 28.652 137.5 28.5244C137.737 28.3968 137.915 28.2191 138.033 27.9912C138.156 27.7633 138.218 27.499 138.218 27.1982C138.218 26.8792 138.159 26.6035 138.04 26.3711C137.922 26.1387 137.742 25.9609 137.5 25.8379C137.258 25.7148 136.955 25.6533 136.591 25.6533H134.93V34H132.879V24.0469ZM138.443 34L136.174 29.5635L138.341 29.5498L140.638 33.9043V34H138.443ZM145.028 24.0469V34H142.984V24.0469H145.028ZM152.194 24.0469V34H150.15V24.0469H152.194ZM155.257 24.0469V25.6533H147.136V24.0469H155.257ZM158.902 24.0469L160.98 28.5859L163.059 24.0469H165.294L162.02 30.377V34H159.941V30.377L156.66 24.0469H158.902Z" fill="#F5820E"/>
<path d="M181.5 10C182.666 9 185 5.8 185 1M185 13C187 11.3333 191 7.5 191 5.5M189 17C191.5 15.3333 196.5 11.6 196.5 10" stroke="black" stroke-linecap="round"/>
<path d="M17.2791 41.1094C15.8228 41.5996 12.4606 43.6925 10.6626 48.143M15.1578 37.0168C12.6791 37.8129 7.53434 39.8687 6.78514 41.7231M12.9474 31.8096C10.0051 32.4184 3.97067 34.0069 3.37131 35.4904" stroke="black" stroke-linecap="round"/>
</svg>
