<svg width="225" height="44" viewBox="0 0 225 44" fill="none" xmlns="http://www.w3.org/2000/svg">
<rect y="0.254883" width="225" height="42.9793" rx="21.4897" fill="#FFE6CF"/>
<path d="M37.0229 23.6175H39.7928C39.7372 24.5254 39.4871 25.3313 39.0424 26.0354C38.604 26.7394 37.9895 27.2891 37.1989 27.6843C36.4146 28.0796 35.4697 28.2772 34.3642 28.2772C33.4996 28.2772 32.7245 28.129 32.039 27.8325C31.3535 27.5299 30.7668 27.0976 30.2789 26.5356C29.7972 25.9736 29.4297 25.2943 29.1765 24.4976C28.9233 23.7009 28.7967 22.8085 28.7967 21.8203V20.8847C28.7967 19.8966 28.9264 19.0042 29.1858 18.2075C29.4513 17.4046 29.8281 16.7222 30.3159 16.1602C30.81 15.5982 31.3998 15.1659 32.0853 14.8632C32.7709 14.5606 33.5367 14.4093 34.3828 14.4093C35.5068 14.4093 36.4548 14.6131 37.2267 15.0207C38.0049 15.4283 38.607 15.9903 39.0332 16.7067C39.4655 17.4231 39.7249 18.2383 39.8113 19.1524H37.0322C37.0013 18.6089 36.8932 18.1488 36.708 17.7721C36.5227 17.3892 36.2417 17.102 35.865 16.9105C35.4944 16.7129 35.0003 16.6141 34.3828 16.6141C33.9196 16.6141 33.515 16.7006 33.1692 16.8735C32.8233 17.0464 32.5331 17.3089 32.2984 17.6609C32.0637 18.0129 31.8877 18.4576 31.7704 18.9949C31.6592 19.526 31.6036 20.1498 31.6036 20.8662V21.8203C31.6036 22.5182 31.6561 23.1327 31.7611 23.6638C31.8661 24.1888 32.0267 24.6335 32.2428 24.9978C32.4651 25.356 32.7492 25.6278 33.0951 25.813C33.4471 25.9921 33.8702 26.0817 34.3642 26.0817C34.9448 26.0817 35.4234 25.9891 35.8001 25.8038C36.1768 25.6185 36.464 25.3437 36.6616 24.9793C36.8654 24.6149 36.9859 24.161 37.0229 23.6175ZM44.8257 14.6039L47.6419 20.755L50.4581 14.6039H53.4873L49.05 23.1821V28.0919H46.2338V23.1821L41.7872 14.6039H44.8257ZM61.3549 22.1724H57.8903L57.8718 20.264H60.7806C61.2932 20.264 61.7131 20.1992 62.0405 20.0695C62.3678 19.9336 62.6117 19.7391 62.7723 19.4859C62.9391 19.2265 63.0224 18.9115 63.0224 18.541C63.0224 18.121 62.9421 17.7813 62.7816 17.5219C62.6272 17.2626 62.3832 17.0742 62.0497 16.9569C61.7224 16.8395 61.2994 16.7808 60.7806 16.7808H58.8537V28.0919H56.0746V14.6039H60.7806C61.5649 14.6039 62.2659 14.678 62.8835 14.8262C63.5072 14.9744 64.0353 15.1998 64.4676 15.5024C64.8999 15.8051 65.2303 16.188 65.4588 16.6511C65.6873 17.1082 65.8016 17.6516 65.8016 18.2816C65.8016 18.8374 65.675 19.35 65.4218 19.8194C65.1747 20.2887 64.7826 20.6716 64.2453 20.9681C63.7141 21.2645 63.0193 21.4282 62.1609 21.4591L61.3549 22.1724ZM61.2345 28.0919H57.1307L58.2145 25.9242H61.2345C61.7224 25.9242 62.1208 25.847 62.4295 25.6926C62.7383 25.532 62.9668 25.3159 63.1151 25.0441C63.2633 24.7724 63.3374 24.4605 63.3374 24.1085C63.3374 23.7132 63.2695 23.3705 63.1336 23.0802C63.0039 22.79 62.7939 22.5676 62.5037 22.4132C62.2134 22.2527 61.8305 22.1724 61.3549 22.1724H58.6777L58.6962 20.264H62.0312L62.6704 21.0144C63.4918 21.002 64.1526 21.1472 64.6529 21.4498C65.1593 21.7462 65.5267 22.1322 65.7552 22.6078C65.9899 23.0833 66.1073 23.5928 66.1073 24.1363C66.1073 25.0009 65.9189 25.7297 65.5422 26.3225C65.1655 26.9093 64.6127 27.3508 63.884 27.6473C63.1614 27.9437 62.2782 28.0919 61.2345 28.0919ZM78.5975 25.9242V28.0919H71.4181V25.9242H78.5975ZM72.3259 14.6039V28.0919H69.5468V14.6039H72.3259ZM77.6619 20.0973V22.2094H71.4181V20.0973H77.6619ZM78.5883 14.6039V16.7808H71.4181V14.6039H78.5883ZM81.5738 14.6039H86.6041C87.6354 14.6039 88.5217 14.7582 89.2628 15.067C90.0101 15.3758 90.5844 15.8328 90.9859 16.4381C91.3873 17.0433 91.588 17.7875 91.588 18.6707C91.588 19.3932 91.4645 20.0139 91.2174 20.5327C90.9766 21.0453 90.6338 21.4745 90.1892 21.8203C89.7507 22.16 89.235 22.4318 88.6421 22.6356L87.7621 23.0987H83.3895L83.371 20.931H86.6226C87.1105 20.931 87.515 20.8446 87.8362 20.6716C88.1573 20.4987 88.3982 20.2579 88.5587 19.9491C88.7255 19.6403 88.8089 19.2821 88.8089 18.8745C88.8089 18.4421 88.7286 18.0685 88.568 17.7535C88.4074 17.4386 88.1635 17.1977 87.8362 17.031C87.5088 16.8642 87.0981 16.7808 86.6041 16.7808H84.353V28.0919H81.5738V14.6039ZM89.1146 28.0919L86.039 22.0797L88.9756 22.0612L92.0882 27.9622V28.0919H89.1146ZM108.185 24.5624C108.185 24.3216 108.148 24.1054 108.074 23.914C108.006 23.7163 107.876 23.5372 107.684 23.3767C107.493 23.2099 107.224 23.0463 106.879 22.8857C106.533 22.7251 106.085 22.5584 105.535 22.3854C104.924 22.1878 104.343 21.9655 103.794 21.7184C103.25 21.4714 102.769 21.1842 102.349 20.8569C101.935 20.5234 101.607 20.1374 101.367 19.6989C101.132 19.2605 101.015 18.7509 101.015 18.1704C101.015 17.6084 101.138 17.0989 101.385 16.6419C101.632 16.1787 101.978 15.7834 102.423 15.4561C102.867 15.1226 103.392 14.8663 103.998 14.6872C104.609 14.5081 105.279 14.4186 106.008 14.4186C107.002 14.4186 107.87 14.5977 108.611 14.9559C109.352 15.3141 109.926 15.8051 110.334 16.4288C110.748 17.0526 110.955 17.7659 110.955 18.5688H108.194C108.194 18.1735 108.111 17.8277 107.944 17.5312C107.783 17.2286 107.536 16.9908 107.203 16.8179C106.875 16.645 106.462 16.5585 105.961 16.5585C105.48 16.5585 105.078 16.6326 104.757 16.7808C104.436 16.9229 104.195 17.1174 104.035 17.3645C103.874 17.6053 103.794 17.8771 103.794 18.1797C103.794 18.4082 103.849 18.6151 103.96 18.8003C104.078 18.9856 104.251 19.1585 104.479 19.3191C104.708 19.4797 104.989 19.631 105.322 19.773C105.656 19.9151 106.042 20.054 106.48 20.1899C107.215 20.4122 107.861 20.6624 108.416 20.9403C108.978 21.2182 109.448 21.5301 109.824 21.8759C110.201 22.2218 110.485 22.6139 110.677 23.0524C110.868 23.4909 110.964 23.9881 110.964 24.5439C110.964 25.1306 110.85 25.6556 110.621 26.1187C110.393 26.5819 110.062 26.9741 109.63 27.2952C109.198 27.6164 108.682 27.8603 108.083 28.0271C107.484 28.1938 106.814 28.2772 106.073 28.2772C105.406 28.2772 104.748 28.1907 104.099 28.0178C103.451 27.8387 102.861 27.5701 102.33 27.2119C101.805 26.8537 101.385 26.3967 101.07 25.8408C100.755 25.285 100.598 24.6273 100.598 23.8676H103.386C103.386 24.2876 103.451 24.6427 103.581 24.933C103.71 25.2232 103.893 25.4579 104.127 25.637C104.368 25.8161 104.652 25.9458 104.979 26.0261C105.313 26.1064 105.677 26.1465 106.073 26.1465C106.554 26.1465 106.95 26.0786 107.258 25.9427C107.573 25.8069 107.805 25.6185 107.953 25.3776C108.108 25.1368 108.185 24.865 108.185 24.5624ZM123.26 25.9242V28.0919H116.08V25.9242H123.26ZM116.988 14.6039V28.0919H114.209V14.6039H116.988ZM122.324 20.0973V22.2094H116.08V20.0973H122.324ZM123.25 14.6039V16.7808H116.08V14.6039H123.25ZM134.055 23.6175H136.824C136.769 24.5254 136.519 25.3313 136.074 26.0354C135.636 26.7394 135.021 27.2891 134.231 27.6843C133.446 28.0796 132.501 28.2772 131.396 28.2772C130.531 28.2772 129.756 28.129 129.071 27.8325C128.385 27.5299 127.798 27.0976 127.311 26.5356C126.829 25.9736 126.461 25.2943 126.208 24.4976C125.955 23.7009 125.828 22.8085 125.828 21.8203V20.8847C125.828 19.8966 125.958 19.0042 126.217 18.2075C126.483 17.4046 126.86 16.7222 127.348 16.1602C127.842 15.5982 128.431 15.1659 129.117 14.8632C129.802 14.5606 130.568 14.4093 131.414 14.4093C132.538 14.4093 133.486 14.6131 134.258 15.0207C135.037 15.4283 135.639 15.9903 136.065 16.7067C136.497 17.4231 136.756 18.2383 136.843 19.1524H134.064C134.033 18.6089 133.925 18.1488 133.74 17.7721C133.554 17.3892 133.273 17.102 132.897 16.9105C132.526 16.7129 132.032 16.6141 131.414 16.6141C130.951 16.6141 130.547 16.7006 130.201 16.8735C129.855 17.0464 129.565 17.3089 129.33 17.6609C129.095 18.0129 128.919 18.4576 128.802 18.9949C128.691 19.526 128.635 20.1498 128.635 20.8662V21.8203C128.635 22.5182 128.688 23.1327 128.793 23.6638C128.898 24.1888 129.058 24.6335 129.274 24.9978C129.497 25.356 129.781 25.6278 130.127 25.813C130.479 25.9921 130.902 26.0817 131.396 26.0817C131.976 26.0817 132.455 25.9891 132.832 25.8038C133.208 25.6185 133.496 25.3437 133.693 24.9793C133.897 24.6149 134.017 24.161 134.055 23.6175ZM147.453 14.6039H150.223V23.5156C150.223 24.5532 150 25.427 149.556 26.1373C149.117 26.8475 148.509 27.3817 147.731 27.7399C146.959 28.0981 146.069 28.2772 145.063 28.2772C144.056 28.2772 143.16 28.0981 142.376 27.7399C141.598 27.3817 140.987 26.8475 140.542 26.1373C140.103 25.427 139.884 24.5532 139.884 23.5156V14.6039H142.663V23.5156C142.663 24.1209 142.759 24.6149 142.95 24.9978C143.142 25.3807 143.417 25.6617 143.775 25.8408C144.139 26.0199 144.569 26.1095 145.063 26.1095C145.569 26.1095 145.998 26.0199 146.35 25.8408C146.708 25.6617 146.98 25.3807 147.165 24.9978C147.357 24.6149 147.453 24.1209 147.453 23.5156V14.6039ZM153.866 14.6039H158.896C159.927 14.6039 160.814 14.7582 161.555 15.067C162.302 15.3758 162.876 15.8328 163.278 16.4381C163.679 17.0433 163.88 17.7875 163.88 18.6707C163.88 19.3932 163.756 20.0139 163.509 20.5327C163.269 21.0453 162.926 21.4745 162.481 21.8203C162.043 22.16 161.527 22.4318 160.934 22.6356L160.054 23.0987H155.682L155.663 20.931H158.915C159.402 20.931 159.807 20.8446 160.128 20.6716C160.449 20.4987 160.69 20.2579 160.851 19.9491C161.017 19.6403 161.101 19.2821 161.101 18.8745C161.101 18.4421 161.021 18.0685 160.86 17.7535C160.699 17.4386 160.455 17.1977 160.128 17.031C159.801 16.8642 159.39 16.7808 158.896 16.7808H156.645V28.0919H153.866V14.6039ZM161.407 28.0919L158.331 22.0797L161.268 22.0612L164.38 27.9622V28.0919H161.407ZM170.33 14.6039V28.0919H167.56V14.6039H170.33ZM180.041 14.6039V28.0919H177.271V14.6039H180.041ZM184.192 14.6039V16.7808H173.186V14.6039H184.192ZM189.132 14.6039L191.948 20.755L194.764 14.6039H197.793L193.356 23.1821V28.0919H190.54V23.1821L186.093 14.6039H189.132Z" fill="#F38313"/>
</svg>
