<svg width="60" height="60" viewBox="0 0 60 60" fill="none" xmlns="http://www.w3.org/2000/svg">
<rect x="0.128418" y="0.128418" width="59.1283" height="59.1283" rx="9.71972" fill="#2563AC"/>
<path d="M26.2148 45.7786C27.1263 45.5385 27.6706 44.6049 27.4305 43.6934C27.1904 42.7819 26.2568 42.2375 25.3453 42.4776C24.4338 42.7177 23.8895 43.6513 24.1295 44.5628C24.3696 45.4744 25.3032 46.0187 26.2148 45.7786Z" stroke="white" stroke-miterlimit="10" stroke-linecap="round" stroke-linejoin="round"/>
<path d="M35.4837 44.5627C35.7238 43.6512 35.1795 42.7176 34.268 42.4775C33.3564 42.2374 32.4229 42.7817 32.1828 43.6933C31.9427 44.6048 32.487 45.5384 33.3985 45.7785C34.3101 46.0186 35.2436 45.4743 35.4837 44.5627Z" stroke="white" stroke-miterlimit="10" stroke-linecap="round" stroke-linejoin="round"/>
<path d="M33.834 42.3823V40.3657" stroke="white" stroke-miterlimit="10" stroke-linecap="round" stroke-linejoin="round"/>
<path d="M25.7808 32.4773V42.3821" stroke="white" stroke-miterlimit="10" stroke-linecap="round" stroke-linejoin="round"/>
<path d="M33.834 34.6325V32.4773" stroke="white" stroke-miterlimit="10" stroke-linecap="round" stroke-linejoin="round"/>
<path d="M18.9738 32.4776C16.1051 32.4776 13.7798 30.1523 13.7798 27.2829C13.7798 24.4143 16.1051 22.089 18.9738 22.089C19.1477 22.089 19.3191 22.0987 19.4878 22.1157C19.9941 17.4286 23.9612 13.78 28.7812 13.78C32.4389 13.78 35.6046 15.8825 37.1403 18.9421C37.7156 18.787 38.3222 18.7017 38.947 18.7017C42.6594 18.7017 45.8349 21.8863 45.8349 25.5903C45.8349 29.3255 42.6841 32.4776 38.947 32.4776H18.9738Z" stroke="white" stroke-miterlimit="10" stroke-linecap="round" stroke-linejoin="round"/>
<path d="M31.8695 27.803H27.7457C27.1008 27.803 26.5781 27.2802 26.5781 26.6354V22.5116C26.5781 21.8667 27.1009 21.344 27.7457 21.344H31.8695C32.5144 21.344 33.0371 21.8668 33.0371 22.5116V26.6354C33.0371 27.2803 32.5144 27.803 31.8695 27.803Z" stroke="white" stroke-miterlimit="10" stroke-linecap="round" stroke-linejoin="round"/>
<path d="M28.5396 21.3439V19.8967" stroke="white" stroke-miterlimit="10" stroke-linecap="round" stroke-linejoin="round"/>
<path d="M31.0757 21.3439V19.8967" stroke="white" stroke-miterlimit="10" stroke-linecap="round" stroke-linejoin="round"/>
<path d="M28.5396 29.2631V27.8159" stroke="white" stroke-miterlimit="10" stroke-linecap="round" stroke-linejoin="round"/>
<path d="M31.0757 29.2631V27.8159" stroke="white" stroke-miterlimit="10" stroke-linecap="round" stroke-linejoin="round"/>
<path d="M33.0435 23.3118H34.4906" stroke="white" stroke-miterlimit="10" stroke-linecap="round" stroke-linejoin="round"/>
<path d="M33.0435 25.8479H34.4906" stroke="white" stroke-miterlimit="10" stroke-linecap="round" stroke-linejoin="round"/>
<path d="M25.1245 23.3118H26.5717" stroke="white" stroke-miterlimit="10" stroke-linecap="round" stroke-linejoin="round"/>
<path d="M25.1245 25.8479H26.5717" stroke="white" stroke-miterlimit="10" stroke-linecap="round" stroke-linejoin="round"/>
<path d="M16.0048 45.7786C16.9163 45.5385 17.4606 44.6049 17.2205 43.6934C16.9805 42.7819 16.0469 42.2375 15.1353 42.4776C14.2238 42.7177 13.6795 43.6513 13.9196 44.5628C14.1597 45.4744 15.0933 46.0187 16.0048 45.7786Z" stroke="white" stroke-miterlimit="10" stroke-linecap="round" stroke-linejoin="round"/>
<path d="M20.0652 32.4775V36.472C20.0652 37.1467 19.5182 37.6937 18.8435 37.6937H16.7925C16.1178 37.6937 15.5708 38.2408 15.5708 38.9155V42.3824" stroke="white" stroke-miterlimit="10" stroke-linecap="round" stroke-linejoin="round"/>
<path d="M45.6937 44.563C45.9338 43.6514 45.3895 42.7178 44.4779 42.4778C43.5664 42.2377 42.6328 42.782 42.3927 43.6935C42.1526 44.605 42.697 45.5386 43.6085 45.7787C44.52 46.0188 45.4536 45.4745 45.6937 44.563Z" stroke="white" stroke-miterlimit="10" stroke-linecap="round" stroke-linejoin="round"/>
<path d="M39.5498 32.4775V36.472C39.5498 37.1467 40.0968 37.6937 40.7715 37.6937H42.8224C43.4971 37.6937 44.0442 38.2408 44.0442 38.9155V42.3824" stroke="white" stroke-miterlimit="10" stroke-linecap="round" stroke-linejoin="round"/>
</svg>
