<svg width="191" height="49" viewBox="0 0 191 49" fill="none" xmlns="http://www.w3.org/2000/svg">
<rect x="20" y="12" width="158" height="32" rx="16" fill="#DCECFF"/>
<path d="M45.9443 33H43.7773L43.791 31.4004H45.9443C46.4821 31.4004 46.9355 31.2796 47.3047 31.0381C47.6738 30.792 47.9518 30.4342 48.1387 29.9648C48.3301 29.4954 48.4258 28.9281 48.4258 28.2627V27.7773C48.4258 27.2669 48.3711 26.818 48.2617 26.4307C48.1569 26.0433 47.9997 25.7174 47.79 25.4531C47.5804 25.1888 47.3229 24.9906 47.0176 24.8584C46.7122 24.7217 46.3613 24.6533 45.9648 24.6533H43.7363V23.0469H45.9648C46.6302 23.0469 47.2386 23.1608 47.79 23.3887C48.346 23.612 48.8268 23.9333 49.2324 24.3525C49.638 24.7718 49.9502 25.2731 50.1689 25.8564C50.3923 26.4352 50.5039 27.0801 50.5039 27.791V28.2627C50.5039 28.9691 50.3923 29.6139 50.1689 30.1973C49.9502 30.7806 49.638 31.2819 49.2324 31.7012C48.8314 32.1159 48.3506 32.4372 47.79 32.665C47.234 32.8883 46.6188 33 45.9443 33ZM44.9395 23.0469V33H42.8887V23.0469H44.9395ZM56.8906 24.749L54.1836 33H52.0029L55.7012 23.0469H57.0889L56.8906 24.749ZM59.1396 33L56.4258 24.749L56.207 23.0469H57.6084L61.3271 33H59.1396ZM59.0166 29.2949V30.9014H53.7598V29.2949H59.0166ZM66.8525 23.0469V33H64.8086V23.0469H66.8525ZM69.915 23.0469V24.6533H61.7939V23.0469H69.915ZM75.3926 24.749L72.6855 33H70.5049L74.2031 23.0469H75.5908L75.3926 24.749ZM77.6416 33L74.9277 24.749L74.709 23.0469H76.1104L79.8291 33H77.6416ZM77.5186 29.2949V30.9014H72.2617V29.2949H77.5186ZM91.4199 30.3955C91.4199 30.2178 91.3926 30.0583 91.3379 29.917C91.2878 29.7712 91.1921 29.639 91.0508 29.5205C90.9095 29.3975 90.7113 29.2767 90.4561 29.1582C90.2008 29.0397 89.8704 28.9167 89.4648 28.7891C89.0137 28.6432 88.5853 28.4792 88.1797 28.2969C87.7786 28.1146 87.4232 27.9027 87.1133 27.6611C86.8079 27.415 86.5664 27.1302 86.3887 26.8066C86.2155 26.4831 86.1289 26.1071 86.1289 25.6787C86.1289 25.264 86.2201 24.888 86.4023 24.5508C86.5846 24.209 86.8398 23.9173 87.168 23.6758C87.4961 23.4297 87.8835 23.2406 88.3301 23.1084C88.7812 22.9762 89.2757 22.9102 89.8135 22.9102C90.5472 22.9102 91.1875 23.0423 91.7344 23.3066C92.2812 23.571 92.7051 23.9333 93.0059 24.3936C93.3112 24.8538 93.4639 25.3802 93.4639 25.9727H91.4268C91.4268 25.681 91.3652 25.4258 91.2422 25.207C91.1237 24.9837 90.9414 24.8083 90.6953 24.6807C90.4538 24.5531 90.1484 24.4893 89.7793 24.4893C89.4238 24.4893 89.1276 24.5439 88.8906 24.6533C88.6536 24.7581 88.4759 24.9017 88.3574 25.084C88.2389 25.2617 88.1797 25.4622 88.1797 25.6855C88.1797 25.8542 88.2207 26.0068 88.3027 26.1436C88.3893 26.2803 88.5169 26.4079 88.6855 26.5264C88.8542 26.6449 89.0615 26.7565 89.3076 26.8613C89.5537 26.9661 89.8385 27.0687 90.1621 27.1689C90.7044 27.333 91.1807 27.5176 91.5908 27.7227C92.0055 27.9277 92.3519 28.1579 92.6299 28.4131C92.9079 28.6683 93.1175 28.9577 93.2588 29.2812C93.4001 29.6048 93.4707 29.9717 93.4707 30.3818C93.4707 30.8148 93.3864 31.2021 93.2178 31.5439C93.0492 31.8857 92.8053 32.1751 92.4863 32.4121C92.1673 32.6491 91.7868 32.8291 91.3447 32.9521C90.9027 33.0752 90.4082 33.1367 89.8613 33.1367C89.3691 33.1367 88.8838 33.0729 88.4053 32.9453C87.9268 32.8132 87.4915 32.6149 87.0996 32.3506C86.7122 32.0863 86.4023 31.749 86.1699 31.3389C85.9375 30.9287 85.8213 30.4434 85.8213 29.8828H87.8789C87.8789 30.1927 87.9268 30.4548 88.0225 30.6689C88.1182 30.8831 88.2526 31.0563 88.4258 31.1885C88.6035 31.3206 88.8132 31.4163 89.0547 31.4756C89.3008 31.5348 89.5697 31.5645 89.8613 31.5645C90.2168 31.5645 90.5085 31.5143 90.7363 31.4141C90.9688 31.3138 91.1396 31.1748 91.249 30.9971C91.363 30.8193 91.4199 30.6188 91.4199 30.3955ZM102.544 31.4004V33H97.2461V31.4004H102.544ZM97.916 23.0469V33H95.8652V23.0469H97.916ZM101.854 27.1006V28.6592H97.2461V27.1006H101.854ZM102.537 23.0469V24.6533H97.2461V23.0469H102.537ZM104.74 23.0469H108.452C109.213 23.0469 109.867 23.1608 110.414 23.3887C110.965 23.6165 111.389 23.9538 111.686 24.4004C111.982 24.847 112.13 25.3962 112.13 26.0479C112.13 26.5811 112.039 27.0391 111.856 27.4219C111.679 27.8001 111.426 28.1169 111.098 28.3721C110.774 28.6227 110.394 28.8232 109.956 28.9736L109.307 29.3154H106.08L106.066 27.7158H108.466C108.826 27.7158 109.124 27.652 109.361 27.5244C109.598 27.3968 109.776 27.2191 109.895 26.9912C110.018 26.7633 110.079 26.499 110.079 26.1982C110.079 25.8792 110.02 25.6035 109.901 25.3711C109.783 25.1387 109.603 24.9609 109.361 24.8379C109.12 24.7148 108.817 24.6533 108.452 24.6533H106.791V33H104.74V23.0469ZM110.305 33L108.035 28.5635L110.202 28.5498L112.499 32.9043V33H110.305ZM118.161 30.9219L120.506 23.0469H122.789L119.323 33H117.819L118.161 30.9219ZM116.001 23.0469L118.339 30.9219L118.694 33H117.177L113.731 23.0469H116.001ZM126.899 23.0469V33H124.855V23.0469H126.899ZM135.59 29.6982H137.634C137.593 30.3682 137.408 30.9629 137.08 31.4824C136.757 32.002 136.303 32.4076 135.72 32.6992C135.141 32.9909 134.444 33.1367 133.628 33.1367C132.99 33.1367 132.418 33.0273 131.912 32.8086C131.406 32.5853 130.973 32.2663 130.613 31.8516C130.258 31.4368 129.987 30.9355 129.8 30.3477C129.613 29.7598 129.52 29.1012 129.52 28.3721V27.6816C129.52 26.9525 129.615 26.2939 129.807 25.7061C130.003 25.1136 130.281 24.61 130.641 24.1953C131.005 23.7806 131.44 23.4616 131.946 23.2383C132.452 23.015 133.017 22.9033 133.642 22.9033C134.471 22.9033 135.171 23.0537 135.74 23.3545C136.314 23.6553 136.759 24.07 137.073 24.5986C137.392 25.1273 137.584 25.7288 137.647 26.4033H135.597C135.574 26.0023 135.494 25.6628 135.357 25.3848C135.221 25.1022 135.013 24.8903 134.735 24.749C134.462 24.6032 134.097 24.5303 133.642 24.5303C133.3 24.5303 133.001 24.5941 132.746 24.7217C132.491 24.8493 132.277 25.043 132.104 25.3027C131.93 25.5625 131.8 25.8906 131.714 26.2871C131.632 26.679 131.591 27.1393 131.591 27.668V28.3721C131.591 28.887 131.63 29.3405 131.707 29.7324C131.785 30.1198 131.903 30.4479 132.062 30.7168C132.227 30.9811 132.436 31.1816 132.691 31.3184C132.951 31.4505 133.263 31.5166 133.628 31.5166C134.056 31.5166 134.41 31.4482 134.688 31.3115C134.965 31.1748 135.177 30.972 135.323 30.7031C135.474 30.4342 135.562 30.0993 135.59 29.6982ZM146.659 31.4004V33H141.361V31.4004H146.659ZM142.031 23.0469V33H139.98V23.0469H142.031ZM145.969 27.1006V28.6592H141.361V27.1006H145.969ZM146.652 23.0469V24.6533H141.361V23.0469H146.652ZM154.037 30.3955C154.037 30.2178 154.01 30.0583 153.955 29.917C153.905 29.7712 153.809 29.639 153.668 29.5205C153.527 29.3975 153.328 29.2767 153.073 29.1582C152.818 29.0397 152.488 28.9167 152.082 28.7891C151.631 28.6432 151.202 28.4792 150.797 28.2969C150.396 28.1146 150.04 27.9027 149.73 27.6611C149.425 27.415 149.184 27.1302 149.006 26.8066C148.833 26.4831 148.746 26.1071 148.746 25.6787C148.746 25.264 148.837 24.888 149.02 24.5508C149.202 24.209 149.457 23.9173 149.785 23.6758C150.113 23.4297 150.501 23.2406 150.947 23.1084C151.398 22.9762 151.893 22.9102 152.431 22.9102C153.164 22.9102 153.805 23.0423 154.352 23.3066C154.898 23.571 155.322 23.9333 155.623 24.3936C155.928 24.8538 156.081 25.3802 156.081 25.9727H154.044C154.044 25.681 153.982 25.4258 153.859 25.207C153.741 24.9837 153.559 24.8083 153.312 24.6807C153.071 24.5531 152.766 24.4893 152.396 24.4893C152.041 24.4893 151.745 24.5439 151.508 24.6533C151.271 24.7581 151.093 24.9017 150.975 25.084C150.856 25.2617 150.797 25.4622 150.797 25.6855C150.797 25.8542 150.838 26.0068 150.92 26.1436C151.007 26.2803 151.134 26.4079 151.303 26.5264C151.471 26.6449 151.679 26.7565 151.925 26.8613C152.171 26.9661 152.456 27.0687 152.779 27.1689C153.322 27.333 153.798 27.5176 154.208 27.7227C154.623 27.9277 154.969 28.1579 155.247 28.4131C155.525 28.6683 155.735 28.9577 155.876 29.2812C156.017 29.6048 156.088 29.9717 156.088 30.3818C156.088 30.8148 156.004 31.2021 155.835 31.5439C155.666 31.8857 155.423 32.1751 155.104 32.4121C154.785 32.6491 154.404 32.8291 153.962 32.9521C153.52 33.0752 153.025 33.1367 152.479 33.1367C151.986 33.1367 151.501 33.0729 151.022 32.9453C150.544 32.8132 150.109 32.6149 149.717 32.3506C149.329 32.0863 149.02 31.749 148.787 31.3389C148.555 30.9287 148.438 30.4434 148.438 29.8828H150.496C150.496 30.1927 150.544 30.4548 150.64 30.6689C150.735 30.8831 150.87 31.0563 151.043 31.1885C151.221 31.3206 151.43 31.4163 151.672 31.4756C151.918 31.5348 152.187 31.5645 152.479 31.5645C152.834 31.5645 153.126 31.5143 153.354 31.4141C153.586 31.3138 153.757 31.1748 153.866 30.9971C153.98 30.8193 154.037 30.6188 154.037 30.3955Z" fill="#2563AC"/>
<path d="M175 10C176.167 9 178.5 5.8 178.5 1M178.5 13C180.5 11.3333 184.5 7.5 184.5 5.5M182.5 17C185 15.3333 190 11.6 190 10" stroke="black" stroke-linecap="round"/>
<path d="M17.2791 40.1094C15.8228 40.5996 12.4606 42.6925 10.6626 47.143M15.1578 36.0168C12.6791 36.8129 7.53434 38.8687 6.78514 40.7231M12.9474 30.8096C10.0051 31.4184 3.97067 33.0069 3.37131 34.4904" stroke="black" stroke-linecap="round"/>
</svg>
