<svg width="188" height="43" viewBox="0 0 188 43" fill="none" xmlns="http://www.w3.org/2000/svg">
<rect y="0.871948" width="187.603" height="41.6146" rx="20.8073" fill="#DCECFF"/>
<path d="M21.0371 27.7802H18.251L18.2686 25.7235H21.0371C21.7285 25.7235 22.3115 25.5682 22.7861 25.2577C23.2607 24.9413 23.6182 24.4813 23.8584 23.8778C24.1045 23.2743 24.2275 22.5448 24.2275 21.6893V21.0653C24.2275 20.4091 24.1572 19.8319 24.0166 19.3339C23.8818 18.8358 23.6797 18.4169 23.4102 18.077C23.1406 17.7372 22.8096 17.4823 22.417 17.3124C22.0244 17.1366 21.5732 17.0487 21.0635 17.0487H18.1982V14.9833H21.0635C21.9189 14.9833 22.7012 15.1298 23.4102 15.4227C24.125 15.7098 24.7432 16.1229 25.2646 16.662C25.7861 17.201 26.1875 17.8456 26.4688 18.5956C26.7559 19.3397 26.8994 20.1688 26.8994 21.0829V21.6893C26.8994 22.5975 26.7559 23.4266 26.4688 24.1766C26.1875 24.9266 25.7861 25.5712 25.2646 26.1102C24.749 26.6434 24.1309 27.0565 23.4102 27.3495C22.6953 27.6366 21.9043 27.7802 21.0371 27.7802ZM19.7451 14.9833V27.7802H17.1084V14.9833H19.7451ZM35.1848 17.1718L31.7044 27.7802H28.9007L33.6555 14.9833H35.4397L35.1848 17.1718ZM38.0764 27.7802L34.5872 17.1718L34.3059 14.9833H36.1077L40.8889 27.7802H38.0764ZM37.9182 23.0165V25.0819H31.1595V23.0165H37.9182ZM48.067 14.9833V27.7802H45.439V14.9833H48.067ZM52.0045 14.9833V17.0487H41.563V14.9833H52.0045ZM59.1209 17.1718L55.6405 27.7802H52.8368L57.5916 14.9833H59.3758L59.1209 17.1718ZM62.0125 27.7802L58.5233 17.1718L58.242 14.9833H60.0438L64.825 27.7802H62.0125ZM61.8543 23.0165V25.0819H55.0955V23.0165H61.8543ZM79.8754 24.4315C79.8754 24.203 79.8402 23.9979 79.7699 23.8163C79.7055 23.6288 79.5824 23.4589 79.4008 23.3065C79.2191 23.1483 78.9643 22.993 78.6361 22.8407C78.308 22.6884 77.8832 22.5302 77.3617 22.3661C76.7816 22.1786 76.2309 21.9677 75.7094 21.7333C75.1938 21.4989 74.7367 21.2264 74.3383 20.9159C73.9457 20.5995 73.6352 20.2333 73.4066 19.8173C73.184 19.4012 73.0727 18.9178 73.0727 18.3671C73.0727 17.8339 73.1898 17.3505 73.4242 16.9169C73.6586 16.4774 73.9867 16.1024 74.4086 15.7919C74.8305 15.4755 75.3285 15.2323 75.9027 15.0624C76.4828 14.8925 77.1186 14.8075 77.81 14.8075C78.7533 14.8075 79.5766 14.9774 80.2797 15.3173C80.9828 15.6571 81.5277 16.1229 81.9145 16.7147C82.307 17.3065 82.5033 17.9833 82.5033 18.745H79.8842C79.8842 18.37 79.8051 18.0419 79.6469 17.7606C79.4945 17.4735 79.2602 17.2479 78.9438 17.0839C78.6332 16.9198 78.2406 16.8378 77.766 16.8378C77.309 16.8378 76.9281 16.9081 76.6234 17.0487C76.3188 17.1835 76.0902 17.368 75.9379 17.6024C75.7855 17.8309 75.7094 18.0887 75.7094 18.3759C75.7094 18.5927 75.7621 18.7889 75.8676 18.9647C75.9789 19.1405 76.143 19.3046 76.3598 19.4569C76.5766 19.6093 76.8432 19.7528 77.1596 19.8876C77.476 20.0223 77.8422 20.1542 78.2582 20.2831C78.9555 20.494 79.5678 20.7313 80.0951 20.995C80.6283 21.2587 81.0736 21.5546 81.4311 21.8827C81.7885 22.2108 82.058 22.5829 82.2397 22.9989C82.4213 23.4149 82.5121 23.8866 82.5121 24.4139C82.5121 24.9706 82.4037 25.4686 82.1869 25.9081C81.9701 26.3475 81.6566 26.7196 81.2465 27.0243C80.8363 27.329 80.3471 27.5604 79.7787 27.7186C79.2104 27.8768 78.5746 27.9559 77.8715 27.9559C77.2387 27.9559 76.6147 27.8739 75.9994 27.7098C75.3842 27.5399 74.8246 27.285 74.3207 26.9452C73.8227 26.6053 73.4242 26.1718 73.1254 25.6444C72.8266 25.1171 72.6772 24.493 72.6772 23.7723H75.3227C75.3227 24.1708 75.3842 24.5077 75.5072 24.7831C75.6303 25.0585 75.8031 25.2811 76.0258 25.451C76.2543 25.621 76.5238 25.744 76.8344 25.8202C77.1508 25.8964 77.4965 25.9344 77.8715 25.9344C78.3285 25.9344 78.7035 25.87 78.9965 25.7411C79.2953 25.6122 79.515 25.4335 79.6557 25.205C79.8022 24.9764 79.8754 24.7186 79.8754 24.4315ZM94.2516 25.7235V27.7802H87.4401V25.7235H94.2516ZM88.3014 14.9833V27.7802H85.6647V14.9833H88.3014ZM93.3639 20.1952V22.1991H87.4401V20.1952H93.3639ZM94.2429 14.9833V17.0487H87.4401V14.9833H94.2429ZM97.1494 14.9833H101.922C102.9 14.9833 103.741 15.1298 104.444 15.4227C105.153 15.7157 105.698 16.1493 106.079 16.7235C106.46 17.2977 106.65 18.0038 106.65 18.8417C106.65 19.5272 106.533 20.1161 106.299 20.6083C106.07 21.0946 105.745 21.5018 105.323 21.83C104.907 22.1522 104.418 22.41 103.855 22.6034L103.02 23.0428H98.872L98.8545 20.9862H101.939C102.402 20.9862 102.786 20.9042 103.091 20.7401C103.395 20.576 103.624 20.3475 103.776 20.0546C103.935 19.7616 104.014 19.4218 104.014 19.035C104.014 18.6249 103.937 18.2704 103.785 17.9716C103.633 17.6727 103.401 17.4442 103.091 17.286C102.78 17.1278 102.391 17.0487 101.922 17.0487H99.7861V27.7802H97.1494V14.9833ZM104.304 27.7802L101.386 22.076L104.172 22.0585L107.125 27.6571V27.7802H104.304ZM114.479 25.1083L117.493 14.9833H120.429L115.973 27.7802H114.039L114.479 25.1083ZM111.701 14.9833L114.707 25.1083L115.164 27.7802H113.213L108.783 14.9833H111.701ZM125.788 14.9833V27.7802H123.16V14.9833H125.788ZM137.035 23.535H139.663C139.61 24.3964 139.373 25.161 138.951 25.829C138.535 26.4969 137.952 27.0184 137.202 27.3934C136.458 27.7684 135.561 27.9559 134.513 27.9559C133.692 27.9559 132.957 27.8153 132.306 27.5341C131.656 27.2469 131.099 26.8368 130.637 26.3036C130.179 25.7704 129.831 25.1259 129.591 24.37C129.35 23.6141 129.23 22.7675 129.23 21.83V20.9423C129.23 20.0048 129.353 19.1581 129.599 18.4022C129.851 17.6405 130.209 16.993 130.672 16.4598C131.14 15.9266 131.7 15.5165 132.35 15.2294C133.001 14.9423 133.727 14.7987 134.53 14.7987C135.596 14.7987 136.496 14.9921 137.228 15.3788C137.967 15.7655 138.538 16.2987 138.942 16.9784C139.352 17.6581 139.598 18.4315 139.68 19.2987H137.044C137.014 18.7831 136.912 18.3466 136.736 17.9891C136.56 17.6259 136.294 17.3534 135.936 17.1718C135.585 16.9843 135.116 16.8905 134.53 16.8905C134.091 16.8905 133.707 16.9725 133.379 17.1366C133.051 17.3007 132.775 17.5497 132.553 17.8837C132.33 18.2177 132.163 18.6395 132.052 19.1493C131.946 19.6532 131.893 20.245 131.893 20.9247V21.83C131.893 22.4921 131.943 23.0751 132.043 23.579C132.142 24.077 132.295 24.4989 132.5 24.8446C132.711 25.1844 132.98 25.4423 133.308 25.618C133.642 25.788 134.044 25.8729 134.513 25.8729C135.063 25.8729 135.517 25.785 135.875 25.6093C136.232 25.4335 136.505 25.1727 136.692 24.827C136.886 24.4813 137 24.0507 137.035 23.535ZM151.341 25.7235V27.7802H144.529V25.7235H151.341ZM145.391 14.9833V27.7802H142.754V14.9833H145.391ZM150.453 20.1952V22.1991H144.529V20.1952H150.453ZM151.332 14.9833V17.0487H144.529V14.9833H151.332ZM160.901 24.4315C160.901 24.203 160.866 23.9979 160.795 23.8163C160.731 23.6288 160.608 23.4589 160.426 23.3065C160.244 23.1483 159.99 22.993 159.661 22.8407C159.333 22.6884 158.909 22.5302 158.387 22.3661C157.807 22.1786 157.256 21.9677 156.735 21.7333C156.219 21.4989 155.762 21.2264 155.364 20.9159C154.971 20.5995 154.661 20.2333 154.432 19.8173C154.209 19.4012 154.098 18.9178 154.098 18.3671C154.098 17.8339 154.215 17.3505 154.45 16.9169C154.684 16.4774 155.012 16.1024 155.434 15.7919C155.856 15.4755 156.354 15.2323 156.928 15.0624C157.508 14.8925 158.144 14.8075 158.835 14.8075C159.779 14.8075 160.602 14.9774 161.305 15.3173C162.008 15.6571 162.553 16.1229 162.94 16.7147C163.332 17.3065 163.529 17.9833 163.529 18.745H160.91C160.91 18.37 160.83 18.0419 160.672 17.7606C160.52 17.4735 160.286 17.2479 159.969 17.0839C159.659 16.9198 159.266 16.8378 158.791 16.8378C158.334 16.8378 157.953 16.9081 157.649 17.0487C157.344 17.1835 157.116 17.368 156.963 17.6024C156.811 17.8309 156.735 18.0887 156.735 18.3759C156.735 18.5927 156.787 18.7889 156.893 18.9647C157.004 19.1405 157.168 19.3046 157.385 19.4569C157.602 19.6093 157.869 19.7528 158.185 19.8876C158.501 20.0223 158.868 20.1542 159.284 20.2831C159.981 20.494 160.593 20.7313 161.12 20.995C161.654 21.2587 162.099 21.5546 162.456 21.8827C162.814 22.2108 163.083 22.5829 163.265 22.9989C163.447 23.4149 163.537 23.8866 163.537 24.4139C163.537 24.9706 163.429 25.4686 163.212 25.9081C162.995 26.3475 162.682 26.7196 162.272 27.0243C161.862 27.329 161.372 27.5604 160.804 27.7186C160.236 27.8768 159.6 27.9559 158.897 27.9559C158.264 27.9559 157.64 27.8739 157.025 27.7098C156.41 27.5399 155.85 27.285 155.346 26.9452C154.848 26.6053 154.45 26.1718 154.151 25.6444C153.852 25.1171 153.702 24.493 153.702 23.7723H156.348C156.348 24.1708 156.41 24.5077 156.533 24.7831C156.656 25.0585 156.828 25.2811 157.051 25.451C157.28 25.621 157.549 25.744 157.86 25.8202C158.176 25.8964 158.522 25.9344 158.897 25.9344C159.354 25.9344 159.729 25.87 160.022 25.7411C160.321 25.6122 160.54 25.4335 160.681 25.205C160.827 24.9764 160.901 24.7186 160.901 24.4315Z" fill="#2563AC"/>
</svg>
