<svg width="60" height="60" viewBox="0 0 60 60" fill="none" xmlns="http://www.w3.org/2000/svg">
<rect y="0.128418" width="59.1283" height="59.1283" rx="9.71972" fill="#F38313"/>
<mask id="mask0_2939_398" style="mask-type:luminance" maskUnits="userSpaceOnUse" x="10" y="10" width="40" height="41">
<path d="M10 10.1284H50V50.1284H10V10.1284Z" fill="white"/>
</mask>
<g mask="url(#mask0_2939_398)">
<path d="M31.2628 26.9827C31.2628 29.6928 32.636 32.1693 34.9357 33.6088C35.5268 33.9781 35.706 34.7578 35.3358 35.3489C35.0967 35.7317 34.6856 35.9417 34.2641 35.9417C34.036 35.9417 33.804 35.8793 33.5956 35.7491C32.0552 34.7855 30.8296 33.4699 29.9946 31.9404" stroke="white" stroke-miterlimit="10" stroke-linecap="round" stroke-linejoin="round"/>
<path d="M25.5195 20.6645C25.3718 20.5574 25.2203 20.4543 25.064 20.3566C24.4734 19.9871 24.2945 19.2074 24.664 18.6168C25.0335 18.0254 25.8124 17.8465 26.4046 18.2168C27.9453 19.1801 29.1703 20.4957 30.0054 22.0254" stroke="white" stroke-miterlimit="10" stroke-linecap="round" stroke-linejoin="round"/>
<path d="M27.4131 22.6222C28.2662 23.8878 28.7373 25.3957 28.7373 26.9832" stroke="white" stroke-miterlimit="10" stroke-linecap="round" stroke-linejoin="round"/>
<path d="M47.9062 21.6105C48.8625 23.1776 49.4141 25.0175 49.4141 26.9831C49.4141 32.0659 45.7266 36.3034 40.8867 37.162L41.1383 37.4729C41.5781 38.0144 41.4953 38.8097 40.9539 39.2487C40.7195 39.4386 40.4383 39.5308 40.1586 39.5308C39.7914 39.5308 39.4273 39.3714 39.1773 39.0636L37.3852 36.8542C37.0633 36.4581 37.0117 35.9081 37.2539 35.4589L38.6039 32.955C38.9352 32.3409 39.7016 32.1112 40.3148 32.4425C40.9289 32.7729 41.1578 33.5394 40.8273 34.1526L40.557 34.6542C44.1594 33.9604 46.8883 30.7847 46.8883 26.9831C46.8883 22.6745 43.3836 19.1698 39.0758 19.1698C34.768 19.1698 31.2625 22.6745 31.2625 26.9831C31.2625 32.6831 26.625 37.3214 20.9242 37.3214C15.2234 37.3214 10.5859 32.6831 10.5859 26.9831C10.5859 21.8995 14.2734 17.662 19.1133 16.8034L18.8617 16.4933C18.4219 15.9511 18.5047 15.1558 19.0461 14.7167C19.5875 14.2776 20.3828 14.3605 20.8227 14.9019L22.6148 17.1112C22.9367 17.5073 22.9883 18.0573 22.7461 18.5065L21.3961 21.0112C21.168 21.4339 20.7328 21.6745 20.2836 21.6745C20.0812 21.6745 19.8758 21.6261 19.6852 21.523C19.0711 21.1925 18.8422 20.4261 19.1727 19.8128L19.443 19.3112C15.8406 20.0058 13.1117 23.1808 13.1117 26.9831C13.1117 28.33 13.4547 29.5987 14.057 30.7065" stroke="white" stroke-miterlimit="10" stroke-linecap="round" stroke-linejoin="round"/>
<path d="M15.7554 32.8363C17.1335 34.055 18.9444 34.7957 20.9241 34.7957C25.2319 34.7957 28.7374 31.291 28.7374 26.9832C28.7374 21.2824 33.3749 16.6441 39.0757 16.6441C41.8304 16.6441 44.3358 17.7261 46.1905 19.4886" stroke="white" stroke-miterlimit="10" stroke-linecap="round" stroke-linejoin="round"/>
<path d="M23.2925 42.0341H21.6963V45.8223H23.2925" stroke="white" stroke-miterlimit="10" stroke-linecap="round" stroke-linejoin="round"/>
<path d="M23.1747 43.9282H21.6963" stroke="white" stroke-miterlimit="10" stroke-linecap="round" stroke-linejoin="round"/>
<path d="M19.3097 43.9282C19.3097 44.972 18.7304 45.7979 17.8113 45.8139C17.5054 45.8193 16.7148 45.8223 16.7148 45.8223L16.707 42.0341H17.7799C18.788 42.0341 19.3097 42.8845 19.3097 43.9282Z" stroke="white" stroke-miterlimit="10" stroke-linecap="round" stroke-linejoin="round"/>
<path d="M25.6655 42.0342L26.9607 45.7654C26.9878 45.8417 27.0961 45.841 27.1222 45.7643L28.359 42.0411" stroke="white" stroke-miterlimit="10" stroke-linecap="round" stroke-linejoin="round"/>
<path d="M43.1678 42.4236C43.1678 42.4236 42.488 41.8522 41.6864 42.0937C40.9504 42.3154 40.8218 43.2072 41.38 43.5113C41.6411 43.6534 41.9025 43.7443 42.482 43.9581C43.8771 44.4727 43.2761 45.8223 42.1531 45.8223C41.5907 45.8223 41.1187 45.576 40.833 45.2608" stroke="white" stroke-miterlimit="10" stroke-linecap="round" stroke-linejoin="round"/>
<path d="M36.4995 44.1769V45.8223" stroke="white" stroke-miterlimit="10" stroke-linecap="round" stroke-linejoin="round"/>
<path d="M38.6442 43.1033C38.6442 43.6936 38.1447 44.1722 37.5543 44.1722C37.2615 44.1722 36.5069 44.177 36.5069 44.177L36.4995 42.0343H37.5543C38.1447 42.0343 38.6442 42.5129 38.6442 43.1033Z" stroke="white" stroke-miterlimit="10" stroke-linecap="round" stroke-linejoin="round"/>
<path d="M34.1226 43.9282C34.1226 44.9743 33.2746 45.8223 32.2285 45.8223C31.1825 45.8223 30.3345 44.9743 30.3345 43.9282C30.3345 42.8821 31.1825 42.0341 32.2285 42.0341C33.2746 42.0341 34.1226 42.8821 34.1226 43.9282Z" stroke="white" stroke-miterlimit="10" stroke-linecap="round" stroke-linejoin="round"/>
</g>
</svg>
