<svg width="122" height="125" viewBox="0 0 122 125" fill="none" xmlns="http://www.w3.org/2000/svg">
<rect width="122" height="123.84" transform="translate(0 0.839966)" fill="#2563AC"/>
<path d="M50.7283 40.0416C50.7283 39.5609 50.5374 39.0999 50.1975 38.76C49.8576 38.4201 49.3966 38.2291 48.9158 38.2291C48.4351 38.2291 47.9741 38.4201 47.6342 38.76C47.2943 39.0999 47.1033 39.5609 47.1033 40.0416V43.86C43.6234 44.1379 41.342 44.8194 39.6649 46.499C37.9853 48.1761 37.3038 50.4599 37.0234 53.9375H84.9749C84.6946 50.4575 84.0131 48.1761 82.3335 46.499C80.6563 44.8194 78.3726 44.1379 74.895 43.8575V40.0416C74.895 39.5609 74.704 39.0999 74.3641 38.76C74.0242 38.4201 73.5632 38.2291 73.0825 38.2291C72.6018 38.2291 72.1408 38.4201 71.8009 38.76C71.461 39.0999 71.27 39.5609 71.27 40.0416V43.698C69.6629 43.6666 67.8601 43.6666 65.8325 43.6666H56.1658C54.1383 43.6666 52.3354 43.6666 50.7283 43.698V40.0416Z" fill="#F38313"/>
<path fill-rule="evenodd" clip-rule="evenodd" d="M36.8359 63C36.8359 60.9724 36.8359 59.1696 36.8674 57.5625H85.1379C85.1693 59.1696 85.1693 60.9724 85.1693 63V67.8333C85.1693 76.9466 85.1693 81.5044 82.3369 84.3343C79.507 87.1667 74.9492 87.1667 65.8359 87.1667H56.1693C47.056 87.1667 42.4982 87.1667 39.6683 84.3343C36.8359 81.5044 36.8359 76.9466 36.8359 67.8333V63ZM73.0859 67.8333C73.7269 67.8333 74.3416 67.5787 74.7948 67.1255C75.248 66.6723 75.5026 66.0576 75.5026 65.4167C75.5026 64.7757 75.248 64.161 74.7948 63.7078C74.3416 63.2546 73.7269 63 73.0859 63C72.445 63 71.8303 63.2546 71.3771 63.7078C70.9239 64.161 70.6693 64.7757 70.6693 65.4167C70.6693 66.0576 70.9239 66.6723 71.3771 67.1255C71.8303 67.5787 72.445 67.8333 73.0859 67.8333ZM73.0859 77.5C73.7269 77.5 74.3416 77.2454 74.7948 76.7922C75.248 76.339 75.5026 75.7243 75.5026 75.0833C75.5026 74.4424 75.248 73.8277 74.7948 73.3745C74.3416 72.9213 73.7269 72.6667 73.0859 72.6667C72.445 72.6667 71.8303 72.9213 71.3771 73.3745C70.9239 73.8277 70.6693 74.4424 70.6693 75.0833C70.6693 75.7243 70.9239 76.339 71.3771 76.7922C71.8303 77.2454 72.445 77.5 73.0859 77.5ZM63.4193 65.4167C63.4193 66.0576 63.1647 66.6723 62.7114 67.1255C62.2582 67.5787 61.6435 67.8333 61.0026 67.8333C60.3617 67.8333 59.747 67.5787 59.2938 67.1255C58.8405 66.6723 58.5859 66.0576 58.5859 65.4167C58.5859 64.7757 58.8405 64.161 59.2938 63.7078C59.747 63.2546 60.3617 63 61.0026 63C61.6435 63 62.2582 63.2546 62.7114 63.7078C63.1647 64.161 63.4193 64.7757 63.4193 65.4167ZM63.4193 75.0833C63.4193 75.7243 63.1647 76.339 62.7114 76.7922C62.2582 77.2454 61.6435 77.5 61.0026 77.5C60.3617 77.5 59.747 77.2454 59.2938 76.7922C58.8405 76.339 58.5859 75.7243 58.5859 75.0833C58.5859 74.4424 58.8405 73.8277 59.2938 73.3745C59.747 72.9213 60.3617 72.6667 61.0026 72.6667C61.6435 72.6667 62.2582 72.9213 62.7114 73.3745C63.1647 73.8277 63.4193 74.4424 63.4193 75.0833ZM48.9193 67.8333C49.5602 67.8333 50.1749 67.5787 50.6281 67.1255C51.0813 66.6723 51.3359 66.0576 51.3359 65.4167C51.3359 64.7757 51.0813 64.161 50.6281 63.7078C50.1749 63.2546 49.5602 63 48.9193 63C48.2783 63 47.6636 63.2546 47.2104 63.7078C46.7572 64.161 46.5026 64.7757 46.5026 65.4167C46.5026 66.0576 46.7572 66.6723 47.2104 67.1255C47.6636 67.5787 48.2783 67.8333 48.9193 67.8333ZM48.9193 77.5C49.5602 77.5 50.1749 77.2454 50.6281 76.7922C51.0813 76.339 51.3359 75.7243 51.3359 75.0833C51.3359 74.4424 51.0813 73.8277 50.6281 73.3745C50.1749 72.9213 49.5602 72.6667 48.9193 72.6667C48.2783 72.6667 47.6636 72.9213 47.2104 73.3745C46.7572 73.8277 46.5026 74.4424 46.5026 75.0833C46.5026 75.7243 46.7572 76.339 47.2104 76.7922C47.6636 77.2454 48.2783 77.5 48.9193 77.5Z" fill="#F38313"/>
</svg>
