<svg width="122" height="124" viewBox="0 0 122 124" fill="none" xmlns="http://www.w3.org/2000/svg">
<rect width="122" height="123.84" fill="#2563AC"/>
<path d="M85.6137 61.6035L62.2834 38.2902C62.1154 38.1219 61.9159 37.9884 61.6962 37.8973C61.4766 37.8062 61.2411 37.7593 61.0033 37.7593C60.7655 37.7593 60.5301 37.8062 60.3104 37.8973C60.0908 37.9884 59.8912 38.1219 59.7232 38.2902L36.393 61.6035C35.7133 62.2832 35.3281 63.2064 35.3281 64.1693C35.3281 66.1687 36.9537 67.7943 38.9531 67.7943H41.4113V84.4297C41.4113 85.4322 42.2213 86.2422 43.2238 86.2422H57.3783V73.5547H63.7221V86.2422H78.7828C79.7854 86.2422 80.5953 85.4322 80.5953 84.4297V67.7943H83.0535C84.0164 67.7943 84.9396 67.4148 85.6193 66.7295C87.0297 65.3135 87.0297 63.0195 85.6137 61.6035Z" fill="#F38313"/>
</svg>
