<svg width="122" height="125" viewBox="0 0 122 125" fill="none" xmlns="http://www.w3.org/2000/svg">
<rect width="122" height="123.84" transform="translate(0 0.679932)" fill="#2563AC"/>
<path d="M70.6693 58.1667C70.6693 60.7304 69.6508 63.1892 67.838 65.002C66.0251 66.8149 63.5664 67.8333 61.0026 67.8333C58.4388 67.8333 55.9801 66.8149 54.1672 65.002C52.3544 63.1892 51.3359 60.7304 51.3359 58.1667C51.3359 55.6029 52.3544 53.1442 54.1672 51.3313C55.9801 49.5184 58.4388 48.5 61.0026 48.5C63.5664 48.5 66.0251 49.5184 67.838 51.3313C69.6508 53.1442 70.6693 55.6029 70.6693 58.1667Z" fill="#F38313"/>
<path fill-rule="evenodd" clip-rule="evenodd" d="M60.0166 87.1474C47.1273 86.6302 36.8359 76.0162 36.8359 63C36.8359 49.6528 47.6554 38.8334 61.0026 38.8334C74.3498 38.8334 85.1693 49.6528 85.1693 63C85.1693 76.3473 74.3498 87.1667 61.0026 87.1667H60.6715C60.4524 87.1667 60.2341 87.1603 60.0166 87.1474ZM45.4949 78.2492C45.3142 77.7303 45.2527 77.1774 45.3149 76.6315C45.3772 76.0856 45.5616 75.5607 45.8544 75.0958C46.1473 74.6309 46.5411 74.2379 47.0066 73.946C47.4721 73.6542 47.9974 73.4709 48.5435 73.4098C57.9636 72.367 64.0996 72.4613 73.4738 73.4316C74.0206 73.4885 74.5472 73.6695 75.0134 73.9607C75.4797 74.2519 75.8734 74.6457 76.1645 75.112C76.4555 75.5784 76.6364 76.105 76.6932 76.6518C76.75 77.1986 76.6812 77.7511 76.4922 78.2673C80.5101 74.2025 82.7601 68.7154 82.7526 63C82.7526 50.988 73.0146 41.25 61.0026 41.25C48.9906 41.25 39.2526 50.988 39.2526 63C39.2526 68.9402 41.6342 74.3245 45.4949 78.2492Z" fill="#F38313"/>
</svg>
