<svg width="122" height="124" viewBox="0 0 122 124" fill="none" xmlns="http://www.w3.org/2000/svg">
<rect width="122" height="123.84" fill="#2563AC"/>
<path d="M61 40.8541C60.5193 40.8541 60.0583 41.0451 59.7184 41.385C59.3785 41.7249 59.1875 42.1859 59.1875 42.6666C59.1875 43.1473 59.3785 43.6083 59.7184 43.9483C60.0583 44.2882 60.5193 44.4791 61 44.4791C63.3009 44.4791 65.5792 44.9323 67.7049 45.8128C69.8307 46.6933 71.7621 47.9839 73.3891 49.6109C75.0161 51.2378 76.3066 53.1693 77.1871 55.295C78.0676 57.4208 78.5208 59.6991 78.5208 62C78.5208 64.3008 78.0676 66.5792 77.1871 68.7049C76.3066 70.8306 75.0161 72.7621 73.3891 74.3891C71.7621 76.016 69.8307 77.3066 67.7049 78.1871C65.5792 79.0676 63.3009 79.5208 61 79.5208C60.5193 79.5208 60.0583 79.7118 59.7184 80.0517C59.3785 80.3916 59.1875 80.8526 59.1875 81.3333C59.1875 81.814 59.3785 82.275 59.7184 82.6149C60.0583 82.9548 60.5193 83.1458 61 83.1458C66.6082 83.1458 71.9868 80.9179 75.9524 76.9523C79.918 72.9867 82.1458 67.6082 82.1458 62C82.1458 56.3917 79.918 51.0132 75.9524 47.0476C71.9868 43.082 66.6082 40.8541 61 40.8541Z" fill="#F38313"/>
<path d="M57.2999 56.0308C56.9797 55.6872 56.8054 55.2328 56.8137 54.7632C56.822 54.2936 57.0122 53.8456 57.3443 53.5135C57.6764 53.1815 58.1244 52.9912 58.594 52.9829C59.0635 52.9747 59.518 53.149 59.8616 53.4691L67.1116 60.7191C67.451 61.059 67.6416 61.5196 67.6416 62C67.6416 62.4803 67.451 62.9409 67.1116 63.2808L59.8616 70.5308C59.6956 70.7089 59.4955 70.8517 59.2732 70.9508C59.0509 71.0498 58.8109 71.1031 58.5675 71.1074C58.3241 71.1117 58.0824 71.0669 57.8567 70.9758C57.631 70.8846 57.426 70.7489 57.2539 70.5768C57.0818 70.4047 56.9461 70.1997 56.8549 69.974C56.7638 69.7483 56.719 69.5066 56.7233 69.2632C56.7276 69.0198 56.7809 68.7798 56.8799 68.5575C56.979 68.3352 57.1218 68.1351 57.2999 67.9691L61.4566 63.8125H41.6641C41.1834 63.8125 40.7223 63.6215 40.3824 63.2816C40.0425 62.9417 39.8516 62.4807 39.8516 62C39.8516 61.5192 40.0425 61.0582 40.3824 60.7183C40.7223 60.3784 41.1834 60.1875 41.6641 60.1875H61.4566L57.2999 56.0308Z" fill="#F38313"/>
</svg>
