<svg width="122" height="125" viewBox="0 0 122 125" fill="none" xmlns="http://www.w3.org/2000/svg">
<rect width="122" height="123.84" transform="translate(0 0.52002)" fill="#2563AC"/>
<path d="M46.5026 69.25H51.3359M75.5026 69.25V76.5C75.5026 81.0579 75.5026 83.3344 74.3692 84.7505C73.2889 86.1039 71.5779 86.1643 68.2526 86.1667M75.5219 47.5H75.4978M51.3359 86.1667H46.5026C41.9448 86.1667 39.6683 86.1667 38.2521 84.7505C36.8359 83.3344 36.8359 81.0579 36.8359 76.5V71.6667C36.8359 67.1089 36.8359 64.8324 38.2521 63.4162C39.6683 62 41.9448 62 46.5026 62H51.3359C55.8938 62 58.1703 62 59.5864 63.4162C61.0026 64.8324 61.0026 67.1089 61.0026 71.6667V76.5C61.0026 81.0579 61.0026 83.3344 59.5864 84.7505C58.1703 86.1667 55.8938 86.1667 51.3359 86.1667ZM75.5026 37.8334C70.1618 37.8334 65.8359 42.2051 65.8359 47.5967C65.8359 50.6804 67.0443 53.0777 69.4609 55.2189C71.1647 56.7293 73.2285 59.2378 74.4658 61.2678C75.0603 62.2441 75.9014 62.2441 76.5394 61.2678C77.8395 59.2765 79.8405 56.7293 81.5443 55.2213C83.9609 53.0777 85.1693 50.6804 85.1693 47.5967C85.1693 42.2075 80.8434 37.8334 75.5026 37.8334Z" stroke="#F38313" stroke-width="3.5" stroke-linecap="round" stroke-linejoin="round"/>
</svg>
