<svg width="122" height="125" viewBox="0 0 122 125" fill="none" xmlns="http://www.w3.org/2000/svg">
<rect width="122" height="123.84" transform="translate(0 0.52002)" fill="#2563AC"/>
<path d="M38.0391 78.9166V49.9166H83.9557V78.9166C83.9557 81.575 81.7807 83.75 79.1224 83.75H42.8724C40.2141 83.75 38.0391 81.575 38.0391 78.9166Z" fill="#FAE7D4"/>
<path d="M83.9557 45.0833V52.3333H38.0391V45.0833C38.0391 42.425 40.2141 40.25 42.8724 40.25H79.1224C81.7807 40.25 83.9557 42.425 83.9557 45.0833Z" fill="#F38313"/>
<path d="M71.875 48.7084C73.877 48.7084 75.5 47.0854 75.5 45.0834C75.5 43.0813 73.877 41.4584 71.875 41.4584C69.873 41.4584 68.25 43.0813 68.25 45.0834C68.25 47.0854 69.873 48.7084 71.875 48.7084Z" fill="#B71C1C"/>
<path d="M50.125 48.7084C52.127 48.7084 53.75 47.0854 53.75 45.0834C53.75 43.0813 52.127 41.4584 50.125 41.4584C48.123 41.4584 46.5 43.0813 46.5 45.0834C46.5 47.0854 48.123 48.7084 50.125 48.7084Z" fill="#B71C1C"/>
<path d="M71.8776 36.625C70.5484 36.625 69.4609 37.7125 69.4609 39.0417V45.0833C69.4609 46.4125 70.5484 47.5 71.8776 47.5C73.2068 47.5 74.2943 46.4125 74.2943 45.0833V39.0417C74.2943 37.7125 73.2068 36.625 71.8776 36.625ZM50.1276 36.625C48.7984 36.625 47.7109 37.7125 47.7109 39.0417V45.0833C47.7109 46.4125 48.7984 47.5 50.1276 47.5C51.4568 47.5 52.5443 46.4125 52.5443 45.0833V39.0417C52.5443 37.7125 51.4568 36.625 50.1276 36.625Z" fill="#FAE7D4"/>
<path d="M58.8281 75.6541C58.8281 75.4125 58.8281 75.05 58.949 74.8083C59.0698 74.5666 59.1906 74.325 59.4323 74.2041C59.674 74.0833 59.7948 73.8416 60.0365 73.8416C60.2781 73.7208 60.6406 73.7208 60.8823 73.7208C61.124 73.7208 61.4865 73.7208 61.7281 73.8416L62.4531 74.2041C62.6948 74.325 62.8156 74.5666 62.9365 74.8083C63.0573 75.05 63.0573 75.2916 63.0573 75.6541C63.0573 75.8958 63.0573 76.2583 62.9365 76.5C62.8156 76.7416 62.6948 76.9833 62.4531 77.1041C62.2115 77.225 62.0906 77.4666 61.7281 77.4666C61.3656 77.4666 61.3656 77.7083 61.0031 77.7083C60.6406 77.7083 60.399 77.7083 60.1573 77.5875C59.9156 77.4666 59.674 77.3458 59.5531 77.225C59.3115 77.1041 59.1906 76.8625 59.0698 76.6208C58.949 76.2583 58.8281 76.0166 58.8281 75.6541ZM62.574 70.4583H59.4323L58.949 57.1666H62.9365L62.574 70.4583Z" fill="#F38313"/>
</svg>
