<svg width="122" height="125" viewBox="0 0 122 125" fill="none" xmlns="http://www.w3.org/2000/svg">
<rect width="122" height="123.84" transform="translate(0 0.679932)" fill="#2563AC"/>
<path d="M77.9193 49.7083H70.6693V47.2916C70.6693 45.3688 69.9054 43.5247 68.5458 42.1651C67.1862 40.8055 65.3421 40.0416 63.4193 40.0416H58.5859C56.6631 40.0416 54.819 40.8055 53.4594 42.1651C52.0998 43.5247 51.3359 45.3688 51.3359 47.2916V49.7083H44.0859C42.1631 49.7083 40.3191 50.4721 38.9594 51.8318C37.5998 53.1914 36.8359 55.0355 36.8359 56.9583V78.7083C36.8359 80.6311 37.5998 82.4752 38.9594 83.8348C40.3191 85.1945 42.1631 85.9583 44.0859 85.9583H77.9193C79.8421 85.9583 81.6862 85.1945 83.0458 83.8348C84.4054 82.4752 85.1693 80.6311 85.1693 78.7083V56.9583C85.1693 55.0355 84.4054 53.1914 83.0458 51.8318C81.6862 50.4721 79.8421 49.7083 77.9193 49.7083ZM56.1693 47.2916C56.1693 46.6507 56.4239 46.036 56.8771 45.5828C57.3303 45.1296 57.945 44.875 58.5859 44.875H63.4193C64.0602 44.875 64.6749 45.1296 65.1281 45.5828C65.5813 46.036 65.8359 46.6507 65.8359 47.2916V49.7083H56.1693V47.2916ZM80.3359 78.7083C80.3359 79.3492 80.0813 79.9639 79.6281 80.4171C79.1749 80.8704 78.5602 81.125 77.9193 81.125H44.0859C43.445 81.125 42.8303 80.8704 42.3771 80.4171C41.9239 79.9639 41.6693 79.3492 41.6693 78.7083V66.5041H48.9193V69.0416C48.9193 69.6826 49.1739 70.2973 49.6271 70.7505C50.0803 71.2037 50.695 71.4583 51.3359 71.4583C51.9769 71.4583 52.5916 71.2037 53.0448 70.7505C53.498 70.2973 53.7526 69.6826 53.7526 69.0416V66.5041H68.2526V69.0416C68.2526 69.6826 68.5072 70.2973 68.9604 70.7505C69.4136 71.2037 70.0283 71.4583 70.6693 71.4583C71.3102 71.4583 71.9249 71.2037 72.3781 70.7505C72.8313 70.2973 73.0859 69.6826 73.0859 69.0416V66.5041H80.3359V78.7083ZM80.3359 61.7916H41.6693V56.9583C41.6693 56.3174 41.9239 55.7027 42.3771 55.2495C42.8303 54.7962 43.445 54.5416 44.0859 54.5416H77.9193C78.5602 54.5416 79.1749 54.7962 79.6281 55.2495C80.0813 55.7027 80.3359 56.3174 80.3359 56.9583V61.7916Z" fill="#F38313"/>
</svg>
