<svg width="214" height="46" viewBox="0 0 214 46" fill="none" xmlns="http://www.w3.org/2000/svg">
<rect y="0.165039" width="213.748" height="45.3286" rx="22.6643" fill="#DCECFF"/>
<path d="M40.9423 22.1238V27.715C40.7226 27.9799 40.3835 28.2674 39.9248 28.5775C39.4661 28.8811 38.875 29.1427 38.1515 29.3624C37.4279 29.582 36.5526 29.6919 35.5254 29.6919C34.6145 29.6919 33.7844 29.5433 33.035 29.2461C32.2857 28.9425 31.6396 28.5 31.097 27.9185C30.5608 27.3371 30.1473 26.6265 29.8566 25.7867C29.5659 24.9404 29.4206 23.9746 29.4206 22.8893V22.0075C29.4206 20.9222 29.5595 19.9564 29.8373 19.1101C30.1215 18.2638 30.5253 17.55 31.0485 16.9686C31.5718 16.3872 32.1952 15.9446 32.9187 15.641C33.6423 15.3374 34.4466 15.1856 35.3316 15.1856C36.5591 15.1856 37.5668 15.3858 38.355 15.7864C39.1431 16.1804 39.7439 16.7295 40.1574 17.4337C40.5773 18.1314 40.8357 18.9325 40.9326 19.8369H38.1127C38.0417 19.3588 37.906 18.9421 37.7057 18.5868C37.5055 18.2315 37.218 17.9537 36.8433 17.7535C36.4751 17.5532 35.997 17.4531 35.4091 17.4531C34.9246 17.4531 34.4918 17.5532 34.1106 17.7535C33.736 17.9473 33.4194 18.2348 33.161 18.6159C32.9026 18.9971 32.7056 19.4686 32.5699 20.0307C32.4342 20.5927 32.3664 21.2452 32.3664 21.9881V22.8893C32.3664 23.6258 32.4375 24.2782 32.5796 24.8467C32.7217 25.4088 32.9317 25.8836 33.2095 26.2712C33.4937 26.6523 33.8426 26.9398 34.256 27.1336C34.6695 27.3274 35.1507 27.4243 35.6998 27.4243C36.1585 27.4243 36.5397 27.3856 36.8433 27.3081C37.1534 27.2305 37.4021 27.1369 37.5894 27.027C37.7833 26.9108 37.9318 26.8009 38.0352 26.6976V24.1975H35.3801V22.1238H40.9423ZM50.4415 17.8019L46.6041 29.498H43.513L48.7554 15.3891H50.7225L50.4415 17.8019ZM53.6296 29.498L49.7825 17.8019L49.4724 15.3891H51.4589L56.7304 29.498H53.6296ZM53.4551 24.2459V26.5231H46.0033V24.2459H53.4551ZM60.7837 15.3891H63.2451L66.8692 25.7479L70.4934 15.3891H72.9547L67.8576 29.498H65.8808L60.7837 15.3891ZM59.4562 15.3891H61.9078L62.3535 25.4863V29.498H59.4562V15.3891ZM71.8306 15.3891H74.2919V29.498H71.3849V25.4863L71.8306 15.3891ZM81.3492 15.3891V29.498H78.4518V15.3891H81.3492ZM88.3968 15.3891V29.498H85.4897V15.3891H88.3968ZM94.0171 21.4164V23.6839H87.6022V21.4164H94.0171ZM94.6954 15.3891V17.6663H87.6022V15.3891H94.6954ZM100.89 15.3891V29.498H97.9929V15.3891H100.89ZM113.209 24.8177H116.107C116.049 25.7673 115.787 26.6104 115.322 27.3468C114.863 28.0833 114.22 28.6582 113.393 29.0717C112.573 29.4851 111.585 29.6919 110.428 29.6919C109.524 29.6919 108.713 29.5368 107.996 29.2267C107.279 28.9102 106.665 28.458 106.155 27.8701C105.651 27.2822 105.267 26.5716 105.002 25.7382C104.737 24.9049 104.604 23.9714 104.604 22.9378V21.959C104.604 20.9254 104.74 19.9919 105.011 19.1586C105.289 18.3187 105.683 17.6049 106.194 17.017C106.71 16.4291 107.327 15.9769 108.044 15.6604C108.762 15.3438 109.563 15.1856 110.448 15.1856C111.623 15.1856 112.615 15.3987 113.423 15.8251C114.236 16.2515 114.866 16.8394 115.312 17.5887C115.764 18.3381 116.036 19.1909 116.126 20.147H113.219C113.187 19.5785 113.074 19.0972 112.88 18.7031C112.686 18.3026 112.392 18.0022 111.998 17.8019C111.61 17.5952 111.094 17.4918 110.448 17.4918C109.963 17.4918 109.54 17.5823 109.178 17.7632C108.816 17.944 108.513 18.2186 108.267 18.5868C108.022 18.9551 107.838 19.4202 107.715 19.9822C107.599 20.5378 107.541 21.1903 107.541 21.9397V22.9378C107.541 23.6678 107.595 24.3105 107.705 24.8661C107.815 25.4152 107.983 25.8804 108.209 26.2615C108.442 26.6362 108.739 26.9204 109.101 27.1142C109.469 27.3016 109.911 27.3953 110.428 27.3953C111.035 27.3953 111.536 27.2984 111.93 27.1046C112.324 26.9108 112.625 26.6233 112.831 26.2421C113.045 25.861 113.171 25.3862 113.209 24.8177ZM125.17 17.8019L121.333 29.498H118.241L123.484 15.3891H125.451L125.17 17.8019ZM128.358 29.498L124.511 17.8019L124.201 15.3891H126.187L131.459 29.498H128.358ZM128.184 24.2459V26.5231H120.732V24.2459H128.184ZM139.291 15.3891V29.498H136.394V15.3891H139.291ZM143.633 15.3891V17.6663H132.121V15.3891H143.633ZM149.798 15.3891V29.498H146.901V15.3891H149.798ZM165.528 22.1141V22.7827C165.528 23.8551 165.383 24.8177 165.092 25.6704C164.802 26.5231 164.391 27.2499 163.862 27.8507C163.332 28.445 162.699 28.9005 161.962 29.217C161.232 29.5336 160.422 29.6919 159.53 29.6919C158.645 29.6919 157.834 29.5336 157.098 29.217C156.368 28.9005 155.735 28.445 155.199 27.8507C154.662 27.2499 154.246 26.5231 153.948 25.6704C153.658 24.8177 153.512 23.8551 153.512 22.7827V22.1141C153.512 21.0352 153.658 20.0727 153.948 19.2264C154.239 18.3737 154.649 17.6469 155.179 17.0461C155.715 16.4453 156.348 15.9866 157.078 15.6701C157.815 15.3535 158.626 15.1953 159.511 15.1953C160.402 15.1953 161.213 15.3535 161.943 15.6701C162.679 15.9866 163.312 16.4453 163.842 17.0461C164.378 17.6469 164.792 18.3737 165.083 19.2264C165.38 20.0727 165.528 21.0352 165.528 22.1141ZM162.592 22.7827V22.0947C162.592 21.3453 162.524 20.6864 162.389 20.1179C162.253 19.5494 162.053 19.0713 161.788 18.6837C161.523 18.2961 161.2 18.0054 160.819 17.8116C160.438 17.6114 160.002 17.5112 159.511 17.5112C159.02 17.5112 158.584 17.6114 158.202 17.8116C157.828 18.0054 157.508 18.2961 157.243 18.6837C156.985 19.0713 156.788 19.5494 156.652 20.1179C156.516 20.6864 156.449 21.3453 156.449 22.0947V22.7827C156.449 23.5256 156.516 24.1846 156.652 24.7595C156.788 25.328 156.988 25.8093 157.253 26.2034C157.518 26.591 157.841 26.8849 158.222 27.0852C158.603 27.2854 159.039 27.3856 159.53 27.3856C160.021 27.3856 160.457 27.2854 160.838 27.0852C161.219 26.8849 161.539 26.591 161.798 26.2034C162.056 25.8093 162.253 25.328 162.389 24.7595C162.524 24.1846 162.592 23.5256 162.592 22.7827ZM180.522 15.3891V29.498H177.615L171.946 20.0404V29.498H169.039V15.3891H171.946L177.625 24.8564V15.3891H180.522Z" fill="#2563AC"/>
</svg>
