<svg width="262" height="67" viewBox="0 0 262 67" fill="none" xmlns="http://www.w3.org/2000/svg">
<rect x="28.5371" y="15.167" width="214.027" height="45.3346" rx="22.6673" fill="#DCECFF"/>
<path d="M69.5165 37.1267V42.718C69.2968 42.9828 68.9577 43.2703 68.499 43.5804C68.0403 43.884 67.4492 44.1457 66.7257 44.3653C66.0022 44.585 65.1268 44.6948 64.0996 44.6948C63.1888 44.6948 62.3586 44.5462 61.6093 44.249C60.8599 43.9454 60.2139 43.5029 59.6712 42.9215C59.135 42.3401 58.7216 41.6294 58.4309 40.7896C58.1401 39.9433 57.9948 38.9775 57.9948 37.8922V37.0104C57.9948 35.9251 58.1337 34.9593 58.4115 34.113C58.6957 33.2668 59.0995 32.5529 59.6228 31.9715C60.146 31.3901 60.7694 30.9476 61.493 30.6439C62.2165 30.3403 63.0208 30.1885 63.9058 30.1885C65.1333 30.1885 66.1411 30.3888 66.9292 30.7893C67.7173 31.1834 68.3181 31.7325 68.7316 32.4366C69.1515 33.1343 69.4099 33.9354 69.5068 34.8398H66.6869C66.6159 34.3618 66.4802 33.9451 66.2799 33.5898C66.0797 33.2345 65.7922 32.9567 65.4175 32.7564C65.0493 32.5561 64.5712 32.456 63.9834 32.456C63.4988 32.456 63.066 32.5561 62.6849 32.7564C62.3102 32.9502 61.9936 33.2377 61.7352 33.6188C61.4768 34 61.2798 34.4716 61.1441 35.0336C61.0085 35.5956 60.9406 36.2481 60.9406 36.991V37.8922C60.9406 38.6287 61.0117 39.2812 61.1538 39.8497C61.2959 40.4117 61.5059 40.8865 61.7837 41.2741C62.0679 41.6553 62.4168 41.9428 62.8302 42.1366C63.2437 42.3304 63.725 42.4273 64.2741 42.4273C64.7327 42.4273 65.1139 42.3885 65.4175 42.311C65.7276 42.2335 65.9763 42.1398 66.1637 42.03C66.3575 41.9137 66.5061 41.8039 66.6094 41.7005V39.2004H63.9543V37.1267H69.5165ZM79.0157 32.8049L75.1784 44.501H72.0872L77.3296 30.392H79.2967L79.0157 32.8049ZM82.2038 44.501L78.3568 32.8049L78.0467 30.392H80.0332L85.3047 44.501H82.2038ZM82.0294 39.2489V41.5261H74.5776V39.2489H82.0294ZM89.3579 30.392H91.8193L95.4434 40.7509L99.0676 30.392H101.529L96.4318 44.501H94.455L89.3579 30.392ZM88.0304 30.392H90.482L90.9278 40.4892V44.501H88.0304V30.392ZM100.405 30.392H102.866V44.501H99.9591V40.4892L100.405 30.392ZM109.923 30.392V44.501H107.026V30.392H109.923ZM116.971 30.392V44.501H114.064V30.392H116.971ZM122.591 36.4193V38.6868H116.176V36.4193H122.591ZM123.27 30.392V32.6692H116.176V30.392H123.27ZM129.464 30.392V44.501H126.567V30.392H129.464ZM141.784 39.8206H144.681C144.623 40.7702 144.361 41.6133 143.896 42.3497C143.437 43.0862 142.795 43.6612 141.968 44.0746C141.147 44.4881 140.159 44.6948 139.002 44.6948C138.098 44.6948 137.287 44.5397 136.57 44.2296C135.853 43.9131 135.239 43.4609 134.729 42.873C134.225 42.2851 133.841 41.5745 133.576 40.7412C133.311 39.9078 133.179 38.9743 133.179 37.9407V36.962C133.179 35.9283 133.314 34.9949 133.586 34.1615C133.863 33.3217 134.257 32.6078 134.768 32.0199C135.285 31.4321 135.902 30.9799 136.619 30.6633C137.336 30.3468 138.137 30.1885 139.022 30.1885C140.198 30.1885 141.189 30.4017 141.997 30.828C142.811 31.2544 143.441 31.8423 143.886 32.5917C144.339 33.341 144.61 34.1938 144.7 35.1499H141.793C141.761 34.5814 141.648 34.1001 141.454 33.706C141.26 33.3055 140.966 33.0051 140.572 32.8049C140.185 32.5981 139.668 32.4948 139.022 32.4948C138.537 32.4948 138.114 32.5852 137.752 32.7661C137.391 32.947 137.087 33.2215 136.842 33.5898C136.596 33.958 136.412 34.4231 136.289 34.9852C136.173 35.5407 136.115 36.1932 136.115 36.9426V37.9407C136.115 38.6707 136.17 39.3135 136.279 39.869C136.389 40.4182 136.557 40.8833 136.783 41.2644C137.016 41.6391 137.313 41.9234 137.675 42.1172C138.043 42.3045 138.486 42.3982 139.002 42.3982C139.61 42.3982 140.11 42.3013 140.504 42.1075C140.898 41.9137 141.199 41.6262 141.406 41.2451C141.619 40.8639 141.745 40.3891 141.784 39.8206ZM153.744 32.8049L149.907 44.501H146.816L152.058 30.392H154.025L153.744 32.8049ZM156.932 44.501L153.085 32.8049L152.775 30.392H154.762L160.033 44.501H156.932ZM156.758 39.2489V41.5261H149.306V39.2489H156.758ZM167.866 30.392V44.501H164.968V30.392H167.866ZM172.207 30.392V32.6692H160.695V30.392H172.207ZM178.373 30.392V44.501H175.475V30.392H178.373ZM194.103 37.117V37.7856C194.103 38.858 193.957 39.8206 193.666 40.6733C193.376 41.5261 192.966 42.2528 192.436 42.8536C191.906 43.448 191.273 43.9034 190.537 44.22C189.807 44.5365 188.996 44.6948 188.104 44.6948C187.219 44.6948 186.408 44.5365 185.672 44.22C184.942 43.9034 184.309 43.448 183.773 42.8536C183.237 42.2528 182.82 41.5261 182.523 40.6733C182.232 39.8206 182.087 38.858 182.087 37.7856V37.117C182.087 36.0382 182.232 35.0756 182.523 34.2293C182.813 33.3766 183.224 32.6498 183.753 32.049C184.29 31.4482 184.923 30.9896 185.653 30.673C186.389 30.3565 187.2 30.1982 188.085 30.1982C188.976 30.1982 189.787 30.3565 190.517 30.673C191.254 30.9896 191.887 31.4482 192.416 32.049C192.953 32.6498 193.366 33.3766 193.657 34.2293C193.954 35.0756 194.103 36.0382 194.103 37.117ZM191.166 37.7856V37.0976C191.166 36.3483 191.099 35.6893 190.963 35.1208C190.827 34.5523 190.627 34.0743 190.362 33.6867C190.097 33.2991 189.774 33.0084 189.393 32.8145C189.012 32.6143 188.576 32.5141 188.085 32.5141C187.594 32.5141 187.158 32.6143 186.777 32.8145C186.402 33.0084 186.082 33.2991 185.817 33.6867C185.559 34.0743 185.362 34.5523 185.226 35.1208C185.091 35.6893 185.023 36.3483 185.023 37.0976V37.7856C185.023 38.5286 185.091 39.1875 185.226 39.7624C185.362 40.3309 185.562 40.8122 185.827 41.2063C186.092 41.5939 186.415 41.8878 186.796 42.0881C187.177 42.2884 187.613 42.3885 188.104 42.3885C188.595 42.3885 189.031 42.2884 189.412 42.0881C189.794 41.8878 190.113 41.5939 190.372 41.2063C190.63 40.8122 190.827 40.3309 190.963 39.7624C191.099 39.1875 191.166 38.5286 191.166 37.7856ZM209.096 30.392V44.501H206.189L200.52 35.0433V44.501H197.613V30.392H200.52L206.199 39.8594V30.392H209.096Z" fill="#2563AC"/>
<path d="M239.71 13.7504C241.375 12.3337 244.704 7.80019 244.704 1M244.704 18.0005C247.558 15.6393 253.265 10.2086 253.265 7.37518M250.412 23.6673C253.979 21.3061 261.113 16.0171 261.113 13.7504" stroke="black" stroke-width="1.41754" stroke-linecap="round"/>
<path d="M24.6547 54.9905C22.5768 55.6849 17.7795 58.65 15.2139 64.9551M21.6279 49.1924C18.0911 50.3203 10.7504 53.2328 9.68142 55.8599M18.474 41.8154C14.2758 42.6779 5.66561 44.9284 4.81042 47.0301" stroke="black" stroke-width="1.41754" stroke-linecap="round"/>
</svg>
