<svg width="267" height="65" viewBox="0 0 267 65" fill="none" xmlns="http://www.w3.org/2000/svg">
<rect x="23.9995" y="14" width="227" height="44" rx="21.3365" fill="#FFF0E0"/>
<path d="M54.4335 28.7272H56.7489L60.1583 38.4721L63.5676 28.7272H65.8831L61.0881 42H59.2284L54.4335 28.7272ZM53.1846 28.7272H55.4909L55.9102 38.226V42H53.1846V28.7272ZM64.8256 28.7272H67.1411V42H64.4063V38.226L64.8256 28.7272ZM76.4328 30.9971L72.8229 42H69.9149L74.8466 28.7272H76.6972L76.4328 30.9971ZM79.432 42L75.8129 30.9971L75.5212 28.7272H77.39L82.3491 42H79.432ZM79.2679 37.0592V39.2014H72.2577V37.0592H79.2679ZM95.7156 28.7272V42H92.9808L87.648 33.1029V42H84.9132V28.7272H87.648L92.9899 37.6335V28.7272H95.7156ZM106.758 28.7272H109.483V37.4967C109.483 38.5177 109.264 39.3777 108.827 40.0765C108.395 40.7754 107.797 41.3011 107.031 41.6536C106.271 42.0061 105.396 42.1823 104.406 42.1823C103.415 42.1823 102.534 42.0061 101.762 41.6536C100.996 41.3011 100.395 40.7754 99.9571 40.0765C99.5256 39.3777 99.3099 38.5177 99.3099 37.4967V28.7272H102.045V37.4967C102.045 38.0923 102.139 38.5785 102.327 38.9553C102.516 39.3321 102.786 39.6086 103.139 39.7848C103.497 39.9611 103.92 40.0492 104.406 40.0492C104.904 40.0492 105.326 39.9611 105.673 39.7848C106.025 39.6086 106.293 39.3321 106.475 38.9553C106.663 38.5785 106.758 38.0923 106.758 37.4967V28.7272ZM115.803 28.7272V42H113.068V28.7272H115.803ZM121.09 34.3973V36.5304H115.056V34.3973H121.09ZM121.729 28.7272V30.8694H115.056V28.7272H121.729ZM128.368 30.9971L124.758 42H121.85L126.781 28.7272H128.632L128.368 30.9971ZM131.367 42L127.748 30.9971L127.456 28.7272H129.325L134.284 42H131.367ZM131.203 37.0592V39.2014H124.192V37.0592H131.203ZM144.378 37.597H147.103C147.049 38.4904 146.803 39.2835 146.365 39.9763C145.934 40.6691 145.329 41.21 144.551 41.5989C143.779 41.9878 142.849 42.1823 141.761 42.1823C140.911 42.1823 140.148 42.0365 139.473 41.7448C138.799 41.447 138.221 41.0216 137.741 40.4685C137.267 39.9155 136.906 39.247 136.657 38.463C136.407 37.679 136.283 36.8009 136.283 35.8285V34.9078C136.283 33.9354 136.41 33.0573 136.666 32.2733C136.927 31.4833 137.298 30.8117 137.778 30.2587C138.264 29.7056 138.844 29.2802 139.519 28.9824C140.194 28.6847 140.947 28.5358 141.78 28.5358C142.886 28.5358 143.819 28.7363 144.578 29.1374C145.344 29.5385 145.937 30.0916 146.356 30.7965C146.781 31.5015 147.037 32.3037 147.122 33.2031H144.387C144.356 32.6683 144.25 32.2156 144.068 31.8449C143.885 31.4681 143.609 31.1855 143.238 30.9971C142.874 30.8026 142.387 30.7054 141.78 30.7054C141.324 30.7054 140.926 30.7904 140.586 30.9606C140.245 31.1308 139.96 31.3891 139.729 31.7355C139.498 32.0819 139.324 32.5194 139.209 33.0482C139.1 33.5708 139.045 34.1846 139.045 34.8896V35.8285C139.045 36.5152 139.097 37.1199 139.2 37.6426C139.303 38.1592 139.461 38.5967 139.674 38.9553C139.893 39.3078 140.172 39.5752 140.513 39.7575C140.859 39.9337 141.275 40.0218 141.761 40.0218C142.333 40.0218 142.804 39.9307 143.174 39.7484C143.545 39.566 143.828 39.2956 144.022 38.937C144.223 38.5785 144.341 38.1318 144.378 37.597ZM155.894 28.7272V42H153.168V28.7272H155.894ZM159.978 28.7272V30.8694H149.148V28.7272H159.978ZM170.199 28.7272H172.925V37.4967C172.925 38.5177 172.706 39.3777 172.269 40.0765C171.837 40.7754 171.239 41.3011 170.473 41.6536C169.713 42.0061 168.838 42.1823 167.847 42.1823C166.857 42.1823 165.976 42.0061 165.204 41.6536C164.438 41.3011 163.836 40.7754 163.399 40.0765C162.967 39.3777 162.752 38.5177 162.752 37.4967V28.7272H165.486V37.4967C165.486 38.0923 165.581 38.5785 165.769 38.9553C165.957 39.3321 166.228 39.6086 166.58 39.7848C166.939 39.9611 167.361 40.0492 167.847 40.0492C168.346 40.0492 168.768 39.9611 169.114 39.7848C169.467 39.6086 169.734 39.3321 169.917 38.9553C170.105 38.5785 170.199 38.0923 170.199 37.4967V28.7272ZM176.51 28.7272H181.46C182.475 28.7272 183.347 28.8791 184.076 29.183C184.812 29.4869 185.377 29.9366 185.772 30.5322C186.167 31.1277 186.364 31.86 186.364 32.7291C186.364 33.4401 186.243 34.0509 186 34.5614C185.763 35.0658 185.425 35.4882 184.988 35.8285C184.556 36.1628 184.049 36.4302 183.466 36.6307L182.6 37.0865H178.297L178.279 34.9534H181.478C181.958 34.9534 182.356 34.8683 182.672 34.6981C182.989 34.528 183.226 34.291 183.384 33.9871C183.548 33.6832 183.63 33.3307 183.63 32.9296C183.63 32.5042 183.551 32.1366 183.393 31.8266C183.235 31.5167 182.995 31.2797 182.672 31.1156C182.35 30.9515 181.946 30.8694 181.46 30.8694H179.245V42H176.51V28.7272ZM183.93 42L180.904 36.0838L183.794 36.0655L186.857 41.8724V42H183.93ZM192.712 28.7272V42H189.986V28.7272H192.712ZM207.409 28.7272V42H204.674L199.342 33.1029V42H196.607V28.7272H199.342L204.684 37.6335V28.7272H207.409ZM221.642 35.0628V40.3227C221.435 40.5718 221.116 40.8423 220.685 41.134C220.253 41.4196 219.697 41.6657 219.016 41.8724C218.336 42.079 217.512 42.1823 216.546 42.1823C215.689 42.1823 214.908 42.0425 214.203 41.763C213.498 41.4774 212.89 41.0611 212.38 40.5141C211.876 39.9671 211.487 39.2986 211.213 38.5086C210.94 37.7125 210.803 36.8039 210.803 35.7829V34.9534C210.803 33.9324 210.934 33.0238 211.195 32.2277C211.462 31.4316 211.842 30.7601 212.334 30.2131C212.827 29.6661 213.413 29.2499 214.094 28.9642C214.774 28.6786 215.531 28.5358 216.364 28.5358C217.518 28.5358 218.466 28.7242 219.208 29.101C219.949 29.4717 220.514 29.9882 220.903 30.6507C221.298 31.307 221.542 32.0606 221.633 32.9114H218.98C218.913 32.4617 218.785 32.0697 218.597 31.7355C218.409 31.4012 218.138 31.1399 217.786 30.9515C217.439 30.7631 216.99 30.6689 216.437 30.6689C215.981 30.6689 215.574 30.7631 215.215 30.9515C214.863 31.1338 214.565 31.4042 214.322 31.7628C214.079 32.1214 213.893 32.565 213.766 33.0937C213.638 33.6225 213.574 34.2363 213.574 34.9352V35.7829C213.574 36.4757 213.641 37.0896 213.775 37.6244C213.908 38.1531 214.106 38.5998 214.367 38.9644C214.635 39.323 214.963 39.5934 215.352 39.7757C215.741 39.958 216.194 40.0492 216.71 40.0492C217.142 40.0492 217.5 40.0127 217.786 39.9398C218.077 39.8669 218.311 39.7788 218.488 39.6754C218.67 39.566 218.81 39.4627 218.907 39.3655V37.0136H216.409V35.0628H221.642Z" fill="#F38313"/>
<path d="M246.027 13.8154C247.583 12.4393 250.694 8.03585 250.694 1.43066M250.694 17.9436C253.361 15.6502 258.695 10.3752 258.695 7.62302M256.028 23.4479C259.362 21.1545 266.03 16.0171 266.03 13.8154" stroke="black" stroke-width="1.33353" stroke-linecap="round"/>
<path d="M23.0422 52.624C21.1002 53.2985 16.6167 56.1785 14.2189 62.3028M20.2134 46.9922C16.9079 48.0877 10.0473 50.9166 9.04822 53.4684M17.2658 39.8267C13.3421 40.6645 5.29504 42.8504 4.49577 44.8918" stroke="black" stroke-width="1.33353" stroke-linecap="round"/>
</svg>
