<svg width="211" height="60" viewBox="0 0 211 60" fill="none" xmlns="http://www.w3.org/2000/svg">
<rect x="17" y="15" width="176" height="36" rx="16" fill="#FFE6CF"/>
<path d="M43.2871 36.4004V38H38.2764V36.4004H43.2871ZM38.9395 28.0469V38H36.8887V28.0469H38.9395ZM52.1416 36.4004V38H46.8438V36.4004H52.1416ZM47.5137 28.0469V38H45.4629V28.0469H47.5137ZM51.4512 32.1006V33.6592H46.8438V32.1006H51.4512ZM52.1348 28.0469V29.6533H46.8438V28.0469H52.1348ZM58.3848 29.749L55.6777 38H53.4971L57.1953 28.0469H58.583L58.3848 29.749ZM60.6338 38L57.9199 29.749L57.7012 28.0469H59.1025L62.8213 38H60.6338ZM60.5107 34.2949V35.9014H55.2539V34.2949H60.5107ZM67.7998 38H65.6328L65.6465 36.4004H67.7998C68.3376 36.4004 68.791 36.2796 69.1602 36.0381C69.5293 35.792 69.8073 35.4342 69.9941 34.9648C70.1855 34.4954 70.2812 33.9281 70.2812 33.2627V32.7773C70.2812 32.2669 70.2266 31.818 70.1172 31.4307C70.0124 31.0433 69.8551 30.7174 69.6455 30.4531C69.4359 30.1888 69.1784 29.9906 68.873 29.8584C68.5677 29.7217 68.2168 29.6533 67.8203 29.6533H65.5918V28.0469H67.8203C68.4857 28.0469 69.0941 28.1608 69.6455 28.3887C70.2015 28.612 70.6823 28.9333 71.0879 29.3525C71.4935 29.7718 71.8057 30.2731 72.0244 30.8564C72.2477 31.4352 72.3594 32.0801 72.3594 32.791V33.2627C72.3594 33.9691 72.2477 34.6139 72.0244 35.1973C71.8057 35.7806 71.4935 36.2819 71.0879 36.7012C70.6868 37.1159 70.2061 37.4372 69.6455 37.665C69.0895 37.8883 68.4743 38 67.7998 38ZM66.7949 28.0469V38H64.7441V28.0469H66.7949ZM81.5283 36.4004V38H76.2305V36.4004H81.5283ZM76.9004 28.0469V38H74.8496V28.0469H76.9004ZM80.8379 32.1006V33.6592H76.2305V32.1006H80.8379ZM81.5215 28.0469V29.6533H76.2305V28.0469H81.5215ZM83.7246 28.0469H87.4365C88.1976 28.0469 88.8516 28.1608 89.3984 28.3887C89.9499 28.6165 90.3737 28.9538 90.6699 29.4004C90.9661 29.847 91.1143 30.3962 91.1143 31.0479C91.1143 31.5811 91.0231 32.0391 90.8408 32.4219C90.6631 32.8001 90.4102 33.1169 90.082 33.3721C89.7585 33.6227 89.3779 33.8232 88.9404 33.9736L88.291 34.3154H85.0645L85.0508 32.7158H87.4502C87.8102 32.7158 88.1087 32.652 88.3457 32.5244C88.5827 32.3968 88.7604 32.2191 88.8789 31.9912C89.002 31.7633 89.0635 31.499 89.0635 31.1982C89.0635 30.8792 89.0042 30.6035 88.8857 30.3711C88.7673 30.1387 88.5872 29.9609 88.3457 29.8379C88.1042 29.7148 87.8011 29.6533 87.4365 29.6533H85.7754V38H83.7246V28.0469ZM89.2891 38L87.0195 33.5635L89.1865 33.5498L91.4834 37.9043V38H89.2891ZM98.875 35.3955C98.875 35.2178 98.8477 35.0583 98.793 34.917C98.7428 34.7712 98.6471 34.639 98.5059 34.5205C98.3646 34.3975 98.1663 34.2767 97.9111 34.1582C97.6559 34.0397 97.3255 33.9167 96.9199 33.7891C96.4688 33.6432 96.0404 33.4792 95.6348 33.2969C95.2337 33.1146 94.8783 32.9027 94.5684 32.6611C94.263 32.415 94.0215 32.1302 93.8438 31.8066C93.6706 31.4831 93.584 31.1071 93.584 30.6787C93.584 30.264 93.6751 29.888 93.8574 29.5508C94.0397 29.209 94.2949 28.9173 94.623 28.6758C94.9512 28.4297 95.3385 28.2406 95.7852 28.1084C96.2363 27.9762 96.7308 27.9102 97.2686 27.9102C98.0023 27.9102 98.6426 28.0423 99.1895 28.3066C99.7363 28.571 100.16 28.9333 100.461 29.3936C100.766 29.8538 100.919 30.3802 100.919 30.9727H98.8818C98.8818 30.681 98.8203 30.4258 98.6973 30.207C98.5788 29.9837 98.3965 29.8083 98.1504 29.6807C97.9089 29.5531 97.6035 29.4893 97.2344 29.4893C96.8789 29.4893 96.5827 29.5439 96.3457 29.6533C96.1087 29.7581 95.931 29.9017 95.8125 30.084C95.694 30.2617 95.6348 30.4622 95.6348 30.6855C95.6348 30.8542 95.6758 31.0068 95.7578 31.1436C95.8444 31.2803 95.972 31.4079 96.1406 31.5264C96.3092 31.6449 96.5166 31.7565 96.7627 31.8613C97.0088 31.9661 97.2936 32.0687 97.6172 32.1689C98.1595 32.333 98.6357 32.5176 99.0459 32.7227C99.4606 32.9277 99.807 33.1579 100.085 33.4131C100.363 33.6683 100.573 33.9577 100.714 34.2812C100.855 34.6048 100.926 34.9717 100.926 35.3818C100.926 35.8148 100.841 36.2021 100.673 36.5439C100.504 36.8857 100.26 37.1751 99.9414 37.4121C99.6224 37.6491 99.2419 37.8291 98.7998 37.9521C98.3577 38.0752 97.8633 38.1367 97.3164 38.1367C96.8242 38.1367 96.3389 38.0729 95.8604 37.9453C95.3818 37.8132 94.9466 37.6149 94.5547 37.3506C94.1673 37.0863 93.8574 36.749 93.625 36.3389C93.3926 35.9287 93.2764 35.4434 93.2764 34.8828H95.334C95.334 35.1927 95.3818 35.4548 95.4775 35.6689C95.5732 35.8831 95.7077 36.0563 95.8809 36.1885C96.0586 36.3206 96.2682 36.4163 96.5098 36.4756C96.7559 36.5348 97.0247 36.5645 97.3164 36.5645C97.6719 36.5645 97.9635 36.5143 98.1914 36.4141C98.4238 36.3138 98.5947 36.1748 98.7041 35.9971C98.818 35.8193 98.875 35.6188 98.875 35.3955ZM109.958 32.1006V33.7002H104.763V32.1006H109.958ZM105.371 28.0469V38H103.32V28.0469H105.371ZM111.421 28.0469V38H109.377V28.0469H111.421ZM116.386 28.0469V38H114.342V28.0469H116.386ZM123.183 34.4521H120.646V32.8525H123.183C123.575 32.8525 123.894 32.7887 124.14 32.6611C124.386 32.529 124.566 32.3467 124.68 32.1143C124.794 31.8818 124.851 31.6198 124.851 31.3281C124.851 31.0319 124.794 30.7562 124.68 30.501C124.566 30.2458 124.386 30.0407 124.14 29.8857C123.894 29.7308 123.575 29.6533 123.183 29.6533H121.357V38H119.307V28.0469H123.183C123.962 28.0469 124.63 28.1882 125.186 28.4707C125.746 28.7487 126.174 29.1338 126.471 29.626C126.767 30.1182 126.915 30.681 126.915 31.3145C126.915 31.957 126.767 32.513 126.471 32.9824C126.174 33.4518 125.746 33.8141 125.186 34.0693C124.63 34.3245 123.962 34.4521 123.183 34.4521ZM137.897 28.0469V38H135.854V28.0469H137.897ZM140.96 28.0469V29.6533H132.839V28.0469H140.96ZM149.808 36.4004V38H144.51V36.4004H149.808ZM145.18 28.0469V38H143.129V28.0469H145.18ZM149.117 32.1006V33.6592H144.51V32.1006H149.117ZM149.801 28.0469V29.6533H144.51V28.0469H149.801ZM156.051 29.749L153.344 38H151.163L154.861 28.0469H156.249L156.051 29.749ZM158.3 38L155.586 29.749L155.367 28.0469H156.769L160.487 38H158.3ZM158.177 34.2949V35.9014H152.92V34.2949H158.177ZM163.347 28.0469H165.083L167.64 35.3545L170.196 28.0469H171.933L168.337 38H166.942L163.347 28.0469ZM162.41 28.0469H164.14L164.454 35.1699V38H162.41V28.0469ZM171.14 28.0469H172.876V38H170.825V35.1699L171.14 28.0469Z" fill="#F38313"/>
<path d="M193 11.1567C194.317 10.0282 196.95 6.4169 196.95 1M196.95 14.5423C199.207 12.6614 203.721 8.33539 203.721 6.07834M201.464 19.0563C204.285 17.1755 209.928 12.9623 209.928 11.1567" stroke="black" stroke-linecap="round"/>
<path d="M18.5486 49.2122C17.0416 50.0702 13.7705 53.1156 12.7417 58.4339M15.3136 45.1382C12.7405 46.5561 7.48694 49.9461 7.05828 52.162M11.739 39.8489C8.61185 41.1597 2.27178 44.2246 1.92886 45.9973" stroke="black" stroke-linecap="round"/>
</svg>
