<svg width="69" height="27" viewBox="0 0 69 27" fill="none" xmlns="http://www.w3.org/2000/svg">
<rect x="9.55762" y="7.37305" width="54.1637" height="16.9925" rx="8.49627" fill="#DCECFF"/>
<path d="M19.613 14.2397L18.1756 18.6211H17.0176L18.9814 13.3358H19.7183L19.613 14.2397ZM20.8073 18.6211L19.3662 14.2397L19.25 13.3358H19.9942L21.9689 18.6211H20.8073ZM20.742 16.6536V17.5067H17.9505V16.6536H20.742ZM25.0591 16.3015H23.7015L23.6942 15.5537H24.834C25.0349 15.5537 25.1994 15.5283 25.3277 15.4775C25.456 15.4243 25.5515 15.348 25.6145 15.2488C25.6798 15.1472 25.7125 15.0238 25.7125 14.8786C25.7125 14.714 25.681 14.5809 25.6181 14.4793C25.5576 14.3776 25.462 14.3038 25.3313 14.2578C25.2031 14.2119 25.0373 14.1889 24.834 14.1889H24.079V18.6211H22.99V13.3358H24.834C25.1414 13.3358 25.416 13.3649 25.658 13.4229C25.9024 13.481 26.1094 13.5693 26.2788 13.6879C26.4482 13.8065 26.5776 13.9565 26.6672 14.138C26.7567 14.3171 26.8015 14.5301 26.8015 14.7769C26.8015 14.9947 26.7519 15.1956 26.6526 15.3795C26.5558 15.5634 26.4022 15.7135 26.1916 15.8296C25.9835 15.9458 25.7113 16.0099 25.3749 16.022L25.0591 16.3015ZM25.0119 18.6211H23.4038L23.8285 17.7717H25.0119C25.2031 17.7717 25.3592 17.7414 25.4802 17.6809C25.6012 17.618 25.6907 17.5333 25.7488 17.4268C25.8069 17.3203 25.8359 17.1981 25.8359 17.0602C25.8359 16.9053 25.8093 16.771 25.756 16.6573C25.7052 16.5435 25.6229 16.4564 25.5092 16.3959C25.3955 16.333 25.2454 16.3015 25.0591 16.3015H24.01L24.0173 15.5537H25.3241L25.5745 15.8478C25.8964 15.8429 26.1553 15.8998 26.3514 16.0184C26.5498 16.1345 26.6938 16.2858 26.7833 16.4721C26.8753 16.6585 26.9213 16.8581 26.9213 17.0711C26.9213 17.4099 26.8475 17.6954 26.6998 17.9278C26.5522 18.1577 26.3356 18.3307 26.0501 18.4469C25.7669 18.563 25.4209 18.6211 25.0119 18.6211ZM32.6105 15.855V16.1055C32.6105 16.5072 32.5561 16.8678 32.4472 17.1872C32.3383 17.5067 32.1846 17.7789 31.9861 18.004C31.7877 18.2266 31.5505 18.3972 31.2747 18.5158C31.0012 18.6344 30.6975 18.6937 30.3635 18.6937C30.032 18.6937 29.7283 18.6344 29.4524 18.5158C29.1789 18.3972 28.9418 18.2266 28.7409 18.004C28.5401 17.7789 28.384 17.5067 28.2727 17.1872C28.1638 16.8678 28.1093 16.5072 28.1093 16.1055V15.855C28.1093 15.4509 28.1638 15.0903 28.2727 14.7733C28.3816 14.4539 28.5352 14.1816 28.7337 13.9565C28.9345 13.7315 29.1717 13.5597 29.4451 13.4411C29.721 13.3225 30.0247 13.2632 30.3563 13.2632C30.6902 13.2632 30.9939 13.3225 31.2674 13.4411C31.5433 13.5597 31.7804 13.7315 31.9789 13.9565C32.1797 14.1816 32.3346 14.4539 32.4435 14.7733C32.5548 15.0903 32.6105 15.4509 32.6105 15.855ZM31.5106 16.1055V15.8478C31.5106 15.5671 31.4852 15.3202 31.4344 15.1073C31.3836 14.8943 31.3085 14.7152 31.2093 14.57C31.1101 14.4248 30.9891 14.3159 30.8463 14.2433C30.7035 14.1683 30.5402 14.1308 30.3563 14.1308C30.1724 14.1308 30.009 14.1683 29.8662 14.2433C29.7259 14.3159 29.6061 14.4248 29.5069 14.57C29.4101 14.7152 29.3362 14.8943 29.2854 15.1073C29.2346 15.3202 29.2092 15.5671 29.2092 15.8478V16.1055C29.2092 16.3838 29.2346 16.6306 29.2854 16.846C29.3362 17.059 29.4113 17.2393 29.5105 17.3869C29.6097 17.5321 29.7307 17.6422 29.8735 17.7172C30.0163 17.7922 30.1796 17.8298 30.3635 17.8298C30.5475 17.8298 30.7108 17.7922 30.8536 17.7172C30.9964 17.6422 31.1162 17.5321 31.213 17.3869C31.3098 17.2393 31.3836 17.059 31.4344 16.846C31.4852 16.6306 31.5106 16.3838 31.5106 16.1055ZM36.8441 13.3358H37.9295V16.8279C37.9295 17.2344 37.8424 17.5769 37.6681 17.8552C37.4963 18.1335 37.2579 18.3428 36.953 18.4832C36.6505 18.6235 36.302 18.6937 35.9076 18.6937C35.5131 18.6937 35.1622 18.6235 34.8549 18.4832C34.55 18.3428 34.3104 18.1335 34.1361 17.8552C33.9643 17.5769 33.8784 17.2344 33.8784 16.8279V13.3358H34.9674V16.8279C34.9674 17.065 35.0049 17.2586 35.0799 17.4087C35.155 17.5587 35.2626 17.6688 35.403 17.739C35.5458 17.8092 35.714 17.8443 35.9076 17.8443C36.106 17.8443 36.2742 17.8092 36.4121 17.739C36.5525 17.6688 36.659 17.5587 36.7316 17.4087C36.8066 17.2586 36.8441 17.065 36.8441 16.8279V13.3358ZM41.7202 13.3358V18.6211H40.6349V13.3358H41.7202ZM43.3465 13.3358V14.1889H39.034V13.3358H43.3465ZM49.603 13.3358H50.6884V16.8279C50.6884 17.2344 50.6013 17.5769 50.427 17.8552C50.2552 18.1335 50.0169 18.3428 49.7119 18.4832C49.4094 18.6235 49.061 18.6937 48.6665 18.6937C48.272 18.6937 47.9211 18.6235 47.6138 18.4832C47.3089 18.3428 47.0693 18.1335 46.8951 17.8552C46.7232 17.5769 46.6373 17.2344 46.6373 16.8279V13.3358H47.7263V16.8279C47.7263 17.065 47.7638 17.2586 47.8389 17.4087C47.9139 17.5587 48.0216 17.6688 48.1619 17.739C48.3047 17.8092 48.4729 17.8443 48.6665 17.8443C48.8649 17.8443 49.0331 17.8092 49.1711 17.739C49.3114 17.6688 49.4179 17.5587 49.4905 17.4087C49.5655 17.2586 49.603 17.065 49.603 16.8279V13.3358ZM54.8676 17.2381C54.8676 17.1437 54.853 17.059 54.824 16.984C54.7974 16.9065 54.7466 16.8363 54.6715 16.7734C54.5965 16.7081 54.4913 16.644 54.3557 16.581C54.2202 16.5181 54.0448 16.4528 53.8294 16.385C53.5898 16.3076 53.3623 16.2205 53.1469 16.1237C52.934 16.0269 52.7452 15.9143 52.5807 15.7861C52.4185 15.6554 52.2903 15.5041 52.1959 15.3323C52.1039 15.1605 52.058 14.9608 52.058 14.7334C52.058 14.5131 52.1064 14.3135 52.2032 14.1344C52.3 13.9529 52.4355 13.798 52.6097 13.6698C52.7839 13.5391 52.9896 13.4387 53.2268 13.3685C53.4664 13.2983 53.729 13.2632 54.0145 13.2632C54.4041 13.2632 54.7441 13.3334 55.0345 13.4738C55.3249 13.6141 55.55 13.8065 55.7097 14.0509C55.8719 14.2953 55.9529 14.5749 55.9529 14.8895H54.8712C54.8712 14.7346 54.8385 14.5991 54.7732 14.4829C54.7103 14.3643 54.6135 14.2711 54.4828 14.2034C54.3545 14.1356 54.1924 14.1017 53.9964 14.1017C53.8076 14.1017 53.6503 14.1308 53.5245 14.1889C53.3986 14.2445 53.3042 14.3208 53.2413 14.4176C53.1784 14.5119 53.1469 14.6184 53.1469 14.737C53.1469 14.8265 53.1687 14.9076 53.2123 14.9802C53.2583 15.0528 53.326 15.1206 53.4156 15.1835C53.5051 15.2464 53.6152 15.3057 53.7459 15.3614C53.8766 15.417 54.0278 15.4715 54.1996 15.5247C54.4876 15.6118 54.7405 15.7098 54.9583 15.8187C55.1785 15.9276 55.3625 16.0498 55.5101 16.1854C55.6577 16.3209 55.769 16.4746 55.844 16.6464C55.9191 16.8182 55.9566 17.013 55.9566 17.2308C55.9566 17.4607 55.9118 17.6664 55.8223 17.8479C55.7327 18.0294 55.6032 18.1831 55.4338 18.3089C55.2644 18.4348 55.0624 18.5303 54.8276 18.5957C54.5929 18.661 54.3303 18.6937 54.0399 18.6937C53.7786 18.6937 53.5208 18.6598 53.2667 18.5921C53.0126 18.5219 52.7815 18.4166 52.5734 18.2762C52.3677 18.1359 52.2032 17.9568 52.0797 17.739C51.9563 17.5212 51.8946 17.2635 51.8946 16.9658H52.9872C52.9872 17.1304 53.0126 17.2695 53.0635 17.3833C53.1143 17.497 53.1857 17.589 53.2776 17.6591C53.372 17.7293 53.4833 17.7801 53.6116 17.8116C53.7423 17.8431 53.885 17.8588 54.0399 17.8588C54.2287 17.8588 54.3836 17.8322 54.5046 17.7789C54.628 17.7257 54.7187 17.6519 54.7768 17.5575C54.8373 17.4631 54.8676 17.3566 54.8676 17.2381Z" fill="#2563AC"/>
<path d="M60.0352 5.77915C60.6547 5.24813 61.8937 3.54888 61.8937 1M61.8937 7.3722C62.9557 6.48717 65.0798 4.45161 65.0798 3.38957M64.0178 9.49627C65.3453 8.61124 68.0004 6.62878 68.0004 5.77915" stroke="black" stroke-width="0.531017" stroke-linecap="round"/>
<path d="M9.17503 22.2993C8.4017 22.5596 6.61634 23.671 5.66154 26.0343M8.04856 20.126C6.73232 20.5488 4.0004 21.6405 3.60256 22.6252M6.87483 17.361C5.31242 17.6842 2.10803 18.5278 1.78976 19.3155" stroke="black" stroke-width="0.531017" stroke-linecap="round"/>
</svg>
