<svg width="161" height="69" viewBox="0 0 161 69" fill="none" xmlns="http://www.w3.org/2000/svg">
<rect x="27" y="18" width="118" height="44" rx="21.3365" fill="#FFF0E0"/>
<path d="M49.3538 41.2688H45.9718V39.1357H49.3538C49.8765 39.1357 50.3019 39.0506 50.63 38.8805C50.9582 38.7042 51.1983 38.4611 51.3502 38.1512C51.5021 37.8412 51.5781 37.4918 51.5781 37.1029C51.5781 36.7078 51.5021 36.3402 51.3502 35.9998C51.1983 35.6595 50.9582 35.386 50.63 35.1794C50.3019 34.9728 49.8765 34.8694 49.3538 34.8694H46.9199V46H44.1851V32.7272H49.3538C50.393 32.7272 51.2833 32.9156 52.0248 33.2924C52.7723 33.6631 53.3435 34.1766 53.7386 34.833C54.1336 35.4893 54.3311 36.2399 54.3311 37.0846C54.3311 37.9415 54.1336 38.6829 53.7386 39.3089C53.3435 39.9349 52.7723 40.418 52.0248 40.7583C51.2833 41.0987 50.393 41.2688 49.3538 41.2688ZM66.4032 38.133V40.2661H59.4751V38.133H66.4032ZM60.2864 32.7272V46H57.5516V32.7272H60.2864ZM68.354 32.7272V46H65.6283V32.7272H68.354ZM77.6275 34.9971L74.0176 46H71.1096L76.0413 32.7272H77.8919L77.6275 34.9971ZM80.6267 46L77.0076 34.9971L76.7159 32.7272H78.5847L83.5438 46H80.6267ZM80.4626 41.0592V43.2014H73.4524V41.0592H80.4626ZM86.1079 32.7272H91.0579C92.0728 32.7272 92.9449 32.8791 93.6742 33.183C94.4095 33.4869 94.9747 33.9366 95.3697 34.5322C95.7647 35.1277 95.9623 35.86 95.9623 36.7291C95.9623 37.4401 95.8407 38.0509 95.5976 38.5614C95.3606 39.0658 95.0233 39.4882 94.5858 39.8285C94.1543 40.1628 93.6468 40.4302 93.0634 40.6307L92.1974 41.0865H87.8947L87.8764 38.9534H91.0761C91.5562 38.9534 91.9543 38.8683 92.2703 38.6981C92.5863 38.528 92.8233 38.291 92.9814 37.9871C93.1454 37.6832 93.2275 37.3307 93.2275 36.9296C93.2275 36.5042 93.1485 36.1366 92.9905 35.8266C92.8325 35.5167 92.5924 35.2797 92.2703 35.1156C91.9482 34.9515 91.5441 34.8694 91.0579 34.8694H88.8427V46H86.1079V32.7272ZM93.5283 46L90.5018 40.0838L93.3916 40.0655L96.4545 45.8724V46H93.5283ZM100.65 32.7272H102.966L106.375 42.4721L109.785 32.7272H112.1L107.305 46H105.445L100.65 32.7272ZM99.4016 32.7272H101.708L102.127 42.226V46H99.4016V32.7272ZM111.043 32.7272H113.358V46H110.623V42.226L111.043 32.7272ZM122.65 34.9971L119.04 46H116.132L121.064 32.7272H122.914L122.65 34.9971ZM125.649 46L122.03 34.9971L121.738 32.7272H123.607L128.566 46H125.649ZM125.485 41.0592V43.2014H118.475V41.0592H125.485Z" fill="#F38313"/>
<path d="M140.027 13.3847C141.583 12.0086 144.695 7.60518 144.695 1M144.695 17.513C147.362 15.2195 152.696 9.94452 152.696 7.19236M150.029 23.0173C153.363 20.7238 160.03 15.5864 160.03 13.3847" stroke="black" stroke-width="1.33353" stroke-linecap="round"/>
<path d="M23.0427 57.1928C21.1007 57.8673 16.6172 60.7474 14.2194 66.8716M20.2138 51.561C16.9084 52.6565 10.0478 55.4855 9.0487 58.0373M17.2663 44.3956C13.3426 45.2333 5.29552 47.4192 4.49626 49.4607" stroke="black" stroke-width="1.33353" stroke-linecap="round"/>
</svg>
