<svg width="146" height="69" viewBox="0 0 146 69" fill="none" xmlns="http://www.w3.org/2000/svg">
<rect x="27" y="18" width="102" height="44" rx="21.3365" fill="#FFF0E0"/>
<path d="M45.1851 32.7272H50.135C51.1499 32.7272 52.022 32.8791 52.7513 33.183C53.4866 33.4869 54.0518 33.9366 54.4469 34.5322C54.8419 35.1277 55.0394 35.86 55.0394 36.7291C55.0394 37.4401 54.9178 38.0509 54.6748 38.5614C54.4377 39.0658 54.1005 39.4882 53.6629 39.8285C53.2314 40.1628 52.7239 40.4302 52.1405 40.6307L51.2745 41.0865H46.9718L46.9536 38.9534H50.1533C50.6334 38.9534 51.0314 38.8683 51.3474 38.6981C51.6635 38.528 51.9005 38.291 52.0585 37.9871C52.2226 37.6832 52.3046 37.3307 52.3046 36.9296C52.3046 36.5042 52.2256 36.1366 52.0676 35.8266C51.9096 35.5167 51.6695 35.2797 51.3474 35.1156C51.0253 34.9515 50.6212 34.8694 50.135 34.8694H47.9199V46H45.1851V32.7272ZM52.6054 46L49.579 40.0838L52.4687 40.0655L55.5317 45.8724V46H52.6054ZM67.385 43.8669V46H60.3201V43.8669H67.385ZM61.2135 32.7272V46H58.4787V32.7272H61.2135ZM66.4643 38.133V40.2114H60.3201V38.133H66.4643ZM67.3759 32.7272V34.8694H60.3201V32.7272H67.3759ZM76.4306 32.7272V46H73.7049V32.7272H76.4306ZM80.5145 32.7272V34.8694H69.6848V32.7272H80.5145ZM87.819 34.9971L84.2091 46H81.3011L86.2328 32.7272H88.0833L87.819 34.9971ZM90.8181 46L87.1991 34.9971L86.9074 32.7272H88.7762L93.7352 46H90.8181ZM90.654 41.0592V43.2014H83.6439V41.0592H90.654ZM99.2074 32.7272V46H96.4817V32.7272H99.2074ZM111.635 43.8669V46H104.953V43.8669H111.635ZM105.837 32.7272V46H103.102V32.7272H105.837Z" fill="#F38313"/>
<path d="M125.027 13.3847C126.583 12.0086 129.695 7.60518 129.695 1M129.695 17.513C132.362 15.2195 137.696 9.94452 137.696 7.19236M135.029 23.0173C138.363 20.7238 145.03 15.5864 145.03 13.3847" stroke="black" stroke-width="1.33353" stroke-linecap="round"/>
<path d="M23.0427 57.1928C21.1007 57.8673 16.6172 60.7474 14.2194 66.8716M20.2138 51.561C16.9084 52.6565 10.0478 55.4855 9.0487 58.0373M17.2663 44.3956C13.3426 45.2333 5.29552 47.4192 4.49626 49.4607" stroke="black" stroke-width="1.33353" stroke-linecap="round"/>
</svg>
