<svg width="24" height="24" viewBox="0 0 24 24" fill="none" xmlns="http://www.w3.org/2000/svg">
<rect width="23.7088" height="24" rx="4" fill="#2563AC"/>
<path d="M15.1005 8.78589H16.794V10.2145H15.1005V8.78589ZM15.1005 10.9287H16.794V12.3573H15.1005V10.9287ZM12.5603 8.78589H14.2538V10.2145H12.5603V8.78589ZM12.5603 10.9287H14.2538V12.3573H12.5603V10.9287Z" fill="white"/>
<path d="M11.5013 15.5714C11.852 15.5714 12.1363 15.3316 12.1363 15.0357C12.1363 14.7398 11.852 14.5 11.5013 14.5C11.1505 14.5 10.8662 14.7398 10.8662 15.0357C10.8662 15.3316 11.1505 15.5714 11.5013 15.5714Z" fill="white"/>
<path d="M14.2534 17H8.74958C8.52507 16.9998 8.30983 16.9245 8.15109 16.7906C7.99234 16.6567 7.90306 16.4751 7.90283 16.2857V7.71429C7.90306 7.5249 7.99234 7.34333 8.15109 7.20942C8.30983 7.0755 8.52507 7.00019 8.74958 7H14.2534V7.71429H8.74958V16.2857H14.2534V13.4286H15.1002V16.2857C15.0999 16.4751 15.0107 16.6567 14.8519 16.7906C14.6932 16.9245 14.4779 16.9998 14.2534 17Z" fill="white"/>
</svg>
