<svg width="129" height="50" viewBox="0 0 129 50" fill="none" xmlns="http://www.w3.org/2000/svg">
<rect x="18" y="13" width="102" height="32" rx="16" fill="#FFF0E0"/>
<path d="M36.9355 25.749L34.2285 34H32.0479L35.7461 24.0469H37.1338L36.9355 25.749ZM39.1846 34L36.4707 25.749L36.252 24.0469H37.6533L41.3721 34H39.1846ZM39.0615 30.2949V31.9014H33.8047V30.2949H39.0615ZM47.1914 29.6318H44.6348L44.6211 28.2236H46.7676C47.1458 28.2236 47.4557 28.1758 47.6973 28.0801C47.9388 27.9798 48.1188 27.8363 48.2373 27.6494C48.3604 27.458 48.4219 27.2256 48.4219 26.9521C48.4219 26.6423 48.3626 26.3916 48.2441 26.2002C48.1302 26.0088 47.9502 25.8698 47.7041 25.7832C47.4626 25.6966 47.1504 25.6533 46.7676 25.6533H45.3457V34H43.2949V24.0469H46.7676C47.3464 24.0469 47.8636 24.1016 48.3193 24.2109C48.7796 24.3203 49.1693 24.4867 49.4883 24.71C49.8073 24.9333 50.0511 25.2158 50.2197 25.5576C50.3883 25.8949 50.4727 26.2959 50.4727 26.7607C50.4727 27.1709 50.3792 27.5492 50.1924 27.8955C50.0101 28.2419 49.7207 28.5244 49.3242 28.7432C48.9323 28.9619 48.4196 29.0827 47.7861 29.1055L47.1914 29.6318ZM47.1025 34H44.0742L44.874 32.4004H47.1025C47.4626 32.4004 47.7565 32.3434 47.9844 32.2295C48.2122 32.111 48.3809 31.9515 48.4902 31.751C48.5996 31.5505 48.6543 31.3203 48.6543 31.0605C48.6543 30.7689 48.6042 30.516 48.5039 30.3018C48.4082 30.0876 48.2533 29.9235 48.0391 29.8096C47.8249 29.6911 47.5423 29.6318 47.1914 29.6318H45.2158L45.2295 28.2236H47.6904L48.1621 28.7773C48.7682 28.7682 49.2559 28.8753 49.625 29.0986C49.9987 29.3174 50.2699 29.6022 50.4385 29.9531C50.6117 30.304 50.6982 30.68 50.6982 31.0811C50.6982 31.7191 50.5592 32.2568 50.2812 32.6943C50.0033 33.1273 49.5954 33.4531 49.0576 33.6719C48.5244 33.8906 47.8727 34 47.1025 34ZM61.4121 28.791V29.2627C61.4121 30.0192 61.3096 30.6982 61.1045 31.2998C60.8994 31.9014 60.61 32.4141 60.2363 32.8379C59.8626 33.2572 59.416 33.5785 58.8965 33.8018C58.3815 34.0251 57.8096 34.1367 57.1807 34.1367C56.5563 34.1367 55.9844 34.0251 55.4648 33.8018C54.9499 33.5785 54.5033 33.2572 54.125 32.8379C53.7467 32.4141 53.4528 31.9014 53.2432 31.2998C53.0381 30.6982 52.9355 30.0192 52.9355 29.2627V28.791C52.9355 28.0299 53.0381 27.3509 53.2432 26.7539C53.4482 26.1523 53.7376 25.6396 54.1113 25.2158C54.4896 24.792 54.9362 24.4684 55.4512 24.2451C55.9707 24.0218 56.5426 23.9102 57.167 23.9102C57.7959 23.9102 58.3678 24.0218 58.8828 24.2451C59.4023 24.4684 59.849 24.792 60.2227 25.2158C60.6009 25.6396 60.8926 26.1523 61.0977 26.7539C61.3073 27.3509 61.4121 28.0299 61.4121 28.791ZM59.3408 29.2627V28.7773C59.3408 28.2487 59.293 27.7839 59.1973 27.3828C59.1016 26.9818 58.9603 26.6445 58.7734 26.3711C58.5866 26.0977 58.3587 25.8926 58.0898 25.7559C57.821 25.6146 57.5133 25.5439 57.167 25.5439C56.8206 25.5439 56.513 25.6146 56.2441 25.7559C55.9798 25.8926 55.7542 26.0977 55.5674 26.3711C55.3851 26.6445 55.2461 26.9818 55.1504 27.3828C55.0547 27.7839 55.0068 28.2487 55.0068 28.7773V29.2627C55.0068 29.7868 55.0547 30.2516 55.1504 30.6572C55.2461 31.0583 55.3874 31.3978 55.5742 31.6758C55.7611 31.9492 55.9889 32.1566 56.2578 32.2979C56.5267 32.4391 56.8343 32.5098 57.1807 32.5098C57.527 32.5098 57.8346 32.4391 58.1035 32.2979C58.3724 32.1566 58.598 31.9492 58.7803 31.6758C58.9626 31.3978 59.1016 31.0583 59.1973 30.6572C59.293 30.2516 59.3408 29.7868 59.3408 29.2627ZM69.3848 24.0469H71.4287V30.623C71.4287 31.3887 71.2646 32.0335 70.9365 32.5576C70.613 33.0817 70.1641 33.4759 69.5898 33.7402C69.0202 34.0046 68.3639 34.1367 67.6211 34.1367C66.8783 34.1367 66.2174 34.0046 65.6387 33.7402C65.0645 33.4759 64.6133 33.0817 64.2852 32.5576C63.9616 32.0335 63.7998 31.3887 63.7998 30.623V24.0469H65.8506V30.623C65.8506 31.0697 65.9212 31.4342 66.0625 31.7168C66.2038 31.9993 66.4066 32.2067 66.6709 32.3389C66.9398 32.471 67.2565 32.5371 67.6211 32.5371C67.9948 32.5371 68.3115 32.471 68.5713 32.3389C68.8356 32.2067 69.0361 31.9993 69.1729 31.7168C69.3141 31.4342 69.3848 31.0697 69.3848 30.623V24.0469ZM78.5674 24.0469V34H76.5234V24.0469H78.5674ZM81.6299 24.0469V25.6533H73.5088V24.0469H81.6299ZM93.4121 24.0469H95.4561V30.623C95.4561 31.3887 95.292 32.0335 94.9639 32.5576C94.6403 33.0817 94.1914 33.4759 93.6172 33.7402C93.0475 34.0046 92.3913 34.1367 91.6484 34.1367C90.9056 34.1367 90.2448 34.0046 89.666 33.7402C89.0918 33.4759 88.6406 33.0817 88.3125 32.5576C87.9889 32.0335 87.8271 31.3887 87.8271 30.623V24.0469H89.8779V30.623C89.8779 31.0697 89.9486 31.4342 90.0898 31.7168C90.2311 31.9993 90.4339 32.2067 90.6982 32.3389C90.9671 32.471 91.2839 32.5371 91.6484 32.5371C92.0221 32.5371 92.3389 32.471 92.5986 32.3389C92.863 32.2067 93.0635 31.9993 93.2002 31.7168C93.3415 31.4342 93.4121 31.0697 93.4121 30.623V24.0469ZM103.326 31.3955C103.326 31.2178 103.299 31.0583 103.244 30.917C103.194 30.7712 103.098 30.639 102.957 30.5205C102.816 30.3975 102.618 30.2767 102.362 30.1582C102.107 30.0397 101.777 29.9167 101.371 29.7891C100.92 29.6432 100.492 29.4792 100.086 29.2969C99.6849 29.1146 99.3294 28.9027 99.0195 28.6611C98.7142 28.415 98.4727 28.1302 98.2949 27.8066C98.1217 27.4831 98.0352 27.1071 98.0352 26.6787C98.0352 26.264 98.1263 25.888 98.3086 25.5508C98.4909 25.209 98.7461 24.9173 99.0742 24.6758C99.4023 24.4297 99.7897 24.2406 100.236 24.1084C100.688 23.9762 101.182 23.9102 101.72 23.9102C102.453 23.9102 103.094 24.0423 103.641 24.3066C104.188 24.571 104.611 24.9333 104.912 25.3936C105.217 25.8538 105.37 26.3802 105.37 26.9727H103.333C103.333 26.681 103.271 26.4258 103.148 26.207C103.03 25.9837 102.848 25.8083 102.602 25.6807C102.36 25.5531 102.055 25.4893 101.686 25.4893C101.33 25.4893 101.034 25.5439 100.797 25.6533C100.56 25.7581 100.382 25.9017 100.264 26.084C100.145 26.2617 100.086 26.4622 100.086 26.6855C100.086 26.8542 100.127 27.0068 100.209 27.1436C100.296 27.2803 100.423 27.4079 100.592 27.5264C100.76 27.6449 100.968 27.7565 101.214 27.8613C101.46 27.9661 101.745 28.0687 102.068 28.1689C102.611 28.333 103.087 28.5176 103.497 28.7227C103.912 28.9277 104.258 29.1579 104.536 29.4131C104.814 29.6683 105.024 29.9577 105.165 30.2812C105.306 30.6048 105.377 30.9717 105.377 31.3818C105.377 31.8148 105.293 32.2021 105.124 32.5439C104.955 32.8857 104.712 33.1751 104.393 33.4121C104.074 33.6491 103.693 33.8291 103.251 33.9521C102.809 34.0752 102.314 34.1367 101.768 34.1367C101.275 34.1367 100.79 34.0729 100.312 33.9453C99.833 33.8132 99.3978 33.6149 99.0059 33.3506C98.6185 33.0863 98.3086 32.749 98.0762 32.3389C97.8438 31.9287 97.7275 31.4434 97.7275 30.8828H99.7852C99.7852 31.1927 99.833 31.4548 99.9287 31.6689C100.024 31.8831 100.159 32.0563 100.332 32.1885C100.51 32.3206 100.719 32.4163 100.961 32.4756C101.207 32.5348 101.476 32.5645 101.768 32.5645C102.123 32.5645 102.415 32.5143 102.643 32.4141C102.875 32.3138 103.046 32.1748 103.155 31.9971C103.269 31.8193 103.326 31.6188 103.326 31.3955Z" fill="#F38313"/>
<path d="M113.057 10C114.223 9 116.557 5.8 116.557 1M116.557 13C118.557 11.3333 122.557 7.5 122.557 5.5M120.557 17C123.057 15.3333 128.057 11.6 128.057 10" stroke="black" stroke-linecap="round"/>
<path d="M17.2796 41.1094C15.8233 41.5996 12.4611 43.6925 10.663 48.143M15.1582 37.0168C12.6795 37.8129 7.53483 39.8687 6.78563 41.7231M12.9479 31.8096C10.0056 32.4184 3.97116 34.0069 3.3718 35.4904" stroke="black" stroke-linecap="round"/>
</svg>
