<svg width="197" height="50" viewBox="0 0 197 50" fill="none" xmlns="http://www.w3.org/2000/svg">
<rect x="15" y="9" width="172" height="32" rx="16" fill="#DCECFF"/>
<path d="M32.2881 28.4209L34.2705 20.0469H35.3779L35.6309 21.4414L33.5186 30H32.3291L32.2881 28.4209ZM31.2695 20.0469L32.9102 28.4209L32.7734 30H31.4473L29.2393 20.0469H31.2695ZM37.374 28.3867L38.9941 20.0469H41.0244L38.8232 30H37.4971L37.374 28.3867ZM36 20.0469L37.9961 28.4551L37.9414 30H36.752L34.626 21.4346L34.8994 20.0469H36ZM49.8174 28.4004V30H44.5195V28.4004H49.8174ZM45.1895 20.0469V30H43.1387V20.0469H45.1895ZM49.127 24.1006V25.6592H44.5195V24.1006H49.127ZM49.8105 20.0469V21.6533H44.5195V20.0469H49.8105ZM55.9102 25.6318H53.3535L53.3398 24.2236H55.4863C55.8646 24.2236 56.1745 24.1758 56.416 24.0801C56.6576 23.9798 56.8376 23.8363 56.9561 23.6494C57.0791 23.458 57.1406 23.2256 57.1406 22.9521C57.1406 22.6423 57.0814 22.3916 56.9629 22.2002C56.849 22.0088 56.6689 21.8698 56.4229 21.7832C56.1813 21.6966 55.8691 21.6533 55.4863 21.6533H54.0645V30H52.0137V20.0469H55.4863C56.0651 20.0469 56.5824 20.1016 57.0381 20.2109C57.4984 20.3203 57.888 20.4867 58.207 20.71C58.526 20.9333 58.7699 21.2158 58.9385 21.5576C59.1071 21.8949 59.1914 22.2959 59.1914 22.7607C59.1914 23.1709 59.098 23.5492 58.9111 23.8955C58.7288 24.2419 58.4395 24.5244 58.043 24.7432C57.651 24.9619 57.1383 25.0827 56.5049 25.1055L55.9102 25.6318ZM55.8213 30H52.793L53.5928 28.4004H55.8213C56.1813 28.4004 56.4753 28.3434 56.7031 28.2295C56.931 28.111 57.0996 27.9515 57.209 27.751C57.3184 27.5505 57.373 27.3203 57.373 27.0605C57.373 26.7689 57.3229 26.516 57.2227 26.3018C57.127 26.0876 56.972 25.9235 56.7578 25.8096C56.5436 25.6911 56.2611 25.6318 55.9102 25.6318H53.9346L53.9482 24.2236H56.4092L56.8809 24.7773C57.487 24.7682 57.9746 24.8753 58.3438 25.0986C58.7174 25.3174 58.9886 25.6022 59.1572 25.9531C59.3304 26.304 59.417 26.68 59.417 27.0811C59.417 27.7191 59.278 28.2568 59 28.6943C58.722 29.1273 58.3141 29.4531 57.7764 29.6719C57.2432 29.8906 56.5915 30 55.8213 30ZM69.4971 30H67.3301L67.3438 28.4004H69.4971C70.0348 28.4004 70.4883 28.2796 70.8574 28.0381C71.2266 27.792 71.5046 27.4342 71.6914 26.9648C71.8828 26.4954 71.9785 25.9281 71.9785 25.2627V24.7773C71.9785 24.2669 71.9238 23.818 71.8145 23.4307C71.7096 23.0433 71.5524 22.7174 71.3428 22.4531C71.1331 22.1888 70.8757 21.9906 70.5703 21.8584C70.265 21.7217 69.9141 21.6533 69.5176 21.6533H67.2891V20.0469H69.5176C70.1829 20.0469 70.7913 20.1608 71.3428 20.3887C71.8988 20.612 72.3796 20.9333 72.7852 21.3525C73.1908 21.7718 73.5029 22.2731 73.7217 22.8564C73.945 23.4352 74.0566 24.0801 74.0566 24.791V25.2627C74.0566 25.9691 73.945 26.6139 73.7217 27.1973C73.5029 27.7806 73.1908 28.2819 72.7852 28.7012C72.3841 29.1159 71.9033 29.4372 71.3428 29.665C70.7868 29.8883 70.1715 30 69.4971 30ZM68.4922 20.0469V30H66.4414V20.0469H68.4922ZM83.2256 28.4004V30H77.9277V28.4004H83.2256ZM78.5977 20.0469V30H76.5469V20.0469H78.5977ZM82.5352 24.1006V25.6592H77.9277V24.1006H82.5352ZM83.2188 20.0469V21.6533H77.9277V20.0469H83.2188ZM89.0107 27.9219L91.3555 20.0469H93.6387L90.1729 30H88.6689L89.0107 27.9219ZM86.8506 20.0469L89.1885 27.9219L89.5439 30H88.0264L84.5811 20.0469H86.8506ZM102.247 28.4004V30H96.9492V28.4004H102.247ZM97.6191 20.0469V30H95.5684V20.0469H97.6191ZM101.557 24.1006V25.6592H96.9492V24.1006H101.557ZM102.24 20.0469V21.6533H96.9492V20.0469H102.24ZM110.842 28.4004V30H105.831V28.4004H110.842ZM106.494 20.0469V30H104.443V20.0469H106.494ZM120.742 24.791V25.2627C120.742 26.0192 120.64 26.6982 120.435 27.2998C120.229 27.9014 119.94 28.4141 119.566 28.8379C119.193 29.2572 118.746 29.5785 118.227 29.8018C117.712 30.0251 117.14 30.1367 116.511 30.1367C115.886 30.1367 115.314 30.0251 114.795 29.8018C114.28 29.5785 113.833 29.2572 113.455 28.8379C113.077 28.4141 112.783 27.9014 112.573 27.2998C112.368 26.6982 112.266 26.0192 112.266 25.2627V24.791C112.266 24.0299 112.368 23.3509 112.573 22.7539C112.778 22.1523 113.068 21.6396 113.441 21.2158C113.82 20.792 114.266 20.4684 114.781 20.2451C115.301 20.0218 115.873 19.9102 116.497 19.9102C117.126 19.9102 117.698 20.0218 118.213 20.2451C118.732 20.4684 119.179 20.792 119.553 21.2158C119.931 21.6396 120.223 22.1523 120.428 22.7539C120.637 23.3509 120.742 24.0299 120.742 24.791ZM118.671 25.2627V24.7773C118.671 24.2487 118.623 23.7839 118.527 23.3828C118.432 22.9818 118.29 22.6445 118.104 22.3711C117.917 22.0977 117.689 21.8926 117.42 21.7559C117.151 21.6146 116.843 21.5439 116.497 21.5439C116.151 21.5439 115.843 21.6146 115.574 21.7559C115.31 21.8926 115.084 22.0977 114.897 22.3711C114.715 22.6445 114.576 22.9818 114.48 23.3828C114.385 23.7839 114.337 24.2487 114.337 24.7773V25.2627C114.337 25.7868 114.385 26.2516 114.48 26.6572C114.576 27.0583 114.717 27.3978 114.904 27.6758C115.091 27.9492 115.319 28.1566 115.588 28.2979C115.857 28.4391 116.164 28.5098 116.511 28.5098C116.857 28.5098 117.165 28.4391 117.434 28.2979C117.702 28.1566 117.928 27.9492 118.11 27.6758C118.293 27.3978 118.432 27.0583 118.527 26.6572C118.623 26.2516 118.671 25.7868 118.671 25.2627ZM127.095 26.4521H124.559V24.8525H127.095C127.487 24.8525 127.806 24.7887 128.052 24.6611C128.298 24.529 128.478 24.3467 128.592 24.1143C128.706 23.8818 128.763 23.6198 128.763 23.3281C128.763 23.0319 128.706 22.7562 128.592 22.501C128.478 22.2458 128.298 22.0407 128.052 21.8857C127.806 21.7308 127.487 21.6533 127.095 21.6533H125.27V30H123.219V20.0469H127.095C127.874 20.0469 128.542 20.1882 129.098 20.4707C129.658 20.7487 130.087 21.1338 130.383 21.626C130.679 22.1182 130.827 22.681 130.827 23.3145C130.827 23.957 130.679 24.513 130.383 24.9824C130.087 25.4518 129.658 25.8141 129.098 26.0693C128.542 26.3245 127.874 26.4521 127.095 26.4521ZM134.179 20.0469H135.915L138.472 27.3545L141.028 20.0469H142.765L139.169 30H137.774L134.179 20.0469ZM133.242 20.0469H134.972L135.286 27.1699V30H133.242V20.0469ZM141.972 20.0469H143.708V30H141.657V27.1699L141.972 20.0469ZM153.185 28.4004V30H147.887V28.4004H153.185ZM148.557 20.0469V30H146.506V20.0469H148.557ZM152.494 24.1006V25.6592H147.887V24.1006H152.494ZM153.178 20.0469V21.6533H147.887V20.0469H153.178ZM163.481 20.0469V30H161.431L157.432 23.3281V30H155.381V20.0469H157.432L161.438 26.7256V20.0469H163.481ZM170.511 20.0469V30H168.467V20.0469H170.511ZM173.573 20.0469V21.6533H165.452V20.0469H173.573Z" fill="#2563AC"/>
<path d="M181.5 10C182.666 9 185 5.8 185 1M185 13C187 11.3333 191 7.5 191 5.5M189 17C191.5 15.3333 196.5 11.6 196.5 10" stroke="black" stroke-linecap="round"/>
<path d="M17.2791 41.1093C15.8228 41.5995 12.4606 43.6924 10.6626 48.1429M15.1578 37.0166C12.6791 37.8128 7.53434 39.8686 6.78514 41.7229M12.9474 31.8095C10.0051 32.4183 3.97067 34.0068 3.37131 35.4903" stroke="black" stroke-linecap="round"/>
</svg>
