<svg width="24" height="24" viewBox="0 0 24 24" fill="none" xmlns="http://www.w3.org/2000/svg">
<rect width="23.7088" height="24" rx="4" fill="#F38313"/>
<path d="M16.1761 13.4286L16.7935 17H6.91479L7.53221 13.4286H8.65128C8.48728 13.1012 8.36348 12.7571 8.27987 12.3962C8.19626 12.0353 8.15285 11.6652 8.14963 11.2857C8.14963 10.8914 8.19304 10.5119 8.27987 10.1473C8.36669 9.78274 8.4921 9.44234 8.65611 9.12612C8.82011 8.8099 9.01305 8.51972 9.23493 8.25558C9.45682 7.99144 9.70604 7.76823 9.98259 7.58594C10.2591 7.40365 10.555 7.26042 10.8701 7.15625C11.1853 7.05208 11.5133 7 11.8541 7C12.195 7 12.523 7.05022 12.8381 7.15067C13.1533 7.25112 13.4475 7.39621 13.7209 7.58594C13.9942 7.77567 14.245 7.99888 14.4733 8.25558C14.7017 8.51228 14.8946 8.8006 15.0522 9.12054C15.2097 9.44048 15.3335 9.78274 15.4236 10.1473C15.5136 10.5119 15.5586 10.8914 15.5586 11.2857C15.5586 11.6652 15.5168 12.0353 15.4332 12.3962C15.3496 12.7571 15.2242 13.1012 15.057 13.4286H16.1761ZM14.9412 11.2857C14.9412 11.1667 14.9364 11.0476 14.9268 10.9286C14.9171 10.8095 14.901 10.6905 14.8785 10.5714H13.6774C13.6967 10.8132 13.7064 11.0513 13.7064 11.2857C13.7064 11.5238 13.6967 11.7619 13.6774 12H14.8785C14.8978 11.881 14.9123 11.7619 14.9219 11.6429C14.9316 11.5238 14.938 11.4048 14.9412 11.2857ZM10.6482 12H13.06C13.0793 11.7619 13.089 11.5238 13.089 11.2857C13.089 11.0513 13.0793 10.8132 13.06 10.5714H10.6482C10.6289 10.8132 10.6193 11.0513 10.6193 11.2857C10.6193 11.5238 10.6289 11.7619 10.6482 12ZM12.9732 12.7143H10.7351C10.7479 12.7999 10.7704 12.9115 10.8026 13.0491C10.8348 13.1868 10.875 13.3374 10.9232 13.5011C10.9714 13.6648 11.0277 13.8248 11.092 13.981C11.1563 14.1373 11.2271 14.2824 11.3042 14.4163C11.3814 14.5502 11.4666 14.6562 11.5599 14.7344C11.6532 14.8125 11.7512 14.8534 11.8541 14.8571C11.957 14.8571 12.0535 14.8162 12.1436 14.7344C12.2336 14.6525 12.3188 14.5465 12.3992 14.4163C12.4796 14.2861 12.5503 14.141 12.6114 13.981C12.6725 13.8211 12.7288 13.6611 12.7803 13.5011C12.8317 13.3411 12.8719 13.1923 12.9009 13.0547C12.9298 12.917 12.9539 12.8036 12.9732 12.7143ZM10.6724 14.5837C10.5244 14.301 10.4055 13.9996 10.3154 13.6797C10.2254 13.3597 10.1562 13.0379 10.108 12.7143H9.02752C9.1047 12.9115 9.20117 13.1031 9.31694 13.2891C9.4327 13.4751 9.56133 13.6518 9.70282 13.8192C9.84431 13.9866 9.99867 14.1336 10.1659 14.26C10.3331 14.3865 10.5019 14.4944 10.6724 14.5837ZM13.6003 12.7143C13.5488 13.0342 13.4797 13.3542 13.3929 13.6741C13.306 13.994 13.1887 14.2972 13.0407 14.5837C13.2144 14.4944 13.3816 14.3847 13.5424 14.2545C13.7032 14.1243 13.8559 13.9792 14.0006 13.8192C14.1453 13.6592 14.2756 13.4844 14.3913 13.2946C14.5071 13.1049 14.6036 12.9115 14.6808 12.7143H13.6003ZM14.6808 9.85714C14.5168 9.43676 14.2949 9.06473 14.0151 8.74107C13.7353 8.41741 13.4089 8.16629 13.0359 7.98772C13.1838 8.27046 13.3012 8.5718 13.388 8.89174C13.4749 9.21168 13.5456 9.53348 13.6003 9.85714H14.6808ZM11.8541 7.71429C11.7512 7.71429 11.6548 7.75521 11.5647 7.83705C11.4747 7.9189 11.3895 8.02493 11.3091 8.15513C11.2287 8.28534 11.1579 8.43043 11.0968 8.5904C11.0357 8.75037 10.9795 8.91034 10.928 9.07031C10.8766 9.23028 10.8348 9.37909 10.8026 9.51674C10.7704 9.65439 10.7479 9.76786 10.7351 9.85714H12.9732C12.9571 9.77158 12.9346 9.65997 12.9057 9.52232C12.8767 9.38467 12.8365 9.234 12.7851 9.07031C12.7336 8.90662 12.6774 8.74665 12.6163 8.5904C12.5552 8.43415 12.4844 8.28906 12.404 8.15513C12.3236 8.02121 12.2384 7.91518 12.1484 7.83705C12.0583 7.75893 11.9603 7.71801 11.8541 7.71429ZM10.6724 7.98772C10.3026 8.16629 9.97777 8.41741 9.698 8.74107C9.41823 9.06473 9.19474 9.43676 9.02752 9.85714H10.108C10.1595 9.53348 10.2286 9.21168 10.3154 8.89174C10.4022 8.5718 10.5212 8.27046 10.6724 7.98772ZM8.82975 10.5714C8.81046 10.6905 8.79599 10.8095 8.78634 10.9286C8.7767 11.0476 8.77026 11.1667 8.76705 11.2857C8.76705 11.4048 8.77187 11.5238 8.78152 11.6429C8.79117 11.7619 8.80724 11.881 8.82975 12H10.0308C10.0115 11.7619 10.0019 11.5238 10.0019 11.2857C10.0019 11.0513 10.0115 10.8132 10.0308 10.5714H8.82975ZM7.66727 16.2857H16.041L15.6696 14.1429H14.6084C14.4347 14.3698 14.2434 14.5707 14.0344 14.7455C13.8254 14.9204 13.6019 15.0711 13.3639 15.1975C13.126 15.324 12.8816 15.417 12.6307 15.4766C12.3799 15.5361 12.121 15.5677 11.8541 15.5714C11.5904 15.5714 11.3316 15.5398 11.0775 15.4766C10.8235 15.4133 10.5791 15.3203 10.3444 15.1975C10.1096 15.0748 9.88773 14.926 9.6787 14.7511C9.46968 14.5763 9.27674 14.3735 9.09987 14.1429H8.03869L7.66727 16.2857Z" fill="white"/>
</svg>
