<svg width="1429" height="116" viewBox="0 0 1429 116" fill="none" xmlns="http://www.w3.org/2000/svg">
<path d="M52.0312 76.6758C52.0312 75.1523 51.7969 73.7852 51.3281 72.5742C50.8984 71.3242 50.0781 70.1914 48.8672 69.1758C47.6562 68.1211 45.957 67.0859 43.7695 66.0703C41.582 65.0547 38.75 64 35.2734 62.9062C31.4062 61.6562 27.7344 60.25 24.2578 58.6875C20.8203 57.125 17.7734 55.3086 15.1172 53.2383C12.5 51.1289 10.4297 48.6875 8.90625 45.9141C7.42188 43.1406 6.67969 39.918 6.67969 36.2461C6.67969 32.6914 7.46094 29.4687 9.02344 26.5781C10.5859 23.6484 12.7734 21.1484 15.5859 19.0781C18.3984 16.9688 21.7188 15.3477 25.5469 14.2148C29.4141 13.082 33.6523 12.5156 38.2617 12.5156C44.5508 12.5156 50.0391 13.6484 54.7266 15.9141C59.4141 18.1797 63.0469 21.2852 65.625 25.2305C68.2422 29.1758 69.5508 33.6875 69.5508 38.7656H52.0898C52.0898 36.2656 51.5625 34.0781 50.5078 32.2031C49.4922 30.2891 47.9297 28.7852 45.8203 27.6914C43.75 26.5977 41.1328 26.0508 37.9688 26.0508C34.9219 26.0508 32.3828 26.5195 30.3516 27.457C28.3203 28.3555 26.7969 29.5859 25.7812 31.1484C24.7656 32.6719 24.2578 34.3906 24.2578 36.3047C24.2578 37.75 24.6094 39.0586 25.3125 40.2305C26.0547 41.4023 27.1484 42.4961 28.5938 43.5117C30.0391 44.5273 31.8164 45.4844 33.9258 46.3828C36.0352 47.2812 38.4766 48.1602 41.25 49.0195C45.8984 50.4258 49.9805 52.0078 53.4961 53.7656C57.0508 55.5234 60.0195 57.4961 62.4023 59.6836C64.7852 61.8711 66.582 64.3516 67.793 67.125C69.0039 69.8984 69.6094 73.043 69.6094 76.5586C69.6094 80.2695 68.8867 83.5898 67.4414 86.5195C65.9961 89.4492 63.9063 91.9297 61.1719 93.9609C58.4375 95.9922 55.1758 97.5352 51.3867 98.5898C47.5977 99.6445 43.3594 100.172 38.6719 100.172C34.4531 100.172 30.293 99.625 26.1914 98.5312C22.0898 97.3984 18.3594 95.6992 15 93.4336C11.6797 91.168 9.02344 88.2773 7.03125 84.7617C5.03906 81.2461 4.04297 77.0859 4.04297 72.2812H21.6797C21.6797 74.9375 22.0898 77.1836 22.9102 79.0195C23.7305 80.8555 24.8828 82.3398 26.3672 83.4727C27.8906 84.6055 29.6875 85.4258 31.7578 85.9336C33.8672 86.4414 36.1719 86.6953 38.6719 86.6953C41.7188 86.6953 44.2188 86.2656 46.1719 85.4062C48.1641 84.5469 49.6289 83.3555 50.5664 81.832C51.543 80.3086 52.0312 78.5898 52.0312 76.6758ZM84.7109 78.0527V99H77.6553V72.584H84.2715L84.7109 78.0527ZM83.7344 84.8643H81.7812C81.7812 83.0251 82.001 81.3324 82.4404 79.7861C82.8962 78.2236 83.5553 76.8727 84.418 75.7334C85.2969 74.5778 86.3792 73.6826 87.665 73.0479C88.9508 72.4131 90.4401 72.0957 92.1328 72.0957C93.3047 72.0957 94.3789 72.2747 95.3555 72.6328C96.332 72.9746 97.1702 73.5199 97.8701 74.2686C98.5863 75.001 99.1396 75.9613 99.5303 77.1494C99.9209 78.3213 100.116 79.7292 100.116 81.373V99H93.085V82.1543C93.085 80.9499 92.9222 80.0221 92.5967 79.3711C92.2712 78.7201 91.8073 78.2643 91.2051 78.0039C90.6191 77.7435 89.9111 77.6133 89.0811 77.6133C88.1696 77.6133 87.3721 77.8005 86.6885 78.1748C86.0212 78.5492 85.4678 79.07 85.0283 79.7373C84.5889 80.3883 84.2633 81.1533 84.0518 82.0322C83.8402 82.9111 83.7344 83.8551 83.7344 84.8643ZM99.457 84.0586L96.9424 84.376C96.9424 82.6507 97.154 81.0475 97.5771 79.5664C98.0166 78.0853 98.6595 76.7832 99.5059 75.6602C100.368 74.5371 101.435 73.6663 102.704 73.0479C103.974 72.4131 105.438 72.0957 107.099 72.0957C108.368 72.0957 109.524 72.2829 110.565 72.6572C111.607 73.0153 112.494 73.5931 113.227 74.3906C113.975 75.1719 114.545 76.1973 114.936 77.4668C115.342 78.7363 115.546 80.2907 115.546 82.1299V99H108.49V82.1299C108.49 80.9092 108.327 79.9814 108.002 79.3467C107.693 78.6956 107.237 78.248 106.635 78.0039C106.049 77.7435 105.349 77.6133 104.535 77.6133C103.689 77.6133 102.948 77.7842 102.313 78.126C101.679 78.4515 101.15 78.9072 100.727 79.4932C100.303 80.0791 99.986 80.7627 99.7744 81.5439C99.5628 82.3089 99.457 83.1471 99.457 84.0586ZM136.248 93.043V81.2754C136.248 80.429 136.11 79.7048 135.833 79.1025C135.556 78.484 135.125 78.0039 134.539 77.6621C133.969 77.3203 133.229 77.1494 132.317 77.1494C131.536 77.1494 130.861 77.2878 130.291 77.5645C129.721 77.8249 129.282 78.2074 128.973 78.7119C128.663 79.2002 128.509 79.778 128.509 80.4453H121.478C121.478 79.3223 121.738 78.2562 122.259 77.2471C122.78 76.238 123.536 75.3509 124.529 74.5859C125.522 73.8047 126.702 73.1943 128.069 72.7549C129.453 72.3154 130.999 72.0957 132.708 72.0957C134.759 72.0957 136.582 72.4375 138.177 73.1211C139.772 73.8047 141.025 74.8301 141.937 76.1973C142.864 77.5645 143.328 79.2734 143.328 81.3242V92.6279C143.328 94.0765 143.418 95.2646 143.597 96.1924C143.776 97.1038 144.036 97.9014 144.378 98.585V99H137.273C136.932 98.2839 136.671 97.3887 136.492 96.3145C136.329 95.224 136.248 94.1335 136.248 93.043ZM137.176 82.9111L137.225 86.8906H133.294C132.366 86.8906 131.561 86.9964 130.877 87.208C130.193 87.4196 129.632 87.7207 129.192 88.1113C128.753 88.4857 128.427 88.9251 128.216 89.4297C128.021 89.9342 127.923 90.4876 127.923 91.0898C127.923 91.6921 128.061 92.2373 128.338 92.7256C128.615 93.1976 129.013 93.5719 129.534 93.8486C130.055 94.109 130.665 94.2393 131.365 94.2393C132.423 94.2393 133.343 94.0277 134.124 93.6045C134.905 93.1813 135.507 92.6605 135.931 92.042C136.37 91.4235 136.598 90.8376 136.614 90.2842L138.47 93.2627C138.209 93.93 137.851 94.6217 137.396 95.3379C136.956 96.054 136.395 96.7295 135.711 97.3643C135.027 97.9827 134.205 98.4954 133.245 98.9023C132.285 99.293 131.146 99.4883 129.827 99.4883C128.151 99.4883 126.629 99.1546 125.262 98.4873C123.911 97.8037 122.837 96.8678 122.039 95.6797C121.258 94.4753 120.867 93.1081 120.867 91.5781C120.867 90.1947 121.128 88.9658 121.648 87.8916C122.169 86.8174 122.934 85.9141 123.943 85.1816C124.969 84.4329 126.246 83.8714 127.776 83.4971C129.306 83.1064 131.08 82.9111 133.099 82.9111H137.176ZM156.779 78.3457V99H149.748V72.584H156.364L156.779 78.3457ZM164.738 72.4131L164.616 78.9316C164.274 78.8828 163.859 78.8421 163.371 78.8096C162.899 78.7607 162.468 78.7363 162.077 78.7363C161.084 78.7363 160.222 78.8665 159.489 79.127C158.773 79.3711 158.171 79.7373 157.683 80.2256C157.211 80.7139 156.853 81.3079 156.608 82.0078C156.381 82.7077 156.25 83.5052 156.218 84.4004L154.802 83.9609C154.802 82.252 154.973 80.6813 155.314 79.249C155.656 77.8005 156.153 76.5391 156.804 75.4648C157.471 74.3906 158.285 73.5605 159.245 72.9746C160.205 72.3887 161.304 72.0957 162.541 72.0957C162.932 72.0957 163.33 72.1283 163.737 72.1934C164.144 72.2422 164.478 72.3154 164.738 72.4131ZM183.219 72.584V77.5645H167.838V72.584H183.219ZM171.646 66.0654H178.678V91.041C178.678 91.806 178.775 92.3919 178.971 92.7988C179.182 93.2057 179.492 93.4906 179.898 93.6533C180.305 93.7998 180.818 93.873 181.437 93.873C181.876 93.873 182.267 93.8568 182.608 93.8242C182.966 93.7754 183.268 93.7266 183.512 93.6777L183.536 98.8535C182.934 99.0488 182.283 99.2035 181.583 99.3174C180.883 99.4313 180.11 99.4883 179.264 99.4883C177.717 99.4883 176.367 99.236 175.211 98.7314C174.072 98.2106 173.193 97.3805 172.574 96.2412C171.956 95.1019 171.646 93.6045 171.646 91.749V66.0654Z" fill="#F38313"/>
<path d="M260.645 13.6875H275.527L297.441 76.3242L319.355 13.6875H334.238L303.418 99H291.465L260.645 13.6875ZM252.617 13.6875H267.441L270.137 74.7422V99H252.617V13.6875ZM327.441 13.6875H342.324V99H324.746V74.7422L327.441 13.6875ZM366.01 99.4883C363.959 99.4883 362.12 99.1628 360.492 98.5117C358.865 97.8444 357.481 96.9248 356.342 95.7529C355.219 94.5811 354.356 93.222 353.754 91.6758C353.152 90.1133 352.851 88.4531 352.851 86.6953V85.7188C352.851 83.7168 353.135 81.8857 353.705 80.2256C354.275 78.5654 355.089 77.125 356.146 75.9043C357.221 74.6836 358.523 73.7477 360.053 73.0967C361.583 72.4294 363.308 72.0957 365.229 72.0957C367.1 72.0957 368.76 72.4049 370.209 73.0234C371.658 73.6419 372.87 74.5208 373.847 75.6602C374.84 76.7995 375.588 78.1667 376.093 79.7617C376.597 81.3405 376.85 83.0983 376.85 85.0352V87.9648H355.854V83.2773H369.94V82.7402C369.94 81.7637 369.761 80.8929 369.403 80.1279C369.062 79.3467 368.541 78.7282 367.841 78.2725C367.141 77.8167 366.246 77.5889 365.155 77.5889C364.228 77.5889 363.43 77.7923 362.763 78.1992C362.095 78.6061 361.55 79.1758 361.127 79.9082C360.72 80.6406 360.411 81.5033 360.199 82.4961C360.004 83.4727 359.906 84.5469 359.906 85.7188V86.6953C359.906 87.7533 360.053 88.7298 360.346 89.625C360.655 90.5202 361.086 91.2933 361.64 91.9443C362.209 92.5954 362.893 93.0999 363.69 93.458C364.504 93.8161 365.424 93.9951 366.449 93.9951C367.719 93.9951 368.899 93.751 369.989 93.2627C371.096 92.7581 372.048 92.0013 372.846 90.9922L376.264 94.7031C375.71 95.5007 374.953 96.2656 373.993 96.998C373.049 97.7305 371.91 98.3327 370.575 98.8047C369.241 99.2604 367.719 99.4883 366.01 99.4883ZM394.793 72.584V77.5645H379.412V72.584H394.793ZM383.221 66.0654H390.252V91.041C390.252 91.806 390.35 92.3919 390.545 92.7988C390.757 93.2057 391.066 93.4906 391.473 93.6533C391.88 93.7998 392.392 93.873 393.011 93.873C393.45 93.873 393.841 93.8568 394.183 93.8242C394.541 93.7754 394.842 93.7266 395.086 93.6777L395.11 98.8535C394.508 99.0488 393.857 99.2035 393.157 99.3174C392.457 99.4313 391.684 99.4883 390.838 99.4883C389.292 99.4883 387.941 99.236 386.785 98.7314C385.646 98.2106 384.767 97.3805 384.148 96.2412C383.53 95.1019 383.221 93.6045 383.221 91.749V66.0654ZM407.219 72.584V99H400.163V72.584H407.219ZM399.724 65.6992C399.724 64.6738 400.082 63.8275 400.798 63.1602C401.514 62.4928 402.474 62.1592 403.679 62.1592C404.867 62.1592 405.819 62.4928 406.535 63.1602C407.268 63.8275 407.634 64.6738 407.634 65.6992C407.634 66.7246 407.268 67.571 406.535 68.2383C405.819 68.9056 404.867 69.2393 403.679 69.2393C402.474 69.2393 401.514 68.9056 400.798 68.2383C400.082 67.571 399.724 66.7246 399.724 65.6992ZM424.942 93.9951C425.805 93.9951 426.57 93.8324 427.237 93.5068C427.905 93.165 428.425 92.693 428.8 92.0908C429.19 91.4723 429.394 90.748 429.41 89.918H436.026C436.01 91.7734 435.514 93.4255 434.537 94.874C433.561 96.3063 432.25 97.4375 430.606 98.2676C428.963 99.0814 427.123 99.4883 425.089 99.4883C423.038 99.4883 421.248 99.1465 419.718 98.4629C418.204 97.7793 416.943 96.8353 415.934 95.6309C414.924 94.4102 414.168 92.9941 413.663 91.3828C413.159 89.7552 412.906 88.0137 412.906 86.1582V85.4502C412.906 83.5785 413.159 81.8369 413.663 80.2256C414.168 78.598 414.924 77.182 415.934 75.9775C416.943 74.7568 418.204 73.8047 419.718 73.1211C421.231 72.4375 423.006 72.0957 425.04 72.0957C427.205 72.0957 429.101 72.5107 430.729 73.3408C432.372 74.1709 433.658 75.359 434.586 76.9053C435.53 78.4352 436.01 80.25 436.026 82.3496H429.41C429.394 81.4707 429.207 80.6732 428.849 79.957C428.507 79.2409 428.002 78.6712 427.335 78.248C426.684 77.8086 425.878 77.5889 424.918 77.5889C423.893 77.5889 423.054 77.8086 422.403 78.248C421.752 78.6712 421.248 79.2572 420.89 80.0059C420.532 80.7383 420.279 81.5765 420.133 82.5205C420.003 83.4482 419.938 84.4248 419.938 85.4502V86.1582C419.938 87.1836 420.003 88.1683 420.133 89.1123C420.263 90.0563 420.507 90.8945 420.865 91.627C421.24 92.3594 421.752 92.9372 422.403 93.3604C423.054 93.7835 423.901 93.9951 424.942 93.9951ZM456.729 92.6768V72.584H463.76V99H457.144L456.729 92.6768ZM457.51 87.2568L459.585 87.208C459.585 88.9658 459.382 90.6016 458.975 92.1152C458.568 93.6126 457.957 94.9147 457.144 96.0215C456.33 97.112 455.304 97.9665 454.067 98.585C452.83 99.1872 451.374 99.4883 449.697 99.4883C448.411 99.4883 447.223 99.3092 446.133 98.9512C445.059 98.5768 444.131 97.999 443.35 97.2178C442.585 96.4202 441.982 95.403 441.543 94.166C441.12 92.9128 440.908 91.4072 440.908 89.6494V72.584H447.939V89.6982C447.939 90.4795 448.029 91.1387 448.208 91.6758C448.403 92.2129 448.672 92.6523 449.014 92.9941C449.355 93.3359 449.754 93.5801 450.21 93.7266C450.682 93.873 451.203 93.9463 451.772 93.9463C453.221 93.9463 454.36 93.6533 455.19 93.0674C456.037 92.4814 456.631 91.6839 456.973 90.6748C457.331 89.6494 457.51 88.5101 457.51 87.2568ZM477.553 61.5V99H470.497V61.5H477.553ZM483.24 86.0605V85.5479C483.24 83.611 483.517 81.8288 484.07 80.2012C484.624 78.5573 485.429 77.1331 486.487 75.9287C487.545 74.7243 488.847 73.7884 490.394 73.1211C491.94 72.4375 493.714 72.0957 495.716 72.0957C497.718 72.0957 499.5 72.4375 501.062 73.1211C502.625 73.7884 503.935 74.7243 504.993 75.9287C506.067 77.1331 506.881 78.5573 507.435 80.2012C507.988 81.8288 508.265 83.611 508.265 85.5479V86.0605C508.265 87.9811 507.988 89.7633 507.435 91.4072C506.881 93.0348 506.067 94.459 504.993 95.6797C503.935 96.8841 502.633 97.82 501.087 98.4873C499.541 99.1546 497.767 99.4883 495.765 99.4883C493.763 99.4883 491.98 99.1546 490.418 98.4873C488.872 97.82 487.562 96.8841 486.487 95.6797C485.429 94.459 484.624 93.0348 484.07 91.4072C483.517 89.7633 483.24 87.9811 483.24 86.0605ZM490.271 85.5479V86.0605C490.271 87.1673 490.369 88.2008 490.564 89.1611C490.76 90.1214 491.069 90.9678 491.492 91.7002C491.932 92.4163 492.501 92.9779 493.201 93.3848C493.901 93.7917 494.756 93.9951 495.765 93.9951C496.741 93.9951 497.579 93.7917 498.279 93.3848C498.979 92.9779 499.541 92.4163 499.964 91.7002C500.387 90.9678 500.696 90.1214 500.892 89.1611C501.103 88.2008 501.209 87.1673 501.209 86.0605V85.5479C501.209 84.4736 501.103 83.4645 500.892 82.5205C500.696 81.5602 500.379 80.7139 499.939 79.9814C499.516 79.2327 498.955 78.6468 498.255 78.2236C497.555 77.8005 496.709 77.5889 495.716 77.5889C494.723 77.5889 493.877 77.8005 493.177 78.2236C492.493 78.6468 491.932 79.2327 491.492 79.9814C491.069 80.7139 490.76 81.5602 490.564 82.5205C490.369 83.4645 490.271 84.4736 490.271 85.5479ZM529.211 92.6768V72.584H536.242V99H529.626L529.211 92.6768ZM529.992 87.2568L532.067 87.208C532.067 88.9658 531.864 90.6016 531.457 92.1152C531.05 93.6126 530.44 94.9147 529.626 96.0215C528.812 97.112 527.787 97.9665 526.55 98.585C525.313 99.1872 523.856 99.4883 522.18 99.4883C520.894 99.4883 519.706 99.3092 518.615 98.9512C517.541 98.5768 516.613 97.999 515.832 97.2178C515.067 96.4202 514.465 95.403 514.025 94.166C513.602 92.9128 513.391 91.4072 513.391 89.6494V72.584H520.422V89.6982C520.422 90.4795 520.511 91.1387 520.69 91.6758C520.886 92.2129 521.154 92.6523 521.496 92.9941C521.838 93.3359 522.237 93.5801 522.692 93.7266C523.164 93.873 523.685 93.9463 524.255 93.9463C525.703 93.9463 526.843 93.6533 527.673 93.0674C528.519 92.4814 529.113 91.6839 529.455 90.6748C529.813 89.6494 529.992 88.5101 529.992 87.2568ZM556.896 91.7002C556.896 91.1956 556.749 90.7399 556.456 90.333C556.163 89.9261 555.618 89.5518 554.82 89.21C554.039 88.8519 552.908 88.5264 551.427 88.2334C550.092 87.9404 548.847 87.5742 547.691 87.1348C546.552 86.679 545.559 86.1338 544.713 85.499C543.883 84.8643 543.232 84.1156 542.76 83.2529C542.288 82.374 542.052 81.373 542.052 80.25C542.052 79.1432 542.288 78.1016 542.76 77.125C543.248 76.1484 543.94 75.2858 544.835 74.5371C545.746 73.7721 546.853 73.1781 548.155 72.7549C549.474 72.3154 550.955 72.0957 552.599 72.0957C554.894 72.0957 556.863 72.4619 558.507 73.1943C560.167 73.9268 561.437 74.9359 562.315 76.2217C563.211 77.4912 563.658 78.9398 563.658 80.5674H556.627C556.627 79.8838 556.48 79.2734 556.188 78.7363C555.911 78.1829 555.471 77.7516 554.869 77.4424C554.283 77.1169 553.518 76.9541 552.574 76.9541C551.793 76.9541 551.118 77.0924 550.548 77.3691C549.978 77.6296 549.539 77.9876 549.229 78.4434C548.937 78.8828 548.79 79.3711 548.79 79.9082C548.79 80.3151 548.871 80.6813 549.034 81.0068C549.213 81.3161 549.498 81.6009 549.889 81.8613C550.279 82.1217 550.784 82.3659 551.402 82.5938C552.037 82.8053 552.818 83.0007 553.746 83.1797C555.65 83.5703 557.351 84.083 558.849 84.7178C560.346 85.3363 561.534 86.1826 562.413 87.2568C563.292 88.3148 563.731 89.7064 563.731 91.4316C563.731 92.6035 563.471 93.6777 562.95 94.6543C562.429 95.6309 561.681 96.4854 560.704 97.2178C559.728 97.9339 558.556 98.4954 557.188 98.9023C555.838 99.293 554.316 99.4883 552.623 99.4883C550.165 99.4883 548.082 99.0488 546.373 98.1699C544.68 97.291 543.395 96.1761 542.516 94.8252C541.653 93.458 541.222 92.0583 541.222 90.626H547.887C547.919 91.5863 548.163 92.3594 548.619 92.9453C549.091 93.5312 549.685 93.9544 550.401 94.2148C551.134 94.4753 551.923 94.6055 552.77 94.6055C553.681 94.6055 554.438 94.4834 555.04 94.2393C555.642 93.9788 556.098 93.637 556.407 93.2139C556.733 92.7744 556.896 92.2699 556.896 91.7002Z" fill="#2563AC"/>
<path d="M668.305 28.2773L645.102 99H626.41L658.109 13.6875H670.004L668.305 28.2773ZM687.582 99L664.32 28.2773L662.445 13.6875H674.457L706.332 99H687.582ZM686.527 67.2422V81.0117H641.469V67.2422H686.527ZM725.96 93.2383V61.5H733.04V99H726.668L725.96 93.2383ZM709.261 86.1094V85.5967C709.261 83.5785 709.489 81.7474 709.944 80.1035C710.4 78.4434 711.067 77.0192 711.946 75.8311C712.825 74.6429 713.908 73.7233 715.193 73.0723C716.479 72.4212 717.944 72.0957 719.588 72.0957C721.134 72.0957 722.485 72.4212 723.641 73.0723C724.812 73.7233 725.805 74.651 726.619 75.8555C727.449 77.0436 728.117 78.4515 728.621 80.0791C729.126 81.6904 729.492 83.4564 729.72 85.377V86.5C729.492 88.3392 729.126 90.0482 728.621 91.627C728.117 93.2057 727.449 94.5892 726.619 95.7773C725.805 96.9492 724.812 97.8607 723.641 98.5117C722.469 99.1628 721.102 99.4883 719.539 99.4883C717.895 99.4883 716.43 99.1546 715.145 98.4873C713.875 97.82 712.801 96.8841 711.922 95.6797C711.059 94.4753 710.4 93.0592 709.944 91.4316C709.489 89.804 709.261 88.0299 709.261 86.1094ZM716.292 85.5967V86.1094C716.292 87.1999 716.373 88.2171 716.536 89.1611C716.715 90.1051 717 90.9434 717.391 91.6758C717.798 92.3919 718.318 92.9535 718.953 93.3604C719.604 93.751 720.394 93.9463 721.321 93.9463C722.526 93.9463 723.519 93.6777 724.3 93.1406C725.081 92.5872 725.675 91.8304 726.082 90.8701C726.505 89.9098 726.749 88.8031 726.814 87.5498V84.3516C726.766 83.3262 726.619 82.4066 726.375 81.5928C726.147 80.7627 725.805 80.0547 725.35 79.4688C724.91 78.8828 724.357 78.4271 723.689 78.1016C723.038 77.776 722.265 77.6133 721.37 77.6133C720.459 77.6133 719.677 77.8249 719.026 78.248C718.375 78.6549 717.846 79.2165 717.439 79.9326C717.049 80.6488 716.756 81.4951 716.561 82.4717C716.382 83.432 716.292 84.4736 716.292 85.5967ZM753.791 93.043V81.2754C753.791 80.429 753.653 79.7048 753.376 79.1025C753.099 78.484 752.668 78.0039 752.082 77.6621C751.512 77.3203 750.772 77.1494 749.86 77.1494C749.079 77.1494 748.404 77.2878 747.834 77.5645C747.264 77.8249 746.825 78.2074 746.516 78.7119C746.206 79.2002 746.052 79.778 746.052 80.4453H739.021C739.021 79.3223 739.281 78.2562 739.802 77.2471C740.323 76.238 741.079 75.3509 742.072 74.5859C743.065 73.8047 744.245 73.1943 745.612 72.7549C746.996 72.3154 748.542 72.0957 750.251 72.0957C752.302 72.0957 754.125 72.4375 755.72 73.1211C757.315 73.8047 758.568 74.8301 759.479 76.1973C760.407 77.5645 760.871 79.2734 760.871 81.3242V92.6279C760.871 94.0765 760.961 95.2646 761.14 96.1924C761.319 97.1038 761.579 97.9014 761.921 98.585V99H754.816C754.475 98.2839 754.214 97.3887 754.035 96.3145C753.872 95.224 753.791 94.1335 753.791 93.043ZM754.719 82.9111L754.768 86.8906H750.837C749.909 86.8906 749.104 86.9964 748.42 87.208C747.736 87.4196 747.175 87.7207 746.735 88.1113C746.296 88.4857 745.97 88.9251 745.759 89.4297C745.563 89.9342 745.466 90.4876 745.466 91.0898C745.466 91.6921 745.604 92.2373 745.881 92.7256C746.158 93.1976 746.556 93.5719 747.077 93.8486C747.598 94.109 748.208 94.2393 748.908 94.2393C749.966 94.2393 750.886 94.0277 751.667 93.6045C752.448 93.1813 753.05 92.6605 753.474 92.042C753.913 91.4235 754.141 90.8376 754.157 90.2842L756.013 93.2627C755.752 93.93 755.394 94.6217 754.938 95.3379C754.499 96.054 753.938 96.7295 753.254 97.3643C752.57 97.9827 751.748 98.4954 750.788 98.9023C749.828 99.293 748.688 99.4883 747.37 99.4883C745.694 99.4883 744.172 99.1546 742.805 98.4873C741.454 97.8037 740.38 96.8678 739.582 95.6797C738.801 94.4753 738.41 93.1081 738.41 91.5781C738.41 90.1947 738.671 88.9658 739.191 87.8916C739.712 86.8174 740.477 85.9141 741.486 85.1816C742.512 84.4329 743.789 83.8714 745.319 83.4971C746.849 83.1064 748.623 82.9111 750.642 82.9111H754.719ZM774.322 77.6621V109.156H767.291V72.584H773.81L774.322 77.6621ZM791.046 85.499V86.0117C791.046 87.9323 790.818 89.7145 790.362 91.3584C789.923 93.0023 789.272 94.4346 788.409 95.6553C787.547 96.8597 786.472 97.8037 785.187 98.4873C783.917 99.1546 782.452 99.4883 780.792 99.4883C779.181 99.4883 777.781 99.1628 776.593 98.5117C775.405 97.8607 774.404 96.9492 773.59 95.7773C772.792 94.5892 772.149 93.2139 771.661 91.6514C771.173 90.0889 770.799 88.4124 770.538 86.6221V85.2793C770.799 83.3587 771.173 81.6009 771.661 80.0059C772.149 78.3945 772.792 77.0029 773.59 75.8311C774.404 74.6429 775.396 73.7233 776.568 73.0723C777.757 72.4212 779.148 72.0957 780.743 72.0957C782.42 72.0957 783.893 72.4131 785.162 73.0479C786.448 73.6826 787.522 74.5941 788.385 75.7822C789.264 76.9704 789.923 78.3864 790.362 80.0303C790.818 81.6742 791.046 83.4971 791.046 85.499ZM783.99 86.0117V85.499C783.99 84.376 783.893 83.3424 783.697 82.3984C783.518 81.4382 783.225 80.5999 782.818 79.8838C782.428 79.1676 781.907 78.6143 781.256 78.2236C780.621 77.8167 779.848 77.6133 778.937 77.6133C777.976 77.6133 777.154 77.7679 776.471 78.0771C775.803 78.3864 775.258 78.834 774.835 79.4199C774.412 80.0059 774.094 80.7057 773.883 81.5195C773.671 82.3333 773.541 83.2529 773.492 84.2783V87.6719C773.574 88.8763 773.801 89.9587 774.176 90.9189C774.55 91.863 775.128 92.6117 775.909 93.165C776.69 93.7184 777.716 93.9951 778.985 93.9951C779.913 93.9951 780.694 93.7917 781.329 93.3848C781.964 92.9616 782.477 92.3838 782.867 91.6514C783.274 90.9189 783.559 90.0726 783.722 89.1123C783.901 88.152 783.99 87.1185 783.99 86.0117ZM809.355 72.584V77.5645H793.975V72.584H809.355ZM797.783 66.0654H804.814V91.041C804.814 91.806 804.912 92.3919 805.107 92.7988C805.319 93.2057 805.628 93.4906 806.035 93.6533C806.442 93.7998 806.955 93.873 807.573 93.873C808.013 93.873 808.403 93.8568 808.745 93.8242C809.103 93.7754 809.404 93.7266 809.648 93.6777L809.673 98.8535C809.071 99.0488 808.42 99.2035 807.72 99.3174C807.02 99.4313 806.247 99.4883 805.4 99.4883C803.854 99.4883 802.503 99.236 801.348 98.7314C800.208 98.2106 799.329 97.3805 798.711 96.2412C798.092 95.1019 797.783 93.6045 797.783 91.749V66.0654ZM821.781 72.584V99H814.726V72.584H821.781ZM814.286 65.6992C814.286 64.6738 814.644 63.8275 815.36 63.1602C816.076 62.4928 817.037 62.1592 818.241 62.1592C819.429 62.1592 820.382 62.4928 821.098 63.1602C821.83 63.8275 822.196 64.6738 822.196 65.6992C822.196 66.7246 821.83 67.571 821.098 68.2383C820.382 68.9056 819.429 69.2393 818.241 69.2393C817.037 69.2393 816.076 68.9056 815.36 68.2383C814.644 67.571 814.286 66.7246 814.286 65.6992ZM837.576 93.873L843.436 72.584H850.784L841.873 99H837.43L837.576 93.873ZM833.548 72.584L839.432 93.8975L839.554 99H835.086L826.175 72.584H833.548ZM866.75 99.4883C864.699 99.4883 862.86 99.1628 861.232 98.5117C859.605 97.8444 858.221 96.9248 857.082 95.7529C855.959 94.5811 855.096 93.222 854.494 91.6758C853.892 90.1133 853.591 88.4531 853.591 86.6953V85.7188C853.591 83.7168 853.876 81.8857 854.445 80.2256C855.015 78.5654 855.829 77.125 856.887 75.9043C857.961 74.6836 859.263 73.7477 860.793 73.0967C862.323 72.4294 864.048 72.0957 865.969 72.0957C867.84 72.0957 869.501 72.4049 870.949 73.0234C872.398 73.6419 873.61 74.5208 874.587 75.6602C875.58 76.7995 876.328 78.1667 876.833 79.7617C877.338 81.3405 877.59 83.0983 877.59 85.0352V87.9648H856.594V83.2773H870.681V82.7402C870.681 81.7637 870.502 80.8929 870.144 80.1279C869.802 79.3467 869.281 78.7282 868.581 78.2725C867.881 77.8167 866.986 77.5889 865.896 77.5889C864.968 77.5889 864.17 77.7923 863.503 78.1992C862.836 78.6061 862.29 79.1758 861.867 79.9082C861.46 80.6406 861.151 81.5033 860.939 82.4961C860.744 83.4727 860.646 84.5469 860.646 85.7188V86.6953C860.646 87.7533 860.793 88.7298 861.086 89.625C861.395 90.5202 861.826 91.2933 862.38 91.9443C862.95 92.5954 863.633 93.0999 864.431 93.458C865.244 93.8161 866.164 93.9951 867.189 93.9951C868.459 93.9951 869.639 93.751 870.729 93.2627C871.836 92.7581 872.788 92.0013 873.586 90.9922L877.004 94.7031C876.451 95.5007 875.694 96.2656 874.733 96.998C873.789 97.7305 872.65 98.3327 871.315 98.8047C869.981 99.2604 868.459 99.4883 866.75 99.4883Z" fill="#F38313"/>
<path d="M946.617 13.6875H978.434C984.957 13.6875 990.562 14.6641 995.25 16.6172C999.977 18.5703 1003.61 21.4609 1006.15 25.2891C1008.69 29.1172 1009.96 33.8242 1009.96 39.4102C1009.96 43.9805 1009.18 47.9062 1007.61 51.1875C1006.09 54.4297 1003.92 57.1445 1001.11 59.332C998.336 61.4805 995.074 63.1992 991.324 64.4883L985.758 67.418H958.102L957.984 53.707H978.551C981.637 53.707 984.195 53.1602 986.227 52.0664C988.258 50.9727 989.781 49.4492 990.797 47.4961C991.852 45.543 992.379 43.2773 992.379 40.6992C992.379 37.9648 991.871 35.6016 990.855 33.6094C989.84 31.6172 988.297 30.0938 986.227 29.0391C984.156 27.9844 981.559 27.457 978.434 27.457H964.195V99H946.617V13.6875ZM994.312 99L974.859 60.9727L993.434 60.8555L1013.12 98.1797V99H994.312ZM1031.77 99.4883C1029.72 99.4883 1027.88 99.1628 1026.25 98.5117C1024.62 97.8444 1023.24 96.9248 1022.1 95.7529C1020.98 94.5811 1020.11 93.222 1019.51 91.6758C1018.91 90.1133 1018.61 88.4531 1018.61 86.6953V85.7188C1018.61 83.7168 1018.89 81.8857 1019.46 80.2256C1020.03 78.5654 1020.85 77.125 1021.9 75.9043C1022.98 74.6836 1024.28 73.7477 1025.81 73.0967C1027.34 72.4294 1029.07 72.0957 1030.99 72.0957C1032.86 72.0957 1034.52 72.4049 1035.97 73.0234C1037.42 73.6419 1038.63 74.5208 1039.6 75.6602C1040.6 76.7995 1041.35 78.1667 1041.85 79.7617C1042.36 81.3405 1042.61 83.0983 1042.61 85.0352V87.9648H1021.61V83.2773H1035.7V82.7402C1035.7 81.7637 1035.52 80.8929 1035.16 80.1279C1034.82 79.3467 1034.3 78.7282 1033.6 78.2725C1032.9 77.8167 1032 77.5889 1030.91 77.5889C1029.99 77.5889 1029.19 77.7923 1028.52 78.1992C1027.85 78.6061 1027.31 79.1758 1026.88 79.9082C1026.48 80.6406 1026.17 81.5033 1025.96 82.4961C1025.76 83.4727 1025.66 84.5469 1025.66 85.7188V86.6953C1025.66 87.7533 1025.81 88.7298 1026.1 89.625C1026.41 90.5202 1026.84 91.2933 1027.4 91.9443C1027.97 92.5954 1028.65 93.0999 1029.45 93.458C1030.26 93.8161 1031.18 93.9951 1032.21 93.9951C1033.48 93.9951 1034.66 93.751 1035.75 93.2627C1036.85 92.7581 1037.81 92.0013 1038.6 90.9922L1042.02 94.7031C1041.47 95.5007 1040.71 96.2656 1039.75 96.998C1038.81 97.7305 1037.67 98.3327 1036.33 98.8047C1035 99.2604 1033.48 99.4883 1031.77 99.4883ZM1061.89 91.7002C1061.89 91.1956 1061.75 90.7399 1061.45 90.333C1061.16 89.9261 1060.62 89.5518 1059.82 89.21C1059.04 88.8519 1057.91 88.5264 1056.42 88.2334C1055.09 87.9404 1053.85 87.5742 1052.69 87.1348C1051.55 86.679 1050.56 86.1338 1049.71 85.499C1048.88 84.8643 1048.23 84.1156 1047.76 83.2529C1047.29 82.374 1047.05 81.373 1047.05 80.25C1047.05 79.1432 1047.29 78.1016 1047.76 77.125C1048.25 76.1484 1048.94 75.2858 1049.83 74.5371C1050.74 73.7721 1051.85 73.1781 1053.15 72.7549C1054.47 72.3154 1055.95 72.0957 1057.6 72.0957C1059.89 72.0957 1061.86 72.4619 1063.5 73.1943C1065.17 73.9268 1066.43 74.9359 1067.31 76.2217C1068.21 77.4912 1068.66 78.9398 1068.66 80.5674H1061.62C1061.62 79.8838 1061.48 79.2734 1061.19 78.7363C1060.91 78.1829 1060.47 77.7516 1059.87 77.4424C1059.28 77.1169 1058.52 76.9541 1057.57 76.9541C1056.79 76.9541 1056.12 77.0924 1055.55 77.3691C1054.98 77.6296 1054.54 77.9876 1054.23 78.4434C1053.93 78.8828 1053.79 79.3711 1053.79 79.9082C1053.79 80.3151 1053.87 80.6813 1054.03 81.0068C1054.21 81.3161 1054.5 81.6009 1054.89 81.8613C1055.28 82.1217 1055.78 82.3659 1056.4 82.5938C1057.04 82.8053 1057.82 83.0007 1058.74 83.1797C1060.65 83.5703 1062.35 84.083 1063.85 84.7178C1065.34 85.3363 1066.53 86.1826 1067.41 87.2568C1068.29 88.3148 1068.73 89.7064 1068.73 91.4316C1068.73 92.6035 1068.47 93.6777 1067.95 94.6543C1067.43 95.6309 1066.68 96.4854 1065.7 97.2178C1064.73 97.9339 1063.55 98.4954 1062.19 98.9023C1060.84 99.293 1059.31 99.4883 1057.62 99.4883C1055.16 99.4883 1053.08 99.0488 1051.37 98.1699C1049.68 97.291 1048.39 96.1761 1047.51 94.8252C1046.65 93.458 1046.22 92.0583 1046.22 90.626H1052.88C1052.92 91.5863 1053.16 92.3594 1053.62 92.9453C1054.09 93.5312 1054.68 93.9544 1055.4 94.2148C1056.13 94.4753 1056.92 94.6055 1057.77 94.6055C1058.68 94.6055 1059.44 94.4834 1060.04 94.2393C1060.64 93.9788 1061.1 93.637 1061.41 93.2139C1061.73 92.7744 1061.89 92.2699 1061.89 91.7002ZM1073.17 86.0605V85.5479C1073.17 83.611 1073.45 81.8288 1074 80.2012C1074.56 78.5573 1075.36 77.1331 1076.42 75.9287C1077.48 74.7243 1078.78 73.7884 1080.33 73.1211C1081.87 72.4375 1083.65 72.0957 1085.65 72.0957C1087.65 72.0957 1089.43 72.4375 1090.99 73.1211C1092.56 73.7884 1093.87 74.7243 1094.92 75.9287C1096 77.1331 1096.81 78.5573 1097.37 80.2012C1097.92 81.8288 1098.2 83.611 1098.2 85.5479V86.0605C1098.2 87.9811 1097.92 89.7633 1097.37 91.4072C1096.81 93.0348 1096 94.459 1094.92 95.6797C1093.87 96.8841 1092.56 97.82 1091.02 98.4873C1089.47 99.1546 1087.7 99.4883 1085.7 99.4883C1083.69 99.4883 1081.91 99.1546 1080.35 98.4873C1078.8 97.82 1077.49 96.8841 1076.42 95.6797C1075.36 94.459 1074.56 93.0348 1074 91.4072C1073.45 89.7633 1073.17 87.9811 1073.17 86.0605ZM1080.2 85.5479V86.0605C1080.2 87.1673 1080.3 88.2008 1080.5 89.1611C1080.69 90.1214 1081 90.9678 1081.42 91.7002C1081.86 92.4163 1082.43 92.9779 1083.13 93.3848C1083.83 93.7917 1084.69 93.9951 1085.7 93.9951C1086.67 93.9951 1087.51 93.7917 1088.21 93.3848C1088.91 92.9779 1089.47 92.4163 1089.9 91.7002C1090.32 90.9678 1090.63 90.1214 1090.82 89.1611C1091.03 88.2008 1091.14 87.1673 1091.14 86.0605V85.5479C1091.14 84.4736 1091.03 83.4645 1090.82 82.5205C1090.63 81.5602 1090.31 80.7139 1089.87 79.9814C1089.45 79.2327 1088.89 78.6468 1088.19 78.2236C1087.49 77.8005 1086.64 77.5889 1085.65 77.5889C1084.65 77.5889 1083.81 77.8005 1083.11 78.2236C1082.42 78.6468 1081.86 79.2327 1081.42 79.9814C1081 80.7139 1080.69 81.5602 1080.5 82.5205C1080.3 83.4645 1080.2 84.4736 1080.2 85.5479ZM1110.94 61.5V99H1103.88V61.5H1110.94ZM1133.38 92.6768V72.584H1140.41V99H1133.79L1133.38 92.6768ZM1134.16 87.2568L1136.23 87.208C1136.23 88.9658 1136.03 90.6016 1135.62 92.1152C1135.21 93.6126 1134.6 94.9147 1133.79 96.0215C1132.98 97.112 1131.95 97.9665 1130.71 98.585C1129.48 99.1872 1128.02 99.4883 1126.34 99.4883C1125.06 99.4883 1123.87 99.3092 1122.78 98.9512C1121.71 98.5768 1120.78 97.999 1120 97.2178C1119.23 96.4202 1118.63 95.403 1118.19 94.166C1117.77 92.9128 1117.55 91.4072 1117.55 89.6494V72.584H1124.59V89.6982C1124.59 90.4795 1124.68 91.1387 1124.85 91.6758C1125.05 92.2129 1125.32 92.6523 1125.66 92.9941C1126 93.3359 1126.4 93.5801 1126.86 93.7266C1127.33 93.873 1127.85 93.9463 1128.42 93.9463C1129.87 93.9463 1131.01 93.6533 1131.84 93.0674C1132.68 92.4814 1133.28 91.6839 1133.62 90.6748C1133.98 89.6494 1134.16 88.5101 1134.16 87.2568ZM1159.72 72.584V77.5645H1144.34V72.584H1159.72ZM1148.14 66.0654H1155.18V91.041C1155.18 91.806 1155.27 92.3919 1155.47 92.7988C1155.68 93.2057 1155.99 93.4906 1156.4 93.6533C1156.8 93.7998 1157.32 93.873 1157.93 93.873C1158.37 93.873 1158.76 93.8568 1159.11 93.8242C1159.46 93.7754 1159.77 93.7266 1160.01 93.6777L1160.03 98.8535C1159.43 99.0488 1158.78 99.2035 1158.08 99.3174C1157.38 99.4313 1156.61 99.4883 1155.76 99.4883C1154.22 99.4883 1152.86 99.236 1151.71 98.7314C1150.57 98.2106 1149.69 97.3805 1149.07 96.2412C1148.45 95.1019 1148.14 93.6045 1148.14 91.749V66.0654ZM1176.88 99.4883C1174.83 99.4883 1172.99 99.1628 1171.36 98.5117C1169.73 97.8444 1168.35 96.9248 1167.21 95.7529C1166.09 94.5811 1165.23 93.222 1164.62 91.6758C1164.02 90.1133 1163.72 88.4531 1163.72 86.6953V85.7188C1163.72 83.7168 1164 81.8857 1164.57 80.2256C1165.14 78.5654 1165.96 77.125 1167.02 75.9043C1168.09 74.6836 1169.39 73.7477 1170.92 73.0967C1172.45 72.4294 1174.18 72.0957 1176.1 72.0957C1177.97 72.0957 1179.63 72.4049 1181.08 73.0234C1182.53 73.6419 1183.74 74.5208 1184.72 75.6602C1185.71 76.7995 1186.46 78.1667 1186.96 79.7617C1187.47 81.3405 1187.72 83.0983 1187.72 85.0352V87.9648H1166.72V83.2773H1180.81V82.7402C1180.81 81.7637 1180.63 80.8929 1180.27 80.1279C1179.93 79.3467 1179.41 78.7282 1178.71 78.2725C1178.01 77.8167 1177.11 77.5889 1176.02 77.5889C1175.1 77.5889 1174.3 77.7923 1173.63 78.1992C1172.96 78.6061 1172.42 79.1758 1172 79.9082C1171.59 80.6406 1171.28 81.5033 1171.07 82.4961C1170.87 83.4727 1170.78 84.5469 1170.78 85.7188V86.6953C1170.78 87.7533 1170.92 88.7298 1171.21 89.625C1171.52 90.5202 1171.96 91.2933 1172.51 91.9443C1173.08 92.5954 1173.76 93.0999 1174.56 93.458C1175.37 93.8161 1176.29 93.9951 1177.32 93.9951C1178.59 93.9951 1179.77 93.751 1180.86 93.2627C1181.97 92.7581 1182.92 92.0013 1183.71 90.9922L1187.13 94.7031C1186.58 95.5007 1185.82 96.2656 1184.86 96.998C1183.92 97.7305 1182.78 98.3327 1181.44 98.8047C1180.11 99.2604 1178.59 99.4883 1176.88 99.4883Z" fill="#2563AC"/>
<path d="M1294.76 13.6875V99H1277.24V13.6875H1294.76ZM1321.01 13.6875V27.457H1251.4V13.6875H1321.01Z" fill="#F38313"/>
<path d="M1317.89 99.4883C1315.84 99.4883 1314 99.1628 1312.38 98.5117C1310.75 97.8444 1309.36 96.9248 1308.22 95.7529C1307.1 94.5811 1306.24 93.222 1305.64 91.6758C1305.03 90.1133 1304.73 88.4531 1304.73 86.6953V85.7188C1304.73 83.7168 1305.02 81.8857 1305.59 80.2256C1306.16 78.5654 1306.97 77.125 1308.03 75.9043C1309.1 74.6836 1310.41 73.7477 1311.94 73.0967C1313.47 72.4294 1315.19 72.0957 1317.11 72.0957C1318.98 72.0957 1320.64 72.4049 1322.09 73.0234C1323.54 73.6419 1324.75 74.5208 1325.73 75.6602C1326.72 76.7995 1327.47 78.1667 1327.98 79.7617C1328.48 81.3405 1328.73 83.0983 1328.73 85.0352V87.9648H1307.74V83.2773H1321.82V82.7402C1321.82 81.7637 1321.64 80.8929 1321.29 80.1279C1320.94 79.3467 1320.42 78.7282 1319.72 78.2725C1319.02 77.8167 1318.13 77.5889 1317.04 77.5889C1316.11 77.5889 1315.31 77.7923 1314.65 78.1992C1313.98 78.6061 1313.43 79.1758 1313.01 79.9082C1312.6 80.6406 1312.29 81.5033 1312.08 82.4961C1311.89 83.4727 1311.79 84.5469 1311.79 85.7188V86.6953C1311.79 87.7533 1311.94 88.7298 1312.23 89.625C1312.54 90.5202 1312.97 91.2933 1313.52 91.9443C1314.09 92.5954 1314.78 93.0999 1315.57 93.458C1316.39 93.8161 1317.31 93.9951 1318.33 93.9951C1319.6 93.9951 1320.78 93.751 1321.87 93.2627C1322.98 92.7581 1323.93 92.0013 1324.73 90.9922L1328.15 94.7031C1327.59 95.5007 1326.84 96.2656 1325.88 96.998C1324.93 97.7305 1323.79 98.3327 1322.46 98.8047C1321.12 99.2604 1319.6 99.4883 1317.89 99.4883ZM1347.99 93.043V81.2754C1347.99 80.429 1347.86 79.7048 1347.58 79.1025C1347.3 78.484 1346.87 78.0039 1346.29 77.6621C1345.72 77.3203 1344.97 77.1494 1344.06 77.1494C1343.28 77.1494 1342.61 77.2878 1342.04 77.5645C1341.47 77.8249 1341.03 78.2074 1340.72 78.7119C1340.41 79.2002 1340.25 79.778 1340.25 80.4453H1333.22C1333.22 79.3223 1333.48 78.2562 1334 77.2471C1334.53 76.238 1335.28 75.3509 1336.28 74.5859C1337.27 73.8047 1338.45 73.1943 1339.82 72.7549C1341.2 72.3154 1342.75 72.0957 1344.45 72.0957C1346.5 72.0957 1348.33 72.4375 1349.92 73.1211C1351.52 73.8047 1352.77 74.8301 1353.68 76.1973C1354.61 77.5645 1355.07 79.2734 1355.07 81.3242V92.6279C1355.07 94.0765 1355.16 95.2646 1355.34 96.1924C1355.52 97.1038 1355.78 97.9014 1356.12 98.585V99H1349.02C1348.68 98.2839 1348.42 97.3887 1348.24 96.3145C1348.08 95.224 1347.99 94.1335 1347.99 93.043ZM1348.92 82.9111L1348.97 86.8906H1345.04C1344.11 86.8906 1343.31 86.9964 1342.62 87.208C1341.94 87.4196 1341.38 87.7207 1340.94 88.1113C1340.5 88.4857 1340.17 88.9251 1339.96 89.4297C1339.77 89.9342 1339.67 90.4876 1339.67 91.0898C1339.67 91.6921 1339.81 92.2373 1340.08 92.7256C1340.36 93.1976 1340.76 93.5719 1341.28 93.8486C1341.8 94.109 1342.41 94.2393 1343.11 94.2393C1344.17 94.2393 1345.09 94.0277 1345.87 93.6045C1346.65 93.1813 1347.25 92.6605 1347.68 92.042C1348.12 91.4235 1348.34 90.8376 1348.36 90.2842L1350.22 93.2627C1349.96 93.93 1349.6 94.6217 1349.14 95.3379C1348.7 96.054 1348.14 96.7295 1347.46 97.3643C1346.77 97.9827 1345.95 98.4954 1344.99 98.9023C1344.03 99.293 1342.89 99.4883 1341.57 99.4883C1339.9 99.4883 1338.38 99.1546 1337.01 98.4873C1335.66 97.8037 1334.58 96.8678 1333.79 95.6797C1333 94.4753 1332.61 93.1081 1332.61 91.5781C1332.61 90.1947 1332.87 88.9658 1333.39 87.8916C1333.92 86.8174 1334.68 85.9141 1335.69 85.1816C1336.71 84.4329 1337.99 83.8714 1339.52 83.4971C1341.05 83.1064 1342.83 82.9111 1344.84 82.9111H1348.92ZM1368.53 78.0527V99H1361.47V72.584H1368.09L1368.53 78.0527ZM1367.55 84.8643H1365.6C1365.6 83.0251 1365.82 81.3324 1366.25 79.7861C1366.71 78.2236 1367.37 76.8727 1368.23 75.7334C1369.11 74.5778 1370.19 73.6826 1371.48 73.0479C1372.77 72.4131 1374.25 72.0957 1375.95 72.0957C1377.12 72.0957 1378.19 72.2747 1379.17 72.6328C1380.15 72.9746 1380.98 73.5199 1381.68 74.2686C1382.4 75.001 1382.95 75.9613 1383.34 77.1494C1383.74 78.3213 1383.93 79.7292 1383.93 81.373V99H1376.9V82.1543C1376.9 80.9499 1376.74 80.0221 1376.41 79.3711C1376.09 78.7201 1375.62 78.2643 1375.02 78.0039C1374.43 77.7435 1373.73 77.6133 1372.9 77.6133C1371.98 77.6133 1371.19 77.8005 1370.5 78.1748C1369.84 78.5492 1369.28 79.07 1368.84 79.7373C1368.4 80.3883 1368.08 81.1533 1367.87 82.0322C1367.65 82.9111 1367.55 83.8551 1367.55 84.8643ZM1383.27 84.0586L1380.76 84.376C1380.76 82.6507 1380.97 81.0475 1381.39 79.5664C1381.83 78.0853 1382.47 76.7832 1383.32 75.6602C1384.18 74.5371 1385.25 73.6663 1386.52 73.0479C1387.79 72.4131 1389.25 72.0957 1390.91 72.0957C1392.18 72.0957 1393.34 72.2829 1394.38 72.6572C1395.42 73.0153 1396.31 73.5931 1397.04 74.3906C1397.79 75.1719 1398.36 76.1973 1398.75 77.4668C1399.16 78.7363 1399.36 80.2907 1399.36 82.1299V99H1392.3V82.1299C1392.3 80.9092 1392.14 79.9814 1391.82 79.3467C1391.51 78.6956 1391.05 78.248 1390.45 78.0039C1389.86 77.7435 1389.16 77.6133 1388.35 77.6133C1387.5 77.6133 1386.76 77.7842 1386.13 78.126C1385.49 78.4515 1384.96 78.9072 1384.54 79.4932C1384.12 80.0791 1383.8 80.7627 1383.59 81.5439C1383.38 82.3089 1383.27 83.1471 1383.27 84.0586ZM1420.09 91.7002C1420.09 91.1956 1419.94 90.7399 1419.65 90.333C1419.35 89.9261 1418.81 89.5518 1418.01 89.21C1417.23 88.8519 1416.1 88.5264 1414.62 88.2334C1413.28 87.9404 1412.04 87.5742 1410.88 87.1348C1409.74 86.679 1408.75 86.1338 1407.9 85.499C1407.07 84.8643 1406.42 84.1156 1405.95 83.2529C1405.48 82.374 1405.24 81.373 1405.24 80.25C1405.24 79.1432 1405.48 78.1016 1405.95 77.125C1406.44 76.1484 1407.13 75.2858 1408.03 74.5371C1408.94 73.7721 1410.04 73.1781 1411.35 72.7549C1412.67 72.3154 1414.15 72.0957 1415.79 72.0957C1418.08 72.0957 1420.05 72.4619 1421.7 73.1943C1423.36 73.9268 1424.63 74.9359 1425.51 76.2217C1426.4 77.4912 1426.85 78.9398 1426.85 80.5674H1419.82C1419.82 79.8838 1419.67 79.2734 1419.38 78.7363C1419.1 78.1829 1418.66 77.7516 1418.06 77.4424C1417.47 77.1169 1416.71 76.9541 1415.77 76.9541C1414.98 76.9541 1414.31 77.0924 1413.74 77.3691C1413.17 77.6296 1412.73 77.9876 1412.42 78.4434C1412.13 78.8828 1411.98 79.3711 1411.98 79.9082C1411.98 80.3151 1412.06 80.6813 1412.23 81.0068C1412.4 81.3161 1412.69 81.6009 1413.08 81.8613C1413.47 82.1217 1413.98 82.3659 1414.59 82.5938C1415.23 82.8053 1416.01 83.0007 1416.94 83.1797C1418.84 83.5703 1420.54 84.083 1422.04 84.7178C1423.54 85.3363 1424.73 86.1826 1425.6 87.2568C1426.48 88.3148 1426.92 89.7064 1426.92 91.4316C1426.92 92.6035 1426.66 93.6777 1426.14 94.6543C1425.62 95.6309 1424.87 96.4854 1423.9 97.2178C1422.92 97.9339 1421.75 98.4954 1420.38 98.9023C1419.03 99.293 1417.51 99.4883 1415.81 99.4883C1413.36 99.4883 1411.27 99.0488 1409.56 98.1699C1407.87 97.291 1406.59 96.1761 1405.71 94.8252C1404.84 93.458 1404.41 92.0583 1404.41 90.626H1411.08C1411.11 91.5863 1411.35 92.3594 1411.81 92.9453C1412.28 93.5312 1412.88 93.9544 1413.59 94.2148C1414.33 94.4753 1415.11 94.6055 1415.96 94.6055C1416.87 94.6055 1417.63 94.4834 1418.23 94.2393C1418.83 93.9788 1419.29 93.637 1419.6 93.2139C1419.92 92.7744 1420.09 92.2699 1420.09 91.7002Z" fill="#F38313"/>
</svg>
