<svg width="33" height="68" viewBox="0 0 33 68" fill="none" xmlns="http://www.w3.org/2000/svg">
<path d="M1.67233 62.0565C1.46669 62.0565 1.29189 62.005 1.14795 61.9022C1.004 61.7994 0.894326 61.652 0.818926 61.4601C0.750379 61.2682 0.719534 61.0454 0.726388 60.7918C0.733243 60.4833 0.815498 60.1783 0.973155 59.8767C1.13767 59.5751 1.38443 59.3283 1.71345 59.1364C2.04933 58.9376 2.47432 58.8382 2.98841 58.8382C3.34485 58.8382 3.68759 58.8656 4.01661 58.9205C4.35248 58.9753 4.67808 59.0336 4.99339 59.0953C5.31556 59.1501 5.62744 59.1775 5.92905 59.1775C6.18952 59.1775 6.41915 59.1569 6.61794 59.1158C6.82358 59.0747 7.0155 58.9684 7.19372 58.7971C7.24171 58.8519 7.28283 58.9273 7.31711 59.0233C7.35138 59.1124 7.36852 59.2015 7.36852 59.2906C7.36852 59.4277 7.33424 59.5648 7.2657 59.7019C7.19715 59.8321 7.08748 59.9418 6.93668 60.0309C6.79273 60.1132 6.6008 60.1543 6.36089 60.1543C6.17581 60.1543 5.9736 60.1303 5.75425 60.0823C5.54176 60.0275 5.3087 59.9555 5.05508 59.8664C4.80146 59.7704 4.52385 59.6642 4.22225 59.5477L4.21196 59.4962C4.02689 59.4277 3.86581 59.3866 3.72871 59.3729C3.59848 59.3523 3.44425 59.342 3.26603 59.342C2.85475 59.342 2.52915 59.4723 2.28924 59.7327C2.04933 59.9932 1.92595 60.3565 1.91909 60.8226C1.91224 61.0214 1.92937 61.2133 1.9705 61.3984C2.01848 61.5835 2.08703 61.7617 2.17614 61.9331C2.10074 61.9742 2.01506 62.005 1.91909 62.0256C1.82998 62.0462 1.74773 62.0565 1.67233 62.0565ZM2.50516 66.5702C2.37492 66.5702 2.25154 66.5462 2.13501 66.4982C2.01848 66.4503 1.94308 66.3851 1.90881 66.3029C2.00478 66.2481 2.0836 66.1795 2.1453 66.0973C2.20699 66.015 2.26182 65.9122 2.30981 65.7888C2.35779 65.6586 2.40234 65.5009 2.44347 65.3158L3.36885 60.8946C3.43054 60.6204 3.52307 60.3702 3.64646 60.144C3.76984 59.9178 3.93435 59.7362 4.13999 59.5991C4.34563 59.4551 4.59582 59.3763 4.89057 59.3626L3.5642 65.542C3.51622 65.7819 3.44767 65.9773 3.35856 66.1281C3.26945 66.2858 3.15292 66.3989 3.00898 66.4674C2.87189 66.5359 2.70395 66.5702 2.50516 66.5702ZM5.29157 63.0538C5.15447 63.0538 5.01053 63.0469 4.85973 63.0332C4.71578 63.0195 4.56498 62.999 4.40732 62.9715C4.24966 62.9373 4.08858 62.8996 3.92407 62.8584L4.08858 62.1798C4.21196 62.1867 4.33535 62.1935 4.45873 62.2004C4.58211 62.2073 4.7055 62.2141 4.82888 62.221C4.95226 62.221 5.06879 62.221 5.17847 62.221C5.33612 62.221 5.49378 62.2175 5.65143 62.2107C5.81595 62.2038 5.98388 62.197 6.15525 62.1901C6.1621 62.2312 6.16896 62.2689 6.17581 62.3032C6.18267 62.3375 6.18609 62.3718 6.18609 62.406C6.17924 62.6185 6.09356 62.7796 5.92905 62.8893C5.76454 62.999 5.55204 63.0538 5.29157 63.0538ZM8.48595 66.272C8.09524 66.272 7.75594 66.2001 7.46804 66.0561C7.187 65.9053 6.97108 65.6791 6.82028 65.3775C6.66948 65.0759 6.59408 64.6955 6.59408 64.2362C6.59408 63.8044 6.65234 63.376 6.76887 62.951C6.89226 62.5191 7.0739 62.1284 7.31381 61.7788C7.55373 61.4293 7.85876 61.1482 8.22891 60.9357C8.60591 60.7232 9.04803 60.617 9.55528 60.617C9.82261 60.617 10.0625 60.6547 10.275 60.7301C10.4875 60.8055 10.6554 60.9289 10.7788 61.1002C10.9022 61.2716 10.9639 61.5047 10.9639 61.7994C10.9639 62.197 10.8439 62.5328 10.604 62.807C10.371 63.0744 10.0591 63.28 9.66838 63.4239C9.27766 63.561 8.84582 63.6296 8.37285 63.6296C8.28374 63.6296 8.18435 63.6296 8.07468 63.6296C7.97186 63.6227 7.88618 63.6159 7.81763 63.609C7.81077 63.7187 7.80392 63.8284 7.79707 63.938C7.79021 64.0409 7.78678 64.1368 7.78678 64.2259C7.78678 64.5961 7.85533 64.8874 7.99242 65.0999C8.12951 65.3055 8.37971 65.4084 8.743 65.4084C9.03775 65.4084 9.30166 65.3398 9.53471 65.2027C9.76777 65.0588 9.94942 64.8566 10.0797 64.5961C10.1756 64.6235 10.2407 64.6783 10.275 64.7606C10.3093 64.8429 10.3264 64.9285 10.3264 65.0176C10.3264 65.2233 10.2544 65.4221 10.1105 65.614C9.96655 65.8059 9.75749 65.9636 9.4833 66.087C9.20912 66.2104 8.87667 66.272 8.48595 66.272ZM7.8896 63.1052C8.12266 63.1052 8.35229 63.0812 8.57849 63.0332C8.81155 62.9853 9.02404 62.9099 9.21597 62.807C9.4079 62.6974 9.5587 62.5603 9.66838 62.3958C9.78491 62.2244 9.84317 62.0256 9.84317 61.7994C9.84317 61.6006 9.79519 61.4532 9.69922 61.3573C9.61011 61.2545 9.47988 61.2031 9.30851 61.2031C9.11658 61.2031 8.93836 61.2647 8.77385 61.3881C8.61619 61.5047 8.4791 61.6589 8.36257 61.8508C8.24604 62.0427 8.14665 62.2484 8.0644 62.4677C7.98899 62.6871 7.93073 62.8996 7.8896 63.1052ZM13.1851 66.272C12.7944 66.272 12.4551 66.2001 12.1672 66.0561C11.8862 65.9053 11.6702 65.6791 11.5194 65.3775C11.3686 65.0759 11.2932 64.6955 11.2932 64.2362C11.2932 63.8044 11.3515 63.376 11.468 62.951C11.5914 62.5191 11.7731 62.1284 12.013 61.7788C12.2529 61.4293 12.5579 61.1482 12.9281 60.9357C13.3051 60.7232 13.7472 60.617 14.2544 60.617C14.5218 60.617 14.7617 60.6547 14.9742 60.7301C15.1867 60.8055 15.3546 60.9289 15.478 61.1002C15.6014 61.2716 15.6631 61.5047 15.6631 61.7994C15.6631 62.197 15.5431 62.5328 15.3032 62.807C15.0701 63.0744 14.7583 63.28 14.3675 63.4239C13.9768 63.561 13.545 63.6296 13.072 63.6296C12.9829 63.6296 12.8835 63.6296 12.7738 63.6296C12.671 63.6227 12.5853 63.6159 12.5168 63.609C12.5099 63.7187 12.5031 63.8284 12.4962 63.938C12.4894 64.0409 12.4859 64.1368 12.4859 64.2259C12.4859 64.5961 12.5545 64.8874 12.6916 65.0999C12.8287 65.3055 13.0789 65.4084 13.4422 65.4084C13.7369 65.4084 14.0008 65.3398 14.2339 65.2027C14.4669 65.0588 14.6486 64.8566 14.7788 64.5961C14.8748 64.6235 14.9399 64.6783 14.9742 64.7606C15.0085 64.8429 15.0256 64.9285 15.0256 65.0176C15.0256 65.2233 14.9536 65.4221 14.8097 65.614C14.6657 65.8059 14.4567 65.9636 14.1825 66.087C13.9083 66.2104 13.5758 66.272 13.1851 66.272ZM12.5888 63.1052C12.8218 63.1052 13.0515 63.0812 13.2777 63.0332C13.5107 62.9853 13.7232 62.9099 13.9151 62.807C14.1071 62.6974 14.2579 62.5603 14.3675 62.3958C14.4841 62.2244 14.5423 62.0256 14.5423 61.7994C14.5423 61.6006 14.4944 61.4532 14.3984 61.3573C14.3093 61.2545 14.179 61.2031 14.0077 61.2031C13.8157 61.2031 13.6375 61.2647 13.473 61.3881C13.3154 61.5047 13.1783 61.6589 13.0617 61.8508C12.9452 62.0427 12.8458 62.2484 12.7636 62.4677C12.6882 62.6871 12.6299 62.8996 12.5888 63.1052ZM17.8843 66.272C17.4936 66.272 17.1543 66.2001 16.8664 66.0561C16.5853 65.9053 16.3694 65.6791 16.2186 65.3775C16.0678 65.0759 15.9924 64.6955 15.9924 64.2362C15.9924 63.8044 16.0507 63.376 16.1672 62.951C16.2906 62.5191 16.4722 62.1284 16.7121 61.7788C16.9521 61.4293 17.2571 61.1482 17.6272 60.9357C18.0042 60.7232 18.4464 60.617 18.9536 60.617C19.2209 60.617 19.4608 60.6547 19.6733 60.7301C19.8858 60.8055 20.0538 60.9289 20.1772 61.1002C20.3005 61.2716 20.3622 61.5047 20.3622 61.7994C20.3622 62.197 20.2423 62.5328 20.0024 62.807C19.7693 63.0744 19.4574 63.28 19.0667 63.4239C18.676 63.561 18.2442 63.6296 17.7712 63.6296C17.6821 63.6296 17.5827 63.6296 17.473 63.6296C17.3702 63.6227 17.2845 63.6159 17.216 63.609C17.2091 63.7187 17.2022 63.8284 17.1954 63.938C17.1885 64.0409 17.1851 64.1368 17.1851 64.2259C17.1851 64.5961 17.2537 64.8874 17.3908 65.0999C17.5278 65.3055 17.778 65.4084 18.1413 65.4084C18.4361 65.4084 18.7 65.3398 18.933 65.2027C19.1661 65.0588 19.3477 64.8566 19.478 64.5961C19.5739 64.6235 19.6391 64.6783 19.6733 64.7606C19.7076 64.8429 19.7248 64.9285 19.7248 65.0176C19.7248 65.2233 19.6528 65.4221 19.5088 65.614C19.3649 65.8059 19.1558 65.9636 18.8816 66.087C18.6074 66.2104 18.275 66.272 17.8843 66.272ZM17.2879 63.1052C17.521 63.1052 17.7506 63.0812 17.9768 63.0332C18.2099 62.9853 18.4224 62.9099 18.6143 62.807C18.8062 62.6974 18.957 62.5603 19.0667 62.3958C19.1832 62.2244 19.2415 62.0256 19.2415 61.7994C19.2415 61.6006 19.1935 61.4532 19.0976 61.3573C19.0084 61.2545 18.8782 61.2031 18.7068 61.2031C18.5149 61.2031 18.3367 61.2647 18.1722 61.3881C18.0145 61.5047 17.8774 61.6589 17.7609 61.8508C17.6444 62.0427 17.545 62.2484 17.4627 62.4677C17.3873 62.6871 17.3291 62.8996 17.2879 63.1052ZM21.3702 66.272C21.1508 66.272 20.976 66.2104 20.8458 66.087C20.7224 65.9636 20.6607 65.7922 20.6607 65.5729C20.6607 65.4975 20.6676 65.4084 20.6813 65.3055C20.695 65.2027 20.7121 65.0759 20.7327 64.9251C20.7601 64.7743 20.7978 64.5858 20.8458 64.3596C20.8938 64.1334 20.9486 63.8626 21.0103 63.5473C21.072 63.232 21.1474 62.8584 21.2365 62.4266C21.3256 61.9948 21.4284 61.5012 21.545 60.946C21.6135 60.5553 21.6718 60.1749 21.7198 59.8047C21.7677 59.4277 21.7917 59.1124 21.7917 58.8588C21.7917 58.7765 21.7883 58.7045 21.7815 58.6428C21.7746 58.5743 21.7643 58.5126 21.7506 58.4578C21.8192 58.4166 21.9014 58.3824 21.9974 58.355C22.0933 58.3275 22.1927 58.3138 22.2956 58.3138C22.4738 58.3138 22.6383 58.3687 22.7891 58.4783C22.9467 58.5812 23.0256 58.7662 23.0256 59.0336C23.0256 59.0884 23.0119 59.1981 22.9844 59.3626C22.957 59.5271 22.9228 59.719 22.8816 59.9384C22.8405 60.1509 22.7959 60.3736 22.748 60.6067C22.7068 60.8329 22.6691 61.0385 22.6349 61.2236C22.4703 62.0188 22.3367 62.6699 22.2339 63.1772C22.131 63.6776 22.0488 64.0717 21.9871 64.3596C21.9323 64.6475 21.8911 64.86 21.8637 64.9971C21.8431 65.1342 21.8294 65.2301 21.8226 65.285C21.8157 65.3398 21.8123 65.3878 21.8123 65.4289C21.8123 65.5317 21.8363 65.614 21.8843 65.6757C21.9391 65.7374 22.0179 65.7717 22.1208 65.7785C22.1002 65.895 22.0488 65.991 21.9665 66.0664C21.8911 66.135 21.802 66.1864 21.6992 66.2206C21.5964 66.2549 21.4867 66.272 21.3702 66.272ZM25.0937 66.272C24.703 66.272 24.3637 66.2001 24.0758 66.0561C23.7947 65.9053 23.5788 65.6791 23.428 65.3775C23.2772 65.0759 23.2018 64.6955 23.2018 64.2362C23.2018 63.8044 23.2601 63.376 23.3766 62.951C23.5 62.5191 23.6816 62.1284 23.9215 61.7788C24.1615 61.4293 24.4665 61.1482 24.8366 60.9357C25.2136 60.7232 25.6558 60.617 26.163 60.617C26.4303 60.617 26.6703 60.6547 26.8827 60.7301C27.0952 60.8055 27.2632 60.9289 27.3866 61.1002C27.5099 61.2716 27.5716 61.5047 27.5716 61.7994C27.5716 62.197 27.4517 62.5328 27.2118 62.807C26.9787 63.0744 26.6668 63.28 26.2761 63.4239C25.8854 63.561 25.4536 63.6296 24.9806 63.6296C24.8915 63.6296 24.7921 63.6296 24.6824 63.6296C24.5796 63.6227 24.4939 63.6159 24.4254 63.609C24.4185 63.7187 24.4117 63.8284 24.4048 63.938C24.3979 64.0409 24.3945 64.1368 24.3945 64.2259C24.3945 64.5961 24.4631 64.8874 24.6002 65.0999C24.7372 65.3055 24.9874 65.4084 25.3507 65.4084C25.6455 65.4084 25.9094 65.3398 26.1424 65.2027C26.3755 65.0588 26.5571 64.8566 26.6874 64.5961C26.7834 64.6235 26.8485 64.6783 26.8827 64.7606C26.917 64.8429 26.9342 64.9285 26.9342 65.0176C26.9342 65.2233 26.8622 65.4221 26.7182 65.614C26.5743 65.8059 26.3652 65.9636 26.091 66.087C25.8169 66.2104 25.4844 66.272 25.0937 66.272ZM24.4973 63.1052C24.7304 63.1052 24.96 63.0812 25.1862 63.0332C25.4193 62.9853 25.6318 62.9099 25.8237 62.807C26.0156 62.6974 26.1664 62.5603 26.2761 62.3958C26.3926 62.2244 26.4509 62.0256 26.4509 61.7994C26.4509 61.6006 26.4029 61.4532 26.307 61.3573C26.2178 61.2545 26.0876 61.2031 25.9162 61.2031C25.7243 61.2031 25.5461 61.2647 25.3816 61.3881C25.2239 61.5047 25.0868 61.6589 24.9703 61.8508C24.8538 62.0427 24.7544 62.2484 24.6721 62.4677C24.5967 62.6871 24.5385 62.8996 24.4973 63.1052ZM27.8804 66.1898L28.9086 60.8226L29.8854 60.6992L29.762 61.6246C29.8922 61.3299 30.0876 61.09 30.3481 60.9049C30.6086 60.7129 30.8999 60.617 31.222 60.617C31.5579 60.617 31.8013 60.7164 31.9521 60.9152C32.1097 61.1139 32.1885 61.3573 32.1885 61.6452C32.1885 61.9879 32.096 62.2827 31.9109 62.5294C31.7259 62.7762 31.4825 62.8996 31.1809 62.8996C31.0987 62.8996 31.013 62.8859 30.9239 62.8584C30.8416 62.831 30.7765 62.783 30.7285 62.7145C30.8176 62.598 30.8896 62.4574 30.9444 62.2929C30.9993 62.1216 31.0267 61.9673 31.0267 61.8302C31.0267 61.7 30.9958 61.5972 30.9341 61.5218C30.8793 61.4464 30.7868 61.4087 30.6565 61.4087C30.492 61.4087 30.3481 61.4704 30.2247 61.5938C30.1013 61.7103 29.9985 61.8611 29.9162 62.0462C29.834 62.2312 29.7654 62.43 29.7106 62.6425C29.6626 62.8482 29.6215 63.0367 29.5872 63.208L29.0834 66.0664L27.8804 66.1898Z" fill="#1298F4"/>
<path fill-rule="evenodd" clip-rule="evenodd" d="M20.7187 43.7388L9.3933 41.2603C9.36506 41.2533 9.33582 41.2452 9.30657 41.2311C9.09781 41.1808 8.89511 41.1013 8.71459 41.0076C8.31825 40.8204 7.98544 40.5536 7.80593 40.2365C7.69702 40.0493 7.58911 39.7472 7.69702 39.408C7.82711 39.0265 8.20933 38.7305 8.70753 38.5513C8.88805 38.4859 9.09075 38.4426 9.29951 38.4144C9.42255 38.3993 9.53046 38.3711 9.66055 38.3711C9.89856 38.3711 10.1366 38.3993 10.3675 38.4496L15.2617 39.5238L15.8537 39.6536L21.701 40.9291C21.7292 40.9362 21.7584 40.9502 21.7877 40.9573C21.9964 41.0076 22.1991 41.0872 22.3797 41.1737C22.776 41.368 23.1007 41.6278 23.2813 41.9449C23.3902 42.1321 23.4981 42.4341 23.3902 42.7734C23.2601 43.1549 22.8769 43.4509 22.3797 43.6311C22.0902 43.7317 21.7796 43.8032 21.4337 43.8032C21.2169 43.8032 20.993 43.775 20.7842 43.7317C20.762 43.7247 20.7409 43.7317 20.7187 43.7247V43.7388ZM19.1888 41.3318C19.1525 41.4908 19.2533 41.6489 19.4127 41.6851L21.6939 42.1824C21.7151 42.1895 21.7373 42.1895 21.7584 42.1895C21.7655 42.1895 21.7726 42.1824 21.7877 42.1824C21.9097 42.1754 22.0186 42.0888 22.0539 41.959C22.0902 41.8009 21.9894 41.6418 21.823 41.6056L21.7877 41.5986L19.5428 41.1083C19.3834 41.0731 19.2251 41.1737 19.1888 41.3318Z" fill="#FE7B13"/>
<path fill-rule="evenodd" clip-rule="evenodd" d="M10.3675 42.1366L17.7305 43.7433L20.4373 44.3342L21.701 44.608C22.423 44.7671 23.014 45.1486 23.2883 45.6238C23.3972 45.8181 23.5051 46.114 23.3972 46.4523C23.1945 47.0583 22.3938 47.4832 21.4337 47.4832C21.2744 47.4832 21.109 47.454 20.9426 47.4328C20.871 47.4177 20.7913 47.4258 20.7187 47.4036L20.2497 47.303L12.1939 45.5372L11.4647 45.3792L9.3933 44.9251C8.67122 44.7661 8.08024 44.3916 7.80593 43.9094C7.69702 43.7221 7.58911 43.4191 7.69702 43.0809C7.82711 42.6983 8.20933 42.4034 8.70753 42.2232C8.88805 42.1577 9.09075 42.1155 9.29951 42.0863C9.42255 42.0722 9.53046 42.043 9.66055 42.043C9.89856 42.043 10.1366 42.0722 10.3675 42.1225V42.1366ZM19.4994 45.2855L21.6939 45.7607C21.7151 45.7677 21.7373 45.7677 21.7584 45.7677C21.8956 45.7677 22.0186 45.6741 22.0469 45.5372C22.0832 45.3792 21.9823 45.2201 21.8159 45.1849L19.5276 44.6805C19.3693 44.6443 19.21 44.7449 19.1747 44.903C19.1666 44.9543 19.1888 44.9896 19.2029 45.0329C19.2322 45.1345 19.2967 45.2282 19.4056 45.2563L19.4994 45.2785V45.2855Z" fill="#FE7B13"/>
<path fill-rule="evenodd" clip-rule="evenodd" d="M11.6394 46.0918L20.5111 48.0378L21.1747 48.1817L21.7021 48.2975C22.4162 48.4555 23.0152 48.83 23.2895 49.3132C23.3984 49.5075 23.5063 49.8035 23.3984 50.1417C23.1957 50.7468 22.395 51.1726 21.4419 51.1726C21.3189 51.1726 21.1969 51.1434 21.0738 51.1293C20.9659 51.1142 20.8429 51.1142 20.7269 51.0931L20.4819 51.0357L10.4201 48.83L9.84225 48.7082L9.39448 48.6065C8.6724 48.4485 8.08142 48.074 7.80711 47.5908C7.64777 47.317 7.61147 47.029 7.6982 46.7623C7.9009 46.1572 8.70165 45.7324 9.65467 45.7324C9.89268 45.7324 10.1307 45.7606 10.3616 45.8109L10.9829 45.9479L11.6323 46.0918H11.6394ZM19.544 48.3619C19.3846 48.3257 19.2263 48.4273 19.19 48.5854C19.1537 48.7515 19.2545 48.9025 19.4139 48.9387L20.7128 49.2196L21.3189 49.3495L21.6951 49.4361C21.7163 49.4431 21.7384 49.4431 21.7596 49.4431C21.8968 49.4431 22.0198 49.3495 22.048 49.2126C22.0844 49.0535 21.9835 48.8955 21.8171 48.8592L21.2473 48.7364L20.6412 48.5995L19.5288 48.3619H19.544Z" fill="#FE7B13"/>
<mask id="mask0_835_12023" style="mask-type:luminance" maskUnits="userSpaceOnUse" x="10" y="49" width="11" height="6">
<path d="M10.1797 49.3027H20.5067V54.6976H10.1797V49.3027Z" fill="white"/>
</mask>
<g mask="url(#mask0_835_12023)">
<path fill-rule="evenodd" clip-rule="evenodd" d="M10.3567 49.4277L20.2752 51.5972C19.4593 53.3981 17.6541 54.6595 15.5464 54.6595C12.6812 54.6595 10.3496 52.3321 10.3496 49.471C10.3496 49.4569 10.3567 49.4428 10.3567 49.4277ZM14.6377 53.5502C14.6881 53.3911 14.5944 53.225 14.4421 53.1817C13.244 52.8223 12.291 51.9072 11.8876 50.7254C11.8291 50.5734 11.6637 50.4948 11.5114 50.5381C11.3601 50.5885 11.2734 50.7616 11.3238 50.9126C11.7928 52.2747 12.8981 53.3337 14.2767 53.7444C14.3049 53.7515 14.3342 53.7585 14.3634 53.7585C14.4925 53.7585 14.6085 53.679 14.6448 53.5421L14.6377 53.5502Z" fill="#FE7B13"/>
</g>
<mask id="mask1_835_12023" style="mask-type:luminance" maskUnits="userSpaceOnUse" x="1" y="8" width="30" height="33">
<path d="M1.375 8.12109H30.25V40.8226H1.375V8.12109Z" fill="white"/>
</mask>
<g mask="url(#mask1_835_12023)">
<path d="M24.3097 32.2804C22.829 34.3604 21.5572 36.1609 21.4634 37.5721V40.2355L21.9044 40.329L22.4969 40.4588L23.1752 40.6097V37.6294C23.2115 37.1969 23.5083 36.5853 23.9413 35.8652C24.4106 35.0877 25.0465 34.1884 25.7046 33.2591C25.9064 32.9784 26.073 32.734 26.1881 32.5751C26.3758 32.3096 26.5423 32.0712 26.6725 31.8841C27.4376 30.7757 28.5075 29.0265 29.2584 27.0249C29.7863 25.6138 30.1618 24.0728 30.1618 22.547C30.1618 18.5941 28.5509 15.0093 25.9428 12.4173C23.3347 9.8182 19.7445 8.21289 15.7707 8.21289C11.804 8.21289 8.20678 9.8182 5.60573 12.4173C2.99761 15.0163 1.38672 18.5941 1.38672 22.547C1.38672 24.0799 1.7632 25.6138 2.29007 27.032C3.04102 29.0406 4.11091 30.7827 4.87598 31.8911C4.99206 32.0571 5.1586 32.3015 5.36046 32.5821C5.46846 32.7411 5.64913 32.9855 5.84494 33.2661C6.37181 34.0084 6.88456 34.7356 7.29636 35.3683C7.70817 36.002 8.03318 36.5853 8.22091 37.0822L8.32992 37.3629L8.62566 37.4282L9.29787 37.5721L10.2083 37.7732L9.95495 36.8811C9.76721 36.2253 9.3988 35.5051 8.90726 34.7205C8.43085 33.9501 7.85251 33.1444 7.2459 32.2804C7.04403 31.9927 6.87749 31.7624 6.76949 31.6105C6.63929 31.4234 6.47981 31.2001 6.29914 30.9336C5.6996 30.0625 4.89819 28.7741 4.24818 27.2844C3.60523 25.8149 3.10662 24.1664 3.11369 22.547C3.11369 19.0628 4.53685 15.9025 6.82702 13.6202C9.1172 11.338 12.2885 9.91978 15.7849 9.91978C19.2822 9.91978 22.4454 11.338 24.7437 13.6202C27.0409 15.9095 28.4641 19.0698 28.4641 22.547C28.4641 23.8717 28.131 25.2175 27.6617 26.4637C26.9753 28.2842 25.9791 29.8976 25.2776 30.9265C25.0687 31.2293 24.7649 31.6538 24.4692 32.0782L24.3319 32.2804H24.3097Z" fill="#FE7B13"/>
</g>
<mask id="mask2_835_12023" style="mask-type:luminance" maskUnits="userSpaceOnUse" x="8" y="0" width="16" height="8">
<path d="M8.10352 0H23.3009V7.48074H8.10352V0Z" fill="white"/>
</mask>
<g mask="url(#mask2_835_12023)">
<path fill-rule="evenodd" clip-rule="evenodd" d="M15.9641 6.37034C16.5547 6.37034 17.0377 5.89289 17.0377 5.30779V1.06255C17.0377 0.477452 16.5547 0 15.9641 0C15.3735 0 14.8915 0.477452 14.8915 1.06255V5.30779C14.8915 5.89289 15.3735 6.37034 15.9641 6.37034ZM20.0623 7.19168C19.5149 6.9704 19.2553 6.34243 19.4787 5.80717L21.1137 1.88289C21.3371 1.34065 21.971 1.08448 22.5103 1.30577C23.0577 1.52705 23.3173 2.15402 23.0939 2.68928L21.4589 6.61355C21.2355 7.1558 20.6026 7.41197 20.0623 7.19168ZM11.391 7.37708C11.9384 7.1558 12.198 6.52783 11.9746 5.99257L10.3395 2.06829C10.1162 1.52705 9.48228 1.26988 8.94297 1.49116C8.3956 1.71245 8.13601 2.33941 8.35938 2.87468L9.99443 6.79895C10.2168 7.3412 10.8507 7.59836 11.391 7.37708Z" fill="#1298F4"/>
</g>
<path fill-rule="evenodd" clip-rule="evenodd" d="M15.2106 18.9654C15.2329 18.7855 15.3993 18.6628 15.5808 18.6839C15.7623 18.706 15.886 18.8719 15.8647 19.0519C15.8211 19.3826 15.9154 19.6993 16.1041 19.9506C16.2927 20.1959 16.5757 20.3749 16.9093 20.4181C17.0908 20.4402 17.2146 20.6061 17.1922 20.785C17.1709 20.965 17.0036 21.0876 16.8221 21.0665C16.3069 20.9941 15.8718 20.7277 15.5808 20.3467C15.5808 20.3397 15.5737 20.3397 15.5737 20.3326C15.167 20.4543 14.3831 20.5699 13.8537 19.8712C13.7452 19.7274 13.7736 19.5193 13.9186 19.4108C14.0636 19.3032 14.2746 19.3324 14.3831 19.4761C14.6376 19.8069 15.022 19.7928 15.2765 19.7345C15.2035 19.4902 15.1822 19.2308 15.2187 18.9654H15.2106ZM20.5683 24.2966C20.9304 23.9367 21.1555 23.4411 21.1555 22.8861C21.1555 22.3393 20.9304 21.8436 20.5683 21.4767C20.2052 21.1168 19.7043 20.8936 19.1455 20.8936C18.9639 20.8936 18.8108 20.7498 18.8108 20.5629C18.8108 20.3829 18.9639 20.2311 19.1455 20.2311C19.8858 20.2311 20.5531 20.5267 21.0328 21.0082C21.5186 21.4908 21.8167 22.1523 21.8167 22.8791C21.8167 23.0812 21.7944 23.2752 21.7508 23.4622C21.9546 23.5195 22.1646 23.5557 22.3897 23.5557C23.5661 23.5557 24.5316 22.6559 24.6259 21.5119C25.134 21.2103 25.4747 20.6564 25.4747 20.023C25.4747 19.274 24.996 18.6337 24.3277 18.3964C24.0955 18.8287 23.7476 19.1735 23.341 19.4188C22.7528 19.7636 22.0337 19.8863 21.3157 19.7063L21.2863 19.6993L21.2498 19.6772C21.0906 19.5978 21.0176 19.3967 21.1048 19.2389C21.1778 19.1021 21.337 19.0298 21.482 19.0659C22.0195 19.2027 22.5641 19.1092 23.0073 18.8498C23.4495 18.5904 23.7912 18.1662 23.9292 17.6334C24.0012 17.3529 24.0083 17.0654 23.9576 16.7919C23.704 16.1726 23.2172 15.6117 22.5641 15.2377C22.5347 15.2307 22.5063 15.2236 22.4769 15.2166C22.4039 15.1945 22.339 15.1583 22.2954 15.101C22.2153 15.0648 22.1281 15.0215 22.0419 14.9934C21.1119 14.6405 20.1393 14.6978 19.3706 15.0718C18.971 14.4676 18.2814 14.0715 17.4975 14.0715C17.0188 14.0715 16.5757 14.2233 16.2126 14.4747C16.2785 14.6405 16.3211 14.8134 16.3505 14.9864C16.459 15.6549 16.314 16.3606 15.886 16.9578C15.7917 17.0865 15.6173 17.1377 15.4723 17.0583C15.313 16.9789 15.24 16.7778 15.3272 16.619L15.3556 16.5758C15.6832 16.1304 15.7917 15.5906 15.7045 15.0939C15.6538 14.8064 15.5453 14.5249 15.3709 14.2806C15.0078 14.0363 14.5717 13.8926 14.1072 13.8926C12.9177 13.8926 11.937 14.8134 11.865 15.9786C11.4796 15.669 10.9867 15.482 10.4563 15.482C10.3691 15.482 10.29 15.49 10.2099 15.4971C10.1734 15.5252 10.1369 15.5473 10.0862 15.5544C9.54869 15.6911 9.12072 16.0289 8.86009 16.4682C8.59844 16.9075 8.50413 17.4464 8.64205 17.9792C8.77997 18.512 9.12072 18.9363 9.5639 19.1956C10.0061 19.454 10.5507 19.5475 11.0882 19.4108L11.1318 19.4037H11.1754C11.3569 19.4037 11.509 19.5475 11.509 19.7345C11.509 19.8933 11.3924 20.03 11.2474 20.0592C10.5365 20.2311 9.82454 20.1095 9.23735 19.7636C8.64915 19.4188 8.19177 18.8498 8.01024 18.137L8.00314 18.0948C7.97373 17.9792 7.95954 17.8646 7.94534 17.749C6.92106 17.9581 6.15234 18.8498 6.15234 19.9295C6.15234 20.5548 6.41298 21.1309 6.84196 21.534C6.5225 21.915 6.33387 22.4046 6.33387 22.9445C6.33387 23.2963 6.41298 23.6351 6.56611 23.9297C6.59451 23.9518 6.61682 23.9729 6.63812 24.0021C6.95757 24.4484 7.43726 24.7219 7.94534 24.8083C8.45342 24.8938 8.9899 24.7792 9.44018 24.4625C9.89046 24.1458 10.1663 23.6713 10.2535 23.1747C10.3407 22.671 10.2241 22.1382 9.90465 21.6918L9.87626 21.6486C9.79614 21.4837 9.86105 21.2887 10.0213 21.2103C10.1663 21.1379 10.3478 21.1811 10.435 21.3108C10.863 21.908 11.008 22.6127 10.8995 23.2822C10.79 23.9518 10.4198 24.5771 9.81744 25.0023C9.73833 25.0596 9.65822 25.1099 9.571 25.1602C9.571 25.1823 9.571 25.2034 9.571 25.2255C9.571 26.456 10.573 27.4483 11.8143 27.4483C12.4745 27.4483 13.0698 27.1678 13.4764 26.7144L13.5048 26.6782C13.5414 26.6933 13.5779 26.7144 13.6073 26.7295C13.6428 27.9308 13.2584 29.4197 12.4309 31.2052C14.376 30.0822 15.7846 28.2475 16.6629 25.7141C16.7065 25.7141 16.7501 25.7221 16.8008 25.7221C17.4397 25.7221 17.9985 25.3763 18.3027 24.8727C18.2378 24.4333 18.035 24.0453 17.7368 23.7427C17.3738 23.3828 16.8728 23.1596 16.314 23.1596C16.1325 23.1596 15.9804 23.0088 15.9804 22.8288C15.9804 22.6489 16.1254 22.4981 16.314 22.4981C17.0543 22.4981 17.7226 22.7927 18.2013 23.2752C18.6303 23.6995 18.9132 24.2614 18.971 24.8938C18.9852 24.9018 19.0005 24.9088 19.0147 24.9159C19.0583 24.8938 19.1161 24.8797 19.1668 24.8797C19.7185 24.8797 20.2194 24.6565 20.5896 24.2966H20.5683ZM17.7662 16.8492C17.6567 16.7055 17.6861 16.4974 17.8312 16.3888C17.9762 16.2812 18.1871 16.3094 18.2956 16.4541C18.5502 16.7849 18.9345 16.7708 19.1891 16.7125C19.1161 16.4682 19.0948 16.2088 19.1303 15.9424C19.1526 15.7635 19.3199 15.6408 19.5004 15.6619C19.682 15.6841 19.8057 15.8489 19.7844 16.0289C19.7408 16.3606 19.8351 16.6773 20.0237 16.9286C20.2123 17.1729 20.4953 17.3458 20.8289 17.3961C21.0105 17.4182 21.1342 17.5831 21.1119 17.7631C21.0906 17.943 20.9233 18.0657 20.7417 18.0435C20.2265 17.9722 19.7915 17.7057 19.5004 17.3247C19.5004 17.3177 19.4933 17.3177 19.4933 17.3097C19.0867 17.4323 18.3027 17.5479 17.7733 16.8492H17.7662ZM12.2493 22.9083C12.7645 22.9806 13.2006 23.2461 13.4906 23.6281C13.4906 23.6351 13.4977 23.6351 13.4977 23.6421C13.9044 23.5195 14.6883 23.4049 15.2187 24.1026C15.3272 24.2463 15.2978 24.4555 15.1528 24.563C15.0078 24.6716 14.7969 24.6424 14.6883 24.4987C14.4338 24.1679 14.0494 24.182 13.7959 24.2393C13.8679 24.4836 13.8902 24.743 13.8537 25.0094C13.8314 25.1893 13.6651 25.312 13.4835 25.2899C13.302 25.2688 13.1783 25.1029 13.2006 24.9229C13.2442 24.5922 13.1499 24.2755 12.9613 24.0232C12.7716 23.7789 12.4887 23.606 12.155 23.5557C11.9735 23.5346 11.8498 23.3687 11.8721 23.1887C11.8934 23.0088 12.0607 22.8861 12.2422 22.9083H12.2493Z" fill="#1298F4"/>
</svg>
