<svg width="167" height="48" viewBox="0 0 167 48" fill="none" xmlns="http://www.w3.org/2000/svg">
<path d="M57.6958 30.9816H58.6228V34.8384H57.6958V30.9816ZM59.4185 31.9622H60.2742V32.3128C60.3416 32.0394 60.6486 31.9027 61.1953 31.9027C61.5638 31.9027 61.8213 31.9701 61.9679 32.1048C62.1184 32.2355 62.1937 32.4435 62.1937 32.7288V34.8384H61.3261V32.8417C61.3261 32.7307 61.3142 32.6475 61.2904 32.5921C61.2706 32.5366 61.227 32.497 61.1597 32.4732C61.0963 32.4495 60.9973 32.4376 60.8626 32.4376C60.6922 32.4376 60.5674 32.4495 60.4882 32.4732C60.4089 32.493 60.3555 32.5307 60.3277 32.5861C60.3 32.6416 60.2861 32.7268 60.2861 32.8417V34.8384H59.4185V31.9622ZM64.0283 34.8978C63.7193 34.8978 63.341 34.8681 62.8933 34.8087V34.2322C63.444 34.3154 63.8263 34.357 64.0402 34.357C64.2224 34.357 64.3571 34.3392 64.4443 34.3035C64.5315 34.2679 64.575 34.2025 64.575 34.1074V33.9292C64.575 33.8301 64.5473 33.7608 64.4918 33.7212C64.4364 33.6776 64.3274 33.6558 64.165 33.6558H63.7906C63.4856 33.6558 63.2498 33.5964 63.0835 33.4775C62.9171 33.3547 62.8339 33.1764 62.8339 32.9427V32.5921C62.8339 32.3425 62.9527 32.1662 63.1904 32.0632C63.4281 31.9562 63.7867 31.9027 64.266 31.9027C64.4562 31.9027 64.7969 31.9206 65.2881 31.9562V32.5089C64.6701 32.4613 64.3215 32.4376 64.2423 32.4376C64.0085 32.4376 63.856 32.4534 63.7847 32.4851C63.7213 32.5208 63.6896 32.5861 63.6896 32.6812V32.8357C63.6896 32.8872 63.7153 32.9328 63.7668 32.9724C63.8183 33.0081 63.8936 33.0259 63.9927 33.0259H64.373C65.0782 33.0259 65.4308 33.2557 65.4308 33.7152V34.0777C65.4308 34.2164 65.405 34.3372 65.3535 34.4402C65.302 34.5432 65.2347 34.6244 65.1515 34.6839C65.0722 34.7393 64.9692 34.7829 64.8425 34.8146C64.7196 34.8463 64.5909 34.8681 64.4562 34.88C64.3334 34.8919 64.1908 34.8978 64.0283 34.8978ZM66.0749 31.9622H66.895V32.2474C66.9465 32.1206 67.0475 32.0315 67.198 31.98C67.3486 31.9285 67.5724 31.9027 67.8695 31.9027C68.1191 31.9027 68.3192 31.9226 68.4697 31.9622C68.6243 32.0018 68.7411 32.0652 68.8204 32.1523C68.8956 32.2395 68.9471 32.3366 68.9749 32.4435C69.0026 32.5465 69.0165 32.6891 69.0165 32.8714V33.8163C69.0165 34.1015 68.9749 34.3214 68.8917 34.4759C68.8085 34.6304 68.6797 34.7393 68.5054 34.8027C68.335 34.8661 68.1013 34.8978 67.8042 34.8978C67.5189 34.8978 67.3129 34.874 67.1861 34.8265C67.0594 34.779 66.9782 34.6859 66.9425 34.5472V36.0744H66.0749V31.9622ZM67.5368 34.357C67.7071 34.357 67.8359 34.3451 67.923 34.3214C68.0102 34.2976 68.0696 34.256 68.1013 34.1966C68.133 34.1372 68.1488 34.048 68.1488 33.9292V32.8654C68.1488 32.7347 68.135 32.6416 68.1072 32.5861C68.0795 32.5267 68.0241 32.4871 67.9409 32.4673C67.8577 32.4475 67.721 32.4376 67.5308 32.4376C67.3684 32.4376 67.2436 32.4514 67.1564 32.4792C67.0732 32.5069 67.0158 32.5505 66.9841 32.6099C66.9564 32.6693 66.9425 32.7545 66.9425 32.8654V33.9292C66.9425 34.048 66.9564 34.1372 66.9841 34.1966C67.0158 34.256 67.0732 34.2976 67.1564 34.3214C67.2396 34.3451 67.3664 34.357 67.5368 34.357ZM69.7199 30.9222H70.5875V31.6234H69.7199V30.9222ZM69.7199 31.9622H70.5875V34.8384H69.7199V31.9622ZM71.3733 31.9622H72.1993V32.4673C72.1993 32.3762 72.2369 32.287 72.3122 32.1999C72.3875 32.1127 72.4826 32.0414 72.5975 31.9859C72.7163 31.9305 72.8332 31.9027 72.9481 31.9027H73.2571V32.6218H72.96C72.7143 32.6218 72.5321 32.6594 72.4132 32.7347C72.2984 32.81 72.2409 32.9348 72.2409 33.1091V34.8384H71.3733V31.9622ZM73.759 30.9222H74.6266V31.6234H73.759V30.9222ZM73.759 31.9622H74.6266V34.8384H73.759V31.9622ZM75.4124 31.9622H76.2681V32.3128C76.3355 32.0394 76.6425 31.9027 77.1892 31.9027C77.5577 31.9027 77.8152 31.9701 77.9618 32.1048C78.1123 32.2355 78.1876 32.4435 78.1876 32.7288V34.8384H77.32V32.8417C77.32 32.7307 77.3081 32.6475 77.2843 32.5921C77.2645 32.5366 77.2209 32.497 77.1536 32.4732C77.0902 32.4495 76.9911 32.4376 76.8564 32.4376C76.6861 32.4376 76.5613 32.4495 76.4821 32.4732C76.4028 32.493 76.3493 32.5307 76.3216 32.5861C76.2939 32.6416 76.28 32.7268 76.28 32.8417V34.8384H75.4124V31.9622ZM80.1113 36.1457C79.6439 36.1457 79.2972 36.1319 79.0714 36.1041V35.5218C79.4438 35.5733 79.7904 35.599 80.1113 35.599C80.4045 35.599 80.6145 35.5515 80.7413 35.4564C80.868 35.3613 80.9314 35.2029 80.9314 34.981V34.5175C80.8601 34.6205 80.7908 34.6997 80.7234 34.7552C80.6561 34.8067 80.5669 34.8423 80.456 34.8621C80.349 34.8859 80.2005 34.8978 80.0103 34.8978C79.729 34.8978 79.5052 34.8721 79.3388 34.8206C79.1724 34.7651 79.0516 34.6759 78.9763 34.5531C78.901 34.4264 78.8634 34.252 78.8634 34.0302V32.907C78.8634 32.6416 78.8971 32.4376 78.9644 32.295C79.0357 32.1523 79.1546 32.0513 79.321 31.9919C79.4913 31.9325 79.735 31.9027 80.0519 31.9027C80.2579 31.9027 80.4164 31.9146 80.5273 31.9384C80.6343 31.9622 80.7155 31.9978 80.771 32.0454C80.8264 32.0929 80.8898 32.1741 80.9611 32.289V31.9622H81.799V34.9929C81.799 35.4009 81.6584 35.6941 81.3771 35.8724C81.0998 36.0546 80.6779 36.1457 80.1113 36.1457ZM80.3193 34.357C80.4897 34.357 80.6165 34.3451 80.6997 34.3214C80.7868 34.2976 80.8462 34.26 80.8779 34.2085C80.9136 34.153 80.9314 34.0757 80.9314 33.9767V32.8179C80.9314 32.7109 80.9156 32.6317 80.8839 32.5802C80.8522 32.5247 80.7908 32.4871 80.6997 32.4673C80.6085 32.4475 80.4659 32.4376 80.2718 32.4376C80.1133 32.4376 79.9964 32.4495 79.9212 32.4732C79.8459 32.497 79.7944 32.5386 79.7667 32.598C79.7429 32.6535 79.731 32.7367 79.731 32.8476V33.947C79.731 34.0698 79.7429 34.1589 79.7667 34.2144C79.7944 34.2659 79.8479 34.3035 79.9271 34.3273C80.0064 34.3471 80.1371 34.357 80.3193 34.357ZM84.2822 30.9816H84.9003L84.6269 32.289H83.7236L84.2822 30.9816ZM85.5896 30.9816H86.2076L85.9343 32.289H85.031L85.5896 30.9816ZM87.8156 30.9816H88.9447L90.3353 34.8384H89.3963L89.0517 33.8222H87.6433L87.3045 34.8384H86.3894L87.8156 30.9816ZM88.8496 33.2042L88.3623 31.7542H88.3386L87.8513 33.2042H88.8496ZM90.3945 31.9622H91.2799L91.8148 34.048L92.3853 31.9622H93.235L93.8293 34.048L94.3404 31.9622H95.1842L94.2453 34.8384H93.3658L92.7953 32.8952L92.2367 34.8384H91.3572L90.3945 31.9622ZM97.0577 34.8978C96.0395 34.8978 95.5305 34.5868 95.5305 33.9648V32.9308C95.5305 32.5703 95.6453 32.3088 95.8751 32.1464C96.1089 31.984 96.4674 31.9027 96.9507 31.9027C97.4063 31.9027 97.7391 31.982 97.9491 32.1405C98.163 32.295 98.27 32.5584 98.27 32.9308V33.632H96.404V33.8935C96.404 34.0599 96.4634 34.1788 96.5823 34.2501C96.7011 34.3214 96.9151 34.357 97.2241 34.357C97.5093 34.357 97.8302 34.3154 98.1868 34.2322V34.7849C97.8342 34.8602 97.4578 34.8978 97.0577 34.8978ZM97.444 33.1388V32.7228C97.444 32.6277 97.4044 32.5564 97.3251 32.5089C97.2498 32.4613 97.1211 32.4376 96.9388 32.4376C96.7289 32.4376 96.5882 32.4613 96.5169 32.5089C96.4417 32.5604 96.404 32.6317 96.404 32.7228V33.1388H97.444ZM100.009 34.8978C99.6997 34.8978 99.3214 34.8681 98.8737 34.8087V34.2322C99.4244 34.3154 99.8067 34.357 100.021 34.357C100.203 34.357 100.338 34.3392 100.425 34.3035C100.512 34.2679 100.555 34.2025 100.555 34.1074V33.9292C100.555 33.8301 100.528 33.7608 100.472 33.7212C100.417 33.6776 100.308 33.6558 100.145 33.6558H99.771C99.466 33.6558 99.2303 33.5964 99.0639 33.4775C98.8975 33.3547 98.8143 33.1764 98.8143 32.9427V32.5921C98.8143 32.3425 98.9331 32.1662 99.1708 32.0632C99.4085 31.9562 99.7671 31.9027 100.246 31.9027C100.437 31.9027 100.777 31.9206 101.269 31.9562V32.5089C100.651 32.4613 100.302 32.4376 100.223 32.4376C99.9889 32.4376 99.8364 32.4534 99.7651 32.4851C99.7017 32.5208 99.67 32.5861 99.67 32.6812V32.8357C99.67 32.8872 99.6958 32.9328 99.7473 32.9724C99.7988 33.0081 99.874 33.0259 99.9731 33.0259H100.353C101.059 33.0259 101.411 33.2557 101.411 33.7152V34.0777C101.411 34.2164 101.385 34.3372 101.334 34.4402C101.282 34.5432 101.215 34.6244 101.132 34.6839C101.053 34.7393 100.95 34.7829 100.823 34.8146C100.7 34.8463 100.571 34.8681 100.437 34.88C100.314 34.8919 100.171 34.8978 100.009 34.8978ZM103.434 34.8978C103.256 34.8978 103.109 34.8919 102.994 34.88C102.879 34.8681 102.757 34.8443 102.626 34.8087C102.483 34.769 102.368 34.7136 102.281 34.6423C102.194 34.567 102.121 34.462 102.061 34.3273C102.002 34.1966 101.972 34.0381 101.972 33.8519V33.0021C101.972 32.812 102.002 32.6456 102.061 32.5029C102.121 32.3603 102.198 32.2494 102.293 32.1702C102.376 32.1028 102.485 32.0474 102.62 32.0038C102.759 31.9562 102.893 31.9265 103.024 31.9146C103.174 31.9067 103.311 31.9027 103.434 31.9027C103.616 31.9027 103.761 31.9087 103.868 31.9206C103.979 31.9285 104.1 31.9523 104.23 31.9919C104.373 32.0355 104.488 32.0949 104.575 32.1702C104.666 32.2454 104.743 32.3524 104.807 32.4911C104.866 32.6337 104.896 32.804 104.896 33.0021V33.8519C104.896 34.0302 104.866 34.1867 104.807 34.3214C104.751 34.4561 104.678 34.5611 104.587 34.6363C104.508 34.7037 104.399 34.7591 104.26 34.8027C104.125 34.8423 103.993 34.8681 103.862 34.88C103.743 34.8919 103.6 34.8978 103.434 34.8978ZM103.434 34.357C103.596 34.357 103.719 34.3451 103.802 34.3214C103.886 34.2936 103.943 34.252 103.975 34.1966C104.01 34.1411 104.028 34.0599 104.028 33.9529V32.8654C104.028 32.707 103.987 32.596 103.903 32.5327C103.82 32.4693 103.664 32.4376 103.434 32.4376C103.204 32.4376 103.048 32.4693 102.965 32.5327C102.881 32.596 102.84 32.707 102.84 32.8654V33.9529C102.84 34.0599 102.856 34.1411 102.887 34.1966C102.923 34.252 102.982 34.2936 103.066 34.3214C103.149 34.3451 103.272 34.357 103.434 34.357ZM105.572 31.9622H106.44V32.3128C106.495 32.0394 106.778 31.9027 107.29 31.9027C107.559 31.9027 107.763 31.9384 107.902 32.0097C108.04 32.0771 108.133 32.184 108.181 32.3306C108.228 32.1801 108.32 32.0711 108.454 32.0038C108.593 31.9364 108.801 31.9027 109.078 31.9027C109.328 31.9027 109.52 31.9325 109.655 31.9919C109.789 32.0474 109.882 32.1345 109.934 32.2534C109.989 32.3722 110.017 32.5307 110.017 32.7288V34.8384H109.15V32.8476C109.15 32.7208 109.142 32.6317 109.126 32.5802C109.11 32.5247 109.074 32.4871 109.019 32.4673C108.967 32.4475 108.876 32.4376 108.745 32.4376C108.583 32.4376 108.466 32.4475 108.395 32.4673C108.327 32.4871 108.282 32.5247 108.258 32.5802C108.238 32.6317 108.228 32.7208 108.228 32.8476V34.8384H107.361V32.8476C107.361 32.7208 107.353 32.6317 107.337 32.5802C107.321 32.5247 107.286 32.4871 107.23 32.4673C107.179 32.4475 107.087 32.4376 106.957 32.4376C106.794 32.4376 106.677 32.4475 106.606 32.4673C106.539 32.4871 106.493 32.5247 106.469 32.5802C106.45 32.6317 106.44 32.7208 106.44 32.8476V34.8384H105.572V31.9622ZM112.222 34.8978C111.204 34.8978 110.694 34.5868 110.694 33.9648V32.9308C110.694 32.5703 110.809 32.3088 111.039 32.1464C111.273 31.984 111.631 31.9027 112.115 31.9027C112.57 31.9027 112.903 31.982 113.113 32.1405C113.327 32.295 113.434 32.5584 113.434 32.9308V33.632H111.568V33.8935C111.568 34.0599 111.627 34.1788 111.746 34.2501C111.865 34.3214 112.079 34.357 112.388 34.357C112.673 34.357 112.994 34.3154 113.351 34.2322V34.7849C112.998 34.8602 112.622 34.8978 112.222 34.8978ZM112.608 33.1388V32.7228C112.608 32.6277 112.568 32.5564 112.489 32.5089C112.414 32.4613 112.285 32.4376 112.103 32.4376C111.893 32.4376 111.752 32.4613 111.681 32.5089C111.606 32.5604 111.568 32.6317 111.568 32.7228V33.1388H112.608ZM114.258 30.9816H115.161L114.602 32.289H113.984L114.258 30.9816ZM115.506 30.9816H116.409L115.85 32.289H115.232L115.506 30.9816ZM119.293 30.9816H120.422L121.812 34.8384H120.873L120.529 33.8222H119.12L118.782 34.8384H117.866L119.293 30.9816ZM120.327 33.2042L119.839 31.7542H119.816L119.328 33.2042H120.327ZM123.607 34.8978C123.456 34.8978 123.337 34.8938 123.25 34.8859C123.163 34.882 123.056 34.8721 122.929 34.8562C122.803 34.8404 122.698 34.8126 122.614 34.773C122.535 34.7334 122.452 34.674 122.365 34.5947C122.202 34.46 122.121 34.2303 122.121 33.9054V32.9486C122.121 32.6872 122.181 32.4693 122.299 32.295C122.343 32.2316 122.406 32.1741 122.49 32.1226C122.577 32.0672 122.664 32.0236 122.751 31.9919C122.822 31.9681 122.917 31.9483 123.036 31.9325C123.155 31.9166 123.26 31.9067 123.351 31.9027H123.666C123.888 31.9027 124.179 31.9384 124.54 32.0097V32.5802C124.132 32.4851 123.819 32.4376 123.601 32.4376C123.201 32.4376 123.001 32.5723 123.001 32.8417V33.8995C123.001 34.2045 123.221 34.357 123.66 34.357C123.874 34.357 124.181 34.3135 124.581 34.2263V34.7968C124.221 34.8641 123.896 34.8978 123.607 34.8978ZM125.071 31.9622H125.897V32.4673C125.897 32.3762 125.935 32.287 126.01 32.1999C126.085 32.1127 126.18 32.0414 126.295 31.9859C126.414 31.9305 126.531 31.9027 126.646 31.9027H126.955V32.6218H126.658C126.412 32.6218 126.23 32.6594 126.111 32.7347C125.996 32.81 125.939 32.9348 125.939 33.1091V34.8384H125.071V31.9622ZM128.812 34.8978C128.634 34.8978 128.487 34.8919 128.372 34.88C128.257 34.8681 128.134 34.8443 128.004 34.8087C127.861 34.769 127.746 34.7136 127.659 34.6423C127.572 34.567 127.498 34.462 127.439 34.3273C127.38 34.1966 127.35 34.0381 127.35 33.8519V33.0021C127.35 32.812 127.38 32.6456 127.439 32.5029C127.498 32.3603 127.576 32.2494 127.671 32.1702C127.754 32.1028 127.863 32.0474 127.998 32.0038C128.136 31.9562 128.271 31.9265 128.402 31.9146C128.552 31.9067 128.689 31.9027 128.812 31.9027C128.994 31.9027 129.139 31.9087 129.246 31.9206C129.357 31.9285 129.477 31.9523 129.608 31.9919C129.751 32.0355 129.866 32.0949 129.953 32.1702C130.044 32.2454 130.121 32.3524 130.185 32.4911C130.244 32.6337 130.274 32.804 130.274 33.0021V33.8519C130.274 34.0302 130.244 34.1867 130.185 34.3214C130.129 34.4561 130.056 34.5611 129.965 34.6363C129.885 34.7037 129.776 34.7591 129.638 34.8027C129.503 34.8423 129.37 34.8681 129.24 34.88C129.121 34.8919 128.978 34.8978 128.812 34.8978ZM128.812 34.357C128.974 34.357 129.097 34.3451 129.18 34.3214C129.263 34.2936 129.321 34.252 129.353 34.1966C129.388 34.1411 129.406 34.0599 129.406 33.9529V32.8654C129.406 32.707 129.364 32.596 129.281 32.5327C129.198 32.4693 129.042 32.4376 128.812 32.4376C128.582 32.4376 128.426 32.4693 128.342 32.5327C128.259 32.596 128.218 32.707 128.218 32.8654V33.9529C128.218 34.0599 128.233 34.1411 128.265 34.1966C128.301 34.252 128.36 34.2936 128.443 34.3214C128.527 34.3451 128.649 34.357 128.812 34.357ZM132.026 34.8978C131.717 34.8978 131.338 34.8681 130.89 34.8087V34.2322C131.441 34.3154 131.823 34.357 132.037 34.357C132.22 34.357 132.354 34.3392 132.441 34.3035C132.529 34.2679 132.572 34.2025 132.572 34.1074V33.9292C132.572 33.8301 132.545 33.7608 132.489 33.7212C132.434 33.6776 132.325 33.6558 132.162 33.6558H131.788C131.483 33.6558 131.247 33.5964 131.081 33.4775C130.914 33.3547 130.831 33.1764 130.831 32.9427V32.5921C130.831 32.3425 130.95 32.1662 131.188 32.0632C131.425 31.9562 131.784 31.9027 132.263 31.9027C132.453 31.9027 132.794 31.9206 133.285 31.9562V32.5089C132.667 32.4613 132.319 32.4376 132.239 32.4376C132.006 32.4376 131.853 32.4534 131.782 32.4851C131.718 32.5208 131.687 32.5861 131.687 32.6812V32.8357C131.687 32.8872 131.713 32.9328 131.764 32.9724C131.816 33.0081 131.891 33.0259 131.99 33.0259H132.37C133.075 33.0259 133.428 33.2557 133.428 33.7152V34.0777C133.428 34.2164 133.402 34.3372 133.351 34.4402C133.299 34.5432 133.232 34.6244 133.149 34.6839C133.069 34.7393 132.966 34.7829 132.84 34.8146C132.717 34.8463 132.588 34.8681 132.453 34.88C132.331 34.8919 132.188 34.8978 132.026 34.8978ZM135.148 34.8978C134.839 34.8978 134.46 34.8681 134.013 34.8087V34.2322C134.563 34.3154 134.946 34.357 135.16 34.357C135.342 34.357 135.477 34.3392 135.564 34.3035C135.651 34.2679 135.694 34.2025 135.694 34.1074V33.9292C135.694 33.8301 135.667 33.7608 135.611 33.7212C135.556 33.6776 135.447 33.6558 135.284 33.6558H134.91C134.605 33.6558 134.369 33.5964 134.203 33.4775C134.036 33.3547 133.953 33.1764 133.953 32.9427V32.5921C133.953 32.3425 134.072 32.1662 134.31 32.0632C134.547 31.9562 134.906 31.9027 135.385 31.9027C135.576 31.9027 135.916 31.9206 136.408 31.9562V32.5089C135.789 32.4613 135.441 32.4376 135.362 32.4376C135.128 32.4376 134.975 32.4534 134.904 32.4851C134.841 32.5208 134.809 32.5861 134.809 32.6812V32.8357C134.809 32.8872 134.835 32.9328 134.886 32.9724C134.938 33.0081 135.013 33.0259 135.112 33.0259H135.492C136.198 33.0259 136.55 33.2557 136.55 33.7152V34.0777C136.55 34.2164 136.524 34.3372 136.473 34.4402C136.421 34.5432 136.354 34.6244 136.271 34.6839C136.192 34.7393 136.089 34.7829 135.962 34.8146C135.839 34.8463 135.71 34.8681 135.576 34.88C135.453 34.8919 135.31 34.8978 135.148 34.8978ZM139.491 31.6413H138.302V30.9816H141.6V31.6413H140.418V34.8384H139.491V31.6413ZM142.098 30.6786H142.966V32.3128C143.021 32.0394 143.324 31.9027 143.875 31.9027C144.243 31.9027 144.501 31.9701 144.647 32.1048C144.798 32.2355 144.873 32.4435 144.873 32.7288V34.8384H144.006V32.8298C144.006 32.7189 143.994 32.6376 143.97 32.5861C143.95 32.5307 143.909 32.493 143.845 32.4732C143.782 32.4495 143.681 32.4376 143.542 32.4376C143.372 32.4376 143.247 32.4475 143.168 32.4673C143.088 32.4871 143.035 32.5247 143.007 32.5802C142.98 32.6317 142.966 32.7149 142.966 32.8298V34.8384H142.098V30.6786ZM147.076 34.8978C146.058 34.8978 145.549 34.5868 145.549 33.9648V32.9308C145.549 32.5703 145.664 32.3088 145.894 32.1464C146.127 31.984 146.486 31.9027 146.969 31.9027C147.425 31.9027 147.758 31.982 147.968 32.1405C148.182 32.295 148.289 32.5584 148.289 32.9308V33.632H146.423V33.8935C146.423 34.0599 146.482 34.1788 146.601 34.2501C146.72 34.3214 146.934 34.357 147.243 34.357C147.528 34.357 147.849 34.3154 148.205 34.2322V34.7849C147.853 34.8602 147.476 34.8978 147.076 34.8978ZM147.463 33.1388V32.7228C147.463 32.6277 147.423 32.5564 147.344 32.5089C147.268 32.4613 147.14 32.4376 146.957 32.4376C146.747 32.4376 146.607 32.4613 146.536 32.5089C146.46 32.5604 146.423 32.6317 146.423 32.7228V33.1388H147.463ZM152.193 34.8978C151.971 34.8978 151.775 34.8879 151.605 34.8681C151.435 34.8483 151.266 34.8146 151.1 34.7671C150.922 34.7195 150.775 34.6561 150.66 34.5769C150.545 34.4937 150.452 34.3867 150.381 34.256C150.309 34.1173 150.274 33.9589 150.274 33.7806V32.1761C150.274 31.982 150.313 31.8077 150.393 31.6532C150.472 31.4947 150.579 31.3699 150.714 31.2788C150.84 31.1956 150.991 31.1243 151.165 31.0648C151.343 31.0054 151.518 30.9658 151.688 30.946C151.831 30.9301 152.003 30.9222 152.205 30.9222C152.752 30.9222 153.275 30.9638 153.774 31.047V31.7482C153.314 31.6373 152.791 31.5818 152.205 31.5818C151.536 31.5818 151.201 31.776 151.201 32.1642V33.7152C151.201 33.9054 151.29 34.0401 151.468 34.1193C151.65 34.1986 151.924 34.2382 152.288 34.2382C152.482 34.2382 152.69 34.2085 152.912 34.149V33.2517H152.282V32.6456H153.798V34.6482C153.6 34.7195 153.346 34.779 153.037 34.8265C152.732 34.874 152.451 34.8978 152.193 34.8978ZM154.535 30.6786H155.403V34.8384H154.535V30.6786ZM157.567 34.8978C157.389 34.8978 157.242 34.8919 157.127 34.88C157.012 34.8681 156.89 34.8443 156.759 34.8087C156.616 34.769 156.501 34.7136 156.414 34.6423C156.327 34.567 156.254 34.462 156.194 34.3273C156.135 34.1966 156.105 34.0381 156.105 33.8519V33.0021C156.105 32.812 156.135 32.6456 156.194 32.5029C156.254 32.3603 156.331 32.2494 156.426 32.1702C156.509 32.1028 156.618 32.0474 156.753 32.0038C156.892 31.9562 157.026 31.9265 157.157 31.9146C157.308 31.9067 157.444 31.9027 157.567 31.9027C157.749 31.9027 157.894 31.9087 158.001 31.9206C158.112 31.9285 158.233 31.9523 158.363 31.9919C158.506 32.0355 158.621 32.0949 158.708 32.1702C158.799 32.2454 158.876 32.3524 158.94 32.4911C158.999 32.6337 159.029 32.804 159.029 33.0021V33.8519C159.029 34.0302 158.999 34.1867 158.94 34.3214C158.884 34.4561 158.811 34.5611 158.72 34.6363C158.641 34.7037 158.532 34.7591 158.393 34.8027C158.258 34.8423 158.126 34.8681 157.995 34.88C157.876 34.8919 157.734 34.8978 157.567 34.8978ZM157.567 34.357C157.73 34.357 157.852 34.3451 157.936 34.3214C158.019 34.2936 158.076 34.252 158.108 34.1966C158.144 34.1411 158.161 34.0599 158.161 33.9529V32.8654C158.161 32.707 158.12 32.596 158.037 32.5327C157.953 32.4693 157.797 32.4376 157.567 32.4376C157.337 32.4376 157.181 32.4693 157.098 32.5327C157.014 32.596 156.973 32.707 156.973 32.8654V33.9529C156.973 34.0599 156.989 34.1411 157.02 34.1966C157.056 34.252 157.115 34.2936 157.199 34.3214C157.282 34.3451 157.405 34.357 157.567 34.357ZM161.161 34.8978C160.797 34.8978 160.507 34.8602 160.294 34.7849C160.084 34.7096 159.933 34.5947 159.842 34.4402C159.751 34.2818 159.705 34.0738 159.705 33.8163V30.6786H160.573V32.2474C160.624 32.1167 160.719 32.0275 160.858 31.98C160.997 31.9285 161.213 31.9027 161.506 31.9027C161.755 31.9027 161.955 31.9226 162.106 31.9622C162.261 32.0018 162.377 32.0652 162.457 32.1523C162.532 32.2395 162.583 32.3366 162.611 32.4435C162.639 32.5465 162.653 32.6891 162.653 32.8714V33.8163C162.653 34.2045 162.536 34.4818 162.302 34.6482C162.068 34.8146 161.688 34.8978 161.161 34.8978ZM161.173 34.357C161.343 34.357 161.472 34.3451 161.559 34.3214C161.646 34.2976 161.706 34.256 161.738 34.1966C161.769 34.1372 161.785 34.048 161.785 33.9292V32.8654C161.785 32.7347 161.771 32.6416 161.744 32.5861C161.716 32.5267 161.66 32.4871 161.577 32.4673C161.494 32.4475 161.357 32.4376 161.167 32.4376C161.005 32.4376 160.88 32.4514 160.793 32.4792C160.71 32.5069 160.652 32.5505 160.62 32.6099C160.589 32.6693 160.573 32.7545 160.573 32.8654V33.9292C160.573 34.048 160.587 34.1372 160.614 34.1966C160.646 34.256 160.704 34.2976 160.787 34.3214C160.874 34.3451 161.003 34.357 161.173 34.357ZM164.776 34.8978C163.758 34.8978 163.249 34.5868 163.249 33.9648V32.9308C163.249 32.5703 163.364 32.3088 163.594 32.1464C163.828 31.984 164.186 31.9027 164.669 31.9027C165.125 31.9027 165.458 31.982 165.668 32.1405C165.882 32.295 165.989 32.5584 165.989 32.9308V33.632H164.123V33.8935C164.123 34.0599 164.182 34.1788 164.301 34.2501C164.42 34.3214 164.634 34.357 164.943 34.357C165.228 34.357 165.549 34.3154 165.905 34.2322V34.7849C165.553 34.8602 165.176 34.8978 164.776 34.8978ZM165.163 33.1388V32.7228C165.163 32.6277 165.123 32.5564 165.044 32.5089C164.968 32.4613 164.84 32.4376 164.657 32.4376C164.448 32.4376 164.307 32.4613 164.236 32.5089C164.16 32.5604 164.123 32.6317 164.123 32.7228V33.1388H165.163Z" fill="#529BEB"/>
<path d="M59.2661 10.8787H60.8256L62.7462 16.2056H61.4494L60.9733 14.802H59.0281L58.5602 16.2056H57.2962L59.2661 10.8787ZM60.6943 13.9484L60.0212 11.9457H59.9884L59.3153 13.9484H60.6943ZM62.828 12.233H64.051L64.7897 15.1139L65.5777 12.233H66.7514L67.5722 15.1139L68.2781 12.233H69.4436L68.1467 16.2056H66.932L66.144 13.5216L65.3725 16.2056H64.1577L62.828 12.233ZM72.0312 16.2876C70.6249 16.2876 69.9218 15.8581 69.9218 14.999V13.5708C69.9218 13.0729 70.0805 12.7118 70.3979 12.4874C70.7207 12.2631 71.2159 12.1509 71.8835 12.1509C72.5128 12.1509 72.9724 12.2603 73.2624 12.4792C73.5579 12.6926 73.7056 13.0565 73.7056 13.5708V14.5394H71.1284V14.9005C71.1284 15.1303 71.2104 15.2945 71.3746 15.393C71.5388 15.4915 71.8342 15.5407 72.261 15.5407C72.655 15.5407 73.0982 15.4833 73.5907 15.3684V16.1317C73.1037 16.2357 72.5839 16.2876 72.0312 16.2876ZM72.5647 13.8581V13.2836C72.5647 13.1522 72.51 13.0537 72.4006 12.9881C72.2966 12.9224 72.1188 12.8896 71.8671 12.8896C71.5771 12.8896 71.3828 12.9224 71.2843 12.9881C71.1803 13.0592 71.1284 13.1577 71.1284 13.2836V13.8581H72.5647ZM76.1072 16.2876C75.6804 16.2876 75.1578 16.2466 74.5395 16.1645V15.3684C75.3001 15.4833 75.8281 15.5407 76.1236 15.5407C76.3753 15.5407 76.5614 15.5161 76.6817 15.4669C76.8021 15.4176 76.8623 15.3273 76.8623 15.196V14.9498C76.8623 14.813 76.824 14.7172 76.7474 14.6625C76.6708 14.6023 76.5203 14.5722 76.296 14.5722H75.7789C75.3575 14.5722 75.032 14.4901 74.8021 14.326C74.5723 14.1563 74.4574 13.9101 74.4574 13.5873V13.103C74.4574 12.7583 74.6216 12.5148 74.9499 12.3725C75.2782 12.2248 75.7734 12.1509 76.4355 12.1509C76.6982 12.1509 77.1687 12.1755 77.8473 12.2248V12.9881C76.9936 12.9224 76.5121 12.8896 76.4027 12.8896C76.0798 12.8896 75.8692 12.9115 75.7707 12.9553C75.6831 13.0045 75.6393 13.0948 75.6393 13.2261V13.4395C75.6393 13.5107 75.6749 13.5736 75.746 13.6283C75.8172 13.6775 75.9211 13.7022 76.0579 13.7022H76.5832C77.5572 13.7022 78.0442 14.0195 78.0442 14.6543V15.155C78.0442 15.3465 78.0087 15.5134 77.9375 15.6556C77.8664 15.7979 77.7734 15.9101 77.6585 15.9922C77.549 16.0688 77.4068 16.129 77.2317 16.1727C77.062 16.2165 76.8842 16.2466 76.6982 16.263C76.5285 16.2794 76.3315 16.2876 76.1072 16.2876ZM80.8381 16.2876C80.5919 16.2876 80.3894 16.2794 80.2307 16.263C80.0721 16.2466 79.9024 16.2138 79.7219 16.1645C79.5249 16.1098 79.3662 16.0332 79.2458 15.9347C79.1254 15.8307 79.0242 15.6857 78.9421 15.4997C78.86 15.3191 78.819 15.1002 78.819 14.8431V13.6693C78.819 13.4067 78.86 13.1769 78.9421 12.9799C79.0242 12.7829 79.1309 12.6297 79.2622 12.5202C79.3771 12.4272 79.5276 12.3506 79.7136 12.2904C79.9052 12.2248 80.0912 12.1837 80.2718 12.1673C80.4797 12.1564 80.6685 12.1509 80.8381 12.1509C81.0898 12.1509 81.2896 12.1591 81.4373 12.1755C81.5905 12.1865 81.7574 12.2193 81.938 12.274C82.135 12.3342 82.2937 12.4163 82.414 12.5202C82.5399 12.6242 82.6466 12.7719 82.7341 12.9635C82.8162 13.1605 82.8573 13.3957 82.8573 13.6693V14.8431C82.8573 15.0893 82.8162 15.3054 82.7341 15.4915C82.6575 15.6775 82.5563 15.8225 82.4304 15.9265C82.321 16.0195 82.1705 16.0961 81.979 16.1563C81.793 16.211 81.6097 16.2466 81.4291 16.263C81.2649 16.2794 81.0679 16.2876 80.8381 16.2876ZM80.8381 15.5407C81.0625 15.5407 81.2321 15.5243 81.347 15.4915C81.4619 15.4532 81.5413 15.3957 81.585 15.3191C81.6343 15.2425 81.6589 15.1303 81.6589 14.9826V13.4806C81.6589 13.2617 81.6015 13.1085 81.4865 13.0209C81.3716 12.9334 81.1555 12.8896 80.8381 12.8896C80.5208 12.8896 80.3046 12.9334 80.1897 13.0209C80.0748 13.1085 80.0173 13.2617 80.0173 13.4806V14.9826C80.0173 15.1303 80.0392 15.2425 80.083 15.3191C80.1322 15.3957 80.2143 15.4532 80.3292 15.4915C80.4441 15.5243 80.6138 15.5407 80.8381 15.5407ZM83.7913 12.233H84.9896V12.7172C85.0662 12.3397 85.4575 12.1509 86.1634 12.1509C86.5354 12.1509 86.8172 12.2001 87.0088 12.2986C87.2003 12.3916 87.3289 12.5394 87.3945 12.7419C87.4602 12.5339 87.5861 12.3834 87.7721 12.2904C87.9636 12.1974 88.2509 12.1509 88.6339 12.1509C88.9787 12.1509 89.244 12.1919 89.4301 12.274C89.6161 12.3506 89.7447 12.471 89.8159 12.6351C89.8925 12.7993 89.9308 13.0182 89.9308 13.2918V16.2056H88.7324V13.4559C88.7324 13.2808 88.7215 13.1577 88.6996 13.0866C88.6777 13.01 88.6284 12.958 88.5518 12.9306C88.4807 12.9033 88.3549 12.8896 88.1743 12.8896C87.9499 12.8896 87.7885 12.9033 87.69 12.9306C87.597 12.958 87.5341 13.01 87.5012 13.0866C87.4739 13.1577 87.4602 13.2808 87.4602 13.4559V16.2056H86.2619V13.4559C86.2619 13.2808 86.2509 13.1577 86.229 13.0866C86.2071 13.01 86.1579 12.958 86.0813 12.9306C86.0101 12.9033 85.8843 12.8896 85.7037 12.8896C85.4794 12.8896 85.3179 12.9033 85.2195 12.9306C85.1264 12.958 85.0635 13.01 85.0307 13.0866C85.0033 13.1577 84.9896 13.2808 84.9896 13.4559V16.2056H83.7913V12.233ZM92.9757 16.2876C91.5694 16.2876 90.8663 15.8581 90.8663 14.999V13.5708C90.8663 13.0729 91.0249 12.7118 91.3423 12.4874C91.6652 12.2631 92.1604 12.1509 92.8279 12.1509C93.4572 12.1509 93.9169 12.2603 94.2069 12.4792C94.5023 12.6926 94.6501 13.0565 94.6501 13.5708V14.5394H92.0728V14.9005C92.0728 15.1303 92.1549 15.2945 92.3191 15.393C92.4832 15.4915 92.7787 15.5407 93.2055 15.5407C93.5995 15.5407 94.0427 15.4833 94.5352 15.3684V16.1317C94.0482 16.2357 93.5283 16.2876 92.9757 16.2876ZM93.5092 13.8581V13.2836C93.5092 13.1522 93.4545 13.0537 93.345 12.9881C93.2411 12.9224 93.0632 12.8896 92.8115 12.8896C92.5215 12.8896 92.3273 12.9224 92.2288 12.9881C92.1248 13.0592 92.0728 13.1577 92.0728 13.2836V13.8581H93.5092ZM97.5069 10.8787H98.7874V16.2056H97.5069V10.8787ZM99.8864 12.233H101.068V12.7172C101.161 12.3397 101.585 12.1509 102.341 12.1509C102.849 12.1509 103.205 12.2439 103.408 12.43C103.615 12.6105 103.719 12.8978 103.719 13.2918V16.2056H102.521V13.4477C102.521 13.2945 102.505 13.1796 102.472 13.103C102.444 13.0264 102.384 12.9717 102.291 12.9388C102.204 12.906 102.067 12.8896 101.881 12.8896C101.646 12.8896 101.473 12.906 101.364 12.9388C101.254 12.9662 101.18 13.0182 101.142 13.0948C101.104 13.1714 101.085 13.289 101.085 13.4477V16.2056H99.8864V12.233ZM106.754 16.2876C106.552 16.2876 106.382 16.2794 106.245 16.263C106.108 16.2466 105.972 16.2138 105.835 16.1645C105.682 16.1153 105.556 16.0469 105.457 15.9593C105.364 15.8718 105.288 15.7514 105.227 15.5982C105.162 15.4395 105.129 15.2562 105.129 15.0483V12.9717H104.325V12.233H105.129V11.0839H106.327V12.233H107.419V12.9717H106.327V14.8431C106.327 15.0346 106.344 15.1796 106.377 15.2781C106.409 15.3711 106.472 15.4395 106.565 15.4833C106.658 15.5216 106.801 15.5407 106.992 15.5407C107.069 15.5407 107.211 15.5271 107.419 15.4997V16.2466C107.162 16.274 106.94 16.2876 106.754 16.2876ZM110.105 16.2876C108.698 16.2876 107.995 15.8581 107.995 14.999V13.5708C107.995 13.0729 108.154 12.7118 108.471 12.4874C108.794 12.2631 109.289 12.1509 109.957 12.1509C110.586 12.1509 111.046 12.2603 111.336 12.4792C111.631 12.6926 111.779 13.0565 111.779 13.5708V14.5394H109.202V14.9005C109.202 15.1303 109.284 15.2945 109.448 15.393C109.612 15.4915 109.908 15.5407 110.335 15.5407C110.729 15.5407 111.172 15.4833 111.664 15.3684V16.1317C111.177 16.2357 110.657 16.2876 110.105 16.2876ZM110.638 13.8581V13.2836C110.638 13.1522 110.584 13.0537 110.474 12.9881C110.37 12.9224 110.192 12.8896 109.941 12.8896C109.651 12.8896 109.456 12.9224 109.358 12.9881C109.254 13.0592 109.202 13.1577 109.202 13.2836V13.8581H110.638ZM112.695 12.233H113.836V12.9306C113.836 12.8048 113.888 12.6817 113.992 12.5613C114.096 12.4409 114.227 12.3424 114.386 12.2658C114.55 12.1892 114.712 12.1509 114.87 12.1509H115.297V13.144H114.887C114.547 13.144 114.296 13.196 114.131 13.3C113.973 13.404 113.893 13.5763 113.893 13.8171V16.2056H112.695V12.233ZM115.957 12.233H117.139V12.7172C117.232 12.3397 117.656 12.1509 118.412 12.1509C118.92 12.1509 119.276 12.2439 119.479 12.43C119.687 12.6105 119.79 12.8978 119.79 13.2918V16.2056H118.592V13.4477C118.592 13.2945 118.576 13.1796 118.543 13.103C118.516 13.0264 118.455 12.9717 118.362 12.9388C118.275 12.906 118.138 12.8896 117.952 12.8896C117.717 12.8896 117.544 12.906 117.435 12.9388C117.325 12.9662 117.252 13.0182 117.213 13.0948C117.175 13.1714 117.156 13.289 117.156 13.4477V16.2056H115.957V12.233ZM121.963 16.2876C121.591 16.2876 121.312 16.2548 121.126 16.1892C120.946 16.118 120.817 15.9949 120.74 15.8198C120.669 15.6392 120.634 15.3711 120.634 15.0154C120.634 14.6981 120.672 14.4491 120.749 14.2685C120.831 14.0879 120.959 13.9593 121.134 13.8827C121.315 13.8007 121.561 13.7596 121.873 13.7596H123.219V13.4888C123.219 13.3191 123.195 13.1933 123.145 13.1112C123.101 13.0291 123.017 12.9717 122.891 12.9388C122.77 12.906 122.587 12.8896 122.341 12.8896C122.002 12.8896 121.537 12.9224 120.946 12.9881V12.233C121.378 12.1782 121.884 12.1509 122.464 12.1509C122.973 12.1509 123.364 12.1892 123.638 12.2658C123.917 12.3424 124.117 12.4737 124.237 12.6598C124.357 12.8458 124.417 13.1167 124.417 13.4724V16.2056H123.244V15.8444C123.151 16.0031 123.025 16.1153 122.866 16.1809C122.708 16.2521 122.407 16.2876 121.963 16.2876ZM122.431 15.5407C122.672 15.5407 122.844 15.5325 122.948 15.5161C123.025 15.5052 123.077 15.4887 123.104 15.4669C123.137 15.445 123.164 15.4094 123.186 15.3602C123.208 15.3219 123.219 15.2644 123.219 15.1878V14.4163H122.398C122.212 14.4163 122.081 14.4299 122.004 14.4573C121.928 14.4792 121.876 14.5284 121.848 14.605C121.821 14.6762 121.807 14.8048 121.807 14.9908C121.807 15.1714 121.821 15.2972 121.848 15.3684C121.876 15.4395 121.928 15.486 122.004 15.5079C122.086 15.5298 122.229 15.5407 122.431 15.5407ZM127.458 16.2876C127.256 16.2876 127.086 16.2794 126.949 16.263C126.812 16.2466 126.676 16.2138 126.539 16.1645C126.386 16.1153 126.26 16.0469 126.161 15.9593C126.068 15.8718 125.992 15.7514 125.931 15.5982C125.866 15.4395 125.833 15.2562 125.833 15.0483V12.9717H125.029V12.233H125.833V11.0839H127.031V12.233H128.123V12.9717H127.031V14.8431C127.031 15.0346 127.048 15.1796 127.081 15.2781C127.113 15.3711 127.176 15.4395 127.269 15.4833C127.362 15.5216 127.505 15.5407 127.696 15.5407C127.773 15.5407 127.915 15.5271 128.123 15.4997V16.2466C127.866 16.274 127.644 16.2876 127.458 16.2876ZM128.847 10.7966H130.045V11.7651H128.847V10.7966ZM128.847 12.233H130.045V16.2056H128.847V12.233ZM133.035 16.2876C132.789 16.2876 132.586 16.2794 132.428 16.263C132.269 16.2466 132.099 16.2138 131.919 16.1645C131.722 16.1098 131.563 16.0332 131.443 15.9347C131.322 15.8307 131.221 15.6857 131.139 15.4997C131.057 15.3191 131.016 15.1002 131.016 14.8431V13.6693C131.016 13.4067 131.057 13.1769 131.139 12.9799C131.221 12.7829 131.328 12.6297 131.459 12.5202C131.574 12.4272 131.724 12.3506 131.91 12.2904C132.102 12.2248 132.288 12.1837 132.469 12.1673C132.677 12.1564 132.865 12.1509 133.035 12.1509C133.287 12.1509 133.486 12.1591 133.634 12.1755C133.787 12.1865 133.954 12.2193 134.135 12.274C134.332 12.3342 134.49 12.4163 134.611 12.5202C134.737 12.6242 134.843 12.7719 134.931 12.9635C135.013 13.1605 135.054 13.3957 135.054 13.6693V14.8431C135.054 15.0893 135.013 15.3054 134.931 15.4915C134.854 15.6775 134.753 15.8225 134.627 15.9265C134.518 16.0195 134.367 16.0961 134.176 16.1563C133.99 16.211 133.806 16.2466 133.626 16.263C133.462 16.2794 133.265 16.2876 133.035 16.2876ZM133.035 15.5407C133.259 15.5407 133.429 15.5243 133.544 15.4915C133.659 15.4532 133.738 15.3957 133.782 15.3191C133.831 15.2425 133.856 15.1303 133.856 14.9826V13.4806C133.856 13.2617 133.798 13.1085 133.683 13.0209C133.568 12.9334 133.352 12.8896 133.035 12.8896C132.718 12.8896 132.501 12.9334 132.387 13.0209C132.272 13.1085 132.214 13.2617 132.214 13.4806V14.9826C132.214 15.1303 132.236 15.2425 132.28 15.3191C132.329 15.3957 132.411 15.4532 132.526 15.4915C132.641 15.5243 132.811 15.5407 133.035 15.5407ZM135.988 12.233H137.17V12.7172C137.263 12.3397 137.687 12.1509 138.442 12.1509C138.951 12.1509 139.307 12.2439 139.509 12.43C139.717 12.6105 139.821 12.8978 139.821 13.2918V16.2056H138.623V13.4477C138.623 13.2945 138.606 13.1796 138.574 13.103C138.546 13.0264 138.486 12.9717 138.393 12.9388C138.305 12.906 138.169 12.8896 137.983 12.8896C137.747 12.8896 137.575 12.906 137.466 12.9388C137.356 12.9662 137.282 13.0182 137.244 13.0948C137.206 13.1714 137.186 13.289 137.186 13.4477V16.2056H135.988V12.233ZM141.994 16.2876C141.622 16.2876 141.343 16.2548 141.157 16.1892C140.976 16.118 140.848 15.9949 140.771 15.8198C140.7 15.6392 140.664 15.3711 140.664 15.0154C140.664 14.6981 140.703 14.4491 140.779 14.2685C140.861 14.0879 140.99 13.9593 141.165 13.8827C141.346 13.8007 141.592 13.7596 141.904 13.7596H143.25V13.4888C143.25 13.3191 143.225 13.1933 143.176 13.1112C143.132 13.0291 143.047 12.9717 142.922 12.9388C142.801 12.906 142.618 12.8896 142.372 12.8896C142.032 12.8896 141.567 12.9224 140.976 12.9881V12.233C141.409 12.1782 141.915 12.1509 142.495 12.1509C143.004 12.1509 143.395 12.1892 143.668 12.2658C143.947 12.3424 144.147 12.4737 144.268 12.6598C144.388 12.8458 144.448 13.1167 144.448 13.4724V16.2056H143.274V15.8444C143.181 16.0031 143.056 16.1153 142.897 16.1809C142.738 16.2521 142.437 16.2876 141.994 16.2876ZM142.462 15.5407C142.703 15.5407 142.875 15.5325 142.979 15.5161C143.056 15.5052 143.108 15.4887 143.135 15.4669C143.168 15.445 143.195 15.4094 143.217 15.3602C143.239 15.3219 143.25 15.2644 143.25 15.1878V14.4163H142.429C142.243 14.4163 142.112 14.4299 142.035 14.4573C141.958 14.4792 141.906 14.5284 141.879 14.605C141.852 14.6762 141.838 14.8048 141.838 14.9908C141.838 15.1714 141.852 15.2972 141.879 15.3684C141.906 15.4395 141.958 15.486 142.035 15.5079C142.117 15.5298 142.259 15.5407 142.462 15.5407ZM145.535 10.4601H146.734V16.2056H145.535V10.4601ZM147.827 15.0729H149.075L148.303 17.1248H147.45L147.827 15.0729ZM151.86 10.8787H153.14V15.2945H155.759V16.2056H151.86V10.8787ZM156.621 10.8787H157.902V15.2945H160.52V16.2056H156.621V10.8787ZM163.738 16.2876C163.497 16.2876 163.281 16.2767 163.09 16.2548C162.904 16.2329 162.698 16.1919 162.474 16.1317C162.222 16.066 162.014 15.9812 161.85 15.8773C161.686 15.7678 161.549 15.6173 161.44 15.4258C161.325 15.2343 161.267 15.0072 161.267 14.7446V12.4053C161.267 11.3328 162.091 10.7966 163.738 10.7966C164.159 10.7966 164.723 10.8568 165.429 10.9772V11.9375C164.794 11.7843 164.236 11.7077 163.754 11.7077C163.552 11.7077 163.393 11.7131 163.278 11.7241C163.169 11.735 163.054 11.7624 162.934 11.8062C162.676 11.8937 162.548 12.088 162.548 12.3889V14.6543C162.548 15.1358 162.988 15.3766 163.869 15.3766C164.247 15.3766 164.778 15.2972 165.462 15.1385V16.1071C164.876 16.2275 164.302 16.2876 163.738 16.2876Z" fill="#0A4C84"/>
<path fill-rule="evenodd" clip-rule="evenodd" d="M2.00635 46.8621L9.8167 0L26.0382 20.4271L19.4294 25.2334L15.2239 20.4271L11.0183 46.8621H2.00635ZM35.0504 46.2613L23.6352 31.8422L30.8448 26.435L47.0663 46.2613H35.0504ZM61.4854 46.2613L39.2559 19.5259L35.6512 22.2295L32.0464 24.933L49.4695 46.2613H61.4854ZM21.232 12.0159L27.8408 7.20956L33.8488 14.4191L27.24 19.2255L21.232 12.0159Z" fill="url(#paint0_linear_2870_10931)"/>
<path d="M56.0781 23.6663C71.098 22.8717 113.755 22.2707 166.625 23.6663C132.232 24.5597 61.9739 25.8104 56.0781 23.6663Z" fill="#FFD546"/>
<path d="M2.00657 46.5748C6.02597 40.9303 19.6256 25.0777 40.5574 13.5979C29.3254 24.1365 5.62814 46.8406 2.00657 46.5748Z" fill="#FFD546"/>
<defs>
<linearGradient id="paint0_linear_2870_10931" x1="9.21591" y1="-3.64645e-06" x2="61.4852" y2="46.2613" gradientUnits="userSpaceOnUse">
<stop stop-color="#06477E"/>
<stop offset="0.494792" stop-color="#49ABFB"/>
<stop offset="1" stop-color="#005DBE"/>
</linearGradient>
</defs>
</svg>
