<svg width="205" height="63" viewBox="0 0 205 63" fill="none" xmlns="http://www.w3.org/2000/svg">
<rect x="26.125" y="13.8594" width="160.768" height="43.5256" rx="21.3365" fill="#FFF0E0"/>
<path d="M54.0938 37.3382H56.8194C56.7647 38.2316 56.5186 39.0247 56.081 39.7175C55.6495 40.4103 55.0449 40.9512 54.267 41.3401C53.4951 41.7291 52.5653 41.9235 51.4775 41.9235C50.6267 41.9235 49.864 41.7777 49.1894 41.486C48.5148 41.1882 47.9375 40.7628 47.4574 40.2097C46.9833 39.6567 46.6217 38.9882 46.3726 38.2042C46.1234 37.4203 45.9988 36.5421 45.9988 35.5697V34.649C45.9988 33.6767 46.1264 32.7985 46.3817 32.0145C46.643 31.2245 47.0137 30.5529 47.4938 29.9999C47.98 29.4469 48.5604 29.0214 49.235 28.7237C49.9095 28.4259 50.6631 28.277 51.4957 28.277C52.6018 28.277 53.5347 28.4775 54.2943 28.8786C55.06 29.2797 55.6526 29.8328 56.0719 30.5377C56.4973 31.2427 56.7526 32.0449 56.8377 32.9443H54.1029C54.0725 32.4095 53.9661 31.9568 53.7838 31.5861C53.6015 31.2093 53.325 30.9267 52.9543 30.7383C52.5896 30.5438 52.1034 30.4466 51.4957 30.4466C51.0399 30.4466 50.6419 30.5317 50.3015 30.7018C49.9612 30.872 49.6756 31.1303 49.4446 31.4767C49.2137 31.8231 49.0405 32.2606 48.925 32.7894C48.8156 33.312 48.7609 33.9258 48.7609 34.6308V35.5697C48.7609 36.2565 48.8126 36.8611 48.9159 37.3838C49.0192 37.9004 49.1772 38.3379 49.3899 38.6965C49.6087 39.049 49.8883 39.3164 50.2286 39.4987C50.575 39.6749 50.9913 39.7631 51.4775 39.7631C52.0488 39.7631 52.5197 39.6719 52.8905 39.4896C53.2612 39.3073 53.5438 39.0368 53.7382 38.6783C53.9388 38.3197 54.0573 37.873 54.0938 37.3382ZM65.3454 30.7383L61.7355 41.7412H58.8275L63.7593 28.4684H65.6098L65.3454 30.7383ZM68.3446 41.7412L64.7255 30.7383L64.4338 28.4684H66.3026L71.2617 41.7412H68.3446ZM68.1805 36.8004V38.9426H61.1703V36.8004H68.1805ZM78.6299 28.4684V41.7412H75.9043V28.4684H78.6299ZM82.7139 28.4684V30.6107H71.8842V28.4684H82.7139ZM94.5125 39.6081V41.7412H87.4477V39.6081H94.5125ZM88.341 28.4684V41.7412H85.6062V28.4684H88.341ZM93.5918 33.8742V35.9526H87.4477V33.8742H93.5918ZM94.5034 28.4684V30.6107H87.4477V28.4684H94.5034ZM107.961 34.804V40.0639C107.754 40.313 107.435 40.5835 107.004 40.8752C106.572 41.1608 106.016 41.407 105.336 41.6136C104.655 41.8202 103.832 41.9235 102.865 41.9235C102.008 41.9235 101.227 41.7838 100.523 41.5042C99.8175 41.2186 99.2098 40.8023 98.6993 40.2553C98.1949 39.7084 97.806 39.0399 97.5325 38.2498C97.259 37.4537 97.1223 36.5451 97.1223 35.5241V34.6946C97.1223 33.6736 97.2529 32.7651 97.5142 31.9689C97.7816 31.1728 98.1615 30.5013 98.6537 29.9543C99.146 29.4074 99.7325 28.9911 100.413 28.7054C101.094 28.4198 101.85 28.277 102.683 28.277C103.838 28.277 104.786 28.4654 105.527 28.8422C106.269 29.2129 106.834 29.7295 107.223 30.3919C107.618 31.0482 107.861 31.8018 107.952 32.6526H105.299C105.232 32.2029 105.105 31.8109 104.916 31.4767C104.728 31.1424 104.458 30.8811 104.105 30.6927C103.759 30.5043 103.309 30.4101 102.756 30.4101C102.3 30.4101 101.893 30.5043 101.534 30.6927C101.182 30.875 100.884 31.1455 100.641 31.504C100.398 31.8626 100.213 32.3062 100.085 32.8349C99.9573 33.3637 99.8935 33.9775 99.8935 34.6764V35.5241C99.8935 36.217 99.9604 36.8308 100.094 37.3656C100.228 37.8943 100.425 38.341 100.687 38.7056C100.954 39.0642 101.282 39.3346 101.671 39.5169C102.06 39.6992 102.513 39.7904 103.029 39.7904C103.461 39.7904 103.819 39.7539 104.105 39.681C104.397 39.6081 104.631 39.52 104.807 39.4166C104.989 39.3073 105.129 39.2039 105.226 39.1067V36.7548H102.729V34.804H107.961ZM122.403 34.7949V35.4239C122.403 36.4327 122.267 37.3382 121.993 38.1404C121.72 38.9426 121.334 39.6263 120.835 40.1915C120.337 40.7506 119.741 41.1791 119.049 41.4768C118.362 41.7746 117.599 41.9235 116.761 41.9235C115.928 41.9235 115.165 41.7746 114.472 41.4768C113.786 41.1791 113.19 40.7506 112.686 40.1915C112.181 39.6263 111.789 38.9426 111.51 38.1404C111.236 37.3382 111.1 36.4327 111.1 35.4239V34.7949C111.1 33.78 111.236 32.8744 111.51 32.0783C111.783 31.2761 112.169 30.5924 112.668 30.0272C113.172 29.4621 113.768 29.0306 114.454 28.7328C115.147 28.435 115.91 28.2861 116.742 28.2861C117.581 28.2861 118.344 28.435 119.03 28.7328C119.723 29.0306 120.319 29.4621 120.817 30.0272C121.322 30.5924 121.711 31.2761 121.984 32.0783C122.264 32.8744 122.403 33.78 122.403 34.7949ZM119.641 35.4239V34.7766C119.641 34.0717 119.577 33.4518 119.45 32.917C119.322 32.3822 119.134 31.9325 118.885 31.5678C118.635 31.2032 118.332 30.9297 117.973 30.7474C117.614 30.559 117.204 30.4648 116.742 30.4648C116.28 30.4648 115.87 30.559 115.512 30.7474C115.159 30.9297 114.858 31.2032 114.609 31.5678C114.366 31.9325 114.181 32.3822 114.053 32.917C113.926 33.4518 113.862 34.0717 113.862 34.7766V35.4239C113.862 36.1228 113.926 36.7426 114.053 37.2835C114.181 37.8183 114.369 38.2711 114.618 38.6418C114.868 39.0064 115.171 39.2829 115.53 39.4713C115.888 39.6597 116.299 39.7539 116.761 39.7539C117.222 39.7539 117.633 39.6597 117.991 39.4713C118.35 39.2829 118.651 39.0064 118.894 38.6418C119.137 38.2711 119.322 37.8183 119.45 37.2835C119.577 36.7426 119.641 36.1228 119.641 35.4239ZM125.706 28.4684H130.656C131.671 28.4684 132.543 28.6203 133.272 28.9242C134.007 29.2281 134.573 29.6778 134.968 30.2734C135.363 30.8689 135.56 31.6013 135.56 32.4703C135.56 33.1814 135.439 33.7921 135.196 34.3026C134.959 34.807 134.621 35.2294 134.184 35.5697C133.752 35.904 133.245 36.1714 132.661 36.3719L131.795 36.8277H127.493L127.474 34.6946H130.674C131.154 34.6946 131.552 34.6095 131.868 34.4393C132.184 34.2692 132.421 34.0322 132.579 33.7283C132.743 33.4244 132.825 33.072 132.825 32.6709C132.825 32.2454 132.746 31.8778 132.588 31.5678C132.43 31.2579 132.19 31.0209 131.868 30.8568C131.546 30.6927 131.142 30.6107 130.656 30.6107H128.441V41.7412H125.706V28.4684ZM133.126 41.7412L130.1 35.825L132.99 35.8067L136.052 41.6136V41.7412H133.126ZM141.908 28.4684V41.7412H139.182V28.4684H141.908ZM154.709 39.6081V41.7412H147.644V39.6081H154.709ZM148.537 28.4684V41.7412H145.803V28.4684H148.537ZM153.788 33.8742V35.9526H147.644V33.8742H153.788ZM154.7 28.4684V30.6107H147.644V28.4684H154.7ZM164.548 38.268C164.548 38.031 164.511 37.8183 164.438 37.6299C164.371 37.4355 164.244 37.2592 164.055 37.1012C163.867 36.9371 163.603 36.7761 163.262 36.6181C162.922 36.46 162.481 36.296 161.94 36.1258C161.339 35.9313 160.768 35.7125 160.227 35.4695C159.692 35.2264 159.218 34.9438 158.805 34.6217C158.397 34.2935 158.075 33.9137 157.838 33.4822C157.607 33.0507 157.492 32.5493 157.492 31.978C157.492 31.425 157.613 30.9236 157.857 30.4739C158.1 30.0181 158.44 29.6292 158.877 29.3071C159.315 28.9789 159.832 28.7267 160.427 28.5505C161.029 28.3742 161.688 28.2861 162.405 28.2861C163.384 28.2861 164.238 28.4623 164.967 28.8148C165.696 29.1673 166.261 29.6504 166.662 30.2643C167.07 30.8781 167.273 31.58 167.273 32.37H164.557C164.557 31.9811 164.475 31.6408 164.311 31.349C164.153 31.0513 163.909 30.8173 163.581 30.6471C163.259 30.477 162.852 30.3919 162.36 30.3919C161.886 30.3919 161.491 30.4648 161.175 30.6107C160.859 30.7504 160.622 30.9419 160.464 31.185C160.306 31.422 160.227 31.6894 160.227 31.9872C160.227 32.212 160.281 32.4156 160.391 32.5979C160.506 32.7803 160.676 32.9504 160.901 33.1084C161.126 33.2664 161.403 33.4153 161.731 33.5551C162.059 33.6949 162.439 33.8316 162.87 33.9653C163.593 34.1841 164.229 34.4302 164.775 34.7037C165.329 34.9772 165.79 35.2841 166.161 35.6244C166.532 35.9647 166.811 36.3507 167 36.7821C167.188 37.2136 167.282 37.7029 167.282 38.2498C167.282 38.8272 167.17 39.3437 166.945 39.7995C166.72 40.2553 166.395 40.6412 165.97 40.9572C165.544 41.2733 165.037 41.5133 164.447 41.6774C163.858 41.8415 163.198 41.9235 162.469 41.9235C161.813 41.9235 161.166 41.8384 160.527 41.6683C159.889 41.492 159.309 41.2277 158.786 40.8752C158.27 40.5227 157.857 40.073 157.547 39.526C157.237 38.9791 157.082 38.3319 157.082 37.5843H159.826C159.826 37.9976 159.889 38.347 160.017 38.6327C160.145 38.9183 160.324 39.1492 160.555 39.3255C160.792 39.5017 161.071 39.6294 161.393 39.7084C161.722 39.7874 162.08 39.8269 162.469 39.8269C162.943 39.8269 163.332 39.76 163.636 39.6263C163.946 39.4926 164.174 39.3073 164.32 39.0702C164.472 38.8332 164.548 38.5658 164.548 38.268Z" fill="#F38313"/>
<path d="M183.902 13.2512C185.466 11.8899 188.592 7.53396 188.592 1M188.592 17.3349C191.272 15.0662 196.632 9.84807 196.632 7.12559M193.952 22.7799C197.302 20.5111 204.001 15.4292 204.001 13.2512" stroke="black" stroke-width="1.33353" stroke-linecap="round"/>
<path d="M23.1541 51.6409C21.2028 52.3081 16.6977 55.1571 14.2884 61.2153M20.3117 46.0698C16.9904 47.1535 10.0969 49.9519 9.09298 52.4762M17.35 38.9816C13.4075 39.8103 5.32179 41.9727 4.5187 43.9921" stroke="black" stroke-width="1.33353" stroke-linecap="round"/>
</svg>
