<svg width="15" height="19" viewBox="0 0 15 19" fill="none" xmlns="http://www.w3.org/2000/svg">
<path d="M4.768 0.348176C2.77617 0.786221 0 2.47856 0 2.47856L0.913022 8.46393L4.56511 11.7102H7.60852L2.94196 7.5509V3.49303C2.94196 3.49303 3.21276 3.26717 3.95643 3.0872C5.33276 2.75411 6.34914 2.43918 9.13022 2.68141C11.9113 2.92364 12.3765 3.89882 12.3765 3.89882L11.9707 6.63788L13.4924 7.7538L14.304 2.37711C14.304 2.37711 11.3056 0.476591 9.13022 0.145282C7.44427 -0.111487 6.43359 -0.018121 4.768 0.348176Z" fill="#2563AC"/>
<path d="M9.94245 17.6518C11.9343 17.2138 14.7104 15.5214 14.7104 15.5214L13.7974 9.53607L10.1453 6.28977H7.10193L11.7685 10.4491V14.507C11.7685 14.507 11.4977 14.7328 10.754 14.9128C9.37769 15.2459 8.36131 15.5608 5.58023 15.3186C2.79915 15.0764 2.33393 14.1012 2.33393 14.1012L2.73972 11.3621L1.21801 10.2462L0.406437 15.6229C0.406437 15.6229 3.40485 17.5234 5.58023 17.8547C7.26618 18.1115 8.27685 18.0181 9.94245 17.6518Z" fill="#F38313" stroke="#F38313" stroke-width="0.159413"/>
</svg>
