<svg width="24" height="24" viewBox="0 0 24 24" fill="none" xmlns="http://www.w3.org/2000/svg">
<rect width="23.7088" height="24" rx="4" fill="#2563AC"/>
<path d="M16.7935 11.4545C16.7935 14.4818 14.686 17.3127 11.8541 18C9.02225 17.3127 6.91479 14.4818 6.91479 11.4545V8.18182L11.8541 6L16.7935 8.18182V11.4545ZM11.8541 16.9091C13.9122 16.3636 15.6958 13.9309 15.6958 11.5745V8.89091L11.8541 7.18909L8.01243 8.89091V11.5745C8.01243 13.9309 9.79608 16.3636 11.8541 16.9091ZM13.3908 11.4545V10.6364C13.3908 9.87273 12.6225 9.27273 11.8541 9.27273C11.0858 9.27273 10.3175 9.87273 10.3175 10.6364V11.4545C9.98816 11.4545 9.65887 11.7818 9.65887 12.1091V14.0182C9.65887 14.4 9.98816 14.7273 10.3175 14.7273H13.3359C13.7201 14.7273 14.0494 14.4 14.0494 14.0727V12.1636C14.0494 11.7818 13.7201 11.4545 13.3908 11.4545ZM12.6774 11.4545H11.0309V10.6364C11.0309 10.2 11.4151 9.92727 11.8541 9.92727C12.2932 9.92727 12.6774 10.2 12.6774 10.6364V11.4545Z" fill="white"/>
</svg>
