<svg width="197" height="50" viewBox="0 0 197 50" fill="none" xmlns="http://www.w3.org/2000/svg">
<rect x="20" y="13" width="166" height="32" rx="16" fill="#FFE6CF"/>
<path d="M45.6582 30.6982H47.7021C47.6611 31.3682 47.4766 31.9629 47.1484 32.4824C46.8249 33.002 46.3714 33.4076 45.7881 33.6992C45.2093 33.9909 44.512 34.1367 43.6963 34.1367C43.0583 34.1367 42.4863 34.0273 41.9805 33.8086C41.4746 33.5853 41.0417 33.2663 40.6816 32.8516C40.3262 32.4368 40.055 31.9355 39.8682 31.3477C39.6813 30.7598 39.5879 30.1012 39.5879 29.3721V28.6816C39.5879 27.9525 39.6836 27.2939 39.875 26.7061C40.071 26.1136 40.349 25.61 40.709 25.1953C41.0736 24.7806 41.5088 24.4616 42.0146 24.2383C42.5205 24.015 43.0856 23.9033 43.71 23.9033C44.5394 23.9033 45.2389 24.0537 45.8086 24.3545C46.3828 24.6553 46.8271 25.07 47.1416 25.5986C47.4606 26.1273 47.652 26.7288 47.7158 27.4033H45.665C45.6423 27.0023 45.5625 26.6628 45.4258 26.3848C45.2891 26.1022 45.0817 25.8903 44.8037 25.749C44.5303 25.6032 44.1657 25.5303 43.71 25.5303C43.3682 25.5303 43.0697 25.5941 42.8145 25.7217C42.5592 25.8493 42.3451 26.043 42.1719 26.3027C41.9987 26.5625 41.8688 26.8906 41.7822 27.2871C41.7002 27.679 41.6592 28.1393 41.6592 28.668V29.3721C41.6592 29.887 41.6979 30.3405 41.7754 30.7324C41.8529 31.1198 41.9714 31.4479 42.1309 31.7168C42.2949 31.9811 42.5046 32.1816 42.7598 32.3184C43.0195 32.4505 43.3317 32.5166 43.6963 32.5166C44.1247 32.5166 44.4779 32.4482 44.7559 32.3115C45.0339 32.1748 45.2458 31.972 45.3916 31.7031C45.542 31.4342 45.6309 31.0993 45.6582 30.6982ZM56.4473 32.4004V34H51.4365V32.4004H56.4473ZM52.0996 24.0469V34H50.0488V24.0469H52.0996ZM66.3477 28.791V29.2627C66.3477 30.0192 66.2451 30.6982 66.04 31.2998C65.835 31.9014 65.5456 32.4141 65.1719 32.8379C64.7982 33.2572 64.3516 33.5785 63.832 33.8018C63.3171 34.0251 62.7451 34.1367 62.1162 34.1367C61.4919 34.1367 60.9199 34.0251 60.4004 33.8018C59.8854 33.5785 59.4388 33.2572 59.0605 32.8379C58.6823 32.4141 58.3883 31.9014 58.1787 31.2998C57.9736 30.6982 57.8711 30.0192 57.8711 29.2627V28.791C57.8711 28.0299 57.9736 27.3509 58.1787 26.7539C58.3838 26.1523 58.6732 25.6396 59.0469 25.2158C59.4251 24.792 59.8717 24.4684 60.3867 24.2451C60.9062 24.0218 61.4782 23.9102 62.1025 23.9102C62.7314 23.9102 63.3034 24.0218 63.8184 24.2451C64.3379 24.4684 64.7845 24.792 65.1582 25.2158C65.5365 25.6396 65.8281 26.1523 66.0332 26.7539C66.2428 27.3509 66.3477 28.0299 66.3477 28.791ZM64.2764 29.2627V28.7773C64.2764 28.2487 64.2285 27.7839 64.1328 27.3828C64.0371 26.9818 63.8958 26.6445 63.709 26.3711C63.5221 26.0977 63.2943 25.8926 63.0254 25.7559C62.7565 25.6146 62.4489 25.5439 62.1025 25.5439C61.7562 25.5439 61.4486 25.6146 61.1797 25.7559C60.9154 25.8926 60.6898 26.0977 60.5029 26.3711C60.3206 26.6445 60.1816 26.9818 60.0859 27.3828C59.9902 27.7839 59.9424 28.2487 59.9424 28.7773V29.2627C59.9424 29.7868 59.9902 30.2516 60.0859 30.6572C60.1816 31.0583 60.3229 31.3978 60.5098 31.6758C60.6966 31.9492 60.9245 32.1566 61.1934 32.2979C61.4622 32.4391 61.7699 32.5098 62.1162 32.5098C62.4626 32.5098 62.7702 32.4391 63.0391 32.2979C63.3079 32.1566 63.5335 31.9492 63.7158 31.6758C63.8981 31.3978 64.0371 31.0583 64.1328 30.6572C64.2285 30.2516 64.2764 29.7868 64.2764 29.2627ZM74.3203 24.0469H76.3643V30.623C76.3643 31.3887 76.2002 32.0335 75.8721 32.5576C75.5485 33.0817 75.0996 33.4759 74.5254 33.7402C73.9557 34.0046 73.2995 34.1367 72.5566 34.1367C71.8138 34.1367 71.153 34.0046 70.5742 33.7402C70 33.4759 69.5488 33.0817 69.2207 32.5576C68.8971 32.0335 68.7354 31.3887 68.7354 30.623V24.0469H70.7861V30.623C70.7861 31.0697 70.8568 31.4342 70.998 31.7168C71.1393 31.9993 71.3421 32.2067 71.6064 32.3389C71.8753 32.471 72.1921 32.5371 72.5566 32.5371C72.9303 32.5371 73.2471 32.471 73.5068 32.3389C73.7712 32.2067 73.9717 31.9993 74.1084 31.7168C74.2497 31.4342 74.3203 31.0697 74.3203 30.623V24.0469ZM82.1084 34H79.9414L79.9551 32.4004H82.1084C82.6462 32.4004 83.0996 32.2796 83.4688 32.0381C83.8379 31.792 84.1159 31.4342 84.3027 30.9648C84.4941 30.4954 84.5898 29.9281 84.5898 29.2627V28.7773C84.5898 28.2669 84.5352 27.818 84.4258 27.4307C84.321 27.0433 84.1637 26.7174 83.9541 26.4531C83.7445 26.1888 83.487 25.9906 83.1816 25.8584C82.8763 25.7217 82.5254 25.6533 82.1289 25.6533H79.9004V24.0469H82.1289C82.7943 24.0469 83.4027 24.1608 83.9541 24.3887C84.5101 24.612 84.9909 24.9333 85.3965 25.3525C85.8021 25.7718 86.1143 26.2731 86.333 26.8564C86.5563 27.4352 86.668 28.0801 86.668 28.791V29.2627C86.668 29.9691 86.5563 30.6139 86.333 31.1973C86.1143 31.7806 85.8021 32.2819 85.3965 32.7012C84.9954 33.1159 84.5146 33.4372 83.9541 33.665C83.3981 33.8883 82.7829 34 82.1084 34ZM81.1035 24.0469V34H79.0527V24.0469H81.1035ZM97.7734 24.0469L94.123 34.8545H92.6602L96.3105 24.0469H97.7734ZM107.382 34H105.215L105.229 32.4004H107.382C107.92 32.4004 108.373 32.2796 108.742 32.0381C109.111 31.792 109.389 31.4342 109.576 30.9648C109.768 30.4954 109.863 29.9281 109.863 29.2627V28.7773C109.863 28.2669 109.809 27.818 109.699 27.4307C109.594 27.0433 109.437 26.7174 109.228 26.4531C109.018 26.1888 108.76 25.9906 108.455 25.8584C108.15 25.7217 107.799 25.6533 107.402 25.6533H105.174V24.0469H107.402C108.068 24.0469 108.676 24.1608 109.228 24.3887C109.784 24.612 110.264 24.9333 110.67 25.3525C111.076 25.7718 111.388 26.2731 111.606 26.8564C111.83 27.4352 111.941 28.0801 111.941 28.791V29.2627C111.941 29.9691 111.83 30.6139 111.606 31.1973C111.388 31.7806 111.076 32.2819 110.67 32.7012C110.269 33.1159 109.788 33.4372 109.228 33.665C108.672 33.8883 108.056 34 107.382 34ZM106.377 24.0469V34H104.326V24.0469H106.377ZM121.11 32.4004V34H115.812V32.4004H121.11ZM116.482 24.0469V34H114.432V24.0469H116.482ZM120.42 28.1006V29.6592H115.812V28.1006H120.42ZM121.104 24.0469V25.6533H115.812V24.0469H121.104ZM126.896 31.9219L129.24 24.0469H131.523L128.058 34H126.554L126.896 31.9219ZM124.735 24.0469L127.073 31.9219L127.429 34H125.911L122.466 24.0469H124.735ZM146.115 28.791V29.2627C146.115 30.0192 146.013 30.6982 145.808 31.2998C145.603 31.9014 145.313 32.4141 144.939 32.8379C144.566 33.2572 144.119 33.5785 143.6 33.8018C143.085 34.0251 142.513 34.1367 141.884 34.1367C141.259 34.1367 140.688 34.0251 140.168 33.8018C139.653 33.5785 139.206 33.2572 138.828 32.8379C138.45 32.4141 138.156 31.9014 137.946 31.2998C137.741 30.6982 137.639 30.0192 137.639 29.2627V28.791C137.639 28.0299 137.741 27.3509 137.946 26.7539C138.151 26.1523 138.441 25.6396 138.814 25.2158C139.193 24.792 139.639 24.4684 140.154 24.2451C140.674 24.0218 141.246 23.9102 141.87 23.9102C142.499 23.9102 143.071 24.0218 143.586 24.2451C144.105 24.4684 144.552 24.792 144.926 25.2158C145.304 25.6396 145.596 26.1523 145.801 26.7539C146.01 27.3509 146.115 28.0299 146.115 28.791ZM144.044 29.2627V28.7773C144.044 28.2487 143.996 27.7839 143.9 27.3828C143.805 26.9818 143.663 26.6445 143.477 26.3711C143.29 26.0977 143.062 25.8926 142.793 25.7559C142.524 25.6146 142.216 25.5439 141.87 25.5439C141.524 25.5439 141.216 25.6146 140.947 25.7559C140.683 25.8926 140.457 26.0977 140.271 26.3711C140.088 26.6445 139.949 26.9818 139.854 27.3828C139.758 27.7839 139.71 28.2487 139.71 28.7773V29.2627C139.71 29.7868 139.758 30.2516 139.854 30.6572C139.949 31.0583 140.09 31.3978 140.277 31.6758C140.464 31.9492 140.692 32.1566 140.961 32.2979C141.23 32.4391 141.537 32.5098 141.884 32.5098C142.23 32.5098 142.538 32.4391 142.807 32.2979C143.076 32.1566 143.301 31.9492 143.483 31.6758C143.666 31.3978 143.805 31.0583 143.9 30.6572C143.996 30.2516 144.044 29.7868 144.044 29.2627ZM152.468 30.4521H149.932V28.8525H152.468C152.86 28.8525 153.179 28.7887 153.425 28.6611C153.671 28.529 153.851 28.3467 153.965 28.1143C154.079 27.8818 154.136 27.6198 154.136 27.3281C154.136 27.0319 154.079 26.7562 153.965 26.501C153.851 26.2458 153.671 26.0407 153.425 25.8857C153.179 25.7308 152.86 25.6533 152.468 25.6533H150.643V34H148.592V24.0469H152.468C153.247 24.0469 153.915 24.1882 154.471 24.4707C155.031 24.7487 155.46 25.1338 155.756 25.626C156.052 26.1182 156.2 26.681 156.2 27.3145C156.2 27.957 156.052 28.513 155.756 28.9824C155.46 29.4518 155.031 29.8141 154.471 30.0693C153.915 30.3245 153.247 30.4521 152.468 30.4521ZM163.797 31.3955C163.797 31.2178 163.77 31.0583 163.715 30.917C163.665 30.7712 163.569 30.639 163.428 30.5205C163.286 30.3975 163.088 30.2767 162.833 30.1582C162.578 30.0397 162.247 29.9167 161.842 29.7891C161.391 29.6432 160.962 29.4792 160.557 29.2969C160.156 29.1146 159.8 28.9027 159.49 28.6611C159.185 28.415 158.943 28.1302 158.766 27.8066C158.592 27.4831 158.506 27.1071 158.506 26.6787C158.506 26.264 158.597 25.888 158.779 25.5508C158.962 25.209 159.217 24.9173 159.545 24.6758C159.873 24.4297 160.26 24.2406 160.707 24.1084C161.158 23.9762 161.653 23.9102 162.19 23.9102C162.924 23.9102 163.564 24.0423 164.111 24.3066C164.658 24.571 165.082 24.9333 165.383 25.3936C165.688 25.8538 165.841 26.3802 165.841 26.9727H163.804C163.804 26.681 163.742 26.4258 163.619 26.207C163.501 25.9837 163.318 25.8083 163.072 25.6807C162.831 25.5531 162.525 25.4893 162.156 25.4893C161.801 25.4893 161.505 25.5439 161.268 25.6533C161.031 25.7581 160.853 25.9017 160.734 26.084C160.616 26.2617 160.557 26.4622 160.557 26.6855C160.557 26.8542 160.598 27.0068 160.68 27.1436C160.766 27.2803 160.894 27.4079 161.062 27.5264C161.231 27.6449 161.438 27.7565 161.685 27.8613C161.931 27.9661 162.215 28.0687 162.539 28.1689C163.081 28.333 163.558 28.5176 163.968 28.7227C164.382 28.9277 164.729 29.1579 165.007 29.4131C165.285 29.6683 165.494 29.9577 165.636 30.2812C165.777 30.6048 165.848 30.9717 165.848 31.3818C165.848 31.8148 165.763 32.2021 165.595 32.5439C165.426 32.8857 165.182 33.1751 164.863 33.4121C164.544 33.6491 164.164 33.8291 163.722 33.9521C163.28 34.0752 162.785 34.1367 162.238 34.1367C161.746 34.1367 161.261 34.0729 160.782 33.9453C160.304 33.8132 159.868 33.6149 159.477 33.3506C159.089 33.0863 158.779 32.749 158.547 32.3389C158.314 31.9287 158.198 31.4434 158.198 30.8828H160.256C160.256 31.1927 160.304 31.4548 160.399 31.6689C160.495 31.8831 160.63 32.0563 160.803 32.1885C160.98 32.3206 161.19 32.4163 161.432 32.4756C161.678 32.5348 161.947 32.5645 162.238 32.5645C162.594 32.5645 162.885 32.5143 163.113 32.4141C163.346 32.3138 163.517 32.1748 163.626 31.9971C163.74 31.8193 163.797 31.6188 163.797 31.3955Z" fill="#F5820E"/>
<path d="M181.5 10C182.666 9 185 5.8 185 1M185 13C187 11.3333 191 7.5 191 5.5M189 17C191.5 15.3333 196.5 11.6 196.5 10" stroke="black" stroke-linecap="round"/>
<path d="M17.2791 41.1093C15.8228 41.5995 12.4606 43.6924 10.6626 48.1429M15.1578 37.0166C12.6791 37.8128 7.53434 39.8686 6.78514 41.7229M12.9474 31.8095C10.0051 32.4183 3.97067 34.0068 3.37131 35.4903" stroke="black" stroke-linecap="round"/>
</svg>
