<svg width="166" height="51" viewBox="0 0 166 51" fill="none" xmlns="http://www.w3.org/2000/svg">
<rect x="18" y="13.3829" width="138" height="33.021" rx="16" fill="#FFF0E0"/>
<path d="M36.7646 31.0903H34.2285V29.4907H36.7646C37.1566 29.4907 37.4756 29.4269 37.7217 29.2993C37.9678 29.1671 38.1478 28.9848 38.2617 28.7524C38.3757 28.52 38.4326 28.2579 38.4326 27.9663C38.4326 27.6701 38.3757 27.3943 38.2617 27.1391C38.1478 26.8839 37.9678 26.6788 37.7217 26.5239C37.4756 26.3689 37.1566 26.2915 36.7646 26.2915H34.9395V34.6382H32.8887V24.685H36.7646C37.5439 24.685 38.2116 24.8263 38.7676 25.1089C39.3281 25.3869 39.7565 25.7719 40.0527 26.2641C40.349 26.7563 40.4971 27.3191 40.4971 27.9526C40.4971 28.5952 40.349 29.1512 40.0527 29.6206C39.7565 30.09 39.3281 30.4523 38.7676 30.7075C38.2116 30.9627 37.5439 31.0903 36.7646 31.0903ZM45.8242 26.3872L43.1172 34.6382H40.9365L44.6348 24.685H46.0225L45.8242 26.3872ZM48.0732 34.6382L45.3594 26.3872L45.1406 24.685H46.542L50.2607 34.6382H48.0732ZM47.9502 30.9331V32.5395H42.6934V30.9331H47.9502ZM52.1836 24.685H55.8955C56.6566 24.685 57.3105 24.799 57.8574 25.0268C58.4089 25.2547 58.8327 25.5919 59.1289 26.0385C59.4251 26.4852 59.5732 27.0343 59.5732 27.686C59.5732 28.2192 59.4821 28.6772 59.2998 29.06C59.1221 29.4383 58.8691 29.755 58.541 30.0102C58.2174 30.2609 57.8369 30.4614 57.3994 30.6118L56.75 30.9536H53.5234L53.5098 29.354H55.9092C56.2692 29.354 56.5677 29.2902 56.8047 29.1626C57.0417 29.035 57.2194 28.8572 57.3379 28.6294C57.4609 28.4015 57.5225 28.1372 57.5225 27.8364C57.5225 27.5174 57.4632 27.2417 57.3447 27.0092C57.2262 26.7768 57.0462 26.5991 56.8047 26.476C56.5632 26.353 56.2601 26.2915 55.8955 26.2915H54.2344V34.6382H52.1836V24.685ZM57.748 34.6382L55.4785 30.2016L57.6455 30.188L59.9424 34.5424V34.6382H57.748ZM66.1924 24.685V34.6382H64.1484V24.685H66.1924ZM69.2549 24.685V26.2915H61.1338V24.685H69.2549ZM79.5244 24.685V34.6382H77.4736L73.4746 27.9663V34.6382H71.4238V24.685H73.4746L77.4805 31.3637V24.685H79.5244ZM88.9873 33.0385V34.6382H83.6895V33.0385H88.9873ZM84.3594 24.685V34.6382H82.3086V24.685H84.3594ZM88.2969 28.7387V30.2973H83.6895V28.7387H88.2969ZM88.9805 24.685V26.2915H83.6895V24.685H88.9805ZM91.1836 24.685H94.8955C95.6566 24.685 96.3105 24.799 96.8574 25.0268C97.4089 25.2547 97.8327 25.5919 98.1289 26.0385C98.4251 26.4852 98.5732 27.0343 98.5732 27.686C98.5732 28.2192 98.4821 28.6772 98.2998 29.06C98.1221 29.4383 97.8691 29.755 97.541 30.0102C97.2174 30.2609 96.8369 30.4614 96.3994 30.6118L95.75 30.9536H92.5234L92.5098 29.354H94.9092C95.2692 29.354 95.5677 29.2902 95.8047 29.1626C96.0417 29.035 96.2194 28.8572 96.3379 28.6294C96.4609 28.4015 96.5225 28.1372 96.5225 27.8364C96.5225 27.5174 96.4632 27.2417 96.3447 27.0092C96.2262 26.7768 96.0462 26.5991 95.8047 26.476C95.5632 26.353 95.2601 26.2915 94.8955 26.2915H93.2344V34.6382H91.1836V24.685ZM96.748 34.6382L94.4785 30.2016L96.6455 30.188L98.9424 34.5424V34.6382H96.748ZM106.334 32.0337C106.334 31.8559 106.307 31.6964 106.252 31.5551C106.202 31.4093 106.106 31.2772 105.965 31.1587C105.824 31.0356 105.625 30.9148 105.37 30.7964C105.115 30.6779 104.785 30.5548 104.379 30.4272C103.928 30.2814 103.499 30.1173 103.094 29.935C102.693 29.7527 102.337 29.5408 102.027 29.2993C101.722 29.0532 101.48 28.7684 101.303 28.4448C101.13 28.1212 101.043 27.7452 101.043 27.3169C101.043 26.9022 101.134 26.5262 101.316 26.1889C101.499 25.8471 101.754 25.5555 102.082 25.3139C102.41 25.0678 102.798 24.8787 103.244 24.7466C103.695 24.6144 104.19 24.5483 104.728 24.5483C105.461 24.5483 106.102 24.6805 106.648 24.9448C107.195 25.2091 107.619 25.5714 107.92 26.0317C108.225 26.492 108.378 27.0184 108.378 27.6108H106.341C106.341 27.3191 106.279 27.0639 106.156 26.8452C106.038 26.6219 105.855 26.4464 105.609 26.3188C105.368 26.1912 105.062 26.1274 104.693 26.1274C104.338 26.1274 104.042 26.1821 103.805 26.2915C103.568 26.3963 103.39 26.5398 103.271 26.7221C103.153 26.8999 103.094 27.1004 103.094 27.3237C103.094 27.4923 103.135 27.645 103.217 27.7817C103.303 27.9184 103.431 28.046 103.6 28.1645C103.768 28.283 103.976 28.3947 104.222 28.4995C104.468 28.6043 104.753 28.7068 105.076 28.8071C105.618 28.9712 106.095 29.1557 106.505 29.3608C106.92 29.5659 107.266 29.796 107.544 30.0512C107.822 30.3064 108.032 30.5958 108.173 30.9194C108.314 31.243 108.385 31.6098 108.385 32.02C108.385 32.4529 108.3 32.8403 108.132 33.1821C107.963 33.5239 107.719 33.8133 107.4 34.0503C107.081 34.2872 106.701 34.4673 106.259 34.5903C105.817 34.7133 105.322 34.7749 104.775 34.7749C104.283 34.7749 103.798 34.7111 103.319 34.5835C102.841 34.4513 102.406 34.2531 102.014 33.9887C101.626 33.7244 101.316 33.3872 101.084 32.977C100.852 32.5669 100.735 32.0815 100.735 31.521H102.793C102.793 31.8309 102.841 32.0929 102.937 32.3071C103.032 32.5213 103.167 32.6945 103.34 32.8266C103.518 32.9588 103.727 33.0545 103.969 33.1137C104.215 33.173 104.484 33.2026 104.775 33.2026C105.131 33.2026 105.423 33.1525 105.65 33.0522C105.883 32.952 106.054 32.813 106.163 32.6352C106.277 32.4575 106.334 32.257 106.334 32.0337ZM117.417 28.7387V30.3383H112.222V28.7387H117.417ZM112.83 24.685V34.6382H110.779V24.685H112.83ZM118.88 24.685V34.6382H116.836V24.685H118.88ZM123.845 24.685V34.6382H121.801V24.685H123.845ZM130.642 31.0903H128.105V29.4907H130.642C131.034 29.4907 131.353 29.4269 131.599 29.2993C131.845 29.1671 132.025 28.9848 132.139 28.7524C132.253 28.52 132.31 28.2579 132.31 27.9663C132.31 27.6701 132.253 27.3943 132.139 27.1391C132.025 26.8839 131.845 26.6788 131.599 26.5239C131.353 26.3689 131.034 26.2915 130.642 26.2915H128.816V34.6382H126.766V24.685H130.642C131.421 24.685 132.089 24.8263 132.645 25.1089C133.205 25.3869 133.633 25.7719 133.93 26.2641C134.226 26.7563 134.374 27.3191 134.374 27.9526C134.374 28.5952 134.226 29.1512 133.93 29.6206C133.633 30.09 133.205 30.4523 132.645 30.7075C132.089 30.9627 131.421 31.0903 130.642 31.0903ZM141.971 32.0337C141.971 31.8559 141.943 31.6964 141.889 31.5551C141.839 31.4093 141.743 31.2772 141.602 31.1587C141.46 31.0356 141.262 30.9148 141.007 30.7964C140.752 30.6779 140.421 30.5548 140.016 30.4272C139.564 30.2814 139.136 30.1173 138.73 29.935C138.329 29.7527 137.974 29.5408 137.664 29.2993C137.359 29.0532 137.117 28.7684 136.939 28.4448C136.766 28.1212 136.68 27.7452 136.68 27.3169C136.68 26.9022 136.771 26.5262 136.953 26.1889C137.135 25.8471 137.391 25.5555 137.719 25.3139C138.047 25.0678 138.434 24.8787 138.881 24.7466C139.332 24.6144 139.826 24.5483 140.364 24.5483C141.098 24.5483 141.738 24.6805 142.285 24.9448C142.832 25.2091 143.256 25.5714 143.557 26.0317C143.862 26.492 144.015 27.0184 144.015 27.6108H141.978C141.978 27.3191 141.916 27.0639 141.793 26.8452C141.674 26.6219 141.492 26.4464 141.246 26.3188C141.005 26.1912 140.699 26.1274 140.33 26.1274C139.975 26.1274 139.678 26.1821 139.441 26.2915C139.204 26.3963 139.027 26.5398 138.908 26.7221C138.79 26.8999 138.73 27.1004 138.73 27.3237C138.73 27.4923 138.771 27.645 138.854 27.7817C138.94 27.9184 139.068 28.046 139.236 28.1645C139.405 28.283 139.612 28.3947 139.858 28.4995C140.104 28.6043 140.389 28.7068 140.713 28.8071C141.255 28.9712 141.731 29.1557 142.142 29.3608C142.556 29.5659 142.903 29.796 143.181 30.0512C143.459 30.3064 143.668 30.5958 143.81 30.9194C143.951 31.243 144.021 31.6098 144.021 32.02C144.021 32.4529 143.937 32.8403 143.769 33.1821C143.6 33.5239 143.356 33.8133 143.037 34.0503C142.718 34.2872 142.338 34.4673 141.896 34.5903C141.453 34.7133 140.959 34.7749 140.412 34.7749C139.92 34.7749 139.435 34.7111 138.956 34.5835C138.478 34.4513 138.042 34.2531 137.65 33.9887C137.263 33.7244 136.953 33.3872 136.721 32.977C136.488 32.5669 136.372 32.0815 136.372 31.521H138.43C138.43 31.8309 138.478 32.0929 138.573 32.3071C138.669 32.5213 138.803 32.6945 138.977 32.8266C139.154 32.9588 139.364 33.0545 139.605 33.1137C139.852 33.173 140.12 33.2026 140.412 33.2026C140.768 33.2026 141.059 33.1525 141.287 33.0522C141.52 32.952 141.69 32.813 141.8 32.6352C141.914 32.4575 141.971 32.257 141.971 32.0337Z" fill="#F38313"/>
<path d="M150 10.2872C151.167 9.25526 153.5 5.95315 153.5 1M153.5 13.3829C155.5 11.663 159.5 7.7074 159.5 5.64358M157.5 17.5105C160 15.7907 165 11.9382 165 10.2872" stroke="black" stroke-linecap="round"/>
<path d="M17.2796 42.3892C15.8233 42.895 12.4611 45.0547 10.663 49.6472M15.1582 38.1659C12.6795 38.9875 7.53483 41.1089 6.78563 43.0224M12.9479 32.7927C10.0056 33.4209 3.97116 35.0601 3.3718 36.5909" stroke="black" stroke-linecap="round"/>
</svg>
