<svg width="88" height="28" viewBox="0 0 88 28" fill="none" xmlns="http://www.w3.org/2000/svg">
<rect x="11" y="6" width="69" height="19" rx="9.37566" fill="#DCECFF"/>
<path d="M25.3116 15.9476V16.224C25.3116 16.6673 25.2515 17.0652 25.1313 17.4177C25.0111 17.7702 24.8416 18.0707 24.6226 18.319C24.4036 18.5647 24.1419 18.753 23.8375 18.8838C23.5357 19.0147 23.2006 19.0801 22.832 19.0801C22.4662 19.0801 22.131 19.0147 21.8266 18.8838C21.5248 18.753 21.2631 18.5647 21.0415 18.319C20.8198 18.0707 20.6476 17.7702 20.5247 17.4177C20.4046 17.0652 20.3445 16.6673 20.3445 16.224V15.9476C20.3445 15.5017 20.4046 15.1038 20.5247 14.7539C20.6449 14.4014 20.8145 14.101 21.0335 13.8527C21.2551 13.6043 21.5168 13.4147 21.8186 13.2838C22.123 13.153 22.4582 13.0876 22.824 13.0876C23.1926 13.0876 23.5277 13.153 23.8295 13.2838C24.1339 13.4147 24.3956 13.6043 24.6146 13.8527C24.8362 14.101 25.0071 14.4014 25.1273 14.7539C25.2502 15.1038 25.3116 15.5017 25.3116 15.9476ZM24.0978 16.224V15.9396C24.0978 15.6299 24.0698 15.3575 24.0137 15.1225C23.9576 14.8875 23.8749 14.6899 23.7654 14.5296C23.6559 14.3694 23.5224 14.2492 23.3648 14.1691C23.2072 14.0863 23.027 14.0449 22.824 14.0449C22.6211 14.0449 22.4408 14.0863 22.2833 14.1691C22.1284 14.2492 21.9962 14.3694 21.8867 14.5296C21.7799 14.6899 21.6984 14.8875 21.6423 15.1225C21.5863 15.3575 21.5582 15.6299 21.5582 15.9396V16.224C21.5582 16.5311 21.5863 16.8035 21.6423 17.0412C21.6984 17.2762 21.7812 17.4752 21.8907 17.6381C22.0002 17.7983 22.1337 17.9198 22.2913 18.0026C22.4488 18.0854 22.6291 18.1268 22.832 18.1268C23.035 18.1268 23.2153 18.0854 23.3728 18.0026C23.5304 17.9198 23.6626 17.7983 23.7694 17.6381C23.8762 17.4752 23.9576 17.2762 24.0137 17.0412C24.0698 16.8035 24.0978 16.5311 24.0978 16.224ZM29.9834 13.1677H31.1811V17.0212C31.1811 17.4698 31.0849 17.8477 30.8927 18.1548C30.7031 18.4619 30.44 18.6929 30.1036 18.8478C29.7697 19.0027 29.3852 19.0801 28.9499 19.0801C28.5146 19.0801 28.1274 19.0027 27.7882 18.8478C27.4518 18.6929 27.1874 18.4619 26.9951 18.1548C26.8055 17.8477 26.7107 17.4698 26.7107 17.0212V13.1677H27.9124V17.0212C27.9124 17.2829 27.9538 17.4965 28.0366 17.6621C28.1194 17.8277 28.2382 17.9492 28.3931 18.0266C28.5507 18.1041 28.7363 18.1428 28.9499 18.1428C29.1689 18.1428 29.3545 18.1041 29.5067 18.0266C29.6616 17.9492 29.7791 17.8277 29.8592 17.6621C29.942 17.4965 29.9834 17.2829 29.9834 17.0212V13.1677ZM32.7565 13.1677H34.9316C35.3775 13.1677 35.7608 13.2344 36.0812 13.368C36.4043 13.5015 36.6527 13.6991 36.8263 13.9608C36.9999 14.2225 37.0867 14.5443 37.0867 14.9262C37.0867 15.2386 37.0332 15.507 36.9264 15.7313C36.8223 15.953 36.6741 16.1386 36.4818 16.2881C36.2922 16.435 36.0692 16.5525 35.8128 16.6406L35.4323 16.8409H33.5416L33.5336 15.9036H34.9396C35.1506 15.9036 35.3255 15.8662 35.4643 15.7914C35.6032 15.7167 35.7074 15.6125 35.7768 15.479C35.8489 15.3455 35.8849 15.1906 35.8849 15.0143C35.8849 14.8274 35.8502 14.6658 35.7808 14.5296C35.7114 14.3934 35.6059 14.2893 35.4643 14.2172C35.3228 14.1451 35.1452 14.109 34.9316 14.109H33.9582V19H32.7565V13.1677ZM36.0171 19L34.6872 16.4003L35.957 16.3923L37.303 18.9439V19H36.0171ZM43.3298 17.7823L44.7038 13.1677H46.0417L44.0108 19H43.1296L43.3298 17.7823ZM42.064 13.1677L43.434 17.7823L43.6423 19H42.753L40.7341 13.1677H42.064ZM48.4503 13.1677V19H47.2526V13.1677H48.4503ZM53.1982 17.4738C53.1982 17.3697 53.1822 17.2762 53.1501 17.1934C53.1208 17.108 53.0647 17.0305 52.9819 16.9611C52.8991 16.889 52.7829 16.8182 52.6334 16.7488C52.4838 16.6794 52.2902 16.6073 52.0526 16.5325C51.7882 16.447 51.5372 16.3509 51.2995 16.2441C51.0645 16.1373 50.8562 16.0131 50.6746 15.8715C50.4957 15.7273 50.3541 15.5604 50.25 15.3708C50.1485 15.1812 50.0978 14.9609 50.0978 14.7099C50.0978 14.4669 50.1512 14.2466 50.258 14.0489C50.3648 13.8487 50.5144 13.6777 50.7066 13.5362C50.8989 13.392 51.1259 13.2812 51.3876 13.2037C51.652 13.1263 51.9417 13.0876 52.2569 13.0876C52.6868 13.0876 53.062 13.165 53.3825 13.3199C53.7029 13.4748 53.9513 13.6871 54.1275 13.9568C54.3064 14.2265 54.3959 14.535 54.3959 14.8821H53.2022C53.2022 14.7112 53.1662 14.5617 53.094 14.4335C53.0246 14.3026 52.9178 14.1998 52.7736 14.125C52.6321 14.0503 52.4531 14.0129 52.2368 14.0129C52.0285 14.0129 51.8549 14.0449 51.7161 14.109C51.5772 14.1704 51.4731 14.2546 51.4036 14.3614C51.3342 14.4655 51.2995 14.583 51.2995 14.7139C51.2995 14.8127 51.3235 14.9022 51.3716 14.9823C51.4223 15.0624 51.4971 15.1372 51.5959 15.2066C51.6947 15.276 51.8162 15.3414 51.9604 15.4029C52.1046 15.4643 52.2715 15.5244 52.4611 15.5831C52.7789 15.6793 53.058 15.7874 53.2983 15.9076C53.5414 16.0278 53.7443 16.1626 53.9072 16.3122C54.0701 16.4617 54.1929 16.6313 54.2757 16.8209C54.3585 17.0105 54.3999 17.2255 54.3999 17.4658C54.3999 17.7195 54.3505 17.9465 54.2517 18.1468C54.1529 18.3471 54.01 18.5166 53.8231 18.6555C53.6362 18.7944 53.4132 18.8999 53.1541 18.972C52.8951 19.0441 52.6054 19.0801 52.2849 19.0801C51.9965 19.0801 51.7121 19.0427 51.4317 18.968C51.1513 18.8905 50.8962 18.7743 50.6666 18.6195C50.4396 18.4646 50.258 18.267 50.1218 18.0266C49.9856 17.7863 49.9175 17.5019 49.9175 17.1734H51.1232C51.1232 17.355 51.1513 17.5085 51.2074 17.6341C51.2634 17.7596 51.3422 17.861 51.4437 17.9385C51.5478 18.0159 51.6707 18.072 51.8122 18.1067C51.9564 18.1414 52.114 18.1588 52.2849 18.1588C52.4932 18.1588 52.6641 18.1294 52.7976 18.0707C52.9338 18.0119 53.034 17.9305 53.0981 17.8263C53.1648 17.7222 53.1982 17.6047 53.1982 17.4738ZM57.0809 13.1677V19H55.8832V13.1677H57.0809ZM63.5833 15.9476V16.224C63.5833 16.6673 63.5232 17.0652 63.403 17.4177C63.2829 17.7702 63.1133 18.0707 62.8943 18.319C62.6753 18.5647 62.4136 18.753 62.1092 18.8838C61.8074 19.0147 61.4723 19.0801 61.1038 19.0801C60.7379 19.0801 60.4028 19.0147 60.0983 18.8838C59.7966 18.753 59.5349 18.5647 59.3132 18.319C59.0916 18.0707 58.9193 17.7702 58.7965 17.4177C58.6763 17.0652 58.6162 16.6673 58.6162 16.224V15.9476C58.6162 15.5017 58.6763 15.1038 58.7965 14.7539C58.9166 14.4014 59.0862 14.101 59.3052 13.8527C59.5268 13.6043 59.7885 13.4147 60.0903 13.2838C60.3947 13.153 60.7299 13.0876 61.0957 13.0876C61.4643 13.0876 61.7994 13.153 62.1012 13.2838C62.4056 13.4147 62.6673 13.6043 62.8863 13.8527C63.1079 14.101 63.2789 14.4014 63.399 14.7539C63.5219 15.1038 63.5833 15.5017 63.5833 15.9476ZM62.3696 16.224V15.9396C62.3696 15.6299 62.3415 15.3575 62.2854 15.1225C62.2294 14.8875 62.1466 14.6899 62.0371 14.5296C61.9276 14.3694 61.7941 14.2492 61.6365 14.1691C61.479 14.0863 61.2987 14.0449 61.0957 14.0449C60.8928 14.0449 60.7125 14.0863 60.555 14.1691C60.4001 14.2492 60.2679 14.3694 60.1584 14.5296C60.0516 14.6899 59.9701 14.8875 59.9141 15.1225C59.858 15.3575 59.8299 15.6299 59.8299 15.9396V16.224C59.8299 16.5311 59.858 16.8035 59.9141 17.0412C59.9701 17.2762 60.0529 17.4752 60.1624 17.6381C60.2719 17.7983 60.4054 17.9198 60.563 18.0026C60.7205 18.0854 60.9008 18.1268 61.1038 18.1268C61.3067 18.1268 61.487 18.0854 61.6445 18.0026C61.8021 17.9198 61.9343 17.7983 62.0411 17.6381C62.1479 17.4752 62.2294 17.2762 62.2854 17.0412C62.3415 16.8035 62.3696 16.5311 62.3696 16.224ZM69.7813 13.1677V19H68.5796L66.2362 15.0904V19H65.0345V13.1677H66.2362L68.5836 17.0813V13.1677H69.7813Z" fill="#2563AC"/>
<path d="M78 6.3105C78.6897 5.72044 80.0692 3.83227 80.0692 1M80.0692 8.08067C81.2516 7.09724 83.6164 4.83536 83.6164 3.65525M82.434 10.4409C83.912 9.45746 86.8679 7.25459 86.8679 6.3105" stroke="black" stroke-width="0.585979" stroke-linecap="round"/>
<path d="M10.2158 23.0762C9.35484 23.3654 7.36715 24.6003 6.30413 27.2264M8.96168 20.6613C7.49627 21.131 4.45474 22.3441 4.01182 23.4383M7.65493 17.5888C5.91545 17.948 2.34791 18.8853 1.99357 19.7607" stroke="black" stroke-width="0.585979" stroke-linecap="round"/>
</svg>
