<svg width="191" height="49" viewBox="0 0 191 49" fill="none" xmlns="http://www.w3.org/2000/svg">
<rect x="20" y="12" width="158" height="32" rx="16" fill="#FFE6CF"/>
<path d="M47.3389 23.0469V33H45.2949V23.0469H47.3389ZM50.4014 23.0469V24.6533H42.2803V23.0469H50.4014ZM59.249 31.4004V33H53.9512V31.4004H59.249ZM54.6211 23.0469V33H52.5703V23.0469H54.6211ZM58.5586 27.1006V28.6592H53.9512V27.1006H58.5586ZM59.2422 23.0469V24.6533H53.9512V23.0469H59.2422ZM66.627 30.3955C66.627 30.2178 66.5996 30.0583 66.5449 29.917C66.4948 29.7712 66.3991 29.639 66.2578 29.5205C66.1165 29.3975 65.9183 29.2767 65.6631 29.1582C65.4079 29.0397 65.0775 28.9167 64.6719 28.7891C64.2207 28.6432 63.7923 28.4792 63.3867 28.2969C62.9857 28.1146 62.6302 27.9027 62.3203 27.6611C62.015 27.415 61.7734 27.1302 61.5957 26.8066C61.4225 26.4831 61.3359 26.1071 61.3359 25.6787C61.3359 25.264 61.4271 24.888 61.6094 24.5508C61.7917 24.209 62.0469 23.9173 62.375 23.6758C62.7031 23.4297 63.0905 23.2406 63.5371 23.1084C63.9883 22.9762 64.4827 22.9102 65.0205 22.9102C65.7542 22.9102 66.3945 23.0423 66.9414 23.3066C67.4883 23.571 67.9121 23.9333 68.2129 24.3936C68.5182 24.8538 68.6709 25.3802 68.6709 25.9727H66.6338C66.6338 25.681 66.5723 25.4258 66.4492 25.207C66.3307 24.9837 66.1484 24.8083 65.9023 24.6807C65.6608 24.5531 65.3555 24.4893 64.9863 24.4893C64.6309 24.4893 64.3346 24.5439 64.0977 24.6533C63.8607 24.7581 63.6829 24.9017 63.5645 25.084C63.446 25.2617 63.3867 25.4622 63.3867 25.6855C63.3867 25.8542 63.4277 26.0068 63.5098 26.1436C63.5964 26.2803 63.724 26.4079 63.8926 26.5264C64.0612 26.6449 64.2686 26.7565 64.5146 26.8613C64.7607 26.9661 65.0456 27.0687 65.3691 27.1689C65.9115 27.333 66.3877 27.5176 66.7979 27.7227C67.2126 27.9277 67.5589 28.1579 67.8369 28.4131C68.1149 28.6683 68.3245 28.9577 68.4658 29.2812C68.6071 29.6048 68.6777 29.9717 68.6777 30.3818C68.6777 30.8148 68.5934 31.2021 68.4248 31.5439C68.2562 31.8857 68.0124 32.1751 67.6934 32.4121C67.3743 32.6491 66.9938 32.8291 66.5518 32.9521C66.1097 33.0752 65.6152 33.1367 65.0684 33.1367C64.5762 33.1367 64.0908 33.0729 63.6123 32.9453C63.1338 32.8132 62.6986 32.6149 62.3066 32.3506C61.9193 32.0863 61.6094 31.749 61.377 31.3389C61.1445 30.9287 61.0283 30.4434 61.0283 29.8828H63.0859C63.0859 30.1927 63.1338 30.4548 63.2295 30.6689C63.3252 30.8831 63.4596 31.0563 63.6328 31.1885C63.8105 31.3206 64.0202 31.4163 64.2617 31.4756C64.5078 31.5348 64.7767 31.5645 65.0684 31.5645C65.4238 31.5645 65.7155 31.5143 65.9434 31.4141C66.1758 31.3138 66.3467 31.1748 66.4561 30.9971C66.57 30.8193 66.627 30.6188 66.627 30.3955ZM75.5225 23.0469V33H73.4785V23.0469H75.5225ZM78.585 23.0469V24.6533H70.4639V23.0469H78.585ZM82.9346 23.0469V33H80.8906V23.0469H82.9346ZM86.792 23.0469H88.5283L91.085 30.3545L93.6416 23.0469H95.3779L91.7822 33H90.3877L86.792 23.0469ZM85.8555 23.0469H87.585L87.8994 30.1699V33H85.8555V23.0469ZM94.585 23.0469H96.3213V33H94.2705V30.1699L94.585 23.0469ZM107.295 27.791V28.2627C107.295 29.0192 107.192 29.6982 106.987 30.2998C106.782 30.9014 106.493 31.4141 106.119 31.8379C105.745 32.2572 105.299 32.5785 104.779 32.8018C104.264 33.0251 103.692 33.1367 103.063 33.1367C102.439 33.1367 101.867 33.0251 101.348 32.8018C100.833 32.5785 100.386 32.2572 100.008 31.8379C99.6296 31.4141 99.3356 30.9014 99.126 30.2998C98.9209 29.6982 98.8184 29.0192 98.8184 28.2627V27.791C98.8184 27.0299 98.9209 26.3509 99.126 25.7539C99.3311 25.1523 99.6204 24.6396 99.9941 24.2158C100.372 23.792 100.819 23.4684 101.334 23.2451C101.854 23.0218 102.425 22.9102 103.05 22.9102C103.679 22.9102 104.251 23.0218 104.766 23.2451C105.285 23.4684 105.732 23.792 106.105 24.2158C106.484 24.6396 106.775 25.1523 106.98 25.7539C107.19 26.3509 107.295 27.0299 107.295 27.791ZM105.224 28.2627V27.7773C105.224 27.2487 105.176 26.7839 105.08 26.3828C104.984 25.9818 104.843 25.6445 104.656 25.3711C104.469 25.0977 104.242 24.8926 103.973 24.7559C103.704 24.6146 103.396 24.5439 103.05 24.5439C102.703 24.5439 102.396 24.6146 102.127 24.7559C101.863 24.8926 101.637 25.0977 101.45 25.3711C101.268 25.6445 101.129 25.9818 101.033 26.3828C100.938 26.7839 100.89 27.2487 100.89 27.7773V28.2627C100.89 28.7868 100.938 29.2516 101.033 29.6572C101.129 30.0583 101.27 30.3978 101.457 30.6758C101.644 30.9492 101.872 31.1566 102.141 31.2979C102.41 31.4391 102.717 31.5098 103.063 31.5098C103.41 31.5098 103.717 31.4391 103.986 31.2979C104.255 31.1566 104.481 30.9492 104.663 30.6758C104.845 30.3978 104.984 30.0583 105.08 29.6572C105.176 29.2516 105.224 28.7868 105.224 28.2627ZM117.872 23.0469V33H115.821L111.822 26.3281V33H109.771V23.0469H111.822L115.828 29.7256V23.0469H117.872ZM122.837 23.0469V33H120.793V23.0469H122.837ZM129.928 24.749L127.221 33H125.04L128.738 23.0469H130.126L129.928 24.749ZM132.177 33L129.463 24.749L129.244 23.0469H130.646L134.364 33H132.177ZM132.054 29.2949V30.9014H126.797V29.2949H132.054ZM142.686 31.4004V33H137.675V31.4004H142.686ZM138.338 23.0469V33H136.287V23.0469H138.338ZM150.043 30.3955C150.043 30.2178 150.016 30.0583 149.961 29.917C149.911 29.7712 149.815 29.639 149.674 29.5205C149.533 29.3975 149.334 29.2767 149.079 29.1582C148.824 29.0397 148.493 28.9167 148.088 28.7891C147.637 28.6432 147.208 28.4792 146.803 28.2969C146.402 28.1146 146.046 27.9027 145.736 27.6611C145.431 27.415 145.189 27.1302 145.012 26.8066C144.839 26.4831 144.752 26.1071 144.752 25.6787C144.752 25.264 144.843 24.888 145.025 24.5508C145.208 24.209 145.463 23.9173 145.791 23.6758C146.119 23.4297 146.507 23.2406 146.953 23.1084C147.404 22.9762 147.899 22.9102 148.437 22.9102C149.17 22.9102 149.811 23.0423 150.357 23.3066C150.904 23.571 151.328 23.9333 151.629 24.3936C151.934 24.8538 152.087 25.3802 152.087 25.9727H150.05C150.05 25.681 149.988 25.4258 149.865 25.207C149.747 24.9837 149.564 24.8083 149.318 24.6807C149.077 24.5531 148.771 24.4893 148.402 24.4893C148.047 24.4893 147.751 24.5439 147.514 24.6533C147.277 24.7581 147.099 24.9017 146.98 25.084C146.862 25.2617 146.803 25.4622 146.803 25.6855C146.803 25.8542 146.844 26.0068 146.926 26.1436C147.012 26.2803 147.14 26.4079 147.309 26.5264C147.477 26.6449 147.685 26.7565 147.931 26.8613C148.177 26.9661 148.462 27.0687 148.785 27.1689C149.327 27.333 149.804 27.5176 150.214 27.7227C150.629 27.9277 150.975 28.1579 151.253 28.4131C151.531 28.6683 151.741 28.9577 151.882 29.2812C152.023 29.6048 152.094 29.9717 152.094 30.3818C152.094 30.8148 152.009 31.2021 151.841 31.5439C151.672 31.8857 151.428 32.1751 151.109 32.4121C150.79 32.6491 150.41 32.8291 149.968 32.9521C149.526 33.0752 149.031 33.1367 148.484 33.1367C147.992 33.1367 147.507 33.0729 147.028 32.9453C146.55 32.8132 146.115 32.6149 145.723 32.3506C145.335 32.0863 145.025 31.749 144.793 31.3389C144.561 30.9287 144.444 30.4434 144.444 29.8828H146.502C146.502 30.1927 146.55 30.4548 146.646 30.6689C146.741 30.8831 146.876 31.0563 147.049 31.1885C147.227 31.3206 147.436 31.4163 147.678 31.4756C147.924 31.5348 148.193 31.5645 148.484 31.5645C148.84 31.5645 149.132 31.5143 149.359 31.4141C149.592 31.3138 149.763 31.1748 149.872 30.9971C149.986 30.8193 150.043 30.6188 150.043 30.3955Z" fill="#F5820E"/>
<path d="M175 10C176.167 9 178.5 5.8 178.5 1M178.5 13C180.5 11.3333 184.5 7.5 184.5 5.5M182.5 17C185 15.3333 190 11.6 190 10" stroke="black" stroke-linecap="round"/>
<path d="M17.2796 40.1093C15.8233 40.5995 12.4611 42.6924 10.663 47.1429M15.1582 36.0166C12.6795 36.8128 7.53483 38.8686 6.78563 40.7229M12.9479 30.8095C10.0056 31.4183 3.97116 33.0068 3.3718 34.4903" stroke="black" stroke-linecap="round"/>
</svg>
