<svg width="25" height="24" viewBox="0 0 25 24" fill="none" xmlns="http://www.w3.org/2000/svg">
<rect x="0.128906" width="24.5161" height="24" rx="6" fill="#F38313"/>
<path d="M16.566 10.9995C15.0567 11.0938 13.6051 11.6572 12.3871 12.6215C11.169 11.6572 9.71747 11.0938 8.20818 10.9995V12.4795C7.96148 12.48 7.72507 12.586 7.55093 12.7742C7.37679 12.9624 7.27917 13.2174 7.27954 13.483V13.985C7.27954 14.5395 8.20818 15.089 8.20818 15.089V16.0925C9.44142 16.1779 10.6308 16.6182 11.6521 17.3675C11.9099 17.5602 12.1555 17.7714 12.3871 17.9995C12.6187 17.7714 12.8642 17.5602 13.1221 17.3675C14.1434 16.6182 15.3327 16.1779 16.566 16.0925V14.9885C16.8127 14.988 17.0491 14.882 17.2232 14.6938C17.3974 14.5056 17.495 14.2507 17.4946 13.985V13.483C17.495 13.2174 17.3974 12.9624 17.2232 12.7742C17.0491 12.586 16.8127 12.48 16.566 12.4795V10.9995ZM12.3871 16.7105C11.4241 15.9505 10.3122 15.4381 9.13682 15.2125V12.1375C10.0376 12.3329 10.8929 12.7209 11.6521 13.2785C11.9099 13.4712 12.1555 13.6824 12.3871 13.9105C12.6187 13.6824 12.8642 13.4712 13.1221 13.2785C13.8812 12.7207 14.7365 12.3326 15.6373 12.137V15.2125C14.4619 15.4381 13.3501 15.9505 12.3871 16.7105ZM11.9227 9.99951H12.8514V10.4995H11.9227V9.99951ZM11.9227 7.99951H12.8514V8.49951H11.9227V7.99951Z" fill="white"/>
<path d="M11.9225 10.9999H12.8511V11.4999H11.9225V10.9999ZM10.9939 8.4999C11.117 8.4999 11.2351 8.44722 11.3222 8.35345C11.4093 8.25968 11.4582 8.1325 11.4582 7.9999C11.4586 7.93476 11.447 7.87018 11.4241 7.80992C11.4011 7.74965 11.3673 7.6949 11.3245 7.64884C11.2817 7.60278 11.2309 7.56634 11.1749 7.54163C11.119 7.51692 11.059 7.50443 10.9985 7.5049C10.9378 7.50457 10.8777 7.51711 10.8215 7.54181C10.7654 7.56651 10.7143 7.60288 10.6711 7.64884C10.5841 7.74167 10.5348 7.86795 10.5342 7.9999C10.5336 8.13184 10.5817 8.25865 10.6679 8.35241C10.7541 8.44618 10.8713 8.49923 10.9939 8.4999Z" fill="white"/>
<path d="M13.7802 8.5C14.0367 8.5 14.2446 8.27614 14.2446 8C14.2446 7.72386 14.0367 7.5 13.7802 7.5C13.5238 7.5 13.3159 7.72386 13.3159 8C13.3159 8.27614 13.5238 8.5 13.7802 8.5Z" fill="white"/>
<path d="M14.2447 10H10.5302C10.1608 9.9996 9.80675 9.84144 9.5456 9.56022C9.28445 9.279 9.13758 8.8977 9.13721 8.5V7.5C9.13758 7.1023 9.28445 6.721 9.5456 6.43978C9.80675 6.15856 10.1608 6.0004 10.5302 6H14.2447C14.6141 6.0004 14.9681 6.15856 15.2293 6.43978C15.4905 6.721 15.6373 7.1023 15.6377 7.5V8.5C15.6373 8.8977 15.4905 9.279 15.2293 9.56022C14.9681 9.84144 14.6141 9.9996 14.2447 10ZM10.5302 7C10.4071 7.00013 10.289 7.05285 10.202 7.14659C10.1149 7.24033 10.066 7.36743 10.0658 7.5V8.5C10.066 8.63257 10.1149 8.75967 10.202 8.85341C10.289 8.94715 10.4071 8.99987 10.5302 9H14.2447C14.3678 8.99987 14.4859 8.94715 14.5729 8.85341C14.66 8.75967 14.7089 8.63257 14.7091 8.5V7.5C14.7089 7.36743 14.66 7.24033 14.5729 7.14659C14.4859 7.05285 14.3678 7.00013 14.2447 7H10.5302Z" fill="white"/>
</svg>
