<svg width="257" height="68" viewBox="0 0 257 68" fill="none" xmlns="http://www.w3.org/2000/svg">
<rect x="27" y="17" width="213" height="44" rx="21.3365" fill="#FFF0E0"/>
<path d="M48.3538 40.2688H44.9718V38.1357H48.3538C48.8765 38.1357 49.3019 38.0506 49.63 37.8805C49.9582 37.7042 50.1983 37.4611 50.3502 37.1512C50.5021 36.8412 50.5781 36.4918 50.5781 36.1029C50.5781 35.7078 50.5021 35.3402 50.3502 34.9998C50.1983 34.6595 49.9582 34.386 49.63 34.1794C49.3019 33.9728 48.8765 33.8694 48.3538 33.8694H45.9199V45H43.1851V31.7272H48.3538C49.393 31.7272 50.2833 31.9156 51.0248 32.2924C51.7723 32.6631 52.3435 33.1766 52.7386 33.833C53.1336 34.4893 53.3311 35.2399 53.3311 36.0846C53.3311 36.9415 53.1336 37.6829 52.7386 38.3089C52.3435 38.9349 51.7723 39.418 51.0248 39.7583C50.2833 40.0987 49.393 40.2688 48.3538 40.2688ZM65.4032 37.133V39.2661H58.4751V37.133H65.4032ZM59.2864 31.7272V45H56.5516V31.7272H59.2864ZM67.354 31.7272V45H64.6283V31.7272H67.354ZM76.6275 33.9971L73.0176 45H70.1096L75.0413 31.7272H76.8919L76.6275 33.9971ZM79.6267 45L76.0076 33.9971L75.7159 31.7272H77.5847L82.5438 45H79.6267ZM79.4626 40.0592V42.2014H72.4524V40.0592H79.4626ZM85.1079 31.7272H90.0579C91.0728 31.7272 91.9449 31.8791 92.6742 32.183C93.4095 32.4869 93.9747 32.9366 94.3697 33.5322C94.7647 34.1277 94.9623 34.86 94.9623 35.7291C94.9623 36.4401 94.8407 37.0509 94.5976 37.5614C94.3606 38.0658 94.0233 38.4882 93.5858 38.8285C93.1543 39.1628 92.6468 39.4302 92.0634 39.6307L91.1974 40.0865H86.8947L86.8764 37.9534H90.0761C90.5562 37.9534 90.9543 37.8683 91.2703 37.6981C91.5863 37.528 91.8233 37.291 91.9814 36.9871C92.1454 36.6832 92.2275 36.3307 92.2275 35.9296C92.2275 35.5042 92.1485 35.1366 91.9905 34.8266C91.8325 34.5167 91.5924 34.2797 91.2703 34.1156C90.9482 33.9515 90.5441 33.8694 90.0579 33.8694H87.8427V45H85.1079V31.7272ZM92.5283 45L89.5018 39.0838L92.3916 39.0655L95.4545 44.8724V45H92.5283ZM99.6505 31.7272H101.966L105.375 41.4721L108.785 31.7272H111.1L106.305 45H104.445L99.6505 31.7272ZM98.4016 31.7272H100.708L101.127 41.226V45H98.4016V31.7272ZM110.043 31.7272H112.358V45H109.623V41.226L110.043 31.7272ZM121.65 33.9971L118.04 45H115.132L120.064 31.7272H121.914L121.65 33.9971ZM124.649 45L121.03 33.9971L120.738 31.7272H122.607L127.566 45H124.649ZM124.485 40.0592V42.2014H117.475V40.0592H124.485ZM137.66 40.597H140.386C140.331 41.4904 140.085 42.2835 139.647 42.9763C139.216 43.6691 138.611 44.21 137.833 44.5989C137.061 44.9878 136.132 45.1823 135.044 45.1823C134.193 45.1823 133.43 45.0365 132.756 44.7448C132.081 44.447 131.504 44.0216 131.024 43.4685C130.55 42.9155 130.188 42.247 129.939 41.463C129.69 40.679 129.565 39.8009 129.565 38.8285V37.9078C129.565 36.9354 129.693 36.0573 129.948 35.2733C130.209 34.4833 130.58 33.8117 131.06 33.2587C131.546 32.7056 132.127 32.2802 132.801 31.9824C133.476 31.6847 134.229 31.5358 135.062 31.5358C136.168 31.5358 137.101 31.7363 137.861 32.1374C138.626 32.5385 139.219 33.0916 139.638 33.7965C140.064 34.5015 140.319 35.3037 140.404 36.2031H137.669C137.639 35.6683 137.532 35.2156 137.35 34.8449C137.168 34.4681 136.891 34.1855 136.52 33.9971C136.156 33.8026 135.67 33.7054 135.062 33.7054C134.606 33.7054 134.208 33.7904 133.868 33.9606C133.527 34.1308 133.242 34.3891 133.011 34.7355C132.78 35.0819 132.607 35.5194 132.491 36.0482C132.382 36.5708 132.327 37.1846 132.327 37.8896V38.8285C132.327 39.5152 132.379 40.1199 132.482 40.6426C132.585 41.1592 132.743 41.5967 132.956 41.9553C133.175 42.3078 133.455 42.5752 133.795 42.7575C134.141 42.9337 134.558 43.0218 135.044 43.0218C135.615 43.0218 136.086 42.9307 136.457 42.7484C136.827 42.566 137.11 42.2956 137.304 41.937C137.505 41.5785 137.624 41.1318 137.66 40.597ZM152.421 42.8669V45H145.356V42.8669H152.421ZM146.25 31.7272V45H143.515V31.7272H146.25ZM151.501 37.133V39.2114H145.356V37.133H151.501ZM152.412 31.7272V33.8694H145.356V31.7272H152.412ZM162.679 31.7272H165.405V40.4967C165.405 41.5177 165.186 42.3777 164.749 43.0765C164.317 43.7754 163.719 44.3011 162.953 44.6536C162.193 45.0061 161.318 45.1823 160.327 45.1823C159.337 45.1823 158.456 45.0061 157.684 44.6536C156.918 44.3011 156.316 43.7754 155.879 43.0765C155.447 42.3777 155.232 41.5177 155.232 40.4967V31.7272H157.966V40.4967C157.966 41.0923 158.061 41.5785 158.249 41.9553C158.437 42.3321 158.708 42.6086 159.06 42.7848C159.419 42.9611 159.841 43.0492 160.327 43.0492C160.826 43.0492 161.248 42.9611 161.595 42.7848C161.947 42.6086 162.214 42.3321 162.397 41.9553C162.585 41.5785 162.679 41.0923 162.679 40.4967V31.7272ZM174.925 31.7272V45H172.199V31.7272H174.925ZM179.009 31.7272V33.8694H168.179V31.7272H179.009ZM184.809 31.7272V45H182.083V31.7272H184.809ZM196.398 40.597H199.124C199.069 41.4904 198.823 42.2835 198.385 42.9763C197.954 43.6691 197.349 44.21 196.571 44.5989C195.799 44.9878 194.869 45.1823 193.782 45.1823C192.931 45.1823 192.168 45.0365 191.493 44.7448C190.819 44.447 190.242 44.0216 189.761 43.4685C189.287 42.9155 188.926 42.247 188.677 41.463C188.427 40.679 188.303 39.8009 188.303 38.8285V37.9078C188.303 36.9354 188.431 36.0573 188.686 35.2733C188.947 34.4833 189.318 33.8117 189.798 33.2587C190.284 32.7056 190.864 32.2802 191.539 31.9824C192.214 31.6847 192.967 31.5358 193.8 31.5358C194.906 31.5358 195.839 31.7363 196.598 32.1374C197.364 32.5385 197.957 33.0916 198.376 33.7965C198.801 34.5015 199.057 35.3037 199.142 36.2031H196.407C196.377 35.6683 196.27 35.2156 196.088 34.8449C195.906 34.4681 195.629 34.1855 195.258 33.9971C194.894 33.8026 194.408 33.7054 193.8 33.7054C193.344 33.7054 192.946 33.7904 192.606 33.9606C192.265 34.1308 191.98 34.3891 191.749 34.7355C191.518 35.0819 191.345 35.5194 191.229 36.0482C191.12 36.5708 191.065 37.1846 191.065 37.8896V38.8285C191.065 39.5152 191.117 40.1199 191.22 40.6426C191.323 41.1592 191.481 41.5967 191.694 41.9553C191.913 42.3078 192.192 42.5752 192.533 42.7575C192.879 42.9337 193.295 43.0218 193.782 43.0218C194.353 43.0218 194.824 42.9307 195.195 42.7484C195.565 42.566 195.848 42.2956 196.042 41.937C196.243 41.5785 196.361 41.1318 196.398 40.597ZM207.649 33.9971L204.04 45H201.132L206.063 31.7272H207.914L207.649 33.9971ZM210.649 45L207.03 33.9971L206.738 31.7272H208.607L213.566 45H210.649ZM210.485 40.0592V42.2014H203.474V40.0592H210.485ZM224.662 42.8669V45H217.98V42.8669H224.662ZM218.865 31.7272V45H216.13V31.7272H218.865Z" fill="#F38313"/>
<path d="M236.027 13.3847C237.583 12.0086 240.695 7.60518 240.695 1M240.695 17.513C243.362 15.2195 248.696 9.94452 248.696 7.19236M246.029 23.0173C249.363 20.7238 256.03 15.5864 256.03 13.3847" stroke="black" stroke-width="1.33353" stroke-linecap="round"/>
<path d="M23.0427 56.1928C21.1007 56.8673 16.6172 59.7474 14.2194 65.8716M20.2138 50.561C16.9084 51.6565 10.0478 54.4855 9.0487 57.0373M17.2663 43.3956C13.3426 44.2333 5.29552 46.4192 4.49626 48.4607" stroke="black" stroke-width="1.33353" stroke-linecap="round"/>
</svg>
