<svg width="160" height="49" viewBox="0 0 160 49" fill="none" xmlns="http://www.w3.org/2000/svg">
<rect x="18" y="12" width="128" height="32" rx="16" fill="#FFF0E0"/>
<path d="M41.0645 27.791V28.2627C41.0645 29.0192 40.9619 29.6982 40.7568 30.2998C40.5518 30.9014 40.2624 31.4141 39.8887 31.8379C39.515 32.2572 39.0684 32.5785 38.5488 32.8018C38.0339 33.0251 37.4619 33.1367 36.833 33.1367C36.2087 33.1367 35.6367 33.0251 35.1172 32.8018C34.6022 32.5785 34.1556 32.2572 33.7773 31.8379C33.3991 31.4141 33.1051 30.9014 32.8955 30.2998C32.6904 29.6982 32.5879 29.0192 32.5879 28.2627V27.791C32.5879 27.0299 32.6904 26.3509 32.8955 25.7539C33.1006 25.1523 33.39 24.6396 33.7637 24.2158C34.1419 23.792 34.5885 23.4684 35.1035 23.2451C35.623 23.0218 36.195 22.9102 36.8193 22.9102C37.4482 22.9102 38.0202 23.0218 38.5352 23.2451C39.0547 23.4684 39.5013 23.792 39.875 24.2158C40.2533 24.6396 40.5449 25.1523 40.75 25.7539C40.9596 26.3509 41.0645 27.0299 41.0645 27.791ZM38.9932 28.2627V27.7773C38.9932 27.2487 38.9453 26.7839 38.8496 26.3828C38.7539 25.9818 38.6126 25.6445 38.4258 25.3711C38.2389 25.0977 38.0111 24.8926 37.7422 24.7559C37.4733 24.6146 37.1657 24.5439 36.8193 24.5439C36.473 24.5439 36.1654 24.6146 35.8965 24.7559C35.6322 24.8926 35.4066 25.0977 35.2197 25.3711C35.0374 25.6445 34.8984 25.9818 34.8027 26.3828C34.707 26.7839 34.6592 27.2487 34.6592 27.7773V28.2627C34.6592 28.7868 34.707 29.2516 34.8027 29.6572C34.8984 30.0583 35.0397 30.3978 35.2266 30.6758C35.4134 30.9492 35.6413 31.1566 35.9102 31.2979C36.179 31.4391 36.4867 31.5098 36.833 31.5098C37.1794 31.5098 37.487 31.4391 37.7559 31.2979C38.0247 31.1566 38.2503 30.9492 38.4326 30.6758C38.6149 30.3978 38.7539 30.0583 38.8496 29.6572C38.9453 29.2516 38.9932 28.7868 38.9932 28.2627ZM49.0371 23.0469H51.0811V29.623C51.0811 30.3887 50.917 31.0335 50.5889 31.5576C50.2653 32.0817 49.8164 32.4759 49.2422 32.7402C48.6725 33.0046 48.0163 33.1367 47.2734 33.1367C46.5306 33.1367 45.8698 33.0046 45.291 32.7402C44.7168 32.4759 44.2656 32.0817 43.9375 31.5576C43.6139 31.0335 43.4521 30.3887 43.4521 29.623V23.0469H45.5029V29.623C45.5029 30.0697 45.5736 30.4342 45.7148 30.7168C45.8561 30.9993 46.0589 31.2067 46.3232 31.3389C46.5921 31.471 46.9089 31.5371 47.2734 31.5371C47.6471 31.5371 47.9639 31.471 48.2236 31.3389C48.488 31.2067 48.6885 30.9993 48.8252 30.7168C48.9665 30.4342 49.0371 30.0697 49.0371 29.623V23.0469ZM53.7695 23.0469H57.4814C58.2425 23.0469 58.8965 23.1608 59.4434 23.3887C59.9948 23.6165 60.4186 23.9538 60.7148 24.4004C61.0111 24.847 61.1592 25.3962 61.1592 26.0479C61.1592 26.5811 61.068 27.0391 60.8857 27.4219C60.708 27.8001 60.4551 28.1169 60.127 28.3721C59.8034 28.6227 59.4229 28.8232 58.9854 28.9736L58.3359 29.3154H55.1094L55.0957 27.7158H57.4951C57.8551 27.7158 58.1536 27.652 58.3906 27.5244C58.6276 27.3968 58.8053 27.2191 58.9238 26.9912C59.0469 26.7633 59.1084 26.499 59.1084 26.1982C59.1084 25.8792 59.0492 25.6035 58.9307 25.3711C58.8122 25.1387 58.6322 24.9609 58.3906 24.8379C58.1491 24.7148 57.846 24.6533 57.4814 24.6533H55.8203V33H53.7695V23.0469ZM59.334 33L57.0645 28.5635L59.2314 28.5498L61.5283 32.9043V33H59.334ZM69.1611 23.0469H70.8975L73.4541 30.3545L76.0107 23.0469H77.7471L74.1514 33H72.7568L69.1611 23.0469ZM68.2246 23.0469H69.9541L70.2686 30.1699V33H68.2246V23.0469ZM76.9541 23.0469H78.6904V33H76.6396V30.1699L76.9541 23.0469ZM83.6689 23.0469V33H81.625V23.0469H83.6689ZM91.7715 30.3955C91.7715 30.2178 91.7441 30.0583 91.6895 29.917C91.6393 29.7712 91.5436 29.639 91.4023 29.5205C91.2611 29.3975 91.0628 29.2767 90.8076 29.1582C90.5524 29.0397 90.222 28.9167 89.8164 28.7891C89.3652 28.6432 88.9368 28.4792 88.5312 28.2969C88.1302 28.1146 87.7747 27.9027 87.4648 27.6611C87.1595 27.415 86.918 27.1302 86.7402 26.8066C86.5671 26.4831 86.4805 26.1071 86.4805 25.6787C86.4805 25.264 86.5716 24.888 86.7539 24.5508C86.9362 24.209 87.1914 23.9173 87.5195 23.6758C87.8477 23.4297 88.235 23.2406 88.6816 23.1084C89.1328 22.9762 89.6273 22.9102 90.165 22.9102C90.8988 22.9102 91.5391 23.0423 92.0859 23.3066C92.6328 23.571 93.0566 23.9333 93.3574 24.3936C93.6628 24.8538 93.8154 25.3802 93.8154 25.9727H91.7783C91.7783 25.681 91.7168 25.4258 91.5938 25.207C91.4753 24.9837 91.293 24.8083 91.0469 24.6807C90.8053 24.5531 90.5 24.4893 90.1309 24.4893C89.7754 24.4893 89.4792 24.5439 89.2422 24.6533C89.0052 24.7581 88.8275 24.9017 88.709 25.084C88.5905 25.2617 88.5312 25.4622 88.5312 25.6855C88.5312 25.8542 88.5723 26.0068 88.6543 26.1436C88.7409 26.2803 88.8685 26.4079 89.0371 26.5264C89.2057 26.6449 89.4131 26.7565 89.6592 26.8613C89.9053 26.9661 90.1901 27.0687 90.5137 27.1689C91.056 27.333 91.5322 27.5176 91.9424 27.7227C92.3571 27.9277 92.7035 28.1579 92.9814 28.4131C93.2594 28.6683 93.4691 28.9577 93.6104 29.2812C93.7516 29.6048 93.8223 29.9717 93.8223 30.3818C93.8223 30.8148 93.738 31.2021 93.5693 31.5439C93.4007 31.8857 93.1569 32.1751 92.8379 32.4121C92.5189 32.6491 92.1383 32.8291 91.6963 32.9521C91.2542 33.0752 90.7598 33.1367 90.2129 33.1367C89.7207 33.1367 89.2354 33.0729 88.7568 32.9453C88.2783 32.8132 87.8431 32.6149 87.4512 32.3506C87.0638 32.0863 86.7539 31.749 86.5215 31.3389C86.2891 30.9287 86.1729 30.4434 86.1729 29.8828H88.2305C88.2305 30.1927 88.2783 30.4548 88.374 30.6689C88.4697 30.8831 88.6042 31.0563 88.7773 31.1885C88.9551 31.3206 89.1647 31.4163 89.4062 31.4756C89.6523 31.5348 89.9212 31.5645 90.2129 31.5645C90.5684 31.5645 90.86 31.5143 91.0879 31.4141C91.3203 31.3138 91.4912 31.1748 91.6006 30.9971C91.7145 30.8193 91.7715 30.6188 91.7715 30.3955ZM101.398 30.3955C101.398 30.2178 101.371 30.0583 101.316 29.917C101.266 29.7712 101.171 29.639 101.029 29.5205C100.888 29.3975 100.69 29.2767 100.435 29.1582C100.179 29.0397 99.849 28.9167 99.4434 28.7891C98.9922 28.6432 98.5638 28.4792 98.1582 28.2969C97.7572 28.1146 97.4017 27.9027 97.0918 27.6611C96.7865 27.415 96.5449 27.1302 96.3672 26.8066C96.194 26.4831 96.1074 26.1071 96.1074 25.6787C96.1074 25.264 96.1986 24.888 96.3809 24.5508C96.5632 24.209 96.8184 23.9173 97.1465 23.6758C97.4746 23.4297 97.862 23.2406 98.3086 23.1084C98.7598 22.9762 99.2542 22.9102 99.792 22.9102C100.526 22.9102 101.166 23.0423 101.713 23.3066C102.26 23.571 102.684 23.9333 102.984 24.3936C103.29 24.8538 103.442 25.3802 103.442 25.9727H101.405C101.405 25.681 101.344 25.4258 101.221 25.207C101.102 24.9837 100.92 24.8083 100.674 24.6807C100.432 24.5531 100.127 24.4893 99.7578 24.4893C99.4023 24.4893 99.1061 24.5439 98.8691 24.6533C98.6322 24.7581 98.4544 24.9017 98.3359 25.084C98.2174 25.2617 98.1582 25.4622 98.1582 25.6855C98.1582 25.8542 98.1992 26.0068 98.2812 26.1436C98.3678 26.2803 98.4954 26.4079 98.6641 26.5264C98.8327 26.6449 99.04 26.7565 99.2861 26.8613C99.5322 26.9661 99.8171 27.0687 100.141 27.1689C100.683 27.333 101.159 27.5176 101.569 27.7227C101.984 27.9277 102.33 28.1579 102.608 28.4131C102.886 28.6683 103.096 28.9577 103.237 29.2812C103.379 29.6048 103.449 29.9717 103.449 30.3818C103.449 30.8148 103.365 31.2021 103.196 31.5439C103.028 31.8857 102.784 32.1751 102.465 32.4121C102.146 32.6491 101.765 32.8291 101.323 32.9521C100.881 33.0752 100.387 33.1367 99.8398 33.1367C99.3477 33.1367 98.8623 33.0729 98.3838 32.9453C97.9053 32.8132 97.4701 32.6149 97.0781 32.3506C96.6908 32.0863 96.3809 31.749 96.1484 31.3389C95.916 30.9287 95.7998 30.4434 95.7998 29.8828H97.8574C97.8574 30.1927 97.9053 30.4548 98.001 30.6689C98.0967 30.8831 98.2311 31.0563 98.4043 31.1885C98.582 31.3206 98.7917 31.4163 99.0332 31.4756C99.2793 31.5348 99.5482 31.5645 99.8398 31.5645C100.195 31.5645 100.487 31.5143 100.715 31.4141C100.947 31.3138 101.118 31.1748 101.228 30.9971C101.341 30.8193 101.398 30.6188 101.398 30.3955ZM108.024 23.0469V33H105.98V23.0469H108.024ZM119.121 27.791V28.2627C119.121 29.0192 119.019 29.6982 118.813 30.2998C118.608 30.9014 118.319 31.4141 117.945 31.8379C117.572 32.2572 117.125 32.5785 116.605 32.8018C116.09 33.0251 115.519 33.1367 114.89 33.1367C114.265 33.1367 113.693 33.0251 113.174 32.8018C112.659 32.5785 112.212 32.2572 111.834 31.8379C111.456 31.4141 111.162 30.9014 110.952 30.2998C110.747 29.6982 110.645 29.0192 110.645 28.2627V27.791C110.645 27.0299 110.747 26.3509 110.952 25.7539C111.157 25.1523 111.447 24.6396 111.82 24.2158C112.199 23.792 112.645 23.4684 113.16 23.2451C113.68 23.0218 114.252 22.9102 114.876 22.9102C115.505 22.9102 116.077 23.0218 116.592 23.2451C117.111 23.4684 117.558 23.792 117.932 24.2158C118.31 24.6396 118.602 25.1523 118.807 25.7539C119.016 26.3509 119.121 27.0299 119.121 27.791ZM117.05 28.2627V27.7773C117.05 27.2487 117.002 26.7839 116.906 26.3828C116.811 25.9818 116.669 25.6445 116.482 25.3711C116.296 25.0977 116.068 24.8926 115.799 24.7559C115.53 24.6146 115.222 24.5439 114.876 24.5439C114.53 24.5439 114.222 24.6146 113.953 24.7559C113.689 24.8926 113.463 25.0977 113.276 25.3711C113.094 25.6445 112.955 25.9818 112.859 26.3828C112.764 26.7839 112.716 27.2487 112.716 27.7773V28.2627C112.716 28.7868 112.764 29.2516 112.859 29.6572C112.955 30.0583 113.096 30.3978 113.283 30.6758C113.47 30.9492 113.698 31.1566 113.967 31.2979C114.236 31.4391 114.543 31.5098 114.89 31.5098C115.236 31.5098 115.544 31.4391 115.812 31.2979C116.081 31.1566 116.307 30.9492 116.489 30.6758C116.672 30.3978 116.811 30.0583 116.906 29.6572C117.002 29.2516 117.05 28.7868 117.05 28.2627ZM129.698 23.0469V33H127.647L123.648 26.3281V33H121.598V23.0469H123.648L127.654 29.7256V23.0469H129.698Z" fill="#F38313"/>
<path d="M144 10C145.167 9 147.5 5.8 147.5 1M147.5 13C149.5 11.3333 153.5 7.5 153.5 5.5M151.5 17C154 15.3333 159 11.6 159 10" stroke="black" stroke-linecap="round"/>
<path d="M17.2796 40.1094C15.8233 40.5996 12.4611 42.6925 10.663 47.143M15.1582 36.0168C12.6795 36.8129 7.53483 38.8687 6.78563 40.7231M12.9479 30.8096C10.0056 31.4184 3.97116 33.0069 3.3718 34.4904" stroke="black" stroke-linecap="round"/>
</svg>
