<svg width="137" height="49" viewBox="0 0 137 49" fill="none" xmlns="http://www.w3.org/2000/svg">
<rect x="15" y="12" width="111" height="32" rx="16" fill="#FFF0E0"/>
<path d="M37.0645 27.791V28.2627C37.0645 29.0192 36.9619 29.6982 36.7568 30.2998C36.5518 30.9014 36.2624 31.4141 35.8887 31.8379C35.515 32.2572 35.0684 32.5785 34.5488 32.8018C34.0339 33.0251 33.4619 33.1367 32.833 33.1367C32.2087 33.1367 31.6367 33.0251 31.1172 32.8018C30.6022 32.5785 30.1556 32.2572 29.7773 31.8379C29.3991 31.4141 29.1051 30.9014 28.8955 30.2998C28.6904 29.6982 28.5879 29.0192 28.5879 28.2627V27.791C28.5879 27.0299 28.6904 26.3509 28.8955 25.7539C29.1006 25.1523 29.39 24.6396 29.7637 24.2158C30.1419 23.792 30.5885 23.4684 31.1035 23.2451C31.623 23.0218 32.195 22.9102 32.8193 22.9102C33.4482 22.9102 34.0202 23.0218 34.5352 23.2451C35.0547 23.4684 35.5013 23.792 35.875 24.2158C36.2533 24.6396 36.5449 25.1523 36.75 25.7539C36.9596 26.3509 37.0645 27.0299 37.0645 27.791ZM34.9932 28.2627V27.7773C34.9932 27.2487 34.9453 26.7839 34.8496 26.3828C34.7539 25.9818 34.6126 25.6445 34.4258 25.3711C34.2389 25.0977 34.0111 24.8926 33.7422 24.7559C33.4733 24.6146 33.1657 24.5439 32.8193 24.5439C32.473 24.5439 32.1654 24.6146 31.8965 24.7559C31.6322 24.8926 31.4066 25.0977 31.2197 25.3711C31.0374 25.6445 30.8984 25.9818 30.8027 26.3828C30.707 26.7839 30.6592 27.2487 30.6592 27.7773V28.2627C30.6592 28.7868 30.707 29.2516 30.8027 29.6572C30.8984 30.0583 31.0397 30.3978 31.2266 30.6758C31.4134 30.9492 31.6413 31.1566 31.9102 31.2979C32.179 31.4391 32.4867 31.5098 32.833 31.5098C33.1794 31.5098 33.487 31.4391 33.7559 31.2979C34.0247 31.1566 34.2503 30.9492 34.4326 30.6758C34.6149 30.3978 34.7539 30.0583 34.8496 29.6572C34.9453 29.2516 34.9932 28.7868 34.9932 28.2627ZM45.0371 23.0469H47.0811V29.623C47.0811 30.3887 46.917 31.0335 46.5889 31.5576C46.2653 32.0817 45.8164 32.4759 45.2422 32.7402C44.6725 33.0046 44.0163 33.1367 43.2734 33.1367C42.5306 33.1367 41.8698 33.0046 41.291 32.7402C40.7168 32.4759 40.2656 32.0817 39.9375 31.5576C39.6139 31.0335 39.4521 30.3887 39.4521 29.623V23.0469H41.5029V29.623C41.5029 30.0697 41.5736 30.4342 41.7148 30.7168C41.8561 30.9993 42.0589 31.2067 42.3232 31.3389C42.5921 31.471 42.9089 31.5371 43.2734 31.5371C43.6471 31.5371 43.9639 31.471 44.2236 31.3389C44.488 31.2067 44.6885 30.9993 44.8252 30.7168C44.9665 30.4342 45.0371 30.0697 45.0371 29.623V23.0469ZM49.7695 23.0469H53.4814C54.2425 23.0469 54.8965 23.1608 55.4434 23.3887C55.9948 23.6165 56.4186 23.9538 56.7148 24.4004C57.0111 24.847 57.1592 25.3962 57.1592 26.0479C57.1592 26.5811 57.068 27.0391 56.8857 27.4219C56.708 27.8001 56.4551 28.1169 56.127 28.3721C55.8034 28.6227 55.4229 28.8232 54.9854 28.9736L54.3359 29.3154H51.1094L51.0957 27.7158H53.4951C53.8551 27.7158 54.1536 27.652 54.3906 27.5244C54.6276 27.3968 54.8053 27.2191 54.9238 26.9912C55.0469 26.7633 55.1084 26.499 55.1084 26.1982C55.1084 25.8792 55.0492 25.6035 54.9307 25.3711C54.8122 25.1387 54.6322 24.9609 54.3906 24.8379C54.1491 24.7148 53.846 24.6533 53.4814 24.6533H51.8203V33H49.7695V23.0469ZM55.334 33L53.0645 28.5635L55.2314 28.5498L57.5283 32.9043V33H55.334ZM67.8135 30.9219L70.1582 23.0469H72.4414L68.9756 33H67.4717L67.8135 30.9219ZM65.6533 23.0469L67.9912 30.9219L68.3467 33H66.8291L63.3838 23.0469H65.6533ZM76.5518 23.0469V33H74.5078V23.0469H76.5518ZM84.6543 30.3955C84.6543 30.2178 84.627 30.0583 84.5723 29.917C84.5221 29.7712 84.4264 29.639 84.2852 29.5205C84.1439 29.3975 83.9456 29.2767 83.6904 29.1582C83.4352 29.0397 83.1048 28.9167 82.6992 28.7891C82.248 28.6432 81.8197 28.4792 81.4141 28.2969C81.013 28.1146 80.6576 27.9027 80.3477 27.6611C80.0423 27.415 79.8008 27.1302 79.623 26.8066C79.4499 26.4831 79.3633 26.1071 79.3633 25.6787C79.3633 25.264 79.4544 24.888 79.6367 24.5508C79.819 24.209 80.0742 23.9173 80.4023 23.6758C80.7305 23.4297 81.1178 23.2406 81.5645 23.1084C82.0156 22.9762 82.5101 22.9102 83.0479 22.9102C83.7816 22.9102 84.4219 23.0423 84.9688 23.3066C85.5156 23.571 85.9395 23.9333 86.2402 24.3936C86.5456 24.8538 86.6982 25.3802 86.6982 25.9727H84.6611C84.6611 25.681 84.5996 25.4258 84.4766 25.207C84.3581 24.9837 84.1758 24.8083 83.9297 24.6807C83.6882 24.5531 83.3828 24.4893 83.0137 24.4893C82.6582 24.4893 82.362 24.5439 82.125 24.6533C81.888 24.7581 81.7103 24.9017 81.5918 25.084C81.4733 25.2617 81.4141 25.4622 81.4141 25.6855C81.4141 25.8542 81.4551 26.0068 81.5371 26.1436C81.6237 26.2803 81.7513 26.4079 81.9199 26.5264C82.0885 26.6449 82.2959 26.7565 82.542 26.8613C82.7881 26.9661 83.0729 27.0687 83.3965 27.1689C83.9388 27.333 84.415 27.5176 84.8252 27.7227C85.2399 27.9277 85.5863 28.1579 85.8643 28.4131C86.1423 28.6683 86.3519 28.9577 86.4932 29.2812C86.6344 29.6048 86.7051 29.9717 86.7051 30.3818C86.7051 30.8148 86.6208 31.2021 86.4521 31.5439C86.2835 31.8857 86.0397 32.1751 85.7207 32.4121C85.4017 32.6491 85.0212 32.8291 84.5791 32.9521C84.137 33.0752 83.6426 33.1367 83.0957 33.1367C82.6035 33.1367 82.1182 33.0729 81.6396 32.9453C81.1611 32.8132 80.7259 32.6149 80.334 32.3506C79.9466 32.0863 79.6367 31.749 79.4043 31.3389C79.1719 30.9287 79.0557 30.4434 79.0557 29.8828H81.1133C81.1133 30.1927 81.1611 30.4548 81.2568 30.6689C81.3525 30.8831 81.487 31.0563 81.6602 31.1885C81.8379 31.3206 82.0475 31.4163 82.2891 31.4756C82.5352 31.5348 82.804 31.5645 83.0957 31.5645C83.4512 31.5645 83.7428 31.5143 83.9707 31.4141C84.2031 31.3138 84.374 31.1748 84.4834 30.9971C84.5973 30.8193 84.6543 30.6188 84.6543 30.3955ZM91.2803 23.0469V33H89.2363V23.0469H91.2803ZM102.377 27.791V28.2627C102.377 29.0192 102.274 29.6982 102.069 30.2998C101.864 30.9014 101.575 31.4141 101.201 31.8379C100.827 32.2572 100.381 32.5785 99.8613 32.8018C99.3464 33.0251 98.7744 33.1367 98.1455 33.1367C97.5212 33.1367 96.9492 33.0251 96.4297 32.8018C95.9147 32.5785 95.4681 32.2572 95.0898 31.8379C94.7116 31.4141 94.4176 30.9014 94.208 30.2998C94.0029 29.6982 93.9004 29.0192 93.9004 28.2627V27.791C93.9004 27.0299 94.0029 26.3509 94.208 25.7539C94.4131 25.1523 94.7025 24.6396 95.0762 24.2158C95.4544 23.792 95.901 23.4684 96.416 23.2451C96.9355 23.0218 97.5075 22.9102 98.1318 22.9102C98.7607 22.9102 99.3327 23.0218 99.8477 23.2451C100.367 23.4684 100.814 23.792 101.188 24.2158C101.566 24.6396 101.857 25.1523 102.062 25.7539C102.272 26.3509 102.377 27.0299 102.377 27.791ZM100.306 28.2627V27.7773C100.306 27.2487 100.258 26.7839 100.162 26.3828C100.066 25.9818 99.9251 25.6445 99.7383 25.3711C99.5514 25.0977 99.3236 24.8926 99.0547 24.7559C98.7858 24.6146 98.4782 24.5439 98.1318 24.5439C97.7855 24.5439 97.4779 24.6146 97.209 24.7559C96.9447 24.8926 96.7191 25.0977 96.5322 25.3711C96.3499 25.6445 96.2109 25.9818 96.1152 26.3828C96.0195 26.7839 95.9717 27.2487 95.9717 27.7773V28.2627C95.9717 28.7868 96.0195 29.2516 96.1152 29.6572C96.2109 30.0583 96.3522 30.3978 96.5391 30.6758C96.7259 30.9492 96.9538 31.1566 97.2227 31.2979C97.4915 31.4391 97.7992 31.5098 98.1455 31.5098C98.4919 31.5098 98.7995 31.4391 99.0684 31.2979C99.3372 31.1566 99.5628 30.9492 99.7451 30.6758C99.9274 30.3978 100.066 30.0583 100.162 29.6572C100.258 29.2516 100.306 28.7868 100.306 28.2627ZM112.954 23.0469V33H110.903L106.904 26.3281V33H104.854V23.0469H106.904L110.91 29.7256V23.0469H112.954Z" fill="#F38313"/>
<path d="M124 10C124.953 9 126.86 5.8 126.86 1M126.86 13C128.495 11.3333 131.764 7.5 131.764 5.5M130.13 17C132.173 15.3333 136.259 11.6 136.259 10" stroke="black" stroke-linecap="round"/>
<path d="M14.1216 40.1094C12.9314 40.5996 10.1836 42.6925 8.71404 47.143M12.3878 36.0168C10.3621 36.8129 6.15743 38.8687 5.54513 40.7231M10.5814 30.8096C8.17672 31.4184 3.24495 33.0069 2.75511 34.4904" stroke="black" stroke-linecap="round"/>
</svg>
