<svg width="25" height="24" viewBox="0 0 25 24" fill="none" xmlns="http://www.w3.org/2000/svg">
<rect x="0.128906" width="24.5161" height="24" rx="6" fill="#2563AC"/>
<path d="M10.2157 8.70833H9.41368L8.21596 13.0417H8.82853L9.10501 12.026H10.4851L10.7544 13.0417H11.3872L10.2157 8.70833ZM9.18546 11.5911L9.79146 9.22292H9.81828L10.4046 11.5916L9.18546 11.5911ZM11.9331 13.0417V8.70833H12.5289V13.0417H11.9331ZM12.0445 13.5833H7.62009V8.16667H13.5789V10.7558C14.2841 10.3418 15.1372 10.1895 15.9624 10.3301V9.25H14.7706V8.16667C14.7697 7.87961 14.6438 7.60456 14.4205 7.40158C14.1972 7.1986 13.8947 7.08419 13.5789 7.08333H12.3871V6H11.1954V7.08333H10.0036V6H8.81184V7.08333H7.62009C7.3043 7.08419 7.00172 7.1986 6.77843 7.40158C6.55513 7.60456 6.42927 7.87961 6.42833 8.16667V9.25H5.23657V10.3333H6.42833V11.4167H5.23657V12.5H6.42833V13.5833C6.42927 13.8704 6.55513 14.1454 6.77843 14.3484C7.00172 14.5514 7.3043 14.6658 7.62009 14.6667H8.81184V15.75H10.0036V14.6667H11.1954V15.75H12.3871V14.671C12.1982 14.3314 12.0819 13.9623 12.0445 13.5833ZM13.2809 13.3125C13.2809 12.9375 13.4032 12.571 13.6324 12.2592C13.8616 11.9475 14.1873 11.7045 14.5684 11.561C14.9495 11.4175 15.3688 11.3799 15.7734 11.4531C16.1779 11.5262 16.5496 11.7068 16.8412 11.9719C17.1329 12.2371 17.3315 12.5749 17.412 12.9426C17.4925 13.3104 17.4512 13.6916 17.2933 14.038C17.1355 14.3844 16.8682 14.6805 16.5252 14.8888C16.1822 15.0971 15.779 15.2083 15.3665 15.2083C15.0926 15.2084 14.8214 15.1594 14.5683 15.0642C14.3152 14.9689 14.0853 14.8293 13.8916 14.6532C13.6979 14.4772 13.5443 14.2681 13.4395 14.0381C13.3347 13.808 13.2808 13.5615 13.2809 13.3125ZM15.3665 16.2917C13.9745 16.2917 11.1954 16.927 11.1954 18.1875V19H19.5376V18.1875C19.5376 16.9265 16.7585 16.2917 15.3665 16.2917Z" fill="white"/>
</svg>
