<svg width="183" height="60" viewBox="0 0 183 60" fill="none" xmlns="http://www.w3.org/2000/svg">
<g clip-path="url(#clip0_2811_10072)">
<rect x="17.1147" y="14.5425" width="156.864" height="36.1127" rx="16" fill="#DCECFF"/>
<path d="M43.1841 27.5894V37.5425H41.1401V27.5894H43.1841ZM54.2056 27.5894V37.5425H52.1548L48.1558 30.8706V37.5425H46.105V27.5894H48.1558L52.1616 34.2681V27.5894H54.2056ZM61.2349 27.5894V37.5425H59.1909V27.5894H61.2349ZM64.2974 27.5894V29.1958H56.1763V27.5894H64.2974ZM73.145 35.9429V37.5425H67.8472V35.9429H73.145ZM68.5171 27.5894V37.5425H66.4663V27.5894H68.5171ZM72.4546 31.6431V33.2017H67.8472V31.6431H72.4546ZM73.1382 27.5894V29.1958H67.8472V27.5894H73.1382ZM83.23 32.3403V36.2847C83.075 36.4715 82.8358 36.6743 82.5122 36.8931C82.1886 37.1073 81.7716 37.2918 81.2612 37.4468C80.7508 37.6017 80.1333 37.6792 79.4087 37.6792C78.7661 37.6792 78.1805 37.5744 77.6519 37.3647C77.1232 37.1506 76.6675 36.8384 76.2847 36.4282C75.9064 36.0181 75.6147 35.5168 75.4097 34.9243C75.2046 34.3273 75.1021 33.646 75.1021 32.8804V32.2583C75.1021 31.4927 75.2 30.8114 75.396 30.2144C75.5965 29.6174 75.8813 29.1138 76.2505 28.7036C76.6196 28.2935 77.0594 27.9813 77.5698 27.7671C78.0802 27.5529 78.6476 27.4458 79.272 27.4458C80.1379 27.4458 80.8488 27.5871 81.4048 27.8696C81.9608 28.1476 82.3846 28.535 82.6763 29.0317C82.9725 29.5239 83.1548 30.089 83.2231 30.7271H81.2339C81.1838 30.3898 81.0881 30.0959 80.9468 29.8452C80.8055 29.5946 80.6027 29.3986 80.3384 29.2573C80.0786 29.116 79.7414 29.0454 79.3267 29.0454C78.9849 29.0454 78.6795 29.116 78.4106 29.2573C78.1463 29.394 77.923 29.5968 77.7407 29.8657C77.5584 30.1346 77.4194 30.4673 77.3237 30.8638C77.228 31.2603 77.1802 31.7205 77.1802 32.2446V32.8804C77.1802 33.3999 77.2303 33.8602 77.3306 34.2612C77.4308 34.6577 77.5789 34.9927 77.7749 35.2661C77.9754 35.535 78.2215 35.7378 78.5132 35.8745C78.8049 36.0112 79.1444 36.0796 79.5317 36.0796C79.8553 36.0796 80.1242 36.0522 80.3384 35.9976C80.5571 35.9429 80.7326 35.8768 80.8647 35.7993C81.0015 35.7173 81.1063 35.6398 81.1792 35.5669V33.8032H79.3062V32.3403H83.23ZM85.8843 27.5894H89.5962C90.3573 27.5894 91.0112 27.7033 91.5581 27.9312C92.1095 28.159 92.5334 28.4963 92.8296 28.9429C93.1258 29.3895 93.2739 29.9386 93.2739 30.5903C93.2739 31.1235 93.1828 31.5815 93.0005 31.9644C92.8228 32.3426 92.5698 32.6593 92.2417 32.9146C91.9181 33.1652 91.5376 33.3657 91.1001 33.5161L90.4507 33.8579H87.2241L87.2104 32.2583H89.6099C89.9699 32.2583 90.2684 32.1945 90.5054 32.0669C90.7424 31.9393 90.9201 31.7616 91.0386 31.5337C91.1616 31.3058 91.2231 31.0415 91.2231 30.7407C91.2231 30.4217 91.1639 30.146 91.0454 29.9136C90.9269 29.6812 90.7469 29.5034 90.5054 29.3804C90.2638 29.2573 89.9608 29.1958 89.5962 29.1958H87.9351V37.5425H85.8843V27.5894ZM91.4487 37.5425L89.1792 33.106L91.3462 33.0923L93.6431 37.4468V37.5425H91.4487ZM99.8999 29.2915L97.1929 37.5425H95.0122L98.7104 27.5894H100.098L99.8999 29.2915ZM102.149 37.5425L99.4351 29.2915L99.2163 27.5894H100.618L104.336 37.5425H102.149ZM102.026 33.8374V35.4438H96.769V33.8374H102.026ZM109.862 27.5894V37.5425H107.818V27.5894H109.862ZM112.924 27.5894V29.1958H104.803V27.5894H112.924ZM117.274 27.5894V37.5425H115.23V27.5894H117.274ZM128.371 32.3335V32.8052C128.371 33.5617 128.268 34.2407 128.063 34.8423C127.858 35.4438 127.569 35.9565 127.195 36.3804C126.821 36.7996 126.375 37.1209 125.855 37.3442C125.34 37.5675 124.768 37.6792 124.139 37.6792C123.515 37.6792 122.943 37.5675 122.423 37.3442C121.908 37.1209 121.462 36.7996 121.083 36.3804C120.705 35.9565 120.411 35.4438 120.202 34.8423C119.997 34.2407 119.894 33.5617 119.894 32.8052V32.3335C119.894 31.5724 119.997 30.8934 120.202 30.2964C120.407 29.6948 120.696 29.1821 121.07 28.7583C121.448 28.3345 121.895 28.0109 122.41 27.7876C122.929 27.5643 123.501 27.4526 124.125 27.4526C124.754 27.4526 125.326 27.5643 125.841 27.7876C126.361 28.0109 126.807 28.3345 127.181 28.7583C127.559 29.1821 127.851 29.6948 128.056 30.2964C128.266 30.8934 128.371 31.5724 128.371 32.3335ZM126.299 32.8052V32.3198C126.299 31.7912 126.251 31.3263 126.156 30.9253C126.06 30.5243 125.919 30.187 125.732 29.9136C125.545 29.6401 125.317 29.4351 125.048 29.2983C124.779 29.1571 124.472 29.0864 124.125 29.0864C123.779 29.0864 123.472 29.1571 123.203 29.2983C122.938 29.4351 122.713 29.6401 122.526 29.9136C122.344 30.187 122.205 30.5243 122.109 30.9253C122.013 31.3263 121.965 31.7912 121.965 32.3198V32.8052C121.965 33.3293 122.013 33.7941 122.109 34.1997C122.205 34.6007 122.346 34.9403 122.533 35.2183C122.72 35.4917 122.947 35.6991 123.216 35.8403C123.485 35.9816 123.793 36.0522 124.139 36.0522C124.486 36.0522 124.793 35.9816 125.062 35.8403C125.331 35.6991 125.556 35.4917 125.739 35.2183C125.921 34.9403 126.06 34.6007 126.156 34.1997C126.251 33.7941 126.299 33.3293 126.299 32.8052ZM138.948 27.5894V37.5425H136.897L132.898 30.8706V37.5425H130.847V27.5894H132.898L136.904 34.2681V27.5894H138.948ZM146.914 34.938C146.914 34.7603 146.886 34.6007 146.832 34.4595C146.781 34.3136 146.686 34.1815 146.544 34.063C146.403 33.9399 146.205 33.8192 145.95 33.7007C145.694 33.5822 145.364 33.4591 144.958 33.3315C144.507 33.1857 144.079 33.0216 143.673 32.8394C143.272 32.6571 142.917 32.4451 142.607 32.2036C142.302 31.9575 142.06 31.6727 141.882 31.3491C141.709 31.0256 141.623 30.6496 141.623 30.2212C141.623 29.8065 141.714 29.4305 141.896 29.0933C142.078 28.7515 142.333 28.4598 142.662 28.2183C142.99 27.9722 143.377 27.783 143.824 27.6509C144.275 27.5187 144.769 27.4526 145.307 27.4526C146.041 27.4526 146.681 27.5848 147.228 27.8491C147.775 28.1134 148.199 28.4757 148.5 28.936C148.805 29.3963 148.958 29.9227 148.958 30.5151H146.92C146.92 30.2235 146.859 29.9683 146.736 29.7495C146.617 29.5262 146.435 29.3507 146.189 29.2231C145.947 29.0955 145.642 29.0317 145.273 29.0317C144.917 29.0317 144.621 29.0864 144.384 29.1958C144.147 29.3006 143.97 29.4442 143.851 29.6265C143.733 29.8042 143.673 30.0047 143.673 30.228C143.673 30.3966 143.714 30.5493 143.796 30.686C143.883 30.8228 144.011 30.9504 144.179 31.0688C144.348 31.1873 144.555 31.299 144.801 31.4038C145.047 31.5086 145.332 31.6112 145.656 31.7114C146.198 31.8755 146.674 32.0601 147.084 32.2651C147.499 32.4702 147.846 32.7004 148.124 32.9556C148.402 33.2108 148.611 33.5002 148.752 33.8237C148.894 34.1473 148.964 34.5142 148.964 34.9243C148.964 35.3573 148.88 35.7446 148.711 36.0864C148.543 36.4282 148.299 36.7176 147.98 36.9546C147.661 37.1916 147.28 37.3716 146.838 37.4946C146.396 37.6177 145.902 37.6792 145.355 37.6792C144.863 37.6792 144.377 37.6154 143.899 37.4878C143.42 37.3556 142.985 37.1574 142.593 36.8931C142.206 36.6287 141.896 36.2915 141.664 35.8813C141.431 35.4712 141.315 34.9858 141.315 34.4253H143.373C143.373 34.7352 143.42 34.9972 143.516 35.2114C143.612 35.4256 143.746 35.5988 143.919 35.731C144.097 35.8631 144.307 35.9588 144.548 36.0181C144.794 36.0773 145.063 36.1069 145.355 36.1069C145.71 36.1069 146.002 36.0568 146.23 35.9565C146.462 35.8563 146.633 35.7173 146.743 35.5396C146.857 35.3618 146.914 35.1613 146.914 34.938Z" fill="#2563AC"/>
</g>
<path d="M164.951 11.1567C166.268 10.0282 168.901 6.4169 168.901 1M168.901 14.5423C171.158 12.6614 175.672 8.33539 175.672 6.07834M173.415 19.0563C176.236 17.1755 181.879 12.9623 181.879 11.1567" stroke="black" stroke-linecap="round"/>
<path d="M18.7361 49.2122C17.2291 50.0702 13.958 53.1156 12.9292 58.4339M15.5011 45.1382C12.928 46.5561 7.67444 49.9461 7.24578 52.162M11.9265 39.8489C8.79935 41.1597 2.45928 44.2246 2.11636 45.9973" stroke="black" stroke-linecap="round"/>
<defs>
<clipPath id="clip0_2811_10072">
<rect width="156.864" height="36.1127" fill="white" transform="translate(17.1147 14.5425)"/>
</clipPath>
</defs>
</svg>
