<svg width="269" height="130" viewBox="0 0 269 130" fill="none" xmlns="http://www.w3.org/2000/svg">
<g clip-path="url(#clip0_3242_1074)">
<path d="M250.869 51.9253L258.052 56.714C255.721 60.1479 250.145 66.0397 240.504 66.0397C228.532 66.0397 219.617 56.7772 219.617 44.9942C219.617 32.4556 228.627 23.9492 239.496 23.9492C250.428 23.9492 255.784 32.6443 257.517 37.3385L258.462 39.7331L230.297 51.3897C232.439 55.6115 235.779 57.7538 240.504 57.7538C245.23 57.7538 248.506 55.4224 250.869 51.9253ZM228.785 44.3332L247.593 36.5197C246.553 33.905 243.466 32.0465 239.779 32.0465C235.085 32.0465 228.564 36.2051 228.785 44.3332Z" fill="#FF302F"/>
<path d="M206.038 2.49465H215.111V64.118H206.038V2.49414V2.49465Z" fill="#20B15A"/>
<path d="M191.736 25.5874H200.494V63.015C200.494 78.5466 191.326 84.942 180.488 84.942C170.281 84.942 164.138 78.0742 161.838 72.498L169.871 69.1582C171.32 72.5921 174.818 76.6566 180.488 76.6566C187.451 76.6566 191.736 72.3402 191.736 64.2753V61.2511H191.421C189.341 63.7711 185.372 66.0393 180.331 66.0393C169.808 66.0393 160.167 56.8714 160.167 45.0575C160.167 33.1799 169.808 23.918 180.331 23.918C185.34 23.918 189.341 26.1548 191.421 28.6122H191.736V25.5879V25.5874ZM192.365 45.0575C192.365 37.6223 187.419 32.2034 181.118 32.2034C174.754 32.2034 169.399 37.6223 169.399 45.0575C169.399 52.3977 174.754 57.7221 181.118 57.7221C187.42 57.7539 192.366 52.3977 192.366 45.0575H192.365Z" fill="#3686F7"/>
<path d="M110.359 44.8996C110.359 57.0291 100.907 65.9446 89.3135 65.9446C77.7202 65.9446 68.2686 56.9977 68.2686 44.8996C68.2686 32.7074 77.7202 23.8232 89.3135 23.8232C100.907 23.8232 110.359 32.7074 110.359 44.8996ZM101.159 44.8996C101.159 37.3389 95.6772 32.14 89.3135 32.14C82.9499 32.14 77.4678 37.3389 77.4678 44.8996C77.4678 52.3976 82.9499 57.6592 89.3135 57.6592C95.6777 57.6592 101.159 52.3976 101.159 44.8996Z" fill="#FF302F"/>
<path d="M156.324 44.9942C156.324 57.1237 146.873 66.0392 135.279 66.0392C123.685 66.0392 114.234 57.1232 114.234 44.9942C114.234 32.802 123.685 23.9492 135.279 23.9492C146.873 23.9492 156.324 32.7707 156.324 44.9942ZM147.093 44.9942C147.093 37.4335 141.612 32.2346 135.248 32.2346C128.884 32.2346 123.402 37.4335 123.402 44.9942C123.402 52.4922 128.884 57.7538 135.248 57.7538C141.643 57.7538 147.093 52.4608 147.093 44.9942Z" fill="#FFBA40"/>
<path d="M33.6768 56.8082C20.4762 56.8082 10.1431 46.1595 10.1431 32.9589C10.1431 19.7588 20.4762 9.11012 33.6768 9.11012C40.797 9.11012 45.9949 11.9139 49.8385 15.5056L56.1713 9.17334C50.8156 4.03814 43.664 0.130859 33.6768 0.130859C15.5934 0.131365 0.376465 14.876 0.376465 32.9589C0.376465 51.0428 15.5934 65.7869 33.6768 65.7869C43.4435 65.7869 50.8156 62.5735 56.5809 56.5877C62.5035 50.6645 64.3307 42.3473 64.3307 35.6054C64.3307 33.4945 64.0789 31.3208 63.7952 29.7141H33.6768V38.4724H55.1315C54.5013 43.9545 52.7687 47.7035 50.2168 50.2549C47.1293 53.3743 42.2465 56.8082 33.6768 56.8082Z" fill="#3686F7"/>
</g>
<path d="M237.002 110.981V114.111H219.883L219.753 111.747L229.991 95.7047H233.138L229.73 101.541L223.845 110.981H237.002ZM234.034 95.7047V119.442H230.105V95.7047H234.034ZM240.018 117.486C240.018 116.877 240.224 116.366 240.637 115.953C241.05 115.53 241.61 115.318 242.316 115.318C243.034 115.318 243.594 115.53 243.996 115.953C244.409 116.366 244.615 116.877 244.615 117.486C244.615 118.095 244.409 118.605 243.996 119.018C243.594 119.432 243.034 119.638 242.316 119.638C241.61 119.638 241.05 119.432 240.637 119.018C240.224 118.605 240.018 118.095 240.018 117.486ZM264.391 105.585V109.465C264.391 111.323 264.206 112.91 263.837 114.225C263.478 115.53 262.957 116.589 262.272 117.404C261.587 118.22 260.766 118.817 259.81 119.198C258.864 119.578 257.805 119.768 256.631 119.768C255.696 119.768 254.827 119.649 254.022 119.41C253.229 119.171 252.512 118.796 251.87 118.285C251.229 117.774 250.68 117.116 250.224 116.312C249.778 115.497 249.43 114.524 249.18 113.394C248.941 112.263 248.822 110.954 248.822 109.465V105.585C248.822 103.715 249.006 102.139 249.376 100.857C249.745 99.5631 250.273 98.5143 250.957 97.71C251.642 96.8948 252.457 96.3025 253.403 95.9329C254.359 95.5634 255.424 95.3786 256.598 95.3786C257.544 95.3786 258.413 95.4982 259.207 95.7373C260.011 95.9655 260.728 96.3296 261.359 96.8296C262 97.3296 262.544 97.9817 262.989 98.786C263.446 99.5794 263.793 100.541 264.033 101.672C264.272 102.791 264.391 104.095 264.391 105.585ZM260.462 110.019V104.998C260.462 104.052 260.408 103.221 260.299 102.503C260.19 101.775 260.027 101.161 259.81 100.661C259.604 100.15 259.343 99.737 259.027 99.4218C258.712 99.0958 258.354 98.8621 257.951 98.7208C257.549 98.5686 257.098 98.4925 256.598 98.4925C255.99 98.4925 255.446 98.6121 254.968 98.8512C254.49 99.0795 254.088 99.449 253.761 99.9598C253.435 100.471 253.185 101.145 253.012 101.981C252.848 102.808 252.767 103.813 252.767 104.998V110.019C252.767 110.975 252.821 111.818 252.93 112.546C253.039 113.274 253.202 113.899 253.419 114.421C253.636 114.932 253.897 115.356 254.202 115.693C254.517 116.019 254.876 116.258 255.278 116.41C255.691 116.562 256.142 116.638 256.631 116.638C257.25 116.638 257.799 116.519 258.278 116.28C258.756 116.04 259.158 115.66 259.484 115.138C259.81 114.606 260.055 113.916 260.218 113.068C260.381 112.22 260.462 111.204 260.462 110.019Z" fill="black"/>
<g clip-path="url(#clip1_3242_1074)">
<path d="M7.46499 124.624C6.66725 125.02 5.76204 124.326 5.92325 123.441L7.63859 113.991L0.357682 107.286C-0.322255 106.658 0.0311469 105.512 0.942552 105.388L11.0651 103.997L15.5788 95.352C15.9859 94.5728 17.0874 94.5728 17.4946 95.352L22.0082 103.997L32.1308 105.388C33.0422 105.512 33.3956 106.658 32.7136 107.286L25.4348 113.991L27.1501 123.441C27.3113 124.326 26.4061 125.02 25.6084 124.624L16.5336 120.117L7.46499 124.624Z" fill="#FFC700"/>
</g>
<g clip-path="url(#clip2_3242_1074)">
<path d="M116.221 124.624C115.423 125.02 114.518 124.326 114.679 123.441L116.394 113.991L109.114 107.286C108.434 106.658 108.787 105.512 109.698 105.388L119.821 103.997L124.335 95.352C124.742 94.5728 125.843 94.5728 126.25 95.352L130.764 103.997L140.887 105.388C141.798 105.512 142.151 106.658 141.469 107.286L134.191 113.991L135.906 123.441C136.067 124.326 135.162 125.02 134.364 124.624L125.289 120.117L116.221 124.624Z" fill="#FFC700"/>
</g>
<g clip-path="url(#clip3_3242_1074)">
<path d="M61.8429 124.624C61.0452 125.02 60.14 124.326 60.3012 123.441L62.0165 113.991L54.7356 107.286C54.0557 106.658 54.4091 105.512 55.3205 105.388L65.4431 103.997L69.9567 95.352C70.3638 94.5728 71.4654 94.5728 71.8725 95.352L76.3861 103.997L86.5087 105.388C87.4201 105.512 87.7735 106.658 87.0915 107.286L79.8127 113.991L81.528 123.441C81.6892 124.326 80.784 125.02 79.9863 124.624L70.9115 120.117L61.8429 124.624Z" fill="#FFC700"/>
</g>
<g clip-path="url(#clip4_3242_1074)">
<path d="M170.599 124.624C169.802 125.02 168.896 124.326 169.058 123.441L170.773 113.991L163.492 107.286C162.812 106.658 163.165 105.512 164.077 105.388L174.199 103.997L178.713 95.352C179.12 94.5728 180.222 94.5728 180.629 95.352L185.142 103.997L195.265 105.388C196.176 105.512 196.53 106.658 195.848 107.286L188.569 113.991L190.284 123.441C190.446 124.326 189.54 125.02 188.743 124.624L179.668 120.117L170.599 124.624Z" fill="#FFC700"/>
</g>
<defs>
<clipPath id="clip0_3242_1074">
<rect width="258.934" height="84.9629" fill="white"/>
</clipPath>
<clipPath id="clip1_3242_1074">
<rect width="33.0668" height="31.9672" fill="white" transform="translate(0 93.7705)"/>
</clipPath>
<clipPath id="clip2_3242_1074">
<rect width="33.0668" height="31.9672" fill="white" transform="translate(108.756 93.7705)"/>
</clipPath>
<clipPath id="clip3_3242_1074">
<rect width="33.0668" height="31.9672" fill="white" transform="translate(54.3779 93.7705)"/>
</clipPath>
<clipPath id="clip4_3242_1074">
<rect width="33.0668" height="31.9672" fill="white" transform="translate(163.134 93.7705)"/>
</clipPath>
</defs>
</svg>
