<svg width="95" height="29" viewBox="0 0 95 29" fill="none" xmlns="http://www.w3.org/2000/svg">
<rect x="11" y="7" width="75.6731" height="18.8818" rx="9.37566" fill="#DCECFF"/>
<path d="M24.3116 16.9476V17.224C24.3116 17.6673 24.2515 18.0652 24.1313 18.4177C24.0111 18.7702 23.8416 19.0707 23.6226 19.319C23.4036 19.5647 23.1419 19.753 22.8375 19.8838C22.5357 20.0147 22.2006 20.0801 21.832 20.0801C21.4662 20.0801 21.131 20.0147 20.8266 19.8838C20.5248 19.753 20.2631 19.5647 20.0415 19.319C19.8198 19.0707 19.6476 18.7702 19.5247 18.4177C19.4046 18.0652 19.3445 17.6673 19.3445 17.224V16.9476C19.3445 16.5017 19.4046 16.1038 19.5247 15.7539C19.6449 15.4014 19.8145 15.101 20.0335 14.8527C20.2551 14.6043 20.5168 14.4147 20.8186 14.2838C21.123 14.153 21.4582 14.0876 21.824 14.0876C22.1926 14.0876 22.5277 14.153 22.8295 14.2838C23.1339 14.4147 23.3956 14.6043 23.6146 14.8527C23.8362 15.101 24.0071 15.4014 24.1273 15.7539C24.2502 16.1038 24.3116 16.5017 24.3116 16.9476ZM23.0978 17.224V16.9396C23.0978 16.6299 23.0698 16.3575 23.0137 16.1225C22.9576 15.8875 22.8749 15.6899 22.7654 15.5296C22.6559 15.3694 22.5224 15.2492 22.3648 15.1691C22.2072 15.0863 22.027 15.0449 21.824 15.0449C21.6211 15.0449 21.4408 15.0863 21.2833 15.1691C21.1284 15.2492 20.9962 15.3694 20.8867 15.5296C20.7799 15.6899 20.6984 15.8875 20.6423 16.1225C20.5863 16.3575 20.5582 16.6299 20.5582 16.9396V17.224C20.5582 17.5311 20.5863 17.8035 20.6423 18.0412C20.6984 18.2762 20.7812 18.4752 20.8907 18.6381C21.0002 18.7983 21.1337 18.9198 21.2913 19.0026C21.4488 19.0854 21.6291 19.1268 21.832 19.1268C22.035 19.1268 22.2153 19.0854 22.3728 19.0026C22.5304 18.9198 22.6626 18.7983 22.7694 18.6381C22.8762 18.4752 22.9576 18.2762 23.0137 18.0412C23.0698 17.8035 23.0978 17.5311 23.0978 17.224ZM28.9834 14.1677H30.1811V18.0212C30.1811 18.4698 30.0849 18.8477 29.8927 19.1548C29.7031 19.4619 29.44 19.6929 29.1036 19.8478C28.7697 20.0027 28.3852 20.0801 27.9499 20.0801C27.5146 20.0801 27.1274 20.0027 26.7882 19.8478C26.4518 19.6929 26.1874 19.4619 25.9951 19.1548C25.8055 18.8477 25.7107 18.4698 25.7107 18.0212V14.1677H26.9124V18.0212C26.9124 18.2829 26.9538 18.4965 27.0366 18.6621C27.1194 18.8277 27.2382 18.9492 27.3931 19.0266C27.5507 19.1041 27.7363 19.1428 27.9499 19.1428C28.1689 19.1428 28.3545 19.1041 28.5067 19.0266C28.6616 18.9492 28.7791 18.8277 28.8592 18.6621C28.942 18.4965 28.9834 18.2829 28.9834 18.0212V14.1677ZM31.7565 14.1677H33.9316C34.3775 14.1677 34.7608 14.2344 35.0812 14.368C35.4043 14.5015 35.6527 14.6991 35.8263 14.9608C35.9999 15.2225 36.0867 15.5443 36.0867 15.9262C36.0867 16.2386 36.0332 16.507 35.9264 16.7313C35.8223 16.953 35.6741 17.1386 35.4818 17.2881C35.2922 17.435 35.0692 17.5525 34.8128 17.6406L34.4323 17.8409H32.5416L32.5336 16.9036H33.9396C34.1506 16.9036 34.3255 16.8662 34.4643 16.7914C34.6032 16.7167 34.7074 16.6125 34.7768 16.479C34.8489 16.3455 34.8849 16.1906 34.8849 16.0143C34.8849 15.8274 34.8502 15.6658 34.7808 15.5296C34.7114 15.3934 34.6059 15.2893 34.4643 15.2172C34.3228 15.1451 34.1452 15.109 33.9316 15.109H32.9582V20H31.7565V14.1677ZM35.0171 20L33.6872 17.4003L34.957 17.3923L36.303 19.9439V20H35.0171ZM40.7756 14.1677H41.7931L43.2912 18.4498L44.7893 14.1677H45.8068L43.6998 20H42.8826L40.7756 14.1677ZM40.2268 14.1677H41.2403L41.4245 18.3416V20H40.2268V14.1677ZM45.3421 14.1677H46.3596V20H45.1579V18.3416L45.3421 14.1677ZM49.2769 14.1677V20H48.0792V14.1677H49.2769ZM54.0248 18.4738C54.0248 18.3697 54.0088 18.2762 53.9767 18.1934C53.9474 18.108 53.8913 18.0305 53.8085 17.9611C53.7257 17.889 53.6095 17.8182 53.46 17.7488C53.3104 17.6794 53.1168 17.6073 52.8792 17.5325C52.6148 17.447 52.3638 17.3509 52.1261 17.2441C51.8911 17.1373 51.6828 17.0131 51.5012 16.8715C51.3223 16.7273 51.1807 16.5604 51.0766 16.3708C50.9751 16.1812 50.9244 15.9609 50.9244 15.7099C50.9244 15.4669 50.9778 15.2466 51.0846 15.0489C51.1914 14.8487 51.341 14.6777 51.5332 14.5362C51.7255 14.392 51.9525 14.2812 52.2142 14.2037C52.4786 14.1263 52.7683 14.0876 53.0835 14.0876C53.5134 14.0876 53.8886 14.165 54.2091 14.3199C54.5295 14.4748 54.7779 14.6871 54.9541 14.9568C55.133 15.2265 55.2225 15.535 55.2225 15.8821H54.0288C54.0288 15.7112 53.9928 15.5617 53.9207 15.4335C53.8512 15.3026 53.7444 15.1998 53.6002 15.125C53.4587 15.0503 53.2797 15.0129 53.0634 15.0129C52.8551 15.0129 52.6816 15.0449 52.5427 15.109C52.4038 15.1704 52.2997 15.2546 52.2302 15.3614C52.1608 15.4655 52.1261 15.583 52.1261 15.7139C52.1261 15.8127 52.1501 15.9022 52.1982 15.9823C52.2489 16.0624 52.3237 16.1372 52.4225 16.2066C52.5213 16.276 52.6428 16.3414 52.787 16.4029C52.9312 16.4643 53.0981 16.5244 53.2878 16.5831C53.6055 16.6793 53.8846 16.7874 54.1249 16.9076C54.368 17.0278 54.5709 17.1626 54.7338 17.3122C54.8967 17.4617 55.0196 17.6313 55.1023 17.8209C55.1851 18.0105 55.2265 18.2255 55.2265 18.4658C55.2265 18.7195 55.1771 18.9465 55.0783 19.1468C54.9795 19.3471 54.8366 19.5166 54.6497 19.6555C54.4628 19.7944 54.2398 19.8999 53.9807 19.972C53.7217 20.0441 53.432 20.0801 53.1115 20.0801C52.8231 20.0801 52.5387 20.0427 52.2583 19.968C51.9779 19.8905 51.7229 19.7743 51.4932 19.6195C51.2662 19.4646 51.0846 19.267 50.9484 19.0266C50.8122 18.7863 50.7441 18.5019 50.7441 18.1734H51.9498C51.9498 18.355 51.9779 18.5085 52.034 18.6341C52.09 18.7596 52.1688 18.861 52.2703 18.9385C52.3744 19.0159 52.4973 19.072 52.6388 19.1067C52.783 19.1414 52.9406 19.1588 53.1115 19.1588C53.3198 19.1588 53.4907 19.1294 53.6242 19.0707C53.7604 19.0119 53.8606 18.9305 53.9247 18.8263C53.9914 18.7222 54.0248 18.6047 54.0248 18.4738ZM59.666 18.4738C59.666 18.3697 59.65 18.2762 59.6179 18.1934C59.5885 18.108 59.5325 18.0305 59.4497 17.9611C59.3669 17.889 59.2507 17.8182 59.1012 17.7488C58.9516 17.6794 58.758 17.6073 58.5204 17.5325C58.256 17.447 58.005 17.3509 57.7673 17.2441C57.5323 17.1373 57.324 17.0131 57.1424 16.8715C56.9635 16.7273 56.8219 16.5604 56.7178 16.3708C56.6163 16.1812 56.5656 15.9609 56.5656 15.7099C56.5656 15.4669 56.619 15.2466 56.7258 15.0489C56.8326 14.8487 56.9822 14.6777 57.1744 14.5362C57.3667 14.392 57.5937 14.2812 57.8554 14.2037C58.1198 14.1263 58.4095 14.0876 58.7246 14.0876C59.1546 14.0876 59.5298 14.165 59.8503 14.3199C60.1707 14.4748 60.4191 14.6871 60.5953 14.9568C60.7742 15.2265 60.8637 15.535 60.8637 15.8821H59.67C59.67 15.7112 59.6339 15.5617 59.5618 15.4335C59.4924 15.3026 59.3856 15.1998 59.2414 15.125C59.0998 15.0503 58.9209 15.0129 58.7046 15.0129C58.4963 15.0129 58.3227 15.0449 58.1839 15.109C58.045 15.1704 57.9409 15.2546 57.8714 15.3614C57.802 15.4655 57.7673 15.583 57.7673 15.7139C57.7673 15.8127 57.7913 15.9022 57.8394 15.9823C57.8901 16.0624 57.9649 16.1372 58.0637 16.2066C58.1625 16.276 58.284 16.3414 58.4282 16.4029C58.5724 16.4643 58.7393 16.5244 58.9289 16.5831C59.2467 16.6793 59.5258 16.7874 59.7661 16.9076C60.0091 17.0278 60.2121 17.1626 60.375 17.3122C60.5379 17.4617 60.6607 17.6313 60.7435 17.8209C60.8263 18.0105 60.8677 18.2255 60.8677 18.4658C60.8677 18.7195 60.8183 18.9465 60.7195 19.1468C60.6207 19.3471 60.4778 19.5166 60.2909 19.6555C60.1039 19.7944 59.881 19.8999 59.6219 19.972C59.3629 20.0441 59.0731 20.0801 58.7527 20.0801C58.4643 20.0801 58.1799 20.0427 57.8995 19.968C57.6191 19.8905 57.364 19.7743 57.1344 19.6195C56.9074 19.4646 56.7258 19.267 56.5896 19.0266C56.4534 18.7863 56.3853 18.5019 56.3853 18.1734H57.591C57.591 18.355 57.6191 18.5085 57.6752 18.6341C57.7312 18.7596 57.81 18.861 57.9115 18.9385C58.0156 19.0159 58.1385 19.072 58.28 19.1067C58.4242 19.1414 58.5818 19.1588 58.7527 19.1588C58.961 19.1588 59.1319 19.1294 59.2654 19.0707C59.4016 19.0119 59.5018 18.9305 59.5658 18.8263C59.6326 18.7222 59.666 18.6047 59.666 18.4738ZM63.5487 14.1677V20H62.351V14.1677H63.5487ZM70.0511 16.9476V17.224C70.0511 17.6673 69.991 18.0652 69.8708 18.4177C69.7507 18.7702 69.5811 19.0707 69.3621 19.319C69.1431 19.5647 68.8814 19.753 68.577 19.8838C68.2752 20.0147 67.9401 20.0801 67.5715 20.0801C67.2057 20.0801 66.8705 20.0147 66.5661 19.8838C66.2644 19.753 66.0026 19.5647 65.781 19.319C65.5593 19.0707 65.3871 18.7702 65.2643 18.4177C65.1441 18.0652 65.084 17.6673 65.084 17.224V16.9476C65.084 16.5017 65.1441 16.1038 65.2643 15.7539C65.3844 15.4014 65.554 15.101 65.773 14.8527C65.9946 14.6043 66.2563 14.4147 66.5581 14.2838C66.8625 14.153 67.1977 14.0876 67.5635 14.0876C67.9321 14.0876 68.2672 14.153 68.569 14.2838C68.8734 14.4147 69.1351 14.6043 69.3541 14.8527C69.5757 15.101 69.7466 15.4014 69.8668 15.7539C69.9897 16.1038 70.0511 16.5017 70.0511 16.9476ZM68.8374 17.224V16.9396C68.8374 16.6299 68.8093 16.3575 68.7532 16.1225C68.6972 15.8875 68.6144 15.6899 68.5049 15.5296C68.3954 15.3694 68.2619 15.2492 68.1043 15.1691C67.9467 15.0863 67.7665 15.0449 67.5635 15.0449C67.3606 15.0449 67.1803 15.0863 67.0228 15.1691C66.8679 15.2492 66.7357 15.3694 66.6262 15.5296C66.5194 15.6899 66.4379 15.8875 66.3819 16.1225C66.3258 16.3575 66.2977 16.6299 66.2977 16.9396V17.224C66.2977 17.5311 66.3258 17.8035 66.3819 18.0412C66.4379 18.2762 66.5207 18.4752 66.6302 18.6381C66.7397 18.7983 66.8732 18.9198 67.0308 19.0026C67.1883 19.0854 67.3686 19.1268 67.5715 19.1268C67.7745 19.1268 67.9548 19.0854 68.1123 19.0026C68.2699 18.9198 68.4021 18.7983 68.5089 18.6381C68.6157 18.4752 68.6972 18.2762 68.7532 18.0412C68.8093 17.8035 68.8374 17.5311 68.8374 17.224ZM76.2491 14.1677V20H75.0473L72.704 16.0904V20H71.5023V14.1677H72.704L75.0514 18.0813V14.1677H76.2491Z" fill="#2563AC"/>
<path d="M85.1318 6.3105C85.8216 5.72044 87.201 3.83227 87.201 1M87.201 8.08067C88.3834 7.09724 90.7482 4.83536 90.7482 3.65525M89.5658 10.4409C91.0438 9.45746 93.9998 7.25459 93.9998 6.3105" stroke="black" stroke-width="0.585979" stroke-linecap="round"/>
<path d="M10.2158 24.0762C9.35484 24.3654 7.36715 25.6003 6.30413 28.2264M8.96168 21.6613C7.49627 22.131 4.45474 23.3441 4.01182 24.4383M7.65493 18.5888C5.91545 18.948 2.34791 19.8853 1.99357 20.7607" stroke="black" stroke-width="0.585979" stroke-linecap="round"/>
</svg>
