<svg width="54" height="54" viewBox="0 0 54 54" fill="none" xmlns="http://www.w3.org/2000/svg">
<g clip-path="url(#clip0_1960_632)">
<rect x="0.664062" y="22.2222" width="31.1111" height="31.1111" fill="#F38313"/>
<path d="M40.6649 35.5555H36.2205V33.3333H18.4427V35.5555H13.9983V33.3333H5.10938V44.4444H49.5538V33.3333H40.6649V35.5555ZM45.1094 17.7777H38.4427V13.3333C38.4427 10.8889 36.4427 8.88885 33.9983 8.88885H20.6649C18.2205 8.88885 16.2205 10.8889 16.2205 13.3333V17.7777H9.55382C7.10938 17.7777 5.10938 19.7777 5.10938 22.2222V31.1111H13.9983V26.6666H18.4427V31.1111H36.2205V26.6666H40.6649V31.1111H49.5538V22.2222C49.5538 19.7777 47.5538 17.7777 45.1094 17.7777ZM33.9983 17.7777H20.6649V13.3333H33.9983V17.7777Z" fill="white"/>
</g>
<defs>
<clipPath id="clip0_1960_632">
<rect width="53.3333" height="53.3333" fill="white" transform="translate(0.664062 -3.05176e-05)"/>
</clipPath>
</defs>
</svg>
