<svg width="54" height="54" viewBox="0 0 54 54" fill="none" xmlns="http://www.w3.org/2000/svg">
<g clip-path="url(#clip0_1960_2215)">
<rect x="0.335938" y="22.2222" width="31.1111" height="31.1111" fill="#F38313"/>
<path d="M46.9991 31.1111C46.9991 29.8888 45.9991 28.8888 44.7769 28.8888H40.3325V33.3333H44.7769C45.9991 33.3333 46.9991 32.3333 46.9991 31.1111ZM44.7769 37.7777H40.3325V42.2222H44.7769C45.9991 42.2222 46.9991 41.2222 46.9991 40C46.9991 38.7777 45.9991 37.7777 44.7769 37.7777ZM26.9991 31.1111H22.5547V40H26.9991C26.9991 42.4444 28.9991 44.4444 31.4436 44.4444H38.1102V26.6666H31.4436C28.9991 26.6666 26.9991 28.6666 26.9991 31.1111Z" fill="white"/>
<path d="M11.4444 28.8889C11.4444 26.4444 13.4444 24.4444 15.8889 24.4444H19.2222C23.5111 24.4444 27 20.9555 27 16.6666C27 12.3777 23.5111 8.88885 19.2222 8.88885H11.4444C10.2222 8.88885 9.22222 9.88886 9.22222 11.1111C9.22222 12.3333 10.2222 13.3333 11.4444 13.3333H19.2222C21.0667 13.3333 22.5556 14.8222 22.5556 16.6666C22.5556 18.5111 21.0667 20 19.2222 20H15.8889C10.9778 20 7 23.9777 7 28.8889C7 33.8 10.9778 37.7777 15.8889 37.7777H20.3333V33.3333H15.8889C13.4444 33.3333 11.4444 31.3333 11.4444 28.8889Z" fill="white"/>
</g>
<defs>
<clipPath id="clip0_1960_2215">
<rect width="53.3333" height="53.3333" fill="white" transform="translate(0.335938 -3.05176e-05)"/>
</clipPath>
</defs>
</svg>
