<svg width="54" height="54" viewBox="0 0 54 54" fill="none" xmlns="http://www.w3.org/2000/svg">
<g clip-path="url(#clip0_1960_164)">
<rect y="22.8889" width="31.1111" height="31.1111" fill="#F38313"/>
<path d="M42.2004 5.11102H20.0204C17.5516 5.11102 15.5538 7.1088 15.5538 9.57769V22.1044L5.10489 32.4199C4.79181 32.7296 4.57778 33.1252 4.48996 33.5567C4.40214 33.9882 4.44449 34.436 4.61163 34.8434C4.77877 35.2508 5.06317 35.5993 5.42874 35.8448C5.7943 36.0903 6.22455 36.2216 6.66489 36.2221V47.3332C6.66489 47.9226 6.89901 48.4878 7.31576 48.9046C7.73251 49.3213 8.29774 49.5555 8.88711 49.5555H44.4427C45.032 49.5555 45.5973 49.3213 46.014 48.9046C46.4308 48.4878 46.6649 47.9226 46.6649 47.3332V9.57547C46.6649 7.1088 44.6693 5.11102 42.2004 5.11102ZM24.2693 34.2466V45.111H11.1093V32.7377L17.7471 26.1844L24.2693 32.8577V34.2466V34.2466ZM28.8871 20.6666H24.4427V16.2221H28.8871V20.6666ZM37.776 38.4444H33.3316V33.9999H37.776V38.4444ZM37.776 29.5555H33.3316V25.111H37.776V29.5555ZM37.776 20.6666H33.3316V16.2221H37.776V20.6666Z" fill="#2563AC"/>
<path d="M15.5547 33.9999H19.9991V38.4444H15.5547V33.9999Z" fill="#F38313"/>
</g>
<defs>
<clipPath id="clip0_1960_164">
<rect width="53.3333" height="53.3333" fill="white" transform="translate(0 0.666626)"/>
</clipPath>
</defs>
</svg>
