<svg width="54" height="54" viewBox="0 0 54 54" fill="none" xmlns="http://www.w3.org/2000/svg">
<g clip-path="url(#clip0_1960_155)">
<rect x="0.335938" y="22.8889" width="31.1111" height="31.1111" fill="#F38313"/>
<path d="M43.6667 7.33325C42.1936 7.33443 40.7812 7.92012 39.7396 8.96173C38.698 10.0033 38.1123 11.4157 38.1111 12.8888C38.1111 13.6821 38.2844 14.4355 38.5867 15.1221L34.2422 20.0088C32.7664 18.9901 31.0155 18.4445 29.2222 18.4444C27.5778 18.4444 26.0578 18.9244 24.7356 19.7021L19.6822 14.651L19.6311 14.7021C20.0667 13.8177 20.3333 12.8332 20.3333 11.7777C20.3333 10.4592 19.9423 9.17022 19.2098 8.07389C18.4773 6.97756 17.4361 6.12308 16.2179 5.6185C14.9997 5.11391 13.6593 4.98189 12.3661 5.23912C11.0729 5.49636 9.88497 6.1313 8.95262 7.06365C8.02027 7.996 7.38534 9.18388 7.1281 10.4771C6.87087 11.7703 7.00289 13.1107 7.50747 14.3289C8.01206 15.5471 8.86654 16.5883 9.96287 17.3208C11.0592 18.0534 12.3481 18.4444 13.6667 18.4444C14.7222 18.4444 15.7044 18.1777 16.5911 17.7421L16.54 17.7932L21.5933 22.8444C20.777 24.2 20.3417 25.7508 20.3333 27.3332C20.3333 29.5488 21.1778 31.5532 22.5222 33.1132L16.7956 38.8377C16.1537 38.5808 15.4691 38.4473 14.7778 38.4444C11.7156 38.4444 9.22223 40.9355 9.22223 43.9999C9.22223 47.0644 11.7156 49.5555 14.7778 49.5555C17.84 49.5555 20.3333 47.0644 20.3333 43.9999C20.3333 43.2866 20.1867 42.6088 19.94 41.9799L26.2467 35.6732C27.1822 36.0066 28.1733 36.2221 29.2222 36.2221C34.1244 36.2221 38.1111 32.2355 38.1111 27.3332C38.1111 25.9199 37.7489 24.6021 37.16 23.4132L41.8644 18.1177C42.4333 18.3132 43.0333 18.4444 43.6667 18.4444C46.7311 18.4444 49.2222 15.9532 49.2222 12.8888C49.2222 9.82436 46.7311 7.33325 43.6667 7.33325ZM29.2222 31.7777C26.7711 31.7777 24.7778 29.7844 24.7778 27.3332C24.7778 24.8821 26.7711 22.8888 29.2222 22.8888C31.6733 22.8888 33.6667 24.8821 33.6667 27.3332C33.6667 29.7844 31.6733 31.7777 29.2222 31.7777Z" fill="white"/>
</g>
<defs>
<clipPath id="clip0_1960_155">
<rect width="53.3333" height="53.3333" fill="white" transform="translate(0.335938 0.666626)"/>
</clipPath>
</defs>
</svg>
