<svg width="54" height="54" viewBox="0 0 54 54" fill="none" xmlns="http://www.w3.org/2000/svg">
<g clip-path="url(#clip0_1960_2167)">
<rect y="22.8889" width="31.1111" height="31.1111" fill="#F38313"/>
<path d="M24.4434 13.9999H31.1101L38.4212 6.66661C38.6278 6.45832 38.8736 6.293 39.1444 6.18018C39.4152 6.06736 39.7056 6.00928 39.999 6.00928C40.2923 6.00928 40.5828 6.06736 40.8536 6.18018C41.1244 6.293 41.3702 6.45832 41.5768 6.66661L47.3101 12.4222C47.724 12.8385 47.9563 13.4017 47.9563 13.9888C47.9563 14.5759 47.724 15.1391 47.3101 15.5555L42.2212 20.6666H24.4434V25.1111C24.4434 25.7004 24.2093 26.2657 23.7926 26.6824C23.3758 27.0991 22.8106 27.3333 22.2212 27.3333C21.6318 27.3333 21.0666 27.0991 20.6499 26.6824C20.2331 26.2657 19.999 25.7004 19.999 25.1111V18.4444C19.999 17.2656 20.4672 16.1352 21.3007 15.3017C22.1342 14.4682 23.2647 13.9999 24.4434 13.9999ZM11.1101 25.1111V33.9999L6.02121 39.0888C5.60732 39.5052 5.375 40.0684 5.375 40.6555C5.375 41.2426 5.60732 41.8058 6.02121 42.2222L11.7545 47.9777C11.9611 48.186 12.2069 48.3513 12.4777 48.4641C12.7485 48.577 13.039 48.635 13.3323 48.635C13.6257 48.635 13.9161 48.577 14.1869 48.4641C14.4577 48.3513 14.7035 48.186 14.9101 47.9777L24.4434 38.4444H33.3323C33.9217 38.4444 34.4869 38.2103 34.9037 37.7935C35.3204 37.3768 35.5545 36.8115 35.5545 36.2222V33.9999H37.7768C38.3661 33.9999 38.9314 33.7658 39.3481 33.3491C39.7649 32.9323 39.999 32.3671 39.999 31.7777V29.5555H42.2212C42.8106 29.5555 43.3758 29.3214 43.7926 28.9046C44.2093 28.4879 44.4434 27.9226 44.4434 27.3333V25.1111H28.8879V27.3333C28.8879 28.512 28.4196 29.6425 27.5861 30.476C26.7526 31.3095 25.6222 31.7777 24.4434 31.7777H19.999C18.8202 31.7777 17.6898 31.3095 16.8563 30.476C16.0228 29.6425 15.5545 28.512 15.5545 27.3333V20.6666L11.1101 25.1111Z" fill="#2563AC"/>
</g>
<defs>
<clipPath id="clip0_1960_2167">
<rect width="53.3333" height="53.3333" fill="white" transform="translate(0 0.666626)"/>
</clipPath>
</defs>
</svg>
