<svg width="66" height="66" viewBox="0 0 66 66" fill="none" xmlns="http://www.w3.org/2000/svg">
<rect width="66" height="66" rx="33" fill="#FEECEE"/>
<path d="M44.5182 25.6293C40.3304 25.2143 36.1176 25.0005 31.9173 25.0005C29.4273 25.0005 26.9373 25.1262 24.4473 25.3778L21.8818 25.6293" stroke="#EC0108" stroke-width="1.50909" stroke-linecap="round" stroke-linejoin="round"/>
<path d="M28.7986 24.359L29.0753 22.7116C29.2765 21.5169 29.4274 20.624 31.5527 20.624H34.8475C36.9728 20.624 37.1363 21.5672 37.3249 22.7242L37.6016 24.359" stroke="#EC0108" stroke-width="1.50909" stroke-linecap="round" stroke-linejoin="round"/>
<path d="M41.8145 29.603L40.997 42.2668C40.8587 44.2412 40.7455 45.7754 37.2369 45.7754H29.1633C25.6546 45.7754 25.5414 44.2412 25.4031 42.2668L24.5857 29.603" stroke="#EC0108" stroke-width="1.50909" stroke-linecap="round" stroke-linejoin="round"/>
<path d="M31.0999 38.8589H35.2876" stroke="#EC0108" stroke-width="1.50909" stroke-linecap="round" stroke-linejoin="round"/>
<path d="M30.0559 33.8286H36.3438" stroke="#EC0108" stroke-width="1.50909" stroke-linecap="round" stroke-linejoin="round"/>
</svg>
