<svg width="85" height="80" viewBox="0 0 85 80" fill="none" xmlns="http://www.w3.org/2000/svg">
<rect x="0.975098" width="83.3985" height="80" rx="13.2027" fill="#2563AC"/>
<path d="M32.7439 30.0763C32.7439 28.1461 34.0184 26.4574 35.8922 25.8363C35.9916 24.5942 36.5377 23.441 37.4549 22.5532C38.4728 21.568 39.8276 21.0254 41.2697 21.0254C42.6973 21.0254 44.0431 21.5585 45.0589 22.5264C45.9397 23.3657 46.4852 24.4483 46.6267 25.6189H48.1895C50.736 25.6189 52.8076 27.6185 52.8076 30.0762C52.8076 32.5341 50.736 34.5336 48.1895 34.5336C47.8762 34.5336 47.6222 34.2885 47.6222 33.9861C47.6222 33.6837 47.8762 33.4385 48.1895 33.4385C50.1103 33.4385 51.673 31.9302 51.673 30.0762C51.673 28.2222 50.1103 26.714 48.1895 26.714H46.0958C45.7856 26.714 45.5329 26.4735 45.5286 26.174C45.4966 23.9389 43.5862 22.1205 41.2697 22.1205C40.1313 22.1205 39.0618 22.5488 38.2583 23.3265C37.4534 24.1055 37.0102 25.1438 37.0103 26.2502C37.0103 26.5026 36.8318 26.7221 36.578 26.7821C34.9886 27.1578 33.8785 28.5124 33.8785 30.0763C33.8785 31.9303 35.4412 33.4386 37.362 33.4386C37.6753 33.4386 37.9293 33.6838 37.9293 33.9862C37.9293 34.2886 37.6753 34.5337 37.362 34.5337C34.8156 34.5337 32.7439 32.5342 32.7439 30.0763ZM43.3431 30.0055V38.9551C44.0745 39.186 44.6046 39.8506 44.6046 40.6329C44.6046 41.6062 43.7842 42.398 42.7759 42.398C41.7675 42.398 40.947 41.6062 40.947 40.6329C40.947 39.8507 41.4771 39.1861 42.2085 38.9551V30.0055C42.2085 29.7031 42.4625 29.458 42.7758 29.458C43.0891 29.458 43.3431 29.703 43.3431 30.0055ZM43.47 40.6329C43.47 40.2634 43.1586 39.9629 42.7759 39.9629C42.3929 39.9629 42.0816 40.2635 42.0816 40.6329C42.0816 41.0023 42.393 41.3029 42.7759 41.3029C43.1587 41.3029 43.47 41.0024 43.47 40.6329ZM46.4063 30.0055V36.577H47.8173C48.0566 35.871 48.7452 35.3594 49.5556 35.3594C50.564 35.3594 51.3844 36.1512 51.3844 37.1245C51.3844 38.0978 50.564 38.8897 49.5556 38.8897C48.7452 38.8897 48.0566 38.3781 47.8173 37.6721H45.839C45.5257 37.6721 45.2717 37.4269 45.2717 37.1245V30.0055C45.2717 29.7031 45.5257 29.458 45.839 29.458C46.1523 29.458 46.4063 29.703 46.4063 30.0055ZM48.8613 37.1245C48.8613 37.494 49.1728 37.7945 49.5555 37.7945C49.9383 37.7945 50.2497 37.4939 50.2497 37.1245C50.2497 36.755 49.9383 36.4544 49.5555 36.4544C49.1728 36.4544 48.8613 36.755 48.8613 37.1245ZM39.7125 29.458C40.0258 29.458 40.2798 29.7031 40.2798 30.0055V37.1245C40.2798 37.4269 40.0258 37.6721 39.7125 37.6721H37.7342C37.4949 38.3781 36.8063 38.8897 35.9959 38.8897C34.9875 38.8897 34.1672 38.0978 34.1672 37.1245C34.1672 36.1512 34.9875 35.3594 35.9959 35.3594C36.8063 35.3594 37.4949 35.871 37.7342 36.577H39.1452V30.0055C39.1452 29.703 39.3992 29.458 39.7125 29.458ZM36.6902 37.1245C36.6902 36.7549 36.3788 36.4544 35.996 36.4544C35.6133 36.4544 35.3018 36.755 35.3018 37.1245C35.3018 37.4939 35.6133 37.7945 35.996 37.7945C36.3788 37.7945 36.6902 37.494 36.6902 37.1245ZM29.7033 53.0274C26.3368 52.3475 23.8934 49.4405 23.8934 46.1151C23.8934 43.1616 25.7676 40.5722 28.5535 39.5315L28.1254 40.5584C28.0086 40.8389 28.1494 41.1578 28.44 41.2707C28.7307 41.3837 29.0611 41.2477 29.178 40.9671L30.0458 38.8852C30.1626 38.6047 30.0219 38.2858 29.7312 38.1729L27.5744 37.3353C27.2839 37.2225 26.9534 37.3584 26.8364 37.639C26.7196 37.9195 26.8603 38.2384 27.151 38.3513L27.8541 38.6243C24.7954 39.8937 22.7588 42.8067 22.7588 46.1151C22.7588 47.9994 23.4402 49.8374 24.6775 51.2907C25.8978 52.7239 27.6001 53.7214 29.471 54.0992C29.5101 54.1072 29.5492 54.1109 29.5877 54.1109C29.8506 54.1109 30.0864 53.9335 30.1424 53.6754C30.2066 53.3794 30.01 53.0893 29.7033 53.0274ZM62.7928 45.2915C62.7928 43.4072 62.1114 41.5692 60.874 40.1159C59.6537 38.6827 57.9515 37.6852 56.0806 37.3074C55.7734 37.2449 55.4733 37.4353 55.4092 37.7312C55.345 38.0272 55.5416 38.3173 55.8482 38.3793C59.2147 39.0591 61.6582 41.9661 61.6582 45.2915C61.6582 48.245 59.784 50.8344 56.998 51.8752L57.4261 50.8482C57.543 50.5677 57.4022 50.2488 57.1115 50.1359C56.821 50.0231 56.4906 50.159 56.3735 50.4396L55.5058 52.5214C55.3889 52.8019 55.5297 53.1208 55.8204 53.2337L57.9772 54.0713C58.0465 54.0983 58.1182 54.111 58.1887 54.111C58.4133 54.111 58.6261 53.9813 58.7151 53.7676C58.832 53.4871 58.6912 53.1682 58.4005 53.0554L57.6974 52.7824C60.7561 51.5129 62.7928 48.5998 62.7928 45.2915ZM40.3174 51.7423H39.1307C38.938 51.7423 38.7808 51.8941 38.7808 52.0801V53.6106C38.7808 53.7967 38.938 53.9484 39.1307 53.9484H40.3174C40.5101 53.9484 40.6673 53.7966 40.6673 53.6106V52.0801C40.6673 51.8941 40.5101 51.7423 40.3174 51.7423ZM43.0875 51.7423H41.9009C41.7081 51.7423 41.5509 51.8941 41.5509 52.0801V53.6106C41.5509 53.7967 41.7081 53.9484 41.9009 53.9484H43.0875C43.2802 53.9484 43.4374 53.7966 43.4374 53.6106V52.0801C43.4374 51.8941 43.2802 51.7423 43.0875 51.7423ZM47.156 53.9484H48.3427C48.5354 53.9484 48.6926 53.7966 48.6926 53.6106V52.0801C48.6926 51.8941 48.5354 51.7423 48.3427 51.7423H47.156C46.9633 51.7423 46.8061 51.8941 46.8061 52.0801V53.6106C46.8061 53.7966 46.9632 53.9484 47.156 53.9484ZM49.926 53.9484H51.1127C51.3054 53.9484 51.4627 53.7966 51.4627 53.6106V52.0801C51.4627 51.8941 51.3054 51.7423 51.1127 51.7423H49.926C49.7333 51.7423 49.5761 51.8941 49.5761 52.0801V53.6106C49.5761 53.7966 49.7333 53.9484 49.926 53.9484ZM53.7143 48.1292V59.1189C53.7143 59.4213 53.4603 59.6664 53.147 59.6664H32.4045C32.0912 59.6664 31.8373 59.4213 31.8373 59.1189V43.8859C31.8373 43.2947 32.3355 42.8138 32.948 42.8138H36.5531C37.1655 42.8138 37.6637 43.2947 37.6637 43.8859V49.5118L44.9733 47.6007C45.1439 47.5563 45.326 47.5908 45.4664 47.6943C45.6066 47.798 45.6889 47.9587 45.6889 48.1292V49.5118L52.9985 47.6007C53.169 47.5563 53.3513 47.5908 53.4916 47.6943C53.6319 47.7981 53.7143 47.9587 53.7143 48.1292ZM32.9718 43.9089V45.4149H36.5292V43.9089H32.9718ZM36.5293 58.5713V46.51H32.9719V58.5713H36.5293ZM52.5797 48.8448L45.2701 50.7559C45.0996 50.8003 44.9174 50.7658 44.7771 50.6623C44.6369 50.5586 44.5545 50.3979 44.5545 50.2274V48.8448L37.6639 50.6463V58.5713H52.5798L52.5797 48.8448Z" fill="white"/>
</svg>
