<svg width="60" height="60" viewBox="0 0 60 60" fill="none" xmlns="http://www.w3.org/2000/svg">
<rect width="60" height="60" rx="13.2027" fill="#2563AC"/>
<path d="M21.1678 20.6553C21.1678 18.9694 22.2422 17.4945 23.8219 16.9519C23.9057 15.8671 24.3661 14.8599 25.1393 14.0844C25.9974 13.2239 27.1396 12.75 28.3553 12.75C29.5589 12.75 30.6934 13.2156 31.5498 14.0611C32.2923 14.7941 32.7521 15.7397 32.8715 16.7621H34.189C36.3357 16.7621 38.0822 18.5085 38.0822 20.6552C38.0822 22.802 36.3357 24.5484 34.189 24.5484C33.9248 24.5484 33.7107 24.3343 33.7107 24.0702C33.7107 23.8061 33.9248 23.5919 34.189 23.5919C35.8083 23.5919 37.1257 22.2745 37.1257 20.6552C37.1257 19.0359 35.8083 17.7186 34.189 17.7186H32.4239C32.1624 17.7186 31.9494 17.5085 31.9458 17.2469C31.9188 15.2947 30.3082 13.7065 28.3553 13.7065C27.3956 13.7065 26.494 14.0806 25.8166 14.7598C25.138 15.4402 24.7645 16.3471 24.7645 17.3135C24.7645 17.5339 24.614 17.7257 24.4 17.7781C23.0601 18.1062 22.1243 19.2893 22.1243 20.6553C22.1243 22.2746 23.4417 23.592 25.061 23.592C25.3252 23.592 25.5393 23.8061 25.5393 24.0703C25.5393 24.3344 25.3252 24.5485 25.061 24.5485C22.9143 24.5485 21.1678 22.802 21.1678 20.6553ZM30.1032 20.5935V28.4102C30.7199 28.612 31.1668 29.1924 31.1668 29.8757C31.1668 30.7258 30.4752 31.4174 29.6251 31.4174C28.775 31.4174 28.0833 30.7258 28.0833 29.8757C28.0833 29.1925 28.5302 28.612 29.1468 28.4103V20.5935C29.1468 20.3293 29.3609 20.1152 29.625 20.1152C29.8891 20.1152 30.1032 20.3293 30.1032 20.5935ZM30.2103 29.8757C30.2103 29.5529 29.9477 29.2904 29.6251 29.2904C29.3023 29.2904 29.0398 29.553 29.0398 29.8757C29.0398 30.1983 29.3023 30.4609 29.6251 30.4609C29.9478 30.4609 30.2103 30.1984 30.2103 29.8757ZM32.6857 20.5935V26.3331H33.8752C34.0769 25.7165 34.6574 25.2697 35.3406 25.2697C36.1907 25.2697 36.8823 25.9613 36.8823 26.8114C36.8823 27.6615 36.1907 28.3531 35.3406 28.3531C34.6574 28.3531 34.0769 27.9063 33.8752 27.2896H32.2074C31.9433 27.2896 31.7292 27.0755 31.7292 26.8114V20.5935C31.7292 20.3293 31.9433 20.1152 32.2074 20.1152C32.4715 20.1152 32.6857 20.3293 32.6857 20.5935ZM34.7553 26.8113C34.7553 27.1341 35.0179 27.3965 35.3406 27.3965C35.6632 27.3965 35.9258 27.134 35.9258 26.8113C35.9258 26.4886 35.6632 26.2261 35.3406 26.2261C35.0179 26.2261 34.7553 26.4886 34.7553 26.8113ZM27.0426 20.1152C27.3067 20.1152 27.5208 20.3293 27.5208 20.5935V26.8114C27.5208 27.0755 27.3067 27.2896 27.0426 27.2896H25.3748C25.1731 27.9063 24.5926 28.3531 23.9094 28.3531C23.0593 28.3531 22.3677 27.6615 22.3677 26.8114C22.3677 25.9613 23.0593 25.2697 23.9094 25.2697C24.5926 25.2697 25.1731 25.7165 25.3748 26.3331H26.5643V20.5935C26.5643 20.3293 26.7785 20.1152 27.0426 20.1152ZM24.4947 26.8113C24.4947 26.4886 24.2321 26.2261 23.9094 26.2261C23.5868 26.2261 23.3242 26.4886 23.3242 26.8113C23.3242 27.134 23.5868 27.3965 23.9094 27.3965C24.2321 27.3965 24.4947 27.1341 24.4947 26.8113ZM18.6045 40.7013C15.7664 40.1075 13.7065 37.5685 13.7065 34.664C13.7065 32.0843 15.2865 29.8226 17.6351 28.9137L17.2743 29.8106C17.1758 30.0556 17.2944 30.3342 17.5395 30.4327C17.7846 30.5314 18.063 30.4127 18.1616 30.1675L18.8932 28.3492C18.9917 28.1042 18.873 27.8257 18.628 27.7271L16.8097 26.9955C16.5648 26.897 16.2862 27.0157 16.1876 27.2607C16.0891 27.5057 16.2077 27.7843 16.4528 27.8828L17.0455 28.1213C14.4669 29.23 12.75 31.7743 12.75 34.664C12.75 36.3098 13.3244 37.9151 14.3675 39.1844C15.3963 40.4363 16.8314 41.3075 18.4086 41.6375C18.4416 41.6444 18.4746 41.6477 18.507 41.6477C18.7286 41.6477 18.9274 41.4928 18.9746 41.2673C19.0287 41.0088 18.8631 40.7554 18.6045 40.7013ZM46.5 33.9446C46.5 32.2988 45.9256 30.6935 44.8825 29.4241C43.8537 28.1723 42.4186 27.3011 40.8414 26.9711C40.5825 26.9165 40.3294 27.0828 40.2754 27.3413C40.2213 27.5998 40.387 27.8532 40.6455 27.9073C43.4836 28.5011 45.5435 31.0401 45.5435 33.9446C45.5435 36.5243 43.9635 38.7859 41.6149 39.6949L41.9757 38.798C42.0742 38.553 41.9556 38.2744 41.7105 38.1758C41.4656 38.0773 41.187 38.196 41.0884 38.4411L40.3568 40.2594C40.2583 40.5044 40.377 40.7829 40.622 40.8815L42.4403 41.6131C42.4988 41.6367 42.5592 41.6478 42.6186 41.6478C42.808 41.6478 42.9873 41.5344 43.0624 41.3479C43.1609 41.1029 43.0423 40.8243 42.7972 40.7257L42.2045 40.4873C44.7831 39.3785 46.5 36.8342 46.5 33.9446ZM27.5525 39.5789H26.5521C26.3896 39.5789 26.2571 39.7115 26.2571 39.8739V41.2107C26.2571 41.3733 26.3896 41.5058 26.5521 41.5058H27.5525C27.715 41.5058 27.8475 41.3732 27.8475 41.2107V39.8739C27.8475 39.7115 27.715 39.5789 27.5525 39.5789ZM29.8878 39.5789H28.8874C28.725 39.5789 28.5924 39.7115 28.5924 39.8739V41.2107C28.5924 41.3733 28.725 41.5058 28.8874 41.5058H29.8878C30.0503 41.5058 30.1828 41.3732 30.1828 41.2107V39.8739C30.1828 39.7115 30.0503 39.5789 29.8878 39.5789ZM33.3177 41.5058H34.3181C34.4806 41.5058 34.6131 41.3732 34.6131 41.2107V39.8739C34.6131 39.7115 34.4806 39.5789 34.3181 39.5789H33.3177C33.1552 39.5789 33.0227 39.7115 33.0227 39.8739V41.2107C33.0227 41.3732 33.1552 41.5058 33.3177 41.5058ZM35.6529 41.5058H36.6533C36.8158 41.5058 36.9483 41.3732 36.9483 41.2107V39.8739C36.9483 39.7115 36.8158 39.5789 36.6533 39.5789H35.6529C35.4905 39.5789 35.3579 39.7115 35.3579 39.8739V41.2107C35.3579 41.3732 35.4905 41.5058 35.6529 41.5058ZM38.8465 36.4232V46.0218C38.8465 46.2859 38.6324 46.5 38.3683 46.5H20.8817C20.6176 46.5 20.4035 46.2859 20.4035 46.0218V32.717C20.4035 32.2006 20.8235 31.7806 21.3399 31.7806H24.3791C24.8954 31.7806 25.3154 32.2006 25.3154 32.717V37.6307L31.4776 35.9615C31.6214 35.9227 31.775 35.9529 31.8933 36.0433C32.0115 36.1338 32.0809 36.2742 32.0809 36.4232V37.6307L38.2431 35.9615C38.3869 35.9227 38.5405 35.9529 38.6588 36.0433C38.7771 36.1339 38.8465 36.2742 38.8465 36.4232ZM21.3599 32.737V34.0524H24.3589V32.737H21.3599ZM24.359 45.5435V35.0089H21.36V45.5435H24.359ZM37.8901 37.0482L31.7278 38.7173C31.5841 38.7562 31.4305 38.726 31.3122 38.6356C31.194 38.545 31.1246 38.4046 31.1246 38.2557V37.0482L25.3155 38.6216V45.5435H37.8901L37.8901 37.0482Z" fill="white"/>
</svg>
