<svg width="60" height="60" viewBox="0 0 60 60" fill="none" xmlns="http://www.w3.org/2000/svg">
<rect x="0.128418" width="59.1283" height="59.1283" rx="9.71972" fill="#F38313"/>
<g clip-path="url(#clip0_2939_395)">
<path d="M43.2037 20.3531H43.1861V19.8869C43.1861 19.7606 43.1356 19.6395 43.0456 19.5502C42.9556 19.4609 42.8335 19.4107 42.7062 19.4107H39.9226V17.6053H40.4592C40.656 18.1407 41.1728 18.5248 41.7796 18.5248C42.5551 18.5248 43.1861 17.8987 43.1861 17.1291C43.1861 16.3596 42.5551 15.7334 41.7796 15.7334C41.1728 15.7334 40.656 16.1175 40.4592 16.653H39.4428C39.1778 16.653 38.9629 16.8661 38.9629 17.1291V19.4108H37.1011C36.8361 19.4108 36.6212 19.624 36.6212 19.887C36.6212 22.5556 34.4333 24.7267 31.744 24.7267C29.0546 24.7267 26.8667 22.5557 26.8667 19.887C26.8667 19.624 26.6519 19.4108 26.3868 19.4108H24.525V17.1291C24.525 16.8661 24.3101 16.653 24.0451 16.653H23.0287C22.8318 16.1175 22.3151 15.7334 21.7083 15.7334C20.9327 15.7334 20.3018 16.3595 20.3018 17.1291C20.3018 17.8986 20.9327 18.5248 21.7083 18.5248C22.3151 18.5248 22.8318 18.1407 23.0287 17.6053H23.5652V19.4108H20.7816C20.5166 19.4108 20.3018 19.624 20.3018 19.8869V20.4009C19.2478 20.6173 18.4531 21.5455 18.4531 22.6546V30.0294C18.4233 30.0064 18.3943 29.9816 18.3667 29.9542C18.026 29.6161 17.4718 29.6163 17.1313 29.9542L16.2837 30.7952C16.1187 30.959 16.0279 31.1766 16.0279 31.4082C16.0279 31.6398 16.1188 31.8574 16.2837 32.0211C16.5336 32.2691 16.6019 32.6113 16.4662 32.9363C16.3306 33.2612 16.0385 33.4552 15.6851 33.4552C15.2034 33.4552 14.8115 33.8441 14.8115 34.3221V35.5115C14.8115 35.9894 15.2034 36.3783 15.6851 36.3783C16.0386 36.3783 16.3307 36.5723 16.4662 36.8973C16.6019 37.2222 16.5336 37.5644 16.2838 37.8123C16.1188 37.976 16.0279 38.1937 16.0279 38.4253C16.0279 38.6569 16.1188 38.8746 16.2837 39.0383L17.1311 39.8793C17.4717 40.2172 18.0259 40.2172 18.3665 39.8793C18.617 39.6308 18.9618 39.5627 19.2891 39.6972C19.6163 39.8317 19.8117 40.1218 19.8117 40.4733C19.8117 40.9512 20.2036 41.3401 20.6853 41.3401H21.8838C22.3655 41.3401 22.7574 40.9512 22.7574 40.4733C22.7574 40.1225 22.9529 39.8327 23.2803 39.6981C23.6079 39.5635 23.9526 39.6312 24.2026 39.8793C24.5433 40.2171 25.0974 40.2172 25.438 39.8792L25.7691 39.5506H27.9429C27.9136 40.8864 27.5939 42.2221 27.2324 43.0422H25.7551C24.8731 43.0422 24.1555 43.7542 24.1555 44.6293C24.1555 45.5045 24.8731 46.2166 25.7551 46.2166H37.7329C38.6149 46.2166 39.3324 45.5045 39.3324 44.6293C39.3324 43.7542 38.6149 43.0422 37.7329 43.0422H36.2508C35.8719 42.2085 35.5313 40.8684 35.4893 39.5506H42.7155C43.9943 39.5506 45.0348 38.5182 45.0348 37.2492V22.1704C45.0348 21.1683 44.2134 20.3531 43.2037 20.3531ZM41.7795 16.6857C42.0259 16.6857 42.2263 16.8847 42.2263 17.1291C42.2263 17.3736 42.0259 17.5725 41.7795 17.5725C41.5332 17.5725 41.3328 17.3736 41.3328 17.1291C41.3328 16.8847 41.5332 16.6857 41.7795 16.6857ZM21.7081 17.5724C21.4618 17.5724 21.2614 17.3735 21.2614 17.1291C21.2614 16.8846 21.4618 16.6857 21.7081 16.6857C21.9545 16.6857 22.1549 16.8846 22.1549 17.1291C22.1549 17.3735 21.9545 17.5724 21.7081 17.5724ZM21.2614 20.3631H25.9264C26.1712 23.3351 28.6869 25.679 31.7439 25.679C34.8009 25.679 37.3166 23.3352 37.5613 20.3631L42.2264 20.3631V20.9747C42.2264 21.1061 42.1186 21.213 41.9861 21.213C40.7897 21.213 39.7616 21.8954 39.3031 22.9939C38.8446 24.0923 39.0853 25.2963 39.9313 26.1358C40.025 26.2287 40.025 26.38 39.9313 26.473L38.381 28.0114C38.2873 28.1043 38.1348 28.1043 38.0411 28.0114C37.1951 27.1719 35.982 26.933 34.8749 27.388C33.7679 27.843 33.0802 28.8632 33.0802 30.0504C33.0802 30.1818 32.9724 30.2888 32.84 30.2888H30.6477C30.5152 30.2888 30.4075 30.1818 30.4075 30.0504C30.4075 28.8619 29.7201 27.8411 28.6135 27.3863C28.2427 27.234 27.8599 27.1595 27.4829 27.1595C26.7349 27.1595 26.0097 27.4527 25.4466 28.0114C25.3529 28.1043 25.2005 28.1043 25.1068 28.0114L23.5564 26.473C23.4628 26.38 23.4628 26.2287 23.5564 26.1358C24.4025 25.2963 24.6431 24.0924 24.1847 22.9939C23.7262 21.8955 22.698 21.213 21.5016 21.213C21.3691 21.213 21.2614 21.1061 21.2614 20.9747V20.3631ZM20.3696 21.366C20.5332 21.8306 20.9782 22.1655 21.5016 22.1655C22.459 22.1655 23.0573 22.7817 23.2981 23.3584C23.5388 23.9351 23.5549 24.7907 22.8779 25.4624C22.4101 25.9268 22.4101 26.6822 22.8779 27.1464L24.4282 28.6849C24.8962 29.1491 25.6574 29.149 26.1252 28.6848C26.8032 28.012 27.6654 28.0275 28.2463 28.2662C28.8271 28.5049 29.4477 29.099 29.4477 30.0505C29.4477 30.707 29.9861 31.2412 30.6477 31.2412H32.84C33.5017 31.2412 34.0399 30.707 34.0399 30.0505C34.0399 29.1006 34.661 28.5068 35.2421 28.2679C35.8233 28.029 36.6855 28.0132 37.3625 28.6849C37.8304 29.1492 38.5917 29.1491 39.0595 28.6849L40.6098 27.1465C41.0777 26.6823 41.0777 25.9269 40.6098 25.4624C39.9329 24.7908 39.9489 23.9352 40.1897 23.3584C40.4304 22.7817 41.0287 22.1655 41.986 22.1655C42.5319 22.1655 42.993 21.8015 43.1378 21.3055H43.2036C43.6841 21.3055 44.0749 21.6935 44.0749 22.1704V34.9677H27.7578V34.3221C27.7578 33.8441 27.3659 33.4552 26.8843 33.4552C26.5308 33.4552 26.2388 33.2612 26.1031 32.9363C25.9674 32.6113 26.0357 32.2691 26.2856 32.0212C26.4506 31.8575 26.5415 31.6398 26.5415 31.4082C26.5415 31.1767 26.4507 30.959 26.2857 30.7952L25.4381 29.9542C25.0974 29.6163 24.5433 29.6163 24.2027 29.9542C23.9527 30.2022 23.6079 30.27 23.2805 30.1353C22.953 30.0007 22.7575 29.7109 22.7575 29.3601C22.7575 28.8821 22.3656 28.4933 21.8839 28.4933H20.6853C20.2037 28.4933 19.8118 28.8821 19.8118 29.3601C19.8118 29.664 19.6648 29.9218 19.4127 30.073V22.6546C19.4127 22.0497 19.8159 21.5367 20.3696 21.366ZM24.819 39.1468C24.297 38.6732 23.5745 38.5466 22.9131 38.8183C22.2518 39.0902 21.8313 39.6866 21.7996 40.3878H20.7696C20.7379 39.6859 20.3175 39.0891 19.6564 38.8174C18.9952 38.5456 18.2727 38.6726 17.7502 39.1468L17.0217 38.4239C17.4991 37.9059 17.6266 37.1891 17.3528 36.5328C17.0788 35.8766 16.4778 35.4592 15.7711 35.4278V34.4056C16.4778 34.3742 17.0788 33.9569 17.3528 33.3007C17.6267 32.6445 17.4991 31.9276 17.0217 31.4095L17.7502 30.6867C18.2723 31.1602 18.9946 31.2868 19.656 31.0151C20.3173 30.7433 20.7378 30.1469 20.7695 29.4457H21.7996C21.8313 30.1469 22.2519 30.7433 22.9131 31.0151C23.5745 31.287 24.2969 31.1604 24.819 30.6867L25.5475 31.4095C25.0702 31.9276 24.9425 32.6444 25.2164 33.3007C25.4904 33.9569 26.0914 34.3742 26.7981 34.4056V35.4278C26.0914 35.4592 25.4903 35.8766 25.2164 36.5328C24.9425 37.189 25.0702 37.9058 25.5475 38.4239L24.819 39.1468ZM38.3727 44.6295C38.3727 44.9795 38.0856 45.2644 37.7329 45.2644H25.7551C25.4023 45.2644 25.1153 44.9795 25.1153 44.6295C25.1153 44.2794 25.4023 43.9947 25.7551 43.9947H37.7329C38.0857 43.9946 38.3727 44.2794 38.3727 44.6295ZM35.2113 43.0422H28.267C28.6382 42.0422 28.877 40.7437 28.9023 39.5507H34.5297C34.5653 40.7305 34.8214 42.0297 35.2113 43.0422ZM42.7155 38.5983H26.5241C26.5355 38.5419 26.5415 38.4841 26.5415 38.4252C26.5415 38.1937 26.4506 37.976 26.2857 37.8122C26.0357 37.5642 25.9674 37.2221 26.1031 36.8972C26.2388 36.5722 26.5307 36.3782 26.8843 36.3782C27.2171 36.3782 27.5069 36.1924 27.6543 35.92H44.075V37.2493C44.075 37.9932 43.4652 38.5983 42.7155 38.5983ZM33.235 37.2592C33.235 37.5222 33.0201 37.7354 32.7551 37.7354H30.7326C30.4676 37.7354 30.2527 37.5222 30.2527 37.2592C30.2527 36.9962 30.4676 36.783 30.7326 36.783H32.7551C33.0201 36.783 33.235 36.9962 33.235 37.2592ZM24.045 15.4035C24.6518 15.4035 25.1686 15.0195 25.3654 14.484H27.4146V19.887C27.4146 22.2558 29.3568 24.183 31.7439 24.183C34.131 24.183 36.0732 22.2558 36.0732 19.887V14.484H38.1223C38.3191 15.0195 38.8359 15.4036 39.4427 15.4036C40.2182 15.4036 40.8493 14.7775 40.8493 14.0079C40.8493 13.2382 40.2182 12.6122 39.4426 12.6122C38.8358 12.6122 38.319 12.9963 38.1222 13.5317H35.5933C35.3282 13.5317 35.1134 13.7449 35.1134 14.0079V19.4109H32.2237V18.4393C32.7633 18.244 33.1503 17.7312 33.1503 17.1291C33.1503 16.3596 32.5194 15.7334 31.7438 15.7334C30.9683 15.7334 30.3373 16.3595 30.3373 17.1291C30.3373 17.7313 30.7243 18.2441 31.264 18.4394V19.4108H28.3743V14.0079C28.3743 13.7449 28.1594 13.5317 27.8944 13.5317H25.3653C25.1686 12.9963 24.6518 12.6122 24.045 12.6122C23.2695 12.6122 22.6385 13.2383 22.6385 14.0079C22.6385 14.7774 23.2695 15.4035 24.045 15.4035ZM39.4426 13.5645C39.689 13.5645 39.8895 13.7634 39.8895 14.0079C39.8895 14.2524 39.689 14.4513 39.4426 14.4513C39.1963 14.4513 38.9959 14.2524 38.9959 14.0079C38.9959 13.7634 39.1963 13.5645 39.4426 13.5645ZM31.7438 16.6857C31.9902 16.6857 32.1906 16.8847 32.1906 17.1291C32.1906 17.3736 31.9902 17.5725 31.7438 17.5725C31.4975 17.5725 31.297 17.3736 31.297 17.1291C31.297 16.8847 31.4975 16.6857 31.7438 16.6857ZM35.0794 20.3632C34.8458 21.9822 33.439 23.2306 31.7439 23.2306C30.0488 23.2306 28.642 21.9821 28.4084 20.3632H35.0794ZM24.045 13.5645C24.2914 13.5645 24.4918 13.7634 24.4918 14.0079C24.4918 14.2523 24.2914 14.4512 24.045 14.4512C23.7986 14.4512 23.5983 14.2523 23.5983 14.0079C23.5983 13.7634 23.7986 13.5645 24.045 13.5645ZM21.2846 31.5342C19.405 31.5342 17.8758 33.0516 17.8758 34.9167C17.8758 36.7819 19.405 38.2993 21.2846 38.2993C23.1642 38.2993 24.6933 36.7819 24.6933 34.9167C24.6933 33.0516 23.1642 31.5342 21.2846 31.5342ZM21.2846 37.3469C19.9342 37.3469 18.8356 36.2567 18.8356 34.9167C18.8356 33.5766 19.9342 32.4865 21.2846 32.4865C22.635 32.4865 23.7336 33.5766 23.7336 34.9167C23.7336 36.2567 22.635 37.3469 21.2846 37.3469Z" fill="white"/>
</g>
<defs>
<clipPath id="clip0_2939_395">
<rect width="31.5891" height="34.829" fill="white" transform="translate(14.1284 12)"/>
</clipPath>
</defs>
</svg>
