<svg width="244" height="57" viewBox="0 0 244 57" fill="none" xmlns="http://www.w3.org/2000/svg">
<g clip-path="url(#clip0_81_519)">
<rect x="0.865234" y="0.287354" width="242.98" height="56.6371" rx="28.3185" fill="#DCECFF"/>
<path d="M41.283 20.3599V35.791H38.1142V20.3599H41.283ZM58.3705 20.3599V35.791H55.191L48.991 25.4471V35.791H45.8115V20.3599H48.991L55.2016 30.7144V20.3599H58.3705ZM69.2686 20.3599V35.791H66.0997V20.3599H69.2686ZM74.0166 20.3599V22.8505H61.4259V20.3599H74.0166ZM87.7339 33.311V35.791H79.5202V33.311H87.7339ZM80.5588 20.3599V35.791H77.3793V20.3599H80.5588ZM86.6634 26.6447V29.0611H79.5202V26.6447H86.6634ZM87.7233 20.3599V22.8505H79.5202V20.3599H87.7233ZM103.369 27.7257V33.8409C103.129 34.1306 102.758 34.445 102.257 34.7842C101.755 35.1163 101.108 35.4024 100.317 35.6426C99.5257 35.8829 98.5683 36.003 97.4449 36.003C96.4487 36.003 95.5408 35.8405 94.7212 35.5155C93.9016 35.1834 93.195 34.6994 92.6015 34.0635C92.0151 33.4276 91.5629 32.6504 91.2449 31.7319C90.927 30.8063 90.768 29.75 90.768 28.563V27.5985C90.768 26.4115 90.9199 25.3552 91.2237 24.4296C91.5346 23.5041 91.9762 22.7233 92.5485 22.0874C93.1208 21.4515 93.8026 20.9675 94.594 20.6355C95.3853 20.3034 96.265 20.1373 97.233 20.1373C98.5754 20.1373 99.6776 20.3564 100.54 20.7944C101.402 21.2254 102.059 21.826 102.511 22.5961C102.97 23.3592 103.253 24.2353 103.359 25.2245H100.275C100.197 24.7017 100.049 24.2459 99.8295 23.8573C99.6105 23.4687 99.2961 23.1649 98.8863 22.9459C98.4836 22.7269 97.9607 22.6173 97.3177 22.6173C96.7878 22.6173 96.3144 22.7269 95.8976 22.9459C95.4878 23.1578 95.1416 23.4723 94.8589 23.8891C94.5763 24.306 94.3608 24.8218 94.2124 25.4365C94.0641 26.0512 93.9899 26.7648 93.9899 27.5773V28.563C93.9899 29.3684 94.0676 30.0821 94.223 30.7038C94.3785 31.3185 94.6081 31.8379 94.9119 32.2618C95.2228 32.6786 95.6044 32.9931 96.0565 33.205C96.5087 33.417 97.0351 33.523 97.6357 33.523C98.1373 33.523 98.5542 33.4806 98.8863 33.3958C99.2254 33.311 99.4975 33.2086 99.7024 33.0885C99.9143 32.9613 100.077 32.8412 100.19 32.7281V29.9937H97.286V27.7257H103.369ZM107.485 20.3599H113.239C114.419 20.3599 115.433 20.5365 116.281 20.8898C117.136 21.2431 117.793 21.7659 118.252 22.4584C118.712 23.1508 118.941 24.0022 118.941 25.0126C118.941 25.8392 118.8 26.5493 118.517 27.1428C118.242 27.7292 117.85 28.2203 117.341 28.616C116.839 29.0046 116.249 29.3155 115.571 29.5486L114.564 30.0785H109.562L109.541 27.5985H113.261C113.819 27.5985 114.282 27.4996 114.649 27.3018C115.016 27.1039 115.292 26.8284 115.476 26.4751C115.666 26.1218 115.762 25.712 115.762 25.2457C115.762 24.7511 115.67 24.3237 115.486 23.9633C115.303 23.603 115.023 23.3274 114.649 23.1367C114.275 22.9459 113.805 22.8505 113.239 22.8505H110.664V35.791H107.485V20.3599ZM116.112 35.791L112.593 28.9127L115.953 28.8915L119.514 35.6426V35.791H116.112ZM129.214 22.9989L125.017 35.791H121.636L127.37 20.3599H129.521L129.214 22.9989ZM132.701 35.791L128.493 22.9989L128.154 20.3599H130.327L136.092 35.791H132.701ZM132.51 30.0467V32.5373H124.36V30.0467H132.51ZM144.659 20.3599V35.791H141.49V20.3599H144.659ZM149.407 20.3599V22.8505H136.816V20.3599H149.407ZM156.15 20.3599V35.791H152.981V20.3599H156.15ZM173.354 27.7151V28.4464C173.354 29.6193 173.195 30.672 172.878 31.6047C172.56 32.5373 172.111 33.3322 171.532 33.9893C170.952 34.6393 170.26 35.1375 169.454 35.4837C168.656 35.8299 167.769 36.003 166.794 36.003C165.826 36.003 164.939 35.8299 164.134 35.4837C163.336 35.1375 162.643 34.6393 162.057 33.9893C161.47 33.3322 161.015 32.5373 160.689 31.6047C160.372 30.672 160.213 29.6193 160.213 28.4464V27.7151C160.213 26.5352 160.372 25.4824 160.689 24.5568C161.007 23.6242 161.456 22.8293 162.035 22.1722C162.622 21.5151 163.314 21.0135 164.113 20.6672C164.918 20.321 165.805 20.1479 166.773 20.1479C167.748 20.1479 168.635 20.321 169.433 20.6672C170.239 21.0135 170.931 21.5151 171.51 22.1722C172.097 22.8293 172.549 23.6242 172.867 24.5568C173.192 25.4824 173.354 26.5352 173.354 27.7151ZM170.143 28.4464V27.6939C170.143 26.8743 170.069 26.1536 169.921 25.5319C169.772 24.9101 169.553 24.3873 169.264 23.9633C168.974 23.5394 168.621 23.2214 168.204 23.0095C167.787 22.7904 167.31 22.6809 166.773 22.6809C166.236 22.6809 165.759 22.7904 165.342 23.0095C164.932 23.2214 164.583 23.5394 164.293 23.9633C164.01 24.3873 163.795 24.9101 163.646 25.5319C163.498 26.1536 163.424 26.8743 163.424 27.6939V28.4464C163.424 29.2589 163.498 29.9796 163.646 30.6084C163.795 31.2302 164.014 31.7566 164.304 32.1876C164.593 32.6115 164.946 32.933 165.363 33.152C165.78 33.3711 166.257 33.4806 166.794 33.4806C167.331 33.4806 167.808 33.3711 168.225 33.152C168.642 32.933 168.991 32.6115 169.274 32.1876C169.557 31.7566 169.772 31.2302 169.921 30.6084C170.069 29.9796 170.143 29.2589 170.143 28.4464ZM189.753 20.3599V35.791H186.574L180.374 25.4471V35.791H177.194V20.3599H180.374L186.584 30.7144V20.3599H189.753ZM202.103 31.7531C202.103 31.4775 202.061 31.2302 201.976 31.0112C201.898 30.7851 201.75 30.5802 201.531 30.3965C201.312 30.2057 201.004 30.0185 200.609 29.8348C200.213 29.6511 199.701 29.4603 199.072 29.2625C198.372 29.0364 197.708 28.782 197.079 28.4994C196.458 28.2168 195.907 27.8882 195.426 27.5137C194.953 27.1322 194.578 26.6906 194.303 26.189C194.034 25.6873 193.9 25.1044 193.9 24.4402C193.9 23.7973 194.041 23.2144 194.324 22.6915C194.607 22.1616 195.002 21.7094 195.511 21.3349C196.02 20.9534 196.62 20.6602 197.313 20.4553C198.012 20.2504 198.779 20.1479 199.612 20.1479C200.75 20.1479 201.743 20.3528 202.591 20.7626C203.438 21.1724 204.096 21.7341 204.562 22.4478C205.035 23.1614 205.272 23.9775 205.272 24.896H202.114C202.114 24.4438 202.018 24.0481 201.828 23.709C201.644 23.3627 201.361 23.0907 200.98 22.8929C200.605 22.6951 200.132 22.5961 199.559 22.5961C199.008 22.5961 198.549 22.6809 198.182 22.8505C197.814 23.013 197.539 23.2356 197.355 23.5182C197.171 23.7937 197.079 24.1046 197.079 24.4508C197.079 24.7123 197.143 24.949 197.27 25.1609C197.405 25.3729 197.602 25.5707 197.864 25.7544C198.125 25.9381 198.447 26.1112 198.828 26.2737C199.21 26.4363 199.651 26.5952 200.153 26.7507C200.994 27.005 201.732 27.2912 202.368 27.6091C203.011 27.9271 203.548 28.2839 203.979 28.6796C204.41 29.0752 204.735 29.5239 204.954 30.0255C205.173 30.5272 205.283 31.096 205.283 31.7319C205.283 32.4031 205.152 33.0037 204.89 33.5336C204.629 34.0635 204.251 34.5122 203.756 34.8796C203.262 35.247 202.672 35.5261 201.987 35.7168C201.301 35.9076 200.535 36.003 199.687 36.003C198.924 36.003 198.171 35.9041 197.429 35.7062C196.687 35.5013 196.013 35.194 195.405 34.7842C194.804 34.3744 194.324 33.8515 193.964 33.2156C193.603 32.5797 193.423 31.8273 193.423 30.9582H196.613C196.613 31.4386 196.687 31.8449 196.836 32.177C196.984 32.5091 197.193 32.7776 197.461 32.9825C197.737 33.1874 198.062 33.3357 198.436 33.4276C198.818 33.5194 199.234 33.5654 199.687 33.5654C200.238 33.5654 200.69 33.4877 201.043 33.3322C201.404 33.1768 201.669 32.9613 201.838 32.6857C202.015 32.4102 202.103 32.0993 202.103 31.7531Z" fill="#2563AC"/>
</g>
<defs>
<clipPath id="clip0_81_519">
<rect width="242.98" height="56.6371" fill="white" transform="translate(0.865234 0.287476)"/>
</clipPath>
</defs>
</svg>
