<svg width="236" height="50" viewBox="0 0 236 50" fill="none" xmlns="http://www.w3.org/2000/svg">
<rect x="0.691406" y="0.534424" width="234.667" height="48.6" rx="24.3" fill="#FFE6CF"/>
<path d="M35.7679 30.8943V33.0291H29.0809V30.8943H35.7679ZM29.9658 19.7462V33.0291H27.2289V19.7462H29.9658ZM47.5845 30.8943V33.0291H40.5143V30.8943H47.5845ZM41.4084 19.7462V33.0291H38.6715V19.7462H41.4084ZM46.6631 25.1561V27.2361H40.5143V25.1561H46.6631ZM47.5754 19.7462V21.8901H40.5143V19.7462H47.5754ZM55.9162 22.0178L52.3036 33.0291H49.3934L54.3289 19.7462H56.1808L55.9162 22.0178ZM58.9177 33.0291L55.2959 22.0178L55.004 19.7462H56.8741L61.8369 33.0291H58.9177ZM58.7534 28.0845V30.2284H51.738V28.0845H58.7534ZM68.481 33.0291H65.589L65.6073 30.8943H68.481C69.1986 30.8943 69.8038 30.7331 70.2964 30.4108C70.789 30.0824 71.16 29.605 71.4094 28.9785C71.6648 28.3521 71.7925 27.5949 71.7925 26.7069V26.0592C71.7925 25.3781 71.7196 24.779 71.5736 24.262C71.4337 23.7451 71.2239 23.3102 70.9441 22.9575C70.6643 22.6047 70.3207 22.3402 69.9132 22.1638C69.5058 21.9813 69.0374 21.8901 68.5083 21.8901H65.5343V19.7462H68.5083C69.3963 19.7462 70.2082 19.8983 70.9441 20.2024C71.6861 20.5004 72.3277 20.9292 72.869 21.4887C73.4103 22.0482 73.8269 22.7172 74.1189 23.4957C74.4169 24.2681 74.5659 25.1287 74.5659 26.0775V26.7069C74.5659 27.6496 74.4169 28.5102 74.1189 29.2887C73.8269 30.0672 73.4103 30.7362 72.869 31.2957C72.3338 31.8492 71.6922 32.2779 70.9441 32.582C70.2021 32.88 69.3811 33.0291 68.481 33.0291ZM67.1399 19.7462V33.0291H64.4031V19.7462H67.1399ZM86.8022 30.8943V33.0291H79.732V30.8943H86.8022ZM80.626 19.7462V33.0291H77.8892V19.7462H80.626ZM85.8808 25.1561V27.2361H79.732V25.1561H85.8808ZM86.793 19.7462V21.8901H79.732V19.7462H86.793ZM89.7332 19.7462H94.6869C95.7025 19.7462 96.5753 19.8983 97.3051 20.2024C98.041 20.5065 98.6066 20.9565 99.002 21.5526C99.3973 22.1486 99.5949 22.8815 99.5949 23.7512C99.5949 24.4627 99.4733 25.074 99.23 25.5848C98.9928 26.0896 98.6553 26.5123 98.2174 26.8529C97.7856 27.1874 97.2777 27.455 96.6939 27.6557L95.8272 28.1119H91.5213L91.503 25.9771H94.7051C95.1856 25.9771 95.5839 25.892 95.9002 25.7217C96.2165 25.5514 96.4536 25.3142 96.6118 25.0101C96.776 24.706 96.8581 24.3533 96.8581 23.9519C96.8581 23.5261 96.779 23.1582 96.6209 22.848C96.4628 22.5378 96.2225 22.3006 95.9002 22.1364C95.5779 21.9722 95.1734 21.8901 94.6869 21.8901H92.47V33.0291H89.7332V19.7462ZM97.1591 33.0291L94.1304 27.1084L97.0223 27.0901L100.088 32.9013V33.0291H97.1591ZM109.952 29.5533C109.952 29.3161 109.915 29.1032 109.842 28.9147C109.776 28.72 109.648 28.5437 109.459 28.3855C109.271 28.2213 109.006 28.0602 108.666 27.902C108.325 27.7439 107.884 27.5797 107.343 27.4094C106.741 27.2148 106.169 26.9958 105.628 26.7526C105.093 26.5093 104.618 26.2265 104.205 25.9041C103.797 25.5757 103.475 25.1956 103.238 24.7638C103.006 24.332 102.891 23.8302 102.891 23.2585C102.891 22.7051 103.013 22.2033 103.256 21.7533C103.499 21.2971 103.84 20.9079 104.278 20.5855C104.715 20.2571 105.232 20.0047 105.828 19.8284C106.431 19.652 107.09 19.5638 107.808 19.5638C108.787 19.5638 109.642 19.7402 110.372 20.0929C111.101 20.4457 111.667 20.9292 112.068 21.5434C112.476 22.1577 112.68 22.8602 112.68 23.6508H109.961C109.961 23.2616 109.879 22.921 109.715 22.6291C109.557 22.331 109.313 22.0969 108.985 21.9266C108.663 21.7563 108.255 21.6712 107.762 21.6712C107.288 21.6712 106.893 21.7441 106.576 21.8901C106.26 22.03 106.023 22.2216 105.865 22.4648C105.707 22.702 105.628 22.9696 105.628 23.2677C105.628 23.4927 105.682 23.6964 105.792 23.8789C105.907 24.0613 106.078 24.2316 106.303 24.3898C106.528 24.5479 106.805 24.6969 107.133 24.8368C107.461 24.9767 107.842 25.1135 108.273 25.2473C108.997 25.4662 109.633 25.7126 110.18 25.9862C110.733 26.2599 111.196 26.5671 111.567 26.9077C111.938 27.2482 112.217 27.6344 112.406 28.0662C112.594 28.4981 112.689 28.9876 112.689 29.535C112.689 30.1128 112.576 30.6298 112.351 31.0859C112.126 31.542 111.801 31.9282 111.375 32.2445C110.949 32.5607 110.442 32.801 109.852 32.9652C109.262 33.1294 108.602 33.2115 107.872 33.2115C107.215 33.2115 106.567 33.1264 105.929 32.9561C105.29 32.7797 104.709 32.5151 104.186 32.1624C103.669 31.8096 103.256 31.3596 102.946 30.8122C102.635 30.2648 102.48 29.6171 102.48 28.8691H105.226C105.226 29.2826 105.29 29.6323 105.418 29.9182C105.546 30.204 105.725 30.4351 105.956 30.6115C106.193 30.7879 106.473 30.9156 106.795 30.9947C107.124 31.0737 107.483 31.1133 107.872 31.1133C108.346 31.1133 108.736 31.0464 109.04 30.9126C109.35 30.7788 109.578 30.5933 109.724 30.3561C109.876 30.1189 109.952 29.8513 109.952 29.5533ZM124.743 25.1561V27.2908H117.809V25.1561H124.743ZM118.621 19.7462V33.0291H115.884V19.7462H118.621ZM126.695 19.7462V33.0291H123.967V19.7462H126.695ZM133.321 19.7462V33.0291H130.593V19.7462H133.321ZM142.391 28.2943H139.007V26.1596H142.391C142.914 26.1596 143.34 26.0744 143.669 25.9041C143.997 25.7278 144.237 25.4845 144.389 25.1743C144.541 24.8641 144.617 24.5144 144.617 24.1252C144.617 23.7299 144.541 23.3619 144.389 23.0213C144.237 22.6808 143.997 22.4071 143.669 22.2003C143.34 21.9935 142.914 21.8901 142.391 21.8901H139.956V33.0291H137.219V19.7462H142.391C143.431 19.7462 144.322 19.9348 145.064 20.3119C145.812 20.6829 146.384 21.1968 146.779 21.8536C147.175 22.5105 147.372 23.2616 147.372 24.1069C147.372 24.9645 147.175 25.7065 146.779 26.3329C146.384 26.9593 145.812 27.4429 145.064 27.7834C144.322 28.124 143.431 28.2943 142.391 28.2943ZM162.029 19.7462V33.0291H159.301V19.7462H162.029ZM166.116 19.7462V21.8901H155.278V19.7462H166.116ZM177.923 30.8943V33.0291H170.853V30.8943H177.923ZM171.747 19.7462V33.0291H169.01V19.7462H171.747ZM177.002 25.1561V27.2361H170.853V25.1561H177.002ZM177.914 19.7462V21.8901H170.853V19.7462H177.914ZM186.255 22.0178L182.642 33.0291H179.732L184.668 19.7462H186.52L186.255 22.0178ZM189.256 33.0291L185.635 22.0178L185.343 19.7462H187.213L192.176 33.0291H189.256ZM189.092 28.0845V30.2284H182.077V28.0845H189.092ZM195.992 19.7462H198.309L201.721 29.4985L205.133 19.7462H207.45L202.651 33.0291H200.79L195.992 19.7462ZM194.742 19.7462H197.05L197.47 29.2522V33.0291H194.742V19.7462ZM206.392 19.7462H208.709V33.0291H205.972V29.2522L206.392 19.7462Z" fill="#F38313"/>
</svg>
