<svg width="170" height="49" viewBox="0 0 170 49" fill="none" xmlns="http://www.w3.org/2000/svg">
<rect y="0.726562" width="170" height="48" rx="24" fill="#DCECFF"/>
<path d="M22.3467 17.9297H24.5791L27.8662 27.3252L31.1533 17.9297H33.3857L28.7627 30.7266H26.9697L22.3467 17.9297ZM21.1426 17.9297H23.3662L23.7705 27.0879V30.7266H21.1426V17.9297ZM32.3662 17.9297H34.5986V30.7266H31.9619V27.0879L32.3662 17.9297ZM48.8311 24.0293V24.6357C48.8311 25.6084 48.6992 26.4814 48.4356 27.2549C48.1719 28.0283 47.7998 28.6875 47.3193 29.2324C46.8389 29.7715 46.2647 30.1846 45.5967 30.4717C44.9346 30.7588 44.1992 30.9023 43.3906 30.9023C42.5879 30.9023 41.8525 30.7588 41.1846 30.4717C40.5225 30.1846 39.9482 29.7715 39.4619 29.2324C38.9756 28.6875 38.5977 28.0283 38.3281 27.2549C38.0645 26.4814 37.9326 25.6084 37.9326 24.6357V24.0293C37.9326 23.0508 38.0645 22.1777 38.3281 21.4102C38.5918 20.6367 38.9639 19.9775 39.4443 19.4326C39.9307 18.8877 40.5049 18.4717 41.167 18.1846C41.835 17.8975 42.5703 17.7539 43.3731 17.7539C44.1816 17.7539 44.917 17.8975 45.5791 18.1846C46.2471 18.4717 46.8213 18.8877 47.3018 19.4326C47.7881 19.9775 48.1631 20.6367 48.4268 21.4102C48.6963 22.1777 48.8311 23.0508 48.8311 24.0293ZM46.168 24.6357V24.0117C46.168 23.332 46.1064 22.7344 45.9834 22.2188C45.8604 21.7031 45.6787 21.2695 45.4385 20.918C45.1982 20.5664 44.9053 20.3027 44.5596 20.127C44.2139 19.9453 43.8184 19.8545 43.3731 19.8545C42.9277 19.8545 42.5322 19.9453 42.1865 20.127C41.8467 20.3027 41.5566 20.5664 41.3164 20.918C41.082 21.2695 40.9033 21.7031 40.7803 22.2188C40.6572 22.7344 40.5957 23.332 40.5957 24.0117V24.6357C40.5957 25.3096 40.6572 25.9072 40.7803 26.4287C40.9033 26.9443 41.085 27.3809 41.3252 27.7383C41.5654 28.0898 41.8584 28.3564 42.2041 28.5381C42.5498 28.7197 42.9453 28.8105 43.3906 28.8105C43.8359 28.8105 44.2314 28.7197 44.5772 28.5381C44.9229 28.3564 45.2129 28.0898 45.4473 27.7383C45.6816 27.3809 45.8604 26.9443 45.9834 26.4287C46.1064 25.9072 46.168 25.3096 46.168 24.6357ZM57.1484 25.1104H53.8613L53.8438 23.2998H56.6035C57.0899 23.2998 57.4883 23.2383 57.7988 23.1152C58.1094 22.9863 58.3408 22.8018 58.4932 22.5615C58.6514 22.3154 58.7305 22.0166 58.7305 21.665C58.7305 21.2666 58.6543 20.9443 58.502 20.6982C58.3555 20.4521 58.124 20.2734 57.8076 20.1621C57.4971 20.0508 57.0957 19.9951 56.6035 19.9951H54.7754V30.7266H52.1387V17.9297H56.6035C57.3477 17.9297 58.0127 18 58.5986 18.1406C59.1904 18.2812 59.6914 18.4951 60.1016 18.7822C60.5117 19.0693 60.8252 19.4326 61.042 19.8721C61.2588 20.3057 61.3672 20.8213 61.3672 21.4189C61.3672 21.9463 61.2471 22.4326 61.0068 22.8779C60.7725 23.3232 60.4004 23.6865 59.8906 23.9678C59.3867 24.249 58.7275 24.4043 57.9131 24.4336L57.1484 25.1104ZM57.0342 30.7266H53.1406L54.169 28.6699H57.0342C57.4971 28.6699 57.875 28.5967 58.168 28.4502C58.4609 28.2979 58.6777 28.0928 58.8184 27.835C58.959 27.5771 59.0293 27.2812 59.0293 26.9473C59.0293 26.5723 58.9649 26.2471 58.8359 25.9717C58.7129 25.6963 58.5137 25.4854 58.2383 25.3389C57.9629 25.1865 57.5996 25.1104 57.1484 25.1104H54.6084L54.626 23.2998H57.79L58.3965 24.0117C59.1758 24 59.8027 24.1377 60.2774 24.4248C60.7578 24.7061 61.1065 25.0723 61.3232 25.5234C61.5459 25.9746 61.6572 26.458 61.6572 26.9736C61.6572 27.7939 61.4785 28.4854 61.1211 29.0479C60.7637 29.6045 60.2393 30.0234 59.5479 30.3047C58.8623 30.5859 58.0244 30.7266 57.0342 30.7266ZM67.8477 17.9297V30.7266H65.2197V17.9297H67.8477ZM79.9531 28.6699V30.7266H73.5108V28.6699H79.9531ZM74.3633 17.9297V30.7266H71.7266V17.9297H74.3633ZM91.461 28.6699V30.7266H84.6494V28.6699H91.461ZM85.5108 17.9297V30.7266H82.874V17.9297H85.5108ZM90.5733 23.1416V25.1455H84.6494V23.1416H90.5733ZM91.4522 17.9297V19.9951H84.6494V17.9297H91.4522ZM105.503 20.1182L102.022 30.7266H99.2188L103.974 17.9297H105.758L105.503 20.1182ZM108.395 30.7266L104.905 20.1182L104.624 17.9297H106.426L111.207 30.7266H108.395ZM108.236 25.9629V28.0283H101.478V25.9629H108.236ZM118.786 26.165H115.525V24.1084H118.786C119.29 24.1084 119.7 24.0264 120.017 23.8623C120.333 23.6924 120.564 23.458 120.711 23.1592C120.857 22.8604 120.931 22.5234 120.931 22.1484C120.931 21.7676 120.857 21.4131 120.711 21.085C120.564 20.7568 120.333 20.4932 120.017 20.2939C119.7 20.0947 119.29 19.9951 118.786 19.9951H116.439V30.7266H113.803V17.9297H118.786C119.788 17.9297 120.647 18.1113 121.361 18.4746C122.082 18.832 122.633 19.3271 123.014 19.96C123.395 20.5928 123.585 21.3164 123.585 22.1309C123.585 22.957 123.395 23.6719 123.014 24.2754C122.633 24.8789 122.082 25.3447 121.361 25.6729C120.647 26.001 119.788 26.165 118.786 26.165ZM131.797 26.165H128.536V24.1084H131.797C132.301 24.1084 132.711 24.0264 133.027 23.8623C133.344 23.6924 133.575 23.458 133.722 23.1592C133.868 22.8604 133.941 22.5234 133.941 22.1484C133.941 21.7676 133.868 21.4131 133.722 21.085C133.575 20.7568 133.344 20.4932 133.027 20.2939C132.711 20.0947 132.301 19.9951 131.797 19.9951H129.45V30.7266H126.814V17.9297H131.797C132.799 17.9297 133.657 18.1113 134.372 18.4746C135.093 18.832 135.644 19.3271 136.024 19.96C136.405 20.5928 136.596 21.3164 136.596 22.1309C136.596 22.957 136.405 23.6719 136.024 24.2754C135.644 24.8789 135.093 25.3447 134.372 25.6729C133.657 26.001 132.799 26.165 131.797 26.165ZM146.486 27.3779C146.486 27.1494 146.451 26.9443 146.381 26.7627C146.316 26.5752 146.193 26.4053 146.012 26.2529C145.83 26.0947 145.575 25.9395 145.247 25.7871C144.919 25.6348 144.494 25.4766 143.973 25.3125C143.393 25.125 142.842 24.9141 142.32 24.6797C141.805 24.4453 141.348 24.1729 140.949 23.8623C140.557 23.5459 140.246 23.1797 140.018 22.7637C139.795 22.3477 139.684 21.8643 139.684 21.3135C139.684 20.7803 139.801 20.2969 140.035 19.8633C140.27 19.4238 140.598 19.0488 141.02 18.7383C141.441 18.4219 141.939 18.1787 142.514 18.0088C143.094 17.8389 143.73 17.7539 144.421 17.7539C145.364 17.7539 146.188 17.9238 146.891 18.2637C147.594 18.6035 148.139 19.0693 148.525 19.6611C148.918 20.2529 149.114 20.9297 149.114 21.6914H146.495C146.495 21.3164 146.416 20.9883 146.258 20.707C146.106 20.4199 145.871 20.1943 145.555 20.0303C145.244 19.8662 144.852 19.7842 144.377 19.7842C143.92 19.7842 143.539 19.8545 143.234 19.9951C142.93 20.1299 142.701 20.3145 142.549 20.5488C142.397 20.7773 142.32 21.0352 142.32 21.3223C142.32 21.5391 142.373 21.7354 142.479 21.9111C142.59 22.0869 142.754 22.251 142.971 22.4033C143.188 22.5557 143.454 22.6992 143.771 22.834C144.087 22.9688 144.453 23.1006 144.869 23.2295C145.566 23.4404 146.179 23.6777 146.706 23.9414C147.239 24.2051 147.685 24.501 148.042 24.8291C148.399 25.1572 148.669 25.5293 148.851 25.9453C149.032 26.3613 149.123 26.833 149.123 27.3604C149.123 27.917 149.015 28.415 148.798 28.8545C148.581 29.2939 148.268 29.666 147.857 29.9707C147.447 30.2754 146.958 30.5068 146.39 30.665C145.821 30.8232 145.186 30.9023 144.482 30.9023C143.85 30.9023 143.226 30.8203 142.61 30.6562C141.995 30.4863 141.436 30.2314 140.932 29.8916C140.434 29.5518 140.035 29.1182 139.736 28.5908C139.438 28.0635 139.288 27.4395 139.288 26.7188H141.934C141.934 27.1172 141.995 27.4541 142.118 27.7295C142.241 28.0049 142.414 28.2275 142.637 28.3975C142.865 28.5674 143.135 28.6904 143.445 28.7666C143.762 28.8428 144.107 28.8809 144.482 28.8809C144.939 28.8809 145.314 28.8164 145.607 28.6875C145.906 28.5586 146.126 28.3799 146.267 28.1514C146.413 27.9229 146.486 27.665 146.486 27.3779Z" fill="#2563AC"/>
</svg>
