<svg width="160" height="54" viewBox="0 0 160 54" fill="none" xmlns="http://www.w3.org/2000/svg">
<rect x="15" y="11" width="132" height="32" rx="16" fill="#DCECFF"/>
<path d="M32.8252 22.0469H34.5615L37.1182 29.3545L39.6748 22.0469H41.4111L37.8154 32H36.4209L32.8252 22.0469ZM31.8887 22.0469H33.6182L33.9326 29.1699V32H31.8887V22.0469ZM40.6182 22.0469H42.3545V32H40.3037V29.1699L40.6182 22.0469ZM53.3281 26.791V27.2627C53.3281 28.0192 53.2256 28.6982 53.0205 29.2998C52.8154 29.9014 52.526 30.4141 52.1523 30.8379C51.7786 31.2572 51.332 31.5785 50.8125 31.8018C50.2975 32.0251 49.7256 32.1367 49.0967 32.1367C48.4723 32.1367 47.9004 32.0251 47.3809 31.8018C46.8659 31.5785 46.4193 31.2572 46.041 30.8379C45.6628 30.4141 45.3688 29.9014 45.1592 29.2998C44.9541 28.6982 44.8516 28.0192 44.8516 27.2627V26.791C44.8516 26.0299 44.9541 25.3509 45.1592 24.7539C45.3643 24.1523 45.6536 23.6396 46.0273 23.2158C46.4056 22.792 46.8522 22.4684 47.3672 22.2451C47.8867 22.0218 48.4587 21.9102 49.083 21.9102C49.7119 21.9102 50.2839 22.0218 50.7988 22.2451C51.3184 22.4684 51.765 22.792 52.1387 23.2158C52.5169 23.6396 52.8086 24.1523 53.0137 24.7539C53.2233 25.3509 53.3281 26.0299 53.3281 26.791ZM51.2568 27.2627V26.7773C51.2568 26.2487 51.209 25.7839 51.1133 25.3828C51.0176 24.9818 50.8763 24.6445 50.6895 24.3711C50.5026 24.0977 50.2747 23.8926 50.0059 23.7559C49.737 23.6146 49.4294 23.5439 49.083 23.5439C48.7367 23.5439 48.429 23.6146 48.1602 23.7559C47.8958 23.8926 47.6702 24.0977 47.4834 24.3711C47.3011 24.6445 47.1621 24.9818 47.0664 25.3828C46.9707 25.7839 46.9229 26.2487 46.9229 26.7773V27.2627C46.9229 27.7868 46.9707 28.2516 47.0664 28.6572C47.1621 29.0583 47.3034 29.3978 47.4902 29.6758C47.6771 29.9492 47.9049 30.1566 48.1738 30.2979C48.4427 30.4391 48.7503 30.5098 49.0967 30.5098C49.443 30.5098 49.7507 30.4391 50.0195 30.2979C50.2884 30.1566 50.514 29.9492 50.6963 29.6758C50.8786 29.3978 51.0176 29.0583 51.1133 28.6572C51.209 28.2516 51.2568 27.7868 51.2568 27.2627ZM59.7012 27.6318H57.1445L57.1309 26.2236H59.2773C59.6556 26.2236 59.9655 26.1758 60.207 26.0801C60.4486 25.9798 60.6286 25.8363 60.7471 25.6494C60.8701 25.458 60.9316 25.2256 60.9316 24.9521C60.9316 24.6423 60.8724 24.3916 60.7539 24.2002C60.64 24.0088 60.46 23.8698 60.2139 23.7832C59.9723 23.6966 59.6602 23.6533 59.2773 23.6533H57.8555V32H55.8047V22.0469H59.2773C59.8561 22.0469 60.3734 22.1016 60.8291 22.2109C61.2894 22.3203 61.679 22.4867 61.998 22.71C62.3171 22.9333 62.5609 23.2158 62.7295 23.5576C62.8981 23.8949 62.9824 24.2959 62.9824 24.7607C62.9824 25.1709 62.889 25.5492 62.7021 25.8955C62.5199 26.2419 62.2305 26.5244 61.834 26.7432C61.4421 26.9619 60.9294 27.0827 60.2959 27.1055L59.7012 27.6318ZM59.6123 32H56.584L57.3838 30.4004H59.6123C59.9723 30.4004 60.2663 30.3434 60.4941 30.2295C60.722 30.111 60.8906 29.9515 61 29.751C61.1094 29.5505 61.1641 29.3203 61.1641 29.0605C61.1641 28.7689 61.1139 28.516 61.0137 28.3018C60.918 28.0876 60.763 27.9235 60.5488 27.8096C60.3346 27.6911 60.0521 27.6318 59.7012 27.6318H57.7256L57.7393 26.2236H60.2002L60.6719 26.7773C61.278 26.7682 61.7656 26.8753 62.1348 27.0986C62.5085 27.3174 62.7796 27.6022 62.9482 27.9531C63.1214 28.304 63.208 28.68 63.208 29.0811C63.208 29.7191 63.069 30.2568 62.791 30.6943C62.513 31.1273 62.1051 31.4531 61.5674 31.6719C61.0342 31.8906 60.3825 32 59.6123 32ZM67.9268 22.0469V32H65.8828V22.0469H67.9268ZM77.2461 30.4004V32H72.2354V30.4004H77.2461ZM72.8984 22.0469V32H70.8477V22.0469H72.8984ZM86.1006 30.4004V32H80.8027V30.4004H86.1006ZM81.4727 22.0469V32H79.4219V22.0469H81.4727ZM85.4102 26.1006V27.6592H80.8027V26.1006H85.4102ZM86.0938 22.0469V23.6533H80.8027V22.0469H86.0938ZM96.8301 23.749L94.123 32H91.9424L95.6406 22.0469H97.0283L96.8301 23.749ZM99.0791 32L96.3652 23.749L96.1465 22.0469H97.5479L101.267 32H99.0791ZM98.9561 28.2949V29.9014H93.6992V28.2949H98.9561ZM107.065 28.4521H104.529V26.8525H107.065C107.457 26.8525 107.776 26.7887 108.022 26.6611C108.269 26.529 108.449 26.3467 108.562 26.1143C108.676 25.8818 108.733 25.6198 108.733 25.3281C108.733 25.0319 108.676 24.7562 108.562 24.501C108.449 24.2458 108.269 24.0407 108.022 23.8857C107.776 23.7308 107.457 23.6533 107.065 23.6533H105.24V32H103.189V22.0469H107.065C107.845 22.0469 108.512 22.1882 109.068 22.4707C109.629 22.7487 110.057 23.1338 110.354 23.626C110.65 24.1182 110.798 24.681 110.798 25.3145C110.798 25.957 110.65 26.513 110.354 26.9824C110.057 27.4518 109.629 27.8141 109.068 28.0693C108.512 28.3245 107.845 28.4521 107.065 28.4521ZM117.089 28.4521H114.553V26.8525H117.089C117.481 26.8525 117.8 26.7887 118.046 26.6611C118.292 26.529 118.472 26.3467 118.586 26.1143C118.7 25.8818 118.757 25.6198 118.757 25.3281C118.757 25.0319 118.7 24.7562 118.586 24.501C118.472 24.2458 118.292 24.0407 118.046 23.8857C117.8 23.7308 117.481 23.6533 117.089 23.6533H115.264V32H113.213V22.0469H117.089C117.868 22.0469 118.536 22.1882 119.092 22.4707C119.652 22.7487 120.081 23.1338 120.377 23.626C120.673 24.1182 120.821 24.681 120.821 25.3145C120.821 25.957 120.673 26.513 120.377 26.9824C120.081 27.4518 119.652 27.8141 119.092 28.0693C118.536 28.3245 117.868 28.4521 117.089 28.4521ZM128.418 29.3955C128.418 29.2178 128.391 29.0583 128.336 28.917C128.286 28.7712 128.19 28.639 128.049 28.5205C127.908 28.3975 127.709 28.2767 127.454 28.1582C127.199 28.0397 126.868 27.9167 126.463 27.7891C126.012 27.6432 125.583 27.4792 125.178 27.2969C124.777 27.1146 124.421 26.9027 124.111 26.6611C123.806 26.415 123.564 26.1302 123.387 25.8066C123.214 25.4831 123.127 25.1071 123.127 24.6787C123.127 24.264 123.218 23.888 123.4 23.5508C123.583 23.209 123.838 22.9173 124.166 22.6758C124.494 22.4297 124.882 22.2406 125.328 22.1084C125.779 21.9762 126.274 21.9102 126.812 21.9102C127.545 21.9102 128.186 22.0423 128.732 22.3066C129.279 22.571 129.703 22.9333 130.004 23.3936C130.309 23.8538 130.462 24.3802 130.462 24.9727H128.425C128.425 24.681 128.363 24.4258 128.24 24.207C128.122 23.9837 127.939 23.8083 127.693 23.6807C127.452 23.5531 127.146 23.4893 126.777 23.4893C126.422 23.4893 126.126 23.5439 125.889 23.6533C125.652 23.7581 125.474 23.9017 125.355 24.084C125.237 24.2617 125.178 24.4622 125.178 24.6855C125.178 24.8542 125.219 25.0068 125.301 25.1436C125.387 25.2803 125.515 25.4079 125.684 25.5264C125.852 25.6449 126.06 25.7565 126.306 25.8613C126.552 25.9661 126.837 26.0687 127.16 26.1689C127.702 26.333 128.179 26.5176 128.589 26.7227C129.004 26.9277 129.35 27.1579 129.628 27.4131C129.906 27.6683 130.116 27.9577 130.257 28.2812C130.398 28.6048 130.469 28.9717 130.469 29.3818C130.469 29.8148 130.384 30.2021 130.216 30.5439C130.047 30.8857 129.803 31.1751 129.484 31.4121C129.165 31.6491 128.785 31.8291 128.343 31.9521C127.901 32.0752 127.406 32.1367 126.859 32.1367C126.367 32.1367 125.882 32.0729 125.403 31.9453C124.925 31.8132 124.49 31.6149 124.098 31.3506C123.71 31.0863 123.4 30.749 123.168 30.3389C122.936 29.9287 122.819 29.4434 122.819 28.8828H124.877C124.877 29.1927 124.925 29.4548 125.021 29.6689C125.116 29.8831 125.251 30.0563 125.424 30.1885C125.602 30.3206 125.811 30.4163 126.053 30.4756C126.299 30.5348 126.568 30.5645 126.859 30.5645C127.215 30.5645 127.507 30.5143 127.734 30.4141C127.967 30.3138 128.138 30.1748 128.247 29.9971C128.361 29.8193 128.418 29.6188 128.418 29.3955Z" fill="#2563AC"/>
<path d="M144 10C145.167 9 147.5 5.8 147.5 1M147.5 13C149.5 11.3333 153.5 7.5 153.5 5.5M151.5 17C154 15.3333 159 11.6 159 10" stroke="black" stroke-linecap="round"/>
<path d="M16.4363 44.7214C15.101 45.4816 12.2024 48.1803 11.2908 52.8929M13.5698 41.1113C11.2897 42.3678 6.63443 45.3717 6.25459 47.3353M10.4023 36.4244C7.63123 37.586 2.0132 40.3017 1.70933 41.8726" stroke="black" stroke-linecap="round"/>
</svg>
