<svg width="169" height="58" viewBox="0 0 169 58" fill="none" xmlns="http://www.w3.org/2000/svg">
<rect x="17" y="13" width="138" height="36" rx="16" fill="#FFE6CF"/>
<path d="M45.0645 30.791V31.2627C45.0645 32.0192 44.9619 32.6982 44.7568 33.2998C44.5518 33.9014 44.2624 34.4141 43.8887 34.8379C43.515 35.2572 43.0684 35.5785 42.5488 35.8018C42.0339 36.0251 41.4619 36.1367 40.833 36.1367C40.2087 36.1367 39.6367 36.0251 39.1172 35.8018C38.6022 35.5785 38.1556 35.2572 37.7773 34.8379C37.3991 34.4141 37.1051 33.9014 36.8955 33.2998C36.6904 32.6982 36.5879 32.0192 36.5879 31.2627V30.791C36.5879 30.0299 36.6904 29.3509 36.8955 28.7539C37.1006 28.1523 37.39 27.6396 37.7637 27.2158C38.1419 26.792 38.5885 26.4684 39.1035 26.2451C39.623 26.0218 40.195 25.9102 40.8193 25.9102C41.4482 25.9102 42.0202 26.0218 42.5352 26.2451C43.0547 26.4684 43.5013 26.792 43.875 27.2158C44.2533 27.6396 44.5449 28.1523 44.75 28.7539C44.9596 29.3509 45.0645 30.0299 45.0645 30.791ZM42.9932 31.2627V30.7773C42.9932 30.2487 42.9453 29.7839 42.8496 29.3828C42.7539 28.9818 42.6126 28.6445 42.4258 28.3711C42.2389 28.0977 42.0111 27.8926 41.7422 27.7559C41.4733 27.6146 41.1657 27.5439 40.8193 27.5439C40.473 27.5439 40.1654 27.6146 39.8965 27.7559C39.6322 27.8926 39.4066 28.0977 39.2197 28.3711C39.0374 28.6445 38.8984 28.9818 38.8027 29.3828C38.707 29.7839 38.6592 30.2487 38.6592 30.7773V31.2627C38.6592 31.7868 38.707 32.2516 38.8027 32.6572C38.8984 33.0583 39.0397 33.3978 39.2266 33.6758C39.4134 33.9492 39.6413 34.1566 39.9102 34.2979C40.179 34.4391 40.4867 34.5098 40.833 34.5098C41.1794 34.5098 41.487 34.4391 41.7559 34.2979C42.0247 34.1566 42.2503 33.9492 42.4326 33.6758C42.6149 33.3978 42.7539 33.0583 42.8496 32.6572C42.9453 32.2516 42.9932 31.7868 42.9932 31.2627ZM53.0371 26.0469H55.0811V32.623C55.0811 33.3887 54.917 34.0335 54.5889 34.5576C54.2653 35.0817 53.8164 35.4759 53.2422 35.7402C52.6725 36.0046 52.0163 36.1367 51.2734 36.1367C50.5306 36.1367 49.8698 36.0046 49.291 35.7402C48.7168 35.4759 48.2656 35.0817 47.9375 34.5576C47.6139 34.0335 47.4521 33.3887 47.4521 32.623V26.0469H49.5029V32.623C49.5029 33.0697 49.5736 33.4342 49.7148 33.7168C49.8561 33.9993 50.0589 34.2067 50.3232 34.3389C50.5921 34.471 50.9089 34.5371 51.2734 34.5371C51.6471 34.5371 51.9639 34.471 52.2236 34.3389C52.488 34.2067 52.6885 33.9993 52.8252 33.7168C52.9665 33.4342 53.0371 33.0697 53.0371 32.623V26.0469ZM57.7695 26.0469H61.4814C62.2425 26.0469 62.8965 26.1608 63.4434 26.3887C63.9948 26.6165 64.4186 26.9538 64.7148 27.4004C65.0111 27.847 65.1592 28.3962 65.1592 29.0479C65.1592 29.5811 65.068 30.0391 64.8857 30.4219C64.708 30.8001 64.4551 31.1169 64.127 31.3721C63.8034 31.6227 63.4229 31.8232 62.9854 31.9736L62.3359 32.3154H59.1094L59.0957 30.7158H61.4951C61.8551 30.7158 62.1536 30.652 62.3906 30.5244C62.6276 30.3968 62.8053 30.2191 62.9238 29.9912C63.0469 29.7633 63.1084 29.499 63.1084 29.1982C63.1084 28.8792 63.0492 28.6035 62.9307 28.3711C62.8122 28.1387 62.6322 27.9609 62.3906 27.8379C62.1491 27.7148 61.846 27.6533 61.4814 27.6533H59.8203V36H57.7695V26.0469ZM63.334 36L61.0645 31.5635L63.2314 31.5498L65.5283 35.9043V36H63.334ZM77.9941 32.6982H80.0381C79.9971 33.3682 79.8125 33.9629 79.4844 34.4824C79.1608 35.002 78.7074 35.4076 78.124 35.6992C77.5452 35.9909 76.848 36.1367 76.0322 36.1367C75.3942 36.1367 74.8223 36.0273 74.3164 35.8086C73.8105 35.5853 73.3776 35.2663 73.0176 34.8516C72.6621 34.4368 72.391 33.9355 72.2041 33.3477C72.0173 32.7598 71.9238 32.1012 71.9238 31.3721V30.6816C71.9238 29.9525 72.0195 29.2939 72.2109 28.7061C72.4069 28.1136 72.6849 27.61 73.0449 27.1953C73.4095 26.7806 73.8447 26.4616 74.3506 26.2383C74.8564 26.015 75.4215 25.9033 76.0459 25.9033C76.8753 25.9033 77.5749 26.0537 78.1445 26.3545C78.7188 26.6553 79.1631 27.07 79.4775 27.5986C79.7965 28.1273 79.988 28.7288 80.0518 29.4033H78.001C77.9782 29.0023 77.8984 28.6628 77.7617 28.3848C77.625 28.1022 77.4176 27.8903 77.1396 27.749C76.8662 27.6032 76.5016 27.5303 76.0459 27.5303C75.7041 27.5303 75.4056 27.5941 75.1504 27.7217C74.8952 27.8493 74.681 28.043 74.5078 28.3027C74.3346 28.5625 74.2048 28.8906 74.1182 29.2871C74.0361 29.679 73.9951 30.1393 73.9951 30.668V31.3721C73.9951 31.887 74.0339 32.3405 74.1113 32.7324C74.1888 33.1198 74.3073 33.4479 74.4668 33.7168C74.6309 33.9811 74.8405 34.1816 75.0957 34.3184C75.3555 34.4505 75.6676 34.5166 76.0322 34.5166C76.4606 34.5166 76.8138 34.4482 77.0918 34.3115C77.3698 34.1748 77.5817 33.972 77.7275 33.7031C77.8779 33.4342 77.9668 33.0993 77.9941 32.6982ZM88.7832 34.4004V36H83.7725V34.4004H88.7832ZM84.4355 26.0469V36H82.3848V26.0469H84.4355ZM93.1396 26.0469V36H91.0957V26.0469H93.1396ZM102.739 34.4004V36H97.4414V34.4004H102.739ZM98.1113 26.0469V36H96.0605V26.0469H98.1113ZM102.049 30.1006V31.6592H97.4414V30.1006H102.049ZM102.732 26.0469V27.6533H97.4414V26.0469H102.732ZM113.036 26.0469V36H110.985L106.986 29.3281V36H104.936V26.0469H106.986L110.992 32.7256V26.0469H113.036ZM120.065 26.0469V36H118.021V26.0469H120.065ZM123.128 26.0469V27.6533H115.007V26.0469H123.128ZM130.369 33.3955C130.369 33.2178 130.342 33.0583 130.287 32.917C130.237 32.7712 130.141 32.639 130 32.5205C129.859 32.3975 129.66 32.2767 129.405 32.1582C129.15 32.0397 128.82 31.9167 128.414 31.7891C127.963 31.6432 127.535 31.4792 127.129 31.2969C126.728 31.1146 126.372 30.9027 126.062 30.6611C125.757 30.415 125.516 30.1302 125.338 29.8066C125.165 29.4831 125.078 29.1071 125.078 28.6787C125.078 28.264 125.169 27.888 125.352 27.5508C125.534 27.209 125.789 26.9173 126.117 26.6758C126.445 26.4297 126.833 26.2406 127.279 26.1084C127.73 25.9762 128.225 25.9102 128.763 25.9102C129.496 25.9102 130.137 26.0423 130.684 26.3066C131.23 26.571 131.654 26.9333 131.955 27.3936C132.26 27.8538 132.413 28.3802 132.413 28.9727H130.376C130.376 28.681 130.314 28.4258 130.191 28.207C130.073 27.9837 129.891 27.8083 129.645 27.6807C129.403 27.5531 129.098 27.4893 128.729 27.4893C128.373 27.4893 128.077 27.5439 127.84 27.6533C127.603 27.7581 127.425 27.9017 127.307 28.084C127.188 28.2617 127.129 28.4622 127.129 28.6855C127.129 28.8542 127.17 29.0068 127.252 29.1436C127.339 29.2803 127.466 29.4079 127.635 29.5264C127.803 29.6449 128.011 29.7565 128.257 29.8613C128.503 29.9661 128.788 30.0687 129.111 30.1689C129.654 30.333 130.13 30.5176 130.54 30.7227C130.955 30.9277 131.301 31.1579 131.579 31.4131C131.857 31.6683 132.067 31.9577 132.208 32.2812C132.349 32.6048 132.42 32.9717 132.42 33.3818C132.42 33.8148 132.336 34.2021 132.167 34.5439C131.998 34.8857 131.755 35.1751 131.436 35.4121C131.117 35.6491 130.736 35.8291 130.294 35.9521C129.852 36.0752 129.357 36.1367 128.811 36.1367C128.318 36.1367 127.833 36.0729 127.354 35.9453C126.876 35.8132 126.441 35.6149 126.049 35.3506C125.661 35.0863 125.352 34.749 125.119 34.3389C124.887 33.9287 124.771 33.4434 124.771 32.8828H126.828C126.828 33.1927 126.876 33.4548 126.972 33.6689C127.067 33.8831 127.202 34.0563 127.375 34.1885C127.553 34.3206 127.762 34.4163 128.004 34.4756C128.25 34.5348 128.519 34.5645 128.811 34.5645C129.166 34.5645 129.458 34.5143 129.686 34.4141C129.918 34.3138 130.089 34.1748 130.198 33.9971C130.312 33.8193 130.369 33.6188 130.369 33.3955Z" fill="#F38313"/>
<path d="M151 11.1567C152.317 10.0282 154.95 6.4169 154.95 1M154.95 14.5423C157.207 12.6614 161.721 8.33539 161.721 6.07834M159.464 19.0563C162.285 17.1755 167.928 12.9623 167.928 11.1567" stroke="black" stroke-linecap="round"/>
<path d="M18.5486 47.2122C17.0416 48.0702 13.7705 51.1156 12.7417 56.4339M15.3136 43.1382C12.7405 44.5561 7.48694 47.9461 7.05828 50.162M11.739 37.8489C8.61185 39.1597 2.27178 42.2246 1.92886 43.9973" stroke="black" stroke-linecap="round"/>
</svg>
