<svg width="172" height="42" viewBox="0 0 172 42" fill="none" xmlns="http://www.w3.org/2000/svg">
<rect x="0.836426" y="0.713867" width="170.667" height="41.0591" rx="20.5296" fill="#DCECFF"/>
<path d="M32.9304 20.1378V20.7672C32.9304 21.7767 32.7936 22.6829 32.5199 23.4856C32.2463 24.2884 31.8601 24.9725 31.3614 25.5381C30.8628 26.0976 30.2668 26.5263 29.5735 26.8243C28.8863 27.1223 28.1231 27.2713 27.2838 27.2713C26.4507 27.2713 25.6875 27.1223 24.9942 26.8243C24.307 26.5263 23.711 26.0976 23.2062 25.5381C22.7015 24.9725 22.3092 24.2884 22.0295 23.4856C21.7558 22.6829 21.619 21.7767 21.619 20.7672V20.1378C21.619 19.1222 21.7558 18.2161 22.0295 17.4194C22.3031 16.6166 22.6893 15.9325 23.188 15.3669C23.6927 14.8013 24.2887 14.3696 24.9759 14.0716C25.6692 13.7736 26.4324 13.6246 27.2656 13.6246C28.1048 13.6246 28.868 13.7736 29.5552 14.0716C30.2485 14.3696 30.8445 14.8013 31.3432 15.3669C31.8479 15.9325 32.2372 16.6166 32.5108 17.4194C32.7906 18.2161 32.9304 19.1222 32.9304 20.1378ZM30.1664 20.7672V20.1195C30.1664 19.4141 30.1026 18.7938 29.9749 18.2586C29.8472 17.7235 29.6586 17.2734 29.4093 16.9086C29.1599 16.5437 28.8559 16.27 28.4971 16.0876C28.1383 15.899 27.7278 15.8048 27.2656 15.8048C26.8034 15.8048 26.3929 15.899 26.0341 16.0876C25.6814 16.27 25.3803 16.5437 25.131 16.9086C24.8877 17.2734 24.7023 17.7235 24.5746 18.2586C24.4468 18.7938 24.383 19.4141 24.383 20.1195V20.7672C24.383 21.4666 24.4468 22.0869 24.5746 22.6281C24.7023 23.1633 24.8908 23.6164 25.1401 23.9873C25.3895 24.3522 25.6935 24.6289 26.0523 24.8175C26.4111 25.006 26.8216 25.1002 27.2838 25.1002C27.746 25.1002 28.1565 25.006 28.5153 24.8175C28.8741 24.6289 29.1752 24.3522 29.4184 23.9873C29.6617 23.6164 29.8472 23.1633 29.9749 22.6281C30.1026 22.0869 30.1664 21.4666 30.1664 20.7672ZM43.5695 13.807H46.297V22.5825C46.297 23.6042 46.0781 24.4647 45.6402 25.1641C45.2084 25.8635 44.6094 26.3895 43.8431 26.7422C43.0829 27.0949 42.2072 27.2713 41.2159 27.2713C40.2247 27.2713 39.3429 27.0949 38.5705 26.7422C37.8043 26.3895 37.2022 25.8635 36.7643 25.1641C36.3326 24.4647 36.1167 23.6042 36.1167 22.5825V13.807H38.8533V22.5825C38.8533 23.1785 38.9476 23.665 39.1361 24.0421C39.3246 24.4191 39.5952 24.6958 39.948 24.8722C40.3068 25.0485 40.7294 25.1367 41.2159 25.1367C41.7146 25.1367 42.1373 25.0485 42.4839 24.8722C42.8367 24.6958 43.1042 24.4191 43.2867 24.0421C43.4752 23.665 43.5695 23.1785 43.5695 22.5825V13.807ZM49.8846 13.807H54.8379C55.8535 13.807 56.7262 13.9591 57.456 14.2631C58.1918 14.5672 58.7574 15.0172 59.1527 15.6132C59.548 16.2092 59.7456 16.942 59.7456 17.8116C59.7456 18.5232 59.624 19.1344 59.3807 19.6452C59.1436 20.15 58.8061 20.5726 58.3682 20.9132C57.9364 21.2477 57.4286 21.5152 56.8448 21.7159L55.9782 22.172H51.6725L51.6543 20.0374H54.8562C55.3366 20.0374 55.7349 19.9523 56.0512 19.782C56.3674 19.6117 56.6046 19.3746 56.7627 19.0705C56.9269 18.7664 57.009 18.4137 57.009 18.0123C57.009 17.5866 56.9299 17.2187 56.7718 16.9086C56.6137 16.5984 56.3735 16.3612 56.0512 16.197C55.7288 16.0328 55.3244 15.9507 54.8379 15.9507H52.6212V27.0889H49.8846V13.807ZM57.31 27.0889L54.2815 21.1686L57.1732 21.1504L60.2382 26.9612V27.0889H57.31ZM70.4238 13.807H72.7408L76.1525 23.5586L79.5641 13.807H81.8812L77.0829 27.0889H75.222L70.4238 13.807ZM69.174 13.807H71.4819L71.9015 23.3123V27.0889H69.174V13.807ZM80.823 13.807H83.14V27.0889H80.4034V23.3123L80.823 13.807ZM89.7835 13.807V27.0889H87.056V13.807H89.7835ZM100.596 23.6133C100.596 23.3762 100.559 23.1633 100.486 22.9748C100.42 22.7802 100.292 22.6038 100.103 22.4457C99.9148 22.2815 99.6502 22.1203 99.3097 21.9622C98.9691 21.8041 98.5282 21.6399 97.987 21.4696C97.3849 21.275 96.8132 21.0561 96.272 20.8128C95.7368 20.5696 95.2625 20.2868 94.8489 19.9645C94.4415 19.6361 94.1192 19.256 93.882 18.8242C93.6509 18.3924 93.5354 17.8907 93.5354 17.3191C93.5354 16.7656 93.657 16.2639 93.9002 15.8139C94.1435 15.3578 94.4841 14.9686 94.9219 14.6463C95.3598 14.3179 95.8767 14.0655 96.4727 13.8891C97.0747 13.7128 97.7346 13.6246 98.4522 13.6246C99.4313 13.6246 100.286 13.8009 101.016 14.1537C101.745 14.5064 102.311 14.9899 102.712 15.6041C103.12 16.2183 103.323 16.9207 103.323 17.7113H100.605C100.605 17.3221 100.523 16.9815 100.359 16.6896C100.201 16.3916 99.9573 16.1575 99.6289 15.9872C99.3066 15.8169 98.8992 15.7318 98.4066 15.7318C97.9322 15.7318 97.5369 15.8048 97.2207 15.9507C96.9045 16.0906 96.6673 16.2822 96.5092 16.5254C96.3511 16.7626 96.272 17.0302 96.272 17.3282C96.272 17.5532 96.3267 17.7569 96.4362 17.9394C96.5517 18.1218 96.722 18.2921 96.947 18.4502C97.172 18.6083 97.4488 18.7573 97.7772 18.8972C98.1055 19.0371 98.4856 19.1739 98.9174 19.3077C99.6411 19.5266 100.277 19.7729 100.824 20.0466C101.377 20.3202 101.84 20.6273 102.211 20.9679C102.581 21.3085 102.861 21.6946 103.05 22.1264C103.238 22.5582 103.333 23.0478 103.333 23.5951C103.333 24.1728 103.22 24.6897 102.995 25.1459C102.77 25.602 102.445 25.9881 102.019 26.3044C101.593 26.6206 101.085 26.8608 100.496 27.025C99.9057 27.1892 99.2458 27.2713 98.516 27.2713C97.8593 27.2713 97.2116 27.1862 96.573 27.0159C95.9345 26.8395 95.3537 26.575 94.8307 26.2223C94.3138 25.8695 93.9002 25.4195 93.5901 24.8722C93.2799 24.3249 93.1249 23.6772 93.1249 22.9292H95.8706C95.8706 23.3427 95.9345 23.6924 96.0622 23.9782C96.1899 24.264 96.3693 24.4951 96.6004 24.6715C96.8376 24.8479 97.1173 24.9756 97.4396 25.0546C97.768 25.1337 98.1268 25.1732 98.516 25.1732C98.9904 25.1732 99.3796 25.1063 99.6837 24.9725C99.9938 24.8387 100.222 24.6533 100.368 24.4161C100.52 24.1789 100.596 23.9113 100.596 23.6133ZM113.442 23.6133C113.442 23.3762 113.406 23.1633 113.333 22.9748C113.266 22.7802 113.138 22.6038 112.95 22.4457C112.761 22.2815 112.497 22.1203 112.156 21.9622C111.816 21.8041 111.375 21.6399 110.834 21.4696C110.231 21.275 109.66 21.0561 109.119 20.8128C108.583 20.5696 108.109 20.2868 107.696 19.9645C107.288 19.6361 106.966 19.256 106.729 18.8242C106.497 18.3924 106.382 17.8907 106.382 17.3191C106.382 16.7656 106.504 16.2639 106.747 15.8139C106.99 15.3578 107.331 14.9686 107.769 14.6463C108.206 14.3179 108.723 14.0655 109.319 13.8891C109.921 13.7128 110.581 13.6246 111.299 13.6246C112.278 13.6246 113.132 13.8009 113.862 14.1537C114.592 14.5064 115.157 14.9899 115.559 15.6041C115.966 16.2183 116.17 16.9207 116.17 17.7113H113.452C113.452 17.3221 113.37 16.9815 113.205 16.6896C113.047 16.3916 112.804 16.1575 112.476 15.9872C112.153 15.8169 111.746 15.7318 111.253 15.7318C110.779 15.7318 110.384 15.8048 110.067 15.9507C109.751 16.0906 109.514 16.2822 109.356 16.5254C109.198 16.7626 109.119 17.0302 109.119 17.3282C109.119 17.5532 109.173 17.7569 109.283 17.9394C109.398 18.1218 109.569 18.2921 109.794 18.4502C110.019 18.6083 110.295 18.7573 110.624 18.8972C110.952 19.0371 111.332 19.1739 111.764 19.3077C112.488 19.5266 113.123 19.7729 113.671 20.0466C114.224 20.3202 114.686 20.6273 115.057 20.9679C115.428 21.3085 115.708 21.6946 115.896 22.1264C116.085 22.5582 116.179 23.0478 116.179 23.5951C116.179 24.1728 116.067 24.6897 115.842 25.1459C115.617 25.602 115.291 25.9881 114.866 26.3044C114.44 26.6206 113.932 26.8608 113.342 27.025C112.752 27.1892 112.092 27.2713 111.363 27.2713C110.706 27.2713 110.058 27.1862 109.42 27.0159C108.781 26.8395 108.2 26.575 107.677 26.2223C107.16 25.8695 106.747 25.4195 106.437 24.8722C106.127 24.3249 105.971 23.6772 105.971 22.9292H108.717C108.717 23.3427 108.781 23.6924 108.909 23.9782C109.036 24.264 109.216 24.4951 109.447 24.6715C109.684 24.8479 109.964 24.9756 110.286 25.0546C110.615 25.1337 110.973 25.1732 111.363 25.1732C111.837 25.1732 112.226 25.1063 112.53 24.9725C112.84 24.8387 113.068 24.6533 113.214 24.4161C113.366 24.1789 113.442 23.9113 113.442 23.6133ZM122.284 13.807V27.0889H119.557V13.807H122.284ZM137.092 20.1378V20.7672C137.092 21.7767 136.955 22.6829 136.682 23.4856C136.408 24.2884 136.022 24.9725 135.523 25.5381C135.025 26.0976 134.429 26.5263 133.735 26.8243C133.048 27.1223 132.285 27.2713 131.446 27.2713C130.613 27.2713 129.849 27.1223 129.156 26.8243C128.469 26.5263 127.873 26.0976 127.368 25.5381C126.863 24.9725 126.471 24.2884 126.191 23.4856C125.918 22.6829 125.781 21.7767 125.781 20.7672V20.1378C125.781 19.1222 125.918 18.2161 126.191 17.4194C126.465 16.6166 126.851 15.9325 127.35 15.3669C127.855 14.8013 128.451 14.3696 129.138 14.0716C129.831 13.7736 130.594 13.6246 131.427 13.6246C132.267 13.6246 133.03 13.7736 133.717 14.0716C134.41 14.3696 135.006 14.8013 135.505 15.3669C136.01 15.9325 136.399 16.6166 136.673 17.4194C136.952 18.2161 137.092 19.1222 137.092 20.1378ZM134.328 20.7672V20.1195C134.328 19.4141 134.264 18.7938 134.137 18.2586C134.009 17.7235 133.82 17.2734 133.571 16.9086C133.322 16.5437 133.018 16.27 132.659 16.0876C132.3 15.899 131.89 15.8048 131.427 15.8048C130.965 15.8048 130.555 15.899 130.196 16.0876C129.843 16.27 129.542 16.5437 129.293 16.9086C129.05 17.2734 128.864 17.7235 128.736 18.2586C128.609 18.7938 128.545 19.4141 128.545 20.1195V20.7672C128.545 21.4666 128.609 22.0869 128.736 22.6281C128.864 23.1633 129.053 23.6164 129.302 23.9873C129.551 24.3522 129.855 24.6289 130.214 24.8175C130.573 25.006 130.983 25.1002 131.446 25.1002C131.908 25.1002 132.318 25.006 132.677 24.8175C133.036 24.6289 133.337 24.3522 133.58 23.9873C133.824 23.6164 134.009 23.1633 134.137 22.6281C134.264 22.0869 134.328 21.4666 134.328 20.7672ZM151.207 13.807V27.0889H148.47L143.134 18.1857V27.0889H140.397V13.807H143.134L148.479 22.7194V13.807H151.207Z" fill="#2563AC"/>
</svg>
