<svg width="199" height="52" viewBox="0 0 199 52" fill="none" xmlns="http://www.w3.org/2000/svg">
<rect y="0.547363" width="198.91" height="51.2489" rx="25.6244" fill="#FFE6CF"/>
<path d="M42.4857 25.2169V25.8807C42.4857 26.9453 42.3414 27.9009 42.0528 28.7475C41.7642 29.594 41.3569 30.3155 40.831 30.912C40.3051 31.502 39.6766 31.9541 38.9455 32.2684C38.2208 32.5826 37.4159 32.7398 36.5309 32.7398C35.6522 32.7398 34.8473 32.5826 34.1162 32.2684C33.3915 31.9541 32.763 31.502 32.2307 30.912C31.6984 30.3155 31.2847 29.594 30.9897 28.7475C30.7011 27.9009 30.5568 26.9453 30.5568 25.8807V25.2169C30.5568 24.1459 30.7011 23.1903 30.9897 22.3501C31.2783 21.5036 31.6856 20.7821 32.2115 20.1856C32.7438 19.5892 33.3723 19.1338 34.097 18.8196C34.8281 18.5053 35.633 18.3482 36.5116 18.3482C37.3967 18.3482 38.2015 18.5053 38.9262 18.8196C39.6574 19.1338 40.2859 19.5892 40.8118 20.1856C41.3441 20.7821 41.7545 21.5036 42.0431 22.3501C42.3381 23.1903 42.4857 24.1459 42.4857 25.2169ZM39.5708 25.8807V25.1977C39.5708 24.4537 39.5034 23.7995 39.3688 23.2352C39.2341 22.6708 39.0353 22.1962 38.7723 21.8114C38.5094 21.4266 38.1887 21.138 37.8103 20.9456C37.4319 20.7468 36.999 20.6474 36.5116 20.6474C36.0242 20.6474 35.5913 20.7468 35.2129 20.9456C34.8409 21.138 34.5235 21.4266 34.2605 21.8114C34.004 22.1962 33.8084 22.6708 33.6737 23.2352C33.539 23.7995 33.4717 24.4537 33.4717 25.1977V25.8807C33.4717 26.6182 33.539 27.2724 33.6737 27.8432C33.8084 28.4075 34.0072 28.8853 34.2701 29.2766C34.5331 29.6614 34.8538 29.9532 35.2322 30.152C35.6105 30.3508 36.0434 30.4502 36.5309 30.4502C37.0183 30.4502 37.4512 30.3508 37.8296 30.152C38.2079 29.9532 38.5254 29.6614 38.7819 29.2766C39.0385 28.8853 39.2341 28.4075 39.3688 27.8432C39.5034 27.2724 39.5708 26.6182 39.5708 25.8807ZM53.7054 18.5406H56.5817V27.7951C56.5817 28.8725 56.3509 29.78 55.8891 30.5175C55.4338 31.2551 54.802 31.8098 53.994 32.1818C53.1923 32.5538 52.2688 32.7398 51.2234 32.7398C50.178 32.7398 49.2481 32.5538 48.4336 32.1818C47.6255 31.8098 46.9906 31.2551 46.5288 30.5175C46.0735 29.78 45.8458 28.8725 45.8458 27.7951V18.5406H48.7318V27.7951C48.7318 28.4236 48.8312 28.9366 49.03 29.3343C49.2288 29.7319 49.5142 30.0237 49.8862 30.2097C50.2646 30.3957 50.7103 30.4887 51.2234 30.4887C51.7493 30.4887 52.195 30.3957 52.5606 30.2097C52.9326 30.0237 53.2147 29.7319 53.4071 29.3343C53.606 28.9366 53.7054 28.4236 53.7054 27.7951V18.5406ZM60.3652 18.5406H65.5888C66.6599 18.5406 67.5802 18.7009 68.3498 19.0216C69.1258 19.3423 69.7223 19.8169 70.1391 20.4454C70.556 21.0739 70.7644 21.8467 70.7644 22.7638C70.7644 23.5142 70.6362 24.1587 70.3796 24.6974C70.1295 25.2297 69.7736 25.6755 69.3118 26.0346C68.8564 26.3873 68.3209 26.6695 67.7053 26.8812L66.7913 27.3622H62.2507L62.2315 25.1111H65.6081C66.1147 25.1111 66.5348 25.0213 66.8683 24.8417C67.2018 24.6621 67.4519 24.412 67.6187 24.0914C67.7918 23.7707 67.8784 23.3987 67.8784 22.9754C67.8784 22.5265 67.795 22.1385 67.6283 21.8114C67.4615 21.4843 67.2082 21.2342 66.8683 21.061C66.5284 20.8879 66.1019 20.8013 65.5888 20.8013H63.2512V32.5474H60.3652V18.5406ZM68.1959 32.5474L65.002 26.304L68.0516 26.2847L71.2839 32.4127V32.5474H68.1959ZM88.8267 27.9009H91.7031C91.6454 28.8437 91.3856 29.6806 90.9239 30.4117C90.4685 31.1428 89.8304 31.7136 89.0095 32.1241C88.195 32.5345 87.2138 32.7398 86.0658 32.7398C85.1679 32.7398 84.363 32.5858 83.6511 32.278C82.9393 31.9637 82.33 31.5148 81.8233 30.9312C81.3231 30.3476 80.9415 29.6421 80.6786 28.8148C80.4156 27.9875 80.2841 27.0607 80.2841 26.0346V25.063C80.2841 24.0368 80.4188 23.1101 80.6882 22.2828C80.9639 21.4491 81.3552 20.7404 81.8618 20.1568C82.3749 19.5731 82.9874 19.1242 83.6992 18.81C84.4111 18.4957 85.2064 18.3386 86.085 18.3386C87.2522 18.3386 88.2367 18.5502 89.0384 18.9735C89.8464 19.3968 90.4717 19.9804 90.9143 20.7243C91.3632 21.4683 91.6326 22.3149 91.7223 23.264H88.8363C88.8043 22.6997 88.692 22.2219 88.4996 21.8306C88.3072 21.433 88.0154 21.1348 87.6242 20.936C87.2394 20.7308 86.7263 20.6281 86.085 20.6281C85.604 20.6281 85.1839 20.7179 84.8248 20.8975C84.4656 21.0771 84.1642 21.3496 83.9205 21.7152C83.6768 22.0808 83.494 22.5425 83.3722 23.1005C83.2567 23.652 83.199 24.2998 83.199 25.0437V26.0346C83.199 26.7593 83.2535 27.3974 83.3625 27.949C83.4716 28.4941 83.6383 28.9559 83.8628 29.3343C84.0937 29.7062 84.3887 29.9884 84.7478 30.1808C85.1134 30.3668 85.5527 30.4598 86.0658 30.4598C86.6686 30.4598 87.1657 30.3636 87.5569 30.1712C87.9481 29.9788 88.2463 29.6934 88.4515 29.315C88.6632 28.9366 88.7882 28.4653 88.8267 27.9009ZM104.01 30.2963V32.5474H96.9584V30.2963H104.01ZM97.8915 18.5406V32.5474H95.0055V18.5406H97.8915ZM110.141 18.5406V32.5474H107.264V18.5406H110.141ZM123.65 30.2963V32.5474H116.194V30.2963H123.65ZM117.137 18.5406V32.5474H114.251V18.5406H117.137ZM122.678 24.2453V26.4386H116.194V24.2453H122.678ZM123.64 18.5406V20.8013H116.194V18.5406H123.64ZM138.14 18.5406V32.5474H135.254L129.627 23.1582V32.5474H126.741V18.5406H129.627L135.264 27.9394V18.5406H138.14ZM148.033 18.5406V32.5474H145.156V18.5406H148.033ZM152.342 18.5406V20.8013H140.914V18.5406H152.342ZM162.533 28.8821C162.533 28.632 162.494 28.4075 162.417 28.2087C162.347 28.0035 162.212 27.8175 162.013 27.6508C161.814 27.4776 161.535 27.3077 161.176 27.1409C160.817 26.9742 160.352 26.801 159.781 26.6214C159.146 26.4162 158.544 26.1853 157.973 25.9288C157.408 25.6722 156.908 25.374 156.472 25.0341C156.042 24.6878 155.702 24.287 155.452 23.8316C155.209 23.3763 155.087 22.8472 155.087 22.2443C155.087 21.6607 155.215 21.1316 155.472 20.657C155.728 20.176 156.087 19.7655 156.549 19.4256C157.011 19.0793 157.556 18.8132 158.184 18.6272C158.819 18.4412 159.515 18.3482 160.272 18.3482C161.304 18.3482 162.206 18.5342 162.975 18.9062C163.745 19.2781 164.341 19.788 164.765 20.4357C165.194 21.0835 165.409 21.8242 165.409 22.658H162.542C162.542 22.2475 162.456 21.8884 162.283 21.5805C162.116 21.2663 161.859 21.0194 161.513 20.8398C161.173 20.6602 160.743 20.5704 160.224 20.5704C159.724 20.5704 159.307 20.6474 158.973 20.8013C158.64 20.9488 158.39 21.1508 158.223 21.4074C158.056 21.6575 157.973 21.9397 157.973 22.2539C157.973 22.4912 158.03 22.7061 158.146 22.8985C158.268 23.0909 158.447 23.2704 158.685 23.4372C158.922 23.6039 159.214 23.7611 159.56 23.9086C159.906 24.0561 160.307 24.2004 160.763 24.3415C161.526 24.5724 162.196 24.8321 162.773 25.1207C163.357 25.4093 163.844 25.7332 164.235 26.0923C164.627 26.4515 164.922 26.8587 165.12 27.3141C165.319 27.7694 165.419 28.2857 165.419 28.8629C165.419 29.4722 165.3 30.0173 165.063 30.4983C164.825 30.9793 164.482 31.3865 164.033 31.72C163.584 32.0535 163.049 32.3069 162.427 32.48C161.805 32.6532 161.109 32.7398 160.339 32.7398C159.647 32.7398 158.964 32.65 158.29 32.4704C157.617 32.2844 157.004 32.0054 156.453 31.6335C155.908 31.2615 155.472 30.7869 155.144 30.2097C154.817 29.6325 154.654 28.9495 154.654 28.1606H157.549C157.549 28.5967 157.617 28.9655 157.751 29.2669C157.886 29.5684 158.075 29.8121 158.319 29.9981C158.569 30.184 158.864 30.3187 159.204 30.4021C159.55 30.4855 159.929 30.5272 160.339 30.5272C160.84 30.5272 161.25 30.4566 161.571 30.3155C161.898 30.1744 162.138 29.9788 162.292 29.7287C162.452 29.4786 162.533 29.1964 162.533 28.8821Z" fill="#F38313"/>
</svg>
