<svg width="149" height="42" viewBox="0 0 149 42" fill="none" xmlns="http://www.w3.org/2000/svg">
<rect x="0.845703" y="0.701172" width="148" height="41.0591" rx="20.5296" fill="#DCECFF"/>
<path d="M30.4168 20.1349V20.7643C30.4168 21.7738 30.2799 22.6799 30.0063 23.4827C29.7326 24.2854 29.3464 24.9696 28.8478 25.5352C28.3491 26.0947 27.7531 26.5234 27.0598 26.8214C26.3726 27.1194 25.6094 27.2684 24.7702 27.2684C23.937 27.2684 23.1738 27.1194 22.4805 26.8214C21.7933 26.5234 21.1973 26.0947 20.6926 25.5352C20.1878 24.9696 19.7955 24.2854 19.5158 23.4827C19.2421 22.6799 19.1053 21.7738 19.1053 20.7643V20.1349C19.1053 19.1193 19.2421 18.2131 19.5158 17.4165C19.7895 16.6137 20.1756 15.9296 20.6743 15.364C21.1791 14.7984 21.7751 14.3666 22.4623 14.0686C23.1555 13.7706 23.9188 13.6217 24.7519 13.6217C25.5911 13.6217 26.3544 13.7706 27.0416 14.0686C27.7349 14.3666 28.3308 14.7984 28.8295 15.364C29.3343 15.9296 29.7235 16.6137 29.9971 17.4165C30.2769 18.2131 30.4168 19.1193 30.4168 20.1349ZM27.6528 20.7643V20.1166C27.6528 19.4112 27.5889 18.7909 27.4612 18.2557C27.3335 17.7205 27.145 17.2705 26.8956 16.9056C26.6463 16.5407 26.3422 16.2671 25.9834 16.0846C25.6246 15.8961 25.2141 15.8018 24.7519 15.8018C24.2897 15.8018 23.8792 15.8961 23.5204 16.0846C23.1677 16.2671 22.8667 16.5407 22.6173 16.9056C22.3741 17.2705 22.1886 17.7205 22.0609 18.2557C21.9332 18.7909 21.8693 19.4112 21.8693 20.1166V20.7643C21.8693 21.4637 21.9332 22.084 22.0609 22.6252C22.1886 23.1604 22.3771 23.6134 22.6265 23.9844C22.8758 24.3493 23.1799 24.626 23.5387 24.8145C23.8975 25.003 24.308 25.0973 24.7702 25.0973C25.2323 25.0973 25.6428 25.003 26.0016 24.8145C26.3605 24.626 26.6615 24.3493 26.9047 23.9844C27.148 23.6134 27.3335 23.1604 27.4612 22.6252C27.5889 22.084 27.6528 21.4637 27.6528 20.7643ZM41.0558 13.8041H43.7833V22.5796C43.7833 23.6013 43.5644 24.4618 43.1265 25.1612C42.6947 25.8605 42.0957 26.3866 41.3295 26.7393C40.5693 27.092 39.6936 27.2684 38.7023 27.2684C37.711 27.2684 36.8292 27.092 36.0569 26.7393C35.2906 26.3866 34.6885 25.8605 34.2507 25.1612C33.8189 24.4618 33.603 23.6013 33.603 22.5796V13.8041H36.3396V22.5796C36.3396 23.1756 36.4339 23.6621 36.6224 24.0391C36.811 24.4162 37.0816 24.6929 37.4343 24.8693C37.7931 25.0456 38.2158 25.1338 38.7023 25.1338C39.201 25.1338 39.6236 25.0456 39.9703 24.8693C40.323 24.6929 40.5906 24.4162 40.773 24.0391C40.9615 23.6621 41.0558 23.1756 41.0558 22.5796V13.8041ZM47.3709 13.8041H52.3242C53.3398 13.8041 54.2125 13.9561 54.9423 14.2602C55.6782 14.5643 56.2437 15.0143 56.639 15.6103C57.0343 16.2063 57.232 16.9391 57.232 17.8087C57.232 18.5202 57.1103 19.1314 56.8671 19.6423C56.6299 20.147 56.2924 20.5697 55.8545 20.9102C55.4227 21.2447 54.9149 21.5123 54.3311 21.713L53.4645 22.1691H49.1589L49.1406 20.0345H52.3425C52.8229 20.0345 53.2213 19.9494 53.5375 19.7791C53.8537 19.6088 54.0909 19.3716 54.249 19.0676C54.4132 18.7635 54.4953 18.4108 54.4953 18.0094C54.4953 17.5837 54.4163 17.2158 54.2581 16.9056C54.1 16.5955 53.8598 16.3583 53.5375 16.1941C53.2152 16.0299 52.8108 15.9478 52.3242 15.9478H50.1076V27.0859H47.3709V13.8041ZM54.7963 27.0859L51.7678 21.1657L54.6595 21.1474L57.7246 26.9582V27.0859H54.7963ZM71.4495 24.3128L74.5784 13.8041H77.6252L73.0002 27.0859H70.9934L71.4495 24.3128ZM68.5669 13.8041L71.6866 24.3128L72.161 27.0859H70.1359L65.5383 13.8041H68.5669ZM83.1102 13.8041V27.0859H80.3827V13.8041H83.1102ZM93.9225 23.6104C93.9225 23.3732 93.886 23.1604 93.8131 22.9719C93.7462 22.7772 93.6185 22.6009 93.4299 22.4428C93.2414 22.2786 92.9769 22.1174 92.6363 21.9593C92.2957 21.8012 91.8548 21.637 91.3136 21.4667C90.7115 21.2721 90.1399 21.0532 89.5986 20.8099C89.0635 20.5666 88.5891 20.2839 88.1756 19.9615C87.7681 19.6331 87.4458 19.2531 87.2086 18.8213C86.9775 18.3895 86.862 17.8878 86.862 17.3161C86.862 16.7627 86.9836 16.261 87.2269 15.811C87.4701 15.3549 87.8107 14.9656 88.2486 14.6433C88.6864 14.3149 89.2033 14.0626 89.7993 13.8862C90.4014 13.7098 91.0612 13.6217 91.7788 13.6217C92.7579 13.6217 93.6124 13.798 94.3421 14.1507C95.0719 14.5035 95.6375 14.9869 96.0389 15.6012C96.4463 16.2154 96.65 16.9178 96.65 17.7084H93.9316C93.9316 17.3192 93.8495 16.9786 93.6853 16.6867C93.5272 16.3887 93.284 16.1546 92.9556 15.9843C92.6333 15.814 92.2258 15.7289 91.7332 15.7289C91.2589 15.7289 90.8636 15.8018 90.5473 15.9478C90.2311 16.0877 89.9939 16.2792 89.8358 16.5225C89.6777 16.7597 89.5986 17.0273 89.5986 17.3252C89.5986 17.5503 89.6534 17.754 89.7628 17.9364C89.8784 18.1189 90.0487 18.2891 90.2737 18.4473C90.4987 18.6054 90.7754 18.7544 91.1038 18.8943C91.4322 19.0341 91.8123 19.171 92.244 19.3047C92.9677 19.5237 93.6032 19.77 94.1506 20.0436C94.704 20.3173 95.1662 20.6244 95.5371 20.965C95.9081 21.3055 96.1879 21.6917 96.3764 22.1235C96.5649 22.5553 96.6592 23.0448 96.6592 23.5922C96.6592 24.1699 96.5467 24.6868 96.3216 25.1429C96.0966 25.599 95.7713 25.9852 95.3456 26.3014C94.9199 26.6177 94.4121 26.8579 93.8222 27.0221C93.2323 27.1863 92.5724 27.2684 91.8427 27.2684C91.1859 27.2684 90.5382 27.1832 89.8997 27.013C89.2611 26.8366 88.6803 26.5721 88.1573 26.2193C87.6404 25.8666 87.2269 25.4166 86.9167 24.8693C86.6066 24.3219 86.4515 23.6743 86.4515 22.9262H89.1973C89.1973 23.3398 89.2611 23.6895 89.3888 23.9753C89.5165 24.2611 89.6959 24.4922 89.927 24.6686C90.1642 24.8449 90.4439 24.9726 90.7663 25.0517C91.0947 25.1308 91.4535 25.1703 91.8427 25.1703C92.317 25.1703 92.7062 25.1034 93.0103 24.9696C93.3205 24.8358 93.5485 24.6503 93.6945 24.4131C93.8465 24.176 93.9225 23.9084 93.9225 23.6104ZM102.764 13.8041V27.0859H100.037V13.8041H102.764ZM117.572 20.1349V20.7643C117.572 21.7738 117.436 22.6799 117.162 23.4827C116.888 24.2854 116.502 24.9696 116.003 25.5352C115.505 26.0947 114.909 26.5234 114.215 26.8214C113.528 27.1194 112.765 27.2684 111.926 27.2684C111.093 27.2684 110.329 27.1194 109.636 26.8214C108.949 26.5234 108.353 26.0947 107.848 25.5352C107.343 24.9696 106.951 24.2854 106.671 23.4827C106.398 22.6799 106.261 21.7738 106.261 20.7643V20.1349C106.261 19.1193 106.398 18.2131 106.671 17.4165C106.945 16.6137 107.331 15.9296 107.83 15.364C108.335 14.7984 108.931 14.3666 109.618 14.0686C110.311 13.7706 111.074 13.6217 111.907 13.6217C112.747 13.6217 113.51 13.7706 114.197 14.0686C114.89 14.3666 115.486 14.7984 115.985 15.364C116.49 15.9296 116.879 16.6137 117.153 17.4165C117.432 18.2131 117.572 19.1193 117.572 20.1349ZM114.808 20.7643V20.1166C114.808 19.4112 114.744 18.7909 114.617 18.2557C114.489 17.7205 114.301 17.2705 114.051 16.9056C113.802 16.5407 113.498 16.2671 113.139 16.0846C112.78 15.8961 112.37 15.8018 111.907 15.8018C111.445 15.8018 111.035 15.8961 110.676 16.0846C110.323 16.2671 110.022 16.5407 109.773 16.9056C109.53 17.2705 109.344 17.7205 109.216 18.2557C109.089 18.7909 109.025 19.4112 109.025 20.1166V20.7643C109.025 21.4637 109.089 22.084 109.216 22.6252C109.344 23.1604 109.533 23.6134 109.782 23.9844C110.031 24.3493 110.335 24.626 110.694 24.8145C111.053 25.003 111.464 25.0973 111.926 25.0973C112.388 25.0973 112.798 25.003 113.157 24.8145C113.516 24.626 113.817 24.3493 114.06 23.9844C114.304 23.6134 114.489 23.1604 114.617 22.6252C114.744 22.084 114.808 21.4637 114.808 20.7643ZM131.687 13.8041V27.0859H128.95L123.614 18.1827V27.0859H120.877V13.8041H123.614L128.959 22.7164V13.8041H131.687Z" fill="#2563AC"/>
</svg>
