<svg width="161" height="41" viewBox="0 0 161 41" fill="none" xmlns="http://www.w3.org/2000/svg">
<rect width="161" height="41" rx="20.5" fill="#FFF0E0"/>
<path d="M25.096 19.0489V19.6784C25.096 20.6879 24.9591 21.594 24.6855 22.3968C24.4118 23.1995 24.0256 23.8837 23.527 24.4492C23.0283 25.0087 22.4323 25.4375 21.739 25.7355C21.0518 26.0334 20.2886 26.1824 19.4494 26.1824C18.6162 26.1824 17.853 26.0334 17.1597 25.7355C16.4725 25.4375 15.8765 25.0087 15.3718 24.4492C14.867 23.8837 14.4747 23.1995 14.195 22.3968C13.9213 21.594 13.7845 20.6879 13.7845 19.6784V19.0489C13.7845 18.0333 13.9213 17.1272 14.195 16.3305C14.4687 15.5278 14.8548 14.8436 15.3535 14.278C15.8583 13.7125 16.4543 13.2807 17.1415 12.9827C17.8347 12.6847 18.598 12.5357 19.4311 12.5357C20.2703 12.5357 21.0336 12.6847 21.7208 12.9827C22.4141 13.2807 23.01 13.7125 23.5087 14.278C24.0135 14.8436 24.4027 15.5278 24.6763 16.3305C24.9561 17.1272 25.096 18.0333 25.096 19.0489ZM22.332 19.6784V19.0307C22.332 18.3252 22.2681 17.7049 22.1404 17.1698C22.0127 16.6346 21.8242 16.1846 21.5748 15.8197C21.3255 15.4548 21.0214 15.1811 20.6626 14.9987C20.3038 14.8102 19.8933 14.7159 19.4311 14.7159C18.9689 14.7159 18.5584 14.8102 18.1996 14.9987C17.8469 15.1811 17.5459 15.4548 17.2965 15.8197C17.0533 16.1846 16.8678 16.6346 16.7401 17.1698C16.6124 17.7049 16.5485 18.3252 16.5485 19.0307V19.6784C16.5485 20.3777 16.6124 20.998 16.7401 21.5393C16.8678 22.0744 17.0563 22.5275 17.3057 22.8985C17.555 23.2634 17.8591 23.5401 18.2179 23.7286C18.5767 23.9171 18.9872 24.0114 19.4494 24.0114C19.9115 24.0114 20.322 23.9171 20.6808 23.7286C21.0396 23.5401 21.3407 23.2634 21.5839 22.8985C21.8272 22.5275 22.0127 22.0744 22.1404 21.5393C22.2681 20.998 22.332 20.3777 22.332 19.6784ZM35.735 12.7182H38.4625V21.4937C38.4625 22.5153 38.2436 23.3759 37.8057 24.0752C37.3739 24.7746 36.7749 25.3006 36.0087 25.6534C35.2485 26.0061 34.3728 26.1824 33.3815 26.1824C32.3902 26.1824 31.5084 26.0061 30.7361 25.6534C29.9698 25.3006 29.3677 24.7746 28.9299 24.0752C28.4981 23.3759 28.2822 22.5153 28.2822 21.4937V12.7182H31.0188V21.4937C31.0188 22.0896 31.1131 22.5762 31.3016 22.9532C31.4902 23.3303 31.7608 23.607 32.1135 23.7833C32.4723 23.9597 32.895 24.0479 33.3815 24.0479C33.8802 24.0479 34.3028 23.9597 34.6495 23.7833C35.0022 23.607 35.2698 23.3303 35.4522 22.9532C35.6407 22.5762 35.735 22.0896 35.735 21.4937V12.7182ZM42.0501 12.7182H47.0034C48.019 12.7182 48.8917 12.8702 49.6215 13.1743C50.3574 13.4783 50.9229 13.9284 51.3182 14.5243C51.7135 15.1203 51.9112 15.8531 51.9112 16.7228C51.9112 17.4343 51.7895 18.0455 51.5463 18.5563C51.3091 19.0611 50.9716 19.4837 50.5337 19.8243C50.1019 20.1588 49.5941 20.4264 49.0103 20.6271L48.1437 21.0832H43.8381L43.8198 18.9486H47.0217C47.5021 18.9486 47.9005 18.8634 48.2167 18.6932C48.5329 18.5229 48.7701 18.2857 48.9282 17.9816C49.0924 17.6776 49.1745 17.3248 49.1745 16.9235C49.1745 16.4978 49.0955 16.1298 48.9373 15.8197C48.7792 15.5095 48.539 15.2724 48.2167 15.1082C47.8944 14.944 47.49 14.8619 47.0034 14.8619H44.7868V26H42.0501V12.7182ZM49.4755 26L46.447 20.0797L49.3387 20.0615L52.4038 25.8723V26H49.4755ZM69.0386 21.594H71.7662C71.7114 22.488 71.4651 23.2816 71.0273 23.9749C70.5955 24.6682 69.9904 25.2094 69.212 25.5986C68.4396 25.9878 67.5092 26.1824 66.4206 26.1824C65.5692 26.1824 64.806 26.0365 64.1309 25.7446C63.4559 25.4466 62.8781 25.0209 62.3977 24.4675C61.9234 23.9141 61.5615 23.2451 61.3122 22.4606C61.0628 21.6761 60.9382 20.7973 60.9382 19.8243V18.903C60.9382 17.9299 61.0659 17.0512 61.3213 16.2667C61.5828 15.4761 61.9538 14.8041 62.4342 14.2507C62.9207 13.6973 63.5015 13.2716 64.1765 12.9736C64.8516 12.6756 65.6057 12.5266 66.4388 12.5266C67.5456 12.5266 68.4791 12.7273 69.2393 13.1287C70.0056 13.53 70.5985 14.0834 71.0181 14.7889C71.4438 15.4943 71.6993 16.2971 71.7844 17.1971H69.0478C69.0174 16.662 68.9109 16.2089 68.7285 15.8379C68.546 15.4609 68.2693 15.1781 67.8984 14.9896C67.5335 14.795 67.047 14.6977 66.4388 14.6977C65.9827 14.6977 65.5844 14.7828 65.2438 14.9531C64.9033 15.1234 64.6174 15.3818 64.3863 15.7285C64.1552 16.0751 63.9819 16.513 63.8664 17.0421C63.7569 17.5651 63.7022 18.1793 63.7022 18.8847V19.8243C63.7022 20.5115 63.7539 21.1166 63.8573 21.6396C63.9606 22.1565 64.1188 22.5944 64.3316 22.9532C64.5505 23.3059 64.8303 23.5735 65.1708 23.756C65.5175 23.9323 65.9341 24.0205 66.4206 24.0205C66.9922 24.0205 67.4635 23.9293 67.8345 23.7468C68.2055 23.5644 68.4883 23.2938 68.6829 22.935C68.8836 22.5762 69.0021 22.1292 69.0386 21.594ZM82.2319 12.7182H84.9594V21.4937C84.9594 22.5153 84.7405 23.3759 84.3026 24.0752C83.8708 24.7746 83.2718 25.3006 82.5055 25.6534C81.7453 26.0061 80.8696 26.1824 79.8784 26.1824C78.8871 26.1824 78.0053 26.0061 77.2329 25.6534C76.4667 25.3006 75.8646 24.7746 75.4267 24.0752C74.995 23.3759 74.7791 22.5153 74.7791 21.4937V12.7182H77.5157V21.4937C77.5157 22.0896 77.61 22.5762 77.7985 22.9532C77.987 23.3303 78.2576 23.607 78.6104 23.7833C78.9692 23.9597 79.3918 24.0479 79.8784 24.0479C80.377 24.0479 80.7997 23.9597 81.1463 23.7833C81.4991 23.607 81.7666 23.3303 81.9491 22.9532C82.1376 22.5762 82.2319 22.0896 82.2319 21.4937V12.7182ZM97.0853 23.8654V26H90.3988V23.8654H97.0853ZM91.2836 12.7182V26H88.547V12.7182H91.2836ZM103.847 12.7182V26H101.12V12.7182H103.847ZM107.934 12.7182V14.8619H97.097V12.7182H107.934ZM118.163 12.7182H120.89V21.4937C120.89 22.5153 120.671 23.3759 120.233 24.0752C119.802 24.7746 119.203 25.3006 118.436 25.6534C117.676 26.0061 116.8 26.1824 115.809 26.1824C114.818 26.1824 113.936 26.0061 113.164 25.6534C112.397 25.3006 111.795 24.7746 111.358 24.0752C110.926 23.3759 110.71 22.5153 110.71 21.4937V12.7182H113.447V21.4937C113.447 22.0896 113.541 22.5762 113.729 22.9532C113.918 23.3303 114.188 23.607 114.541 23.7833C114.9 23.9597 115.323 24.0479 115.809 24.0479C116.308 24.0479 116.731 23.9597 117.077 23.7833C117.43 23.607 117.697 23.3303 117.88 22.9532C118.068 22.5762 118.163 22.0896 118.163 21.4937V12.7182ZM124.478 12.7182H129.431C130.447 12.7182 131.319 12.8702 132.049 13.1743C132.785 13.4783 133.351 13.9284 133.746 14.5243C134.141 15.1203 134.339 15.8531 134.339 16.7228C134.339 17.4343 134.217 18.0455 133.974 18.5563C133.737 19.0611 133.399 19.4837 132.961 19.8243C132.53 20.1588 132.022 20.4264 131.438 20.6271L130.571 21.0832H126.266L126.248 18.9486H129.449C129.93 18.9486 130.328 18.8634 130.644 18.6932C130.961 18.5229 131.198 18.2857 131.356 17.9816C131.52 17.6776 131.602 17.3248 131.602 16.9235C131.602 16.4978 131.523 16.1298 131.365 15.8197C131.207 15.5095 130.967 15.2724 130.644 15.1082C130.322 14.944 129.918 14.8619 129.431 14.8619H127.214V26H124.478V12.7182ZM131.903 26L128.875 20.0797L131.766 20.0615L134.831 25.8723V26H131.903ZM146.693 23.8654V26H139.623V23.8654H146.693ZM140.517 12.7182V26H137.781V12.7182H140.517ZM145.772 18.1276V20.2074H139.623V18.1276H145.772ZM146.684 12.7182V14.8619H139.623V12.7182H146.684Z" fill="#F38313"/>
</svg>
