<svg width="184" height="45" viewBox="0 0 184 45" fill="none" xmlns="http://www.w3.org/2000/svg">
<rect width="184" height="44.0133" rx="21.3365" fill="#FFF0E0"/>
<path d="M25.1526 23.597H21.7706V21.4638H25.1526C25.6753 21.4638 26.1007 21.3787 26.4289 21.2086C26.757 21.0323 26.9971 20.7892 27.149 20.4793C27.301 20.1694 27.3769 19.8199 27.3769 19.431C27.3769 19.036 27.301 18.6683 27.149 18.3279C26.9971 17.9876 26.757 17.7141 26.4289 17.5075C26.1007 17.3009 25.6753 17.1976 25.1526 17.1976H22.7187V28.3281H19.9839V15.0553H25.1526C26.1918 15.0553 27.0822 15.2437 27.8236 15.6205C28.5711 15.9912 29.1424 16.5048 29.5374 17.1611C29.9324 17.8175 30.1299 18.568 30.1299 19.4127C30.1299 20.2696 29.9324 21.0111 29.5374 21.637C29.1424 22.263 28.5711 22.7461 27.8236 23.0865C27.0822 23.4268 26.1918 23.597 25.1526 23.597ZM37.2338 17.3252L33.6239 28.3281H30.716L35.6477 15.0553H37.4982L37.2338 17.3252ZM40.233 28.3281L36.614 17.3252L36.3223 15.0553H38.191L43.1501 28.3281H40.233ZM40.0689 23.3873V25.5295H33.0587V23.3873H40.0689ZM45.7143 15.0553H50.6642C51.6791 15.0553 52.5512 15.2073 53.2805 15.5111C54.0158 15.815 54.581 16.2647 54.9761 16.8603C55.3711 17.4559 55.5686 18.1882 55.5686 19.0572C55.5686 19.7683 55.447 20.379 55.204 20.8895C54.9669 21.3939 54.6296 21.8163 54.1921 22.1566C53.7606 22.4909 53.2531 22.7583 52.6697 22.9588L51.8037 23.4146H47.501L47.4828 21.2815H50.6824C51.1626 21.2815 51.5606 21.1964 51.8766 21.0263C52.1927 20.8561 52.4297 20.6191 52.5877 20.3152C52.7518 20.0114 52.8338 19.6589 52.8338 19.2578C52.8338 18.8324 52.7548 18.4647 52.5968 18.1547C52.4388 17.8448 52.1987 17.6078 51.8766 17.4437C51.5545 17.2796 51.1504 17.1976 50.6642 17.1976H48.449V28.3281H45.7143V15.0553ZM53.1346 28.3281L50.1081 22.4119L52.9979 22.3937L56.0608 28.2005V28.3281H53.1346ZM64.3954 15.0553V28.3281H61.6698V15.0553H64.3954ZM68.4794 15.0553V17.1976H57.6496V15.0553H68.4794ZM82.1741 15.0553V28.3281H79.4393L74.1065 19.431V28.3281H71.3717V15.0553H74.1065L79.4484 23.9616V15.0553H82.1741ZM94.7931 26.195V28.3281H87.7283V26.195H94.7931ZM88.6217 15.0553V28.3281H85.8869V15.0553H88.6217ZM93.8724 20.4611V22.5395H87.7283V20.4611H93.8724ZM94.784 15.0553V17.1976H87.7283V15.0553H94.784ZM97.722 15.0553H102.672C103.687 15.0553 104.559 15.2073 105.288 15.5111C106.024 15.815 106.589 16.2647 106.984 16.8603C107.379 17.4559 107.576 18.1882 107.576 19.0572C107.576 19.7683 107.455 20.379 107.212 20.8895C106.975 21.3939 106.637 21.8163 106.2 22.1566C105.768 22.4909 105.261 22.7583 104.677 22.9588L103.811 23.4146H99.5087L99.4904 21.2815H102.69C103.17 21.2815 103.568 21.1964 103.884 21.0263C104.2 20.8561 104.437 20.6191 104.595 20.3152C104.759 20.0114 104.842 19.6589 104.842 19.2578C104.842 18.8324 104.762 18.4647 104.604 18.1547C104.446 17.8448 104.206 17.6078 103.884 17.4437C103.562 17.2796 103.158 17.1976 102.672 17.1976H100.457V28.3281H97.722V15.0553ZM105.142 28.3281L102.116 22.4119L105.006 22.3937L108.069 28.2005V28.3281H105.142ZM117.925 24.855C117.925 24.6179 117.889 24.4052 117.816 24.2168C117.749 24.0224 117.622 23.8461 117.433 23.6881C117.245 23.524 116.98 23.363 116.64 23.205C116.3 23.047 115.859 22.8829 115.318 22.7127C114.717 22.5182 114.145 22.2995 113.605 22.0564C113.07 21.8133 112.596 21.5307 112.182 21.2086C111.775 20.8804 111.453 20.5006 111.216 20.0691C110.985 19.6376 110.87 19.1362 110.87 18.565C110.87 18.0119 110.991 17.5106 111.234 17.0608C111.477 16.605 111.818 16.2161 112.255 15.894C112.693 15.5658 113.209 15.3136 113.805 15.1374C114.407 14.9611 115.066 14.873 115.783 14.873C116.762 14.873 117.616 15.0493 118.345 15.4017C119.074 15.7542 119.639 16.2374 120.04 16.8512C120.448 17.465 120.651 18.1669 120.651 18.9569H117.935C117.935 18.568 117.853 18.2277 117.688 17.936C117.53 17.6382 117.287 17.4042 116.959 17.234C116.637 17.0639 116.23 16.9788 115.738 16.9788C115.264 16.9788 114.869 17.0517 114.553 17.1976C114.237 17.3374 114 17.5288 113.842 17.7719C113.684 18.0089 113.605 18.2763 113.605 18.5741C113.605 18.7989 113.659 19.0025 113.769 19.1848C113.884 19.3672 114.054 19.5373 114.279 19.6953C114.504 19.8533 114.78 20.0022 115.109 20.142C115.437 20.2818 115.817 20.4185 116.248 20.5522C116.971 20.771 117.606 21.0171 118.153 21.2906C118.706 21.5641 119.168 21.871 119.539 22.2113C119.91 22.5517 120.189 22.9376 120.378 23.3691C120.566 23.8005 120.66 24.2898 120.66 24.8367C120.66 25.4141 120.548 25.9306 120.323 26.3864C120.098 26.8422 119.773 27.2281 119.348 27.5442C118.922 27.8602 118.415 28.1002 117.825 28.2643C117.236 28.4284 116.576 28.5104 115.847 28.5104C115.191 28.5104 114.543 28.4254 113.905 28.2552C113.267 28.079 112.687 27.8146 112.164 27.4621C111.648 27.1096 111.234 26.6599 110.924 26.113C110.614 25.566 110.46 24.9188 110.46 24.1713H113.203C113.203 24.5845 113.267 24.934 113.395 25.2196C113.522 25.5052 113.702 25.7362 113.933 25.9124C114.17 26.0886 114.449 26.2163 114.771 26.2953C115.1 26.3743 115.458 26.4138 115.847 26.4138C116.321 26.4138 116.71 26.3469 117.014 26.2132C117.324 26.0795 117.552 25.8942 117.698 25.6572C117.85 25.4201 117.925 25.1527 117.925 24.855ZM132.705 20.4611V22.5942H125.777V20.4611H132.705ZM126.588 15.0553V28.3281H123.853V15.0553H126.588ZM134.656 15.0553V28.3281H131.93V15.0553H134.656ZM141.277 15.0553V28.3281H138.551V15.0553H141.277ZM150.34 23.597H146.958V21.4638H150.34C150.863 21.4638 151.288 21.3787 151.617 21.2086C151.945 21.0323 152.185 20.7892 152.337 20.4793C152.489 20.1694 152.565 19.8199 152.565 19.431C152.565 19.036 152.489 18.6683 152.337 18.3279C152.185 17.9876 151.945 17.7141 151.617 17.5075C151.288 17.3009 150.863 17.1976 150.34 17.1976H147.906V28.3281H145.172V15.0553H150.34C151.38 15.0553 152.27 15.2437 153.011 15.6205C153.759 15.9912 154.33 16.5048 154.725 17.1611C155.12 17.8175 155.318 18.568 155.318 19.4127C155.318 20.2696 155.12 21.0111 154.725 21.637C154.33 22.263 153.759 22.7461 153.011 23.0865C152.27 23.4268 151.38 23.597 150.34 23.597ZM165.448 24.855C165.448 24.6179 165.412 24.4052 165.339 24.2168C165.272 24.0224 165.144 23.8461 164.956 23.6881C164.767 23.524 164.503 23.363 164.163 23.205C163.822 23.047 163.382 22.8829 162.841 22.7127C162.239 22.5182 161.668 22.2995 161.127 22.0564C160.592 21.8133 160.118 21.5307 159.705 21.2086C159.298 20.8804 158.976 20.5006 158.739 20.0691C158.508 19.6376 158.392 19.1362 158.392 18.565C158.392 18.0119 158.514 17.5106 158.757 17.0608C159 16.605 159.34 16.2161 159.778 15.894C160.216 15.5658 160.732 15.3136 161.328 15.1374C161.929 14.9611 162.589 14.873 163.306 14.873C164.284 14.873 165.138 15.0493 165.867 15.4017C166.597 15.7542 167.162 16.2374 167.563 16.8512C167.97 17.465 168.174 18.1669 168.174 18.9569H165.457C165.457 18.568 165.375 18.2277 165.211 17.936C165.053 17.6382 164.81 17.4042 164.482 17.234C164.16 17.0639 163.753 16.9788 163.26 16.9788C162.786 16.9788 162.391 17.0517 162.075 17.1976C161.759 17.3374 161.522 17.5288 161.364 17.7719C161.206 18.0089 161.127 18.2763 161.127 18.5741C161.127 18.7989 161.182 19.0025 161.291 19.1848C161.407 19.3672 161.577 19.5373 161.802 19.6953C162.027 19.8533 162.303 20.0022 162.631 20.142C162.959 20.2818 163.339 20.4185 163.771 20.5522C164.494 20.771 165.129 21.0171 165.676 21.2906C166.229 21.5641 166.691 21.871 167.062 22.2113C167.432 22.5517 167.712 22.9376 167.9 23.3691C168.089 23.8005 168.183 24.2898 168.183 24.8367C168.183 25.4141 168.07 25.9306 167.846 26.3864C167.621 26.8422 167.296 27.2281 166.87 27.5442C166.445 27.8602 165.937 28.1002 165.348 28.2643C164.758 28.4284 164.099 28.5104 163.37 28.5104C162.713 28.5104 162.066 28.4254 161.428 28.2552C160.79 28.079 160.21 27.8146 159.687 27.4621C159.17 27.1096 158.757 26.6599 158.447 26.113C158.137 25.566 157.982 24.9188 157.982 24.1713H160.726C160.726 24.5845 160.79 24.934 160.918 25.2196C161.045 25.5052 161.224 25.7362 161.455 25.9124C161.692 26.0886 161.972 26.2163 162.294 26.2953C162.622 26.3743 162.981 26.4138 163.37 26.4138C163.844 26.4138 164.233 26.3469 164.537 26.2132C164.846 26.0795 165.074 25.8942 165.22 25.6572C165.372 25.4201 165.448 25.1527 165.448 24.855Z" fill="#F38313"/>
</svg>
