<svg width="213" height="44" viewBox="0 0 213 44" fill="none" xmlns="http://www.w3.org/2000/svg">
<rect width="213" height="44" rx="21.3365" fill="#FFF0E0"/>
<path d="M21.3538 23.2688H17.9718V21.1357H21.3538C21.8765 21.1357 22.3019 21.0506 22.63 20.8805C22.9582 20.7042 23.1983 20.4611 23.3502 20.1512C23.5021 19.8412 23.5781 19.4918 23.5781 19.1029C23.5781 18.7078 23.5021 18.3402 23.3502 17.9998C23.1983 17.6595 22.9582 17.386 22.63 17.1794C22.3019 16.9728 21.8765 16.8694 21.3538 16.8694H18.9199V28H16.1851V14.7272H21.3538C22.393 14.7272 23.2833 14.9156 24.0248 15.2924C24.7723 15.6631 25.3435 16.1766 25.7386 16.833C26.1336 17.4893 26.3311 18.2399 26.3311 19.0846C26.3311 19.9415 26.1336 20.6829 25.7386 21.3089C25.3435 21.9349 24.7723 22.418 24.0248 22.7583C23.2833 23.0987 22.393 23.2688 21.3538 23.2688ZM38.4032 20.133V22.2661H31.4751V20.133H38.4032ZM32.2864 14.7272V28H29.5516V14.7272H32.2864ZM40.354 14.7272V28H37.6283V14.7272H40.354ZM49.6275 16.9971L46.0176 28H43.1096L48.0413 14.7272H49.8919L49.6275 16.9971ZM52.6267 28L49.0076 16.9971L48.7159 14.7272H50.5847L55.5438 28H52.6267ZM52.4626 23.0592V25.2014H45.4524V23.0592H52.4626ZM58.1079 14.7272H63.0579C64.0728 14.7272 64.9449 14.8791 65.6742 15.183C66.4095 15.4869 66.9747 15.9366 67.3697 16.5322C67.7647 17.1277 67.9623 17.86 67.9623 18.7291C67.9623 19.4401 67.8407 20.0509 67.5976 20.5614C67.3606 21.0658 67.0233 21.4882 66.5858 21.8285C66.1543 22.1628 65.6468 22.4302 65.0634 22.6307L64.1974 23.0865H59.8947L59.8764 20.9534H63.0761C63.5562 20.9534 63.9543 20.8683 64.2703 20.6981C64.5863 20.528 64.8233 20.291 64.9814 19.9871C65.1454 19.6832 65.2275 19.3307 65.2275 18.9296C65.2275 18.5042 65.1485 18.1366 64.9905 17.8266C64.8325 17.5167 64.5924 17.2797 64.2703 17.1156C63.9482 16.9515 63.5441 16.8694 63.0579 16.8694H60.8427V28H58.1079V14.7272ZM65.5283 28L62.5018 22.0838L65.3916 22.0655L68.4545 27.8724V28H65.5283ZM72.6505 14.7272H74.9659L78.3753 24.4721L81.7846 14.7272H84.1001L79.3051 28H77.4454L72.6505 14.7272ZM71.4016 14.7272H73.7079L74.1272 24.226V28H71.4016V14.7272ZM83.0426 14.7272H85.3581V28H82.6233V24.226L83.0426 14.7272ZM94.6498 16.9971L91.0399 28H88.1319L93.0636 14.7272H94.9142L94.6498 16.9971ZM97.6489 28L94.0299 16.9971L93.7382 14.7272H95.607L100.566 28H97.6489ZM97.4849 23.0592V25.2014H90.4747V23.0592H97.4849ZM110.66 23.597H113.386C113.331 24.4904 113.085 25.2835 112.647 25.9763C112.216 26.6691 111.611 27.21 110.833 27.5989C110.061 27.9878 109.132 28.1823 108.044 28.1823C107.193 28.1823 106.43 28.0365 105.756 27.7448C105.081 27.447 104.504 27.0216 104.024 26.4685C103.55 25.9155 103.188 25.247 102.939 24.463C102.69 23.679 102.565 22.8009 102.565 21.8285V20.9078C102.565 19.9354 102.693 19.0573 102.948 18.2733C103.209 17.4833 103.58 16.8117 104.06 16.2587C104.546 15.7056 105.127 15.2802 105.801 14.9824C106.476 14.6847 107.229 14.5358 108.062 14.5358C109.168 14.5358 110.101 14.7363 110.861 15.1374C111.626 15.5385 112.219 16.0916 112.638 16.7965C113.064 17.5015 113.319 18.3037 113.404 19.2031H110.669C110.639 18.6683 110.532 18.2156 110.35 17.8449C110.168 17.4681 109.891 17.1855 109.52 16.9971C109.156 16.8026 108.67 16.7054 108.062 16.7054C107.606 16.7054 107.208 16.7904 106.868 16.9606C106.527 17.1308 106.242 17.3891 106.011 17.7355C105.78 18.0819 105.607 18.5194 105.491 19.0482C105.382 19.5708 105.327 20.1846 105.327 20.8896V21.8285C105.327 22.5152 105.379 23.1199 105.482 23.6426C105.585 24.1592 105.743 24.5967 105.956 24.9553C106.175 25.3078 106.455 25.5752 106.795 25.7575C107.141 25.9337 107.558 26.0218 108.044 26.0218C108.615 26.0218 109.086 25.9307 109.457 25.7484C109.827 25.566 110.11 25.2956 110.304 24.937C110.505 24.5785 110.624 24.1318 110.66 23.597ZM125.421 25.8669V28H118.356V25.8669H125.421ZM119.25 14.7272V28H116.515V14.7272H119.25ZM124.501 20.133V22.2114H118.356V20.133H124.501ZM125.412 14.7272V16.8694H118.356V14.7272H125.412ZM135.679 14.7272H138.405V23.4967C138.405 24.5177 138.186 25.3777 137.749 26.0765C137.317 26.7754 136.719 27.3011 135.953 27.6536C135.193 28.0061 134.318 28.1823 133.327 28.1823C132.337 28.1823 131.456 28.0061 130.684 27.6536C129.918 27.3011 129.316 26.7754 128.879 26.0765C128.447 25.3777 128.232 24.5177 128.232 23.4967V14.7272H130.966V23.4967C130.966 24.0923 131.061 24.5785 131.249 24.9553C131.437 25.3321 131.708 25.6086 132.06 25.7848C132.419 25.9611 132.841 26.0492 133.327 26.0492C133.826 26.0492 134.248 25.9611 134.595 25.7848C134.947 25.6086 135.214 25.3321 135.397 24.9553C135.585 24.5785 135.679 24.0923 135.679 23.4967V14.7272ZM147.925 14.7272V28H145.199V14.7272H147.925ZM152.009 14.7272V16.8694H141.179V14.7272H152.009ZM157.809 14.7272V28H155.083V14.7272H157.809ZM169.398 23.597H172.124C172.069 24.4904 171.823 25.2835 171.385 25.9763C170.954 26.6691 170.349 27.21 169.571 27.5989C168.799 27.9878 167.869 28.1823 166.782 28.1823C165.931 28.1823 165.168 28.0365 164.493 27.7448C163.819 27.447 163.242 27.0216 162.761 26.4685C162.287 25.9155 161.926 25.247 161.677 24.463C161.427 23.679 161.303 22.8009 161.303 21.8285V20.9078C161.303 19.9354 161.431 19.0573 161.686 18.2733C161.947 17.4833 162.318 16.8117 162.798 16.2587C163.284 15.7056 163.864 15.2802 164.539 14.9824C165.214 14.6847 165.967 14.5358 166.8 14.5358C167.906 14.5358 168.839 14.7363 169.598 15.1374C170.364 15.5385 170.957 16.0916 171.376 16.7965C171.801 17.5015 172.057 18.3037 172.142 19.2031H169.407C169.377 18.6683 169.27 18.2156 169.088 17.8449C168.906 17.4681 168.629 17.1855 168.258 16.9971C167.894 16.8026 167.408 16.7054 166.8 16.7054C166.344 16.7054 165.946 16.7904 165.606 16.9606C165.265 17.1308 164.98 17.3891 164.749 17.7355C164.518 18.0819 164.345 18.5194 164.229 19.0482C164.12 19.5708 164.065 20.1846 164.065 20.8896V21.8285C164.065 22.5152 164.117 23.1199 164.22 23.6426C164.323 24.1592 164.481 24.5967 164.694 24.9553C164.913 25.3078 165.192 25.5752 165.533 25.7575C165.879 25.9337 166.295 26.0218 166.782 26.0218C167.353 26.0218 167.824 25.9307 168.195 25.7484C168.565 25.566 168.848 25.2956 169.042 24.937C169.243 24.5785 169.361 24.1318 169.398 23.597ZM180.649 16.9971L177.04 28H174.132L179.063 14.7272H180.914L180.649 16.9971ZM183.649 28L180.03 16.9971L179.738 14.7272H181.607L186.566 28H183.649ZM183.485 23.0592V25.2014H176.474V23.0592H183.485ZM197.662 25.8669V28H190.98V25.8669H197.662ZM191.865 14.7272V28H189.13V14.7272H191.865Z" fill="#F38313"/>
</svg>
