<svg width="118" height="44" viewBox="0 0 118 44" fill="none" xmlns="http://www.w3.org/2000/svg">
<rect width="118" height="44" rx="21.3365" fill="#FFF0E0"/>
<path d="M22.3538 23.2688H18.9718V21.1357H22.3538C22.8765 21.1357 23.3019 21.0506 23.63 20.8805C23.9582 20.7042 24.1983 20.4611 24.3502 20.1512C24.5021 19.8412 24.5781 19.4918 24.5781 19.1029C24.5781 18.7078 24.5021 18.3402 24.3502 17.9998C24.1983 17.6595 23.9582 17.386 23.63 17.1794C23.3019 16.9728 22.8765 16.8694 22.3538 16.8694H19.9199V28H17.1851V14.7272H22.3538C23.393 14.7272 24.2833 14.9156 25.0248 15.2924C25.7723 15.6631 26.3435 16.1766 26.7386 16.833C27.1336 17.4893 27.3311 18.2399 27.3311 19.0846C27.3311 19.9415 27.1336 20.6829 26.7386 21.3089C26.3435 21.9349 25.7723 22.418 25.0248 22.7583C24.2833 23.0987 23.393 23.2688 22.3538 23.2688ZM39.4032 20.133V22.2661H32.4751V20.133H39.4032ZM33.2864 14.7272V28H30.5516V14.7272H33.2864ZM41.354 14.7272V28H38.6283V14.7272H41.354ZM50.6275 16.9971L47.0176 28H44.1096L49.0413 14.7272H50.8919L50.6275 16.9971ZM53.6267 28L50.0076 16.9971L49.7159 14.7272H51.5847L56.5438 28H53.6267ZM53.4626 23.0592V25.2014H46.4524V23.0592H53.4626ZM59.1079 14.7272H64.0579C65.0728 14.7272 65.9449 14.8791 66.6742 15.183C67.4095 15.4869 67.9747 15.9366 68.3697 16.5322C68.7647 17.1277 68.9623 17.86 68.9623 18.7291C68.9623 19.4401 68.8407 20.0509 68.5976 20.5614C68.3606 21.0658 68.0233 21.4882 67.5858 21.8285C67.1543 22.1628 66.6468 22.4302 66.0634 22.6307L65.1974 23.0865H60.8947L60.8764 20.9534H64.0761C64.5562 20.9534 64.9543 20.8683 65.2703 20.6981C65.5863 20.528 65.8233 20.291 65.9814 19.9871C66.1454 19.6832 66.2275 19.3307 66.2275 18.9296C66.2275 18.5042 66.1485 18.1366 65.9905 17.8266C65.8325 17.5167 65.5924 17.2797 65.2703 17.1156C64.9482 16.9515 64.5441 16.8694 64.0579 16.8694H61.8427V28H59.1079V14.7272ZM66.5283 28L63.5018 22.0838L66.3916 22.0655L69.4545 27.8724V28H66.5283ZM73.6505 14.7272H75.9659L79.3753 24.4721L82.7846 14.7272H85.1001L80.3051 28H78.4454L73.6505 14.7272ZM72.4016 14.7272H74.7079L75.1272 24.226V28H72.4016V14.7272ZM84.0426 14.7272H86.3581V28H83.6233V24.226L84.0426 14.7272ZM95.6498 16.9971L92.0399 28H89.1319L94.0636 14.7272H95.9142L95.6498 16.9971ZM98.6489 28L95.0299 16.9971L94.7382 14.7272H96.607L101.566 28H98.6489ZM98.4849 23.0592V25.2014H91.4747V23.0592H98.4849Z" fill="#F38313"/>
</svg>
