<svg width="102" height="44" viewBox="0 0 102 44" fill="none" xmlns="http://www.w3.org/2000/svg">
<rect width="102" height="44" rx="21.3365" fill="#FFF0E0"/>
<path d="M18.1851 14.7272H23.135C24.1499 14.7272 25.022 14.8791 25.7513 15.183C26.4866 15.4869 27.0518 15.9366 27.4469 16.5322C27.8419 17.1277 28.0394 17.86 28.0394 18.7291C28.0394 19.4401 27.9178 20.0509 27.6748 20.5614C27.4377 21.0658 27.1005 21.4882 26.6629 21.8285C26.2314 22.1628 25.7239 22.4302 25.1405 22.6307L24.2745 23.0865H19.9718L19.9536 20.9534H23.1533C23.6334 20.9534 24.0314 20.8683 24.3474 20.6981C24.6635 20.528 24.9005 20.291 25.0585 19.9871C25.2226 19.6832 25.3046 19.3307 25.3046 18.9296C25.3046 18.5042 25.2256 18.1366 25.0676 17.8266C24.9096 17.5167 24.6695 17.2797 24.3474 17.1156C24.0253 16.9515 23.6212 16.8694 23.135 16.8694H20.9199V28H18.1851V14.7272ZM25.6054 28L22.579 22.0838L25.4687 22.0655L28.5317 27.8724V28H25.6054ZM40.385 25.8669V28H33.3201V25.8669H40.385ZM34.2135 14.7272V28H31.4787V14.7272H34.2135ZM39.4643 20.133V22.2114H33.3201V20.133H39.4643ZM40.3759 14.7272V16.8694H33.3201V14.7272H40.3759ZM49.4306 14.7272V28H46.7049V14.7272H49.4306ZM53.5145 14.7272V16.8694H42.6848V14.7272H53.5145ZM60.819 16.9971L57.2091 28H54.3011L59.2328 14.7272H61.0833L60.819 16.9971ZM63.8181 28L60.1991 16.9971L59.9074 14.7272H61.7762L66.7352 28H63.8181ZM63.654 23.0592V25.2014H56.6439V23.0592H63.654ZM72.2074 14.7272V28H69.4817V14.7272H72.2074ZM84.635 25.8669V28H77.953V25.8669H84.635ZM78.8373 14.7272V28H76.1025V14.7272H78.8373Z" fill="#F38313"/>
</svg>
