<svg width="71" height="70" viewBox="0 0 71 70" fill="none" xmlns="http://www.w3.org/2000/svg">
<rect x="0.998779" width="70" height="70" rx="16.9067" fill="#2563AC"/>
<path fill-rule="evenodd" clip-rule="evenodd" d="M39.7865 30.0811H31.08V38.7875H39.7865V30.0811ZM36.8847 35.8856H33.9826V32.9834H36.8847V35.8856ZM48.4932 32.9836V30.0815H45.591V27.1793C45.591 25.5831 44.2851 24.2772 42.6889 24.2772H39.7867V21.375H36.8846V24.2772H33.9824V21.375H31.0802V24.2772H28.1781C26.5819 24.2772 25.2759 25.5831 25.2759 27.1793V30.0815H22.3738V32.9836H25.2759V35.8858H22.3738V38.7879H25.2759V41.6901C25.2759 43.2863 26.5819 44.5922 28.1781 44.5922H31.0802V47.4944H33.9824V44.5922H36.8846V47.4944H39.7867V44.5922H42.6889C44.2851 44.5922 45.591 43.2863 45.591 41.6901V38.7879H48.4932V35.8858H45.591V32.9836H48.4932ZM42.689 41.6905H28.1782V27.1797H42.689V41.6905Z" fill="white"/>
</svg>
