<svg width="93" height="49" viewBox="0 0 93 49" fill="none" xmlns="http://www.w3.org/2000/svg">
<rect x="15.0005" y="9" width="62" height="32" rx="16" fill="#FFE6CF"/>
<path d="M32.3394 20.0469V30H30.2954V20.0469H32.3394ZM35.4019 20.0469V21.6533H27.2808V20.0469H35.4019ZM40.8794 21.749L38.1724 30H35.9917L39.6899 20.0469H41.0776L40.8794 21.749ZM43.1284 30L40.4146 21.749L40.1958 20.0469H41.5972L45.3159 30H43.1284ZM43.0054 26.2949V27.9014H37.7485V26.2949H43.0054ZM51.2856 21.749L48.5786 30H46.3979L50.0962 20.0469H51.4839L51.2856 21.749ZM53.5347 30L50.8208 21.749L50.6021 20.0469H52.0034L55.7222 30H53.5347ZM53.4116 26.2949V27.9014H48.1548V26.2949H53.4116ZM62.8267 27.3955C62.8267 27.2178 62.7993 27.0583 62.7446 26.917C62.6945 26.7712 62.5988 26.639 62.4575 26.5205C62.3162 26.3975 62.118 26.2767 61.8628 26.1582C61.6076 26.0397 61.2772 25.9167 60.8716 25.7891C60.4204 25.6432 59.992 25.4792 59.5864 25.2969C59.1854 25.1146 58.8299 24.9027 58.52 24.6611C58.2147 24.415 57.9731 24.1302 57.7954 23.8066C57.6222 23.4831 57.5356 23.1071 57.5356 22.6787C57.5356 22.264 57.6268 21.888 57.8091 21.5508C57.9914 21.209 58.2466 20.9173 58.5747 20.6758C58.9028 20.4297 59.2902 20.2406 59.7368 20.1084C60.188 19.9762 60.6825 19.9102 61.2202 19.9102C61.9539 19.9102 62.5942 20.0423 63.1411 20.3066C63.688 20.571 64.1118 20.9333 64.4126 21.3936C64.7179 21.8538 64.8706 22.3802 64.8706 22.9727H62.8335C62.8335 22.681 62.772 22.4258 62.6489 22.207C62.5304 21.9837 62.3481 21.8083 62.1021 21.6807C61.8605 21.5531 61.5552 21.4893 61.186 21.4893C60.8306 21.4893 60.5343 21.5439 60.2974 21.6533C60.0604 21.7581 59.8826 21.9017 59.7642 22.084C59.6457 22.2617 59.5864 22.4622 59.5864 22.6855C59.5864 22.8542 59.6274 23.0068 59.7095 23.1436C59.7961 23.2803 59.9237 23.4079 60.0923 23.5264C60.2609 23.6449 60.4683 23.7565 60.7144 23.8613C60.9604 23.9661 61.2453 24.0687 61.5688 24.1689C62.1112 24.333 62.5874 24.5176 62.9976 24.7227C63.4123 24.9277 63.7586 25.1579 64.0366 25.4131C64.3146 25.6683 64.5243 25.9577 64.6655 26.2812C64.8068 26.6048 64.8774 26.9717 64.8774 27.3818C64.8774 27.8148 64.7931 28.2021 64.6245 28.5439C64.4559 28.8857 64.2121 29.1751 63.8931 29.4121C63.5741 29.6491 63.1935 29.8291 62.7515 29.9521C62.3094 30.0752 61.8149 30.1367 61.2681 30.1367C60.7759 30.1367 60.2905 30.0729 59.812 29.9453C59.3335 29.8132 58.8983 29.6149 58.5063 29.3506C58.119 29.0863 57.8091 28.749 57.5767 28.3389C57.3442 27.9287 57.228 27.4434 57.228 26.8828H59.2856C59.2856 27.1927 59.3335 27.4548 59.4292 27.6689C59.5249 27.8831 59.6593 28.0563 59.8325 28.1885C60.0103 28.3206 60.2199 28.4163 60.4614 28.4756C60.7075 28.5348 60.9764 28.5645 61.2681 28.5645C61.6235 28.5645 61.9152 28.5143 62.1431 28.4141C62.3755 28.3138 62.5464 28.1748 62.6558 27.9971C62.7697 27.8193 62.8267 27.6188 62.8267 27.3955Z" fill="#F38313"/>
<path d="M77.0005 10C78.1672 9 80.5005 5.8 80.5005 1M80.5005 13C82.5005 11.3333 86.5005 7.5 86.5005 5.5M84.5005 17C87.0005 15.3333 92.0005 11.6 92.0005 10" stroke="black" stroke-linecap="round"/>
<path d="M16.4363 39.7214C15.101 40.4816 12.2024 43.1803 11.2908 47.8929M13.5698 36.1113C11.2897 37.3678 6.63443 40.3717 6.25459 42.3353M10.4023 31.4244C7.63123 32.586 2.0132 35.3017 1.70933 36.8726" stroke="black" stroke-linecap="round"/>
</svg>
