<svg width="82" height="41" viewBox="0 0 82 41" fill="none" xmlns="http://www.w3.org/2000/svg">
<rect width="82" height="41" rx="20.5" fill="#FFE6CF"/>
<path d="M22.8643 14.2031V27H20.2363V14.2031H22.8643ZM26.8018 14.2031V16.2686H16.3604V14.2031H26.8018ZM33.9218 16.3916L30.4413 27H27.6376L32.3925 14.2031H34.1766L33.9218 16.3916ZM36.8134 27L33.3241 16.3916L33.0428 14.2031H34.8446L39.6259 27H36.8134ZM36.6551 22.2363V24.3018H29.8964V22.2363H36.6551ZM47.3787 16.3916L43.8982 27H41.0945L45.8494 14.2031H47.6335L47.3787 16.3916ZM50.2703 27L46.781 16.3916L46.4998 14.2031H48.3015L53.0828 27H50.2703ZM50.1121 22.2363V24.3018H43.3533V22.2363H50.1121ZM62.2946 23.6514C62.2946 23.4229 62.2594 23.2178 62.1891 23.0361C62.1246 22.8486 62.0016 22.6787 61.8199 22.5264C61.6383 22.3682 61.3834 22.2129 61.0553 22.0605C60.7272 21.9082 60.3024 21.75 59.7809 21.5859C59.2008 21.3984 58.65 21.1875 58.1285 20.9531C57.6129 20.7188 57.1559 20.4463 56.7574 20.1357C56.3649 19.8193 56.0543 19.4531 55.8258 19.0371C55.6031 18.6211 55.4918 18.1377 55.4918 17.5869C55.4918 17.0537 55.609 16.5703 55.8434 16.1367C56.0778 15.6973 56.4059 15.3223 56.8278 15.0117C57.2496 14.6953 57.7477 14.4521 58.3219 14.2822C58.902 14.1123 59.5377 14.0273 60.2291 14.0273C61.1725 14.0273 61.9957 14.1973 62.6988 14.5371C63.402 14.877 63.9469 15.3428 64.3336 15.9346C64.7262 16.5264 64.9225 17.2031 64.9225 17.9648H62.3033C62.3033 17.5898 62.2242 17.2617 62.066 16.9805C61.9137 16.6934 61.6793 16.4678 61.3629 16.3037C61.0524 16.1396 60.6598 16.0576 60.1852 16.0576C59.7281 16.0576 59.3473 16.1279 59.0426 16.2686C58.7379 16.4033 58.5094 16.5879 58.3571 16.8223C58.2047 17.0508 58.1285 17.3086 58.1285 17.5957C58.1285 17.8125 58.1813 18.0088 58.2867 18.1846C58.3981 18.3604 58.5621 18.5244 58.7789 18.6768C58.9957 18.8291 59.2623 18.9727 59.5787 19.1074C59.8951 19.2422 60.2613 19.374 60.6774 19.5029C61.3746 19.7139 61.9869 19.9512 62.5143 20.2148C63.0475 20.4785 63.4928 20.7744 63.8502 21.1025C64.2076 21.4307 64.4772 21.8027 64.6588 22.2188C64.8405 22.6348 64.9313 23.1064 64.9313 23.6338C64.9313 24.1904 64.8229 24.6885 64.6061 25.1279C64.3893 25.5674 64.0758 25.9395 63.6656 26.2441C63.2555 26.5488 62.7662 26.7803 62.1979 26.9385C61.6295 27.0967 60.9938 27.1758 60.2906 27.1758C59.6578 27.1758 59.0338 27.0938 58.4186 26.9297C57.8033 26.7598 57.2438 26.5049 56.7399 26.165C56.2418 25.8252 55.8434 25.3916 55.5446 24.8643C55.2457 24.3369 55.0963 23.7129 55.0963 22.9922H57.7418C57.7418 23.3906 57.8033 23.7275 57.9264 24.0029C58.0494 24.2783 58.2223 24.501 58.4449 24.6709C58.6735 24.8408 58.943 24.9639 59.2535 25.04C59.5699 25.1162 59.9156 25.1543 60.2906 25.1543C60.7477 25.1543 61.1227 25.0898 61.4156 24.9609C61.7145 24.832 61.9342 24.6533 62.0748 24.4248C62.2213 24.1963 62.2946 23.9385 62.2946 23.6514Z" fill="#F38313"/>
</svg>
