<svg width="158" height="32" viewBox="0 0 158 32" fill="none" xmlns="http://www.w3.org/2000/svg">
<rect width="158" height="32" rx="16" fill="#FFE6CF"/>
<path d="M27.3389 11.0469V21H25.2949V11.0469H27.3389ZM30.4014 11.0469V12.6533H22.2803V11.0469H30.4014ZM39.249 19.4004V21H33.9512V19.4004H39.249ZM34.6211 11.0469V21H32.5703V11.0469H34.6211ZM38.5586 15.1006V16.6592H33.9512V15.1006H38.5586ZM39.2422 11.0469V12.6533H33.9512V11.0469H39.2422ZM46.627 18.3955C46.627 18.2178 46.5996 18.0583 46.5449 17.917C46.4948 17.7712 46.3991 17.639 46.2578 17.5205C46.1165 17.3975 45.9183 17.2767 45.6631 17.1582C45.4079 17.0397 45.0775 16.9167 44.6719 16.7891C44.2207 16.6432 43.7923 16.4792 43.3867 16.2969C42.9857 16.1146 42.6302 15.9027 42.3203 15.6611C42.015 15.415 41.7734 15.1302 41.5957 14.8066C41.4225 14.4831 41.3359 14.1071 41.3359 13.6787C41.3359 13.264 41.4271 12.888 41.6094 12.5508C41.7917 12.209 42.0469 11.9173 42.375 11.6758C42.7031 11.4297 43.0905 11.2406 43.5371 11.1084C43.9883 10.9762 44.4827 10.9102 45.0205 10.9102C45.7542 10.9102 46.3945 11.0423 46.9414 11.3066C47.4883 11.571 47.9121 11.9333 48.2129 12.3936C48.5182 12.8538 48.6709 13.3802 48.6709 13.9727H46.6338C46.6338 13.681 46.5723 13.4258 46.4492 13.207C46.3307 12.9837 46.1484 12.8083 45.9023 12.6807C45.6608 12.5531 45.3555 12.4893 44.9863 12.4893C44.6309 12.4893 44.3346 12.5439 44.0977 12.6533C43.8607 12.7581 43.6829 12.9017 43.5645 13.084C43.446 13.2617 43.3867 13.4622 43.3867 13.6855C43.3867 13.8542 43.4277 14.0068 43.5098 14.1436C43.5964 14.2803 43.724 14.4079 43.8926 14.5264C44.0612 14.6449 44.2686 14.7565 44.5146 14.8613C44.7607 14.9661 45.0456 15.0687 45.3691 15.1689C45.9115 15.333 46.3877 15.5176 46.7979 15.7227C47.2126 15.9277 47.5589 16.1579 47.8369 16.4131C48.1149 16.6683 48.3245 16.9577 48.4658 17.2812C48.6071 17.6048 48.6777 17.9717 48.6777 18.3818C48.6777 18.8148 48.5934 19.2021 48.4248 19.5439C48.2562 19.8857 48.0124 20.1751 47.6934 20.4121C47.3743 20.6491 46.9938 20.8291 46.5518 20.9521C46.1097 21.0752 45.6152 21.1367 45.0684 21.1367C44.5762 21.1367 44.0908 21.0729 43.6123 20.9453C43.1338 20.8132 42.6986 20.6149 42.3066 20.3506C41.9193 20.0863 41.6094 19.749 41.377 19.3389C41.1445 18.9287 41.0283 18.4434 41.0283 17.8828H43.0859C43.0859 18.1927 43.1338 18.4548 43.2295 18.6689C43.3252 18.8831 43.4596 19.0563 43.6328 19.1885C43.8105 19.3206 44.0202 19.4163 44.2617 19.4756C44.5078 19.5348 44.7767 19.5645 45.0684 19.5645C45.4238 19.5645 45.7155 19.5143 45.9434 19.4141C46.1758 19.3138 46.3467 19.1748 46.4561 18.9971C46.57 18.8193 46.627 18.6188 46.627 18.3955ZM55.5225 11.0469V21H53.4785V11.0469H55.5225ZM58.585 11.0469V12.6533H50.4639V11.0469H58.585ZM62.9346 11.0469V21H60.8906V11.0469H62.9346ZM66.792 11.0469H68.5283L71.085 18.3545L73.6416 11.0469H75.3779L71.7822 21H70.3877L66.792 11.0469ZM65.8555 11.0469H67.585L67.8994 18.1699V21H65.8555V11.0469ZM74.585 11.0469H76.3213V21H74.2705V18.1699L74.585 11.0469ZM87.2949 15.791V16.2627C87.2949 17.0192 87.1924 17.6982 86.9873 18.2998C86.7822 18.9014 86.4928 19.4141 86.1191 19.8379C85.7454 20.2572 85.2988 20.5785 84.7793 20.8018C84.2643 21.0251 83.6924 21.1367 83.0635 21.1367C82.4391 21.1367 81.8672 21.0251 81.3477 20.8018C80.8327 20.5785 80.3861 20.2572 80.0078 19.8379C79.6296 19.4141 79.3356 18.9014 79.126 18.2998C78.9209 17.6982 78.8184 17.0192 78.8184 16.2627V15.791C78.8184 15.0299 78.9209 14.3509 79.126 13.7539C79.3311 13.1523 79.6204 12.6396 79.9941 12.2158C80.3724 11.792 80.819 11.4684 81.334 11.2451C81.8535 11.0218 82.4255 10.9102 83.0498 10.9102C83.6787 10.9102 84.2507 11.0218 84.7656 11.2451C85.2852 11.4684 85.7318 11.792 86.1055 12.2158C86.4837 12.6396 86.7754 13.1523 86.9805 13.7539C87.1901 14.3509 87.2949 15.0299 87.2949 15.791ZM85.2236 16.2627V15.7773C85.2236 15.2487 85.1758 14.7839 85.0801 14.3828C84.9844 13.9818 84.8431 13.6445 84.6562 13.3711C84.4694 13.0977 84.2415 12.8926 83.9727 12.7559C83.7038 12.6146 83.3962 12.5439 83.0498 12.5439C82.7035 12.5439 82.3958 12.6146 82.127 12.7559C81.8626 12.8926 81.637 13.0977 81.4502 13.3711C81.2679 13.6445 81.1289 13.9818 81.0332 14.3828C80.9375 14.7839 80.8896 15.2487 80.8896 15.7773V16.2627C80.8896 16.7868 80.9375 17.2516 81.0332 17.6572C81.1289 18.0583 81.2702 18.3978 81.457 18.6758C81.6439 18.9492 81.8717 19.1566 82.1406 19.2979C82.4095 19.4391 82.7171 19.5098 83.0635 19.5098C83.4098 19.5098 83.7174 19.4391 83.9863 19.2979C84.2552 19.1566 84.4808 18.9492 84.6631 18.6758C84.8454 18.3978 84.9844 18.0583 85.0801 17.6572C85.1758 17.2516 85.2236 16.7868 85.2236 16.2627ZM97.8721 11.0469V21H95.8213L91.8223 14.3281V21H89.7715V11.0469H91.8223L95.8281 17.7256V11.0469H97.8721ZM102.837 11.0469V21H100.793V11.0469H102.837ZM109.928 12.749L107.221 21H105.04L108.738 11.0469H110.126L109.928 12.749ZM112.177 21L109.463 12.749L109.244 11.0469H110.646L114.364 21H112.177ZM112.054 17.2949V18.9014H106.797V17.2949H112.054ZM122.686 19.4004V21H117.675V19.4004H122.686ZM118.338 11.0469V21H116.287V11.0469H118.338ZM130.043 18.3955C130.043 18.2178 130.016 18.0583 129.961 17.917C129.911 17.7712 129.815 17.639 129.674 17.5205C129.533 17.3975 129.334 17.2767 129.079 17.1582C128.824 17.0397 128.493 16.9167 128.088 16.7891C127.637 16.6432 127.208 16.4792 126.803 16.2969C126.402 16.1146 126.046 15.9027 125.736 15.6611C125.431 15.415 125.189 15.1302 125.012 14.8066C124.839 14.4831 124.752 14.1071 124.752 13.6787C124.752 13.264 124.843 12.888 125.025 12.5508C125.208 12.209 125.463 11.9173 125.791 11.6758C126.119 11.4297 126.507 11.2406 126.953 11.1084C127.404 10.9762 127.899 10.9102 128.437 10.9102C129.17 10.9102 129.811 11.0423 130.357 11.3066C130.904 11.571 131.328 11.9333 131.629 12.3936C131.934 12.8538 132.087 13.3802 132.087 13.9727H130.05C130.05 13.681 129.988 13.4258 129.865 13.207C129.747 12.9837 129.564 12.8083 129.318 12.6807C129.077 12.5531 128.771 12.4893 128.402 12.4893C128.047 12.4893 127.751 12.5439 127.514 12.6533C127.277 12.7581 127.099 12.9017 126.98 13.084C126.862 13.2617 126.803 13.4622 126.803 13.6855C126.803 13.8542 126.844 14.0068 126.926 14.1436C127.012 14.2803 127.14 14.4079 127.309 14.5264C127.477 14.6449 127.685 14.7565 127.931 14.8613C128.177 14.9661 128.462 15.0687 128.785 15.1689C129.327 15.333 129.804 15.5176 130.214 15.7227C130.629 15.9277 130.975 16.1579 131.253 16.4131C131.531 16.6683 131.741 16.9577 131.882 17.2812C132.023 17.6048 132.094 17.9717 132.094 18.3818C132.094 18.8148 132.009 19.2021 131.841 19.5439C131.672 19.8857 131.428 20.1751 131.109 20.4121C130.79 20.6491 130.41 20.8291 129.968 20.9521C129.526 21.0752 129.031 21.1367 128.484 21.1367C127.992 21.1367 127.507 21.0729 127.028 20.9453C126.55 20.8132 126.115 20.6149 125.723 20.3506C125.335 20.0863 125.025 19.749 124.793 19.3389C124.561 18.9287 124.444 18.4434 124.444 17.8828H126.502C126.502 18.1927 126.55 18.4548 126.646 18.6689C126.741 18.8831 126.876 19.0563 127.049 19.1885C127.227 19.3206 127.436 19.4163 127.678 19.4756C127.924 19.5348 128.193 19.5645 128.484 19.5645C128.84 19.5645 129.132 19.5143 129.359 19.4141C129.592 19.3138 129.763 19.1748 129.872 18.9971C129.986 18.8193 130.043 18.6188 130.043 18.3955Z" fill="#F38313"/>
</svg>
