<svg width="172" height="32" viewBox="0 0 172 32" fill="none" xmlns="http://www.w3.org/2000/svg">
<rect width="172" height="32" rx="16" fill="#DCECFF"/>
<path d="M17.2881 19.4209L19.2705 11.0469H20.3779L20.6309 12.4414L18.5186 21H17.3291L17.2881 19.4209ZM16.2695 11.0469L17.9102 19.4209L17.7734 21H16.4473L14.2393 11.0469H16.2695ZM22.374 19.3867L23.9941 11.0469H26.0244L23.8232 21H22.4971L22.374 19.3867ZM21 11.0469L22.9961 19.4551L22.9414 21H21.752L19.626 12.4346L19.8994 11.0469H21ZM34.8174 19.4004V21H29.5195V19.4004H34.8174ZM30.1895 11.0469V21H28.1387V11.0469H30.1895ZM34.127 15.1006V16.6592H29.5195V15.1006H34.127ZM34.8105 11.0469V12.6533H29.5195V11.0469H34.8105ZM40.9102 16.6318H38.3535L38.3398 15.2236H40.4863C40.8646 15.2236 41.1745 15.1758 41.416 15.0801C41.6576 14.9798 41.8376 14.8363 41.9561 14.6494C42.0791 14.458 42.1406 14.2256 42.1406 13.9521C42.1406 13.6423 42.0814 13.3916 41.9629 13.2002C41.849 13.0088 41.6689 12.8698 41.4229 12.7832C41.1813 12.6966 40.8691 12.6533 40.4863 12.6533H39.0645V21H37.0137V11.0469H40.4863C41.0651 11.0469 41.5824 11.1016 42.0381 11.2109C42.4984 11.3203 42.888 11.4867 43.207 11.71C43.526 11.9333 43.7699 12.2158 43.9385 12.5576C44.1071 12.8949 44.1914 13.2959 44.1914 13.7607C44.1914 14.1709 44.098 14.5492 43.9111 14.8955C43.7288 15.2419 43.4395 15.5244 43.043 15.7432C42.651 15.9619 42.1383 16.0827 41.5049 16.1055L40.9102 16.6318ZM40.8213 21H37.793L38.5928 19.4004H40.8213C41.1813 19.4004 41.4753 19.3434 41.7031 19.2295C41.931 19.111 42.0996 18.9515 42.209 18.751C42.3184 18.5505 42.373 18.3203 42.373 18.0605C42.373 17.7689 42.3229 17.516 42.2227 17.3018C42.127 17.0876 41.972 16.9235 41.7578 16.8096C41.5436 16.6911 41.2611 16.6318 40.9102 16.6318H38.9346L38.9482 15.2236H41.4092L41.8809 15.7773C42.487 15.7682 42.9746 15.8753 43.3438 16.0986C43.7174 16.3174 43.9886 16.6022 44.1572 16.9531C44.3304 17.304 44.417 17.68 44.417 18.0811C44.417 18.7191 44.278 19.2568 44 19.6943C43.722 20.1273 43.3141 20.4531 42.7764 20.6719C42.2432 20.8906 41.5915 21 40.8213 21ZM54.4971 21H52.3301L52.3438 19.4004H54.4971C55.0348 19.4004 55.4883 19.2796 55.8574 19.0381C56.2266 18.792 56.5046 18.4342 56.6914 17.9648C56.8828 17.4954 56.9785 16.9281 56.9785 16.2627V15.7773C56.9785 15.2669 56.9238 14.818 56.8145 14.4307C56.7096 14.0433 56.5524 13.7174 56.3428 13.4531C56.1331 13.1888 55.8757 12.9906 55.5703 12.8584C55.265 12.7217 54.9141 12.6533 54.5176 12.6533H52.2891V11.0469H54.5176C55.1829 11.0469 55.7913 11.1608 56.3428 11.3887C56.8988 11.612 57.3796 11.9333 57.7852 12.3525C58.1908 12.7718 58.5029 13.2731 58.7217 13.8564C58.945 14.4352 59.0566 15.0801 59.0566 15.791V16.2627C59.0566 16.9691 58.945 17.6139 58.7217 18.1973C58.5029 18.7806 58.1908 19.2819 57.7852 19.7012C57.3841 20.1159 56.9033 20.4372 56.3428 20.665C55.7868 20.8883 55.1715 21 54.4971 21ZM53.4922 11.0469V21H51.4414V11.0469H53.4922ZM68.2256 19.4004V21H62.9277V19.4004H68.2256ZM63.5977 11.0469V21H61.5469V11.0469H63.5977ZM67.5352 15.1006V16.6592H62.9277V15.1006H67.5352ZM68.2188 11.0469V12.6533H62.9277V11.0469H68.2188ZM74.0107 18.9219L76.3555 11.0469H78.6387L75.1729 21H73.6689L74.0107 18.9219ZM71.8506 11.0469L74.1885 18.9219L74.5439 21H73.0264L69.5811 11.0469H71.8506ZM87.2471 19.4004V21H81.9492V19.4004H87.2471ZM82.6191 11.0469V21H80.5684V11.0469H82.6191ZM86.5566 15.1006V16.6592H81.9492V15.1006H86.5566ZM87.2402 11.0469V12.6533H81.9492V11.0469H87.2402ZM95.8418 19.4004V21H90.8311V19.4004H95.8418ZM91.4941 11.0469V21H89.4434V11.0469H91.4941ZM105.742 15.791V16.2627C105.742 17.0192 105.64 17.6982 105.435 18.2998C105.229 18.9014 104.94 19.4141 104.566 19.8379C104.193 20.2572 103.746 20.5785 103.227 20.8018C102.712 21.0251 102.14 21.1367 101.511 21.1367C100.886 21.1367 100.314 21.0251 99.7949 20.8018C99.2799 20.5785 98.8333 20.2572 98.4551 19.8379C98.0768 19.4141 97.7829 18.9014 97.5732 18.2998C97.3682 17.6982 97.2656 17.0192 97.2656 16.2627V15.791C97.2656 15.0299 97.3682 14.3509 97.5732 13.7539C97.7783 13.1523 98.0677 12.6396 98.4414 12.2158C98.8197 11.792 99.2663 11.4684 99.7812 11.2451C100.301 11.0218 100.873 10.9102 101.497 10.9102C102.126 10.9102 102.698 11.0218 103.213 11.2451C103.732 11.4684 104.179 11.792 104.553 12.2158C104.931 12.6396 105.223 13.1523 105.428 13.7539C105.637 14.3509 105.742 15.0299 105.742 15.791ZM103.671 16.2627V15.7773C103.671 15.2487 103.623 14.7839 103.527 14.3828C103.432 13.9818 103.29 13.6445 103.104 13.3711C102.917 13.0977 102.689 12.8926 102.42 12.7559C102.151 12.6146 101.843 12.5439 101.497 12.5439C101.151 12.5439 100.843 12.6146 100.574 12.7559C100.31 12.8926 100.084 13.0977 99.8975 13.3711C99.7152 13.6445 99.5762 13.9818 99.4805 14.3828C99.3848 14.7839 99.3369 15.2487 99.3369 15.7773V16.2627C99.3369 16.7868 99.3848 17.2516 99.4805 17.6572C99.5762 18.0583 99.7174 18.3978 99.9043 18.6758C100.091 18.9492 100.319 19.1566 100.588 19.2979C100.857 19.4391 101.164 19.5098 101.511 19.5098C101.857 19.5098 102.165 19.4391 102.434 19.2979C102.702 19.1566 102.928 18.9492 103.11 18.6758C103.293 18.3978 103.432 18.0583 103.527 17.6572C103.623 17.2516 103.671 16.7868 103.671 16.2627ZM112.095 17.4521H109.559V15.8525H112.095C112.487 15.8525 112.806 15.7887 113.052 15.6611C113.298 15.529 113.478 15.3467 113.592 15.1143C113.706 14.8818 113.763 14.6198 113.763 14.3281C113.763 14.0319 113.706 13.7562 113.592 13.501C113.478 13.2458 113.298 13.0407 113.052 12.8857C112.806 12.7308 112.487 12.6533 112.095 12.6533H110.27V21H108.219V11.0469H112.095C112.874 11.0469 113.542 11.1882 114.098 11.4707C114.658 11.7487 115.087 12.1338 115.383 12.626C115.679 13.1182 115.827 13.681 115.827 14.3145C115.827 14.957 115.679 15.513 115.383 15.9824C115.087 16.4518 114.658 16.8141 114.098 17.0693C113.542 17.3245 112.874 17.4521 112.095 17.4521ZM119.179 11.0469H120.915L123.472 18.3545L126.028 11.0469H127.765L124.169 21H122.774L119.179 11.0469ZM118.242 11.0469H119.972L120.286 18.1699V21H118.242V11.0469ZM126.972 11.0469H128.708V21H126.657V18.1699L126.972 11.0469ZM138.185 19.4004V21H132.887V19.4004H138.185ZM133.557 11.0469V21H131.506V11.0469H133.557ZM137.494 15.1006V16.6592H132.887V15.1006H137.494ZM138.178 11.0469V12.6533H132.887V11.0469H138.178ZM148.481 11.0469V21H146.431L142.432 14.3281V21H140.381V11.0469H142.432L146.438 17.7256V11.0469H148.481ZM155.511 11.0469V21H153.467V11.0469H155.511ZM158.573 11.0469V12.6533H150.452V11.0469H158.573Z" fill="#2563AC"/>
</svg>
