<svg width="220" height="41" viewBox="0 0 220 41" fill="none" xmlns="http://www.w3.org/2000/svg">
<rect width="220" height="41" rx="20.5" fill="#DCECFF"/>
<path d="M20.2275 24.9697L22.7764 14.2031H24.2002L24.5254 15.9961L21.8096 27H20.2803L20.2275 24.9697ZM18.918 14.2031L21.0273 24.9697L20.8516 27H19.1465L16.3076 14.2031H18.918ZM26.7666 24.9258L28.8496 14.2031H31.46L28.6299 27H26.9248L26.7666 24.9258ZM25 14.2031L27.5664 25.0137L27.4961 27H25.9668L23.2334 15.9873L23.585 14.2031H25ZM42.8884 24.9434V27H36.0769V24.9434H42.8884ZM36.9382 14.2031V27H34.3015V14.2031H36.9382ZM42.0007 19.415V21.4189H36.0769V19.415H42.0007ZM42.8796 14.2031V16.2686H36.0769V14.2031H42.8796ZM50.8451 21.3838H47.558L47.5404 19.5732H50.3002C50.7865 19.5732 51.185 19.5117 51.4955 19.3887C51.8061 19.2598 52.0375 19.0752 52.1899 18.835C52.3481 18.5889 52.4272 18.29 52.4272 17.9385C52.4272 17.54 52.351 17.2178 52.1987 16.9717C52.0522 16.7256 51.8207 16.5469 51.5043 16.4355C51.1938 16.3242 50.7924 16.2686 50.3002 16.2686H48.4721V27H45.8354V14.2031H50.3002C51.0444 14.2031 51.7094 14.2734 52.2953 14.4141C52.8871 14.5547 53.3881 14.7686 53.7983 15.0557C54.2084 15.3428 54.5219 15.7061 54.7387 16.1455C54.9555 16.5791 55.0639 17.0947 55.0639 17.6924C55.0639 18.2197 54.9438 18.7061 54.7035 19.1514C54.4692 19.5967 54.0971 19.96 53.5873 20.2412C53.0834 20.5225 52.4242 20.6777 51.6098 20.707L50.8451 21.3838ZM50.7309 27H46.8373L47.8656 24.9434H50.7309C51.1938 24.9434 51.5717 24.8701 51.8647 24.7236C52.1576 24.5713 52.3744 24.3662 52.5151 24.1084C52.6557 23.8506 52.726 23.5547 52.726 23.2207C52.726 22.8457 52.6615 22.5205 52.5326 22.2451C52.4096 21.9697 52.2104 21.7588 51.935 21.6123C51.6596 21.46 51.2963 21.3838 50.8451 21.3838H48.3051L48.3227 19.5732H51.4867L52.0932 20.2852C52.8725 20.2734 53.4994 20.4111 53.974 20.6982C54.4545 20.9795 54.8031 21.3457 55.0199 21.7969C55.2426 22.248 55.3539 22.7314 55.3539 23.2471C55.3539 24.0674 55.1752 24.7588 54.8178 25.3213C54.4604 25.8779 53.936 26.2969 53.2445 26.5781C52.559 26.8594 51.7211 27 50.7309 27ZM68.5604 27H65.7743L65.7918 24.9434H68.5604C69.2518 24.9434 69.8348 24.7881 70.3094 24.4775C70.784 24.1611 71.1414 23.7012 71.3817 23.0977C71.6278 22.4941 71.7508 21.7646 71.7508 20.9092V20.2852C71.7508 19.6289 71.6805 19.0518 71.5399 18.5537C71.4051 18.0557 71.203 17.6367 70.9334 17.2969C70.6639 16.957 70.3328 16.7021 69.9403 16.5322C69.5477 16.3564 69.0965 16.2686 68.5868 16.2686H65.7215V14.2031H68.5868C69.4422 14.2031 70.2244 14.3496 70.9334 14.6426C71.6483 14.9297 72.2664 15.3428 72.7879 15.8818C73.3094 16.4209 73.7108 17.0654 73.992 17.8154C74.2791 18.5596 74.4227 19.3887 74.4227 20.3027V20.9092C74.4227 21.8174 74.2791 22.6465 73.992 23.3965C73.7108 24.1465 73.3094 24.791 72.7879 25.3301C72.2723 25.8633 71.6541 26.2764 70.9334 26.5693C70.2186 26.8564 69.4276 27 68.5604 27ZM67.2684 14.2031V27H64.6317V14.2031H67.2684ZM86.3345 24.9434V27H79.523V24.9434H86.3345ZM80.3843 14.2031V27H77.7476V14.2031H80.3843ZM85.4468 19.415V21.4189H79.523V19.415H85.4468ZM86.3257 14.2031V16.2686H79.523V14.2031H86.3257ZM93.8958 24.3281L96.9104 14.2031H99.8459L95.3899 27H93.4563L93.8958 24.3281ZM91.1184 14.2031L94.1243 24.3281L94.5813 27H92.6301L88.2004 14.2031H91.1184ZM111.037 24.9434V27H104.226V24.9434H111.037ZM105.087 14.2031V27H102.45V14.2031H105.087ZM110.149 19.415V21.4189H104.226V19.415H110.149ZM111.028 14.2031V16.2686H104.226V14.2031H111.028ZM122.211 24.9434V27H115.768V24.9434H122.211ZM116.621 14.2031V27H113.984V14.2031H116.621ZM135.063 20.3027V20.9092C135.063 21.8818 134.931 22.7549 134.667 23.5283C134.404 24.3018 134.032 24.9609 133.551 25.5059C133.071 26.0449 132.496 26.458 131.828 26.7451C131.166 27.0322 130.431 27.1758 129.622 27.1758C128.82 27.1758 128.084 27.0322 127.416 26.7451C126.754 26.458 126.18 26.0449 125.694 25.5059C125.207 24.9609 124.829 24.3018 124.56 23.5283C124.296 22.7549 124.164 21.8818 124.164 20.9092V20.3027C124.164 19.3242 124.296 18.4512 124.56 17.6836C124.824 16.9102 125.196 16.251 125.676 15.7061C126.162 15.1611 126.737 14.7451 127.399 14.458C128.067 14.1709 128.802 14.0273 129.605 14.0273C130.413 14.0273 131.149 14.1709 131.811 14.458C132.479 14.7451 133.053 15.1611 133.534 15.7061C134.02 16.251 134.395 16.9102 134.659 17.6836C134.928 18.4512 135.063 19.3242 135.063 20.3027ZM132.4 20.9092V20.2852C132.4 19.6055 132.338 19.0078 132.215 18.4922C132.092 17.9766 131.911 17.543 131.67 17.1914C131.43 16.8398 131.137 16.5762 130.791 16.4004C130.446 16.2188 130.05 16.1279 129.605 16.1279C129.16 16.1279 128.764 16.2188 128.418 16.4004C128.078 16.5762 127.788 16.8398 127.548 17.1914C127.314 17.543 127.135 17.9766 127.012 18.4922C126.889 19.0078 126.828 19.6055 126.828 20.2852V20.9092C126.828 21.583 126.889 22.1807 127.012 22.7021C127.135 23.2178 127.317 23.6543 127.557 24.0117C127.797 24.3633 128.09 24.6299 128.436 24.8115C128.782 24.9932 129.177 25.084 129.622 25.084C130.068 25.084 130.463 24.9932 130.809 24.8115C131.155 24.6299 131.445 24.3633 131.679 24.0117C131.913 23.6543 132.092 23.2178 132.215 22.7021C132.338 22.1807 132.4 21.583 132.4 20.9092ZM143.354 22.4385H140.093V20.3818H143.354C143.858 20.3818 144.268 20.2998 144.584 20.1357C144.9 19.9658 145.132 19.7314 145.278 19.4326C145.425 19.1338 145.498 18.7969 145.498 18.4219C145.498 18.041 145.425 17.6865 145.278 17.3584C145.132 17.0303 144.9 16.7666 144.584 16.5674C144.268 16.3682 143.858 16.2686 143.354 16.2686H141.007V27H138.37V14.2031H143.354C144.356 14.2031 145.214 14.3848 145.929 14.748C146.649 15.1055 147.2 15.6006 147.581 16.2334C147.962 16.8662 148.152 17.5898 148.152 18.4043C148.152 19.2305 147.962 19.9453 147.581 20.5488C147.2 21.1523 146.649 21.6182 145.929 21.9463C145.214 22.2744 144.356 22.4385 143.354 22.4385ZM152.585 14.2031H154.817L158.104 23.5986L161.391 14.2031H163.624L159.001 27H157.208L152.585 14.2031ZM151.381 14.2031H153.604L154.009 23.3613V27H151.381V14.2031ZM162.604 14.2031H164.837V27H162.2V23.3613L162.604 14.2031ZM177.144 24.9434V27H170.333V24.9434H177.144ZM171.194 14.2031V27H168.557V14.2031H171.194ZM176.256 19.415V21.4189H170.333V19.415H176.256ZM177.135 14.2031V16.2686H170.333V14.2031H177.135ZM190.506 14.2031V27H187.869L182.728 18.4219V27H180.091V14.2031H182.728L187.878 22.79V14.2031H190.506ZM199.667 14.2031V27H197.039V14.2031H199.667ZM203.604 14.2031V16.2686H193.163V14.2031H203.604Z" fill="#2563AC"/>
</svg>
