<svg width="81" height="81" viewBox="0 0 81 81" fill="none" xmlns="http://www.w3.org/2000/svg">
<g clip-path="url(#clip0_1566_3992)">
<g clip-path="url(#clip1_1566_3992)">
<g clip-path="url(#clip2_1566_3992)">
<mask id="mask0_1566_3992" style="mask-type:luminance" maskUnits="userSpaceOnUse" x="15" y="15" width="51" height="51">
<path d="M65.2578 15.3789H15.2578V65.3789H65.2578V15.3789Z" fill="white"/>
</mask>
<g mask="url(#mask0_1566_3992)">
<path d="M54.9258 55.6837C52.9206 57.7002 50.5353 59.2989 47.908 60.3871C45.2807 61.4754 42.4636 62.0317 39.6198 62.0237H16.0388C15.8317 62.0237 15.633 61.9414 15.4866 61.7949C15.3401 61.6484 15.2578 61.4498 15.2578 61.2427C15.2578 61.0355 15.3401 60.8369 15.4866 60.6904C15.633 60.5439 15.8317 60.4617 16.0388 60.4617H39.6198C44.7324 60.4613 49.6525 58.5112 53.377 55.0088C57.1016 51.5064 59.3502 46.7155 59.6646 41.6125C59.9789 36.5095 58.3353 31.4788 55.0688 27.5458C51.8023 23.6127 47.1587 21.0735 42.0848 20.4457L44.3948 22.2457C44.5582 22.3732 44.6642 22.5605 44.6895 22.7662C44.7148 22.9719 44.6574 23.1793 44.5298 23.3427C44.4022 23.506 44.215 23.612 44.0093 23.6374C43.8035 23.6627 43.5962 23.6052 43.4328 23.4777L39.1388 20.1247C39.0453 20.0516 38.9697 19.9582 38.9176 19.8516C38.8656 19.7449 38.8386 19.6278 38.8386 19.5092C38.8386 19.3905 38.8656 19.2734 38.9176 19.1667C38.9697 19.0601 39.0453 18.9667 39.1388 18.8937L43.4328 15.5407C43.5961 15.4131 43.8033 15.3556 44.0089 15.3808C44.2146 15.406 44.4017 15.5119 44.5293 15.6752C44.6569 15.8384 44.7144 16.0456 44.6892 16.2513C44.6639 16.4569 44.5581 16.6441 44.3948 16.7717L41.7578 18.8357C45.8369 19.2406 49.7171 20.7954 52.9472 23.3193C56.1772 25.8431 58.6243 29.2321 60.0037 33.0922C61.3831 36.9522 61.6382 41.1246 60.7393 45.1239C59.8404 49.1233 57.8244 52.7852 54.9258 55.6837ZM25.8258 57.0607C25.9849 57.1933 26.1902 57.2572 26.3965 57.2385C26.6028 57.2197 26.7932 57.1198 26.9258 56.9607C27.0584 56.8015 27.1224 56.5962 27.1036 56.3899C27.0849 56.1837 26.9849 55.9933 26.8258 55.8607C23.9806 53.5083 21.8386 50.4173 20.6351 46.9272C19.4315 43.4372 19.213 39.6829 20.0034 36.0768C20.7939 32.4706 22.5628 29.152 25.1159 26.4854C27.6689 23.8188 30.9075 21.9072 34.4758 20.9607C34.575 20.9344 34.6681 20.8888 34.7497 20.8266C34.8313 20.7644 34.8999 20.6867 34.9515 20.598C35.003 20.5092 35.0366 20.4112 35.0503 20.3095C35.064 20.2078 35.0576 20.1044 35.0313 20.0052C35.005 19.9059 34.9595 19.8129 34.8973 19.7313C34.835 19.6497 34.7573 19.5811 34.6686 19.5295C34.5799 19.4779 34.4819 19.4443 34.3802 19.4306C34.2784 19.4169 34.175 19.4234 34.0758 19.4497C30.23 20.4696 26.7396 22.5296 23.9878 25.4034C21.2361 28.2772 19.3295 31.8537 18.4773 35.7402C17.6252 39.6266 17.8605 43.6728 19.1574 47.4343C20.4542 51.1958 22.7625 54.5272 25.8288 57.0627L25.8258 57.0607ZM64.9578 60.6277L60.6628 57.2777C60.4994 57.1501 60.2921 57.0926 60.0864 57.118C59.8806 57.1433 59.6934 57.2493 59.5658 57.4127C59.4382 57.576 59.3808 57.7834 59.4061 57.9891C59.4314 58.1948 59.5374 58.3821 59.7008 58.5097L62.2058 60.4657H53.6248C53.4175 60.4657 53.2188 60.548 53.0722 60.6945C52.9256 60.8411 52.8433 61.0399 52.8433 61.2472C52.8433 61.4544 52.9256 61.6532 53.0722 61.7998C53.2188 61.9463 53.4175 62.0287 53.6248 62.0287H62.2068L59.7018 63.9777C59.6209 64.0408 59.5533 64.1193 59.5027 64.2086C59.4521 64.2979 59.4197 64.3963 59.4071 64.4982C59.3946 64.6001 59.4022 64.7034 59.4296 64.8023C59.457 64.9012 59.5036 64.9938 59.5668 65.0747C59.63 65.1555 59.7085 65.2232 59.7978 65.2738C59.8871 65.3243 59.9855 65.3568 60.0874 65.3694C60.1892 65.3819 60.2926 65.3742 60.3915 65.3468C60.4904 65.3194 60.5829 65.2728 60.6638 65.2097L64.9578 61.8587C65.0513 61.7856 65.127 61.6922 65.179 61.5856C65.231 61.4789 65.2581 61.3618 65.2581 61.2432C65.2581 61.1245 65.231 61.0074 65.179 60.9007C65.127 60.7941 65.0513 60.7007 64.9578 60.6277ZM31.9078 40.3777C31.9078 38.8524 32.3601 37.3613 33.2075 36.0931C34.0549 34.8249 35.2594 33.8364 36.6686 33.2527C38.0777 32.669 39.6284 32.5163 41.1243 32.8138C42.6203 33.1114 43.9945 33.8459 45.073 34.9244C46.1516 36.003 46.8861 37.3771 47.1836 38.8731C47.4812 40.3691 47.3285 41.9197 46.7448 43.3289C46.1611 44.7381 45.1726 45.9425 43.9044 46.7899C42.6361 47.6374 41.1451 48.0897 39.6198 48.0897C37.5752 48.0873 35.615 47.274 34.1692 45.8282C32.7235 44.3825 31.9102 42.4223 31.9078 40.3777ZM33.4698 40.3777C33.4698 41.594 33.8305 42.7831 34.5063 43.7944C35.182 44.8058 36.1425 45.594 37.2663 46.0595C38.3901 46.525 39.6266 46.6468 40.8196 46.4095C42.0126 46.1722 43.1084 45.5865 43.9685 44.7264C44.8286 43.8663 45.4143 42.7704 45.6516 41.5775C45.8889 40.3845 45.7671 39.1479 45.3017 38.0242C44.8362 36.9004 44.0479 35.9399 43.0366 35.2641C42.0252 34.5884 40.8362 34.2277 39.6198 34.2277C37.9893 34.2295 36.4261 34.878 35.2732 36.031C34.1202 37.1839 33.4717 38.7471 33.4698 40.3777ZM32.8628 29.5107C34.0491 28.768 35.3505 28.2273 36.7138 27.9107L37.4748 25.9337C37.5316 25.7864 37.6316 25.6598 37.7618 25.5706C37.8919 25.4813 38.046 25.4336 38.2038 25.4337H41.0338C41.1916 25.4336 41.3457 25.4813 41.4759 25.5706C41.606 25.6598 41.706 25.7864 41.7628 25.9337L42.5238 27.9107C43.8871 28.2274 45.1885 28.768 46.3748 29.5107L48.3128 28.6497C48.4572 28.5855 48.6176 28.5666 48.773 28.5955C48.9283 28.6245 49.0712 28.6998 49.1828 28.8117L51.1828 30.8117C51.2946 30.9233 51.37 31.0662 51.3989 31.2215C51.4278 31.3768 51.409 31.5373 51.3448 31.6817L50.4838 33.6187C51.2266 34.8053 51.7673 36.107 52.0838 37.4707L54.0608 38.2317C54.208 38.2884 54.3346 38.3885 54.4239 38.5186C54.5131 38.6487 54.5609 38.8029 54.5608 38.9607V41.7907C54.5609 41.9485 54.5131 42.1026 54.4239 42.2327C54.3346 42.3628 54.208 42.4629 54.0608 42.5197L52.0828 43.2807C51.7662 44.644 51.2255 45.9453 50.4828 47.1317L51.3438 49.0697C51.408 49.214 51.4268 49.3745 51.3979 49.5298C51.369 49.6851 51.2936 49.828 51.1818 49.9397L49.1818 51.9397C49.0702 52.0515 48.9273 52.1268 48.772 52.1558C48.6166 52.1847 48.4562 52.1658 48.3118 52.1017L46.3748 51.2407C45.1882 51.9835 43.8865 52.5241 42.5228 52.8407L41.7618 54.8177C41.705 54.9649 41.605 55.0915 41.4749 55.1807C41.3447 55.27 41.1906 55.3177 41.0328 55.3177H38.2028C38.045 55.3177 37.8909 55.27 37.7608 55.1807C37.6306 55.0915 37.5306 54.9649 37.4738 54.8177L36.7128 52.8397C35.3495 52.523 34.0482 51.9823 32.8618 51.2397L30.9238 52.1007C30.7796 52.1646 30.6193 52.1833 30.4642 52.1544C30.3091 52.1255 30.1663 52.0503 30.0548 51.9387L28.0548 49.9387C27.9434 49.827 27.8683 49.6842 27.8396 49.5291C27.8108 49.374 27.8297 49.2138 27.8938 49.0697L28.7578 47.1377C28.015 45.951 27.4743 44.6493 27.1578 43.2857L25.1808 42.5247C25.0336 42.4679 24.907 42.3678 24.8177 42.2377C24.7285 42.1076 24.6808 41.9535 24.6808 41.7957V38.9657C24.6808 38.8079 24.7285 38.6537 24.8177 38.5236C24.907 38.3935 25.0336 38.2934 25.1808 38.2367L27.1578 37.4777C27.4742 36.1139 28.0149 34.8122 28.7578 33.6257L27.8968 31.6877C27.8329 31.5434 27.8141 31.3832 27.843 31.228C27.872 31.0729 27.9472 30.9302 28.0588 30.8187L30.0588 28.8187C30.1704 28.7068 30.3133 28.6315 30.4687 28.6025C30.624 28.5736 30.7844 28.5925 30.9288 28.6567L32.8628 29.5107ZM32.6148 31.1107L30.7808 30.2957L29.5378 31.5407L30.3528 33.3777C30.4066 33.4984 30.4288 33.6308 30.4175 33.7625C30.4061 33.8942 30.3615 34.0209 30.2878 34.1307C29.4582 35.3625 28.8839 36.7481 28.5988 38.2057C28.5733 38.3352 28.5153 38.4562 28.4303 38.5573C28.3453 38.6584 28.2361 38.7363 28.1128 38.7837L26.2408 39.5037V41.2607L28.1118 41.9807C28.2352 42.0281 28.3445 42.1062 28.4295 42.2074C28.5145 42.3087 28.5724 42.4299 28.5978 42.5597C28.8828 44.0172 29.4571 45.4028 30.2868 46.6347C30.3605 46.7444 30.4051 46.8711 30.4165 47.0028C30.4278 47.1345 30.4056 47.2669 30.3518 47.3877L29.5378 49.2217L30.7808 50.4647L32.6148 49.6497C32.7356 49.5959 32.868 49.5736 32.9997 49.585C33.1314 49.5964 33.2581 49.641 33.3678 49.7147C34.5994 50.5441 35.9847 51.1184 37.4418 51.4037C37.5714 51.4292 37.6924 51.4872 37.7935 51.5722C37.8945 51.6571 37.9724 51.7664 38.0198 51.8897L38.7408 53.7617H40.4978L41.2178 51.8907C41.2653 51.7673 41.3433 51.6579 41.4446 51.5729C41.5459 51.4879 41.6671 51.43 41.7968 51.4047C43.2543 51.1196 44.64 50.5452 45.8718 49.7157C45.9816 49.642 46.1082 49.5974 46.2399 49.586C46.3716 49.5746 46.5041 49.5969 46.6248 49.6507L48.4588 50.4647L49.7018 49.2217L48.8868 47.3877C48.8332 47.267 48.8111 47.1348 48.8224 47.0033C48.8338 46.8718 48.8783 46.7453 48.9518 46.6357C49.7812 45.4041 50.3555 44.0188 50.6408 42.5617C50.6664 42.4321 50.7244 42.3112 50.8094 42.2101C50.8944 42.109 51.0036 42.0311 51.1268 41.9837L52.9988 41.2637V39.5017L51.1278 38.7777C51.0044 38.7302 50.8951 38.6521 50.8101 38.5509C50.7251 38.4496 50.6672 38.3284 50.6418 38.1987C50.3566 36.7411 49.7823 35.3555 48.9528 34.1237C48.8802 34.0148 48.8361 33.8894 48.8246 33.7591C48.813 33.6287 48.8344 33.4976 48.8868 33.3777L49.7008 31.5437L48.4578 30.2977L46.6228 31.1127C46.5022 31.1662 46.3699 31.1883 46.2384 31.1769C46.107 31.1655 45.9805 31.1211 45.8708 31.0477C44.6392 30.2183 43.254 29.644 41.7968 29.3587C41.6671 29.3333 41.5459 29.2754 41.4446 29.1904C41.3433 29.1054 41.2653 28.9961 41.2178 28.8727L40.4978 27.0007H38.7408L38.0208 28.8727C37.9734 28.9959 37.8955 29.1052 37.7945 29.1902C37.6934 29.2752 37.5724 29.3331 37.4428 29.3587C35.9853 29.6438 34.5997 30.2181 33.3678 31.0477C33.258 31.1212 33.1314 31.1658 32.9997 31.1772C32.868 31.1885 32.7356 31.1663 32.6148 31.1127V31.1107Z" fill="#2563AC"/>
</g>
</g>
</g>
</g>
<defs>
<clipPath id="clip0_1566_3992">
<rect width="80" height="80" fill="white" transform="translate(0.257812 0.378906)"/>
</clipPath>
<clipPath id="clip1_1566_3992">
<rect width="80" height="80" fill="white" transform="translate(0.257812 0.378906)"/>
</clipPath>
<clipPath id="clip2_1566_3992">
<rect width="80" height="80" fill="white" transform="translate(0.257812 0.378906)"/>
</clipPath>
</defs>
</svg>
