<svg width="81" height="81" viewBox="0 0 81 81" fill="none" xmlns="http://www.w3.org/2000/svg">
<g clip-path="url(#clip0_1566_4043)">
<g clip-path="url(#clip1_1566_4043)">
<g clip-path="url(#clip2_1566_4043)">
<path d="M56.0581 46.5412C54.1527 46.5404 52.2898 47.1047 50.7051 48.1626C49.1203 49.2206 47.8849 50.7247 47.155 52.4848C46.4251 54.2448 46.2335 56.1818 46.6045 58.0508C46.9754 59.9198 47.8923 61.6368 49.239 62.9847C50.5858 64.3326 52.302 65.2508 54.1707 65.6233C56.0394 65.9958 57.9765 65.8058 59.7372 65.0774C61.4979 64.349 63.003 63.1148 64.0623 61.5309C65.1215 59.947 65.6873 58.0846 65.6881 56.1792C65.6863 53.625 64.6713 51.1758 62.866 49.369C61.0607 47.5622 58.6123 46.5452 56.0581 46.5412ZM56.0581 64.1682C54.4769 64.169 52.931 63.7008 51.6159 62.8228C50.3009 61.9448 49.2758 60.6966 48.6703 59.2359C48.0649 57.7752 47.9062 56.1677 48.2145 54.6168C48.5228 53.066 49.2841 51.6414 50.4022 50.5233C51.5203 49.4052 52.9449 48.6439 54.4958 48.3356C56.0466 48.0273 57.6541 48.186 59.1148 48.7914C60.5755 49.3969 61.8237 50.422 62.7017 51.737C63.5797 53.0521 64.0479 54.598 64.0471 56.1792C64.0442 58.2971 63.2016 60.3275 61.704 61.8251C60.2064 63.3227 58.176 64.1653 56.0581 64.1682ZM58.9951 57.8682C58.9413 57.9616 58.8695 58.0434 58.784 58.109C58.6985 58.1746 58.6009 58.2228 58.4968 58.2506C58.3927 58.2785 58.2841 58.2855 58.1773 58.2714C58.0704 58.2573 57.9674 58.2222 57.8741 58.1682L55.6481 56.8832C55.5233 56.8112 55.4197 56.7075 55.3478 56.5827C55.2758 56.4579 55.238 56.3163 55.2381 56.1722V52.8402C55.2381 52.6226 55.3246 52.4139 55.4784 52.26C55.6323 52.1062 55.841 52.0197 56.0586 52.0197C56.2762 52.0197 56.4849 52.1062 56.6388 52.26C56.7927 52.4139 56.8791 52.6226 56.8791 52.8402V55.7012L58.6951 56.7502C58.8825 56.8598 59.0189 57.0392 59.0743 57.2491C59.1298 57.459 59.0999 57.6823 58.9911 57.8702L58.9951 57.8682ZM55.2381 49.9162V49.1552C55.2381 48.9376 55.3246 48.7289 55.4784 48.575C55.6323 48.4212 55.841 48.3347 56.0586 48.3347C56.2762 48.3347 56.4849 48.4212 56.6388 48.575C56.7927 48.7289 56.8791 48.9376 56.8791 49.1552V49.9162C56.8791 50.1338 56.7927 50.3425 56.6388 50.4964C56.4849 50.6503 56.2762 50.7367 56.0586 50.7367C55.841 50.7367 55.6323 50.6503 55.4784 50.4964C55.3246 50.3425 55.2381 50.1338 55.2381 49.9162ZM59.9021 52.3292C59.7485 52.1753 59.6622 51.9667 59.6622 51.7492C59.6622 51.5317 59.7485 51.3231 59.9021 51.1692L60.4401 50.6312C60.5939 50.4774 60.8026 50.391 61.0201 50.391C61.2377 50.391 61.4463 50.4774 61.6001 50.6312C61.7539 50.785 61.8404 50.9937 61.8404 51.2112C61.8404 51.4288 61.7539 51.6374 61.6001 51.7912L61.0621 52.3292C60.986 52.4054 60.8956 52.4659 60.796 52.5071C60.6965 52.5483 60.5898 52.5696 60.4821 52.5696C60.3744 52.5696 60.2677 52.5483 60.1682 52.5071C60.0687 52.4659 59.9783 52.4054 59.9021 52.3292ZM61.6021 60.5552C61.756 60.709 61.8424 60.9177 61.8424 61.1352C61.8424 61.3528 61.756 61.5614 61.6021 61.7152C61.4483 61.869 61.2397 61.9555 61.0221 61.9555C60.8046 61.9555 60.5959 61.869 60.4421 61.7152L59.8981 61.1792C59.7443 61.0254 59.6579 60.8168 59.6579 60.5992C59.6579 60.3817 59.7443 60.173 59.8981 60.0192C60.0519 59.8654 60.2606 59.779 60.4781 59.779C60.6957 59.779 60.9043 59.8654 61.0581 60.0192L61.6021 60.5552ZM52.2161 60.0172C52.2923 60.0934 52.3528 60.1838 52.394 60.2833C52.4352 60.3828 52.4565 60.4895 52.4565 60.5972C52.4565 60.7049 52.4352 60.8116 52.394 60.9111C52.3528 61.0107 52.2923 61.1011 52.2161 61.1772L51.6781 61.7152C51.5243 61.869 51.3157 61.9555 51.0981 61.9555C50.8806 61.9555 50.6719 61.869 50.5181 61.7152C50.3643 61.5614 50.2779 61.3528 50.2779 61.1352C50.2779 60.9177 50.3643 60.709 50.5181 60.5552L51.0561 60.0172C51.2101 59.8657 51.4175 59.7809 51.6335 59.7813C51.8496 59.7816 52.0567 59.8671 52.2101 60.0192L52.2161 60.0172ZM52.2161 51.1692C52.2923 51.2454 52.3527 51.3358 52.3939 51.4353C52.4352 51.5348 52.4564 51.6415 52.4564 51.7492C52.4564 51.8569 52.4352 51.9636 52.3939 52.0631C52.3527 52.1626 52.2923 52.2531 52.2161 52.3292C52.14 52.4054 52.0495 52.4658 51.95 52.507C51.8505 52.5483 51.7438 52.5695 51.6361 52.5695C51.5284 52.5695 51.4217 52.5483 51.3222 52.507C51.2227 52.4658 51.1323 52.4054 51.0561 52.3292L50.5181 51.7912C50.3643 51.6374 50.2779 51.4288 50.2779 51.2112C50.2779 50.9937 50.3643 50.785 50.5181 50.6312C50.6719 50.4774 50.8806 50.391 51.0981 50.391C51.3157 50.391 51.5243 50.4774 51.6781 50.6312L52.2161 51.1692ZM63.8971 56.1692C63.8971 56.3867 63.8107 56.5953 63.657 56.7491C63.5032 56.9028 63.2946 56.9892 63.0771 56.9892H62.3161C62.0985 56.9892 61.8898 56.9028 61.7359 56.7489C61.5821 56.595 61.4956 56.3863 61.4956 56.1687C61.4956 55.9511 61.5821 55.7424 61.7359 55.5885C61.8898 55.4347 62.0985 55.3482 62.3161 55.3482H63.0771C63.1852 55.349 63.2921 55.3712 63.3916 55.4134C63.4912 55.4557 63.5813 55.5172 63.657 55.5944C63.7326 55.6716 63.7923 55.7631 63.8325 55.8634C63.8726 55.9638 63.8926 56.0711 63.8911 56.1792L63.8971 56.1692ZM56.8801 62.4262V63.1872C56.8801 63.4048 56.7937 63.6135 56.6398 63.7674C56.4859 63.9213 56.2772 64.0077 56.0596 64.0077C55.842 64.0077 55.6333 63.9213 55.4794 63.7674C55.3256 63.6135 55.2391 63.4048 55.2391 63.1872V62.4262C55.2391 62.2086 55.3256 61.9999 55.4794 61.846C55.6333 61.6922 55.842 61.6057 56.0596 61.6057C56.2772 61.6057 56.4859 61.6922 56.6398 61.846C56.7937 61.9999 56.8801 62.2086 56.8801 62.4262ZM49.8031 56.9902H49.0421C48.8245 56.9902 48.6158 56.9038 48.4619 56.7499C48.3081 56.596 48.2216 56.3873 48.2216 56.1697C48.2216 55.9521 48.3081 55.7434 48.4619 55.5895C48.6158 55.4357 48.8245 55.3492 49.0421 55.3492H49.8031C50.0207 55.3492 50.2294 55.4357 50.3833 55.5895C50.5372 55.7434 50.6236 55.9521 50.6236 56.1697C50.6236 56.3873 50.5372 56.596 50.3833 56.7499C50.2294 56.9038 50.0207 56.9902 49.8031 56.9902ZM20.8391 27.1532C20.7861 26.9421 20.8191 26.7186 20.9308 26.5318C21.0426 26.345 21.224 26.2103 21.4351 26.1572C21.6462 26.1042 21.8698 26.1372 22.0566 26.2489C22.2433 26.3607 22.3781 26.5421 22.4311 26.7532C22.5788 27.1863 22.8705 27.5557 23.2575 27.7998C23.6446 28.0438 24.1037 28.1477 24.5581 28.0942C25.1849 28.1128 25.7944 27.8873 26.2581 27.4652C26.3428 27.3678 26.4047 27.2527 26.4393 27.1283C26.4739 27.0039 26.4804 26.8734 26.4581 26.7462C26.3981 26.2542 26.1031 25.6522 24.3351 25.3622C21.7591 24.9392 21.1581 23.6002 21.1071 22.5512C21.0883 21.8305 21.3311 21.1274 21.7907 20.572C22.2504 20.0166 22.8956 19.6465 23.6071 19.5302L23.6361 19.5242V19.0072C23.6361 18.7896 23.7226 18.5809 23.8764 18.427C24.0303 18.2732 24.239 18.1867 24.4566 18.1867C24.6742 18.1867 24.8829 18.2732 25.0368 18.427C25.1907 18.5809 25.2771 18.7896 25.2771 19.0072V19.5172C25.8385 19.6239 26.3643 19.8696 26.8064 20.2317C27.2485 20.5938 27.5929 21.0608 27.8081 21.5902C27.8923 21.7909 27.8934 22.0167 27.8111 22.2181C27.7287 22.4196 27.5698 22.58 27.3691 22.6642C27.1685 22.7484 26.9426 22.7495 26.7412 22.6672C26.5398 22.5848 26.3793 22.4259 26.2951 22.2252C26.1041 21.7936 25.7639 21.4453 25.3368 21.2444C24.9097 21.0434 24.4244 21.0032 23.9701 21.1312C23.6376 21.1678 23.3297 21.324 23.1038 21.5707C22.8779 21.8174 22.7493 22.1378 22.7421 22.4722C22.7551 22.7392 22.7891 23.4472 24.5971 23.7442C26.7261 24.0942 27.8971 25.0382 28.0821 26.5502C28.1324 26.9046 28.1061 27.2657 28.0048 27.609C27.9035 27.9523 27.7297 28.2699 27.4951 28.5402C26.9077 29.1618 26.1241 29.5619 25.2761 29.6732V30.1632C25.2761 30.3808 25.1897 30.5895 25.0358 30.7434C24.8819 30.8973 24.6732 30.9837 24.4556 30.9837C24.238 30.9837 24.0293 30.8973 23.8754 30.7434C23.7216 30.5895 23.6351 30.3808 23.6351 30.1632V29.6632C22.9758 29.5611 22.3605 29.2695 21.864 28.8238C21.3676 28.3782 21.0115 27.7977 20.8391 27.1532ZM24.4581 34.2172C26.3636 34.218 28.2264 33.6538 29.8112 32.5958C31.3959 31.5379 32.6313 30.0338 33.3612 28.2737C34.0912 26.5136 34.2827 24.5766 33.9118 22.7076C33.5408 20.8387 32.624 19.1217 31.2772 17.7738C29.9304 16.4259 28.2142 15.5076 26.3455 15.1351C24.4769 14.7626 22.5397 14.9526 20.779 15.681C19.0184 16.4095 17.5132 17.6437 16.454 19.2275C15.3947 20.8114 14.8289 22.6738 14.8281 24.5792C14.83 27.1334 15.8449 29.5826 17.6502 31.3894C19.4556 33.1963 21.9039 34.2133 24.4581 34.2172ZM24.4581 16.5892C26.0393 16.5884 27.5852 17.0566 28.9002 17.9345C30.2152 18.8125 31.2403 20.0607 31.8458 21.5214C32.4513 22.982 32.61 24.5894 32.3018 26.1402C31.9936 27.6911 31.2324 29.1156 30.1144 30.2338C28.9964 31.3519 27.5719 32.1133 26.0211 32.4217C24.4703 32.7301 22.8629 32.5716 21.4022 31.9663C19.9415 31.361 18.6931 30.3361 17.815 29.0211C16.9369 27.7062 16.4685 26.1604 16.4691 24.5792C16.472 22.4613 17.3147 20.431 18.8123 18.9334C20.3099 17.4358 22.3402 16.5931 24.4581 16.5902V16.5892ZM48.6581 46.9152C48.7754 46.7981 48.8545 46.6481 48.8848 46.4851C48.9152 46.3221 48.8954 46.1538 48.8281 46.0022L48.2961 44.8022C48.6231 44.2096 48.8831 43.5824 49.0711 42.9322L50.2941 42.4612C50.449 42.4017 50.5822 42.2967 50.6761 42.1599C50.77 42.0232 50.8202 41.8611 50.8201 41.6952V39.0612C50.8202 38.8953 50.77 38.7333 50.6761 38.5965C50.5822 38.4598 50.449 38.3547 50.2941 38.2952L49.0721 37.8242C48.8841 37.174 48.6242 36.5468 48.2971 35.9542L48.8291 34.7542C48.8964 34.6027 48.9162 34.4343 48.8858 34.2713C48.8555 34.1083 48.7764 33.9584 48.6591 33.8412L46.7941 31.9792C46.677 31.8619 46.527 31.7829 46.364 31.7525C46.201 31.7222 46.0327 31.7419 45.8811 31.8092L44.6811 32.3412C44.0885 32.0142 43.4613 31.7543 42.8111 31.5662L42.3401 30.3432C42.2806 30.1884 42.1756 30.0552 42.0388 29.9612C41.9021 29.8673 41.74 29.8171 41.5741 29.8172H38.9401C38.7742 29.8171 38.6122 29.8673 38.4754 29.9612C38.3387 30.0552 38.2336 30.1884 38.1741 30.3432L37.7031 31.5662C37.0529 31.7542 36.4257 32.0141 35.8331 32.3412L34.6331 31.8092C34.4816 31.7419 34.3132 31.7222 34.1502 31.7525C33.9872 31.7829 33.8373 31.8619 33.7201 31.9792L31.8581 33.8432C31.7408 33.9604 31.6618 34.1103 31.6314 34.2733C31.6011 34.4363 31.6208 34.6047 31.6881 34.7562L32.2201 35.9562C31.8932 36.5488 31.6332 37.176 31.4451 37.8262L30.2221 38.2972C30.0673 38.3567 29.9341 38.4618 29.8402 38.5985C29.7462 38.7353 29.696 38.8973 29.6961 39.0632V41.6992C29.696 41.8651 29.7462 42.0272 29.8402 42.1639C29.9341 42.3007 30.0673 42.4057 30.2221 42.4652L31.4451 42.9362C31.6332 43.5864 31.8932 44.2136 32.2201 44.8062L31.6881 46.0062C31.6208 46.1577 31.6011 46.3261 31.6314 46.4891C31.6618 46.6521 31.7408 46.8021 31.8581 46.9192L33.7221 48.7792C33.8394 48.8964 33.9893 48.9754 34.1523 49.0057C34.3152 49.0361 34.4836 49.0164 34.6351 48.9492L35.8351 48.4172C36.4277 48.7442 37.0549 49.0042 37.7051 49.1922L38.1761 50.4152C38.2356 50.5701 38.3407 50.7033 38.4774 50.7972C38.6142 50.8911 38.7762 50.9413 38.9421 50.9412H41.5781C41.744 50.9413 41.9061 50.8911 42.0428 50.7972C42.1796 50.7033 42.2846 50.5701 42.3441 50.4152L42.8151 49.1922C43.4653 49.0042 44.0926 48.7443 44.6851 48.4172L45.8851 48.9492C46.0367 49.0165 46.205 49.0363 46.368 49.0059C46.531 48.9756 46.681 48.8965 46.7981 48.7792L48.6581 46.9152ZM46.0321 47.2212L44.9651 46.7472C44.8434 46.6931 44.7103 46.6694 44.5773 46.6783C44.4444 46.6872 44.3156 46.7284 44.2021 46.7982C43.5236 47.2165 42.7826 47.5237 42.0071 47.7082C41.8778 47.7387 41.7578 47.8001 41.6575 47.8872C41.5571 47.9743 41.4794 48.0844 41.4311 48.2082L41.0121 49.2962H39.5021L39.0831 48.2072C39.0348 48.0835 38.9571 47.9733 38.8568 47.8862C38.7565 47.7991 38.6365 47.7377 38.5071 47.7072C37.732 47.5226 36.9914 47.2154 36.3131 46.7972C36.1997 46.7273 36.0709 46.6861 35.9379 46.6772C35.805 46.6683 35.6719 46.692 35.5501 46.7462L34.4831 47.2202L33.4151 46.1522L33.8891 45.0852C33.9433 44.9635 33.9669 44.8304 33.958 44.6974C33.9491 44.5645 33.908 44.4357 33.8381 44.3222C33.4199 43.6437 33.1127 42.9027 32.9281 42.1272C32.8977 41.9979 32.8363 41.8779 32.7492 41.7775C32.6621 41.6772 32.5519 41.5995 32.4281 41.5512L31.3401 41.1322V39.6222L32.4291 39.2032C32.5529 39.1549 32.6631 39.0772 32.7502 38.9769C32.8373 38.8766 32.8987 38.7566 32.9291 38.6272C33.1137 37.8521 33.4209 37.1114 33.8391 36.4332C33.909 36.3198 33.9501 36.191 33.959 36.058C33.9679 35.9251 33.9443 35.792 33.8901 35.6702L33.4161 34.6032L34.4841 33.5352L35.5511 34.0092C35.6729 34.0634 35.806 34.087 35.9389 34.0781C36.0719 34.0692 36.2007 34.0281 36.3141 33.9582C36.9924 33.5401 37.733 33.2329 38.5081 33.0482C38.6375 33.0178 38.7575 32.9564 38.8578 32.8693C38.9581 32.7822 39.0358 32.672 39.0841 32.5482L39.5031 31.4592H41.0131L41.4321 32.5482C41.4804 32.672 41.5581 32.7822 41.6585 32.8693C41.7588 32.9564 41.8788 33.0178 42.0081 33.0482C42.7832 33.2328 43.5239 33.54 44.2021 33.9582C44.3156 34.0281 44.4444 34.0692 44.5773 34.0781C44.7103 34.087 44.8434 34.0634 44.9651 34.0092L46.0321 33.5352L47.1001 34.6032L46.6261 35.6702C46.572 35.792 46.5483 35.9251 46.5572 36.058C46.5661 36.191 46.6073 36.3198 46.6771 36.4332C47.0954 37.1118 47.4026 37.8528 47.5871 38.6282C47.6176 38.7576 47.679 38.8776 47.7661 38.9779C47.8532 39.0782 47.9634 39.1559 48.0871 39.2042L49.1751 39.6232V41.1332L48.0861 41.5522C47.9624 41.6005 47.8522 41.6782 47.7651 41.7785C47.678 41.8789 47.6166 41.9989 47.5861 42.1282C47.4015 42.9033 47.0943 43.644 46.6761 44.3222C46.6064 44.4357 46.5653 44.5645 46.5564 44.6974C46.5475 44.8304 46.5711 44.9635 46.6251 45.0852L47.0991 46.1522L46.0321 47.2212ZM40.2581 34.5592C39.107 34.5592 37.9818 34.9006 37.0247 35.5401C36.0676 36.1796 35.3216 37.0885 34.8811 38.152C34.4406 39.2155 34.3254 40.3857 34.55 41.5146C34.7745 42.6436 35.3288 43.6806 36.1428 44.4946C36.9567 45.3085 37.9937 45.8628 39.1227 46.0874C40.2517 46.312 41.4219 46.1967 42.4853 45.7562C43.5488 45.3157 44.4578 44.5697 45.0973 43.6126C45.7368 42.6555 46.0781 41.5303 46.0781 40.3792C46.0763 38.8362 45.4625 37.357 44.3714 36.2659C43.2804 35.1748 41.8011 34.5611 40.2581 34.5592ZM40.2581 44.5592C39.4314 44.5592 38.6232 44.3141 37.9358 43.8548C37.2484 43.3955 36.7127 42.7426 36.3963 41.9788C36.0799 41.215 35.9972 40.3746 36.1584 39.5637C36.3197 38.7529 36.7178 38.0081 37.3024 37.4235C37.887 36.8389 38.6318 36.4408 39.4426 36.2795C40.2535 36.1183 41.0939 36.201 41.8577 36.5174C42.6215 36.8338 43.2744 37.3695 43.7337 38.0569C44.193 38.7443 44.4381 39.5525 44.4381 40.3792C44.4368 41.4874 43.996 42.5499 43.2124 43.3335C42.4288 44.1171 41.3663 44.5579 40.2581 44.5592ZM34.9991 21.1732C34.9748 21.0682 34.9715 20.9595 34.9892 20.8532C35.007 20.7469 35.0455 20.6451 35.1027 20.5537C35.1598 20.4624 35.2343 20.3831 35.3221 20.3206C35.4099 20.258 35.5091 20.2134 35.6141 20.1892C38.7971 19.4583 42.1077 19.4899 45.2761 20.2816C48.4444 21.0733 51.3809 22.6026 53.8459 24.7448C56.3109 26.887 58.2347 29.5815 59.4604 32.6086C60.6862 35.6356 61.1791 38.9095 60.8991 42.1632L61.6691 41.3632C61.7444 41.2858 61.8341 41.224 61.9333 41.1812C62.0324 41.1385 62.139 41.1157 62.247 41.1142C62.3549 41.1127 62.4621 41.1324 62.5624 41.1723C62.6627 41.2122 62.7542 41.2715 62.8316 41.3467C62.909 41.422 62.9709 41.5117 63.0136 41.6109C63.0563 41.71 63.0791 41.8166 63.0806 41.9246C63.0822 42.0325 63.0624 42.1397 63.0225 42.24C62.9826 42.3403 62.9234 42.4318 62.8481 42.5092L60.2951 45.1462C60.2086 45.2358 60.1028 45.3045 59.9858 45.347C59.8688 45.3896 59.7436 45.405 59.6197 45.392C59.4959 45.379 59.3766 45.3379 59.271 45.2719C59.1654 45.206 59.0761 45.1168 59.0101 45.0112L57.0581 41.9002C57.0009 41.809 56.9623 41.7073 56.9444 41.6011C56.9265 41.4949 56.9296 41.3862 56.9537 41.2812C56.9778 41.1763 57.0224 41.077 57.0848 40.9893C57.1472 40.9015 57.2264 40.8269 57.3176 40.7697C57.4089 40.7125 57.5105 40.6739 57.6167 40.656C57.7229 40.6381 57.8316 40.6412 57.9366 40.6653C58.0416 40.6894 58.1408 40.734 58.2286 40.7964C58.3163 40.8588 58.3909 40.938 58.4481 41.0292L59.2351 42.2852C59.5375 39.2706 59.1176 36.2274 58.0103 33.4073C56.903 30.5872 55.14 28.0714 52.8672 26.068C50.5945 24.0646 47.8773 22.6312 44.9405 21.8864C42.0038 21.1417 38.9319 21.107 35.9791 21.7852C35.7681 21.8329 35.5468 21.7954 35.3632 21.6808C35.1797 21.5662 35.0489 21.3838 34.9991 21.1732ZM45.5171 59.5852C45.5414 59.6902 45.5448 59.7988 45.5271 59.9051C45.5094 60.0113 45.471 60.113 45.414 60.2044C45.3569 60.2958 45.2825 60.375 45.1948 60.4376C45.1072 60.5002 45.0081 60.5449 44.9031 60.5692C41.7201 61.3007 38.4092 61.2693 35.2405 60.4778C32.0718 59.6862 29.1352 58.1568 26.67 56.0144C24.2049 53.872 22.2811 51.1772 21.0556 48.1498C19.8301 45.1224 19.3375 41.8482 19.6181 38.5942L18.8471 39.3942C18.6953 39.5506 18.4876 39.6402 18.2696 39.6434C18.0517 39.6466 17.8415 39.5631 17.6851 39.4112C17.5288 39.2594 17.4392 39.0517 17.436 38.8337C17.4328 38.6158 17.5163 38.4056 17.6681 38.2492L20.2211 35.6122C20.3077 35.5227 20.4134 35.454 20.5305 35.4114C20.6475 35.3688 20.7727 35.3534 20.8965 35.3665C21.0204 35.3795 21.1396 35.4205 21.2453 35.4865C21.3509 35.5525 21.4401 35.6416 21.5061 35.7472L23.4581 38.8582C23.5153 38.9495 23.554 39.0511 23.5719 39.1573C23.5898 39.2635 23.5866 39.3722 23.5625 39.4772C23.5384 39.5822 23.4939 39.6814 23.4314 39.7692C23.369 39.8569 23.2899 39.9315 23.1986 39.9887C23.1074 40.0459 23.0057 40.0846 22.8995 40.1025C22.7933 40.1204 22.6846 40.1172 22.5796 40.0931C22.4747 40.069 22.3755 40.0245 22.2877 39.962C22.1999 39.8996 22.1253 39.8205 22.0681 39.7292L21.2811 38.4732C20.9789 41.4878 21.399 44.5311 22.5064 47.3512C23.6139 50.1712 25.377 52.687 27.6498 54.6904C29.9226 56.6938 32.6398 58.1272 35.5766 58.8719C38.5134 59.6167 41.5853 59.6514 44.5381 58.9732C44.749 58.9255 44.9702 58.9631 45.1536 59.0777C45.3369 59.1923 45.4676 59.3747 45.5171 59.5852Z" fill="#2563AC"/>
</g>
</g>
</g>
<defs>
<clipPath id="clip0_1566_4043">
<rect width="80" height="80" fill="white" transform="translate(0.257812 0.378906)"/>
</clipPath>
<clipPath id="clip1_1566_4043">
<rect width="80" height="80" fill="white" transform="translate(0.257812 0.378906)"/>
</clipPath>
<clipPath id="clip2_1566_4043">
<rect width="80" height="80" fill="white" transform="translate(0.257812 0.378906)"/>
</clipPath>
</defs>
</svg>
