<svg width="54" height="54" viewBox="0 0 54 54" fill="none" xmlns="http://www.w3.org/2000/svg">
<g clip-path="url(#clip0_1705_263)">
<rect x="0.335938" y="22.5554" width="31.1111" height="31.1111" fill="#F38313"/>
<path d="M14.4688 42.0667L15.0243 47L18.6243 43.5778L24.7799 26.6889C23.2687 26.3111 21.9354 25.5556 20.8465 24.5111L14.4688 42.0667ZM33.1576 24.5111C32.0687 25.5556 30.7132 26.3111 29.2243 26.6889L35.3799 43.5778L38.9799 47L39.5576 42.0667L33.1576 24.5111V24.5111ZM33.5354 19.4444C34.2021 15.9778 32.2021 12.9111 29.2243 11.8444V9.22222C29.2243 8 28.2243 7 27.0021 7C25.7799 7 24.7799 8 24.7799 9.22222V11.8444C22.2021 12.7778 20.3354 15.2222 20.3354 18.1111C20.3354 22.2 24.0243 25.4444 28.2465 24.6667C30.8687 24.1778 33.0243 22.0667 33.5354 19.4444V19.4444ZM27.0021 20.3333C25.7799 20.3333 24.7799 19.3333 24.7799 18.1111C24.7799 16.8889 25.7799 15.8889 27.0021 15.8889C28.2243 15.8889 29.2243 16.8889 29.2243 18.1111C29.2243 19.3333 28.2243 20.3333 27.0021 20.3333Z" fill="#2563AC"/>
</g>
<defs>
<clipPath id="clip0_1705_263">
<rect width="53.3333" height="53.3333" fill="white" transform="translate(0.335938 0.333252)"/>
</clipPath>
</defs>
</svg>
