<svg width="54" height="54" viewBox="0 0 54 54" fill="none" xmlns="http://www.w3.org/2000/svg">
<g clip-path="url(#clip0_1705_242)">
<rect x="0.335938" y="22.2222" width="31.1111" height="31.1111" fill="#F38313"/>
<path d="M43.6667 6.66681C42.1936 6.66798 40.7812 7.25368 39.7396 8.29529C38.698 9.3369 38.1123 10.7493 38.1111 12.2224C38.1111 13.0157 38.2844 13.769 38.5867 14.4557L34.2422 19.3424C32.7664 18.3236 31.0155 17.778 29.2222 17.7779C27.5778 17.7779 26.0578 18.2579 24.7356 19.0357L19.6822 13.9846L19.6311 14.0357C20.0667 13.1512 20.3333 12.1668 20.3333 11.1112C20.3333 9.79271 19.9423 8.50378 19.2098 7.40745C18.4773 6.31112 17.4361 5.45664 16.2179 4.95205C14.9997 4.44747 13.6593 4.31545 12.3661 4.57268C11.0729 4.82992 9.88497 5.46485 8.95262 6.3972C8.02027 7.32955 7.38534 8.51744 7.1281 9.81065C6.87087 11.1039 7.00289 12.4443 7.50747 13.6625C8.01206 14.8806 8.86654 15.9218 9.96287 16.6544C11.0592 17.3869 12.3481 17.7779 13.6667 17.7779C14.7222 17.7779 15.7044 17.5112 16.5911 17.0757L16.54 17.1268L21.5933 22.1779C20.777 23.5335 20.3417 25.0844 20.3333 26.6668C20.3333 28.8824 21.1778 30.8868 22.5222 32.4468L16.7956 38.1712C16.1537 37.9143 15.4691 37.7809 14.7778 37.7779C11.7156 37.7779 9.22223 40.269 9.22223 43.3335C9.22223 46.3979 11.7156 48.889 14.7778 48.889C17.84 48.889 20.3333 46.3979 20.3333 43.3335C20.3333 42.6201 20.1867 41.9424 19.94 41.3135L26.2467 35.0068C27.1822 35.3401 28.1733 35.5557 29.2222 35.5557C34.1244 35.5557 38.1111 31.569 38.1111 26.6668C38.1111 25.2535 37.7489 23.9357 37.16 22.7468L41.8644 17.4512C42.4333 17.6468 43.0333 17.7779 43.6667 17.7779C46.7311 17.7779 49.2222 15.2868 49.2222 12.2224C49.2222 9.15792 46.7311 6.66681 43.6667 6.66681ZM29.2222 31.1112C26.7711 31.1112 24.7778 29.1179 24.7778 26.6668C24.7778 24.2157 26.7711 22.2224 29.2222 22.2224C31.6733 22.2224 33.6667 24.2157 33.6667 26.6668C33.6667 29.1179 31.6733 31.1112 29.2222 31.1112Z" fill="white"/>
</g>
<defs>
<clipPath id="clip0_1705_242">
<rect width="53.3333" height="53.3333" fill="white" transform="translate(0.335938)"/>
</clipPath>
</defs>
</svg>
