<svg width="122" height="125" viewBox="0 0 122 125" fill="none" xmlns="http://www.w3.org/2000/svg">
<rect width="122" height="123.84" transform="translate(0 0.840088)" fill="#2563AC"/>
<path d="M61.0013 59.2487C65.6748 59.2487 69.4635 55.5078 69.4635 50.8932C69.4635 46.2785 65.6748 42.5376 61.0013 42.5376C56.3277 42.5376 52.5391 46.2785 52.5391 50.8932C52.5391 55.5078 56.3277 59.2487 61.0013 59.2487Z" fill="#F38313"/>
<path d="M48.1636 51.7289H49.0169V50.9645C49.0221 48.7415 49.6493 46.5644 50.8274 44.6793C52.0056 42.7943 53.6877 41.2765 55.6836 40.2978C55.0927 38.937 54.1443 37.7617 52.9391 36.8966C51.7339 36.0315 50.3169 35.5091 48.8386 35.3846C47.3603 35.2602 45.8759 35.5385 44.5431 36.19C43.2103 36.8415 42.0788 37.8418 41.2688 39.0846C40.4588 40.3275 40.0006 41.7666 39.9427 43.249C39.8849 44.7314 40.2297 46.2018 40.9404 47.504C41.6512 48.8061 42.7014 49.8915 43.9794 50.6448C45.2575 51.3981 46.7157 51.7911 48.1992 51.7822L48.1636 51.7289ZM73.0169 50.8933V51.6578H73.8703C75.334 51.6431 76.7667 51.2341 78.0176 50.4738C79.2685 49.7135 80.2913 48.63 80.9783 47.3374C81.6653 46.0449 81.9912 44.591 81.9216 43.1288C81.852 41.6667 81.3895 40.2503 80.5828 39.0288C79.7761 37.8074 78.655 36.826 77.3376 36.1879C76.0201 35.5499 74.555 35.2788 73.0965 35.4032C71.638 35.5276 70.24 36.043 69.0496 36.8949C67.8593 37.7469 66.9207 38.904 66.3325 40.2445C68.329 41.2194 70.013 42.7333 71.1942 44.6151C72.3755 46.4969 73.0068 48.6716 73.0169 50.8933ZM68.6258 60.0845C72.1605 60.7841 75.5782 61.9812 78.7769 63.64C79.2276 63.8876 79.6357 64.2057 79.9858 64.5822H89.4436V58.5022C89.4453 58.269 89.3833 58.0398 89.2643 57.8393C89.1452 57.6388 88.9736 57.4746 88.7681 57.3645C84.1603 54.9544 79.0347 53.7035 73.8347 53.72H72.6614C72.0453 56.2244 70.6283 58.4591 68.6258 60.0845ZM40.6081 68.0311C40.6048 67.1358 40.8466 66.2566 41.3073 65.4889C41.7679 64.7211 42.4299 64.094 43.2214 63.6756C46.4201 62.0167 49.8378 60.8196 53.3725 60.12C51.3797 58.5085 49.9636 56.2939 49.3369 53.8089H48.1636C42.9637 53.7923 37.838 55.0432 33.2303 57.4533C33.0247 57.5635 32.8531 57.7276 32.7341 57.9282C32.615 58.1287 32.553 58.3579 32.5547 58.5911V69.9511H40.6081V68.0311ZM67.1503 78.2889H77.7458V80.7778H67.1503V78.2889Z" fill="#F38313"/>
<path d="M87.3285 68.6359H75.1152V66.8582C75.1152 66.3867 74.9279 65.9345 74.5945 65.6011C74.2611 65.2677 73.8089 65.0804 73.3374 65.0804C72.8659 65.0804 72.4138 65.2677 72.0804 65.6011C71.747 65.9345 71.5597 66.3867 71.5597 66.8582V68.6359H68.1108V63.6048C65.7718 63.1137 63.3896 62.8576 60.9997 62.8404C55.3886 62.817 49.8576 64.1723 44.893 66.7871C44.6719 66.9018 44.4867 67.0754 44.3581 67.2887C44.2295 67.5021 44.1623 67.7468 44.1641 67.9959V77.9693H56.8041V88.7959C56.8041 89.2674 56.9914 89.7196 57.3248 90.053C57.6582 90.3864 58.1104 90.5737 58.5819 90.5737H87.3285C87.8 90.5737 88.2522 90.3864 88.5856 90.053C88.919 89.7196 89.1063 89.2674 89.1063 88.7959V70.4137C89.1063 69.9422 88.919 69.49 88.5856 69.1566C88.2522 68.8232 87.8 68.6359 87.3285 68.6359ZM85.5508 87.0537H60.3597V72.1915H71.5597V73.8093C71.5597 74.2808 71.747 74.733 72.0804 75.0664C72.4138 75.3998 72.8659 75.5871 73.3374 75.5871C73.8089 75.5871 74.2611 75.3998 74.5945 75.0664C74.9279 74.733 75.1152 74.2808 75.1152 73.8093V72.1915H85.5508V87.0537Z" fill="#F38313"/>
</svg>
