<svg width="122" height="124" viewBox="0 0 122 124" fill="none" xmlns="http://www.w3.org/2000/svg">
<rect width="122" height="123.84" fill="#2563AC"/>
<g clip-path="url(#clip0_1566_3915)">
<path d="M35.6503 80.4345H45.037V71.0479C45.037 69.9012 45.9703 68.9679 47.1196 68.9679H56.5063V59.5812C56.5063 58.4292 57.4396 57.4932 58.589 57.4932H67.9756V48.1092C67.9756 46.9572 68.909 46.0239 70.061 46.0239H79.445V36.6399C79.445 35.4879 80.3783 34.5545 81.5303 34.5545H90.917C92.0636 34.5545 92.9996 35.4879 92.9996 36.6399V91.9039C92.9996 93.0559 92.0663 93.9892 90.9143 93.9892H35.6503C35.0972 93.9892 34.5668 93.7695 34.1757 93.3784C33.7847 92.9873 33.565 92.4569 33.565 91.9039V82.5172C33.565 81.3705 34.4983 80.4345 35.6503 80.4345ZM29.4583 72.4745C29.1648 72.181 29 71.7829 29 71.3679C29 70.9528 29.1648 70.5547 29.4583 70.2612L69.2716 30.4479C69.567 30.1633 69.9622 30.006 70.3723 30.0098C70.7824 30.0136 71.1746 30.1782 71.4646 30.4682C71.7546 30.7582 71.9192 31.1505 71.923 31.5606C71.9268 31.9706 71.7695 32.3659 71.485 32.6612L31.6716 72.4745C31.0583 73.0879 30.0716 73.0879 29.4583 72.4745Z" fill="#F38313"/>
</g>
<defs>
<clipPath id="clip0_1566_3915">
<rect width="64" height="64" fill="white" transform="translate(29 30)"/>
</clipPath>
</defs>
</svg>
