<svg width="122" height="124" viewBox="0 0 122 124" fill="none" xmlns="http://www.w3.org/2000/svg">
<rect width="122" height="123.84" fill="#2563AC"/>
<path d="M77.0026 35.334H45.0026C43.5298 35.334 42.3359 36.5279 42.3359 38.0007V86.0006C42.3359 87.4734 43.5298 88.6673 45.0026 88.6673H77.0026C78.4754 88.6673 79.6693 87.4734 79.6693 86.0006V38.0007C79.6693 36.5279 78.4754 35.334 77.0026 35.334Z" stroke="#F38313" stroke-width="5.33333"/>
<path d="M50.3359 46H71.6693V59.3333H50.3359V46Z" fill="#F38313" stroke="#F38313" stroke-width="5.33333" stroke-linecap="round" stroke-linejoin="round"/>
<path d="M50.3359 72.6673H61.0026M55.6693 78.0007V67.334" stroke="#F38313" stroke-width="5.33333" stroke-linecap="round" stroke-linejoin="round"/>
<path d="M70.3333 76.6667C70.3333 75.1939 69.1394 74 67.6667 74C66.1939 74 65 75.1939 65 76.6667C65 78.1394 66.1939 79.3333 67.6667 79.3333C69.1394 79.3333 70.3333 78.1394 70.3333 76.6667Z" fill="#F38313"/>
<path d="M74.3333 67.3346C74.3333 65.8619 73.1394 64.668 71.6667 64.668C70.1939 64.668 69 65.8619 69 67.3346C69 68.8074 70.1939 70.0013 71.6667 70.0013C73.1394 70.0013 74.3333 68.8074 74.3333 67.3346Z" fill="#F38313"/>
</svg>
