<svg width="122" height="125" viewBox="0 0 122 125" fill="none" xmlns="http://www.w3.org/2000/svg">
<rect width="122" height="123.84" transform="translate(0 0.840088)" fill="#2563AC"/>
<path d="M73.3359 84.1734H38.6693V49.5068C38.6693 48.0401 37.4693 46.8401 36.0026 46.8401C34.5359 46.8401 33.3359 48.0401 33.3359 49.5068V84.1734C33.3359 87.1068 35.7359 89.5068 38.6693 89.5068H73.3359C74.8026 89.5068 76.0026 88.3068 76.0026 86.8401C76.0026 85.3734 74.8026 84.1734 73.3359 84.1734Z" fill="#F38313"/>
<path d="M81.3333 36.1741H49.3333C46.4 36.1741 44 38.5741 44 41.5074V73.5074C44 76.4407 46.4 78.8407 49.3333 78.8407H81.3333C84.2667 78.8407 86.6667 76.4407 86.6667 73.5074V41.5074C86.6667 38.5741 84.2667 36.1741 81.3333 36.1741ZM65.36 70.8407C63.7867 70.8407 62.56 69.5874 62.56 68.0407C62.56 66.4674 63.8133 65.2674 65.36 65.2674C66.9333 65.2674 68.1333 66.4674 68.1333 68.0407C68.1067 69.5874 66.9333 70.8407 65.36 70.8407ZM72.0267 54.3874C70.3467 56.8674 68.7467 57.6141 67.8667 59.2141C67.6533 59.5874 67.52 59.9074 67.44 60.5207C67.3067 61.5607 66.48 62.3341 65.44 62.3341H65.36C64.1867 62.3341 63.2533 61.3207 63.36 60.1474C63.44 59.4007 63.6 58.6274 64.0267 57.9074C65.12 55.9607 67.1733 54.8141 68.3733 53.1074C69.6533 51.2941 68.9333 47.9341 65.3333 47.9341C63.7067 47.9341 62.64 48.7874 61.9733 49.8007C61.4667 50.5741 60.4533 50.8407 59.6 50.4674C58.48 49.9874 58 48.6007 58.6933 47.6141C60.0533 45.6407 62.32 44.1741 65.3067 44.1741C68.5867 44.1741 70.8533 45.6674 72 47.5341C72.9867 49.1607 73.5467 52.1474 72.0267 54.3874Z" fill="#F38313"/>
</svg>
