<svg width="174" height="254" viewBox="0 0 174 254" fill="none" xmlns="http://www.w3.org/2000/svg">
<path fill-rule="evenodd" clip-rule="evenodd" d="M104.072 152.656L65.2424 144.046C65.1456 144.022 65.0453 143.994 64.9451 143.945C64.2293 143.77 63.5343 143.494 62.9154 143.169C61.5565 142.518 60.4155 141.592 59.8 140.49C59.4266 139.84 59.0566 138.791 59.4266 137.612C59.8726 136.287 61.1831 135.259 62.8912 134.636C63.5101 134.409 64.2051 134.259 64.9209 134.161C65.3427 134.108 65.7127 134.01 66.1587 134.01C66.9747 134.01 67.7908 134.108 68.5826 134.283L85.3627 138.014L87.3924 138.465L107.44 142.896C107.537 142.92 107.637 142.969 107.737 142.994C108.453 143.169 109.148 143.445 109.767 143.746C111.126 144.421 112.239 145.323 112.858 146.424C113.232 147.075 113.602 148.124 113.232 149.302C112.786 150.627 111.472 151.656 109.767 152.282C108.775 152.631 107.71 152.879 106.524 152.879C105.78 152.879 105.013 152.782 104.297 152.631C104.221 152.607 104.148 152.631 104.072 152.607V152.656ZM98.827 144.295C98.7025 144.847 99.0483 145.396 99.5946 145.522L107.416 147.25C107.489 147.274 107.565 147.274 107.637 147.274C107.661 147.274 107.686 147.25 107.737 147.25C108.156 147.225 108.529 146.924 108.65 146.473C108.775 145.924 108.429 145.372 107.858 145.246L107.737 145.221L100.041 143.518C99.4943 143.396 98.9515 143.746 98.827 144.295Z" fill="#FE7B13"/>
<path fill-rule="evenodd" clip-rule="evenodd" d="M68.5826 147.095L93.8272 152.676L103.108 154.728L107.44 155.679C109.916 156.232 111.942 157.557 112.882 159.208C113.256 159.883 113.626 160.911 113.256 162.086C112.561 164.191 109.816 165.666 106.524 165.666C105.977 165.666 105.41 165.565 104.84 165.492C104.594 165.439 104.321 165.467 104.072 165.39L102.464 165.04L74.8444 158.907L72.3445 158.358L65.2424 156.781C62.7667 156.228 60.7405 154.928 59.8 153.253C59.4266 152.602 59.0566 151.55 59.4266 150.375C59.8726 149.046 61.1831 148.021 62.8912 147.395C63.5101 147.168 64.2051 147.021 64.9209 146.92C65.3427 146.871 65.7127 146.769 66.1587 146.769C66.9747 146.769 67.7908 146.871 68.5826 147.046V147.095ZM99.8919 158.033L107.416 159.683C107.488 159.708 107.565 159.708 107.637 159.708C108.107 159.708 108.529 159.383 108.626 158.907C108.751 158.358 108.405 157.805 107.834 157.683L99.9888 155.931C99.4459 155.805 98.8996 156.155 98.7786 156.704C98.7509 156.882 98.827 157.005 98.8754 157.155C98.9757 157.508 99.197 157.833 99.5704 157.931L99.8919 158.008V158.033Z" fill="#FE7B13"/>
<path fill-rule="evenodd" clip-rule="evenodd" d="M72.9433 160.832L103.361 167.592L105.636 168.092L107.444 168.494C109.892 169.043 111.946 170.344 112.887 172.022C113.26 172.697 113.63 173.725 113.26 174.9C112.565 177.002 109.82 178.481 106.552 178.481C106.13 178.481 105.712 178.379 105.29 178.33C104.92 178.278 104.498 178.278 104.101 178.204L103.26 178.005L68.763 170.344L66.7817 169.92L65.2465 169.567C62.7708 169.018 60.7446 167.717 59.8041 166.039C59.2578 165.088 59.1333 164.088 59.4306 163.161C60.1256 161.059 62.8711 159.584 66.1386 159.584C66.9546 159.584 67.7706 159.682 68.5624 159.856L70.6924 160.332L72.9191 160.832H72.9433ZM100.045 168.718C99.4984 168.592 98.9555 168.945 98.831 169.494C98.7066 170.071 99.0523 170.595 99.5987 170.721L104.052 171.697L106.13 172.148L107.42 172.449C107.493 172.473 107.569 172.473 107.641 172.473C108.111 172.473 108.533 172.148 108.63 171.672C108.755 171.12 108.409 170.571 107.838 170.445L105.885 170.018L103.807 169.543L99.9928 168.718H100.045Z" fill="#FE7B13"/>
<mask id="mask0_1566_3835" style="mask-type:luminance" maskUnits="userSpaceOnUse" x="67" y="171" width="37" height="20">
<path d="M67.9375 171.989H103.344V190.728H67.9375V171.989Z" fill="white"/>
</mask>
<g mask="url(#mask0_1566_3835)">
<path fill-rule="evenodd" clip-rule="evenodd" d="M68.5476 172.421L102.554 179.956C99.7568 186.212 93.5675 190.594 86.3409 190.594C76.5176 190.594 68.5234 182.509 68.5234 172.571C68.5234 172.522 68.5476 172.473 68.5476 172.421ZM83.2255 186.74C83.3984 186.188 83.0769 185.611 82.5548 185.46C78.447 184.212 75.1795 181.033 73.7964 176.928C73.5959 176.4 73.0288 176.127 72.5067 176.278C71.988 176.452 71.6907 177.054 71.8636 177.578C73.4714 182.31 77.261 185.988 81.9877 187.415C82.0845 187.439 82.1848 187.464 82.2851 187.464C82.7276 187.464 83.1253 187.188 83.2497 186.712L83.2255 186.74Z" fill="#FE7B13"/>
</g>
<mask id="mask1_1566_3835" style="mask-type:luminance" maskUnits="userSpaceOnUse" x="37" y="28" width="100" height="115">
<path d="M37.75 28.9384H136.75V142.53H37.75V28.9384Z" fill="white"/>
</mask>
<g mask="url(#mask1_1566_3835)">
<path d="M116.382 112.858C111.305 120.084 106.945 126.337 106.623 131.239V140.491L108.136 140.816L110.167 141.267L112.492 141.791V131.438C112.617 129.936 113.634 127.812 115.119 125.31C116.728 122.61 118.908 119.486 121.165 116.258C121.857 115.283 122.428 114.434 122.822 113.882C123.466 112.96 124.037 112.132 124.483 111.482C127.106 107.631 130.775 101.556 133.349 94.6029C135.159 89.7011 136.446 84.3485 136.446 79.0484C136.446 65.3176 130.923 52.8656 121.981 43.8619C113.039 34.8339 100.73 29.2577 87.1056 29.2577C73.5056 29.2577 61.1721 34.8339 52.2542 43.8619C43.3121 52.89 37.7891 65.3176 37.7891 79.0484C37.7891 84.373 39.0799 89.7011 40.8863 94.6274C43.4609 101.605 47.1291 107.656 49.7523 111.506C50.1502 112.083 50.7212 112.932 51.4133 113.906C51.7836 114.458 52.4031 115.307 53.0744 116.282C54.8808 118.861 56.6388 121.387 58.0507 123.584C59.4626 125.785 60.5769 127.812 61.2206 129.538L61.5943 130.513L62.6083 130.74L64.913 131.239L68.0344 131.938L67.1658 128.839C66.5222 126.561 65.2591 124.059 63.5738 121.334C61.9404 118.658 59.9575 115.859 57.8777 112.858C57.1856 111.859 56.6146 111.059 56.2443 110.531C55.7979 109.882 55.2511 109.106 54.6317 108.18C52.5761 105.154 49.8284 100.679 47.5998 95.5044C45.3954 90.3999 43.6859 84.6735 43.7101 79.0484C43.7101 66.9457 48.5895 55.9681 56.4415 48.0406C64.2936 40.113 75.1667 35.1867 87.1541 35.1867C99.145 35.1867 109.99 40.113 117.87 48.0406C125.746 55.9925 130.626 66.9702 130.626 79.0484C130.626 83.6498 129.484 88.3245 127.875 92.6534C125.521 98.9772 122.106 104.581 119.701 108.156C118.984 109.207 117.943 110.682 116.929 112.156L116.458 112.858H116.382Z" fill="#FE7B13"/>
</g>
<mask id="mask2_1566_3835" style="mask-type:luminance" maskUnits="userSpaceOnUse" x="60" y="0" width="53" height="27">
<path d="M60.8125 0.728394H112.918V26.7134H60.8125V0.728394Z" fill="white"/>
</mask>
<g mask="url(#mask2_1566_3835)">
<path fill-rule="evenodd" clip-rule="evenodd" d="M87.762 22.8563C89.787 22.8563 91.4429 21.1979 91.4429 19.1655V4.41927C91.4429 2.38686 89.787 0.728394 87.762 0.728394C85.737 0.728394 84.0845 2.38686 84.0845 4.41927V19.1655C84.0845 21.1979 85.737 22.8563 87.762 22.8563ZM101.813 25.7093C99.9362 24.9407 99.0461 22.7594 99.812 20.9001L105.418 7.26879C106.184 5.38527 108.357 4.49544 110.206 5.26409C112.083 6.03273 112.973 8.21055 112.207 10.0698L106.601 23.7012C105.835 25.5847 103.665 26.4745 101.813 25.7093ZM72.0828 26.3533C73.9595 25.5847 74.8495 23.4034 74.0836 21.5441L68.4778 7.91279C67.7119 6.03273 65.5386 5.13944 63.6895 5.90808C61.8128 6.67673 60.9228 8.85455 61.6886 10.7138L67.2945 24.3452C68.0569 26.2287 70.2303 27.122 72.0828 26.3533Z" fill="#1298F4"/>
</g>
<path fill-rule="evenodd" clip-rule="evenodd" d="M85.182 66.6081C85.2584 65.983 85.8287 65.557 86.4511 65.6303C87.0735 65.7072 87.4977 66.2833 87.4246 66.9084C87.2751 68.0573 87.5985 69.1573 88.2452 70.0303C88.892 70.8824 89.8621 71.504 91.006 71.6541C91.6284 71.731 92.0526 72.3071 91.9761 72.9287C91.9031 73.5538 91.3294 73.9798 90.707 73.9065C88.9406 73.6551 87.449 72.7297 86.4511 71.4062C86.4511 71.3818 86.4267 71.3818 86.4267 71.3573C85.0324 71.7798 82.3447 72.1814 80.5297 69.7545C80.1576 69.2551 80.255 68.5322 80.7522 68.1551C81.2494 67.7814 81.9726 67.8827 82.3447 68.3821C83.2174 69.531 84.5352 69.4821 85.408 69.2795C85.1576 68.431 85.0846 67.53 85.2098 66.6081H85.182ZM103.551 85.1265C104.792 83.8763 105.564 82.1548 105.564 80.2271C105.564 78.3275 104.792 76.6059 103.551 75.3313C102.306 74.0811 100.589 73.3059 98.6729 73.3059C98.0505 73.3059 97.5255 72.8065 97.5255 72.157C97.5255 71.5319 98.0505 71.0046 98.6729 71.0046C101.211 71.0046 103.499 72.0313 105.144 73.704C106.809 75.3802 107.831 77.6779 107.831 80.2027C107.831 80.9046 107.755 81.5786 107.605 82.2281C108.304 82.4271 109.024 82.5528 109.796 82.5528C113.829 82.5528 117.139 79.4275 117.463 75.4535C119.205 74.4059 120.373 72.4818 120.373 70.2818C120.373 67.6802 118.732 65.4557 116.441 64.6316C115.644 66.1332 114.452 67.331 113.057 68.183C111.041 69.3808 108.576 69.8068 106.114 69.1818L106.013 69.1573L105.888 69.0805C105.342 68.8046 105.092 68.1062 105.391 67.5579C105.641 67.083 106.187 66.8316 106.684 66.9573C108.527 67.4322 110.394 67.1075 111.913 66.2065C113.429 65.3056 114.601 63.8319 115.074 61.9811C115.321 61.0068 115.345 60.0081 115.171 59.0583C114.302 56.9072 112.633 54.9586 110.394 53.6596C110.293 53.6351 110.196 53.6107 110.095 53.5862C109.845 53.5094 109.622 53.3837 109.473 53.1846C109.198 53.0589 108.899 52.9088 108.603 52.811C105.415 51.5853 102.08 51.7843 99.4448 53.0834C98.0748 50.9846 95.7104 49.6088 93.0227 49.6088C91.3815 49.6088 89.8621 50.1361 88.6173 51.0091C88.8433 51.5853 88.9893 52.1859 89.0901 52.7865C89.4622 55.1088 88.965 57.5602 87.4977 59.6345C87.1743 60.0815 86.5762 60.2595 86.079 59.9837C85.5331 59.7078 85.2828 59.0094 85.5818 58.4576L85.6792 58.3075C86.8023 56.7605 87.1743 54.8853 86.8753 53.1602C86.7014 52.1615 86.3294 51.1837 85.7313 50.3351C84.4865 49.4865 82.9914 48.9872 81.3989 48.9872C77.3204 48.9872 73.9581 52.1859 73.7112 56.2332C72.3899 55.1576 70.7001 54.5081 68.8816 54.5081C68.5825 54.5081 68.3113 54.5361 68.0367 54.5605C67.9115 54.6583 67.7863 54.7351 67.6125 54.7596C65.7696 55.2345 64.3023 56.4078 63.4087 57.9338C62.5116 59.4599 62.1883 61.3316 62.6611 63.1824C63.134 65.0332 64.3023 66.5068 65.8218 67.4078C67.3378 68.3053 69.2049 68.63 71.0478 68.1551L71.1973 68.1306H71.3468C71.9692 68.1306 72.4907 68.63 72.4907 69.2795C72.4907 69.8313 72.0909 70.3062 71.5937 70.4075C69.1563 71.0046 66.7154 70.5821 64.7022 69.3808C62.6855 68.183 61.1173 66.2065 60.4949 63.7307L60.4706 63.584C60.3698 63.1824 60.3211 62.7843 60.2724 62.3827C56.7606 63.1091 54.125 66.2065 54.125 69.957C54.125 72.1291 55.0186 74.13 56.4894 75.5303C55.3941 76.8538 54.7474 78.5544 54.7474 80.4297C54.7474 81.6519 55.0186 82.8287 55.5436 83.8519C55.641 83.9287 55.7175 84.0021 55.7905 84.1033C56.8858 85.6538 58.5304 86.6036 60.2724 86.904C62.0144 87.2008 63.8538 86.8027 65.3976 85.7027C66.9414 84.6027 67.8871 82.9544 68.1862 81.2294C68.4852 79.4798 68.0853 77.629 66.9901 76.0786L66.8927 75.9284C66.618 75.3557 66.8405 74.6783 67.3899 74.4059C67.8871 74.1544 68.5095 74.3046 68.8086 74.7551C70.2759 76.8294 70.7731 79.2773 70.401 81.603C70.0255 83.9287 68.7564 86.1008 66.691 87.5779C66.4198 87.777 66.1451 87.9516 65.8461 88.1262C65.8461 88.203 65.8461 88.2763 65.8461 88.3532C65.8461 92.6274 69.2814 96.0741 73.5373 96.0741C75.8009 96.0741 77.8419 95.0998 79.2362 93.5249L79.3336 93.3992C79.4587 93.4516 79.5839 93.5249 79.6847 93.5773C79.8064 97.7503 78.4886 102.922 75.6514 109.124C82.3203 105.223 87.15 98.8503 90.1611 90.0503C90.3106 90.0503 90.4601 90.0782 90.634 90.0782C92.8245 90.0782 94.7403 88.877 95.7835 87.1274C95.5609 85.6014 94.8655 84.2535 93.8433 83.2024C92.5985 81.9522 90.8808 81.177 88.965 81.177C88.3426 81.177 87.821 80.6532 87.821 80.0281C87.821 79.403 88.3182 78.8792 88.965 78.8792C91.5032 78.8792 93.7946 79.9024 95.4358 81.5786C96.9065 83.0522 97.8766 85.0043 98.0748 87.2008C98.1235 87.2287 98.1757 87.2532 98.2243 87.2776C98.3739 87.2008 98.572 87.1519 98.7459 87.1519C100.637 87.1519 102.355 86.3767 103.624 85.1265H103.551ZM93.9441 59.2573C93.5686 58.758 93.6694 58.0351 94.1666 57.658C94.6638 57.2843 95.3871 57.3821 95.7591 57.8849C96.6319 59.0338 97.9497 58.9849 98.8224 58.7824C98.572 57.9338 98.499 57.0329 98.6207 56.1075C98.6972 55.4859 99.2709 55.0599 99.8898 55.1332C100.512 55.21 100.936 55.7827 100.863 56.4078C100.714 57.5602 101.037 58.6602 101.684 59.5332C102.331 60.3818 103.301 60.9824 104.445 61.157C105.067 61.2338 105.491 61.8065 105.415 62.4316C105.342 63.0567 104.768 63.4827 104.146 63.4059C102.379 63.158 100.888 62.2326 99.8898 60.9091C99.8898 60.8846 99.8655 60.8846 99.8655 60.8567C98.4712 61.2827 95.7835 61.6843 93.9684 59.2573H93.9441ZM75.029 80.304C76.7953 80.5554 78.2905 81.4773 79.2849 82.8043C79.2849 82.8287 79.3092 82.8287 79.3092 82.8532C80.7035 82.4271 83.3913 82.029 85.2098 84.4525C85.5818 84.9519 85.481 85.6782 84.9838 86.0519C84.4865 86.429 83.7633 86.3278 83.3913 85.8284C82.5185 84.6795 81.2007 84.7284 80.3315 84.9274C80.5783 85.776 80.6548 86.677 80.5297 87.6024C80.4532 88.2274 79.8829 88.6535 79.2605 88.5766C78.6382 88.5033 78.214 87.9271 78.2905 87.302C78.44 86.1532 78.1166 85.0532 77.4699 84.1767C76.8197 83.3281 75.8496 82.7275 74.7056 82.5528C74.0832 82.4795 73.659 81.9033 73.7355 81.2782C73.8085 80.6532 74.3823 80.2271 75.0046 80.304H75.029Z" fill="#1298F4"/>
<path d="M11.6621 203.703V240.672H4.67969V203.703H11.6621ZM26.5664 219.673V225.183H9.83398V219.673H26.5664ZM28.5215 203.703V209.213H9.83398V203.703H28.5215ZM44.543 241.179C42.4609 241.179 40.5905 240.841 38.9316 240.164C37.2728 239.487 35.8594 238.547 34.6914 237.345C33.5404 236.127 32.6517 234.713 32.0254 233.105C31.416 231.48 31.1113 229.737 31.1113 227.875V226.859C31.1113 224.743 31.416 222.822 32.0254 221.095C32.6348 219.352 33.498 217.854 34.6152 216.601C35.7324 215.349 37.0697 214.384 38.627 213.707C40.1842 213.03 41.9023 212.691 43.7812 212.691C45.7279 212.691 47.446 213.021 48.9355 213.681C50.4251 214.325 51.6693 215.239 52.668 216.423C53.6667 217.608 54.4199 219.03 54.9277 220.689C55.4355 222.331 55.6895 224.151 55.6895 226.148V228.966H34.1582V224.345H49.0879V223.838C49.054 222.771 48.8509 221.798 48.4785 220.918C48.1061 220.02 47.5306 219.31 46.752 218.785C45.9733 218.243 44.9661 217.972 43.7305 217.972C42.7318 217.972 41.86 218.192 41.1152 218.632C40.3874 219.056 39.778 219.665 39.2871 220.461C38.8132 221.239 38.4577 222.17 38.2207 223.254C37.9837 224.337 37.8652 225.539 37.8652 226.859V227.875C37.8652 229.026 38.0176 230.092 38.3223 231.074C38.6439 232.056 39.1094 232.91 39.7188 233.638C40.3451 234.349 41.0898 234.908 41.9531 235.314C42.8333 235.703 43.832 235.898 44.9492 235.898C46.3542 235.898 47.6237 235.627 48.7578 235.086C49.9089 234.527 50.9076 233.706 51.7539 232.623L55.1309 236.127C54.5553 236.973 53.7767 237.785 52.7949 238.564C51.8301 239.343 50.6621 239.977 49.291 240.468C47.9199 240.942 46.3372 241.179 44.543 241.179ZM72.5234 241.179C70.4414 241.179 68.571 240.841 66.9121 240.164C65.2533 239.487 63.8398 238.547 62.6719 237.345C61.5208 236.127 60.6322 234.713 60.0059 233.105C59.3965 231.48 59.0918 229.737 59.0918 227.875V226.859C59.0918 224.743 59.3965 222.822 60.0059 221.095C60.6152 219.352 61.4785 217.854 62.5957 216.601C63.7129 215.349 65.0501 214.384 66.6074 213.707C68.1647 213.03 69.8828 212.691 71.7617 212.691C73.7083 212.691 75.4264 213.021 76.916 213.681C78.4056 214.325 79.6497 215.239 80.6484 216.423C81.6471 217.608 82.4004 219.03 82.9082 220.689C83.416 222.331 83.6699 224.151 83.6699 226.148V228.966H62.1387V224.345H77.0684V223.838C77.0345 222.771 76.8314 221.798 76.459 220.918C76.0866 220.02 75.5111 219.31 74.7324 218.785C73.9538 218.243 72.9466 217.972 71.7109 217.972C70.7122 217.972 69.8405 218.192 69.0957 218.632C68.3678 219.056 67.7585 219.665 67.2676 220.461C66.7936 221.239 66.4382 222.17 66.2012 223.254C65.9642 224.337 65.8457 225.539 65.8457 226.859V227.875C65.8457 229.026 65.998 230.092 66.3027 231.074C66.6243 232.056 67.0898 232.91 67.6992 233.638C68.3255 234.349 69.0703 234.908 69.9336 235.314C70.8138 235.703 71.8125 235.898 72.9297 235.898C74.3346 235.898 75.6042 235.627 76.7383 235.086C77.8893 234.527 78.888 233.706 79.7344 232.623L83.1113 236.127C82.5358 236.973 81.7572 237.785 80.7754 238.564C79.8105 239.343 78.6426 239.977 77.2715 240.468C75.9004 240.942 74.3177 241.179 72.5234 241.179ZM100.504 241.179C98.4219 241.179 96.5514 240.841 94.8926 240.164C93.2337 239.487 91.8203 238.547 90.6523 237.345C89.5013 236.127 88.6126 234.713 87.9863 233.105C87.377 231.48 87.0723 229.737 87.0723 227.875V226.859C87.0723 224.743 87.377 222.822 87.9863 221.095C88.5957 219.352 89.459 217.854 90.5762 216.601C91.6934 215.349 93.0306 214.384 94.5879 213.707C96.1452 213.03 97.8633 212.691 99.7422 212.691C101.689 212.691 103.407 213.021 104.896 213.681C106.386 214.325 107.63 215.239 108.629 216.423C109.628 217.608 110.381 219.03 110.889 220.689C111.396 222.331 111.65 224.151 111.65 226.148V228.966H90.1191V224.345H105.049V223.838C105.015 222.771 104.812 221.798 104.439 220.918C104.067 220.02 103.492 219.31 102.713 218.785C101.934 218.243 100.927 217.972 99.6914 217.972C98.6927 217.972 97.821 218.192 97.0762 218.632C96.3483 219.056 95.7389 219.665 95.248 220.461C94.7741 221.239 94.4186 222.17 94.1816 223.254C93.9447 224.337 93.8262 225.539 93.8262 226.859V227.875C93.8262 229.026 93.9785 230.092 94.2832 231.074C94.6048 232.056 95.0703 232.91 95.6797 233.638C96.306 234.349 97.0508 234.908 97.9141 235.314C98.7943 235.703 99.793 235.898 100.91 235.898C102.315 235.898 103.585 235.627 104.719 235.086C105.87 234.527 106.868 233.706 107.715 232.623L111.092 236.127C110.516 236.973 109.738 237.785 108.756 238.564C107.791 239.343 106.623 239.977 105.252 240.468C103.881 240.942 102.298 241.179 100.504 241.179ZM123.254 201.672V240.672H116.525V201.672H123.254ZM141.992 241.179C139.91 241.179 138.04 240.841 136.381 240.164C134.722 239.487 133.309 238.547 132.141 237.345C130.99 236.127 130.101 234.713 129.475 233.105C128.865 231.48 128.561 229.737 128.561 227.875V226.859C128.561 224.743 128.865 222.822 129.475 221.095C130.084 219.352 130.947 217.854 132.064 216.601C133.182 215.349 134.519 214.384 136.076 213.707C137.633 213.03 139.352 212.691 141.23 212.691C143.177 212.691 144.895 213.021 146.385 213.681C147.874 214.325 149.118 215.239 150.117 216.423C151.116 217.608 151.869 219.03 152.377 220.689C152.885 222.331 153.139 224.151 153.139 226.148V228.966H131.607V224.345H146.537V223.838C146.503 222.771 146.3 221.798 145.928 220.918C145.555 220.02 144.98 219.31 144.201 218.785C143.423 218.243 142.415 217.972 141.18 217.972C140.181 217.972 139.309 218.192 138.564 218.632C137.837 219.056 137.227 219.665 136.736 220.461C136.262 221.239 135.907 222.17 135.67 223.254C135.433 224.337 135.314 225.539 135.314 226.859V227.875C135.314 229.026 135.467 230.092 135.771 231.074C136.093 232.056 136.559 232.91 137.168 233.638C137.794 234.349 138.539 234.908 139.402 235.314C140.283 235.703 141.281 235.898 142.398 235.898C143.803 235.898 145.073 235.627 146.207 235.086C147.358 234.527 148.357 233.706 149.203 232.623L152.58 236.127C152.005 236.973 151.226 237.785 150.244 238.564C149.279 239.343 148.111 239.977 146.74 240.468C145.369 240.942 143.786 241.179 141.992 241.179ZM164.336 218.81V240.672H157.633V213.199H163.98L164.336 218.81ZM172.689 213.021L172.588 219.267C172.215 219.2 171.792 219.149 171.318 219.115C170.861 219.081 170.43 219.064 170.023 219.064C168.991 219.064 168.085 219.208 167.307 219.496C166.528 219.767 165.876 220.164 165.352 220.689C164.844 221.214 164.454 221.857 164.184 222.619C163.913 223.364 163.76 224.21 163.727 225.158L162.279 224.98C162.279 223.237 162.457 221.62 162.812 220.13C163.168 218.641 163.684 217.338 164.361 216.22C165.038 215.103 165.885 214.24 166.9 213.63C167.933 213.004 169.118 212.691 170.455 212.691C170.827 212.691 171.225 212.725 171.648 212.793C172.089 212.843 172.436 212.92 172.689 213.021Z" fill="#1298F4"/>
</svg>
