<svg width="81" height="81" viewBox="0 0 81 81" fill="none" xmlns="http://www.w3.org/2000/svg">
<g clip-path="url(#clip0_1566_4075)">
<g clip-path="url(#clip1_1566_4075)">
<mask id="mask0_1566_4075" style="mask-type:luminance" maskUnits="userSpaceOnUse" x="14" y="18" width="53" height="46">
<path d="M66.8571 18.3789H14.7891V63.3789H66.8571V18.3789Z" fill="white"/>
</mask>
<g mask="url(#mask0_1566_4075)">
<path d="M23.1812 21.4299H21.6562V22.9549H23.1812V21.4299Z" fill="#2563AC"/>
<path d="M19.3687 21.4299H17.8438V22.9549H19.3687V21.4299Z" fill="#2563AC"/>
<path d="M26.9908 21.4297H25.4688V22.9547H26.9908V21.4297Z" fill="#2563AC"/>
<path d="M63.8041 21.4299H55.4141V22.9549H63.8041V21.4299Z" fill="#2563AC"/>
<path d="M63.8062 30.5781H62.2812V32.1031H63.8062V30.5781Z" fill="#2563AC"/>
<path d="M63.8062 27.5312H62.2812V29.0562H63.8062V27.5312Z" fill="#2563AC"/>
<path d="M43.8744 35.5391H35.4844V37.0651H43.8744V35.5391Z" fill="#2563AC"/>
<path d="M51.8789 31.7266H41.5859V33.2516H51.8859L51.8789 31.7266Z" fill="#2563AC"/>
<path d="M33.9596 35.5391H29.7656V37.0651H33.9606L33.9596 35.5391Z" fill="#2563AC"/>
<path d="M40.0578 31.7266H29.7578V33.2516H40.0578V31.7266Z" fill="#2563AC"/>
<path d="M51.8836 43.168H29.7656V44.693H51.8836V43.168Z" fill="#2563AC"/>
<path d="M40.0578 39.3535H29.7578V40.8785H40.0578V39.3535Z" fill="#2563AC"/>
<path d="M51.8789 39.3535H41.5859V40.8785H51.8859L51.8789 39.3535Z" fill="#2563AC"/>
<path d="M51.8814 35.5391H45.3984V37.0651H51.8814V35.5391Z" fill="#2563AC"/>
<path d="M58.2187 32.8167C57.7896 32.3876 57.2076 32.1465 56.6007 32.1465C55.9938 32.1465 55.4118 32.3876 54.9827 32.8167C54.5536 33.2458 54.3125 33.8278 54.3125 34.4347C54.3125 35.0415 54.5536 35.6236 54.9827 36.0527L57.1397 38.2097L54.9827 40.3667C54.5536 40.7958 54.3125 41.3778 54.3125 41.9847C54.3125 42.5915 54.5536 43.1736 54.9827 43.6027C55.4118 44.0318 55.9938 44.2729 56.6007 44.2729C57.2076 44.2729 57.7896 44.0318 58.2187 43.6027L61.9887 39.8277C62.4171 39.3982 62.6577 38.8163 62.6577 38.2097C62.6577 37.603 62.4171 37.0212 61.9887 36.5917L58.2187 32.8167ZM60.9187 38.7497L57.1437 42.5247C57.0007 42.6676 56.8069 42.7479 56.6047 42.7479C56.4025 42.7479 56.2086 42.6676 56.0657 42.5247C55.9227 42.3817 55.8424 42.1878 55.8424 41.9857C55.8424 41.7835 55.9227 41.5896 56.0657 41.4467L59.3017 38.2107L56.0627 34.9787C55.9559 34.8722 55.8831 34.7365 55.8536 34.5886C55.8241 34.4408 55.8392 34.2875 55.8969 34.1482C55.9547 34.0089 56.0525 33.89 56.178 33.8064C56.3034 33.7228 56.4509 33.6783 56.6017 33.6787C56.7018 33.6781 56.801 33.6974 56.8935 33.7355C56.9861 33.7736 57.0701 33.8298 57.1407 33.9007L60.9157 37.6757C61.0568 37.8188 61.1359 38.0117 61.1359 38.2127C61.1359 38.4137 61.0568 38.6065 60.9157 38.7497H60.9187Z" fill="#2563AC"/>
<path d="M26.6636 32.8175C26.2341 32.389 25.6522 32.1484 25.0456 32.1484C24.439 32.1484 23.8571 32.389 23.4276 32.8175L19.6526 36.5925C19.2246 37.0222 18.9844 37.604 18.9844 38.2105C18.9844 38.817 19.2246 39.3987 19.6526 39.8285L23.4276 43.6035C23.8567 44.0326 24.4387 44.2737 25.0456 44.2737C25.6525 44.2737 26.2345 44.0326 26.6636 43.6035C27.0927 43.1744 27.3338 42.5923 27.3338 41.9855C27.3338 41.3786 27.0927 40.7966 26.6636 40.3675L24.5066 38.2105L26.6636 36.0535C27.092 35.624 27.3326 35.0421 27.3326 34.4355C27.3326 33.8288 27.092 33.247 26.6636 32.8175ZM25.5846 34.9745L22.3486 38.2105L25.5846 41.4465C25.7275 41.5894 25.8079 41.7833 25.8079 41.9855C25.8079 42.1876 25.7275 42.3815 25.5846 42.5245C25.4416 42.6674 25.2478 42.7477 25.0456 42.7477C24.8434 42.7477 24.6495 42.6674 24.5066 42.5245L20.7316 38.7495C20.5895 38.606 20.5099 38.4123 20.5099 38.2105C20.5099 38.0086 20.5895 37.8149 20.7316 37.6715L24.5066 33.8965C24.5777 33.8257 24.6621 33.7696 24.7548 33.7314C24.8476 33.6932 24.947 33.6737 25.0474 33.6739C25.1477 33.6742 25.247 33.6942 25.3396 33.7328C25.4322 33.7714 25.5163 33.8279 25.5871 33.899C25.6579 33.9701 25.714 34.0544 25.7521 34.1472C25.7903 34.24 25.8099 34.3394 25.8096 34.4397C25.8094 34.5401 25.7894 34.6394 25.7508 34.732C25.7122 34.8246 25.6557 34.9087 25.5846 34.9795V34.9745Z" fill="#2563AC"/>
<path d="M14.7891 18.3789V29.0569H16.3141V26.0059H65.3311V50.4129H16.3141V30.5789H14.7891V52.7009C14.7896 53.3076 15.0308 53.8892 15.4598 54.3182C15.8888 54.7472 16.4704 54.9884 17.0771 54.9889H38.2891L37.2001 58.8019H30.1461C29.5394 58.8024 28.9578 59.0437 28.5288 59.4726C28.0998 59.9016 27.8586 60.4833 27.8581 61.0899V63.3789H47.6891V61.8539H29.3831V61.0909C29.3854 60.8893 29.4665 60.6966 29.6091 60.554C29.7517 60.4114 29.9444 60.3302 30.1461 60.3279H51.5021C51.7044 60.3279 51.8985 60.4083 52.0416 60.5514C52.1847 60.6945 52.2651 60.8885 52.2651 61.0909V61.8539H49.2141V63.3789H53.7891V61.0909C53.7885 60.4843 53.5473 59.9026 53.1183 59.4736C52.6894 59.0447 52.1077 58.8034 51.5011 58.8029H44.4501L43.3611 54.9889H64.5711C65.1777 54.9884 65.7594 54.7472 66.1883 54.3182C66.6173 53.8892 66.8585 53.3076 66.8591 52.7009V18.3789H14.7891ZM16.3141 24.4789V19.9039H65.3311V24.4789H16.3141ZM42.8631 58.8029H38.7841L39.8731 54.9899H41.7731L42.8631 58.8029ZM64.5691 53.4639H17.0771C16.8747 53.4639 16.6806 53.3835 16.5375 53.2404C16.3945 53.0973 16.3141 52.9033 16.3141 52.7009V51.9379H65.3311V52.7009C65.3311 52.9031 65.2508 53.097 65.1079 53.2401C64.9651 53.3831 64.7712 53.4636 64.5691 53.4639Z" fill="#2563AC"/>
</g>
</g>
</g>
<defs>
<clipPath id="clip0_1566_4075">
<rect width="80" height="80" fill="white" transform="translate(0.789062 0.378906)"/>
</clipPath>
<clipPath id="clip1_1566_4075">
<rect width="80" height="80" fill="white" transform="translate(0.789062 0.378906)"/>
</clipPath>
</defs>
</svg>
