<svg width="79" height="80" viewBox="0 0 79 80" fill="none" xmlns="http://www.w3.org/2000/svg">
<g clip-path="url(#clip0_1566_4005)">
<g clip-path="url(#clip1_1566_4005)">
<path d="M61.7537 48.7239C60.997 48.309 60.1403 48.1115 59.2783 48.1533C58.4163 48.1952 57.5827 48.4747 56.8697 48.9609L47.1957 54.2309C47.1607 54.2513 47.1272 54.2744 47.0957 54.2999C46.9345 54.4227 46.7568 54.522 46.5677 54.5949C46.888 54.1784 47.0745 53.6746 47.1027 53.1499C47.1547 51.9199 46.2937 50.7439 44.5447 49.6579C40.8587 47.3699 33.6387 45.8629 30.7787 47.4329L30.7507 47.4489L24.4777 51.2389L24.3527 51.0219C23.9966 50.4079 23.4118 49.9601 22.7262 49.7764C22.0405 49.5927 21.3101 49.6882 20.6947 50.0419L18.0947 51.5419C17.4808 51.898 17.0329 52.4829 16.8492 53.1685C16.6655 53.8541 16.761 54.5846 17.1147 55.1999L23.4537 66.1799C23.8091 66.7944 24.3938 67.2428 25.0795 67.4266C25.7652 67.6103 26.4957 67.5144 27.1107 67.1599L29.7107 65.6599C30.3071 65.3145 30.7476 64.7527 30.9407 64.0911C31.1338 63.4295 31.0647 62.7189 30.7477 62.1069L31.3167 61.7389C31.3747 61.7579 31.4437 61.7789 31.5237 61.8009L40.8257 64.3539C41.5917 64.6279 42.3982 64.7716 43.2117 64.7789C44.3854 64.7777 45.5339 64.4392 46.5207 63.8039L60.8707 55.1539C63.0957 54.1169 63.4987 52.6299 63.5397 51.8329C63.5549 51.2009 63.3964 50.5769 63.0815 50.0287C62.7666 49.4805 62.3073 49.0292 61.7537 48.7239ZM28.9377 64.3239L26.3377 65.8239C26.076 65.9744 25.7652 66.0151 25.4736 65.9369C25.1819 65.8587 24.9331 65.6682 24.7817 65.4069L18.4457 54.4279C18.2961 54.1657 18.256 53.855 18.3343 53.5634C18.4126 53.2718 18.6029 53.0229 18.8637 52.8709L21.4637 51.3709C21.6352 51.2718 21.8297 51.2197 22.0277 51.2199C22.1291 51.2202 22.2299 51.2336 22.3277 51.2599C22.4723 51.298 22.6079 51.3643 22.7267 51.4551C22.8455 51.5459 22.9451 51.6594 23.0197 51.7889L29.3587 62.7689C29.5095 63.0306 29.5503 63.3414 29.4721 63.6332C29.3939 63.9249 29.2032 64.1737 28.9417 64.3249L28.9377 64.3239ZM62.0047 51.7539C61.9637 52.5389 61.3197 53.2539 60.1897 53.7759C60.1637 53.7878 60.1383 53.8011 60.1137 53.8159L45.7187 62.4939L45.7057 62.5019C45.0574 62.9146 44.3197 63.1663 43.5543 63.2359C42.7889 63.3055 42.0179 63.1909 41.3057 62.9019L41.2557 62.8859L31.9257 60.3189C31.8257 60.2909 31.7547 60.2659 31.6917 60.2439C31.4934 60.1616 31.276 60.1363 31.064 60.1708C30.852 60.2052 30.6539 60.2981 30.4917 60.4389L29.9767 60.7719L25.2417 52.5719L31.5257 48.7749C33.6537 47.6259 40.2547 48.8099 43.7257 50.9659C44.9167 51.7049 45.5847 52.4779 45.5587 53.0859C45.5357 53.6389 44.9167 54.2579 43.8167 54.8349C41.5996 54.5721 39.4192 54.0602 37.3167 53.3089C37.123 53.2451 36.9119 53.2609 36.7298 53.3528C36.5477 53.4447 36.4095 53.6052 36.3457 53.7989C36.282 53.9927 36.2977 54.2038 36.3896 54.3859C36.4815 54.568 36.642 54.7061 36.8357 54.7699C42.5257 56.6449 46.1757 56.9029 47.9817 55.5539L57.6257 50.3019L57.6637 50.2799C58.1361 49.9301 58.6986 49.7225 59.2849 49.6814C59.8713 49.6403 60.4572 49.7674 60.9737 50.0479C61.2847 50.2114 61.5451 50.4567 61.7268 50.7573C61.9085 51.058 62.0046 51.4026 62.0047 51.7539ZM22.7577 55.0989C22.8597 55.2756 22.8873 55.4855 22.8346 55.6825C22.7818 55.8795 22.6529 56.0474 22.4762 56.1494C22.2996 56.2514 22.0897 56.279 21.8927 56.2262C21.6957 56.1734 21.5277 56.0446 21.4257 55.8679L20.5017 54.2679C20.3998 54.0913 20.3721 53.8814 20.4249 53.6844C20.4777 53.4874 20.6066 53.3194 20.7832 53.2174C20.9599 53.1154 21.1698 53.0878 21.3668 53.1406C21.5638 53.1934 21.7318 53.3223 21.8337 53.4989L22.7577 55.0989ZM25.8357 33.2539C25.9268 33.0715 26.0865 32.9327 26.2798 32.868C26.4732 32.8033 26.6843 32.818 26.8667 32.9089L27.7517 33.3499C26.6456 30.113 26.6644 26.5975 27.8051 23.3726C28.9458 20.1477 31.1416 17.4022 34.0369 15.5807C36.9323 13.7592 40.3577 12.9682 43.7586 13.336C47.1595 13.7037 50.3367 15.2086 52.7757 17.6069C52.848 17.6778 52.9055 17.7623 52.9451 17.8554C52.9847 17.9486 53.0056 18.0486 53.0065 18.1498C53.0074 18.2511 52.9884 18.3515 52.9505 18.4453C52.9126 18.5392 52.8567 18.6247 52.7857 18.6969C52.7148 18.7691 52.6304 18.8267 52.5372 18.8663C52.4441 18.9059 52.344 18.9267 52.2428 18.9277C52.1416 18.9286 52.0412 18.9096 51.9473 18.8717C51.8535 18.8338 51.768 18.7778 51.6957 18.7069C49.5153 16.5634 46.6783 15.2139 43.6396 14.8749C40.6008 14.5358 37.5362 15.2267 34.9369 16.837C32.3376 18.4472 30.3542 20.8834 29.3045 23.7552C28.2547 26.627 28.1996 29.768 29.1477 32.6749L29.3877 31.8749C29.4462 31.6795 29.58 31.5152 29.7595 31.4184C29.9391 31.3215 30.1498 31.2999 30.3452 31.3584C30.5407 31.4169 30.7049 31.5506 30.8018 31.7302C30.8987 31.9098 30.9202 32.1205 30.8617 32.3159L30.0037 35.1879C29.9716 35.2954 29.9164 35.3945 29.842 35.4783C29.7675 35.5622 29.6756 35.6288 29.5727 35.6733C29.4698 35.7179 29.3584 35.7395 29.2463 35.7365C29.1342 35.7335 29.0241 35.706 28.9237 35.6559L26.1807 34.2889C26.0899 34.2439 26.0089 34.1813 25.9423 34.1048C25.8758 34.0283 25.825 33.9394 25.7929 33.8432C25.7609 33.747 25.7481 33.6454 25.7555 33.5443C25.7628 33.4431 25.7901 33.3445 25.8357 33.2539ZM53.3517 24.4949L54.2107 21.6229C54.2429 21.5155 54.2981 21.4163 54.3725 21.3325C54.447 21.2486 54.5389 21.1821 54.6418 21.1375C54.7447 21.0929 54.8561 21.0714 54.9682 21.0744C55.0803 21.0774 55.1904 21.1049 55.2907 21.1549L58.0337 22.5219C58.211 22.6159 58.3445 22.7754 58.4058 22.9664C58.4671 23.1575 58.4513 23.3649 58.3618 23.5445C58.2723 23.724 58.1161 23.8615 57.9267 23.9275C57.7372 23.9935 57.5295 23.9829 57.3477 23.8979L56.4767 23.4639C57.5996 26.7076 57.5907 30.236 56.4515 33.474C55.3123 36.712 53.11 39.4687 50.2035 41.2949C47.2971 43.121 43.8577 43.9088 40.4462 43.53C37.0346 43.1513 33.8519 41.6281 31.4167 39.2089C31.2739 39.0647 31.1939 38.8698 31.1941 38.6668C31.1944 38.4638 31.2749 38.2691 31.4181 38.1253C31.5613 37.9814 31.7556 37.9 31.9586 37.8988C32.1616 37.8976 32.3569 37.9767 32.5017 38.1189C34.6813 40.2823 37.5267 41.6477 40.578 41.9944C43.6294 42.3411 46.7085 41.6488 49.3179 40.0295C51.9272 38.4101 53.9144 35.9583 54.9583 33.0702C56.0022 30.1821 56.0418 27.0263 55.0707 24.1129L54.8247 24.9349C54.7958 25.0317 54.748 25.1218 54.6843 25.2002C54.6205 25.2785 54.5419 25.3435 54.453 25.3915C54.364 25.4394 54.2666 25.4694 54.1661 25.4797C54.0656 25.49 53.964 25.4804 53.8672 25.4514C53.7705 25.4225 53.6803 25.3747 53.602 25.3109C53.5237 25.2471 53.4586 25.1685 53.4107 25.0796C53.3627 24.9907 53.3327 24.8932 53.3225 24.7927C53.3122 24.6922 53.3218 24.5907 53.3507 24.4939L53.3517 24.4949ZM46.4137 23.0539C46.415 22.0637 46.0728 21.1037 45.4454 20.3376C44.8181 19.5714 43.9444 19.0466 42.9734 18.8525C42.0024 18.6584 40.9941 18.8071 40.1205 19.2732C39.2468 19.7394 38.5619 20.4941 38.1824 21.4087C37.8029 22.3233 37.7524 23.3412 38.0395 24.2889C38.3265 25.2366 38.9334 26.0554 39.7566 26.6058C40.5798 27.1561 41.5684 27.4039 42.5538 27.3069C43.5393 27.2099 44.4606 26.7742 45.1607 26.0739C45.9622 25.2731 46.4129 24.1869 46.4137 23.0539ZM39.4037 23.0539C39.4034 22.42 39.6229 21.8056 40.0249 21.3155C40.4268 20.8254 40.9864 20.4898 41.608 20.3661C42.2297 20.2423 42.8751 20.3381 43.4341 20.6369C43.9931 20.9358 44.4312 21.4193 44.6736 22.005C44.916 22.5907 44.9477 23.2423 44.7634 23.8488C44.5791 24.4553 44.1901 24.9791 43.6628 25.3309C43.1355 25.6827 42.5025 25.8407 41.8717 25.7779C41.2409 25.7152 40.6514 25.4357 40.2037 24.9869C39.6915 24.474 39.4038 23.7788 39.4037 23.0539ZM34.4937 34.5219C34.4539 34.8369 34.4815 35.1567 34.5748 35.4602C34.668 35.7636 34.8248 36.0437 35.0347 36.2819C35.2446 36.5201 35.5028 36.7109 35.7921 36.8416C36.0814 36.9723 36.3953 37.0399 36.7127 37.0399H47.5667C47.8842 37.0399 48.198 36.9723 48.4874 36.8416C48.7767 36.7109 49.0349 36.5201 49.2448 36.2819C49.4547 36.0437 49.6115 35.7636 49.7047 35.4602C49.798 35.1567 49.8256 34.8369 49.7857 34.5219C49.5501 32.6604 48.6435 30.9487 47.2358 29.708C45.8281 28.4672 44.0162 27.7827 42.1397 27.7827C40.2633 27.7827 38.4514 28.4672 37.0437 29.708C35.636 30.9487 34.7294 32.6604 34.4937 34.5219ZM42.1387 29.3219C43.6393 29.3237 45.0879 29.8716 46.2141 30.8633C47.3403 31.855 48.0671 33.2226 48.2587 34.7109C48.2709 34.8092 48.2621 34.909 48.2328 35.0036C48.2036 35.0982 48.1546 35.1856 48.0891 35.2599C48.0236 35.3341 47.9431 35.3937 47.8529 35.4346C47.7626 35.4754 47.6648 35.4967 47.5657 35.4969H36.7127C36.6137 35.4967 36.5158 35.4754 36.4256 35.4346C36.3354 35.3937 36.2549 35.3341 36.1894 35.2599C36.1239 35.1856 36.0749 35.0982 36.0456 35.0036C36.0164 34.909 36.0076 34.8092 36.0197 34.7109C36.2114 33.2226 36.9381 31.855 38.0643 30.8633C39.1905 29.8716 40.6382 29.3237 42.1387 29.3219Z" fill="#2563AC"/>
</g>
</g>
<defs>
<clipPath id="clip0_1566_4005">
<rect width="78.75" height="78.75" fill="white" transform="translate(0.148438 0.378906)"/>
</clipPath>
<clipPath id="clip1_1566_4005">
<rect width="78.75" height="78.75" fill="white" transform="translate(0.148438 0.378906)"/>
</clipPath>
</defs>
</svg>
