<svg width="54" height="54" viewBox="0 0 54 54" fill="none" xmlns="http://www.w3.org/2000/svg">
<g clip-path="url(#clip0_1705_463)">
<rect y="22.2222" width="31.1111" height="31.1111" fill="#F38313"/>
<path d="M42.2004 4.44458H20.0204C17.5516 4.44458 15.5538 6.44236 15.5538 8.91125V21.4379L5.10489 31.7535C4.79181 32.0631 4.57778 32.4588 4.48996 32.8903C4.40214 33.3218 4.44449 33.7696 4.61163 34.177C4.77877 34.5844 5.06317 34.9329 5.42874 35.1784C5.7943 35.4238 6.22455 35.5552 6.66489 35.5557V46.6668C6.66489 47.2562 6.89901 47.8214 7.31576 48.2382C7.73251 48.6549 8.29774 48.889 8.88711 48.889H44.4427C45.032 48.889 45.5973 48.6549 46.014 48.2382C46.4308 47.8214 46.6649 47.2562 46.6649 46.6668V8.90902C46.6649 6.44236 44.6693 4.44458 42.2004 4.44458ZM24.2693 33.5801V44.4446H11.1093V32.0712L17.7471 25.5179L24.2693 32.1912V33.5801V33.5801ZM28.8871 20.0001H24.4427V15.5557H28.8871V20.0001ZM37.776 37.7779H33.3316V33.3335H37.776V37.7779ZM37.776 28.889H33.3316V24.4446H37.776V28.889ZM37.776 20.0001H33.3316V15.5557H37.776V20.0001Z" fill="#2563AC"/>
<path d="M15.5547 33.3334H19.9991V37.7778H15.5547V33.3334Z" fill="#F38313"/>
</g>
<defs>
<clipPath id="clip0_1705_463">
<rect width="53.3333" height="53.3333" fill="white"/>
</clipPath>
</defs>
</svg>
