<svg width="80" height="80" viewBox="0 0 80 80" fill="none" xmlns="http://www.w3.org/2000/svg">
<g clip-path="url(#clip0_1566_4011)">
<g clip-path="url(#clip1_1566_4011)">
<g clip-path="url(#clip2_1566_4011)">
<mask id="mask0_1566_4011" style="mask-type:luminance" maskUnits="userSpaceOnUse" x="12" y="12" width="56" height="56">
<path d="M67.2969 12.2539H12.2969V67.2539H67.2969V12.2539Z" fill="white"/>
</mask>
<g mask="url(#mask0_1566_4011)">
<path d="M53.7085 42.4215C53.6465 42.2309 53.5325 42.0614 53.3793 41.9323C53.2261 41.8031 53.0398 41.7193 52.8415 41.6905L44.4965 40.4805L40.7605 32.9165C40.672 32.7366 40.5349 32.585 40.3647 32.479C40.1945 32.3729 39.998 32.3167 39.7975 32.3165C39.5969 32.3167 39.4005 32.3729 39.2303 32.479C39.0601 32.585 38.923 32.7366 38.8345 32.9165L35.0965 40.4825L26.7485 41.6975C26.5499 41.7262 26.3634 41.8099 26.21 41.9392C26.0566 42.0685 25.9425 42.2381 25.8806 42.4289C25.8187 42.6197 25.8114 42.824 25.8596 43.0187C25.9079 43.2134 26.0096 43.3907 26.1535 43.5305L32.1965 49.4175L30.7725 57.7325C30.7385 57.9301 30.7606 58.1333 30.8361 58.319C30.9117 58.5047 31.0377 58.6655 31.1999 58.7833C31.3622 58.9011 31.5541 58.9712 31.7541 58.9855C31.9541 58.9999 32.1541 58.958 32.3315 58.8645L39.7965 54.9365L47.2645 58.8605C47.4419 58.9538 47.6419 58.9955 47.8418 58.981C48.0417 58.9665 48.2336 58.8963 48.3957 58.7784C48.5578 58.6605 48.6837 58.4996 48.7591 58.3139C48.8345 58.1282 48.8565 57.9251 48.8225 57.7275L47.3965 49.4135L53.4355 43.5235C53.5794 43.3837 53.6812 43.2063 53.7295 43.0116C53.7777 42.8168 53.7704 42.6124 53.7085 42.4215ZM45.4965 48.2695C45.3718 48.3911 45.2785 48.5413 45.2247 48.7069C45.1708 48.8726 45.1581 49.0488 45.1875 49.2205L46.3425 55.9465L40.2965 52.7725C40.1423 52.6915 39.9707 52.6492 39.7965 52.6492C39.6223 52.6492 39.4507 52.6915 39.2965 52.7725L33.2595 55.9535L34.4115 49.2275C34.4409 49.0558 34.4282 48.8796 34.3744 48.7139C34.3206 48.5482 34.2272 48.3981 34.1025 48.2765L29.2145 43.5145L35.9675 42.5315C36.1399 42.5065 36.3036 42.4399 36.4446 42.3374C36.5855 42.235 36.6994 42.0998 36.7765 41.9435L39.7965 35.8195L42.8185 41.9375C42.8955 42.0938 43.0094 42.229 43.1503 42.3314C43.2913 42.4339 43.455 42.5005 43.6275 42.5255L50.3815 43.5055L45.4965 48.2695Z" fill="#2563AC"/>
<path d="M27.2823 50.0012C27.2204 49.8106 27.1064 49.6411 26.9532 49.5119C26.7999 49.3827 26.6136 49.299 26.4153 49.2702L22.5203 48.7052L20.7773 45.1762C20.6888 44.9962 20.5517 44.8447 20.3815 44.7386C20.2113 44.6326 20.0148 44.5763 19.8143 44.5762C19.6138 44.5763 19.4173 44.6326 19.2471 44.7386C19.0769 44.8447 18.9398 44.9962 18.8513 45.1762L17.1103 48.7052L13.2163 49.2722C13.018 49.301 12.8317 49.3848 12.6785 49.514C12.5253 49.6431 12.4113 49.8126 12.3494 50.0032C12.2875 50.1938 12.2802 50.398 12.3282 50.5925C12.3763 50.7871 12.4778 50.9643 12.6213 51.1042L15.4403 53.8532L14.7763 57.7322C14.7424 57.9298 14.7644 58.1329 14.84 58.3186C14.9155 58.5043 15.0416 58.6652 15.2038 58.783C15.366 58.9008 15.558 58.9708 15.758 58.9852C15.9579 58.9995 16.1579 58.9576 16.3353 58.8642L19.8183 57.0322L23.3023 58.8622C23.4798 58.9554 23.6797 58.9971 23.8797 58.9826C24.0796 58.9681 24.2714 58.8979 24.4336 58.78C24.5957 58.6622 24.7216 58.5013 24.797 58.3155C24.8724 58.1298 24.8943 57.9267 24.8603 57.7292L24.1963 53.8532L27.0143 51.1052C27.1576 50.9645 27.2587 50.7866 27.3061 50.5915C27.3534 50.3963 27.3452 50.1919 27.2823 50.0012ZM22.2893 52.7062C22.1645 52.8277 22.0712 52.9778 22.0174 53.1435C21.9636 53.3092 21.9508 53.4855 21.9803 53.6572L22.3733 55.9472L20.3163 54.8662C20.1621 54.7851 19.9905 54.7428 19.8163 54.7428C19.6421 54.7428 19.4705 54.7851 19.3163 54.8662L17.2603 55.9532L17.6523 53.6622C17.6818 53.4905 17.6691 53.3142 17.6152 53.1485C17.5614 52.9828 17.4681 52.8327 17.3433 52.7112L15.6793 51.0892L17.9793 50.7542C18.1517 50.7291 18.3155 50.6625 18.4564 50.5601C18.5974 50.4576 18.7113 50.3224 18.7883 50.1662L19.8163 48.0822L20.8453 50.1662C20.9225 50.3223 21.0364 50.4573 21.1774 50.5595C21.3183 50.6618 21.482 50.7282 21.6543 50.7532L23.9543 51.0862L22.2893 52.7062Z" fill="#2563AC"/>
<path d="M67.2398 50.0051C67.1779 49.8145 67.0639 49.645 66.9106 49.5159C66.7574 49.3867 66.5711 49.3029 66.3728 49.2741L62.4788 48.7071L60.7378 45.1781C60.6493 44.9982 60.5122 44.8466 60.342 44.7406C60.1718 44.6345 59.9753 44.5783 59.7748 44.5781C59.5743 44.5783 59.3778 44.6345 59.2076 44.7406C59.0374 44.8466 58.9003 44.9982 58.8118 45.1781L57.0688 48.7071L53.1738 49.2721C52.9751 49.3002 52.7882 49.3834 52.6343 49.5123C52.4805 49.6411 52.3658 49.8106 52.3033 50.0013C52.2409 50.192 52.2331 50.3964 52.2809 50.5914C52.3287 50.7863 52.4302 50.9639 52.5738 51.1041L55.3918 53.8531L54.7258 57.7321C54.6918 57.9297 54.7137 58.1328 54.7891 58.3185C54.8646 58.5042 54.9904 58.6651 55.1526 58.783C55.3147 58.9009 55.5065 58.9711 55.7065 58.9856C55.9064 59.0001 56.1064 58.9584 56.2838 58.8651L59.7678 57.0351L63.2508 58.8671C63.4282 58.9606 63.6282 59.0025 63.8282 58.9881C64.0281 58.9738 64.2201 58.9037 64.3823 58.7859C64.5446 58.6681 64.6706 58.5073 64.7461 58.3216C64.8217 58.1359 64.8437 57.9327 64.8098 57.7351L64.1488 53.8531L66.9678 51.1071C67.1114 50.9671 67.213 50.7897 67.2611 50.595C67.3092 50.4002 67.3018 50.1959 67.2398 50.0051ZM62.2448 52.7051C62.12 52.8267 62.0267 52.9768 61.9729 53.1425C61.919 53.3081 61.9063 53.4844 61.9358 53.6561L62.3278 55.9471L60.2708 54.8651C60.1166 54.784 59.945 54.7416 59.7708 54.7416C59.5966 54.7416 59.425 54.784 59.2708 54.8651L57.2138 55.9461L57.6068 53.6561C57.6363 53.4844 57.6236 53.3081 57.5697 53.1425C57.5159 52.9768 57.4226 52.8267 57.2978 52.7051L55.6338 51.0821L57.9338 50.7491C58.1061 50.7242 58.2698 50.6577 58.4107 50.5555C58.5517 50.4532 58.6656 50.3182 58.7428 50.1621L59.7718 48.0781L60.7998 50.1621C60.8768 50.3184 60.9907 50.4536 61.1317 50.556C61.2726 50.6585 61.4364 50.7251 61.6088 50.7501L63.9088 51.0851L62.2448 52.7051Z" fill="#2563AC"/>
<path d="M54.3083 31.1443C54.1067 30.9431 53.8336 30.8301 53.5488 30.8301C53.264 30.8301 52.9908 30.9431 52.7893 31.1443L49.2443 34.6893C49.0428 34.8907 48.9297 35.1639 48.9297 35.4488C48.9297 35.7337 49.0428 36.0069 49.2443 36.2083C49.4457 36.4097 49.7189 36.5229 50.0038 36.5229C50.2887 36.5229 50.5619 36.4097 50.7633 36.2083L54.3083 32.6633C54.5095 32.4618 54.6225 32.1886 54.6225 31.9038C54.6225 31.619 54.5095 31.3458 54.3083 31.1443Z" fill="#2563AC"/>
<path d="M56.8458 28.6054C56.67 28.429 56.4384 28.3191 56.1906 28.2944C55.9428 28.2697 55.6941 28.3317 55.4869 28.4698C55.2797 28.608 55.1268 28.8137 55.0544 29.052C54.9819 29.2903 54.9943 29.5463 55.0895 29.7764C55.1847 30.0065 55.3568 30.1965 55.5764 30.3139C55.796 30.4314 56.0496 30.469 56.2938 30.4204C56.5381 30.3718 56.7579 30.2399 56.9158 30.0474C57.0737 29.8548 57.16 29.6134 57.1598 29.3644C57.1587 29.08 57.0459 28.8074 56.8458 28.6054Z" fill="#2563AC"/>
<path d="M24.2705 28.6052C24.0947 28.4295 23.8634 28.3203 23.6161 28.2961C23.3688 28.2719 23.1208 28.3342 22.9143 28.4724C22.7077 28.6106 22.5555 28.8161 22.4835 29.0539C22.4116 29.2918 22.4243 29.5472 22.5195 29.7767C22.6148 30.0062 22.7867 30.1956 23.0059 30.3126C23.2251 30.4295 23.4781 30.4669 23.7218 30.4182C23.9655 30.3696 24.1848 30.2379 24.3422 30.0457C24.4997 29.8535 24.5857 29.6126 24.5855 29.3642C24.5841 29.0796 24.471 28.8071 24.2705 28.6052Z" fill="#2563AC"/>
<path d="M30.2023 34.5427L26.8023 31.1427C26.7026 31.043 26.5842 30.9639 26.4539 30.9099C26.3236 30.8559 26.1839 30.8281 26.0428 30.8281C25.9018 30.8281 25.7621 30.8559 25.6318 30.9099C25.5015 30.9639 25.3831 31.043 25.2833 31.1427C25.1836 31.2425 25.1045 31.3609 25.0505 31.4912C24.9965 31.6215 24.9687 31.7612 24.9688 31.9022C24.9687 32.0433 24.9965 32.1829 25.0505 32.3133C25.1045 32.4436 25.1836 32.562 25.2833 32.6617L28.6833 36.0617C28.8848 36.2631 29.158 36.3763 29.4428 36.3763C29.7277 36.3763 30.0009 36.2631 30.2023 36.0617C30.4038 35.8603 30.5169 35.5871 30.5169 35.3022C30.5169 35.0174 30.4038 34.7442 30.2023 34.5427Z" fill="#2563AC"/>
<path d="M39.7928 20.5195C39.6517 20.5195 39.5121 20.5473 39.3817 20.6013C39.2514 20.6553 39.133 20.7344 39.0333 20.8341C38.9336 20.9338 38.8545 21.0522 38.8005 21.1825C38.7465 21.3128 38.7188 21.4525 38.7188 21.5935V28.8845C38.7188 29.1694 38.8319 29.4425 39.0333 29.644C39.2347 29.8454 39.5079 29.9585 39.7928 29.9585C40.0776 29.9585 40.3508 29.8454 40.5522 29.644C40.7536 29.4425 40.8668 29.1694 40.8668 28.8845V21.5935C40.8668 21.4525 40.839 21.3128 40.785 21.1825C40.731 21.0522 40.6519 20.9338 40.5522 20.8341C40.4525 20.7344 40.3341 20.6553 40.2038 20.6013C40.0735 20.5473 39.9338 20.5195 39.7928 20.5195Z" fill="#2563AC"/>
</g>
</g>
</g>
</g>
<defs>
<clipPath id="clip0_1566_4011">
<rect width="78.75" height="78.75" fill="white" transform="translate(0.421875 0.378906)"/>
</clipPath>
<clipPath id="clip1_1566_4011">
<rect width="78.75" height="78.75" fill="white" transform="translate(0.421875 0.378906)"/>
</clipPath>
<clipPath id="clip2_1566_4011">
<rect width="78.75" height="78.75" fill="white" transform="translate(0.421875 0.378906)"/>
</clipPath>
</defs>
</svg>
