<svg width="81" height="81" viewBox="0 0 81 81" fill="none" xmlns="http://www.w3.org/2000/svg">
<g clip-path="url(#clip0_1566_4029)">
<g clip-path="url(#clip1_1566_4029)">
<g clip-path="url(#clip2_1566_4029)">
<path d="M56.3811 32.2797L48.1011 31.1057L44.4011 23.7897C44.0677 23.1494 43.5652 22.6129 42.948 22.2385C42.3309 21.864 41.6229 21.666 40.9011 21.666C40.1793 21.666 39.4713 21.864 38.8541 22.2385C38.237 22.6129 37.7344 23.1494 37.4011 23.7897L33.7011 31.1057L25.4171 32.2797C24.7053 32.365 24.0324 32.6509 23.4769 33.104C22.9214 33.5572 22.5062 34.159 22.2796 34.8392C22.0531 35.5193 22.0246 36.2499 22.1975 36.9456C22.3704 37.6414 22.7375 38.2736 23.2561 38.7687L29.2471 44.4637L27.8331 52.5047C27.7256 53.2159 27.8178 53.943 28.0993 54.6049C28.3809 55.2668 28.8408 55.8375 29.4277 56.2533C30.0147 56.6692 30.7056 56.9138 31.4234 56.9599C32.1412 57.0061 32.8577 56.8519 33.4931 56.5147L40.8931 52.7147L48.2991 56.5147C48.9345 56.8515 49.6509 57.0054 50.3686 56.9591C51.0862 56.9127 51.7769 56.6681 52.3637 56.2523C52.9505 55.8366 53.4104 55.2661 53.6921 54.6044C53.9738 53.9427 54.0662 53.2158 53.9591 52.5047L52.5511 44.4627L58.5401 38.7677C59.0583 38.2727 59.4252 37.6407 59.598 36.9453C59.7708 36.2498 59.7424 35.5196 59.5161 34.8397C59.2899 34.1597 58.875 33.5581 58.32 33.1049C57.7649 32.6516 57.0925 32.3654 56.3811 32.2797ZM56.2091 36.4337L49.5811 42.7277C49.3879 42.9097 49.2429 43.1368 49.1589 43.3886C49.075 43.6404 49.0548 43.9091 49.1001 44.1707L50.6631 53.0567C50.6788 53.1584 50.6659 53.2625 50.6257 53.3573C50.5856 53.4521 50.5198 53.5339 50.4358 53.5934C50.3518 53.6529 50.2529 53.6878 50.1501 53.6942C50.0474 53.7006 49.9449 53.6783 49.8541 53.6297L41.6701 49.4297C41.4292 49.3066 41.1626 49.2424 40.8921 49.2424C40.6216 49.2424 40.355 49.3066 40.1141 49.4297L31.9301 53.6297C31.8393 53.6783 31.7368 53.7006 31.6341 53.6942C31.5313 53.6878 31.4324 53.6529 31.3484 53.5934C31.2644 53.5339 31.1986 53.4521 31.1585 53.3573C31.1183 53.2625 31.1054 53.1584 31.1211 53.0567L32.6841 44.1707C32.73 43.9091 32.71 43.6403 32.626 43.3884C32.5421 43.1364 32.3967 42.9094 32.2031 42.7277L25.5811 36.4337C25.5062 36.3632 25.4531 36.2728 25.428 36.1731C25.4028 36.0734 25.4067 35.9685 25.4392 35.871C25.4717 35.7734 25.5314 35.6872 25.6113 35.6225C25.6912 35.5577 25.7879 35.5172 25.8901 35.5057L35.0401 34.2057C35.3061 34.1693 35.5594 34.0693 35.7786 33.9142C35.9978 33.7591 36.1763 33.5535 36.2991 33.3147L40.3901 25.2297C40.4373 25.1377 40.5089 25.0605 40.5971 25.0067C40.6854 24.9528 40.7867 24.9243 40.8901 24.9243C40.9935 24.9243 41.0948 24.9528 41.183 25.0067C41.2712 25.0605 41.3429 25.1377 41.3901 25.2297L45.4811 33.3187C45.6037 33.5576 45.7822 33.7633 46.0014 33.9184C46.2206 34.0736 46.474 34.1735 46.7401 34.2097L55.8891 35.5097C55.992 35.5196 56.09 35.5589 56.1712 35.6229C56.2525 35.6869 56.3136 35.7729 56.3475 35.8706C56.3813 35.9684 56.3863 36.0738 56.3619 36.1743C56.3376 36.2748 56.2849 36.3662 56.2101 36.4377L56.2091 36.4337Z" fill="#2563AC"/>
<path d="M29.0242 22.4851L27.0742 19.8011C26.9484 19.6279 26.7897 19.4811 26.6072 19.3693C26.4247 19.2574 26.2219 19.1825 26.0105 19.149C25.799 19.1155 25.583 19.1239 25.3749 19.1739C25.1667 19.2238 24.9704 19.3143 24.7972 19.4401C24.624 19.5659 24.4772 19.7246 24.3654 19.9071C24.2535 20.0896 24.1786 20.2924 24.1451 20.5038C24.1116 20.7153 24.12 20.9312 24.17 21.1394C24.2199 21.3476 24.3104 21.5439 24.4362 21.7171L26.3862 24.4011C26.6432 24.743 27.0243 24.9702 27.4473 25.0337C27.8703 25.0972 28.3013 24.9919 28.6473 24.7405C28.9934 24.489 29.2267 24.1117 29.297 23.6897C29.3673 23.2678 29.269 22.8352 29.0232 22.4851H29.0242Z" fill="#2563AC"/>
<path d="M22.382 47.0861C22.3163 46.8822 22.211 46.6933 22.0721 46.5302C21.9332 46.3672 21.7634 46.2332 21.5725 46.1359C21.3816 46.0387 21.1734 45.9802 20.9598 45.9638C20.7462 45.9473 20.5315 45.9733 20.328 46.0401L17.108 47.0851C16.9008 47.1483 16.7083 47.2521 16.5417 47.3904C16.3751 47.5288 16.2378 47.699 16.1377 47.891C16.0376 48.083 15.9768 48.2931 15.9588 48.5089C15.9408 48.7247 15.966 48.942 16.0329 49.1479C16.0998 49.3539 16.2071 49.5445 16.3484 49.7085C16.4898 49.8726 16.6625 50.0068 16.8563 50.1033C17.0502 50.1999 17.2613 50.2569 17.4774 50.2709C17.6935 50.285 17.9103 50.2558 18.115 50.1851L21.334 49.1391C21.5379 49.0737 21.727 48.9686 21.8902 48.8298C22.0534 48.6911 22.1876 48.5214 22.285 48.3306C22.3824 48.1398 22.4411 47.9316 22.4577 47.7181C22.4744 47.5045 22.4486 47.2897 22.382 47.0861Z" fill="#2563AC"/>
<path d="M57.0091 19.441C56.8362 19.3144 56.6399 19.2231 56.4315 19.1727C56.2232 19.1222 56.0069 19.1134 55.7952 19.1469C55.5834 19.1803 55.3804 19.2554 55.1978 19.3676C55.0152 19.4799 54.8566 19.6272 54.7311 19.801L52.7801 22.484C52.6502 22.6569 52.5559 22.8539 52.5029 23.0636C52.4499 23.2733 52.4391 23.4914 52.4712 23.7053C52.5033 23.9192 52.5776 24.1245 52.6899 24.3094C52.8021 24.4942 52.95 24.6549 53.125 24.782C53.3 24.9091 53.4985 25.0002 53.709 25.0498C53.9195 25.0995 54.1377 25.1067 54.3511 25.0712C54.5644 25.0356 54.7685 24.958 54.9515 24.8428C55.1346 24.7275 55.2928 24.577 55.4171 24.4L57.3671 21.716C57.4935 21.5432 57.5844 21.347 57.6347 21.1389C57.6851 20.9307 57.6937 20.7147 57.6603 20.5032C57.6268 20.2917 57.5519 20.0889 57.4398 19.9064C57.3277 19.724 57.1807 19.5655 57.0071 19.44L57.0091 19.441Z" fill="#2563AC"/>
<path d="M64.6952 47.0855L61.4802 46.0395C61.0716 45.915 60.6304 45.9559 60.2516 46.1533C59.8729 46.3507 59.5867 46.6889 59.4547 47.0952C59.3228 47.5014 59.3555 47.9432 59.546 48.3256C59.7365 48.7079 60.0694 49.0002 60.4732 49.1395L63.6922 50.1855C63.8969 50.2562 64.1136 50.2854 64.3297 50.2713C64.5458 50.2573 64.757 50.2003 64.9508 50.1037C65.1446 50.0072 65.3173 49.873 65.4587 49.7089C65.6001 49.5449 65.7074 49.3543 65.7743 49.1483C65.8412 48.9424 65.8664 48.7251 65.8484 48.5093C65.8304 48.2935 65.7696 48.0834 65.6695 47.8914C65.5694 47.6994 65.432 47.5292 65.2654 47.3908C65.0988 47.2525 64.9063 47.1487 64.6992 47.0855H64.6952Z" fill="#2563AC"/>
<path d="M40.9023 60.0547C40.472 60.0558 40.0597 60.2274 39.7558 60.5321C39.4519 60.8367 39.2812 61.2494 39.2813 61.6797V64.9887C39.2812 65.2028 39.3234 65.4147 39.4053 65.6125C39.4872 65.8103 39.6073 65.9899 39.7587 66.1413C39.91 66.2927 40.0897 66.4127 40.2875 66.4946C40.4852 66.5766 40.6972 66.6187 40.9113 66.6187C41.1253 66.6187 41.3373 66.5766 41.535 66.4946C41.7328 66.4127 41.9125 66.2927 42.0638 66.1413C42.2152 65.9899 42.3353 65.8103 42.4172 65.6125C42.4991 65.4147 42.5413 65.2028 42.5413 64.9887V61.6797C42.5413 61.4655 42.4989 61.2533 42.4166 61.0555C42.3343 60.8577 42.2137 60.6781 42.0618 60.5271C41.9098 60.3761 41.7295 60.2566 41.5312 60.1755C41.3329 60.0945 41.1205 60.0534 40.9062 60.0547H40.9023Z" fill="#2563AC"/>
</g>
</g>
</g>
<defs>
<clipPath id="clip0_1566_4029">
<rect width="80" height="80" fill="white" transform="translate(0.984375 0.378906)"/>
</clipPath>
<clipPath id="clip1_1566_4029">
<rect width="80" height="80" fill="white" transform="translate(0.984375 0.378906)"/>
</clipPath>
<clipPath id="clip2_1566_4029">
<rect width="80" height="80" fill="white" transform="translate(0.984375 0.378906)"/>
</clipPath>
</defs>
</svg>
