<svg width="54" height="54" viewBox="0 0 54 54" fill="none" xmlns="http://www.w3.org/2000/svg">
<g clip-path="url(#clip0_1705_417)">
<rect y="22.5554" width="31.1111" height="31.1111" fill="#F38313"/>
<path d="M46.6632 31.4444C46.6632 30.2222 45.6632 29.2222 44.441 29.2222H39.9965V33.6667H44.441C45.6632 33.6667 46.6632 32.6667 46.6632 31.4444ZM44.441 38.1111H39.9965V42.5556H44.441C45.6632 42.5556 46.6632 41.5556 46.6632 40.3333C46.6632 39.1111 45.6632 38.1111 44.441 38.1111ZM26.6632 31.4444H22.2188V40.3333H26.6632C26.6632 42.7778 28.6632 44.7778 31.1076 44.7778H37.7743V27H31.1076C28.6632 27 26.6632 29 26.6632 31.4444Z" fill="white"/>
<path d="M11.1085 29.2222C11.1085 26.7777 13.1085 24.7777 15.553 24.7777H18.8863C23.1752 24.7777 26.6641 21.2888 26.6641 16.9999C26.6641 12.7111 23.1752 9.22217 18.8863 9.22217H11.1085C9.88628 9.22217 8.88628 10.2222 8.88628 11.4444C8.88628 12.6666 9.88628 13.6666 11.1085 13.6666H18.8863C20.7307 13.6666 22.2196 15.1555 22.2196 16.9999C22.2196 18.8444 20.7307 20.3333 18.8863 20.3333H15.553C10.6418 20.3333 6.66406 24.3111 6.66406 29.2222C6.66406 34.1333 10.6418 38.1111 15.553 38.1111H19.9974V33.6666H15.553C13.1085 33.6666 11.1085 31.6666 11.1085 29.2222Z" fill="white"/>
</g>
<defs>
<clipPath id="clip0_1705_417">
<rect width="53.3333" height="53.3333" fill="white" transform="translate(0 0.333252)"/>
</clipPath>
</defs>
</svg>
