<svg width="54" height="54" viewBox="0 0 54 54" fill="none" xmlns="http://www.w3.org/2000/svg">
<g clip-path="url(#clip0_1705_282)">
<rect y="22.5554" width="31.1111" height="31.1111" fill="#F38313"/>
<path d="M40.0009 35.8888H35.5564V33.6666H17.7786V35.8888H13.3342V33.6666H4.44531V44.7777H48.8898V33.6666H40.0009V35.8888ZM44.4453 18.1111H37.7786V13.6666C37.7786 11.2222 35.7786 9.22217 33.3342 9.22217H20.0009C17.5564 9.22217 15.5564 11.2222 15.5564 13.6666V18.1111H8.88976C6.44531 18.1111 4.44531 20.1111 4.44531 22.5555V31.4444H13.3342V26.9999H17.7786V31.4444H35.5564V26.9999H40.0009V31.4444H48.8898V22.5555C48.8898 20.1111 46.8898 18.1111 44.4453 18.1111ZM33.3342 18.1111H20.0009V13.6666H33.3342V18.1111Z" fill="white"/>
</g>
<defs>
<clipPath id="clip0_1705_282">
<rect width="53.3333" height="53.3333" fill="white" transform="translate(0 0.333252)"/>
</clipPath>
</defs>
</svg>
