<svg width="54" height="54" viewBox="0 0 54 54" fill="none" xmlns="http://www.w3.org/2000/svg">
<g clip-path="url(#clip0_1705_227)">
<rect y="22.2222" width="31.1111" height="31.1111" fill="#F38313"/>
<path d="M24.4434 13.3333H31.1101L38.4212 5.99998C38.6278 5.7917 38.8736 5.62637 39.1444 5.51356C39.4152 5.40074 39.7056 5.34265 39.999 5.34265C40.2923 5.34265 40.5828 5.40074 40.8536 5.51356C41.1244 5.62637 41.3702 5.7917 41.5768 5.99998L47.3101 11.7555C47.724 12.1719 47.9563 12.7351 47.9563 13.3222C47.9563 13.9093 47.724 14.4725 47.3101 14.8889L42.2212 20H24.4434V24.4444C24.4434 25.0338 24.2093 25.599 23.7926 26.0158C23.3758 26.4325 22.8106 26.6666 22.2212 26.6666C21.6318 26.6666 21.0666 26.4325 20.6499 26.0158C20.2331 25.599 19.999 25.0338 19.999 24.4444V17.7778C19.999 16.599 20.4672 15.4686 21.3007 14.6351C22.1342 13.8016 23.2647 13.3333 24.4434 13.3333ZM11.1101 24.4444V33.3333L6.02121 38.4222C5.60732 38.8386 5.375 39.4018 5.375 39.9889C5.375 40.5759 5.60732 41.1392 6.02121 41.5555L11.7545 47.3111C11.9611 47.5194 12.2069 47.6847 12.4777 47.7975C12.7485 47.9103 13.039 47.9684 13.3323 47.9684C13.6257 47.9684 13.9161 47.9103 14.1869 47.7975C14.4577 47.6847 14.7035 47.5194 14.9101 47.3111L24.4434 37.7778H33.3323C33.9217 37.7778 34.4869 37.5436 34.9037 37.1269C35.3204 36.7101 35.5545 36.1449 35.5545 35.5555V33.3333H37.7768C38.3661 33.3333 38.9314 33.0992 39.3481 32.6824C39.7649 32.2657 39.999 31.7005 39.999 31.1111V28.8889H42.2212C42.8106 28.8889 43.3758 28.6547 43.7926 28.238C44.2093 27.8212 44.4434 27.256 44.4434 26.6666V24.4444H28.8879V26.6666C28.8879 27.8454 28.4196 28.9758 27.5861 29.8093C26.7526 30.6428 25.6222 31.1111 24.4434 31.1111H19.999C18.8202 31.1111 17.6898 30.6428 16.8563 29.8093C16.0228 28.9758 15.5545 27.8454 15.5545 26.6666V20L11.1101 24.4444Z" fill="#2563AC"/>
</g>
<defs>
<clipPath id="clip0_1705_227">
<rect width="53.3333" height="53.3333" fill="white"/>
</clipPath>
</defs>
</svg>
