<svg width="80" height="80" viewBox="0 0 80 80" fill="none" xmlns="http://www.w3.org/2000/svg">
<g clip-path="url(#clip0_1566_3982)">
<g clip-path="url(#clip1_1566_3982)">
<g clip-path="url(#clip2_1566_3982)">
<path d="M62.4894 43.5869V36.0749L58.0604 35.5749C57.6027 33.6121 56.8257 31.7378 55.7604 30.0269L58.6104 26.5619L53.2944 21.2539L49.7894 24.0539C48.0774 22.9893 46.2026 22.2123 44.2394 21.7539L43.7964 17.2539H36.2754L35.7754 21.7389C33.8056 22.1953 31.9242 22.9724 30.2064 24.0389L26.7514 21.2129L21.4324 26.5239L24.2244 30.0139C23.1613 31.7177 22.3844 33.5841 21.9244 35.5389L17.4844 35.9779V43.4889L21.9134 43.9889C22.371 45.9517 23.148 47.826 24.2134 49.5369L21.3634 53.0009L26.6824 58.3119L30.1894 55.5119C31.9007 56.5782 33.7752 57.3569 35.7384 57.8169L36.1814 62.2489H43.7024L44.2024 57.8259C46.1588 57.3721 48.0281 56.602 49.7364 55.5459L53.2364 58.4069L58.5554 53.0959L55.7394 49.5849C56.8121 47.8718 57.5953 45.9936 58.0574 44.0259L62.4894 43.5869Z" stroke="#2563AC" stroke-width="2" stroke-miterlimit="10" stroke-linecap="round" stroke-linejoin="round"/>
<path d="M39.9889 52.7846C42.5659 52.7848 45.085 52.0208 47.2277 50.5893C49.3705 49.1577 51.0406 47.123 52.0269 44.7422C53.0132 42.3615 53.2713 39.7418 52.7687 37.2144C52.2661 34.6869 51.0253 32.3653 49.2032 30.543C47.3811 28.7208 45.0595 27.4798 42.5321 26.977C40.0047 26.4742 37.385 26.7321 35.0042 27.7182C32.6234 28.7044 30.5885 30.3743 29.1568 32.5169C27.7251 34.6596 26.9609 37.1786 26.9609 39.7556C26.9609 43.2109 28.3335 46.5247 30.7767 48.9681C33.2199 51.4115 36.5336 52.7843 39.9889 52.7846Z" stroke="#2563AC" stroke-width="2" stroke-miterlimit="10" stroke-linecap="round" stroke-linejoin="round"/>
<path d="M42.5107 51.36V45.626C43.6383 45.1205 44.5878 44.2877 45.236 43.2356C45.8842 42.1836 46.201 40.9609 46.1454 39.7265C46.0898 38.4921 45.6642 37.3029 44.924 36.3134C44.1838 35.3239 43.1632 34.5799 41.9947 34.178V39.534L39.9947 40.834L37.9947 39.534V34.174C36.8246 34.5743 35.802 35.3175 35.0601 36.3069C34.3181 37.2964 33.8911 38.4862 33.8346 39.7216C33.778 40.957 34.0946 42.1808 34.7431 43.2339C35.3916 44.2869 36.342 45.1204 37.4707 45.626V51.36" stroke="#2563AC" stroke-width="2" stroke-miterlimit="10" stroke-linecap="round" stroke-linejoin="round"/>
</g>
</g>
</g>
<defs>
<clipPath id="clip0_1566_3982">
<rect width="78.75" height="78.75" fill="white" transform="translate(0.617188 0.378906)"/>
</clipPath>
<clipPath id="clip1_1566_3982">
<rect width="78.75" height="78.75" fill="white" transform="translate(0.617188 0.378906)"/>
</clipPath>
<clipPath id="clip2_1566_3982">
<rect width="78.75" height="78.75" fill="white" transform="translate(0.617188 0.378906)"/>
</clipPath>
</defs>
</svg>
