<svg width="81" height="81" viewBox="0 0 81 81" fill="none" xmlns="http://www.w3.org/2000/svg">
<g clip-path="url(#clip0_1566_4052)">
<g clip-path="url(#clip1_1566_4052)">
<g clip-path="url(#clip2_1566_4052)">
<path d="M37.7319 49.5238H19.0529C18.7302 49.5238 18.4206 49.3956 18.1924 49.1674C17.9642 48.9392 17.8359 48.6296 17.8359 48.3068C17.8359 47.9841 17.9642 47.6745 18.1924 47.4463C18.4206 47.2181 18.7302 47.0898 19.0529 47.0898H37.7319C38.0547 47.0898 38.3643 47.2181 38.5925 47.4463C38.8207 47.6745 38.9489 47.9841 38.9489 48.3068C38.9489 48.6296 38.8207 48.9392 38.5925 49.1674C38.3643 49.3956 38.0547 49.5238 37.7319 49.5238Z" fill="#2563AC"/>
<path d="M37.7319 34.9184H19.0529C18.8931 34.9184 18.7349 34.8869 18.5872 34.8257C18.4396 34.7646 18.3054 34.6749 18.1924 34.5619C18.0794 34.4489 17.9897 34.3148 17.9286 34.1671C17.8674 34.0194 17.8359 33.8612 17.8359 33.7014C17.8359 33.5416 17.8674 33.3833 17.9286 33.2356C17.9897 33.088 18.0794 32.9538 18.1924 32.8408C18.3054 32.7278 18.4396 32.6382 18.5872 32.577C18.7349 32.5159 18.8931 32.4844 19.0529 32.4844H37.7319C37.8918 32.4844 38.05 32.5159 38.1977 32.577C38.3453 32.6382 38.4795 32.7278 38.5925 32.8408C38.7055 32.9538 38.7951 33.088 38.8563 33.2356C38.9175 33.3833 38.9489 33.5416 38.9489 33.7014C38.9489 33.8612 38.9175 34.0194 38.8563 34.1671C38.7951 34.3148 38.7055 34.4489 38.5925 34.5619C38.4795 34.6749 38.3453 34.7646 38.1977 34.8257C38.05 34.8869 37.8918 34.9184 37.7319 34.9184Z" fill="#2563AC"/>
<path d="M36.0902 42.2211H11.7483C11.5884 42.2211 11.4302 42.1896 11.2825 42.1285C11.1349 42.0673 11.0007 41.9777 10.8877 41.8647C10.7747 41.7516 10.685 41.6175 10.6239 41.4698C10.5627 41.3222 10.5312 41.1639 10.5312 41.0041C10.5312 40.8443 10.5627 40.686 10.6239 40.5384C10.685 40.3907 10.7747 40.2566 10.8877 40.1436C11.0007 40.0305 11.1349 39.9409 11.2825 39.8797C11.4302 39.8186 11.5884 39.7871 11.7483 39.7871H36.0902C36.413 39.7871 36.7226 39.9153 36.9508 40.1436C37.179 40.3718 37.3073 40.6813 37.3073 41.0041C37.3073 41.3269 37.179 41.6364 36.9508 41.8647C36.7226 42.0929 36.413 42.2211 36.0902 42.2211Z" fill="#2563AC"/>
<path d="M48.257 45.7525C47.3227 45.7291 46.416 45.4306 45.6505 44.8944C44.885 44.3583 44.2946 43.6082 43.9532 42.7382C43.6119 41.8681 43.5347 40.9167 43.7314 40.0031C43.9281 39.0894 44.3899 38.254 45.0591 37.6015C45.7282 36.949 46.5749 36.5083 47.4933 36.3347C48.4116 36.161 49.3608 36.2621 50.2219 36.6252C51.0831 36.9884 51.8181 37.5974 52.3348 38.3762C52.8515 39.155 53.1271 40.0689 53.127 41.0035C53.1397 41.6409 53.0215 42.2742 52.7796 42.8641C52.5378 43.454 52.1775 43.9881 51.721 44.4332C51.2646 44.8783 50.7216 45.2251 50.1258 45.452C49.53 45.6789 48.8939 45.7812 48.257 45.7525ZM48.257 38.6885C47.804 38.7112 47.3677 38.8662 47.002 39.1345C46.6363 39.4027 46.3574 39.7723 46.1997 40.1975C46.042 40.6228 46.0125 41.0849 46.1148 41.5267C46.2172 41.9685 46.4469 42.3706 46.7755 42.6832C47.1041 42.9957 47.5172 43.205 47.9636 43.2851C48.41 43.3652 48.8701 43.3126 49.2869 43.1338C49.7037 42.955 50.0588 42.6579 50.3084 42.2792C50.558 41.9005 50.691 41.457 50.691 41.0035C50.7032 40.6859 50.6476 40.3694 50.5279 40.075C50.4083 39.7806 50.2273 39.5151 49.997 39.2961C49.7667 39.0771 49.4925 38.9096 49.1925 38.8048C48.8924 38.7001 48.5735 38.6604 48.257 38.6885Z" fill="#2563AC"/>
<path d="M50.8429 39.6404C50.6021 39.6405 50.3666 39.5693 50.1663 39.4355C49.966 39.3018 49.8099 39.1117 49.7177 38.8892C49.6255 38.6667 49.6014 38.4219 49.6484 38.1857C49.6955 37.9495 49.8115 37.7326 49.9819 37.5624L56.8679 30.6794C57.097 30.4551 57.4052 30.3303 57.7257 30.332C58.0462 30.3338 58.3531 30.4618 58.5798 30.6885C58.8064 30.9151 58.9345 31.222 58.9362 31.5425C58.9379 31.8631 58.8131 32.1713 58.5889 32.4004L51.7039 39.2794C51.5913 39.3934 51.4573 39.484 51.3095 39.5459C51.1617 39.6079 51.0031 39.64 50.8429 39.6404Z" fill="#2563AC"/>
<path d="M43.9591 46.5243C43.7183 46.5243 43.483 46.4528 43.2829 46.319C43.0827 46.1853 42.9267 45.9951 42.8347 45.7727C42.7426 45.5502 42.7186 45.3055 42.7657 45.0694C42.8127 44.8333 42.9288 44.6164 43.0991 44.4463L44.8201 42.7243C45.0491 42.5001 45.3574 42.3753 45.6779 42.377C45.9984 42.3787 46.3053 42.5068 46.532 42.7334C46.7586 42.96 46.8867 43.2669 46.8884 43.5875C46.8901 43.908 46.7653 44.2162 46.5411 44.4453L44.8201 46.1673C44.7072 46.2806 44.573 46.3704 44.4252 46.4317C44.2775 46.493 44.119 46.5244 43.9591 46.5243Z" fill="#2563AC"/>
<path d="M48.2639 64.128C47.9411 64.128 47.6316 63.9997 47.4033 63.7715C47.1751 63.5433 47.0469 63.2337 47.0469 62.911V59.26C47.0469 58.9372 47.1751 58.6276 47.4033 58.3994C47.6316 58.1712 47.9411 58.043 48.2639 58.043C48.5866 58.043 48.8962 58.1712 49.1244 58.3994C49.3527 58.6276 49.4809 58.9372 49.4809 59.26V62.911C49.4809 63.2337 49.3527 63.5433 49.1244 63.7715C48.8962 63.9997 48.5866 64.128 48.2639 64.128Z" fill="#2563AC"/>
<path d="M63.7529 57.7126C63.5929 57.7127 63.4345 57.6813 63.2867 57.62C63.139 57.5587 63.0048 57.4689 62.8919 57.3556L60.3109 54.7736C60.0925 54.5435 59.9726 54.2373 59.9767 53.9201C59.9808 53.6029 60.1085 53.2998 60.3328 53.0755C60.557 52.8511 60.86 52.7231 61.1772 52.7189C61.4944 52.7146 61.8007 52.8343 62.0309 53.0526L64.6129 55.6356C64.7833 55.8058 64.8993 56.0227 64.9463 56.2589C64.9934 56.4951 64.9693 56.7399 64.8771 56.9624C64.7849 57.1849 64.6288 57.375 64.4285 57.5088C64.2282 57.6425 63.9927 57.7138 63.7519 57.7136L63.7529 57.7126Z" fill="#2563AC"/>
<path d="M61.171 29.313C60.9302 29.3132 60.6947 29.2419 60.4944 29.1082C60.2941 28.9745 60.138 28.7843 60.0458 28.5619C59.9536 28.3394 59.9295 28.0945 59.9766 27.8583C60.0236 27.6221 60.1396 27.4052 60.31 27.235L62.891 24.652C63.1201 24.4278 63.4283 24.303 63.7488 24.3047C64.0694 24.3064 64.3763 24.4345 64.6029 24.6611C64.8295 24.8878 64.9576 25.1947 64.9593 25.5152C64.961 25.8357 64.8362 26.144 64.612 26.373L62.032 28.956C61.9191 29.0693 61.7849 29.1592 61.6372 29.2204C61.4894 29.2817 61.331 29.3132 61.171 29.313Z" fill="#2563AC"/>
<path d="M48.2639 23.9649C47.9411 23.9649 47.6316 23.8367 47.4033 23.6085C47.1751 23.3802 47.0469 23.0707 47.0469 22.7479V19.0959C47.0469 18.7731 47.1751 18.4636 47.4033 18.2354C47.6316 18.0071 47.9411 17.8789 48.2639 17.8789C48.5866 17.8789 48.8962 18.0071 49.1244 18.2354C49.3527 18.4636 49.4809 18.7731 49.4809 19.0959V22.7469C49.481 22.9068 49.4496 23.0652 49.3885 23.2129C49.3274 23.3607 49.2378 23.495 49.1248 23.6081C49.0118 23.7212 48.8776 23.8109 48.7298 23.8722C48.5821 23.9334 48.4238 23.9649 48.2639 23.9649Z" fill="#2563AC"/>
<path d="M70.1727 42.2211H66.5217C66.3619 42.2211 66.2036 42.1896 66.056 42.1285C65.9083 42.0673 65.7741 41.9777 65.6611 41.8647C65.5481 41.7516 65.4585 41.6175 65.3973 41.4698C65.3362 41.3222 65.3047 41.1639 65.3047 41.0041C65.3047 40.8443 65.3362 40.686 65.3973 40.5384C65.4585 40.3907 65.5481 40.2566 65.6611 40.1436C65.7741 40.0305 65.9083 39.9409 66.056 39.8797C66.2036 39.8186 66.3619 39.7871 66.5217 39.7871H70.1727C70.3325 39.7871 70.4908 39.8186 70.6384 39.8797C70.7861 39.9409 70.9202 40.0305 71.0332 40.1436C71.1463 40.2566 71.2359 40.3907 71.2971 40.5384C71.3582 40.686 71.3897 40.8443 71.3897 41.0041C71.3897 41.1639 71.3582 41.3222 71.2971 41.4698C71.2359 41.6175 71.1463 41.7516 71.0332 41.8647C70.9202 41.9777 70.7861 42.0673 70.6384 42.1285C70.4908 42.1896 70.3325 42.2211 70.1727 42.2211Z" fill="#2563AC"/>
<path d="M39.4808 27.6156H26.3498C26.027 27.6156 25.7175 27.4874 25.4893 27.2592C25.261 27.031 25.1328 26.7214 25.1328 26.3986C25.1328 26.0759 25.261 25.7663 25.4893 25.5381C25.7175 25.3099 26.027 25.1816 26.3498 25.1816H39.4808C39.8036 25.1816 40.1131 25.3099 40.3414 25.5381C40.5696 25.7663 40.6978 26.0759 40.6978 26.3986C40.6978 26.7214 40.5696 27.031 40.3414 27.2592C40.1131 27.4874 39.8036 27.6156 39.4808 27.6156Z" fill="#2563AC"/>
<path d="M39.4808 56.8266H26.3498C26.027 56.8266 25.7175 56.6984 25.4893 56.4701C25.261 56.2419 25.1328 55.9323 25.1328 55.6096C25.1328 55.2868 25.261 54.9773 25.4893 54.749C25.7175 54.5208 26.027 54.3926 26.3498 54.3926H39.4808C39.8036 54.3926 40.1131 54.5208 40.3414 54.749C40.5696 54.9773 40.6978 55.2868 40.6978 55.6096C40.6978 55.9323 40.5696 56.2419 40.3414 56.4701C40.1131 56.6984 39.8036 56.8266 39.4808 56.8266Z" fill="#2563AC"/>
<path d="M48.1855 64.105C44.5265 64.1084 40.9199 63.2354 37.6675 61.559C37.5254 61.4858 37.3991 61.3853 37.2959 61.2633C37.1926 61.1413 37.1144 61.0001 37.0657 60.8479C37.017 60.6956 36.9987 60.5353 37.012 60.376C37.0253 60.2167 37.0698 60.0616 37.143 59.9195C37.2162 59.7774 37.3167 59.6511 37.4387 59.5479C37.5607 59.4446 37.7019 59.3664 37.8541 59.3177C38.0064 59.269 38.1667 59.2508 38.326 59.264C38.4853 59.2773 38.6404 59.3218 38.7825 59.395C41.9369 61.0213 45.4565 61.8089 49.0032 61.6823C52.5499 61.5557 56.0044 60.519 59.0348 58.672C62.0652 56.8249 64.5696 54.2295 66.3074 51.1351C68.0452 48.0407 68.9579 44.5514 68.9579 41.0025C68.9579 37.4536 68.0452 33.9643 66.3074 30.8699C64.5696 27.7755 62.0652 25.1801 59.0348 23.333C56.0044 21.486 52.5499 20.4493 49.0032 20.3227C45.4565 20.1961 41.9369 20.9837 38.7825 22.61C38.6404 22.6832 38.4853 22.7277 38.326 22.741C38.1667 22.7542 38.0064 22.736 37.8541 22.6873C37.7019 22.6386 37.5607 22.5604 37.4387 22.4571C37.3167 22.3539 37.2162 22.2276 37.143 22.0855C37.0698 21.9434 37.0253 21.7883 37.012 21.629C36.9987 21.4697 37.017 21.3094 37.0657 21.1571C37.1144 21.0049 37.1926 20.8637 37.2959 20.7417C37.3991 20.6197 37.5254 20.5192 37.6675 20.446C40.781 18.8376 44.2195 17.958 47.7229 17.8739C51.2263 17.7897 54.7031 18.5031 57.8903 19.9601C61.0775 21.4171 63.8917 23.5796 66.1203 26.2841C68.3489 28.9887 69.9335 32.1645 70.7542 35.5714C71.575 38.9784 71.6105 42.5274 70.8581 45.9501C70.1056 49.3728 68.5849 52.5797 66.4109 55.3283C64.2369 58.0769 61.4665 60.2953 58.3091 61.8158C55.1517 63.3363 51.6899 64.1191 48.1855 64.105Z" fill="#2563AC"/>
</g>
</g>
</g>
<defs>
<clipPath id="clip0_1566_4052">
<rect width="80" height="80" fill="white" transform="translate(0.53125 0.378906)"/>
</clipPath>
<clipPath id="clip1_1566_4052">
<rect width="80" height="80" fill="white" transform="translate(0.53125 0.378906)"/>
</clipPath>
<clipPath id="clip2_1566_4052">
<rect width="80" height="80" fill="white" transform="translate(0.53125 0.378906)"/>
</clipPath>
</defs>
</svg>
